<?xml version="1.0" encoding="UTF-8"?>
<svg version="1.0" xmlns="http://www.w3.org/2000/svg" xmlns:xlink="http://www.w3.org/1999/xlink" width="600" height="400">
	<rect width="600" height="400" fill="#fff"/>
	<g id="quarter">
		<rect width="250" height="150" fill="#002495"/>
		<path d="M 149.49815,93.070319 c 1.60698,-2.389976 1.46998,-7.621923 -1.74298,-9.468905 -2.45798,-1.228988 -5.23395,-.747993 -6.53094,.309997 -2.08798,1.262987 -4.09896,5.301947 -4.09896,9.391906 l 7.20993,-.009 -.002,8.050923 -14.96385,-.008 c .196,4.14096 2.45398,7.45792 6.65593,9.3049 -.54099,1.74499 -3.07497,5.30195 -6.55493,5.06095 -.68699,3.76397 -1.33999,5.87694 -4.46896,9.29691 -3.13096,-3.41897 -3.78396,-5.53294 -4.47095,-9.29691 -3.47997,.241 -6.01394,-3.31596 -6.55494,-5.06095 4.20196,-1.84698 6.45994,-5.16394 6.65594,-9.3049 l -14.96485,.008 v -8.050923 l 7.20793,.009 c 0,-4.089959 -2.00798,-8.128919 -4.09796,-9.391906 -1.29699,-1.05699 -4.07196,-1.537985 -6.52894,-.309997 -3.214964,1.846982 -3.352962,7.079929 -1.74598,9.468905 -15.181846,-2.818972 -13.675861,-17.480825 -8.503913,-22.803772 4.179958,-4.299957 8.736913,-4.97195 12.250873,-3.615964 7.98592,2.862972 13.35687,12.402876 13.61787,26.652734 h 4.17595 c 0,-12.95387 -2.25397,-17.083829 -8.12692,-33.353666 -2.95797,-7.688924 -1.18098,-17.194829 4.10696,-25.947741 1.89398,-3.136969 4.25996,-5.96894 6.97893,-9.00191 2.71698,3.03297 5.08295,5.864941 6.97693,9.00191 5.28795,8.752912 7.06493,18.258817 4.10896,25.947741 -5.87594,16.269837 -8.12992,20.398796 -8.12992,33.353666 h 4.17596 c .261,-14.249858 5.63395,-23.789762 13.61787,-26.652734 3.51396,-1.354986 8.07392,-.683993 12.25187,3.615964 5.17095,5.322947 6.67694,19.9848 -8.50491,22.803772 z" fill="#fff"/>
	</g>
	<use xlink:href="#quarter" x="350"/>
	<use xlink:href="#quarter" y="250"/>
	<use xlink:href="#quarter" x="350" y="250"/>
</svg>