<?xml version="1.0" encoding="utf-8"?>
<!-- Generator: Adobe Illustrator 15.1.0, SVG Export Plug-In  -->
<!DOCTYPE svg [
	<!ENTITY ns_flows "http://ns.adobe.com/Flows/1.0/">
]>
<svg version="1.2" baseProfile="tiny"
	 xmlns="http://www.w3.org/2000/svg" xmlns:xlink="http://www.w3.org/1999/xlink" xmlns:a="http://ns.adobe.com/AdobeSVGViewerExtensions/3.0/"
	 x="0px" y="0px" width="107px" height="107px" viewBox="0 0 107 107" overflow="visible" xml:space="preserve">
<defs>
</defs>
<g>
	<linearGradient id="SVGID_1_" gradientUnits="userSpaceOnUse" x1="53.6655" y1="0" x2="53.6655" y2="107.3335">
		<stop  offset="0" style="stop-color:#727270"/>
		<stop  offset="1" style="stop-color:#41413F"/>
		<a:midPointStop  offset="0" style="stop-color:#727270"/>
		<a:midPointStop  offset="0.5" style="stop-color:#727270"/>
		<a:midPointStop  offset="1" style="stop-color:#41413F"/>
	</linearGradient>
	<path fill="url(#SVGID_1_)" d="M107.3,99.3c0,4.4-3.6,8-8,8H8c-4.4,0-8-3.6-8-8V8c0-4.4,3.6-8,8-8h91.3c4.4,0,8,3.6,8,8V99.3z"/>
</g>
<circle fill="#FFFFFF" cx="30.8" cy="75.7" r="8.4"/>
<g>
	<g  a:adobe-opacity-share="1">
		<circle fill="#33342E"  a:adobe-opacity-share="0" cx="79.8" cy="78.7" r="12.9"/>
	</g>
	<g>
		<circle fill="#FFFFFF" cx="77.8" cy="75.7" r="12.9"/>
	</g>
</g>
<circle fill="#67C8F0" cx="77.8" cy="75.7" r="4.7"/>
<path fill="#67C8F0" d="M77.8,88.9c-7.2,0-13.1-5.9-13.1-13.1s5.9-13.1,13.1-13.1c7.2,0,13.1,5.9,13.1,13.1S85.1,88.9,77.8,88.9z
	 M77.8,66.6c-5,0-9.1,4.1-9.1,9.1s4.1,9.1,9.1,9.1c5,0,9.1-4.1,9.1-9.1S82.9,66.6,77.8,66.6z"/>
<g>
	<rect x="9.4" y="20.4" fill-rule="evenodd" fill="#FFFFFF" width="41.5" height="33.7"/>
	<g id="PfcyK0_2_">
		<g>
			<g>
				<path fill-rule="evenodd" fill="#9CD1EA" d="M48.5,31.2c-7.5-0.8-14.2,1.4-21.8,1.4c-0.3,0-0.6,0-0.9,0C22,32,18.6,31.1,14.5,31
					c-0.7-0.2-1.8,0-2.6-0.1c0-2.7,0-5.4,0-8.1c12.2,0,24.4,0,36.6,0C48.5,25.6,48.5,28.4,48.5,31.2z"/>
				<path fill-rule="evenodd" fill="#70B0D0" d="M11.8,31C11.8,30.9,11.8,30.9,11.8,31c0.9,0,1.9-0.2,2.6,0C13.6,31,12.7,31,11.8,31
					z"/>
				<path fill-rule="evenodd" fill="#70B0D0" d="M25.7,32.6c0.3,0,0.6,0,0.9,0C26.5,32.7,25.9,32.7,25.7,32.6z"/>
				<path fill-rule="evenodd" fill="#9CD1EA" d="M28.7,36.2c6.6,0,13,0,19.7,0c0,1.3,0,2.7,0,4c-0.6-0.2-1.1,0.1-1.7-0.4
					c-0.5,0.2-0.6,0.4-1.3,0.2c-0.2-0.2-0.9-0.1-1.1,0c-1.1,0.3-2.4,0-3.2-0.4c-0.3-0.1-0.1,0.3-0.4,0.2c-2.3-0.5-4.4-1.1-7.2-1.1
					c-0.2-0.2-0.7,0-1-0.1c-3.4-0.3-6.8-0.6-9.5-1.5c-0.7-0.1-1.4-0.3-2.2-0.2c-0.2-0.2-0.7,0-1-0.1c-1.2,0.1-2.1-0.1-3-0.4
					c0.8-0.2,1.9,0.2,2.7,0c0.3,0.1,1.2,0.1,1.5,0c0.2,0,0.3,0,0.5-0.1c0.3,0,0.6,0,0.9,0c0.1,0,0.1,0,0.2,0c0.6,0.1,1.6,0.1,2.2,0
					c0.6,0,1.2-0.1,1.8-0.1c0.3,0,0.9,0.1,1.1-0.1c0.1,0,0.1,0,0.2,0C28.1,36.3,28.6,36.4,28.7,36.2z"/>
				<path fill-rule="evenodd" fill="#70B0D0" d="M27.9,36.3c0.1-0.2,0.6,0,0.9-0.1C28.6,36.4,28.1,36.3,27.9,36.3z"/>
				<path fill-rule="evenodd" fill="#70B0D0" d="M26.5,36.4c0.2-0.2,0.8,0,1.1-0.1C27.4,36.5,26.9,36.3,26.5,36.4z"/>
				<path fill-rule="evenodd" fill="#70B0D0" d="M21.5,36.5c0.1-0.1,0.8-0.1,0.9,0C22.1,36.5,21.8,36.5,21.5,36.5z"/>
				<path fill-rule="evenodd" fill="#70B0D0" d="M22.6,36.5c0.7,0,1.5,0,2.2,0C24.2,36.7,23.2,36.7,22.6,36.5z"/>
				<path fill-rule="evenodd" fill="#70B0D0" d="M19.4,36.6c0.5,0,1,0,1.5,0C20.6,36.7,19.8,36.7,19.4,36.6z"/>
				<path fill-rule="evenodd" fill="#70B0D0" d="M19.7,37c0.3,0,0.8-0.1,1,0.1C20.4,37,19.9,37.2,19.7,37z"/>
				<path fill-rule="evenodd" fill="#70B0D0" d="M32.5,38.8c0.3,0,0.8-0.1,1,0.1C33.2,38.8,32.7,39,32.5,38.8z"/>
				<path fill-rule="evenodd" fill="#5A9FC1" d="M48.5,45.7c0,0.2,0,0.4,0,0.7c-1.4,0.6-2.9,0.6-4.7,0.7
					C45.1,46.4,46.7,45.9,48.5,45.7z"/>
				<path fill-rule="evenodd" fill="#5A9FC1" d="M20.8,37.1c0.8,0,1.4,0.2,2.2,0.2c2.7,1,6.1,1.2,9.5,1.5c0.2,0.2,0.7,0,1,0.1
					c2.8,0,4.9,0.6,7.2,1.1c0.3,0.1,0.1-0.3,0.4-0.2c0.8,0.4,2.2,0.7,3.2,0.4c0.2,0.1,0.7-0.1,1.1,0c0.7,0.1,0.8,0,1.3-0.2
					c0.6,0.4,1.1,0.2,1.7,0.4c0,1.7,0,3.4,0,5.1c-0.7-0.2-1.5,0.5-2.1,0.3c-0.1,0,0-0.1,0-0.1c-0.4,0.1-0.7,0.3-1,0.3
					c-0.1,0-0.3-0.2-0.4-0.1c-0.5,0.1-1.1,0.5-1.8,0.4c-0.3,0,0.3-0.3,0-0.6c-0.8,0.2-2.1,0.7-2.6,0.1c-2.1,0.6-4.8,1-7.5,0.8
					c1.5-0.5,3.5-0.6,5.1-1c-4.9-0.3-8.5,0.9-13.1,1.1c0.1-0.4,0.7-0.2,1-0.3c2.3-0.4,5-0.8,6.8-1.8c-1.8,0-3.8,0.8-5.9,1
					c-1.1,0.1-2.2,0-3.2,0.4c1.3-1.2,4-1.1,5.5-2.2c-0.5-0.3-1.3-0.1-1.8,0.1c-0.3,0,0.1-0.2,0.1-0.3c-1,0-1.8,0.1-2.7,0.1
					c-0.2-0.1-0.4-0.1-0.4-0.4c-1.6,0.3-2.8-0.4-4.3,0c0-0.2,0.4-0.1,0.7-0.2c0.3-0.2,0.3-0.3,0.6-0.4c-1.6-0.4-3.6,0.1-4.4-1
					c-2.3,0.4-2.8-1.7-4.8-1.8c0-0.1,0-0.1-0.1-0.1c0-2.9,0-5.8,0-8.6c0.9,0,1.8,0,2.6,0c4.2,0.1,7.5,1.1,11.3,1.6
					c0.1,0.1,0.8,0.1,0.9,0c7.6,0,14.3-2.2,21.8-1.4c0,1.7,0,3.4,0,5.1c-6.7,0-13.1,0-19.7,0c-0.3,0-0.7-0.1-0.9,0.1
					c-0.1,0-0.1,0-0.2,0c-0.3,0-0.9-0.1-1.1,0.1c-0.6,0-1.1,0.2-1.8,0.1c-0.7,0-1.5,0-2.2,0c-0.1,0-0.1,0-0.2,0
					c-0.1-0.1-0.8-0.1-0.9,0c-0.2,0-0.3,0.1-0.5,0.1c-0.5,0-1,0-1.5,0c-0.8,0.2-1.9-0.2-2.7,0c0.9,0.2,1.8,0.5,3,0.4
					C19.9,37.2,20.4,37,20.8,37.1z"/>
				<path fill-rule="evenodd" fill="#70B0D0" d="M44.4,40.1c0.2-0.1,0.9-0.2,1.1,0C45.1,40.1,44.5,40.2,44.4,40.1z"/>
				<path fill-rule="evenodd" fill="#70B0D0" d="M11.8,39.6c0.1,0,0.1,0.1,0.1,0.1c2,0.2,2.5,2.2,4.8,1.8c0.8,1.2,2.8,0.6,4.4,1
					c-0.3,0.1-0.3,0.3-0.6,0.4c-0.2,0.1-0.6,0.1-0.7,0.2c1.5-0.4,2.7,0.3,4.3,0c0,0.2,0.2,0.3,0.4,0.4c0.9-0.1,1.7-0.2,2.7-0.1
					c0,0.1-0.4,0.3-0.1,0.3c0.5-0.2,1.3-0.3,1.8-0.1c-1.5,1.1-4.1,1-5.5,2.2c1-0.4,2.1-0.3,3.2-0.4c2.1-0.2,4-1,5.9-1
					c-1.8,0.9-4.6,1.4-6.8,1.8c-0.3,0-0.8-0.1-1,0.3c4.7-0.2,8.2-1.4,13.1-1.1c-1.6,0.5-3.6,0.5-5.1,1c2.7,0.2,5.4-0.2,7.5-0.8
					c0.6,0.6,1.8,0.1,2.6-0.1c0.3,0.3-0.3,0.6,0,0.6c0.7,0,1.4-0.4,1.8-0.4c0.1,0,0.4,0.1,0.4,0.1c0.3,0,0.6-0.2,1-0.3
					c0,0-0.1,0.1,0,0.1c0.6,0.2,1.5-0.5,2.1-0.3c0,0.1,0,0.2,0,0.3c-1.8,0.2-3.3,0.7-4.7,1.4c1.8-0.1,3.3-0.1,4.7-0.7
					c0,1.7,0,3.5,0,5.2c-12.2,0-24.4,0-36.6,0C11.8,47.6,11.8,43.6,11.8,39.6z"/>
			</g>
		</g>
	</g>
</g>
<g>
	<g  a:adobe-opacity-share="1">
		<rect x="59.8" y="23.4" fill-rule="evenodd" fill="#33342E"  a:adobe-opacity-share="0" width="41.5" height="33.7"/>
		<path fill-rule="evenodd" fill="#33342E"  a:adobe-opacity-share="0" d="M84.8,29.9c0.2,0,0.6-0.1,0.7,0.1
			C85.3,29.9,84.9,30.1,84.8,29.9z"/>
		<path fill-rule="evenodd" fill="#33342E"  a:adobe-opacity-share="0" d="M91,35.4c0.4,0,0.2,0.4,0.1,0.5
			C90.9,35.9,90.9,35.5,91,35.4z"/>
		<path fill-rule="evenodd" fill="#33342E"  a:adobe-opacity-share="0" d="M92.6,37.5c0,0.2-0.1,0.2-0.2,0.3c-0.2,0-0.3-0.1-0.3-0.3
			C92.1,37.4,92.5,37.4,92.6,37.5z"/>
		<path fill-rule="evenodd" fill="#33342E"  a:adobe-opacity-share="0" d="M75.4,40.4c-0.1,0.7,0.2,1,0.2,1.6c0.7,0.2,1.1,0.5,1.1,1
			c0,0.5-0.8,0.6-0.5,1.2c0,0.2,0.2-0.1,0.4,0c0.5,0.7,1.8,0.5,2.9,0.6c-0.1,0.2-0.4,0.2-0.4,0.5c0.6,0,1.6-0.3,2.6-0.2
			c0.6-0.5,1.7-0.3,2.3-0.1c-0.1,0.6-0.2,1.7,0,2.3c-0.2,0.2-0.7,0-1,0.1c-0.8,1.4-3,0.3-3.9-0.3c0.2,0.6,0.8,0.7,1.3,0.9
			c-1.2,0.5-2.5-0.3-3-1c-0.3,0,0,0.5-0.3,0.4c0.3,0.1,0.5,0.3,0.7,0.5c-0.4,0.2-1.1,0-1.5-0.1c-0.2,0.1,0.3,0.2,0.1,0.4
			c-0.6,0-1-0.3-1.3-0.5c-0.2,0.2,0.2,0.4,0.1,0.7c-0.6-0.1-0.9-0.4-1.5-0.7c-0.5,0.3-1.1,0.1-1.8,0c0.1,0.2,0.4,0.2,0.6,0.3
			c-0.7,0.3-1.3-0.1-1.9,0c-1,0.1-1.8,1.2-2.7,0.5c0.2-0.6,1.1-0.6,1.7-0.9c0-0.3-0.4-0.2-0.4-0.4c-0.1-0.2,0.2-0.1,0.4-0.1
			c0-0.3-0.3-0.3-0.3-0.6c-0.5,0.2-0.7-0.6-1-0.9c-1.1-0.1-1.7,0.4-2,1.1c0.1,0.1,0.2,0.1,0.3,0.2c-0.5,0-0.8,0.3-0.8,0.8
			c0.1,0.3,0.6,0.2,0.9,0.3c0,0.3-0.3,0.2-0.4,0.1c0,0.2,0.2,0.2,0.2,0.3c0.2-0.2,0.8,0.1,1.2,0.2c-0.9,1.3-2.9,0.6-4.4,0.3
			c-0.4,0.1-0.7,0.2-1.1,0.2c0-2.6,0-5.1,0-7.7c4.9,0.3,8.3-0.8,13.1-0.6C75.5,40.8,75.2,40.3,75.4,40.4z"/>
		<path fill-rule="evenodd" fill="#33342E"  a:adobe-opacity-share="0" d="M89.9,45.8c0.4,0,0.6,0.3,1,0.3
			C90.7,46.1,89.9,46.1,89.9,45.8z"/>
		<path fill-rule="evenodd" fill="#33342E"  a:adobe-opacity-share="0" d="M93.2,36.8c0.4-0.1,0.8,0.1,1,0.4
			c-0.1-0.3-0.6-0.1-0.7-0.4C93.4,36.8,93.4,36.9,93.2,36.8C93.2,36.8,93.2,36.8,93.2,36.8z"/>
		<path fill-rule="evenodd" fill="#33342E"  a:adobe-opacity-share="0" d="M89,30.9c0,0.3,0.2,0.3,0.2,0.5c-0.2-0.1-0.4-0.3-0.7-0.5
			c0.3,0,0.2,0.2,0.4,0.3C88.9,31.1,88.8,30.7,89,30.9z"/>
		<path fill-rule="evenodd" fill="#33342E"  a:adobe-opacity-share="0" d="M83,29.4c0.4-0.2,0.6,0.3,0.8,0.5
			C83.5,29.8,83.5,29.3,83,29.4z"/>
		<path fill-rule="evenodd" fill="#33342E"  a:adobe-opacity-share="0" d="M77.5,34.2c0,0.4-0.2,0.5-0.4,0.7
			C77.2,34.6,77.4,34.4,77.5,34.2z"/>
		<path fill-rule="evenodd" fill="#33342E"  a:adobe-opacity-share="0" d="M77.6,36.1c-0.2,0.4,0.3,0.8-0.1,1
			C77.8,36.8,77.3,36.4,77.6,36.1z"/>
		<path fill-rule="evenodd" fill="#33342E"  a:adobe-opacity-share="0" d="M94.4,39.2c0,0.8-0.5,0.9-0.2,1.6c-0.4,0.3-0.6,1-0.1,1.5
			c-0.1,0-0.2,0-0.3,0c0.2,0.8-1,0.9-0.5,1.6c0.4,0,0.5-0.6,0.9-0.2c-0.8,0.8-2.5,0.3-3.8,0.4c-0.6,1.6-2.9,0.2-4.1,0.4
			c-0.6,0.7-0.4,2.7,0.7,2.8c0.6-0.5,2.1,0.1,2.4-0.7c0.8,0,1.6,0.5,2.3,0.1c0-0.2,0-0.3-0.1-0.4c0.4-0.1,1.2,0.7,1.5,0
			c1.1,0.2,2.2,0.8,3.3,0.7c0.2-0.1,0.3-0.4,0.1-0.6c0.5,0,0.8,0.1,1.2,0c0.2-0.1-0.3-0.2-0.4-0.3c0.3,0,0.9,0.3,1.5,0.2
			c0,3.4,0,4.8,0,8.1c-12.2,0-24.4,0-36.6,0c0-2.5,0-3,0-5.5c0.4,0,0.7-0.2,1.1-0.2c1.5,0.3,3.5,1,4.4-0.3c-0.5-0.2-1-0.4-1.2-0.2
			c-0.1-0.1-0.2-0.1-0.2-0.3c0.2,0.1,0.4,0.1,0.4-0.1c-0.3-0.1-0.7,0-0.9-0.3c0.1-0.5,0.3-0.8,0.8-0.8c-0.1-0.1-0.2-0.1-0.3-0.2
			c0.3-0.7,0.9-1.2,2-1.1c0.3,0.3,0.5,1,1,0.9c0,0.3,0.3,0.3,0.3,0.6c-0.1,0-0.4-0.1-0.4,0.1c0,0.3,0.4,0.2,0.4,0.4
			c-0.5,0.3-1.5,0.3-1.7,0.9c0.9,0.6,1.7-0.4,2.7-0.5c0.6-0.1,1.2,0.3,1.9,0c-0.2-0.1-0.5-0.1-0.6-0.3c0.7,0.1,1.2,0.3,1.8,0
			c0.6,0.2,0.9,0.5,1.5,0.7c0.1-0.3-0.3-0.5-0.1-0.7c0.4,0.3,0.7,0.5,1.3,0.5c0.2-0.2-0.3-0.3-0.1-0.4c0.4,0.1,1.1,0.3,1.5,0.1
			c-0.2-0.2-0.4-0.4-0.7-0.5c0.3,0,0-0.5,0.3-0.4c0.6,0.7,1.8,1.4,3,1c-0.5-0.2-1.2-0.3-1.3-0.9c0.9,0.6,3.1,1.7,3.9,0.3
			c0.3,0,0.8,0.1,1-0.1c-0.2-0.6-0.1-1.7,0-2.3c-0.6-0.2-1.7-0.4-2.3,0.1c-0.9,0-1.9,0.2-2.6,0.2c0-0.3,0.3-0.3,0.4-0.5
			c-1-0.1-2.4,0.1-2.9-0.6c-0.2-0.1-0.4,0.2-0.4,0c-0.3-0.6,0.5-0.7,0.5-1.2c0-0.5-0.4-0.9-1.1-1c0-0.6-0.3-0.9-0.2-1.6
			c0-0.4,0-0.8,0-1.2c1.4,0,0.3-1.6,0.8-2.2c0.5-0.1,0.8,0.4,1.2,0.2c0.5-0.2,0-0.7,0.1-1c-0.1-0.5-0.3-0.8-0.5-1c0,0,0-0.1,0-0.1
			c0.2-0.2,0.4-0.4,0.4-0.7c0.7-1.1,1.1-2.5,2.3-3c0.3,0.3,1.2,0.4,1.5,0.1c0-0.2-0.2-0.2-0.1-0.5c0.2-0.2,0.7-0.3,0.4-0.7
			c0.4-0.3,0.7-0.6,1.3-0.6c0.5,0,0.5,0.4,0.8,0.5c0.4,0,0.4,0.4,0.6,0.6c0.4,0,0.1-0.3,0.1-0.6c0.1-0.1,0.1,0,0.2,0
			c0.1,0.2,0.5,0,0.7,0.1c0.1,0.4,0.5-0.1,0.8,0.2c0.2-0.5,0.6-0.6,1.2-0.4c-0.3,0.7,0.5,0.9,1,1.2c0.2,0.2,0.4,0.4,0.7,0.5
			c0-0.2-0.2-0.3-0.2-0.5c0.6,0.3,1.1,0.7,1.4,1.3c0.3,0.1,0.2-0.2,0.4-0.1c0.1,0.4-0.1,0.5-0.1,0.7c1.1-0.4,1.6,0.9,2.2,1.4
			c-0.2,0.1-0.1,0.5-0.4,0.3c0.1,0.9,0.6,1.4,1,1.9c-0.3,0-1.1,0.3-0.6,0.7c0.3,0.1,0-0.4,0.4-0.3c0,0,0,0,0,0.1
			c0.2,0.1,0.2-0.1,0.4-0.1c0.1,0.3,0.6,0.1,0.7,0.4C94.8,37.6,94.7,38.5,94.4,39.2z M91.1,35.9c0.1-0.1,0.3-0.6-0.1-0.5
			C90.9,35.5,90.9,35.9,91.1,35.9z M92,37.5c0,0.2,0.1,0.3,0.3,0.3c0.1-0.1,0.2-0.1,0.2-0.3C92.5,37.4,92.1,37.4,92,37.5z"/>
		<path fill-rule="evenodd" fill="#33342E"  a:adobe-opacity-share="0" d="M98.8,38.9c0,2.5,0,5,0,7.5c-0.6,0.1-1.2-0.3-1.5-0.2
			c0.1,0.1,0.5,0.2,0.4,0.3c-0.4,0.1-0.8,0-1.2,0c0.1,0.2,0.1,0.5-0.1,0.6c-1.1,0.1-2.2-0.5-3.3-0.7c-0.3,0.7-1.2-0.1-1.5,0
			c0.1,0.1,0.2,0.2,0.1,0.4c-0.7,0.3-1.5-0.1-2.3-0.1c-0.3,0.7-1.9,0.2-2.4,0.7c-1.1-0.1-1.3-2.1-0.7-2.8c1.2-0.2,3.5,1.2,4.1-0.4
			c1.3-0.1,3,0.4,3.8-0.4c-0.4-0.4-0.5,0.2-0.9,0.2c-0.5-0.7,0.7-0.8,0.5-1.6c0.1,0,0.2,0,0.3,0c-0.5-0.4-0.3-1.1,0.1-1.5
			c-0.3-0.7,0.2-0.8,0.2-1.6C95.9,39.5,97.3,39,98.8,38.9z M90.9,46.1c-0.4,0-0.5-0.3-1-0.3C89.9,46.1,90.7,46.1,90.9,46.1z"/>
		<path fill-rule="evenodd" fill="#33342E"  a:adobe-opacity-share="0" d="M98.8,38.9c-1.5,0-2.9,0.5-4.4,0.3
			c0.3-0.7,0.4-1.6-0.1-2.1c-0.2-0.3-0.7-0.5-1-0.4c-0.3-0.1-0.1,0.4-0.4,0.3c-0.5-0.4,0.2-0.7,0.6-0.7c-0.5-0.5-0.9-1-1-1.9
			c0.3,0.2,0.2-0.2,0.4-0.3c-0.6-0.6-1.1-1.8-2.2-1.4c0-0.2,0.2-0.4,0.1-0.7c-0.2,0-0.2,0.2-0.4,0.1c-0.3-0.6-0.8-1-1.4-1.3
			c-0.1-0.2,0,0.2,0,0.3c-0.2,0-0.2-0.3-0.4-0.3c-0.4-0.3-1.3-0.5-1-1.2c-0.6-0.1-1.1-0.1-1.2,0.4c-0.3-0.3-0.7,0.1-0.8-0.2
			c-0.1-0.2-0.5,0-0.7-0.1c-0.1,0-0.1-0.1-0.2,0c0,0.3,0.2,0.6-0.1,0.6c-0.2-0.2-0.2-0.6-0.6-0.6c-0.2-0.2-0.4-0.7-0.8-0.5
			c-0.6,0-1,0.3-1.3,0.6c0.3,0.5-0.2,0.6-0.4,0.7c-0.1,0.3,0.2,0.3,0.1,0.5c-0.4,0.4-1.2,0.3-1.5-0.1c-1.2,0.6-1.7,1.9-2.3,3
			c-0.2,0.2-0.3,0.4-0.4,0.7c0,0,0,0.1,0,0.1c0.3,0.3,0.4,0.6,0.5,1c-0.3,0.3,0.2,0.7-0.1,1c-0.5,0.2-0.7-0.3-1.2-0.2
			c-0.5,0.6,0.6,2.2-0.8,2.2c0,0.4,0,0.8,0,1.2c-0.2,0,0.1,0.5-0.1,0.4c-4.8-0.2-8.3,0.9-13.1,0.6c0-5.8,0-9.7,0-15.6
			c12.2,0,24.4,0,36.6,0C98.8,30.9,98.8,33.9,98.8,38.9z"/>
	</g>
	<g>
		<g>
			<rect x="56.8" y="20.4" fill-rule="evenodd" fill="#FFFFFF" width="41.5" height="33.7"/>
			<g id="tykqki_2_">
				<g>
					<g>
						<path fill-rule="evenodd" fill="#BDCF31" d="M81.8,26.9c0.2,0,0.6-0.1,0.7,0.1C82.3,26.9,81.9,27.1,81.8,26.9z"/>
						<path fill-rule="evenodd" fill="#D9D931" d="M88,32.4c0.4,0,0.2,0.4,0.1,0.5C87.9,32.9,87.9,32.5,88,32.4z"/>
						<path fill-rule="evenodd" fill="#D9D931" d="M89.6,34.5c0,0.2-0.1,0.2-0.2,0.3c-0.2,0-0.3-0.1-0.3-0.3
							C89.1,34.4,89.5,34.4,89.6,34.5z"/>
						<path fill-rule="evenodd" fill="#BDCF31" d="M72.4,37.4c-0.1,0.7,0.2,1,0.2,1.6c0.7,0.2,1.1,0.5,1.1,1c0,0.5-0.8,0.6-0.5,1.2
							c0,0.2,0.2-0.1,0.4,0c0.5,0.7,1.8,0.5,2.9,0.6c-0.1,0.2-0.4,0.2-0.4,0.5c0.6,0,1.6-0.3,2.6-0.2c0.6-0.5,1.7-0.3,2.3-0.1
							c-0.1,0.6-0.2,1.7,0,2.3c-0.2,0.2-0.7,0-1,0.1c-0.8,1.4-3,0.3-3.9-0.3c0.2,0.6,0.8,0.7,1.3,0.9c-1.2,0.5-2.5-0.3-3-1
							c-0.3,0,0,0.5-0.3,0.4c0.3,0.1,0.5,0.3,0.7,0.5c-0.4,0.2-1.1,0-1.5-0.1c-0.2,0.1,0.3,0.2,0.1,0.4c-0.6,0-1-0.3-1.3-0.5
							c-0.2,0.2,0.2,0.4,0.1,0.7c-0.6-0.1-0.9-0.4-1.5-0.7c-0.5,0.3-1.1,0.1-1.8,0c0.1,0.2,0.4,0.2,0.6,0.3c-0.7,0.3-1.3-0.1-1.9,0
							c-1,0.1-1.8,1.2-2.7,0.5c0.2-0.6,1.1-0.6,1.7-0.9c0-0.3-0.4-0.2-0.4-0.4c-0.1-0.2,0.2-0.1,0.4-0.1c0-0.3-0.3-0.3-0.3-0.6
							c-0.5,0.2-0.7-0.6-1-0.9c-1.1-0.1-1.7,0.4-2,1.1c0.1,0.1,0.2,0.1,0.3,0.2c-0.5,0-0.8,0.3-0.8,0.8c0.1,0.3,0.6,0.2,0.9,0.3
							c0,0.3-0.3,0.2-0.4,0.1c0,0.2,0.2,0.2,0.2,0.3c0.2-0.2,0.8,0.1,1.2,0.2c-0.9,1.3-2.9,0.6-4.4,0.3c-0.4,0.1-0.7,0.2-1.1,0.2
							c0-2.6,0-5.1,0-7.7c4.9,0.3,8.3-0.8,13.1-0.6C72.5,37.8,72.2,37.3,72.4,37.4z"/>
						<path fill-rule="evenodd" fill="#9DAD3A" d="M86.9,42.8c0.4,0,0.6,0.3,1,0.3C87.7,43.1,86.9,43.1,86.9,42.8z"/>
						<path fill-rule="evenodd" fill="#BDCF31" d="M90.2,33.8c0.4-0.1,0.8,0.1,1,0.4c-0.1-0.3-0.6-0.1-0.7-0.4
							C90.4,33.8,90.4,33.9,90.2,33.8C90.2,33.8,90.2,33.8,90.2,33.8z"/>
						<path fill-rule="evenodd" fill="#BDCF31" d="M86,27.9c0,0.3,0.2,0.3,0.2,0.5c-0.2-0.1-0.4-0.3-0.7-0.5c0.3,0,0.2,0.2,0.4,0.3
							C85.9,28.1,85.8,27.7,86,27.9z"/>
						<path fill-rule="evenodd" fill="#BDCF31" d="M80,26.4c0.4-0.2,0.6,0.3,0.8,0.5C80.5,26.8,80.5,26.3,80,26.4z"/>
						<path fill-rule="evenodd" fill="#BDCF31" d="M74.5,31.2c0,0.4-0.2,0.5-0.4,0.7C74.2,31.6,74.4,31.4,74.5,31.2z"/>
						<path fill-rule="evenodd" fill="#BDCF31" d="M74.6,33.1c-0.2,0.4,0.3,0.8-0.1,1C74.8,33.8,74.3,33.4,74.6,33.1z"/>
						<path fill-rule="evenodd" fill="#9DAD3A" d="M91.4,36.2c0,0.8-0.5,0.9-0.2,1.6c-0.4,0.3-0.6,1-0.1,1.5c-0.1,0-0.2,0-0.3,0
							c0.2,0.8-1,0.9-0.5,1.6c0.4,0,0.5-0.6,0.9-0.2c-0.8,0.8-2.5,0.3-3.8,0.4c-0.6,1.6-2.9,0.2-4.1,0.4c-0.6,0.7-0.4,2.7,0.7,2.8
							c0.6-0.5,2.1,0.1,2.4-0.7c0.8,0,1.6,0.5,2.3,0.1c0-0.2,0-0.3-0.1-0.4c0.4-0.1,1.2,0.7,1.5,0c1.1,0.2,2.2,0.8,3.3,0.7
							c0.2-0.1,0.3-0.4,0.1-0.6c0.5,0,0.8,0.1,1.2,0c0.2-0.1-0.3-0.2-0.4-0.3c0.3,0,0.9,0.3,1.5,0.2c0,3.4,0,4.8,0,8.1
							c-12.2,0-24.4,0-36.6,0c0-2.5,0-3,0-5.5c0.4,0,0.7-0.2,1.1-0.2c1.5,0.3,3.5,1,4.4-0.3c-0.5-0.2-1-0.4-1.2-0.2
							c-0.1-0.1-0.2-0.1-0.2-0.3c0.2,0.1,0.4,0.1,0.4-0.1c-0.3-0.1-0.7,0-0.9-0.3c0.1-0.5,0.3-0.8,0.8-0.8c-0.1-0.1-0.2-0.1-0.3-0.2
							c0.3-0.7,0.9-1.2,2-1.1c0.3,0.3,0.5,1,1,0.9c0,0.3,0.3,0.3,0.3,0.6c-0.1,0-0.4-0.1-0.4,0.1c0,0.3,0.4,0.2,0.4,0.4
							c-0.5,0.3-1.5,0.3-1.7,0.9c0.9,0.6,1.7-0.4,2.7-0.5c0.6-0.1,1.2,0.3,1.9,0c-0.2-0.1-0.5-0.1-0.6-0.3c0.7,0.1,1.2,0.3,1.8,0
							c0.6,0.2,0.9,0.5,1.5,0.7c0.1-0.3-0.3-0.5-0.1-0.7c0.4,0.3,0.7,0.5,1.3,0.5c0.2-0.2-0.3-0.3-0.1-0.4c0.4,0.1,1.1,0.3,1.5,0.1
							c-0.2-0.2-0.4-0.4-0.7-0.5c0.3,0,0-0.5,0.3-0.4c0.6,0.7,1.8,1.4,3,1c-0.5-0.2-1.2-0.3-1.3-0.9c0.9,0.6,3.1,1.7,3.9,0.3
							c0.3,0,0.8,0.1,1-0.1c-0.2-0.6-0.1-1.7,0-2.3c-0.6-0.2-1.7-0.4-2.3,0.1c-0.9,0-1.9,0.2-2.6,0.2c0-0.3,0.3-0.3,0.4-0.5
							c-1-0.1-2.4,0.1-2.9-0.6c-0.2-0.1-0.4,0.2-0.4,0c-0.3-0.6,0.5-0.7,0.5-1.2c0-0.5-0.4-0.9-1.1-1c0-0.6-0.3-0.9-0.2-1.6
							c0-0.4,0-0.8,0-1.2c1.4,0,0.3-1.6,0.8-2.2c0.5-0.1,0.8,0.4,1.2,0.2c0.5-0.2,0-0.7,0.1-1c-0.1-0.5-0.3-0.8-0.5-1
							c0,0,0-0.1,0-0.1c0.2-0.2,0.4-0.4,0.4-0.7c0.7-1.1,1.1-2.5,2.3-3c0.3,0.3,1.2,0.4,1.5,0.1c0-0.2-0.2-0.2-0.1-0.5
							c0.2-0.2,0.7-0.3,0.4-0.7c0.4-0.3,0.7-0.6,1.3-0.6c0.5,0,0.5,0.4,0.8,0.5c0.4,0,0.4,0.4,0.6,0.6c0.4,0,0.1-0.3,0.1-0.6
							c0.1-0.1,0.1,0,0.2,0c0.1,0.2,0.5,0,0.7,0.1c0.1,0.4,0.5-0.1,0.8,0.2c0.2-0.5,0.6-0.6,1.2-0.4c-0.3,0.7,0.5,0.9,1,1.2
							c0.2,0.2,0.4,0.4,0.7,0.5c0-0.2-0.2-0.3-0.2-0.5c0.6,0.3,1.1,0.7,1.4,1.3c0.3,0.1,0.2-0.2,0.4-0.1c0.1,0.4-0.1,0.5-0.1,0.7
							c1.1-0.4,1.6,0.9,2.2,1.4c-0.2,0.1-0.1,0.5-0.4,0.3c0.1,0.9,0.6,1.4,1,1.9c-0.3,0-1.1,0.3-0.6,0.7c0.3,0.1,0-0.4,0.4-0.3
							c0,0,0,0,0,0.1c0.2,0.1,0.2-0.1,0.4-0.1c0.1,0.3,0.6,0.1,0.7,0.4C91.8,34.6,91.7,35.5,91.4,36.2z M88.1,32.9
							c0.1-0.1,0.3-0.6-0.1-0.5C87.9,32.5,87.9,32.9,88.1,32.9z M89,34.5c0,0.2,0.1,0.3,0.3,0.3c0.1-0.1,0.2-0.1,0.2-0.3
							C89.5,34.4,89.1,34.4,89,34.5z"/>
						<path fill-rule="evenodd" fill="#BDCF31" d="M95.8,35.9c0,2.5,0,5,0,7.5c-0.6,0.1-1.2-0.3-1.5-0.2c0.1,0.1,0.5,0.2,0.4,0.3
							c-0.4,0.1-0.8,0-1.2,0c0.1,0.2,0.1,0.5-0.1,0.6c-1.1,0.1-2.2-0.5-3.3-0.7c-0.3,0.7-1.2-0.1-1.5,0c0.1,0.1,0.2,0.2,0.1,0.4
							c-0.7,0.3-1.5-0.1-2.3-0.1c-0.3,0.7-1.9,0.2-2.4,0.7c-1.1-0.1-1.3-2.1-0.7-2.8c1.2-0.2,3.5,1.2,4.1-0.4c1.3-0.1,3,0.4,3.8-0.4
							c-0.4-0.4-0.5,0.2-0.9,0.2c-0.5-0.7,0.7-0.8,0.5-1.6c0.1,0,0.2,0,0.3,0c-0.5-0.4-0.3-1.1,0.1-1.5c-0.3-0.7,0.2-0.8,0.2-1.6
							C92.9,36.5,94.3,36,95.8,35.9z M87.9,43.1c-0.4,0-0.5-0.3-1-0.3C86.9,43.1,87.7,43.1,87.9,43.1z"/>
						<path fill-rule="evenodd" fill="#D9D931" d="M95.8,35.9c-1.5,0-2.9,0.5-4.4,0.3c0.3-0.7,0.4-1.6-0.1-2.1
							c-0.2-0.3-0.7-0.5-1-0.4c-0.3-0.1-0.1,0.4-0.4,0.3c-0.5-0.4,0.2-0.7,0.6-0.7c-0.5-0.5-0.9-1-1-1.9c0.3,0.2,0.2-0.2,0.4-0.3
							c-0.6-0.6-1.1-1.8-2.2-1.4c0-0.2,0.2-0.4,0.1-0.7c-0.2,0-0.2,0.2-0.4,0.1c-0.3-0.6-0.8-1-1.4-1.3c-0.1-0.2,0,0.2,0,0.3
							c-0.2,0-0.2-0.3-0.4-0.3c-0.4-0.3-1.3-0.5-1-1.2c-0.6-0.1-1.1-0.1-1.2,0.4c-0.3-0.3-0.7,0.1-0.8-0.2c-0.1-0.2-0.5,0-0.7-0.1
							c-0.1,0-0.1-0.1-0.2,0c0,0.3,0.2,0.6-0.1,0.6c-0.2-0.2-0.2-0.6-0.6-0.6c-0.2-0.2-0.4-0.7-0.8-0.5c-0.6,0-1,0.3-1.3,0.6
							c0.3,0.5-0.2,0.6-0.4,0.7c-0.1,0.3,0.2,0.3,0.1,0.5c-0.4,0.4-1.2,0.3-1.5-0.1c-1.2,0.6-1.7,1.9-2.3,3
							c-0.2,0.2-0.3,0.4-0.4,0.7c0,0,0,0.1,0,0.1c0.3,0.3,0.4,0.6,0.5,1c-0.3,0.3,0.2,0.7-0.1,1c-0.5,0.2-0.7-0.3-1.2-0.2
							c-0.5,0.6,0.6,2.2-0.8,2.2c0,0.4,0,0.8,0,1.2c-0.2,0,0.1,0.5-0.1,0.4c-4.8-0.2-8.3,0.9-13.1,0.6c0-5.8,0-9.7,0-15.6
							c12.2,0,24.4,0,36.6,0C95.8,27.9,95.8,30.9,95.8,35.9z"/>
					</g>
				</g>
			</g>
		</g>
	</g>
</g>
</svg>
