<?xml version="1.0" encoding="iso-8859-1"?>
<!-- Generator: Adobe Illustrator 13.0.2, SVG Export Plug-In . SVG Version: 6.00 Build 14948)  -->
<!DOCTYPE svg PUBLIC "-//W3C//DTD SVG 1.1//EN" "http://www.w3.org/Graphics/SVG/1.1/DTD/svg11.dtd">
<svg version="1.1" id="Layer_1" xmlns="http://www.w3.org/2000/svg" xmlns:xlink="http://www.w3.org/1999/xlink" x="0px" y="0px"
	 width="126.916px" height="128.021px" viewBox="0 0 126.916 128.021" style="enable-background:new 0 0 126.916 128.021;"
	 xml:space="preserve">

<path style="fill:#4D4D4D;" d="M126.916,117.08c0,6.043-4.898,10.941-10.94,10.941H10.941C4.898,128.021,0,123.123,0,117.08V10.941
	C0,4.898,4.898,0,10.941,0h105.035c6.042,0,10.94,4.898,10.94,10.941V117.08z"/>
<g>
	<g>
		<g>
			<path style="fill:#FFFFFF;" d="M62.958,20.011c-2.485,0-4.5,2.015-4.5,4.5s2.015,4.5,4.5,4.5s4.5-2.015,4.5-4.5
				S65.443,20.011,62.958,20.011z M62.958,26.664c-1.188,0-2.152-0.963-2.152-2.152s0.964-2.153,2.152-2.153
				s2.152,0.964,2.152,2.153S64.146,26.664,62.958,26.664z"/>
		</g>
	</g>
	<rect x="57.458" y="31.482" style="fill:#FFFFFF;" width="11" height="16.529"/>
	<polygon style="fill:#FFFFFF;" points="59.458,50.011 55.458,50.011 55.458,44.011 27.458,101.011 32.458,104.011 	"/>
	<polygon style="fill:#FFFFFF;" points="29.458,102.011 25.458,116.011 32.458,103.011 30.458,100.011 	"/>
	<polygon style="fill:#FFFFFF;" points="66.458,50.011 70.458,50.011 70.458,44.011 98.458,101.011 93.458,104.011 	"/>
	<path style="fill:#FFFFFF;" d="M98.667,90.573c0.37,0.741,0.069,1.643-0.671,2.013l0,0c-0.741,0.37-1.643,0.07-2.013-0.671
		l-5.367-10.732c-0.37-0.741-0.069-1.643,0.671-2.013l0,0c0.741-0.37,1.643-0.07,2.013,0.671L98.667,90.573z"/>
	<path style="fill:#FFFFFF;" d="M97.142,102.937c0.482,0.994,4.14,10.589,3.146,11.07l0,0c-0.994,0.482-6.262-8.33-6.744-9.325
		l-5.235-10.798c-0.482-0.994-0.067-2.189,0.927-2.672l0,0c0.994-0.482,2.19-0.066,2.672,0.928L97.142,102.937z"/>
	<path style="fill:#FFFFFF;" d="M38.458,102.011c0,0,7.843,9,25.49,9c17.647,0,24.51-9,24.51-9s-6.862,10-24.51,10
		C44.34,112.011,38.458,101.011,38.458,102.011z"/>
</g>
<path style="opacity:0.15;fill:#FFFFFF;" d="M116.52,3.011H11.485c-3.828,0-6.941,3.114-6.941,6.941v45.059
	c15.609,8.845,36.499,14.254,59.458,14.254s43.849-5.409,59.457-14.254V9.953C123.458,6.125,120.345,3.011,116.52,3.011z"/>
<path style="opacity:0.45;fill:#FFFFFF;" d="M123.372,9.953c0-3.828-3.113-6.941-6.938-6.941H11.399
	c-3.828,0-6.941,3.114-6.941,6.941v1.964c0.503-3.337,3.38-5.906,6.855-5.906h105.034c3.825,0,6.938,3.114,6.938,6.941"/>
</svg>
