<?xml version="1.0" encoding="UTF-8" standalone="no"?>
<!-- Generator: Adobe Illustrator 13.0.2, SVG Export Plug-In . SVG Version: 6.00 Build 14948)  -->

<svg
   version="1.1"
   id="Layer_1"
   x="0px"
   y="0px"
   width="126.916px"
   height="128.021px"
   viewBox="0 0 126.916 128.021"
   style="enable-background:new 0 0 126.916 128.021;"
   xml:space="preserve"
   sodipodi:docname="magnifierTool.svg"
   inkscape:version="1.1.2 (0a00cf5339, 2022-02-04)"
   xmlns:inkscape="http://www.inkscape.org/namespaces/inkscape"
   xmlns:sodipodi="http://sodipodi.sourceforge.net/DTD/sodipodi-0.dtd"
   xmlns:xlink="http://www.w3.org/1999/xlink"
   xmlns="http://www.w3.org/2000/svg"
   xmlns:svg="http://www.w3.org/2000/svg"
   xmlns:rdf="http://www.w3.org/1999/02/22-rdf-syntax-ns#"
   xmlns:cc="http://creativecommons.org/ns#"><defs
   id="defs33"><filter
     inkscape:collect="always"
     style="color-interpolation-filters:sRGB"
     id="filter31152"
     x="-0.2876646"
     y="-0.10321108"
     width="1.5753292"
     height="1.2064222"><feGaussianBlur
       inkscape:collect="always"
       stdDeviation="0.22886926"
       id="feGaussianBlur31154" /></filter><linearGradient
     inkscape:collect="always"
     xlink:href="#linearGradient23502"
     id="linearGradient23504"
     x1="18"
     y1="33.009315"
     x2="19.009565"
     y2="33.015568"
     gradientUnits="userSpaceOnUse"
     gradientTransform="rotate(-44.184066,98.124478,8.177783)" /><linearGradient
     inkscape:collect="always"
     id="linearGradient23502"><stop
       style="stop-color:#1b1b1b;stop-opacity:1"
       offset="0"
       id="stop23498" /><stop
       style="stop-color:#494949;stop-opacity:1"
       offset="1"
       id="stop23500" /></linearGradient><filter
     inkscape:collect="always"
     style="color-interpolation-filters:sRGB"
     id="filter16012"
     x="-0.85226097"
     y="-0.057652942"
     width="2.7045219"
     height="1.1153059"><feGaussianBlur
       inkscape:collect="always"
       stdDeviation="0.35360485"
       id="feGaussianBlur16014" /></filter><filter
     inkscape:collect="always"
     style="color-interpolation-filters:sRGB"
     id="filter16960"
     x="-0.67560862"
     y="-0.14591752"
     width="2.3512172"
     height="1.291835"><feGaussianBlur
       inkscape:collect="always"
       stdDeviation="0.16445397"
       id="feGaussianBlur16962" /></filter></defs><sodipodi:namedview
   id="namedview31"
   pagecolor="#ffffff"
   bordercolor="#eeeeee"
   borderopacity="1"
   inkscape:showpageshadow="0"
   inkscape:pageopacity="0"
   inkscape:pagecheckerboard="0"
   inkscape:deskcolor="#ffffff"
   showgrid="true"
   inkscape:zoom="4"
   inkscape:cx="30.625"
   inkscape:cy="50.625"
   inkscape:window-width="1920"
   inkscape:window-height="1003"
   inkscape:window-x="0"
   inkscape:window-y="0"
   inkscape:window-maximized="1"
   inkscape:current-layer="Layer_1"
   inkscape:pageshadow="0"
   inkscape:snap-bbox="true"
   inkscape:snap-global="false"
   inkscape:bbox-paths="false"
   inkscape:bbox-nodes="true"><inkscape:grid
     type="xygrid"
     id="grid1057" /></sodipodi:namedview>





<path
   id="path2"
   style="display:inline;fill:#85500e;fill-opacity:1;stroke:none;stroke-opacity:1"
   d="M 10.941406,0 C 4.8984123,0 0,4.8984123 0,10.941406 V 117.08008 c 0,6.04299 4.8984123,10.9414 10.941406,10.9414 H 115.97656 c 6.042,0 10.93946,-4.89841 10.93946,-10.9414 V 10.941406 C 126.91602,4.8984123 122.01856,0 115.97656,0 Z"
   sodipodi:nodetypes="sssssssss" /><image
   width="126.90404"
   height="126.90404"
   preserveAspectRatio="none"
   xlink:href="magnifierTool.png"
   id="image1091"
   x="133.09596"
   y="-66.904037" /><metadata
   id="metadata1158"><rdf:RDF><cc:Work
       rdf:about=""><cc:license
         rdf:resource="http://creativecommons.org/publicdomain/zero/1.0/" /></cc:Work><cc:License
       rdf:about="http://creativecommons.org/publicdomain/zero/1.0/"><cc:permits
         rdf:resource="http://creativecommons.org/ns#Reproduction" /><cc:permits
         rdf:resource="http://creativecommons.org/ns#Distribution" /><cc:permits
         rdf:resource="http://creativecommons.org/ns#DerivativeWorks" /></cc:License></rdf:RDF></metadata><path
   id="path1095"
   style="display:inline;fill:#dac79e;fill-opacity:1;stroke:none;stroke-opacity:1"
   d="M -0.01700687,112.03314 0,117.08008 c 0.0203632,6.04296 4.8984123,10.9414 10.941406,10.9414 H 115.97656 c 6.042,0 10.89548,-4.86702 10.93946,-10.9414 l 0.0947,-13.07899 C 127.05336,80.680465 94.298059,64.662087 62.053854,65.025467 30.777289,65.377942 -0.01704687,81.412337 -0.01704687,104.03309 Z"
   sodipodi:nodetypes="csssscscc" /><path
   id="path6831"
   style="display:inline;fill:#dac79e;fill-opacity:1;stroke-width:7.48036;stroke-linecap:round;stroke-opacity:0.980392;paint-order:stroke fill markers"
   d="m 85.405718,58.001469 c 0.107937,15.491959 -12.877936,28.034785 -28.370271,28.034784 -15.492335,0 -27.949019,-12.559357 -28.051353,-28.051354 -0.05259,-7.960844 12.758519,-18.066457 28.250853,-18.066457 15.492335,-10e-7 28.11516,10.1013 28.170771,18.083027 z"
   sodipodi:nodetypes="sssss" /><g
   id="g895"
   transform="matrix(3.2192106,0,0,3.1900323,-90.352931,-152.08934)"
   style="display:inline"><rect
     style="fill:#77767b;fill-opacity:0.980392;stroke:none;stroke-width:0.4;stroke-linecap:square;paint-order:markers stroke fill"
     id="rect6482"
     width="3"
     height="4"
     x="-14.458615"
     y="88.075935"
     inkscape:label="stud"
     transform="rotate(-44.184066)" /><rect
     style="opacity:0.68;fill:#f2f2f2;fill-opacity:1;stroke:none;stroke-width:0.4;stroke-linecap:square;paint-order:markers stroke fill;filter:url(#filter16960)"
     id="rect16878"
     width="0.58419847"
     height="2.704881"
     x="40.666943"
     y="22.908731"
     transform="matrix(0.46592544,-0.45284065,0.69446171,0.71452811,18.406363,74.382872)"
     inkscape:label="studReflection" /><path
     id="rect4802"
     style="fill:#494949;fill-opacity:1;stroke-width:0.40047;stroke-linecap:square;paint-order:markers stroke fill"
     d="m 54.459551,74.981948 c -0.892851,0.891342 -1.504207,1.683413 -1.37122,1.82024 l 9.75752,10.039462 c 0.141853,0.145949 1.07778,-0.508233 2.067893,-1.470541 0.990113,-0.962307 1.659479,-1.868336 1.517629,-2.014287 L 56.673854,73.317359 c -0.14185,-0.145951 -1.040709,0.523953 -2.030825,1.486264 -0.06188,0.06014 -0.123936,0.118921 -0.183478,0.178325 z"
     inkscape:label="handle" /><path
     id="path14018"
     style="opacity:0.68;mix-blend-mode:normal;fill:#f2f2f2;fill-opacity:1;stroke-width:0.178785;stroke-linecap:square;paint-order:markers stroke fill;filter:url(#filter16012)"
     d="m 21.014152,25.661761 -0.0058,14.720006 c 0.332647,-0.02729 0.664241,-0.03033 0.990865,-0.07769 l 0.0049,-14.591922 c -0.334552,-0.04347 -0.662462,-0.04433 -0.990091,-0.05039 z"
     inkscape:label="handleReflection"
     sodipodi:nodetypes="cccccc"
     transform="matrix(0.32053647,-0.3115347,0.68454803,0.70432798,31.034216,62.872767)" /><path
     id="path20014"
     style="fill:url(#linearGradient23504);fill-opacity:1;stroke-width:0.40047;stroke-linecap:square;paint-order:markers stroke fill"
     d="m 53.616716,75.897608 c 0,0 -0.601905,0.716196 -0.528385,0.90458 l 9.75752,10.039462 c 0.183934,0.105672 0.913957,-0.472722 0.913957,-0.472722 z"
     inkscape:label="handleShadow"
     sodipodi:nodetypes="ccccc" /><path
     id="path1306"
     style="fill:#241f31;fill-opacity:0.980392;stroke:none;stroke-width:0.999984;stroke-linecap:square;paint-order:markers stroke fill"
     d="m 38.864359,58.653795 a 9.9998467,9.999846 45.815934 0 0 -0.202805,14.140681 9.9998467,9.999846 45.815934 0 0 14.142119,0.201407 9.9998467,9.999846 45.815934 0 0 0.199971,-14.140721 9.9998467,9.999846 45.815934 0 0 -14.139285,-0.201367 z m 0.861866,0.886769 a 8.7624572,8.7624565 45.815934 0 1 12.390649,0.176463 8.7624572,8.7624565 45.815934 0 1 -0.176463,12.39065 8.7624572,8.7624565 45.815934 0 1 -12.39065,-0.176465 8.7624572,8.7624565 45.815934 0 1 0.176464,-12.390648 z"
     inkscape:label="frame" /><ellipse
     style="opacity:0.824838;mix-blend-mode:normal;fill:#fdfdfd;fill-opacity:0.866961;stroke:none;stroke-width:0.3;stroke-linecap:round;stroke-miterlimit:4;stroke-dasharray:none;stroke-opacity:1;paint-order:markers stroke fill;filter:url(#filter31152)"
     id="path31150"
     cx="24.683491"
     cy="11.61869"
     rx="0.95473379"
     ry="2.6609848"
     transform="matrix(0.37910171,-1.5133587,1.5124394,0.37651551,20.27459,93.209941)"
     inkscape:label="glassReflection" /></g></svg>
