<?xml version="1.0" encoding="UTF-8" standalone="no"?>
<!-- Generator: Adobe Illustrator 13.0.2, SVG Export Plug-In . SVG Version: 6.00 Build 14948)  -->

<svg
   version="1.1"
   id="Layer_1"
   x="0px"
   y="0px"
   width="126.916px"
   height="128.021px"
   viewBox="0 0 126.916 128.021"
   style="enable-background:new 0 0 126.916 128.021;"
   xml:space="preserve"
   sodipodi:docname="maskTool.svg"
   inkscape:version="1.1.2 (0a00cf5339, 2022-02-04)"
   xmlns:inkscape="http://www.inkscape.org/namespaces/inkscape"
   xmlns:sodipodi="http://sodipodi.sourceforge.net/DTD/sodipodi-0.dtd"
   xmlns:xlink="http://www.w3.org/1999/xlink"
   xmlns="http://www.w3.org/2000/svg"
   xmlns:svg="http://www.w3.org/2000/svg"
   xmlns:rdf="http://www.w3.org/1999/02/22-rdf-syntax-ns#"
   xmlns:cc="http://creativecommons.org/ns#"><defs
   id="defs33"><linearGradient
     inkscape:collect="always"
     id="linearGradient3969"><stop
       style="stop-color:#494949;stop-opacity:1;"
       offset="0"
       id="stop3965" /><stop
       style="stop-color:#626262;stop-opacity:1;"
       offset="0.2282168"
       id="stop4073" /><stop
       style="stop-color:#666666;stop-opacity:1;"
       offset="0.41120568"
       id="stop4832" /><stop
       style="stop-color:#a5a5a5;stop-opacity:1;"
       offset="0.50274205"
       id="stop4830" /><stop
       style="stop-color:#868686;stop-opacity:1;"
       offset="0.60675853"
       id="stop4069" /><stop
       style="stop-color:#777777;stop-opacity:1;"
       offset="0.74884379"
       id="stop4838" /><stop
       style="stop-color:#a7a7a7;stop-opacity:1;"
       offset="0.89806676"
       id="stop4836" /><stop
       style="stop-color:#d8d8d8;stop-opacity:1;"
       offset="1"
       id="stop3967" /></linearGradient><linearGradient
     inkscape:collect="always"
     id="linearGradient7692"><stop
       style="stop-color:#565378;stop-opacity:1;"
       offset="0"
       id="stop7688" /><stop
       style="stop-color:#b5afc6;stop-opacity:1;"
       offset="1"
       id="stop7690" /></linearGradient><linearGradient
     inkscape:collect="always"
     xlink:href="#linearGradient36245"
     id="linearGradient36247"
     x1="170.18895"
     y1="226.10382"
     x2="170.18895"
     y2="208.10382"
     gradientUnits="userSpaceOnUse"
     gradientTransform="matrix(4.4326552,0,0,4.4326552,-627.47082,-897.69334)" /><linearGradient
     inkscape:collect="always"
     id="linearGradient36245"><stop
       style="stop-color:#322f45;stop-opacity:1;"
       offset="0"
       id="stop36241" /><stop
       style="stop-color:#69638c;stop-opacity:1;"
       offset="1"
       id="stop36243" /></linearGradient><linearGradient
     inkscape:collect="always"
     xlink:href="#linearGradient36245"
     id="linearGradient2432"
     x1="16.058773"
     y1="64.140198"
     x2="125.93721"
     y2="63.272598"
     gradientUnits="userSpaceOnUse"
     gradientTransform="matrix(0.96334164,0,0,0.94350857,2.3262127,3.6132021)" /><linearGradient
     inkscape:collect="always"
     xlink:href="#linearGradient36245"
     id="linearGradient3928"
     x1="63.456985"
     y1="64.010742"
     x2="126.91602"
     y2="64.010742"
     gradientUnits="userSpaceOnUse"
     gradientTransform="matrix(0.90705173,0,0,0.89649966,5.8983122,6.6251327)" /><linearGradient
     inkscape:collect="always"
     xlink:href="#linearGradient3969"
     id="linearGradient3971"
     x1="5.0745831"
     y1="125.88261"
     x2="124.22838"
     y2="2.0225444"
     gradientUnits="userSpaceOnUse" /><linearGradient
     inkscape:collect="always"
     xlink:href="#linearGradient7692"
     id="linearGradient3400"
     x1="133.96597"
     y1="70.406609"
     x2="168.00471"
     y2="70.406609"
     gradientUnits="userSpaceOnUse" /></defs><sodipodi:namedview
   id="namedview31"
   pagecolor="#ffffff"
   bordercolor="#eeeeee"
   borderopacity="1"
   inkscape:showpageshadow="0"
   inkscape:pageopacity="0"
   inkscape:pagecheckerboard="0"
   inkscape:deskcolor="#ffffff"
   showgrid="false"
   inkscape:zoom="2"
   inkscape:cx="16"
   inkscape:cy="70.75"
   inkscape:window-width="1920"
   inkscape:window-height="1003"
   inkscape:window-x="0"
   inkscape:window-y="0"
   inkscape:window-maximized="1"
   inkscape:current-layer="Layer_1"
   inkscape:pageshadow="0" />





<path
   id="path2"
   style="display:inline;fill:url(#linearGradient3971);fill-opacity:1;stroke:none;stroke-opacity:1"
   d="M 10.941407,0 C 4.898412,0 0,4.898412 0,10.941406 V 117.08008 c 0,6.04299 4.898412,10.9414 10.941407,10.9414 H 115.97656 c 6.042,0 10.93946,-4.89841 10.93946,-10.9414 V 10.941406 C 126.91602,4.898412 122.01856,0 115.97656,0 Z"
   sodipodi:nodetypes="sssssssss"
   sodipodi:insensitive="true" /><path
   id="path2378"
   style="display:inline;fill:#4c4c4c;fill-opacity:1;stroke:none;stroke-width:0.90176;stroke-opacity:1"
   d="M 63.458893,6.6251327 V 121.39635 h 47.636167 c 5.48039,0 9.92265,-4.39143 9.92265,-9.80896 V 16.4341 c 0,-5.417542 -4.44226,-9.8089673 -9.92265,-9.8089673 z"
   sodipodi:nodetypes="ccssssc"
   inkscape:label="backgroundRigth" /><path
   id="path2399"
   style="display:inline;fill:#4c4c4c;fill-opacity:1;stroke:none;stroke-width:0.90176;stroke-opacity:1"
   d="m 15.822733,6.6251327 c -5.481308,0 -9.9244208,4.3914253 -9.9244208,9.8089673 v 95.15329 c 0,5.41753 4.4431128,9.80896 9.9244208,9.80896 H 63.458894 V 6.6251327 Z"
   sodipodi:nodetypes="ssssccs"
   inkscape:label="backgroundLeft" /><metadata
   id="metadata1158"><rdf:RDF><cc:Work
       rdf:about=""><cc:license
         rdf:resource="http://creativecommons.org/publicdomain/zero/1.0/" /></cc:Work><cc:License
       rdf:about="http://creativecommons.org/publicdomain/zero/1.0/"><cc:permits
         rdf:resource="http://creativecommons.org/ns#Reproduction" /><cc:permits
         rdf:resource="http://creativecommons.org/ns#Distribution" /><cc:permits
         rdf:resource="http://creativecommons.org/ns#DerivativeWorks" /></cc:License></rdf:RDF></metadata><path
   id="path2401"
   style="display:inline;fill:url(#linearGradient3928);fill-opacity:1.0;stroke:none;stroke-width:0.90176;stroke-opacity:1"
   d="M 63.458894,6.6251327 V 35.887833 c 11.722696,0.181416 26.920674,1.440671 35.597166,3.811063 3.34816,1.051297 6.27442,5.551078 7.73114,7.53367 8.10673,11.887537 6.10096,25.848749 -6.12554,36.933455 -4.696164,4.257597 -14.332455,8.038485 -20.599467,6.04545 C 73.374416,88.084615 77.403525,78.170917 63.458894,78.170009 v 43.226341 h 47.636166 c 5.48039,0 9.92265,-4.39144 9.92265,-9.80896 V 16.4341 c 0,-5.417537 -4.44226,-9.8089673 -9.92265,-9.8089673 z m 2.418913,29.3739513 c 0,0 -2.420513,40.668266 -2.41973,41.419595 z"
   sodipodi:nodetypes="ccccssccsssscccc"
   inkscape:label="leftMask" /><path
   id="path2250"
   style="display:inline;fill:url(#linearGradient2432);fill-opacity:1.0;stroke:none;stroke-width:0.953373;stroke-opacity:1"
   d="m 63.458894,35.887833 v 43.021784 z m 0,43.021784 V 35.887833 C 51.606667,35.706074 40.770475,36.44486 35.71014,37.898317 25.334204,40.878593 23.185697,42.395593 21.737923,44.06245 c -8.184611,10.626156 -9.806644,29.745724 2.925773,41.184522 4.987595,4.480849 14.503716,8.433057 21.159649,6.335514 7.103124,-2.238484 2.821226,-12.672869 17.633667,-12.672869 z"
   sodipodi:nodetypes="cccccccsssc"
   inkscape:label="rigthMask" /><g
   id="g2182"
   transform="matrix(0.82591118,0,0,0.75759544,-41.363857,15.514134)"><path
     id="rect8906"
     style="display:none;fill:url(#linearGradient36247);fill-opacity:1;stroke:#000000;stroke-width:4.43266;stroke-linecap:round;stroke-dasharray:none;stroke-opacity:1;paint-order:normal"
     d="m 171.20652,30.121161 c 4.46932,1.547883 5.57934,3.108577 7.52386,6.027658 10.82131,17.502693 13.2661,41.256761 -3.05454,57.577399 -6.26871,6.2687 -18.23036,11.799772 -26.59593,8.865312 -8.92764,-3.131632 -3.54613,-17.730622 -22.16328,-17.730622 -18.61716,0 -13.23565,14.59899 -22.16328,17.730622 -8.365574,2.93446 -20.327227,-2.596612 -26.595933,-8.865312 -16.00286,-16.00286 -13.963927,-42.750877 -3.67702,-57.61685 1.819649,-2.331931 4.520333,-4.452558 17.561426,-8.621958 13.041137,-4.169355 56.557187,-4.178752 79.164697,2.633751 z"
     sodipodi:nodetypes="ccsszssccc"
     inkscape:label="mask" /><path
     id="path29577"
     style="display:inline;opacity:0.9;fill:none;fill-opacity:1;stroke:#ffffff;stroke-width:2.21633;stroke-linecap:round;stroke-dasharray:none;stroke-opacity:1;paint-order:normal"
     d="m 122.35307,26.851103 c -12.98909,0.0266 -24.52477,1.110734 -29.634735,2.744434 -6.458999,2.064997 -10.305347,3.615007 -12.631338,4.848216 -2.299706,1.219247 -2.910566,2.25145 -3.684375,3.239045 -4.804378,6.975182 -7.921292,16.710785 -7.726255,26.767948 0.195923,10.085753 3.51545,20.181172 11.047019,27.712742 6.847551,6.685492 24.269924,12.190212 30.773224,3.490941 6.50329,-8.699272 7.59106,-12.814706 16.419,-13.005551 4.94299,-0.106859 10.26936,2.793798 14.67078,9.759996 4.40142,6.966197 13.42289,9.134826 24.15284,2.655482 10.72995,-6.47934 19.16717,-16.984742 19.42422,-29.695917 0.0722,-9.670636 -3.10822,-19.609845 -8.31987,-28.041731 -1.88091,-2.828832 -2.2717,-3.677685 -6.33733,-5.090638 -10.92747,-3.283002 -27.33494,-5.008147 -42.51714,-5.333061 -1.90063,-0.03989 -3.78044,-0.05585 -5.63604,-0.05186 z"
     inkscape:label="glare"
     sodipodi:nodetypes="cscccczszzcccccc" /><path
     id="path18977"
     style="display:inline;fill:url(#linearGradient3400);fill-opacity:1;stroke:#ffffff;stroke-width:3.54612;stroke-linecap:round;stroke-dasharray:none;stroke-opacity:0.9;paint-order:stroke markers fill"
     d="m 166.06899,66.205191 c 0.7196,4.005126 -1.00373,12.564717 -8.07395,13.685647 -7.07022,1.12102 -21.49186,-2.367394 -22.21159,-6.372475 -0.71964,-4.00517 9.11035,-11.414531 16.18056,-12.535416 7.07035,-1.120974 13.38538,1.217074 14.10498,5.222244 z"
     sodipodi:nodetypes="sssss"
     inkscape:label="eyeLeft" /><path
     id="path19040"
     style="display:inline;fill:#434343;fill-opacity:1;stroke:#ffffff;stroke-width:3.54612;stroke-linecap:round;stroke-dasharray:none;stroke-opacity:1;paint-order:stroke markers fill"
     d="m 87.793301,66.11902 c -0.719021,4.052289 1.002844,12.712808 8.067033,13.846948 7.064146,1.13419 21.473426,-2.395316 22.192486,-6.447605 0.71907,-4.052334 -9.10254,-11.548929 -16.16669,-12.683068 -7.064234,-1.134183 -13.373853,1.231436 -14.092829,5.283725 z"
     sodipodi:nodetypes="sssss"
     inkscape:label="eyeRigth" /></g></svg>
