<?xml version="1.0" encoding="iso-8859-1"?>
<!-- Generator: Adobe Illustrator 13.0.2, SVG Export Plug-In . SVG Version: 6.00 Build 14948)  -->
<!DOCTYPE svg PUBLIC "-//W3C//DTD SVG 1.1//EN" "http://www.w3.org/Graphics/SVG/1.1/DTD/svg11.dtd">
<svg version="1.1" id="Layer_1" xmlns="http://www.w3.org/2000/svg" xmlns:xlink="http://www.w3.org/1999/xlink" x="0px" y="0px"
	 width="115.02px" height="116.021px" viewBox="0 0 115.02 116.021" style="enable-background:new 0 0 115.02 116.021;"
	 xml:space="preserve">

<path style="fill:#808080;" d="M115.02,106.105c0,5.477-4.439,9.916-9.915,9.916H9.916c-5.477,0-9.916-4.439-9.916-9.916V9.916
	C0,4.439,4.439,0,9.916,0h95.189c5.476,0,9.915,4.439,9.915,9.916V106.105z"/>
<g id="Layer_1_1_">
	<g>
		<path style="fill:#FFFFFF;" d="M71.067,71.344c1.354,16.694-7.857,37.215-7.857,37.215s-2.336,3.452-5.803,3.452
			c-3.46,0-5.859-3.452-5.859-3.452s-9.219-20.521-7.865-37.215c0,0,2.174-7.021,13.8-7.021
			C69.108,64.324,71.067,71.344,71.067,71.344z"/>
	</g>
	<circle style="fill:#FFFFFF;enable-background:new    ;" cx="57.375" cy="50.458" r="10.398"/>
</g>
<path style="fill:#FFFFFF;" d="M57.51,5.011c-24.301,0-44,19.7-44,44c0,24.301,19.699,44,44,44c-20.048,0-36.3-16.252-36.3-36.3
	s16.251-36.3,36.3-36.3c20.048,0,36.3,16.252,36.3,36.3s-16.252,36.3-36.3,36.3c24.301,0,44-19.699,44-44
	C101.51,24.711,81.811,5.011,57.51,5.011z"/>
</svg>
