<?xml version="1.0" encoding="iso-8859-1"?>
<!-- Generator: Adobe Illustrator 13.0.2, SVG Export Plug-In . SVG Version: 6.00 Build 14948)  -->
<!DOCTYPE svg PUBLIC "-//W3C//DTD SVG 1.1//EN" "http://www.w3.org/Graphics/SVG/1.1/DTD/svg11.dtd">
<svg version="1.1" id="Layer_1" xmlns="http://www.w3.org/2000/svg" xmlns:xlink="http://www.w3.org/1999/xlink" x="0px" y="0px"
	 width="126.999px" height="128px" viewBox="0 0 126.999 128" style="enable-background:new 0 0 126.999 128;" xml:space="preserve"
	>

<path style="opacity:0.75;fill:#FFFFFF;" d="M111.093,128H15.904C7.135,128,0,120.865,0,112.093V15.903C0,7.135,7.135,0,15.904,0
	h95.189c8.771,0,15.905,7.135,15.905,15.903v96.189C126.999,120.865,119.864,128,111.093,128L111.093,128z"/>
<path style="fill:#808080;" d="M121.008,112.094c0,5.477-4.439,9.916-9.915,9.916H15.904c-5.477,0-9.916-4.439-9.916-9.916V15.904
	c0-5.477,4.439-9.916,9.916-9.916h95.189c5.476,0,9.915,4.439,9.915,9.916V112.094z"/>
<g id="Layer_1_1_">
	<g>
		<path style="fill:#FFFFFF;" d="M77.056,77.333c1.354,16.694-7.857,37.215-7.857,37.215S66.863,118,63.396,118
			c-3.46,0-5.859-3.452-5.859-3.452s-9.219-20.521-7.865-37.215c0,0,2.174-7.021,13.8-7.021
			C75.097,70.312,77.056,77.333,77.056,77.333z"/>
	</g>
	<circle style="fill:#FFFFFF;enable-background:new    ;" cx="63.364" cy="56.446" r="10.398"/>
</g>
<path style="fill:#FFFFFF;" d="M63.499,11c-24.301,0-44,19.7-44,44c0,24.301,19.699,44,44,44c-20.048,0-36.3-16.252-36.3-36.3
	s16.251-36.3,36.3-36.3c20.048,0,36.3,16.252,36.3,36.3S83.546,99,63.499,99c24.301,0,44-19.699,44-44
	C107.499,30.7,87.799,11,63.499,11z"/>
</svg>
