<?xml version="1.0" encoding="UTF-8" standalone="no"?>
<!-- Generator: Adobe Illustrator 13.0.2, SVG Export Plug-In . SVG Version: 6.00 Build 14948)  -->

<svg
   version="1.1"
   id="Layer_1"
   x="0px"
   y="0px"
   width="126.916px"
   height="128.021px"
   viewBox="0 0 126.916 128.021"
   style="enable-background:new 0 0 126.916 128.021;"
   xml:space="preserve"
   sodipodi:docname="protractorTool.svg"
   inkscape:version="1.2 (1:1.2.1+202207142221+cd75a1ee6d)"
   xmlns:inkscape="http://www.inkscape.org/namespaces/inkscape"
   xmlns:sodipodi="http://sodipodi.sourceforge.net/DTD/sodipodi-0.dtd"
   xmlns="http://www.w3.org/2000/svg"
   xmlns:svg="http://www.w3.org/2000/svg"
   xmlns:rdf="http://www.w3.org/1999/02/22-rdf-syntax-ns#"
   xmlns:cc="http://creativecommons.org/ns#"><defs
   id="defs33" /><sodipodi:namedview
   id="namedview31"
   pagecolor="#ffffff"
   bordercolor="#eeeeee"
   borderopacity="1"
   inkscape:showpageshadow="0"
   inkscape:pageopacity="0"
   inkscape:pagecheckerboard="0"
   inkscape:deskcolor="#ffffff"
   showgrid="false"
   inkscape:zoom="5.6568542"
   inkscape:cx="43.487067"
   inkscape:cy="109.95511"
   inkscape:window-width="1366"
   inkscape:window-height="695"
   inkscape:window-x="0"
   inkscape:window-y="0"
   inkscape:window-maximized="1"
   inkscape:current-layer="Layer_1" />





<metadata
   id="metadata1158"><rdf:RDF><cc:Work
       rdf:about=""><cc:license
         rdf:resource="http://creativecommons.org/publicdomain/zero/1.0/" /></cc:Work><cc:License
       rdf:about="http://creativecommons.org/publicdomain/zero/1.0/"><cc:permits
         rdf:resource="http://creativecommons.org/ns#Reproduction" /><cc:permits
         rdf:resource="http://creativecommons.org/ns#Distribution" /><cc:permits
         rdf:resource="http://creativecommons.org/ns#DerivativeWorks" /></cc:License></rdf:RDF></metadata><path
   id="path2-7"
   style="display:inline;fill:#ebebeb;fill-opacity:1;stroke:none;stroke-opacity:1"
   d="M 10.941406,0 C 4.898412,0 0,4.8984123 0,10.941406 V 117.08008 c 0,6.04299 4.898412,10.9414 10.941406,10.9414 H 115.97656 c 6.042,0 10.93945,-4.89841 10.93945,-10.9414 V 10.941406 C 126.91601,4.8984123 122.01855,0 115.97656,0 Z"
   sodipodi:nodetypes="sssssssss"
   sodipodi:insensitive="true" /><g
   id="g6494"
   sodipodi:insensitive="true"><path
     style="fill:#ebebeb;fill-opacity:1;stroke:#194d9a;stroke-width:2;stroke-linecap:butt;stroke-opacity:0.710778;paint-order:stroke fill markers"
     d="m 0,10.941406 126.84693,0.09497 v 0"
     id="path5335"
     sodipodi:nodetypes="ccc" /><path
     style="fill:#ebebeb;fill-opacity:1;stroke:#194d9a;stroke-width:2;stroke-linecap:butt;stroke-opacity:0.710778;paint-order:stroke fill markers"
     d="m 0,39.036376 126.84693,0.09497 v 0"
     id="path6410"
     sodipodi:nodetypes="ccc" /><path
     style="fill:#ebebeb;fill-opacity:1;stroke:#194d9a;stroke-width:2;stroke-linecap:butt;stroke-opacity:0.710778;paint-order:stroke fill markers"
     d="m 0,66.941406 126.84693,0.09497 v 0"
     id="path6461"
     sodipodi:nodetypes="ccc" /><path
     style="fill:#ebebeb;fill-opacity:1;stroke:#194d9a;stroke-width:2;stroke-linecap:butt;stroke-opacity:0.710778;paint-order:stroke fill markers"
     d="m 0,95.036376 126.84693,0.09497 v 0"
     id="path6463"
     sodipodi:nodetypes="ccc" /><path
     style="fill:#ebebeb;fill-opacity:1;stroke:#194d9a;stroke-width:2;stroke-linecap:butt;stroke-opacity:0.710778;paint-order:stroke fill markers"
     d="m 0,123.03638 126.84693,0.095 v 0"
     id="path6469"
     sodipodi:nodetypes="ccc" /></g><g
   id="g6486"
   transform="rotate(90,64.775017,65.684842)"
   sodipodi:insensitive="true"><path
     style="fill:#ebebeb;fill-opacity:1;stroke:#194d9a;stroke-width:2;stroke-linecap:butt;stroke-opacity:0.710778;paint-order:stroke fill markers"
     d="m 0,10.941406 126.84693,0.09497 v 0"
     id="path6471"
     sodipodi:nodetypes="ccc" /><path
     style="fill:#ebebeb;fill-opacity:1;stroke:#194d9a;stroke-width:2;stroke-linecap:butt;stroke-opacity:0.710778;paint-order:stroke fill markers"
     d="m 0,39.036376 126.84693,0.09497 v 0"
     id="path6473"
     sodipodi:nodetypes="ccc" /><path
     style="fill:#ebebeb;fill-opacity:1;stroke:#194d9a;stroke-width:2;stroke-linecap:butt;stroke-opacity:0.710778;paint-order:stroke fill markers"
     d="m 0,66.941406 126.84693,0.09497 v 0"
     id="path6475"
     sodipodi:nodetypes="ccc" /><path
     style="fill:#ebebeb;fill-opacity:1;stroke:#194d9a;stroke-width:2;stroke-linecap:butt;stroke-opacity:0.710778;paint-order:stroke fill markers"
     d="m 0,95.036376 126.84693,0.09497 v 0"
     id="path6477"
     sodipodi:nodetypes="ccc" /><path
     style="fill:#ebebeb;fill-opacity:1;stroke:#194d9a;stroke-width:2;stroke-linecap:butt;stroke-opacity:0.710778;paint-order:stroke fill markers"
     d="m 0,123.03638 126.84693,0.095 v 0"
     id="path6479"
     sodipodi:nodetypes="ccc" /></g><g
   id="g2643"
   inkscape:label="protractor"
   transform="matrix(5.2815217,0,0,5.2815217,-794.78799,-1062.3646)"
   style="opacity:0.8"><path
     id="rect975"
     style="display:inline;fill:#65677f;fill-opacity:1;stroke:none;stroke-width:1.81245;stroke-linecap:round;stroke-linejoin:round;stroke-opacity:0.713725;paint-order:stroke fill markers"
     inkscape:label="border"
     d="m 21.5,9.0039062 c -5.747413,0 -11.494824,3.6692118 -11.5,11.0078128 H 6.9941406 C 6.443015,20.011719 6,20.456687 6,21.007812 v 7.998047 C 6,29.556985 6.443015,30 6.9941406,30 H 36.005859 C 36.556985,30 37,29.556985 37,29.005859 v -7.998047 c 0,-0.551124 -0.443019,-0.993944 -0.994141,-0.996093 L 34.007812,20.003906 33,20 C 32.999761,19.661133 32.98705,19.330984 32.96289,19.007812 32.463819,12.332291 26.982021,9.0039063 21.5,9.0039062 Z m 0,5.9902348 c 2.75,0 5.5,1.668279 5.5,5.005859 H 16 c 0,-3.33758 2.75,-5.005859 5.5,-5.005859 z"
     transform="translate(152.84748,194.2822)" /><path
     id="rect49552"
     style="display:inline;fill:#f5f5f6;fill-opacity:0.996078;stroke:none;stroke-width:1.56894;stroke-linecap:round;stroke-linejoin:round;stroke-opacity:0.713725;paint-order:stroke fill markers"
     inkscape:label="glare"
     d="M 21.509766,10.013672 C 16.251173,10.013672 11,14 11,21 H 8 c -1,0 -1,0 -1,1 v 6 c 0,1 0,1 1,1 h 27 c 1,0 1,0 1,-1 v -6 c 0,-1 0,-1 -1,-1 H 32 C 32,14 26.768359,10.013672 21.509766,10.013672 Z M 21.5,14.994141 c 2.75,0 5.5,1.668279 5.5,5.005859 H 16 c 0,-3.33758 2.75,-5.005859 5.5,-5.005859 z"
     transform="translate(152.84748,194.2822)"
     sodipodi:nodetypes="scsssssssscssccs" /><path
     id="rect9058"
     style="display:inline;fill:#bcc9dd;fill-opacity:1;stroke:none;stroke-width:1.31105;stroke-linecap:round;stroke-linejoin:round;stroke-opacity:0.713725;paint-order:stroke fill markers"
     inkscape:label="body"
     d="M 21.488281,10.998047 C 16.738259,10.998537 11.9917,14.666895 12,22 H 9 c -1,0 -1,0 -1,1 v 4 c 0,1 0,1 1,1 h 25 c 1,0 1,0 1,-1 v -4 c 0,-1 0,-1 -1,-1 H 31 C 30.99178,14.664935 26.238304,10.997557 21.488281,10.998047 Z M 21.5,14 c 3.25,0 6.5,2.333335 6.5,7 H 15 c 0,-4.666665 3.25,-7 6.5,-7 z"
     transform="translate(152.84748,194.2822)"
     sodipodi:nodetypes="scsssssssscssccs" /><g
     id="g12917"
     inkscape:label="scale"
     transform="matrix(1,0,0,-0.75000167,-0.99999314,395.24424)"
     sodipodi:insensitive="true"
     style="display:inline;stroke:none"><rect
       style="opacity:1;fill:#423f5a;fill-opacity:0.713725;stroke:none;stroke-width:1.78886;stroke-linecap:round;stroke-linejoin:round;stroke-opacity:0.713725;paint-order:stroke fill markers"
       id="rect11793"
       width="1"
       height="4.0000038"
       x="161.84747"
       y="229.2822"
       ry="3.1640657e-06"
       inkscape:label="division" /><rect
       style="opacity:1;fill:#423f5a;fill-opacity:0.713725;stroke:none;stroke-width:1.78886;stroke-linecap:round;stroke-linejoin:round;stroke-opacity:0.713725;paint-order:stroke fill markers"
       id="rect12716"
       width="1"
       height="4.0000038"
       x="163.84747"
       y="229.2822"
       ry="3.1640657e-06"
       inkscape:label="division" /><rect
       style="opacity:1;fill:#423f5a;fill-opacity:0.713725;stroke:none;stroke-width:1.78886;stroke-linecap:round;stroke-linejoin:round;stroke-opacity:0.713725;paint-order:stroke fill markers"
       id="rect12718"
       width="1"
       height="4.0000038"
       x="165.84747"
       y="229.2822"
       ry="3.1640657e-06"
       inkscape:label="division" /><rect
       style="opacity:1;fill:#423f5a;fill-opacity:0.713725;stroke:none;stroke-width:1.78886;stroke-linecap:round;stroke-linejoin:round;stroke-opacity:0.713725;paint-order:stroke fill markers"
       id="rect12720"
       width="1"
       height="4.0000038"
       x="167.84747"
       y="229.2822"
       ry="3.1640657e-06"
       inkscape:label="division" /><rect
       style="opacity:1;fill:#423f5a;fill-opacity:0.713725;stroke:none;stroke-width:2.06559;stroke-linecap:round;stroke-linejoin:round;stroke-opacity:0.713725;paint-order:stroke fill markers"
       id="rect12722"
       width="1"
       height="5.333334"
       x="169.84747"
       y="229.2822"
       ry="4.2187507e-06"
       inkscape:label="division" /><rect
       style="opacity:1;fill:#423f5a;fill-opacity:0.713725;stroke:none;stroke-width:1.78886;stroke-linecap:round;stroke-linejoin:round;stroke-opacity:0.713725;paint-order:stroke fill markers"
       id="rect12724"
       width="1"
       height="4.0000038"
       x="171.84747"
       y="229.2822"
       ry="3.1640657e-06"
       inkscape:label="division" /><rect
       style="opacity:1;fill:#423f5a;fill-opacity:0.713725;stroke:none;stroke-width:1.78886;stroke-linecap:round;stroke-linejoin:round;stroke-opacity:0.713725;paint-order:stroke fill markers"
       id="rect12726"
       width="1"
       height="4.0000038"
       x="173.84747"
       y="229.2822"
       ry="3.1640657e-06"
       inkscape:label="division" /><rect
       style="opacity:1;fill:#423f5a;fill-opacity:0.713725;stroke:none;stroke-width:1.78886;stroke-linecap:round;stroke-linejoin:round;stroke-opacity:0.713725;paint-order:stroke fill markers"
       id="rect12728"
       width="1"
       height="4.0000038"
       x="175.84747"
       y="229.2822"
       ry="3.1640657e-06"
       inkscape:label="division" /><rect
       style="opacity:1;fill:#423f5a;fill-opacity:0.713725;stroke:none;stroke-width:1.78886;stroke-linecap:round;stroke-linejoin:round;stroke-opacity:0.713725;paint-order:stroke fill markers"
       id="rect12730"
       width="1"
       height="4.0000038"
       x="177.84747"
       y="229.2822"
       ry="3.1640657e-06"
       inkscape:label="division" /><rect
       style="opacity:1;fill:#423f5a;fill-opacity:0.713725;stroke:none;stroke-width:2.06559;stroke-linecap:round;stroke-linejoin:round;stroke-opacity:0.713725;paint-order:stroke fill markers"
       id="rect12732"
       width="1"
       height="5.3333325"
       x="179.84747"
       y="229.2822"
       ry="4.2187494e-06"
       inkscape:label="division" /><rect
       style="opacity:1;fill:#423f5a;fill-opacity:0.713725;stroke:none;stroke-width:1.78886;stroke-linecap:round;stroke-linejoin:round;stroke-opacity:0.713725;paint-order:stroke fill markers"
       id="rect12734"
       width="1"
       height="4.0000038"
       x="181.84747"
       y="229.2822"
       ry="3.1640657e-06"
       inkscape:label="division" /><rect
       style="opacity:1;fill:#423f5a;fill-opacity:0.713725;stroke:none;stroke-width:1.78886;stroke-linecap:round;stroke-linejoin:round;stroke-opacity:0.713725;paint-order:stroke fill markers"
       id="rect12736"
       width="1"
       height="4.0000038"
       x="183.84747"
       y="229.2822"
       ry="3.1640657e-06"
       inkscape:label="division" /><rect
       style="opacity:1;fill:#423f5a;fill-opacity:0.713725;stroke:none;stroke-width:1.78886;stroke-linecap:round;stroke-linejoin:round;stroke-opacity:0.713725;paint-order:stroke fill markers"
       id="rect12738"
       width="1"
       height="4.0000038"
       x="185.84747"
       y="229.2822"
       ry="3.1640657e-06"
       inkscape:label="division" /><rect
       style="opacity:1;fill:#423f5a;fill-opacity:0.713725;stroke:none;stroke-width:1.78886;stroke-linecap:round;stroke-linejoin:round;stroke-opacity:0.713725;paint-order:stroke fill markers"
       id="rect49151"
       width="1"
       height="4.0000038"
       x="187.84747"
       y="229.2822"
       ry="3.1640657e-06"
       inkscape:label="division" /></g><path
     d="m 164.355,214.962 0.015,-0.34 c 0.009,-0.182 0.162,-0.322 0.344,-0.314 l 0.34,0.015 c 0.181,0.008 0.322,0.161 0.315,0.343 l -0.015,0.34 c -0.004,0.088 -0.042,0.17 -0.107,0.229 -0.064,0.059 -0.15,0.09 -0.237,0.086 l -0.34,-0.014 c -0.087,-0.004 -0.17,-0.043 -0.229,-0.107 -0.059,-0.065 -0.09,-0.15 -0.086,-0.238 z m 0.193,-2.034 0.081,-0.381 c 0.042,-0.177 0.22,-0.286 0.397,-0.243 l 0.331,0.079 c 0.176,0.042 0.286,0.22 0.244,0.397 l -0.063,0.284 c -0.012,0.087 -0.058,0.165 -0.127,0.218 -0.07,0.053 -0.158,0.076 -0.245,0.064 L 164.83,213.3 c -0.087,-0.012 -0.166,-0.058 -0.218,-0.128 -0.053,-0.069 -0.076,-0.157 -0.064,-0.244 z m 0.563,-2.019 0.144,-0.366 c 0.079,-0.164 0.276,-0.234 0.44,-0.155 l 0.306,0.146 c 0.165,0.078 0.234,0.274 0.157,0.439 l -0.104,0.267 c -0.029,0.083 -0.09,0.151 -0.169,0.188 -0.079,0.038 -0.17,0.043 -0.252,0.014 l -0.321,-0.113 c -0.082,-0.029 -0.15,-0.089 -0.188,-0.168 -0.038,-0.079 -0.042,-0.17 -0.013,-0.252 z m 0.958,-1.871 0.224,-0.325 c 0.112,-0.143 0.319,-0.168 0.462,-0.056 l 0.268,0.209 c 0.143,0.112 0.169,0.319 0.057,0.463 l -0.161,0.235 c -0.046,0.075 -0.12,0.128 -0.205,0.148 -0.085,0.02 -0.175,0.005 -0.249,-0.041 l -0.289,-0.179 c -0.074,-0.046 -0.128,-0.119 -0.148,-0.204 -0.02,-0.086 -0.005,-0.175 0.041,-0.25 z m 1.353,-1.61 0.299,-0.257 c 0.141,-0.115 0.348,-0.095 0.464,0.045 l 0.216,0.262 c 0.116,0.14 0.096,0.348 -0.043,0.464 l -0.22,0.184 c -0.062,0.063 -0.145,0.099 -0.233,0.1 -0.087,0.001 -0.171,-0.033 -0.234,-0.094 l -0.243,-0.237 c -0.063,-0.061 -0.099,-0.145 -0.1,-0.232 -0.001,-0.088 0.033,-0.172 0.094,-0.235 z m 1.738,-1.267 0.302,-0.159 c 0.161,-0.084 0.36,-0.021 0.444,0.14 l 0.158,0.301 c 0.085,0.161 0.023,0.36 -0.138,0.445 l -0.302,0.158 c -0.077,0.041 -0.126,0.026 -0.212,0.008 -0.086,-0.017 -0.161,-0.068 -0.209,-0.141 l -0.188,-0.283 c -0.048,-0.073 -0.066,-0.162 -0.049,-0.248 0.018,-0.086 0.116,-0.18 0.194,-0.221 z m 1.924,-0.818 0.327,-0.097 c 0.174,-0.052 0.393,0.055 0.428,0.234 l 0.067,0.333 c 0.036,0.178 -0.035,0.339 -0.21,0.391 l -0.326,0.097 c -0.084,0.025 -0.174,0.016 -0.251,-0.025 -0.077,-0.042 -0.135,-0.113 -0.16,-0.196 l -0.097,-0.326 c -0.025,-0.084 -0.016,-0.174 0.026,-0.251 0.042,-0.077 0.112,-0.135 0.196,-0.16 z m 2.047,-0.4 0.383,-0.034 c 0.182,-0.003 0.332,0.142 0.335,0.324 l 0.007,0.34 c 0.004,0.181 -0.14,0.332 -0.322,0.336 l -0.296,0.028 c -0.087,0.009 -0.174,-0.016 -0.242,-0.071 -0.068,-0.055 -0.112,-0.135 -0.121,-0.222 l -0.037,-0.338 c -0.009,-0.087 0.016,-0.174 0.071,-0.242 0.055,-0.068 0.135,-0.112 0.222,-0.121 z m 2.083,0.007 0.38,0.052 c 0.18,0.029 0.303,0.197 0.275,0.377 l -0.052,0.336 c -0.028,0.18 -0.196,0.303 -0.376,0.275 l -0.294,-0.042 c -0.088,-0.006 -0.169,-0.046 -0.227,-0.112 -0.057,-0.066 -0.086,-0.152 -0.08,-0.24 l 0.023,-0.339 c 0.005,-0.087 0.046,-0.168 0.112,-0.226 0.066,-0.058 0.152,-0.087 0.239,-0.081 z m 2.082,0.43 0.323,0.11 c 0.172,0.059 0.264,0.246 0.205,0.418 l -0.11,0.322 c -0.059,0.172 -0.246,0.264 -0.418,0.206 l -0.322,-0.11 c -0.083,-0.028 -0.113,-0.075 -0.158,-0.15 -0.045,-0.075 -0.059,-0.165 -0.038,-0.25 l 0.081,-0.33 c 0.021,-0.085 0.075,-0.158 0.149,-0.203 0.075,-0.046 0.206,-0.041 0.288,-0.013 z m 1.92,0.817 0.297,0.166 c 0.158,0.09 0.237,0.318 0.133,0.468 l -0.193,0.279 c -0.104,0.15 -0.27,0.214 -0.428,0.126 l -0.298,-0.167 c -0.076,-0.043 -0.133,-0.114 -0.156,-0.198 -0.024,-0.085 -0.013,-0.175 0.029,-0.251 l 0.167,-0.297 c 0.042,-0.076 0.114,-0.132 0.198,-0.156 0.084,-0.024 0.174,-0.013 0.251,0.03 z m 1.717,1.191 0.26,0.22 c 0.139,0.118 0.16,0.372 0.029,0.499 l -0.244,0.236 c -0.131,0.126 -0.292,0.145 -0.431,0.028 l -0.26,-0.22 c -0.067,-0.057 -0.108,-0.138 -0.116,-0.225 -0.007,-0.087 0.021,-0.173 0.078,-0.24 l 0.219,-0.26 c 0.057,-0.066 0.137,-0.108 0.225,-0.115 0.087,-0.008 0.173,0.02 0.24,0.077 z m 1.428,1.533 0.23,0.318 c 0.096,0.154 0.049,0.358 -0.105,0.454 l -0.287,0.181 c -0.154,0.097 -0.358,0.051 -0.455,-0.103 l -0.169,-0.233 c -0.054,-0.069 -0.079,-0.156 -0.068,-0.243 0.01,-0.087 0.055,-0.166 0.124,-0.22 l 0.267,-0.21 c 0.069,-0.054 0.156,-0.079 0.243,-0.068 0.087,0.01 0.166,0.055 0.22,0.124 z m 1.061,1.811 0.152,0.363 c 0.062,0.171 -0.027,0.359 -0.197,0.422 l -0.32,0.116 c -0.17,0.063 -0.36,-0.025 -0.422,-0.196 l -0.111,-0.265 c -0.038,-0.079 -0.044,-0.17 -0.016,-0.252 0.029,-0.083 0.089,-0.151 0.167,-0.19 l 0.306,-0.149 c 0.078,-0.039 0.169,-0.044 0.252,-0.016 0.082,0.028 0.15,0.089 0.189,0.167 z m 0.652,1.996 0.081,0.382 c 0.025,0.18 -0.099,0.347 -0.279,0.373 l -0.337,0.049 c -0.18,0.027 -0.347,-0.098 -0.374,-0.278 l -0.06,-0.283 c -0.022,-0.085 -0.008,-0.175 0.037,-0.25 0.044,-0.075 0.117,-0.129 0.202,-0.15 l 0.33,-0.083 c 0.085,-0.021 0.175,-0.008 0.25,0.037 0.075,0.045 0.129,0.118 0.15,0.203 z m 0.258,2.078 0.016,0.341 c 0.008,0.181 -0.132,0.335 -0.314,0.344 l -0.339,0.016 c -0.182,0.008 -0.336,-0.132 -0.345,-0.313 l -0.016,-0.341 c -0.005,-0.087 0.026,-0.173 0.085,-0.237 0.059,-0.065 0.141,-0.104 0.229,-0.108 l 0.339,-0.016 c 0.088,-0.004 0.173,0.027 0.238,0.086 0.064,0.059 0.103,0.141 0.107,0.228 z"
     style="display:inline;fill:#65677f;stroke-width:1.0072;stroke-linejoin:round;stroke-dasharray:1.0072, 2.0144;stroke-dashoffset:0.30216;paint-order:stroke fill markers"
     id="rect4528"
     inkscape:label="scaleRadial" /></g></svg>
