<?xml version="1.0" encoding="UTF-8" standalone="no"?>
<!-- Generator: Adobe Illustrator 13.0.2, SVG Export Plug-In . SVG Version: 6.00 Build 14948)  -->

<svg
   version="1.1"
   id="Layer_1"
   x="0px"
   y="0px"
   width="126.916px"
   height="128.021px"
   viewBox="0 0 126.916 128.021"
   style="enable-background:new 0 0 126.916 128.021;"
   xml:space="preserve"
   sodipodi:docname="rulerTool.svg"
   inkscape:version="1.2 (1:1.2.1+202207142221+cd75a1ee6d)"
   xmlns:inkscape="http://www.inkscape.org/namespaces/inkscape"
   xmlns:sodipodi="http://sodipodi.sourceforge.net/DTD/sodipodi-0.dtd"
   xmlns="http://www.w3.org/2000/svg"
   xmlns:svg="http://www.w3.org/2000/svg"
   xmlns:rdf="http://www.w3.org/1999/02/22-rdf-syntax-ns#"
   xmlns:cc="http://creativecommons.org/ns#"><defs
   id="defs33" /><sodipodi:namedview
   id="namedview31"
   pagecolor="#ffffff"
   bordercolor="#eeeeee"
   borderopacity="1"
   inkscape:showpageshadow="0"
   inkscape:pageopacity="0"
   inkscape:pagecheckerboard="0"
   inkscape:deskcolor="#ffffff"
   showgrid="false"
   inkscape:zoom="4"
   inkscape:cx="137.75"
   inkscape:cy="59.250001"
   inkscape:window-width="1366"
   inkscape:window-height="695"
   inkscape:window-x="0"
   inkscape:window-y="0"
   inkscape:window-maximized="1"
   inkscape:current-layer="g12917" />





<metadata
   id="metadata1158"><rdf:RDF><cc:Work
       rdf:about=""><cc:license
         rdf:resource="http://creativecommons.org/publicdomain/zero/1.0/" /></cc:Work><cc:License
       rdf:about="http://creativecommons.org/publicdomain/zero/1.0/"><cc:permits
         rdf:resource="http://creativecommons.org/ns#Reproduction" /><cc:permits
         rdf:resource="http://creativecommons.org/ns#Distribution" /><cc:permits
         rdf:resource="http://creativecommons.org/ns#DerivativeWorks" /></cc:License></rdf:RDF></metadata><path
   id="path2-7"
   style="display:inline;fill:#ebebeb;fill-opacity:1;stroke:none;stroke-opacity:1"
   d="M 10.941406,0 C 4.898412,0 0,4.8984123 0,10.941406 V 117.08008 c 0,6.04299 4.898412,10.9414 10.941406,10.9414 H 115.97656 c 6.042,0 10.93945,-4.89841 10.93945,-10.9414 V 10.941406 C 126.91601,4.8984123 122.01855,0 115.97656,0 Z"
   sodipodi:nodetypes="sssssssss" /><g
   id="g6494"><path
     style="fill:#ebebeb;fill-opacity:1;stroke:#194d9a;stroke-width:2;stroke-linecap:butt;stroke-opacity:0.71077782;paint-order:stroke fill markers"
     d="m 0,10.941406 126.84693,0.09497 v 0"
     id="path5335"
     sodipodi:nodetypes="ccc" /><path
     style="fill:#ebebeb;fill-opacity:1;stroke:#194d9a;stroke-width:2;stroke-linecap:butt;stroke-opacity:0.71077782;paint-order:stroke fill markers"
     d="m 0,39.036376 126.84693,0.09497 v 0"
     id="path6410"
     sodipodi:nodetypes="ccc" /><path
     style="fill:#ebebeb;fill-opacity:1;stroke:#194d9a;stroke-width:2;stroke-linecap:butt;stroke-opacity:0.71077782;paint-order:stroke fill markers"
     d="m 0,66.941406 126.84693,0.09497 v 0"
     id="path6461"
     sodipodi:nodetypes="ccc" /><path
     style="fill:#ebebeb;fill-opacity:1;stroke:#194d9a;stroke-width:2;stroke-linecap:butt;stroke-opacity:0.71077782;paint-order:stroke fill markers"
     d="m 0,95.036376 126.84693,0.09497 v 0"
     id="path6463"
     sodipodi:nodetypes="ccc" /><path
     style="fill:#ebebeb;fill-opacity:1;stroke:#194d9a;stroke-width:2;stroke-linecap:butt;stroke-opacity:0.71077782;paint-order:stroke fill markers"
     d="m 0,123.03638 126.84693,0.095 v 0"
     id="path6469"
     sodipodi:nodetypes="ccc" /></g><g
   id="g6486"
   transform="rotate(90,64.775017,65.684842)"><path
     style="fill:#ebebeb;fill-opacity:1;stroke:#194d9a;stroke-width:2;stroke-linecap:butt;stroke-opacity:0.71077782;paint-order:stroke fill markers"
     d="m 0,10.941406 126.84693,0.09497 v 0"
     id="path6471"
     sodipodi:nodetypes="ccc" /><path
     style="fill:#ebebeb;fill-opacity:1;stroke:#194d9a;stroke-width:2;stroke-linecap:butt;stroke-opacity:0.71077782;paint-order:stroke fill markers"
     d="m 0,39.036376 126.84693,0.09497 v 0"
     id="path6473"
     sodipodi:nodetypes="ccc" /><path
     style="fill:#ebebeb;fill-opacity:1;stroke:#194d9a;stroke-width:2;stroke-linecap:butt;stroke-opacity:0.71077782;paint-order:stroke fill markers"
     d="m 0,66.941406 126.84693,0.09497 v 0"
     id="path6475"
     sodipodi:nodetypes="ccc" /><path
     style="fill:#ebebeb;fill-opacity:1;stroke:#194d9a;stroke-width:2;stroke-linecap:butt;stroke-opacity:0.71077782;paint-order:stroke fill markers"
     d="m 0,95.036376 126.84693,0.09497 v 0"
     id="path6477"
     sodipodi:nodetypes="ccc" /><path
     style="fill:#ebebeb;fill-opacity:1;stroke:#194d9a;stroke-width:2;stroke-linecap:butt;stroke-opacity:0.71077782;paint-order:stroke fill markers"
     d="m 0,123.03638 126.84693,0.095 v 0"
     id="path6479"
     sodipodi:nodetypes="ccc" /></g><path
   id="path3119"
   style="display:inline;fill:#65677f;fill-opacity:1;stroke:none;stroke-width:1.00358;stroke-opacity:1"
   d="M 10.918569,0 C 4.8743858,0 -0.02499,4.9326808 -0.02499,11.017952 v 51.54099 H 126.916 V 11.017952 C 126.916,4.9326808 122.01757,0 115.97439,0 Z"
   sodipodi:nodetypes="ssccsss"
   inkscape:label="color" /><path
   id="path10582"
   style="display:inline;fill:#f4f4f5;fill-opacity:1;stroke:none;stroke-width:0.88119;stroke-opacity:1"
   d="m 14.248421,3.5747442 c -5.6610223,0 -10.2498109,4.0602503 -10.2498109,9.0692348 v 46.34022 H 122.89241 v -46.34022 c 0,-5.0089845 -4.5879,-9.0692348 -10.248,-9.0692348 z"
   sodipodi:nodetypes="ssccsss"
   inkscape:label="color" /><path
   id="path11274"
   style="display:inline;fill:#bcc9dd;fill-opacity:1;stroke:none;stroke-width:0.743768;stroke-opacity:1"
   d="m 17.557509,7.5044435 c -5.280253,0 -9.560391,3.1011915 -9.560391,6.9270195 V 55.054499 H 118.89389 V 14.431463 c 0,-3.825828 -4.2793,-6.9270195 -9.55868,-6.9270195 z"
   sodipodi:nodetypes="ssccsss"
   inkscape:label="color" /><g
   id="g12917"
   inkscape:label="scale"
   transform="matrix(3.8142549,0,0,3.5202041,-605.39648,-799.4399)"
   style="display:inline;stroke:none"><g
     aria-label="s"
     transform="matrix(0.67769866,0,0,0.6712364,52.350495,81.936375)"
     id="text3643"
     style="font-size:10.6564px;line-height:1.25;fill:#65677f;fill-opacity:1;stroke-width:1.99807"><path
       d="m 176.11116,235.67847 q 0,0.8312 -0.61807,1.25745 -0.61807,0.42626 -1.6624,0.42626 -0.59676,0 -1.03367,-0.0959 -0.42626,-0.0959 -0.7566,-0.26641 v -0.85251 q 0.341,0.1705 0.82054,0.31969 0.49019,0.13853 0.99104,0.13853 0.71398,0 1.03367,-0.22378 0.3197,-0.23444 0.3197,-0.61807 0,-0.21313 -0.11722,-0.38363 -0.11722,-0.1705 -0.42626,-0.34101 -0.29838,-0.1705 -0.86317,-0.38363 -0.55413,-0.21312 -0.94842,-0.42625 -0.39429,-0.21313 -0.60741,-0.51151 -0.21313,-0.29838 -0.21313,-0.76726 0,-0.72464 0.5861,-1.11892 0.59676,-0.39429 1.55584,-0.39429 0.52216,0 0.96973,0.10656 0.45822,0.0959 0.85251,0.27707 l -0.31969,0.74595 q -0.36232,-0.14919 -0.75661,-0.25575 -0.39428,-0.10657 -0.80988,-0.10657 -0.57545,0 -0.88448,0.19182 -0.29838,0.18116 -0.29838,0.50085 0,0.23444 0.13853,0.40494 0.13853,0.15985 0.45822,0.31969 0.33035,0.14919 0.87383,0.36232 0.54348,0.20247 0.92711,0.4156 0.38363,0.21313 0.5861,0.52216 0.20247,0.29838 0.20247,0.75661 z"
       id="path55370"
       style="fill:#65677f;fill-opacity:1" /></g><g
     aria-label="10 "
     transform="matrix(0.6159646,0,0,0.73979782,56.113549,80.871455)"
     id="text7724"
     style="font-size:7.31898px;line-height:1.25;fill:#65677f;fill-opacity:1;stroke-width:1.37231"><path
       d="m 200.98536,216.80107 h -1.17489 v -3.10558 q 0,-0.19552 0.007,-0.51133 0.0155,-0.31582 0.0234,-0.55645 -0.0389,0.0451 -0.17118,0.16543 -0.12448,0.11279 -0.23341,0.20302 l -0.63802,0.49629 -0.56799,-0.68426 1.78955,-1.37609 h 0.96482 z"
       style="font-weight:bold;-inkscape-font-specification:'sans-serif Bold';fill:#65677f;fill-opacity:1;stroke-width:1.43419"
       id="path55347" /><path
       d="m 205.90126,214.11658 q 0,0.84105 -0.18297,1.44076 -0.17566,0.59971 -0.5782,0.9215 -0.39523,0.3218 -1.06857,0.3218 -0.94415,0 -1.38329,-0.70942 -0.43914,-0.71672 -0.43914,-1.97464 0,-0.84836 0.17566,-1.44807 0.17565,-0.5997 0.5782,-0.9215 0.40254,-0.32179 1.06857,-0.32179 0.93683,0 1.38329,0.70941 0.44645,0.70941 0.44645,1.98195 z m -2.55432,0 q 0,0.89225 0.1537,1.34568 0.1537,0.44613 0.57088,0.44613 0.40986,0 0.57088,-0.44613 0.16102,-0.44612 0.16102,-1.34568 0,-0.89225 -0.16102,-1.34568 -0.16102,-0.45344 -0.57088,-0.45344 -0.41718,0 -0.57088,0.45344 -0.1537,0.45343 -0.1537,1.34568 z"
       style="font-weight:bold;-inkscape-font-specification:'sans-serif Bold';fill:#65677f;fill-opacity:1;stroke-width:1.3718"
       id="path55349" /></g><g
     id="g29869"
     inkscape:label="dividions"
     transform="translate(0,-0.03745005)"><path
       id="rect11793"
       style="opacity:1;fill:#423f5a;fill-opacity:0.713725;stroke-width:1.78886;stroke-linecap:round;stroke-linejoin:round;stroke-opacity:0.713725;paint-order:stroke fill markers"
       inkscape:label="division"
       d="m 162.8455,229.30531 0.002,3.97689 v 0 h -0.99999 -1e-5 l -0.001,-3.63515 c 0.28505,-0.18572 0.79664,-0.31279 0.9992,-0.34174 z"
       sodipodi:nodetypes="ccccccc" /><rect
       style="opacity:1;fill:#423f5a;fill-opacity:0.713725;stroke:none;stroke-width:1.78886;stroke-linecap:round;stroke-linejoin:round;stroke-opacity:0.713725;paint-order:stroke fill markers"
       id="rect12716"
       width="1"
       height="4.0000038"
       x="163.84747"
       y="229.2822"
       ry="3.1640657e-06"
       inkscape:label="division" /><rect
       style="opacity:1;fill:#423f5a;fill-opacity:0.713725;stroke:none;stroke-width:1.78886;stroke-linecap:round;stroke-linejoin:round;stroke-opacity:0.713725;paint-order:stroke fill markers"
       id="rect12718"
       width="1"
       height="4.0000038"
       x="165.84747"
       y="229.2822"
       ry="3.1640657e-06"
       inkscape:label="division" /><rect
       style="opacity:1;fill:#423f5a;fill-opacity:0.713725;stroke:none;stroke-width:1.78886;stroke-linecap:round;stroke-linejoin:round;stroke-opacity:0.713725;paint-order:stroke fill markers"
       id="rect12720"
       width="1"
       height="4.0000038"
       x="167.84747"
       y="229.2822"
       ry="3.1640657e-06"
       inkscape:label="division" /><rect
       style="opacity:1;fill:#423f5a;fill-opacity:0.713725;stroke:none;stroke-width:2.1166;stroke-linecap:round;stroke-linejoin:round;stroke-opacity:0.713725;paint-order:stroke fill markers"
       id="rect12722"
       width="1"
       height="5.6000113"
       x="169.84747"
       y="229.2822"
       ry="4.4296967e-06"
       inkscape:label="division" /><rect
       style="opacity:1;fill:#423f5a;fill-opacity:0.713725;stroke:none;stroke-width:1.78886;stroke-linecap:round;stroke-linejoin:round;stroke-opacity:0.713725;paint-order:stroke fill markers"
       id="rect12724"
       width="1"
       height="4.0000038"
       x="171.84747"
       y="229.2822"
       ry="3.1640657e-06"
       inkscape:label="division" /><rect
       style="opacity:1;fill:#423f5a;fill-opacity:0.713725;stroke:none;stroke-width:1.78886;stroke-linecap:round;stroke-linejoin:round;stroke-opacity:0.713725;paint-order:stroke fill markers"
       id="rect12726"
       width="1"
       height="4.0000038"
       x="173.84747"
       y="229.2822"
       ry="3.1640657e-06"
       inkscape:label="division" /><rect
       style="opacity:1;fill:#423f5a;fill-opacity:0.713725;stroke:none;stroke-width:1.78886;stroke-linecap:round;stroke-linejoin:round;stroke-opacity:0.713725;paint-order:stroke fill markers"
       id="rect12728"
       width="1"
       height="4.0000038"
       x="175.84747"
       y="229.2822"
       ry="3.1640657e-06"
       inkscape:label="division" /><rect
       style="opacity:1;fill:#423f5a;fill-opacity:0.713725;stroke:none;stroke-width:1.78886;stroke-linecap:round;stroke-linejoin:round;stroke-opacity:0.713725;paint-order:stroke fill markers"
       id="rect12730"
       width="1"
       height="4.0000038"
       x="177.84747"
       y="229.2822"
       ry="3.1640657e-06"
       inkscape:label="division" /><rect
       style="opacity:1;fill:#423f5a;fill-opacity:0.713725;stroke:none;stroke-width:2.1166;stroke-linecap:round;stroke-linejoin:round;stroke-opacity:0.713725;paint-order:stroke fill markers"
       id="rect12732"
       width="1"
       height="5.6000113"
       x="179.84747"
       y="229.2822"
       ry="4.4296967e-06"
       inkscape:label="division" /><rect
       style="opacity:1;fill:#423f5a;fill-opacity:0.713725;stroke:none;stroke-width:1.78886;stroke-linecap:round;stroke-linejoin:round;stroke-opacity:0.713725;paint-order:stroke fill markers"
       id="rect12734"
       width="1"
       height="4.0000038"
       x="181.84747"
       y="229.2822"
       ry="3.1640657e-06"
       inkscape:label="division" /><rect
       style="opacity:1;fill:#423f5a;fill-opacity:0.713725;stroke:none;stroke-width:1.78886;stroke-linecap:round;stroke-linejoin:round;stroke-opacity:0.713725;paint-order:stroke fill markers"
       id="rect12736"
       width="1"
       height="4.0000038"
       x="183.84747"
       y="229.2822"
       ry="3.1640657e-06"
       inkscape:label="division" /><rect
       style="opacity:1;fill:#423f5a;fill-opacity:0.713725;stroke:none;stroke-width:1.78886;stroke-linecap:round;stroke-linejoin:round;stroke-opacity:0.713725;paint-order:stroke fill markers"
       id="rect12738"
       width="1"
       height="4.0000038"
       x="185.84747"
       y="229.2822"
       ry="3.1640657e-06"
       inkscape:label="division" /><path
       id="rect49151"
       style="opacity:1;fill:#423f5a;fill-opacity:0.713725;stroke-width:1.78886;stroke-linecap:round;stroke-linejoin:round;stroke-opacity:0.713725;paint-order:stroke fill markers"
       inkscape:label="division"
       d="m 187.84295,229.30412 c 0.42807,0.0451 0.95563,0.29089 1.00618,0.33996 l -0.002,3.63812 v 0 h -0.99999 -1e-5 z"
       sodipodi:nodetypes="ccccccc" /></g></g></svg>
