<?xml version="1.0" encoding="UTF-8" standalone="no"?>
<!-- Generator: Adobe Illustrator 13.0.2, SVG Export Plug-In . SVG Version: 6.00 Build 14948)  -->

<svg
   version="1.1"
   id="Layer_1"
   x="0px"
   y="0px"
   width="126.916px"
   height="128.021px"
   viewBox="0 0 126.916 128.021"
   style="enable-background:new 0 0 126.916 128.021;"
   xml:space="preserve"
   sodipodi:docname="triangleTool.svg"
   inkscape:version="1.2 (1:1.2.1+202207142221+cd75a1ee6d)"
   xmlns:inkscape="http://www.inkscape.org/namespaces/inkscape"
   xmlns:sodipodi="http://sodipodi.sourceforge.net/DTD/sodipodi-0.dtd"
   xmlns="http://www.w3.org/2000/svg"
   xmlns:svg="http://www.w3.org/2000/svg"
   xmlns:rdf="http://www.w3.org/1999/02/22-rdf-syntax-ns#"
   xmlns:cc="http://creativecommons.org/ns#"><defs
   id="defs33" /><sodipodi:namedview
   id="namedview31"
   pagecolor="#ffffff"
   bordercolor="#eeeeee"
   borderopacity="1"
   inkscape:showpageshadow="0"
   inkscape:pageopacity="0"
   inkscape:pagecheckerboard="0"
   inkscape:deskcolor="#ffffff"
   showgrid="true"
   inkscape:zoom="0.91067638"
   inkscape:cx="-77.964029"
   inkscape:cy="-40.629142"
   inkscape:window-width="1366"
   inkscape:window-height="695"
   inkscape:window-x="0"
   inkscape:window-y="0"
   inkscape:window-maximized="1"
   inkscape:current-layer="Layer_1"><inkscape:grid
     type="xygrid"
     id="grid1948" /></sodipodi:namedview>





<path
   id="path2"
   style="display:inline;fill:#ebebeb;fill-opacity:1;stroke:none;stroke-opacity:1"
   d="M 10.941406,0 C 4.8984123,0 0,4.8984123 0,10.941406 V 117.08008 c 0,6.04299 4.8984123,10.9414 10.941406,10.9414 H 115.97656 c 6.042,0 10.93946,-4.89841 10.93946,-10.9414 V 10.941406 C 126.91602,4.8984123 122.01856,0 115.97656,0 Z"
   sodipodi:nodetypes="sssssssss"
   sodipodi:insensitive="true" /><metadata
   id="metadata1158"><rdf:RDF><cc:Work
       rdf:about=""><cc:license
         rdf:resource="http://creativecommons.org/publicdomain/zero/1.0/" /></cc:Work><cc:License
       rdf:about="http://creativecommons.org/publicdomain/zero/1.0/"><cc:permits
         rdf:resource="http://creativecommons.org/ns#Reproduction" /><cc:permits
         rdf:resource="http://creativecommons.org/ns#Distribution" /><cc:permits
         rdf:resource="http://creativecommons.org/ns#DerivativeWorks" /></cc:License></rdf:RDF></metadata><g
   id="g6494"
   sodipodi:insensitive="true"><path
     style="fill:#ebebeb;fill-opacity:1;stroke:#97baf1;stroke-width:2;stroke-linecap:butt;stroke-opacity:1;paint-order:stroke fill markers"
     d="m 0,10.941406 126.84693,0.09497 v 0"
     id="path5335"
     sodipodi:nodetypes="ccc" /><path
     style="fill:#ebebeb;fill-opacity:1;stroke:#97baf1;stroke-width:2;stroke-linecap:butt;stroke-opacity:1;paint-order:stroke fill markers"
     d="m 0,39.036376 126.84693,0.09497 v 0"
     id="path6410"
     sodipodi:nodetypes="ccc" /><path
     style="fill:#ebebeb;fill-opacity:1;stroke:#97baf1;stroke-width:2;stroke-linecap:butt;stroke-opacity:1;paint-order:stroke fill markers"
     d="m 0,66.941406 126.84693,0.09497 v 0"
     id="path6461"
     sodipodi:nodetypes="ccc" /><path
     style="fill:#ebebeb;fill-opacity:1;stroke:#97baf1;stroke-width:2;stroke-linecap:butt;stroke-opacity:1;paint-order:stroke fill markers"
     d="m 0,95.036376 126.84693,0.09497 v 0"
     id="path6463"
     sodipodi:nodetypes="ccc" /><path
     style="fill:#ebebeb;fill-opacity:1;stroke:#97baf1;stroke-width:2;stroke-linecap:butt;stroke-opacity:1;paint-order:stroke fill markers"
     d="m 0,123.03638 126.84693,0.095 v 0"
     id="path6469"
     sodipodi:nodetypes="ccc" /></g><g
   id="g6486"
   transform="rotate(90,64.775017,65.684841)"
   sodipodi:insensitive="true"><path
     style="fill:#ebebeb;fill-opacity:1;stroke:#97baf1;stroke-width:2;stroke-linecap:butt;stroke-opacity:1;paint-order:stroke fill markers"
     d="m 0,10.941406 126.84693,0.09497 v 0"
     id="path6471"
     sodipodi:nodetypes="ccc" /><path
     style="fill:#ebebeb;fill-opacity:1;stroke:#97baf1;stroke-width:2;stroke-linecap:butt;stroke-opacity:1;paint-order:stroke fill markers"
     d="m 0,39.036376 126.84693,0.09497 v 0"
     id="path6473"
     sodipodi:nodetypes="ccc" /><path
     style="fill:#ebebeb;fill-opacity:1;stroke:#97baf1;stroke-width:2;stroke-linecap:butt;stroke-opacity:1;paint-order:stroke fill markers"
     d="m 0,66.941406 126.84693,0.09497 v 0"
     id="path6475"
     sodipodi:nodetypes="ccc" /><path
     style="fill:#ebebeb;fill-opacity:1;stroke:#97baf1;stroke-width:2;stroke-linecap:butt;stroke-opacity:1;paint-order:stroke fill markers"
     d="m 0,95.036376 126.84693,0.09497 v 0"
     id="path6477"
     sodipodi:nodetypes="ccc" /><path
     style="fill:#ebebeb;fill-opacity:1;stroke:#97baf1;stroke-width:2;stroke-linecap:butt;stroke-opacity:1;paint-order:stroke fill markers"
     d="m 0,123.03638 126.84693,0.095 v 0"
     id="path6479"
     sodipodi:nodetypes="ccc" /></g><path
   id="path978"
   style="display:inline;fill:#98904d;fill-opacity:1;stroke:none;stroke-width:3.99978;stroke-opacity:0.897244;paint-order:stroke fill markers"
   d="M 125.00195 12.525391 L 9.1210938 120.9375 L 125.00195 121.0625 L 125.00195 12.525391 z M 106 55 L 106 101 L 59.544922 101 L 106 55 z " /><path
   id="path1514"
   style="display:inline;fill:#fdf088;fill-opacity:1;stroke:none;stroke-width:3.78909;stroke-opacity:0.897244;paint-order:stroke fill markers"
   d="m 123,18 -108,101 108,0.0293 z m -15,32 v 53 H 54.551573 Z"
   sodipodi:nodetypes="cccccccc" /><path
   id="path2357"
   style="display:inline;fill:#f2d732;fill-opacity:1;stroke:none;stroke-width:3.71685;stroke-opacity:0.897244;paint-order:stroke fill markers"
   d="m 121,23 -100,94 100,0.0137 z m -11,22 v 60 H 50 Z" /><path
   id="rect11793"
   style="display:inline;fill:#423f5a;fill-opacity:0.713725;stroke:none;stroke-width:4.09425;stroke-linecap:round;stroke-linejoin:round;stroke-opacity:0.713725;paint-order:stroke fill markers"
   inkscape:label="division"
   d="M 58.988281 -107 L 58.988281 -117.01953 L 61.988281 -117.01953 L 61.988281 -107 L 58.988281 -107 z M 88.962891 -107 L 88.962891 -116.98438 L 91.962891 -116.98438 L 91.962891 -107 L 88.962891 -107 z M 34.988281 -110 L 34.988281 -116.98438 L 37.988281 -116.98438 L 37.988281 -110 L 34.988281 -110 z M 40.980469 -110 L 40.980469 -116.98438 L 43.988281 -116.98438 L 43.988281 -110 L 40.980469 -110 z M 46.988281 -110 L 46.988281 -116.98438 L 49.988281 -116.98438 L 49.988281 -110 L 46.988281 -110 z M 52.988281 -110 L 52.988281 -116.98438 L 55.988281 -116.98438 L 55.988281 -110 L 52.988281 -110 z M 64.988281 -110 L 64.988281 -116.98438 L 67.988281 -116.98438 L 67.988281 -110 L 64.988281 -110 z M 70.972656 -110 L 70.972656 -116.98438 L 73.972656 -116.98438 L 73.972656 -110 L 70.972656 -110 z M 76.972656 -110 L 76.972656 -116.98438 L 79.972656 -116.98438 L 79.972656 -110 L 76.972656 -110 z M 82.972656 -110 L 82.972656 -116.98438 L 85.972656 -116.98438 L 85.972656 -110 L 82.972656 -110 z M 94.972656 -110 L 94.972656 -116.98438 L 97.972656 -116.98438 L 97.972656 -110 L 94.972656 -110 z M 99.945312 -110 L 99.945312 -116.98438 L 102.94531 -116.98438 L 102.94531 -110 L 99.945312 -110 z M 105.97266 -110 L 105.97266 -116.98438 L 108.97266 -116.98438 L 108.97266 -110 L 105.97266 -110 z M 111.97266 -110 L 111.97266 -116.98438 L 114.97266 -116.98438 L 114.97266 -110 L 111.97266 -110 z "
   transform="scale(1,-1)" /><path
   id="path14264"
   style="display:inline;fill:#423f5a;fill-opacity:0.713725;stroke:none;stroke-width:3.5698;stroke-linecap:round;stroke-linejoin:round;stroke-opacity:0.713725;paint-order:stroke fill markers"
   inkscape:label="division"
   d="m 112.95407,85.733031 h 8.05913 v -2.665013 h -8.05913 z m 0,-26.627572 h 8.02905 v -2.665013 h -8.02905 z m 2.05197,47.947721 h 5.97708 v -2.66502 h -5.97708 z m 0,-5.32308 h 5.97708 v -2.672002 h -5.97708 z m 0,-5.337016 h 5.97708 v -2.665013 h -5.97708 z m 0,-5.330027 h 5.97708 v -2.665013 h -5.97708 z m 0,-10.660052 h 5.97708 v -2.665013 h -5.97708 z m 0,-5.316141 h 5.97708 V 72.42185 h -5.97708 z m 0,-5.330026 h 5.97708 v -2.665014 h -5.97708 z m 0,-5.330026 h 5.97708 v -2.665014 h -5.97708 z m 0,-10.660054 h 5.97708 v -2.665014 h -5.97708 z m 0,-4.417397 h 5.97708 v -2.665013 h -5.97708 z m 0,-5.354321 h 5.97708 v -2.665014 h -5.97708 z m 0,-5.330026 h 5.97708 V 36 h -5.97708 z"
   sodipodi:nodetypes="cccccccccccccccccccccccccccccccccccccccccccccccccccccccccccccccccccccc" /></svg>
