<?xml version="1.0" encoding="UTF-8" standalone="no"?>
<svg
   xmlns:dc="http://purl.org/dc/elements/1.1/"
   xmlns:cc="http://creativecommons.org/ns#"
   xmlns:rdf="http://www.w3.org/1999/02/22-rdf-syntax-ns#"
   xmlns:svg="http://www.w3.org/2000/svg"
   xmlns="http://www.w3.org/2000/svg"
   xmlns:sodipodi="http://sodipodi.sourceforge.net/DTD/sodipodi-0.dtd"
   xmlns:inkscape="http://www.inkscape.org/namespaces/inkscape"
   width="1000"
   height="600"
   id="svg2"
   sodipodi:version="0.32"
   inkscape:version="0.46"
   sodipodi:docname="Drapeau_du_Canada.svg"
   inkscape:output_extension="org.inkscape.output.svg.inkscape"
   version="1.0">
  <metadata
     id="metadata13">
    <rdf:RDF>
      <cc:Work
         rdf:about="">
        <dc:format>image/svg+xml</dc:format>
        <dc:type
           rdf:resource="http://purl.org/dc/dcmitype/StillImage" />
      </cc:Work>
    </rdf:RDF>
  </metadata>
  <defs
     id="defs11">
    <inkscape:perspective
       sodipodi:type="inkscape:persp3d"
       inkscape:vp_x="0 : 250 : 1"
       inkscape:vp_y="0 : 1000 : 0"
       inkscape:vp_z="1000 : 250 : 1"
       inkscape:persp3d-origin="500 : 166.66667 : 1"
       id="perspective15" />
  </defs>
  <sodipodi:namedview
     inkscape:window-height="669"
     inkscape:window-width="746"
     inkscape:pageshadow="2"
     inkscape:pageopacity="0.0"
     guidetolerance="10.0"
     gridtolerance="10.0"
     objecttolerance="10.0"
     borderopacity="1.0"
     bordercolor="#666666"
     pagecolor="#ffffff"
     id="base"
     showgrid="true"
     inkscape:zoom="0.544"
     inkscape:cx="153.49265"
     inkscape:cy="278.60392"
     inkscape:window-x="161"
     inkscape:window-y="161"
     inkscape:current-layer="svg2">
    <inkscape:grid
       type="xygrid"
       id="grid2381"
       visible="true"
       enabled="true" />
  </sodipodi:namedview>
  <rect
     width="1000"
     height="600"
     id="rect4"
     x="0"
     y="0"
     style="fill:#ff0000" />
  <rect
     width="500"
     height="600"
     x="250"
     id="rect6"
     y="0"
     style="fill:#ffffff" />
  <path
     d="M 499.99228,96.875 L 465.87916,160.50029 C 462.0083,167.4153 455.07289,166.77392 448.13747,162.91167 L 423.44048,150.12309 L 441.84753,247.8502 C 445.71839,265.70439 433.29894,265.70439 427.16988,257.98455 L 384.06883,209.73356 L 377.07145,234.23656 C 376.26453,237.45433 372.71664,240.834 367.39397,240.02917 L 312.8922,228.57005 L 327.20744,280.6148 C 330.27195,292.19534 332.66234,296.99008 324.11369,300.04439 L 304.6875,309.17464 L 398.50877,385.38302 C 402.22227,388.26453 404.09848,393.45002 402.77645,398.14512 L 394.56509,425.09219 C 426.86914,421.36848 455.81407,415.76625 488.13448,412.316 C 490.98771,412.01141 495.76436,416.72008 495.74477,420.02658 L 491.46453,518.75 L 507.17092,518.75 L 504.69855,420.2383 C 504.67885,416.9318 509.01227,412.01141 511.8655,412.316 C 544.18591,415.76626 573.13088,421.36848 605.43492,425.09219 L 597.22358,398.14512 C 595.90155,393.45002 597.77775,388.26453 601.49125,385.38302 L 695.3125,309.17464 L 675.88633,300.04439 C 667.33766,296.99008 669.72805,292.19534 672.79256,280.6148 L 687.10783,228.57005 L 632.60603,240.02917 C 627.28336,240.834 623.73547,237.45433 622.92853,234.23656 L 615.93116,209.73356 L 572.83013,257.98455 C 566.70105,265.70439 554.28159,265.70439 558.15245,247.8502 L 576.55947,150.12309 L 551.86253,162.91167 C 544.92694,166.77392 537.9917,167.4153 534.12083,160.50029"
     id="path8"
     style="fill:#ff0000" />
</svg>
