<?xml version="1.0" encoding="UTF-8" standalone="no"?>
<!DOCTYPE svg PUBLIC "-//W3C//DTD SVG 1.1//EN" "http://www.w3.org/Graphics/SVG/1.1/DTD/svg11.dtd">
<svg xmlns:svg="http://www.w3.org/2000/svg" xmlns="http://www.w3.org/2000/svg" version="1.1"
     width="1200" height="800" viewBox="0 0 3600 2400">
  <title>Flag of Equatorial Guinea</title>
  <rect x="0" y="0" width="3600" height="2400" style="fill:#E32118" />
  <rect x="0" y="0" width="3600" height="1600" style="fill:#FFFFFF" />
  <rect x="0" y="0" width="3600" height="800"  style="fill:#3E9A00" />
  <polygon points="0,0 0,2400 900,1200 0,0" style="fill:#0073CE" />
  <g style="fill:#FFFFFF; stroke:#000000; stroke-width:3.5;">
    <polygon points="2027,1352 2052,1388 2052,1388 2075,1354 2059,1325 2027,1352" />
    <path d="M 1868,1457 L 1870,1493 C 1870,1493 1880,1493 1889,1490 C 1897,1487 1904,1481 1904,1481 L 1903,1462 L 1868,1457 L 1868,1457 z" />
    <path d="M 1734,1457 L 1732,1492 C 1732,1492 1723,1492 1714,1490 C 1706,1488 1699,1483 1699,1483 L 1689,1459 L 1734,1457 L 1734,1457 z" />
    <path d="M 1608,958.8 L 1991,958.8 L 1991,1360 C 1991,1495 1815,1391 1800,1463 C 1774,1389 1609,1496 1609,1352 C 1609,1212 1608,958.8 1608,958.8 L 1608,958.8 z" style="stroke-width:4.8" />
    <polygon points="1573,1352 1547,1388 1519,1342 1540,1320 1573,1352" />
  </g>
  <g style="fill:#FFD700; stroke:#000000; stroke-width:3.5;">
    <polygon points="1787,902.6 1765,903.6 1754,923.3 1742,904.5 1720,905.4 1730,885.6 1718,866.8 1741,865.8 1751,846.1 1763,864.9 1785,864 1775,883.8 1787,902.6" />
    <polygon points="1693,909.9 1671,915.3 1665,936.6 1649,920.6 1628,925.8 1634,904.5 1619,888.3 1640,883 1646,861.6 1662,877.6 1684,872.4 1677,893.8 1693,909.9" />
    <polygon points="1602,928.6 1582,938.5 1581,960.7 1562,948.5 1542,958.3 1544,936.1 1525,923.8 1545,913.8 1547,891.6 1565,903.8 1585,894 1584,916.2 1602,928.6" />
    <polygon points="1816,902.6 1838,903.6 1848,923.3 1860,904.5 1882,905.4 1872,885.6 1884,866.8 1862,865.8 1851,846.1 1839,864.9 1817,864 1827,883.8 1816,902.6" />
    <polygon points="1910,909.9 1931,915.3 1937,936.6 1953,920.6 1974,925.8 1968,904.5 1984,888.3 1962,883 1956,861.6 1940,877.6 1919,872.4 1925,893.8 1910,909.9" />
    <polygon points="2000,928.6 2020,938.5 2021,960.7 2040,948.5 2060,958.3 2059,936.1 2077,923.8 2057,913.8 2056,891.6 2037,903.8 2017,894 2019,916.2 2000,928.6" />
  </g>
  <g style="fill:#FFFFFF; stroke:#000000; stroke-width:3.5;">
    <path d="M 1698,1481 L 1698,1529 C 1698,1563 1904,1563 1904,1529 L 1904,1481 C 1904,1506 1698,1501 1698,1481 z" />
    <path d="M 1514,1418 C 1532,1510 1698,1512 1698,1512 C 1698,1512 1698,1481 1698,1481 C 1694,1469 1701,1465 1728,1461 C 1739,1460 1734,1444 1734,1444 C 1734,1444 1662,1457 1611,1437 C 1542,1409 1532,1355 1532,1355 C 1532,1355 1527,1397 1514,1418 L 1514,1418 z" />
    <path d="M 2087,1418 C 2070,1510 1904,1512 1904,1512 C 1904,1512 1904,1481 1904,1481 C 1907,1469 1900,1465 1873,1461 C 1862,1460 1868,1444 1868,1444 C 1868,1444 1940,1457 1991,1437 C 2059,1409 2067,1355 2067,1355 C 2067,1355 2074,1397 2087,1418 L 2087,1418 z" />
    <path d="M 1527,1383 C 1481,1358 1517,1332 1521,1258 C 1528,1303 1579,1322 1573,1351 C 1552,1352 1542,1320 1532,1355 C 1532,1355 1527,1383 1527,1383 L 1527,1383 z" />
    <path d="M 2074,1383 C 2120,1357 2082,1332 2078,1258 C 2071,1303 2021,1322 2027,1351 C 2047,1352 2057,1320 2067,1355 C 2067,1355 2074,1382 2074,1382 L 2074,1383 z" />
  </g>
  <path d="M 1761,1541 L 1761,1509 L 1771,1509 C 1775,1509 1778,1509 1779,1509 C 1781,1510 1783,1511 1784,1512 C 1785,1514 1786,1516 1786,1518 C 1786,1520 1785,1522 1785,1523 C 1784,1525 1783,1526 1782,1527 C 1781,1527 1780,1528 1779,1528 C 1777,1528 1775,1529 1772,1529 L 1768,1529 L 1768,1541 L 1761,1541 L 1761,1541 z M 1768,1514 L 1768,1523 L 1771,1523 C 1774,1523 1775,1523 1776,1523 C 1777,1522 1778,1522 1778,1521 C 1779,1520 1779,1520 1779,1519 C 1779,1517 1779,1516 1778,1516 C 1777,1515 1776,1514 1775,1514 C 1775,1514 1773,1514 1771,1514 L 1768,1514 L 1768,1514 z M 1817,1541 L 1810,1541 L 1807,1533 L 1794,1533 L 1791,1541 L 1784,1541 L 1797,1509 L 1804,1509 L 1817,1541 L 1817,1541 z M 1805,1528 L 1800,1516 L 1796,1528 L 1805,1528 z M 1817,1541 L 1817,1535 L 1834,1514 L 1819,1514 L 1819,1509 L 1843,1509 L 1843,1514 L 1825,1535 L 1843,1535 L 1843,1541 L 1817,1541 L 1817,1541 z" style="fill:#000000; fill-rule:nonzero;" />
  <path d="M 1827,1399 C 1827,1399 1822,1404 1813,1400 C 1804,1396 1803,1143 1803,1143 C 1823,1121 1839,1114 1839,1114 C 1839,1114 1851,1124 1851,1124 C 1806,1147 1810,1180 1814,1237 C 1815,1258 1815,1285 1820,1311 C 1827,1344 1841,1372 1842,1393 C 1843,1406 1827,1399 1827,1399 L 1827,1399 z" style="fill:#73452B; stroke:#000000; stroke-width:1;" />
  <path d="M 1796,1108 L 1814,1108 C 1799,1253 1812,1339 1812,1381 C 1812,1395 1820,1400 1819,1400 C 1801,1420 1792,1399 1792,1399 L 1796,1108 L 1796,1108 z" style="fill:#73452B; stroke:#000000; stroke-width:1;" />
  <path d="M 1768,1399 C 1751,1407 1749,1391 1750,1389 C 1787,1314 1803,1149 1769,1131 C 1769,1131 1771,1115 1771,1115 C 1784,1119 1796,1136 1796,1136 C 1801,1321 1796,1397 1793,1400 C 1775,1419 1768,1397 1767,1395" style="fill:#A36629;stroke:#000000;stroke-width:1;" />
  <path d="M 1767,1396 C 1764,1380 1793,1339 1791,1296" style="fill:none; stroke:#000000; stroke-width:1;" />
  <path d="M 1816,1331 C 1825,1356 1829,1378 1827,1399" style="fill:none; stroke:#000000; stroke-width:1;" />
  <path d="M 1855,1040 C 1861,1033 1861,1033 1872,1033 C 1874,1018 1899,1018 1901,1037 C 1921,1033 1925,1045 1917,1057 C 1936,1052 1953,1057 1948,1079 C 1982,1088 1969,1112 1954,1117 C 1952,1132 1938,1137 1919,1131 C 1895,1148 1881,1142 1870,1125 C 1843,1129 1841,1123 1829,1108 C 1808,1117 1804,1117 1786,1106 C 1785,1120 1780,1116 1771,1115 C 1772,1133 1765,1141 1749,1135 C 1761,1160 1730,1171 1715,1150 C 1701,1151 1700,1147 1693,1142 C 1687,1162 1665,1159 1661,1148 C 1633,1144 1636,1129 1659,1128 C 1661,1112 1675,1115 1684,1117 C 1685,1107 1691,1109 1696,1111 C 1693,1104 1695,1100 1704,1098 C 1691,1081 1699,1075 1712,1069 C 1705,1053 1717,1054 1726,1053 C 1725,1036 1730,1033 1748,1031 C 1746,1025 1749,1020 1759,1020 C 1753,1003 1761,999.1 1779,1002 C 1782,977.3 1835,989 1831,1023 C 1846,1025 1851,1028 1855,1040 L 1855,1040 z" style="fill:#009A3B; stroke:#000000; stroke-width:1;" />
  <g style="fill:none; stroke:#000000; stroke-width:1;">
    <path d="M 1748,1031 C 1752,1033 1757,1031 1758,1042 C 1766,1028 1776,1036 1776,1052" />
    <path d="M 1831,1023 C 1827,1029 1812,1029 1814,1045 C 1809,1038 1799,1036 1795,1043" />
    <path d="M 1855,1040 C 1855,1044 1854,1056 1850,1062" />
    <path d="M 1917,1057 C 1918,1058 1903,1057 1896,1062" />
    <path d="M 1954,1117 C 1950,1115 1942,1110 1936,1118 C 1936,1114 1936,1103 1925,1103" />
    <path d="M 1919,1131 C 1919,1121 1917,1118 1915,1115" />
    <path d="M 1886,1117 C 1878,1111 1870,1120 1870,1125" />
    <path d="M 1828,1108 C 1828,1104 1825,1096 1832,1093" />
    <path d="M 1714,1150 C 1716,1140 1723,1140 1722,1135 C 1721,1127 1712,1120 1701,1131" />
    <path d="M 1722,1135 C 1728,1133 1734,1134 1736,1137" />
    <path d="M 1705,1098 C 1709,1094 1719,1095 1725,1098" />
    <path d="M 1725,1074 C 1730,1074 1739,1072 1742,1081 C 1753,1064 1761,1066 1763,1070" />
    <path d="M 1783,1068 C 1791,1065 1805,1073 1813,1087 C 1817,1076 1823,1078 1829,1077" />
    <path d="M 1867,1087 C 1880,1081 1888,1093 1892,1098 C 1898,1090 1903,1090 1909,1090" />
    <path d="M 1746,1111 C 1749,1106 1756,1105 1761,1108 C 1760,1099 1766,1095 1770,1097" />
  </g>
  <path d="M 1555,1417 L 1560,1421 L 1549,1433 C 1547,1435 1546,1437 1546,1437 C 1545,1439 1545,1440 1545,1441 C 1545,1442 1546,1443 1547,1444 C 1548,1446 1550,1446 1551,1446 C 1552,1446 1553,1446 1554,1445 C 1555,1445 1556,1444 1557,1442 L 1569,1429 L 1573,1433 L 1563,1445 C 1560,1448 1558,1450 1557,1451 C 1556,1452 1555,1452 1553,1452 C 1552,1452 1550,1452 1549,1452 C 1547,1451 1546,1450 1544,1449 C 1542,1447 1540,1445 1540,1443 C 1539,1442 1539,1440 1539,1439 C 1539,1438 1539,1436 1540,1435 C 1540,1434 1542,1432 1544,1429 L 1555,1417 L 1555,1417 z M 1558,1460 L 1575,1434 L 1580,1437 L 1579,1461 L 1590,1444 L 1595,1447 L 1579,1473 L 1573,1470 L 1574,1446 L 1563,1463 L 1558,1460 L 1558,1460 z M 1584,1476 L 1598,1448 L 1603,1451 L 1590,1478 L 1584,1476 L 1584,1476 z M 1606,1452 L 1616,1456 C 1619,1457 1620,1458 1621,1459 C 1623,1460 1624,1461 1625,1463 C 1626,1465 1626,1466 1626,1468 C 1626,1471 1625,1473 1624,1476 C 1624,1478 1623,1480 1621,1481 C 1620,1483 1618,1485 1616,1485 C 1615,1486 1613,1486 1612,1486 C 1610,1486 1608,1486 1606,1485 L 1595,1481 L 1606,1452 L 1606,1452 z M 1610,1459 L 1603,1478 L 1607,1480 C 1609,1480 1610,1481 1611,1481 C 1612,1481 1613,1481 1614,1481 C 1614,1480 1615,1479 1616,1478 C 1617,1477 1618,1475 1618,1473 C 1619,1471 1620,1469 1620,1468 C 1620,1467 1620,1465 1619,1465 C 1619,1464 1618,1463 1617,1462 C 1616,1462 1615,1461 1612,1460 L 1610,1459 L 1610,1459 z M 1652,1496 L 1645,1495 L 1644,1488 L 1632,1485 L 1628,1492 L 1621,1490 L 1639,1463 L 1645,1464 L 1652,1496 L 1652,1496 z M 1643,1482 L 1641,1470 L 1635,1481 L 1643,1482 L 1643,1482 z M 1656,1466 L 1668,1466 C 1670,1467 1672,1467 1673,1467 C 1675,1468 1677,1469 1678,1470 C 1679,1472 1680,1473 1680,1475 C 1681,1477 1681,1480 1681,1483 C 1681,1485 1681,1487 1680,1489 C 1679,1491 1678,1493 1676,1494 C 1675,1495 1674,1496 1672,1497 C 1671,1497 1669,1497 1666,1497 L 1655,1496 L 1656,1466 L 1656,1466 z M 1662,1471 L 1661,1492 L 1666,1492 C 1668,1492 1669,1492 1670,1492 C 1671,1491 1671,1491 1672,1491 C 1673,1490 1673,1489 1674,1488 C 1674,1486 1675,1484 1675,1482 C 1675,1480 1675,1478 1674,1477 C 1674,1475 1674,1474 1673,1474 C 1672,1473 1671,1472 1670,1472 C 1669,1472 1667,1472 1665,1472 L 1662,1471 L 1662,1471 z" style="fill:#000000" />
  <path d="M 1918,1473 L 1924,1472 L 1927,1490 C 1927,1493 1927,1495 1927,1496 C 1926,1498 1925,1499 1924,1501 C 1923,1502 1921,1503 1918,1503 C 1915,1503 1913,1503 1911,1501 C 1909,1500 1908,1498 1908,1494 L 1913,1493 C 1914,1495 1914,1496 1915,1497 C 1915,1498 1916,1498 1918,1498 C 1919,1498 1920,1497 1920,1496 C 1921,1495 1921,1494 1921,1491 L 1918,1472 L 1918,1473 z M 1928,1471 L 1934,1470 L 1937,1486 C 1938,1488 1938,1490 1938,1491 C 1939,1492 1940,1493 1941,1493 C 1942,1494 1943,1494 1945,1493 C 1947,1493 1948,1492 1948,1492 C 1949,1491 1950,1490 1949,1489 C 1949,1488 1949,1486 1949,1484 L 1945,1468 L 1951,1467 L 1954,1482 C 1955,1485 1955,1488 1955,1489 C 1955,1491 1955,1492 1954,1493 C 1954,1494 1953,1495 1952,1496 C 1950,1497 1948,1498 1946,1498 C 1943,1499 1941,1499 1940,1499 C 1938,1498 1937,1498 1936,1497 C 1935,1496 1934,1495 1933,1494 C 1933,1492 1932,1490 1931,1487 L 1928,1471 L 1928,1471 z M 1959,1485 L 1964,1483 C 1965,1485 1966,1486 1968,1486 C 1969,1487 1971,1487 1972,1486 C 1974,1486 1975,1485 1976,1484 C 1977,1483 1977,1482 1977,1481 C 1976,1480 1976,1480 1976,1479 C 1975,1479 1974,1479 1973,1479 C 1972,1479 1971,1479 1968,1479 C 1965,1479 1962,1479 1961,1478 C 1959,1477 1957,1475 1956,1473 C 1956,1472 1956,1470 1956,1469 C 1957,1467 1958,1466 1959,1465 C 1960,1464 1962,1463 1964,1462 C 1968,1461 1971,1461 1973,1462 C 1975,1463 1977,1465 1978,1467 L 1972,1469 C 1971,1468 1971,1467 1970,1467 C 1969,1466 1967,1466 1966,1467 C 1964,1467 1963,1468 1962,1469 C 1962,1470 1962,1470 1962,1471 C 1962,1472 1962,1472 1963,1473 C 1964,1473 1966,1473 1969,1473 C 1972,1473 1974,1473 1976,1473 C 1977,1473 1979,1474 1980,1475 C 1981,1476 1982,1477 1982,1479 C 1983,1481 1983,1482 1982,1484 C 1982,1486 1981,1487 1980,1488 C 1978,1489 1976,1490 1974,1491 C 1970,1492 1967,1492 1965,1491 C 1962,1490 1960,1488 1959,1485 L 1959,1485 z M 1996,1483 L 1986,1460 L 1978,1464 L 1976,1459 L 1998,1450 L 2000,1454 L 1992,1458 L 2001,1480 L 1996,1483 L 1996,1483 z M 2013,1475 L 1999,1449 L 2004,1446 L 2018,1472 L 2013,1475 L 2013,1475 z M 2033,1451 L 2039,1449 C 2040,1452 2040,1455 2039,1457 C 2038,1460 2037,1462 2034,1464 C 2030,1466 2027,1466 2023,1465 C 2020,1464 2017,1462 2014,1458 C 2012,1454 2011,1450 2012,1446 C 2012,1443 2014,1440 2018,1437 C 2021,1436 2024,1435 2027,1436 C 2029,1436 2031,1437 2033,1439 L 2028,1443 C 2027,1442 2026,1441 2024,1441 C 2023,1441 2022,1441 2020,1442 C 2018,1443 2017,1445 2017,1447 C 2017,1449 2018,1451 2019,1454 C 2021,1458 2023,1459 2025,1460 C 2027,1461 2029,1460 2031,1459 C 2032,1458 2033,1457 2034,1456 C 2034,1454 2034,1453 2033,1451 L 2033,1451 z M 2048,1454 L 2030,1430 L 2035,1426 L 2053,1450 L 2048,1454 L 2048,1454 z M 2077,1429 L 2072,1433 L 2066,1430 L 2057,1438 L 2060,1444 L 2055,1449 L 2044,1419 L 2049,1415 L 2077,1429 L 2077,1429 z M 2061,1427 L 2051,1422 L 2055,1433 L 2061,1427 L 2061,1427 z" style="fill:#000000" />
</svg>
