<?xml version="1.0" encoding="UTF-8" standalone="no"?>
<!-- Created with Inkscape (http://www.inkscape.org/) -->

<svg
   xmlns:dc="http://purl.org/dc/elements/1.1/"
   xmlns:cc="http://creativecommons.org/ns#"
   xmlns:rdf="http://www.w3.org/1999/02/22-rdf-syntax-ns#"
   xmlns:svg="http://www.w3.org/2000/svg"
   xmlns="http://www.w3.org/2000/svg"
   version="1.0"
   width="2400"
   height="1200"
   viewBox="0 0 2400 1200"
   id="svg2"
   xml:space="preserve"
   style="fill-rule:evenodd"><defs
     id="defs4">
  <style
   type="text/css"
   id="style6" />
 
  
  
  
  
  
  
  
  
  
  
  
  
  
  
  
  
  
  
  
  
  
  
  
  
  
  
  
  
  
  
  
  
  
  
  
  
  
  
  
  
  
  
  
 </defs><rect
     width="2400"
     height="1200"
     x="0"
     y="0"
     id="rect124"
     style="fill:#cf142b;fill-opacity:1" /><rect
     width="1200"
     height="600"
     x="0"
     y="0"
     id="_126201808"
     style="fill:#00247d;fill-opacity:1" /><polygon
     points="134.169,600 0,600 0,532.917 1065.84,0 1200,0 1200,67 "
     id="path146"
     style="fill:#ffffff" /><polygon
     points="0,67.0866 1065.84,600 1200,600 1200,532.918 134.169,0 0,0 "
     id="path146_0"
     style="fill:#ffffff" /><polygon
     points="0,200.003 0,400 1200,400 1200,200 "
     id="path136"
     style="fill:#ffffff" /><polygon
     points="500,600 700,600 700,0 500,0 "
     id="path136_1"
     style="fill:#ffffff" /><polygon
     points="0,240 0,360 1200,360 1200,240.002 "
     id="path141_2"
     style="fill:#cf142b;fill-opacity:1" /><polygon
     points="1200,555.279 1200,600 800.003,400.002 889.444,400.002 "
     id="path150"
     style="fill:#cf142b;fill-opacity:1" /><polygon
     points="710.561,200 1110.56,0 1200,0 800,200 "
     id="path150_3"
     style="fill:#cf142b;fill-opacity:1" /><polygon
     points="400,200 310.563,200 0,44.7262 0,0 "
     id="path150_4"
     style="fill:#cf142b;fill-opacity:1" /><polygon
     points="89.4471,600 0,600 400,400 489.445,400 "
     id="path150_5"
     style="fill:#cf142b;fill-opacity:1" /><path
     d="m 1560.06,500.044 0.073,99.8479 c 0.099,132.705 132.407,254.243 239.862,300.107 107.454,-45.8646 239.763,-167.402 239.862,-300.107 l 0.073,-99.8079 -479.87,-0.0401 -4e-4,0 z"
     id="path604"
     style="fill:#007934;fill-opacity:1;stroke:#b88b00;stroke-width:10.00030041;stroke-opacity:1" /><polygon
     points="1764.52,641.267 1764.55,635.978 1744.67,634.253 1753.11,616.217 1748.51,613.602 1763.35,605.05 1729.42,585.509 1734.69,582.52 1725.04,561.907 1747.76,559.936 1747.72,553.891 1781.65,573.443 1781.65,534.366 1786.88,537.423 1800,518.781 1813.12,537.423 1818.35,534.366 1818.35,573.443 1852.28,553.891 1852.24,559.936 1874.96,561.907 1865.31,582.52 1870.58,585.509 1836.65,605.05 1851.49,613.602 1846.89,616.217 1855.33,634.253 1835.45,635.978 1835.48,641.267 1805.8,624.165 1805.84,861.22 1800.01,861.181 1794.17,861.22 1794.2,624.165 "
     id="_126098824"
     style="fill:#c5892a" /><polygon
     points="1862.48,657.665 1878.81,646.265 1876.12,641.696 1893.26,641.714 1873.64,607.826 1879.7,607.871 1881.65,585.196 1902.31,594.848 1905.3,589.593 1924.91,623.49 1944.44,589.646 1947.44,594.909 1968.13,585.327 1970.17,608.033 1976.23,608.001 1956.69,641.841 1995.85,641.872 1992.79,647.089 2011.48,660.154 1992.82,673.181 1995.89,678.404 1956.73,678.36 1965.31,693.191 1960.01,693.151 1958.31,712.991 1940.23,704.546 1937.61,709.143 1920.45,679.489 1910.42,673.695 1876.16,673.661 1878.83,669.098 "
     id="_126097944"
     style="fill:#c5892a" /><polygon
     points="1737.52,657.351 1721.19,645.952 1723.88,641.382 1706.74,641.4 1726.36,607.512 1720.3,607.558 1718.35,584.883 1697.69,594.534 1694.7,589.28 1675.09,623.177 1655.56,589.333 1652.56,594.596 1631.87,585.014 1629.83,607.719 1623.77,607.687 1643.31,641.526 1604.15,641.558 1607.21,646.776 1588.52,659.841 1607.18,672.868 1604.11,678.091 1643.27,678.047 1634.69,692.877 1639.99,692.837 1641.69,712.678 1659.77,704.232 1662.39,708.83 1679.55,679.176 1689.58,673.381 1723.84,673.346 1721.17,668.784 "
     id="_126097064"
     style="fill:#c5892a" /><line
     style="fill:none;stroke:#f3cc00;stroke-width:1.99975002;stroke-linecap:round;stroke-linejoin:round"
     y2="615.79498"
     x2="1799.95"
     y1="533.216"
     x1="1799.95"
     class="fil5 str1"
     id="_126096560" /><line
     style="fill:none;stroke:#f3cc00;stroke-width:1.99975002;stroke-linecap:round;stroke-linejoin:round"
     y2="568.43597"
     x2="1736.72"
     y1="629.13898"
     x1="1846.11"
     class="fil5 str1"
     id="_126096056" /><line
     style="fill:none;stroke:#f3cc00;stroke-width:1.99975002;stroke-linecap:round;stroke-linejoin:round"
     y2="568.26599"
     x2="1863.28"
     y1="629.21698"
     x1="1753.63"
     class="fil5 str1"
     id="_126095552" /><path
     d="m 1787.92,545.083 12.0801,20.8029 12.0801,-20.8029 m -24.1603,0 z"
     id="_126095048"
     style="fill:none;stroke:#f3cc00;stroke-width:1.99975002;stroke-linecap:round;stroke-linejoin:round" /><path
     d="m 1740.98,584.112 24.0601,-0.0578 -11.98,-20.0013 M 1740.98,584.112 z"
     id="_126094544"
     style="fill:none;stroke:#f3cc00;stroke-width:1.99975002;stroke-linecap:round;stroke-linejoin:round" /><path
     d="m 1859.02,583.941 -24.0601,-0.0582 11.98,-20.0009 m 12.0801,20.0591 z"
     id="_126094040"
     style="fill:none;stroke:#f3cc00;stroke-width:1.99975002;stroke-linecap:round;stroke-linejoin:round" /><path
     d="m 1841.85,613.465 -24.0601,0.0571 11.9701,20.0009 m 12.09,-20.058 z"
     id="_126093536"
     style="fill:none;stroke:#f3cc00;stroke-width:1.99975002;stroke-linecap:round;stroke-linejoin:round" /><path
     d="m 1757.89,613.541 24.0601,0.0582 -11.9701,20.0009 m -12.09,-20.0591 z"
     id="_126093032"
     style="fill:none;stroke:#f3cc00;stroke-width:1.99975002;stroke-linecap:round;stroke-linejoin:round" /><line
     style="fill:none;stroke:#f3cc00;stroke-width:1.99975002;stroke-linecap:round;stroke-linejoin:round"
     y2="669.31702"
     x2="1919.58"
     y1="597.802"
     x1="1960.86"
     class="fil5 str1"
     id="_126092528" /><line
     style="fill:none;stroke:#f3cc00;stroke-width:1.99975002;stroke-linecap:round;stroke-linejoin:round"
     y2="596.68903"
     x2="1888.5"
     y1="703.95502"
     x1="1952.88"
     class="fil5 str1"
     id="_126092024" /><line
     style="fill:none;stroke:#f3cc00;stroke-width:1.99975002;stroke-linecap:round;stroke-linejoin:round"
     y2="659.823"
     x2="1998.1899"
     y1="657.78198"
     x1="1872.75"
     class="fil5 str1"
     id="_126091520" /><path
     d="m 1944.51,602.065 0.06,24.054 20.8702,-11.9732 M 1944.51,602.0649 z"
     id="_126091016"
     style="fill:none;stroke:#f3cc00;stroke-width:1.99975002;stroke-linecap:round;stroke-linejoin:round" /><path
     d="m 1884.35,612.396 20.86,11.9769 -0.37,-23.308 m -20.49,11.331 z"
     id="_126090512"
     style="fill:none;stroke:#f3cc00;stroke-width:1.99975002;stroke-linecap:round;stroke-linejoin:round" /><path
     d="m 1986.66,671.265 -20.7999,-12.076 20.3701,-11.3348 m 0.4297,23.4108 z"
     id="_126090008"
     style="fill:none;stroke:#f3cc00;stroke-width:1.99975002;stroke-linecap:round;stroke-linejoin:round" /><path
     d="m 1957.03,688.248 -20.86,-11.9773 0.3602,23.3091 M 1957.03,688.248 z"
     id="_126089504"
     style="fill:none;stroke:#f3cc00;stroke-width:1.99975002;stroke-linecap:round;stroke-linejoin:round" /><path
     d="m 1884.28,646.339 20.8101,12.0771 -20.3701,11.3352 m -0.4399,-23.4123 z"
     id="_126089000"
     style="fill:none;stroke:#f3cc00;stroke-width:1.99975002;stroke-linecap:round;stroke-linejoin:round" /><line
     style="fill:none;stroke:#f3cc00;stroke-width:1.99975002;stroke-linecap:round;stroke-linejoin:round"
     y2="669.00403"
     x2="1680.4301"
     y1="597.48798"
     x1="1639.14"
     class="fil5 str1"
     id="_126088496" /><line
     style="fill:none;stroke:#f3cc00;stroke-width:1.99975002;stroke-linecap:round;stroke-linejoin:round"
     y2="596.375"
     x2="1711.5"
     y1="703.64203"
     x1="1647.12"
     class="fil5 str1"
     id="_126087992" /><line
     style="fill:none;stroke:#f3cc00;stroke-width:1.99975002;stroke-linecap:round;stroke-linejoin:round"
     y2="659.50897"
     x2="1601.8101"
     y1="657.46899"
     x1="1727.25"
     class="fil5 str1"
     id="_126087488" /><path
     d="m 1655.49,601.752 -0.06,24.0537 -20.8702,-11.9728 M 1655.49,601.752 z"
     id="_126086976"
     style="fill:none;stroke:#f3cc00;stroke-width:1.99975002;stroke-linecap:round;stroke-linejoin:round" /><path
     d="m 1715.65,612.081 -20.86,11.9781 0.37,-23.308 m 20.49,11.3299 z"
     id="_126086488"
     style="fill:none;stroke:#f3cc00;stroke-width:1.99975002;stroke-linecap:round;stroke-linejoin:round" /><path
     d="m 1613.34,670.952 20.7999,-12.0779 -20.3701,-11.3352 m -0.4297,23.413 z"
     id="_126086016"
     style="fill:none;stroke:#f3cc00;stroke-width:1.99975002;stroke-linecap:round;stroke-linejoin:round" /><path
     d="m 1642.97,687.935 20.8698,-11.9769 -0.37,23.308 m -20.4998,-11.331 z"
     id="_126085664"
     style="fill:none;stroke:#f3cc00;stroke-width:1.99975002;stroke-linecap:round;stroke-linejoin:round" /><path
     d="m 1715.72,646.026 -20.8101,12.0771 20.3701,11.3348 m 0.4399,-23.4119 z"
     id="_126085312"
     style="fill:none;stroke:#f3cc00;stroke-width:1.99975002;stroke-linecap:round;stroke-linejoin:round" /><path
     d="m 1800.16,792.217 c 45.411,-31.3134 87.7784,-73.1478 118.825,-120.82"
     id="path604_6"
     style="fill:none;stroke:#c5892a;stroke-width:10.99960041" /><path
     d="m 1800.25,792.217 c -45.4122,-31.3134 -87.7791,-73.1478 -118.826,-120.82"
     id="path604_7"
     style="fill:none;stroke:#c5892a;stroke-width:10.99960041" /><rect
     width="479.961"
     height="200.147"
     x="1560.04"
     y="300.03201"
     id="_126101704"
     style="fill:#ffffff" /><polygon
     points="1822.52,300.058 1777.52,300.058 1777.52,500.157 1822.52,500.157 "
     id="path141_8"
     style="fill:#f7403a;fill-opacity:1" /><polygon
     points="2040,377.602 1560.04,377.602 1560.04,422.611 2040,422.611 "
     id="path141_9"
     style="fill:#f7403a;fill-opacity:1" /><rect
     width="479.96301"
     height="200.147"
     x="1560"
     y="300.00201"
     id="rect613"
     style="fill:none;stroke:#b88b00;stroke-width:10.00030041;stroke-opacity:1" /><polygon
     points="0.00491339,360.002 1262.77,360.002 1262.77,240.002 0.00491339,240.002 "
     transform="matrix(0,0.47514776,-1,0,900.002,-0.00233459)"
     id="polygon3848"
     style="fill:#cf142b;fill-opacity:1" /><metadata
     id="metadata3852"><rdf:RDF><cc:Work
         rdf:about=""><dc:title></dc:title></cc:Work></rdf:RDF></metadata></svg>