<?xml version="1.0" encoding="iso-8859-1"?>
<!-- Generator: Adobe Illustrator 12.0.1, SVG Export Plug-In . SVG Version: 6.00 Build 51448)  -->
<!DOCTYPE svg PUBLIC "-//W3C//DTD SVG 1.1//EN" "http://www.w3.org/Graphics/SVG/1.1/DTD/svg11.dtd" [
	<!ENTITY ns_svg "http://www.w3.org/2000/svg">
	<!ENTITY ns_xlink "http://www.w3.org/1999/xlink">
]>
<svg  version="1.1" id="Layer_1" xmlns="&ns_svg;" xmlns:xlink="&ns_xlink;" width="300" height="300" viewBox="0 0 300 300"
	 style="overflow:visible;enable-background:new 0 0 300 300;" xml:space="preserve">
<rect x="224.5" y="1.1" style="fill:#FFFFFF;stroke:#000000;stroke-width:2.1282;" width="74.4" height="74.4"/>
<rect x="224.5" y="75.6" style="fill:#FFFFFF;stroke:#000000;stroke-width:2.1282;" width="74.4" height="74.4"/>
<rect x="224.5" y="150.1" style="fill:#FFFFFF;stroke:#000000;stroke-width:2.1282;" width="74.4" height="74.4"/>
<rect x="224.5" y="224.5" style="fill:#FFFFFF;stroke:#000000;stroke-width:2.1282;" width="74.4" height="74.4"/>
<rect x="150.1" y="1.1" style="fill:#FFFFFF;stroke:#000000;stroke-width:2.1282;" width="74.4" height="74.4"/>
<rect x="150.1" y="75.6" style="fill:#FFFFFF;stroke:#000000;stroke-width:2.1282;" width="74.4" height="74.4"/>
<rect x="150.1" y="150.1" style="fill:#FFFFFF;stroke:#000000;stroke-width:2.1282;" width="74.4" height="74.4"/>
<rect x="150.1" y="224.5" style="fill:#FFFFFF;stroke:#000000;stroke-width:2.1282;" width="74.4" height="74.4"/>
<rect x="75.6" y="1.1" style="fill:#FFFFFF;stroke:#000000;stroke-width:2.1282;" width="74.4" height="74.4"/>
<rect x="75.6" y="75.6" style="fill:#FFFFFF;stroke:#000000;stroke-width:2.1282;" width="74.4" height="74.4"/>
<rect x="75.6" y="150.1" style="fill:#FFFFFF;stroke:#000000;stroke-width:2.1282;" width="74.4" height="74.4"/>
<rect x="75.6" y="224.5" style="fill:#FFFFFF;stroke:#000000;stroke-width:2.1282;" width="74.4" height="74.4"/>
<rect x="1.1" y="1.1" style="fill:#FFFFFF;stroke:#000000;stroke-width:2.1282;" width="74.4" height="74.4"/>
<rect x="1.1" y="75.6" style="fill:#FFFFFF;stroke:#000000;stroke-width:2.1282;" width="74.4" height="74.4"/>
<rect x="1.1" y="150.1" style="fill:#FFFFFF;stroke:#000000;stroke-width:2.1282;" width="74.4" height="74.4"/>
<rect x="1.1" y="224.5" style="fill:#FFFFFF;stroke:#000000;stroke-width:2.1282;" width="74.4" height="74.4"/>
<line style="fill:none;stroke:#000000;stroke-width:2.1277;" x1="1.1" y1="1.1" x2="299" y2="299"/>
<line style="fill:none;stroke:#000000;stroke-width:2.1277;" x1="1.1" y1="150.1" x2="150.1" y2="299"/>
<line style="fill:none;stroke:#000000;stroke-width:2.1277;" x1="150.1" y1="1.1" x2="299" y2="150.1"/>
<line style="fill:none;stroke:#000000;stroke-width:2.1277;" x1="1.1" y1="299" x2="299" y2="1.1"/>
<line style="fill:none;stroke:#000000;stroke-width:2.1277;" x1="150.1" y1="299" x2="299" y2="150.1"/>
<line style="fill:none;stroke:#000000;stroke-width:2.1277;" x1="1.1" y1="150.1" x2="150.1" y2="1.1"/>
</svg>
