<?xml version="1.0" encoding="UTF-8" standalone="no"?>
<!DOCTYPE svg PUBLIC "-//W3C//DTD SVG 1.0//EN"
	"http://www.w3.org/TR/2001/REC-SVG-20010904/DTD/svg10.dtd">
<!-- Created with Inkscape (http://www.inkscape.org/) -->
<svg
   xmlns:svg="http://www.w3.org/2000/svg"
   xmlns="http://www.w3.org/2000/svg"
   xmlns:xlink="http://www.w3.org/1999/xlink"
   version="1.0"
   width="870.35944"
   height="880.43878"
   id="svg2433">
  <defs
     id="defs2435" />
  <g
     transform="translate(-29.64059,99.999984)"
     id="layer1">
    <g
       transform="translate(-911.67858,225.51912)"
       id="g2889">
      <rect
         width="100"
         height="100"
         x="1011.6786"
         y="-325.5191"
         id="rect2499"
         style="fill:#9f9f9f;fill-opacity:1;fill-rule:evenodd;stroke:none;stroke-width:1px;stroke-linecap:butt;stroke-linejoin:miter;marker:none;marker-start:none;marker-mid:none;marker-end:none;stroke-miterlimit:4;stroke-dasharray:none;stroke-dashoffset:0;stroke-opacity:1;visibility:visible;display:inline;overflow:visible;enable-background:accumulate" />
      <use
         transform="translate(0,200)"
         id="use2959"
         x="0"
         y="0"
         width="744.09448"
         height="1052.3622"
         xlink:href="#rect2499" />
      <use
         transform="translate(0,400)"
         id="use2963"
         x="0"
         y="0"
         width="744.09448"
         height="1052.3622"
         xlink:href="#rect2499" />
      <use
         transform="translate(0,600)"
         id="use2967"
         x="0"
         y="0"
         width="744.09448"
         height="1052.3622"
         xlink:href="#rect2499" />
      <use
         transform="translate(100,100)"
         id="use2973"
         x="0"
         y="0"
         width="744.09448"
         height="1052.3622"
         xlink:href="#rect2499" />
      <use
         transform="translate(100,300)"
         id="use2977"
         x="0"
         y="0"
         width="744.09448"
         height="1052.3622"
         xlink:href="#rect2499" />
      <use
         transform="translate(100,500)"
         id="use2981"
         x="0"
         y="0"
         width="744.09448"
         height="1052.3622"
         xlink:href="#rect2499" />
      <use
         transform="translate(100,700)"
         id="use2985"
         x="0"
         y="0"
         width="744.09448"
         height="1052.3622"
         xlink:href="#rect2499" />
      <use
         transform="translate(200,0)"
         id="use2987"
         x="0"
         y="0"
         width="744.09448"
         height="1052.3622"
         xlink:href="#rect2499" />
      <use
         transform="translate(200,200)"
         id="use2991"
         x="0"
         y="0"
         width="744.09448"
         height="1052.3622"
         xlink:href="#rect2499" />
      <use
         transform="translate(200,400)"
         id="use2995"
         x="0"
         y="0"
         width="744.09448"
         height="1052.3622"
         xlink:href="#rect2499" />
      <use
         transform="translate(200,600)"
         id="use2999"
         x="0"
         y="0"
         width="744.09448"
         height="1052.3622"
         xlink:href="#rect2499" />
      <use
         transform="translate(300,100)"
         id="use3005"
         x="0"
         y="0"
         width="744.09448"
         height="1052.3622"
         xlink:href="#rect2499" />
      <use
         transform="translate(300,300)"
         id="use3009"
         x="0"
         y="0"
         width="744.09448"
         height="1052.3622"
         xlink:href="#rect2499" />
      <use
         transform="translate(300,500)"
         id="use3013"
         x="0"
         y="0"
         width="744.09448"
         height="1052.3622"
         xlink:href="#rect2499" />
      <use
         transform="translate(300,700)"
         id="use3017"
         x="0"
         y="0"
         width="744.09448"
         height="1052.3622"
         xlink:href="#rect2499" />
      <use
         transform="translate(400,0)"
         id="use3019"
         x="0"
         y="0"
         width="744.09448"
         height="1052.3622"
         xlink:href="#rect2499" />
      <use
         transform="translate(400,200)"
         id="use3023"
         x="0"
         y="0"
         width="744.09448"
         height="1052.3622"
         xlink:href="#rect2499" />
      <use
         transform="translate(400,400)"
         id="use3027"
         x="0"
         y="0"
         width="744.09448"
         height="1052.3622"
         xlink:href="#rect2499" />
      <use
         transform="translate(400,600)"
         id="use3031"
         x="0"
         y="0"
         width="744.09448"
         height="1052.3622"
         xlink:href="#rect2499" />
      <use
         transform="translate(500,100)"
         id="use3037"
         x="0"
         y="0"
         width="744.09448"
         height="1052.3622"
         xlink:href="#rect2499" />
      <use
         transform="translate(500,300)"
         id="use3041"
         x="0"
         y="0"
         width="744.09448"
         height="1052.3622"
         xlink:href="#rect2499" />
      <use
         transform="translate(500,500)"
         id="use3045"
         x="0"
         y="0"
         width="744.09448"
         height="1052.3622"
         xlink:href="#rect2499" />
      <use
         transform="translate(500,700)"
         id="use3049"
         x="0"
         y="0"
         width="744.09448"
         height="1052.3622"
         xlink:href="#rect2499" />
      <use
         transform="translate(600,0)"
         id="use3051"
         x="0"
         y="0"
         width="744.09448"
         height="1052.3622"
         xlink:href="#rect2499" />
      <use
         transform="translate(600,200)"
         id="use3055"
         x="0"
         y="0"
         width="744.09448"
         height="1052.3622"
         xlink:href="#rect2499" />
      <use
         transform="translate(600,400)"
         id="use3059"
         x="0"
         y="0"
         width="744.09448"
         height="1052.3622"
         xlink:href="#rect2499" />
      <use
         transform="translate(600,600)"
         id="use3063"
         x="0"
         y="0"
         width="744.09448"
         height="1052.3622"
         xlink:href="#rect2499" />
      <use
         transform="translate(700,100)"
         id="use3069"
         x="0"
         y="0"
         width="744.09448"
         height="1052.3622"
         xlink:href="#rect2499" />
      <use
         transform="translate(700,300)"
         id="use3073"
         x="0"
         y="0"
         width="744.09448"
         height="1052.3622"
         xlink:href="#rect2499" />
      <use
         transform="translate(700,500)"
         id="use3077"
         x="0"
         y="0"
         width="744.09448"
         height="1052.3622"
         xlink:href="#rect2499" />
      <use
         transform="translate(700,700)"
         id="use3081"
         x="0"
         y="0"
         width="744.09448"
         height="1052.3622"
         xlink:href="#rect2499" />
      <rect
         width="100"
         height="100"
         x="1111.6786"
         y="-325.5191"
         id="rect2497"
         style="fill:#666666;fill-opacity:1;fill-rule:evenodd;stroke:none;stroke-width:1px;stroke-linecap:butt;stroke-linejoin:miter;marker:none;marker-start:none;marker-mid:none;marker-end:none;stroke-miterlimit:4;stroke-dasharray:none;stroke-dashoffset:0;stroke-opacity:1;visibility:visible;display:inline;overflow:visible;enable-background:accumulate" />
      <use
         transform="translate(-100,100)"
         id="use3087"
         x="0"
         y="0"
         width="744.09448"
         height="1052.3622"
         xlink:href="#rect2497" />
      <use
         transform="translate(-100,300)"
         id="use3091"
         x="0"
         y="0"
         width="744.09448"
         height="1052.3622"
         xlink:href="#rect2497" />
      <use
         transform="translate(-100,500)"
         id="use3095"
         x="0"
         y="0"
         width="744.09448"
         height="1052.3622"
         xlink:href="#rect2497" />
      <use
         transform="translate(-100,700)"
         id="use3099"
         x="0"
         y="0"
         width="744.09448"
         height="1052.3622"
         xlink:href="#rect2497" />
      <use
         transform="translate(0,200)"
         id="use3105"
         x="0"
         y="0"
         width="744.09448"
         height="1052.3622"
         xlink:href="#rect2497" />
      <use
         transform="translate(0,400)"
         id="use3109"
         x="0"
         y="0"
         width="744.09448"
         height="1052.3622"
         xlink:href="#rect2497" />
      <use
         transform="translate(0,600)"
         id="use3113"
         x="0"
         y="0"
         width="744.09448"
         height="1052.3622"
         xlink:href="#rect2497" />
      <use
         transform="translate(100,100)"
         id="use3119"
         x="0"
         y="0"
         width="744.09448"
         height="1052.3622"
         xlink:href="#rect2497" />
      <use
         transform="translate(100,300)"
         id="use3123"
         x="0"
         y="0"
         width="744.09448"
         height="1052.3622"
         xlink:href="#rect2497" />
      <use
         transform="translate(100,500)"
         id="use3127"
         x="0"
         y="0"
         width="744.09448"
         height="1052.3622"
         xlink:href="#rect2497" />
      <use
         transform="translate(100,700)"
         id="use3131"
         x="0"
         y="0"
         width="744.09448"
         height="1052.3622"
         xlink:href="#rect2497" />
      <use
         transform="translate(200,0)"
         id="use3133"
         x="0"
         y="0"
         width="744.09448"
         height="1052.3622"
         xlink:href="#rect2497" />
      <use
         transform="translate(200,200)"
         id="use3137"
         x="0"
         y="0"
         width="744.09448"
         height="1052.3622"
         xlink:href="#rect2497" />
      <use
         transform="translate(200,400)"
         id="use3141"
         x="0"
         y="0"
         width="744.09448"
         height="1052.3622"
         xlink:href="#rect2497" />
      <use
         transform="translate(200,600)"
         id="use3145"
         x="0"
         y="0"
         width="744.09448"
         height="1052.3622"
         xlink:href="#rect2497" />
      <use
         transform="translate(300,100)"
         id="use3151"
         x="0"
         y="0"
         width="744.09448"
         height="1052.3622"
         xlink:href="#rect2497" />
      <use
         transform="translate(300,300)"
         id="use3155"
         x="0"
         y="0"
         width="744.09448"
         height="1052.3622"
         xlink:href="#rect2497" />
      <use
         transform="translate(300,500)"
         id="use3159"
         x="0"
         y="0"
         width="744.09448"
         height="1052.3622"
         xlink:href="#rect2497" />
      <use
         transform="translate(300,700)"
         id="use3163"
         x="0"
         y="0"
         width="744.09448"
         height="1052.3622"
         xlink:href="#rect2497" />
      <use
         transform="translate(400,0)"
         id="use3165"
         x="0"
         y="0"
         width="744.09448"
         height="1052.3622"
         xlink:href="#rect2497" />
      <use
         transform="translate(400,200)"
         id="use3169"
         x="0"
         y="0"
         width="744.09448"
         height="1052.3622"
         xlink:href="#rect2497" />
      <use
         transform="translate(400,400)"
         id="use3173"
         x="0"
         y="0"
         width="744.09448"
         height="1052.3622"
         xlink:href="#rect2497" />
      <use
         transform="translate(400,600)"
         id="use3177"
         x="0"
         y="0"
         width="744.09448"
         height="1052.3622"
         xlink:href="#rect2497" />
      <use
         transform="translate(500,100)"
         id="use3183"
         x="0"
         y="0"
         width="744.09448"
         height="1052.3622"
         xlink:href="#rect2497" />
      <use
         transform="translate(500,300)"
         id="use3187"
         x="0"
         y="0"
         width="744.09448"
         height="1052.3622"
         xlink:href="#rect2497" />
      <use
         transform="translate(500,500)"
         id="use3191"
         x="0"
         y="0"
         width="744.09448"
         height="1052.3622"
         xlink:href="#rect2497" />
      <use
         transform="translate(500,700)"
         id="use3195"
         x="0"
         y="0"
         width="744.09448"
         height="1052.3622"
         xlink:href="#rect2497" />
      <use
         transform="translate(600,0)"
         id="use3197"
         x="0"
         y="0"
         width="744.09448"
         height="1052.3622"
         xlink:href="#rect2497" />
      <use
         transform="translate(600,200)"
         id="use3201"
         x="0"
         y="0"
         width="744.09448"
         height="1052.3622"
         xlink:href="#rect2497" />
      <use
         transform="translate(600,400)"
         id="use3205"
         x="0"
         y="0"
         width="744.09448"
         height="1052.3622"
         xlink:href="#rect2497" />
      <use
         transform="translate(600,600)"
         id="use3209"
         x="0"
         y="0"
         width="744.09448"
         height="1052.3622"
         xlink:href="#rect2497" />
      <g
         id="g3430">
        <path
           d="M 1056.7567,495.0434 L 1034.1317,553.9184 L 1042.413,553.9184 L 1048.8817,536.07465 L 1073.5067,536.07465 L 1080.3505,553.9184 L 1089.2255,553.9184 L 1065.1317,495.0434 L 1056.7567,495.0434 z M 1060.7567,501.2309 C 1061.6669,504.41671 1063.0702,508.46577 1064.9442,513.4184 L 1071.1005,529.7309 L 1051.1317,529.7309 L 1057.6005,512.44965 C 1058.9658,508.72851 1060.0071,505.00567 1060.7567,501.2309 z"
           id="path3354"
           style="font-size:82.2408371px;font-style:normal;font-variant:normal;font-weight:normal;font-stretch:normal;fill:#000000;fill-opacity:1;stroke:none;stroke-width:1px;stroke-linecap:butt;stroke-linejoin:miter;stroke-opacity:1;font-family:Arial;-inkscape-font-specification:Arial" />
        <path
           d="M 1139.4598,495.0434 L 1139.4598,553.9184 L 1161.8973,553.9184 C 1165.6452,553.9184 1168.796,553.59213 1171.366,552.94965 C 1173.9628,552.28037 1176.1214,551.29716 1177.8348,550.01215 C 1179.5481,548.72714 1180.9961,546.89925 1182.1473,544.5434 C 1183.3252,542.16078 1183.8972,539.58209 1183.8973,536.82465 C 1183.8972,533.39797 1182.9498,530.43492 1181.0223,527.9184 C 1179.1215,525.40195 1176.3953,523.61875 1172.8348,522.57465 C 1175.5922,521.20936 1177.6569,519.42167 1179.0223,517.19965 C 1180.3876,514.97769 1181.0535,512.62241 1181.0535,510.1059 C 1181.0535,507.40207 1180.2937,504.81888 1178.741,502.3559 C 1177.215,499.86624 1175.0654,498.03388 1172.3348,496.8559 C 1169.6309,495.65126 1166.051,495.04348 1161.5535,495.0434 L 1139.4598,495.0434 z M 1147.241,501.9809 L 1159.0223,501.9809 C 1163.2521,501.98095 1166.2196,502.26251 1167.9598,502.82465 C 1169.6999,503.36012 1171.054,504.38804 1171.991,505.88715 C 1172.928,507.35961 1173.3972,509.05791 1173.3973,511.01215 C 1173.3972,513.07356 1172.8833,514.80309 1171.866,516.1684 C 1170.8755,517.53376 1169.3783,518.48574 1167.3973,519.07465 C 1165.8981,519.52979 1163.4132,519.76218 1159.9598,519.76215 L 1147.241,519.76215 L 1147.241,501.9809 z M 1147.241,526.7309 L 1160.866,526.7309 C 1164.614,526.73093 1167.4787,527.06162 1169.4598,527.7309 C 1171.4676,528.37343 1173.0229,529.50416 1174.1473,531.13715 C 1175.2716,532.74344 1175.8347,534.62944 1175.8348,536.82465 C 1175.8347,538.69864 1175.4549,540.37901 1174.6785,541.82465 C 1173.9021,543.24353 1172.9144,544.32506 1171.7098,545.07465 C 1170.505,545.82425 1169.0034,546.34715 1167.2098,546.6684 C 1166.1925,546.8558 1164.4137,546.94968 1161.8973,546.94965 L 1147.241,546.94965 L 1147.241,526.7309 z"
           id="path3350"
           style="font-size:82.2408371px;font-style:normal;font-variant:normal;font-weight:normal;font-stretch:normal;fill:#000000;fill-opacity:1;stroke:none;stroke-width:1px;stroke-linecap:butt;stroke-linejoin:miter;stroke-opacity:1;font-family:Arial;-inkscape-font-specification:Arial" />
        <path
           d="M 1279.9097,533.27521 L 1287.7001,535.24288 C 1286.067,541.64119 1283.1222,546.52691 1278.8657,549.90006 C 1274.6358,553.24645 1269.4556,554.91964 1263.325,554.91965 C 1256.9803,554.91964 1251.8134,553.63463 1247.8246,551.06461 C 1243.8624,548.46781 1240.8373,544.71986 1238.7492,539.82074 C 1236.6878,534.92165 1235.6571,529.66113 1235.6571,524.03917 C 1235.6571,517.90863 1236.8216,512.5678 1239.1507,508.01667 C 1241.5066,503.43886 1244.8396,499.972 1249.1497,497.61609 C 1253.4866,495.23352 1258.2519,494.04221 1263.4455,494.04215 C 1269.3351,494.04221 1274.2878,495.54139 1278.3035,498.5397 C 1282.3191,501.53811 1285.1167,505.75456 1286.6962,511.18904 L 1279.0263,512.99609 C 1277.6609,508.71276 1275.6798,505.59393 1273.0831,503.63959 C 1270.4863,501.68535 1267.2202,500.70821 1263.2849,500.70816 C 1258.7605,500.70821 1254.9724,501.79244 1251.9205,503.96085 C 1248.8954,506.12935 1246.7671,509.0474 1245.5356,512.715 C 1244.3041,516.3559 1243.6884,520.11724 1243.6884,523.99902 C 1243.6884,529.00524 1244.4112,533.38231 1245.8569,537.13025 C 1247.3293,540.85144 1249.6048,543.63563 1252.6835,545.48283 C 1255.7622,547.33004 1259.0952,548.25365 1262.6825,548.25364 C 1267.0462,548.25365 1270.7406,546.9954 1273.7658,544.47891 C 1276.7908,541.96244 1278.8388,538.22788 1279.9097,533.27521"
           id="path3344"
           style="font-size:82.2408371px;font-style:normal;font-variant:normal;font-weight:normal;font-stretch:normal;fill:#000000;fill-opacity:1;stroke:none;stroke-width:1px;stroke-linecap:butt;stroke-linejoin:miter;stroke-opacity:1;font-family:Arial;-inkscape-font-specification:Arial" />
        <path
           d="M 1337.3505,495.0434 L 1337.3505,553.9184 L 1358.6005,553.9184 C 1362.161,553.9184 1365.3073,553.5564 1368.038,552.88715 C 1370.7954,552.21788 1373.1104,551.26591 1375.038,549.9809 C 1376.9922,548.66912 1378.8111,546.88591 1380.4442,544.63715 C 1382.0772,542.36162 1383.4001,539.49691 1384.4442,536.0434 C 1385.4882,532.58994 1386.0067,528.60795 1386.0067,524.13715 C 1386.0067,518.89005 1385.2469,514.23763 1383.6942,510.1684 C 1382.1682,506.07247 1379.8309,502.72952 1376.7255,500.1059 C 1374.3428,498.07135 1371.4736,496.66355 1368.1005,495.88715 C 1365.691,495.32501 1362.2096,495.04348 1357.6317,495.0434 L 1337.3505,495.0434 z M 1345.1317,501.9809 L 1357.5067,501.9809 C 1362.1381,501.98095 1365.481,502.39659 1367.5692,503.19965 C 1370.4605,504.32408 1372.9364,506.53634 1374.9442,509.8559 C 1376.9788,513.14879 1377.9754,517.8861 1377.9755,524.0434 C 1377.9754,528.48743 1377.457,532.25492 1376.413,535.38715 C 1375.3956,538.49261 1373.9789,540.97746 1372.1317,542.82465 C 1370.8199,544.13644 1369.0412,545.16437 1366.8192,545.88715 C 1364.624,546.60997 1361.576,546.94968 1357.6942,546.94965 L 1345.1317,546.94965 L 1345.1317,501.9809 z"
           id="path3342"
           style="font-size:82.2408371px;font-style:normal;font-variant:normal;font-weight:normal;font-stretch:normal;fill:#000000;fill-opacity:1;stroke:none;stroke-width:1px;stroke-linecap:butt;stroke-linejoin:miter;stroke-opacity:1;font-family:Arial;-inkscape-font-specification:Arial" />
        <path
           d="M 1439.7129,553.91573 L 1439.7129,495.04607 L 1482.279,495.04607 L 1482.279,501.99317 L 1447.5033,501.99317 L 1447.5033,520.02351 L 1480.0704,520.02351 L 1480.0704,526.93045 L 1447.5033,526.93045 L 1447.5033,546.96863 L 1483.6443,546.96863 L 1483.6443,553.91573 L 1439.7129,553.91573"
           id="path3338"
           style="font-size:82.2408371px;font-style:normal;font-variant:normal;font-weight:normal;font-stretch:normal;fill:#000000;fill-opacity:1;stroke:none;stroke-width:1px;stroke-linecap:butt;stroke-linejoin:miter;stroke-opacity:1;font-family:Arial;-inkscape-font-specification:Arial" />
        <path
           d="M 1541.8211,553.91573 L 1541.8211,495.04607 L 1581.536,495.04607 L 1581.536,501.99317 L 1549.6115,501.99317 L 1549.6115,520.22429 L 1577.2393,520.22429 L 1577.2393,527.17139 L 1549.6115,527.17139 L 1549.6115,553.91573 L 1541.8211,553.91573"
           id="path3336"
           style="font-size:82.2408371px;font-style:normal;font-variant:normal;font-weight:normal;font-stretch:normal;fill:#000000;fill-opacity:1;stroke:none;stroke-width:1px;stroke-linecap:butt;stroke-linejoin:miter;stroke-opacity:1;font-family:Arial;-inkscape-font-specification:Arial" />
        <path
           d="M 1663.9675,530.82565 L 1663.9675,523.9187 L 1688.9048,523.87855 L 1688.9048,545.72377 C 1685.0765,548.77568 1681.1278,551.07799 1677.0586,552.63072 C 1672.9894,554.15667 1668.8131,554.91964 1664.5297,554.91965 C 1658.7471,554.91964 1653.4866,553.68817 1648.7482,551.22523 C 1644.0364,548.73552 1640.4759,545.1482 1638.0665,540.46325 C 1635.6571,535.77832 1634.4524,530.54458 1634.4524,524.76199 C 1634.4524,519.03301 1635.6437,513.69218 1638.0263,508.73949 C 1640.4357,503.76011 1643.8892,500.0657 1648.3868,497.65625 C 1652.8843,495.24691 1658.0645,494.04221 1663.9274,494.04215 C 1668.184,494.04221 1672.0256,494.73826 1675.4523,496.1303 C 1678.9058,497.49568 1681.6097,499.40981 1683.564,501.8727 C 1685.5182,504.33569 1687.004,507.54822 1688.0214,511.5103 L 1680.994,513.43782 C 1680.1105,510.4395 1679.0129,508.08364 1677.7011,506.37024 C 1676.3893,504.65694 1674.5153,503.29162 1672.0792,502.27427 C 1669.643,501.23025 1666.9391,500.70821 1663.9675,500.70816 C 1660.407,500.70821 1657.3283,501.25702 1654.7315,502.35458 C 1652.1347,503.42547 1650.0332,504.84434 1648.4269,506.61118 C 1646.8474,508.37812 1645.6159,510.31903 1644.7325,512.4339 C 1643.2333,516.07481 1642.4837,520.02354 1642.4837,524.28011 C 1642.4837,529.52728 1643.3805,533.91773 1645.1742,537.4515 C 1646.9946,540.9853 1649.6316,543.60886 1653.0851,545.3222 C 1656.5385,547.03556 1660.2062,547.89224 1664.088,547.89223 C 1667.4611,547.89224 1670.754,547.24973 1673.9666,545.96471 C 1677.179,544.65294 1679.6152,543.26084 1681.2751,541.78842 L 1681.2751,530.82565 L 1663.9675,530.82565"
           id="path3334"
           style="font-size:82.2408371px;font-style:normal;font-variant:normal;font-weight:normal;font-stretch:normal;fill:#000000;fill-opacity:1;stroke:none;stroke-width:1px;stroke-linecap:butt;stroke-linejoin:miter;stroke-opacity:1;font-family:Arial;-inkscape-font-specification:Arial" />
        <path
           d="M 1738.5886,553.91573 L 1738.5886,495.04607 L 1746.379,495.04607 L 1746.379,519.22038 L 1776.9784,519.22038 L 1776.9784,495.04607 L 1784.7688,495.04607 L 1784.7688,553.91573 L 1776.9784,553.91573 L 1776.9784,526.16748 L 1746.379,526.16748 L 1746.379,553.91573 L 1738.5886,553.91573"
           id="path3332"
           style="font-size:82.2408371px;font-style:normal;font-variant:normal;font-weight:normal;font-stretch:normal;fill:#000000;fill-opacity:1;stroke:none;stroke-width:1px;stroke-linecap:butt;stroke-linejoin:miter;stroke-opacity:1;font-family:Arial;-inkscape-font-specification:Arial" />
      </g>
      <path
         d="M 972.52085,454.0362 L 965.29265,454.0362 L 965.29265,407.97651 C 963.55245,409.63636 961.26355,411.29617 958.42585,412.95593 C 955.61485,414.61578 953.08505,415.86064 950.83625,416.6905 L 950.83625,409.70324 C 954.87865,407.80254 958.41245,405.50023 961.43765,402.7963 C 964.46275,400.09247 966.60445,397.46891 967.86265,394.92559 L 972.52085,394.92559 L 972.52085,454.0362"
         id="path3328"
         style="font-size:82.2408371px;font-style:normal;font-variant:normal;font-weight:normal;font-stretch:normal;fill:#000000;fill-opacity:1;stroke:none;stroke-width:1px;stroke-linecap:butt;stroke-linejoin:miter;stroke-opacity:1;font-family:Arial;-inkscape-font-specification:Arial" />
      <path
         d="M 981.13766,347.08908 L 981.13766,354.03619 L 942.22586,354.03619 C 942.17231,352.29607 942.45341,350.62287 943.06915,349.0166 C 944.05967,346.36627 945.63917,343.75609 947.80763,341.18605 C 950.00285,338.61604 953.16184,335.64445 957.2846,332.27128 C 963.68288,327.02417 968.0064,322.87465 970.25521,319.82271 C 972.50395,316.74407 973.62833,313.83941 973.62836,311.10872 C 973.62833,308.24425 972.59764,305.83486 970.5363,303.88052 C 968.50167,301.89951 965.83795,300.90898 962.54513,300.90893 C 959.06486,300.90898 956.28067,301.95305 954.19254,304.04115 C 952.10438,306.12934 951.04693,309.02062 951.02017,312.71498 L 943.59118,311.95201 C 944.09983,306.41044 946.01396,302.19399 949.33359,299.30266 C 952.65319,296.38467 957.11058,294.92564 962.70575,294.92558 C 968.35443,294.92564 972.8252,296.49175 976.11808,299.62391 C 979.41088,302.75618 981.05731,306.63799 981.05735,311.26934 C 981.05731,313.62524 980.57543,315.94094 979.61171,318.21645 C 978.64791,320.49202 977.04164,322.88803 974.79291,325.40449 C 972.57087,327.921 968.86308,331.37447 963.66951,335.76491 C 959.33257,339.40579 956.54838,341.88212 955.31693,343.19389 C 954.08544,344.47891 953.06814,345.77731 952.26502,347.08908 L 981.13766,347.08908"
         id="path3326"
         style="font-size:82.2408371px;font-style:normal;font-variant:normal;font-weight:normal;font-stretch:normal;fill:#000000;fill-opacity:1;stroke:none;stroke-width:1px;stroke-linecap:butt;stroke-linejoin:miter;stroke-opacity:1;font-family:Arial;-inkscape-font-specification:Arial" />
      <path
         d="M 942.40336,237.97351 L 949.63156,237.00975 C 950.46145,241.10574 951.86693,244.06394 953.84801,245.88437 C 955.85582,247.67804 958.29199,248.57487 961.15652,248.57487 C 964.55642,248.57487 967.42093,247.39694 969.75004,245.04108 C 972.10587,242.68523 973.28379,239.76719 973.28383,236.28693 C 973.28379,232.96733 972.19957,230.23668 970.03114,228.09497 C 967.86265,225.92654 965.10523,224.84231 961.75887,224.84228 C 960.39352,224.84231 958.69356,225.11002 956.65897,225.64541 L 957.46211,219.30066 C 957.94397,219.35424 958.33215,219.38101 958.62665,219.38098 C 961.7053,219.38101 964.47611,218.57788 966.93908,216.97158 C 969.40199,215.36535 970.63346,212.88902 970.63349,209.54259 C 970.63346,206.8923 969.73663,204.69707 967.94299,202.9569 C 966.1493,201.21683 963.8336,200.34677 960.99589,200.34672 C 958.18491,200.34677 955.84244,201.23022 953.96848,202.99706 C 952.09449,204.764 950.88979,207.41434 950.35438,210.94808 L 943.12618,209.66306 C 944.00962,204.81754 946.01745,201.06959 949.14968,198.4192 C 952.28188,195.74215 956.17708,194.40359 960.83527,194.40353 C 964.04777,194.40359 967.00598,195.09964 969.70989,196.49168 C 972.41373,197.85706 974.47511,199.73104 975.89401,202.11361 C 977.33961,204.49629 978.06243,207.02616 978.06247,209.70322 C 978.06243,212.24652 977.37977,214.56222 976.01448,216.65032 C 974.64912,218.7385 972.6279,220.39831 969.95083,221.62975 C 973.43104,222.43291 976.13491,224.1061 978.06247,226.64933 C 979.98995,229.16584 980.95371,232.32483 980.95375,236.1263 C 980.95371,241.26637 979.07973,245.63005 975.33182,249.21737 C 971.58383,252.77793 966.84535,254.55821 961.11635,254.55821 C 955.94952,254.55821 951.65276,253.01887 948.22607,249.94019 C 944.82614,246.86152 942.88523,242.87263 942.40336,237.97351"
         id="path3324"
         style="font-size:82.2408371px;font-style:normal;font-variant:normal;font-weight:normal;font-stretch:normal;fill:#000000;fill-opacity:1;stroke:none;stroke-width:1px;stroke-linecap:butt;stroke-linejoin:miter;stroke-opacity:1;font-family:Arial;-inkscape-font-specification:Arial" />
      <path
         d="M 968.19417,95.043386 L 941.31917,133.19964 L 941.31917,139.82464 L 966.88167,139.82464 L 966.88167,153.91839 L 974.10043,153.91839 L 974.10043,139.82464 L 982.03793,139.82464 L 982.03793,133.19964 L 974.10043,133.19964 L 974.10043,95.043386 L 968.19417,95.043386 z M 966.88167,106.66839 L 966.88167,133.19964 L 948.44417,133.19964 L 966.88167,106.66839 z"
         id="path3322"
         style="font-size:82.2408371px;font-style:normal;font-variant:normal;font-weight:normal;font-stretch:normal;fill:#000000;fill-opacity:1;stroke:none;stroke-width:1px;stroke-linecap:butt;stroke-linejoin:miter;stroke-opacity:1;font-family:Arial;-inkscape-font-specification:Arial" />
      <path
         d="M 942.16241,37.592046 L 949.75202,36.949536 C 950.3142,40.643966 951.6126,43.428156 953.64722,45.302126 C 955.70858,47.149336 958.1849,48.072936 961.0762,48.072936 C 964.55642,48.072936 967.50124,46.761156 969.91067,44.137576 C 972.32003,41.514026 973.52473,38.033786 973.52476,33.696846 C 973.52473,29.574126 972.36019,26.321436 970.03114,23.938776 C 967.72879,21.556186 964.70366,20.364866 960.95573,20.364836 C 958.62662,20.364866 956.52509,20.900296 954.65114,21.971106 C 952.77714,23.015206 951.30473,24.380536 950.2339,26.067086 L 943.44743,25.183636 L 949.14967,-5.0543241 L 978.42388,-5.0543241 L 978.42388,1.8526159 L 954.93223,1.8526159 L 951.75986,17.674346 C 955.29363,15.211436 959.00142,13.979966 962.88325,13.979926 C 968.02327,13.979966 972.36019,15.760246 975.89401,19.320766 C 979.42775,22.881356 981.19464,27.459206 981.19469,33.054346 C 981.19464,38.381806 979.64192,42.986436 976.53651,46.868236 C 972.76175,51.633486 967.60832,54.016116 961.0762,54.016116 C 955.72196,54.016116 951.34489,52.516936 947.94497,49.518576 C 944.57181,46.520216 942.64429,42.544706 942.16241,37.592046"
         id="path3318"
         style="font-size:82.2408371px;font-style:normal;font-variant:normal;font-weight:normal;font-stretch:normal;fill:#000000;fill-opacity:1;stroke:none;stroke-width:1px;stroke-linecap:butt;stroke-linejoin:miter;stroke-opacity:1;font-family:Arial;-inkscape-font-specification:Arial" />
      <path
         d="M 963.36605,-105.56601 C 957.15513,-105.56595 952.18993,-103.31352 948.5223,-98.816006 C 944.31923,-93.649136 942.24104,-85.381156 942.24105,-74.003506 C 942.24104,-63.830476 944.12705,-56.541226 947.92855,-52.097256 C 951.73004,-47.680016 956.65503,-45.472246 962.67855,-45.472256 C 966.2123,-45.472256 969.36307,-46.316936 972.1473,-48.003506 C 974.93146,-49.690076 977.09902,-52.094506 978.67855,-55.253506 C 980.28478,-58.439256 981.11601,-61.871586 981.11605,-65.566006 C 981.11601,-71.187916 979.39094,-75.782186 975.99105,-79.316006 C 972.61785,-82.876526 968.52857,-84.659726 963.7098,-84.659756 C 960.95235,-84.659716 958.32001,-84.007206 955.80355,-82.722256 C 953.28705,-81.437206 951.16866,-79.466286 949.42855,-76.816006 C 949.48208,-82.705616 950.148,-87.255176 951.4598,-90.441006 C 952.77157,-93.626716 954.55924,-96.031166 956.8348,-97.691006 C 958.5749,-98.975966 960.59496,-99.628446 962.8973,-99.628506 C 965.76178,-99.628456 968.19298,-98.596046 970.1473,-96.534756 C 971.3252,-95.249696 972.22351,-93.184926 972.86605,-90.347256 L 980.05355,-90.909756 C 979.46454,-95.487566 977.68136,-99.094166 974.7098,-101.69101 C 971.76495,-104.28775 967.99742,-105.56595 963.36605,-105.56601 z M 962.2723,-78.284756 C 965.56512,-78.284726 968.29131,-77.078106 970.4598,-74.722256 C 972.62822,-72.393146 973.70976,-69.197686 973.7098,-65.128506 C 973.70976,-60.898656 972.62375,-57.560196 970.42855,-55.097256 C 968.23329,-52.634306 965.60542,-51.409746 962.55355,-51.409756 C 960.46538,-51.409756 958.45428,-51.981796 956.55355,-53.159756 C 954.65279,-54.364446 953.18688,-56.102966 952.11605,-58.378506 C 951.07197,-60.654036 950.55354,-63.045036 950.55355,-65.534756 C 950.55354,-69.336226 951.68424,-72.393166 953.9598,-74.722256 C 956.23533,-77.078086 959.0062,-78.284716 962.2723,-78.284756 z"
         id="path3316"
         style="font-size:82.2408371px;font-style:normal;font-variant:normal;font-weight:normal;font-stretch:normal;fill:#000000;fill-opacity:1;stroke:none;stroke-width:1px;stroke-linecap:butt;stroke-linejoin:miter;stroke-opacity:1;font-family:Arial;-inkscape-font-specification:Arial" />
      <path
         d="M 942.62424,-197.62536 L 942.62424,-204.57246 L 980.73286,-204.57246 L 980.73286,-198.95053 C 976.98496,-194.96158 973.26376,-189.66091 969.56936,-183.04849 C 965.90166,-176.436 963.06395,-169.63614 961.05615,-162.64891 C 959.61048,-157.72301 958.68688,-152.32864 958.28534,-146.46577 L 950.85635,-146.46577 C 950.93666,-151.09717 951.84687,-156.69233 953.58701,-163.25126 C 955.32711,-169.81016 957.81682,-176.12813 961.05615,-182.2052 C 964.32219,-188.30897 967.78906,-193.44902 971.45676,-197.62536 L 942.62424,-197.62536"
         id="path3312"
         style="font-size:82.2408371px;font-style:normal;font-variant:normal;font-weight:normal;font-stretch:normal;fill:#000000;fill-opacity:1;stroke:none;stroke-width:1px;stroke-linecap:butt;stroke-linejoin:miter;stroke-opacity:1;font-family:Arial;-inkscape-font-specification:Arial" />
      <path
         d="M 961.5536,-305.56598 C 956.4403,-305.56592 952.351,-304.10897 949.2723,-301.19098 C 946.1937,-298.27288 944.6473,-294.69304 944.6473,-290.40973 C 944.6473,-287.57195 945.3579,-285.1318 946.8036,-283.09723 C 948.2492,-281.06259 950.4927,-279.47604 953.4911,-278.37848 C 949.9037,-277.44146 947.1328,-275.69402 945.1786,-273.09723 C 943.251,-270.52718 942.2723,-267.33172 942.2723,-263.50348 C 942.2723,-258.36341 944.0556,-254.05072 947.6161,-250.59723 C 951.1767,-247.17053 955.8693,-245.47222 961.6786,-245.47223 C 967.4879,-245.47223 972.1805,-247.17055 975.7411,-250.59723 C 979.3016,-254.02392 981.0848,-258.25177 981.0848,-263.28473 C 981.0848,-266.92558 980.1105,-270.06739 978.2098,-272.69098 C 976.3358,-275.31452 973.6051,-277.2005 969.9911,-278.37848 C 972.9091,-279.47606 975.0721,-281.02687 976.4911,-283.03473 C 977.9367,-285.0693 978.6473,-287.46029 978.6473,-290.19098 C 978.6473,-294.47431 977.092,-298.09435 973.9598,-301.06598 C 970.8275,-304.06429 966.6936,-305.56592 961.5536,-305.56598 z M 961.6473,-299.62848 C 964.3779,-299.62843 966.6394,-298.7301 968.4598,-296.90973 C 970.307,-295.11602 971.2411,-292.87253 971.2411,-290.22223 C 971.2411,-287.67894 970.3473,-285.55157 968.5536,-283.78473 C 966.7867,-282.04457 964.494,-281.15967 961.7098,-281.15973 C 958.8453,-281.15969 956.5348,-282.04904 954.7411,-283.81598 C 952.9475,-285.58283 952.0223,-287.84426 952.0223,-290.62848 C 952.0223,-293.09137 952.9519,-295.20527 954.7723,-296.97223 C 956.5927,-298.73907 958.8898,-299.62842 961.6473,-299.62848 z M 961.5223,-275.25348 C 965.0025,-275.25345 967.8762,-274.12272 970.1786,-271.84723 C 972.5076,-269.57167 973.6786,-266.70248 973.6786,-263.22223 C 973.6786,-259.79552 972.5524,-256.97546 970.3036,-254.75348 C 968.0548,-252.53147 965.1945,-251.40972 961.7411,-251.40973 C 959.519,-251.40973 957.4498,-251.92815 955.5223,-252.97223 C 953.5947,-254.04307 952.1378,-255.54469 951.1473,-257.47223 C 950.1835,-259.39974 949.7098,-261.37958 949.7098,-263.44098 C 949.7098,-266.81412 950.8316,-269.62965 953.0536,-271.87848 C 955.3023,-274.12723 958.1224,-275.25347 961.5223,-275.25348 z"
         id="path3310"
         style="font-size:82.2408371px;font-style:normal;font-variant:normal;font-weight:normal;font-stretch:normal;fill:#000000;fill-opacity:1;stroke:none;stroke-width:1px;stroke-linecap:butt;stroke-linejoin:miter;stroke-opacity:1;font-family:Arial;-inkscape-font-specification:Arial" />
    </g>
  </g>
</svg>
