<?xml version="1.0" standalone="no"?>
<!DOCTYPE svg PUBLIC "-//W3C//DTD SVG 1.1//EN" "http://www.w3.org/Graphics/SVG/1.1/DTD/svg11.dtd" >
<svg xmlns="http://www.w3.org/2000/svg">
<metadata>
This is a custom SVG webfont generated by Font Squirrel.
Copyright   : Copyright c ShyFonts Type Foundry 2000 All rights reserved
Designer    : ShyFonts Type Foundry
Foundry URL : httpwwwshyfontscom
</metadata>
<defs>
<font id="webfontWlO5tcFg" horiz-adv-x="1327" >
<font-face units-per-em="2048" ascent="1638" descent="-410" />
<missing-glyph horiz-adv-x="569" />
<glyph unicode=" "  horiz-adv-x="569" />
<glyph unicode="&#x09;" horiz-adv-x="569" />
<glyph unicode="&#xa0;" horiz-adv-x="569" />
<glyph unicode="!" horiz-adv-x="503" d="M92 59l1 -1q7 12 26 71q2 4 4 15.5t6 25.5q14 39 51 72q35 33 74 32q63 0 45 -84q-16 -70 -53 -122q-51 -70 -107 -70q-61 0 -47 61zM238 528q14 66 75 213q49 123 156 369q18 49 90 188q53 78 119 78q57 0 41 -78q-23 -98 -88 -235q-104 -215 -109 -229 q-31 -96 -100 -259q-61 -109 -146 -108q-50 0 -38 61z" />
<glyph unicode="&#x22;" horiz-adv-x="946" d="M426 893q0 6 5 27.5l15.5 68.5t18.5 90q6 23 12 72q6 43 12 70q12 53 54 94q45 45 92 45q72 0 41 -143l-25 -101q-20 -86 -22 -102q-14 -63 -19 -72q-14 -39 -57 -76q-39 -33 -86 -32q-43 0 -41 59zM739 971q43 197 80 289q45 117 139 116q76 0 58 -90q-35 -170 -94 -301 q-53 -117 -134 -117q-72 1 -49 103z" />
<glyph unicode="#" horiz-adv-x="1605" d="M270 426q23 102 123 141q33 10 189 35l88 356l-160 -28q-88 -16 -162 -17q-57 0 -41 66q23 96 119 129q57 20 145 31q98 8 148 14q41 164 149 164q63 0 45 -86q-4 -25 -14 -53q305 43 401 53q43 178 150 178q61 0 45 -76q0 -2 -3 -12t-8 -30.5t-11 -41.5q141 16 186 17 q61 0 45 -66q-18 -90 -115 -119q-4 -2 -166 -18l-84 -365l115 19q78 10 117 10q55 0 41 -63q-20 -94 -129 -132q-34 -12 -185 -30l-28 -135q-6 -29 -19 -68q-16 -39 -55 -72q-35 -29 -80 -28q-40 0 -37 55q0 12 45 225l-417 -49l-45 -180q-47 -115 -134 -115q-61 0 -43 80 l5 19l17.5 67.5t24.5 104.5l-112 -23q-72 -16 -113 -16q-49 0 -37 59zM762 631q102 14 403 47l84 362l-401 -55z" />
<glyph unicode="$" horiz-adv-x="1409" d="M129 -244q16 78 86 217l113 217q-10 18 -6 41q12 61 67 101l133 293q-236 98 -192 290q27 139 188 254q137 94 299 129l127 289q33 78 117 78q59 0 47 -55q-10 -51 -51 -146l-66 -141q76 6 146 2q23 66 100 238q58 111 129 110q29 0 41 -22t6 -49q-12 -66 -49 -152 l-66 -147q147 -33 213 -95.5t48 -152.5q-18 -88 -117 -170q-96 -80 -185 -109q-18 -6 -30 -6q-61 0 -45 66q12 55 86 102l121 78q-37 61 -172 92l-179 -418q244 -104 205 -291q-33 -162 -190 -254q-131 -76 -308 -82q-45 -100 -112 -229q-57 -82 -117 -82q-72 0 -55 76 q10 47 51 123q35 61 66 123q-76 14 -123 32l-43.5 -96l-34.5 -78q-49 -106 -90 -168q-53 -78 -111 -77q-61 -1 -47 69zM510 967q-18 -80 106 -133l117 276q-76 -16 -131 -47q-80 -43 -92 -96zM549 313q53 -20 125 -34l119 258q-27 10 -127 38zM760 782q16 -4 127 -39 l170 390q-57 4 -76 4q-14 0 -68 -4zM846 270q141 12 203 62l2 6q18 84 -107 145z" />
<glyph unicode="%" horiz-adv-x="1679" d="M373 10q6 20 33 60q170 229 462 581q270 326 461 580l45.5 59.5l28.5 37.5t15 19.5l9.5 11.5t4.5 7q78 90 127 90q29 0 43 -22.5t8 -55.5q-20 -98 -441 -612l-534 -649l-105 -127q-55 -57 -98 -58q-29 0 -47 24.5t-12 53.5zM408 915q31 151 159 295q139 158 285 158 q125 0 198.5 -106.5t45.5 -235.5q-35 -160 -152 -268q-123 -117 -282 -117q-127 0 -203 72q-80 79 -51 202zM596 991q-14 -66 31 -108q41 -39 112 -39q53 0 104.5 28.5t59.5 79.5q16 72 -37 140q-49 55 -121 79q-126 -69 -149 -180zM864 299q16 78 68 160q53 92 115 137 q47 35 73 35q10 0 15 -2q53 109 196 108q135 0 197 -98q57 -86 28 -225q-37 -170 -178 -297q-143 -127 -309 -127q-123 0 -180 94q-52 88 -25 215zM1049 356q-14 -61 24 -114q39 -51 103 -52q66 0 124 56q57 53 72 121q18 76 -26 122q-41 39 -123 39q-14 0 -29 -2 q-23 -4 -35 0q-14 -33 -59 -77q-39 -40 -51 -93z" />
<glyph unicode="&#x26;" horiz-adv-x="1564" d="M256 303q31 143 156 254q109 100 264 152q-283 143 -240 346q14 63 76 135q154 172 444 172q252 0 521 -92q59 102 125 102q29 0 47 -22q18 -20 12 -52q-8 -39 -98 -180q-86 -135 -127 -176q-61 -63 -109 -63q-70 0 -53 77q10 45 80 131q-248 80 -512 80q-207 0 -226 -88 q-10 -45 54.5 -93t201.5 -99l361 -125q49 -27 39 -74q-10 -45 -51 -88q-43 -43 -88 -43q-12 0 -82 8q-52 6 -80 6q-129 0 -291 -51q-211 -66 -231 -160q-6 -25 16 -57q66 -102 397 -102q113 0 240 14q119 252 219 252q29 0 45 -23q14 -20 8 -53q-2 -18 -35 -69l-118 -203 q-45 -72 -109 -94q-68 -25 -227 -25h-49q-266 0 -396 39q-227 70 -184 264z" />
<glyph unicode="'" horiz-adv-x="622" d="M412 893q0 8 37 186q2 8 6 33t6 39t6 37.5t6 32.5q12 53 53 94q45 45 95 45q70 0 38 -143q-4 -12 -8 -38t-14 -65q-4 -20 -8 -37.5t-6 -25l-4.5 -16.5t-4.5 -21q-14 -63 -18 -72q-14 -43 -57 -76q-41 -33 -86 -32q-47 0 -41 59z" />
<glyph unicode="(" horiz-adv-x="743" d="M229 285q-25 172 11 336q41 190 149 380q123 215 273 328q46 37 79 37q31 0 47 -29q14 -27 7 -59q-6 -33 -52 -82q-127 -131 -188 -225q-72 -117 -102 -260q-34 -166 -7 -289q12 -49 99 -250q14 -35 8 -55q-8 -45 -53 -86t-86 -41q-23 0 -49 20q-105 85 -136 275z" />
<glyph unicode=")" horiz-adv-x="737" d="M229 88q6 33 54 84q133 143 186 223q72 113 102 260q37 164 9 289q-12 55 -97 250q-15 34 -12 55q8 45 53 86t88 41q23 0 50 -20q104 -84 133 -275q25 -170 -11 -333q-40 -194 -147 -381q-113 -195 -275 -328q-47 -39 -77 -39q-33 0 -47.5 26.5t-8.5 61.5z" />
<glyph unicode="*" horiz-adv-x="1103" d="M199 457q4 27 49 71q82 80 188 152l201 133l2 12q-80 46 -215 160q-27 29 -21 64q8 41 49.5 81.5t79.5 40.5q25 0 170 -108q2 12 13.5 62.5l19.5 86.5q39 197 150 197q70 0 51 -84q-18 -88 -94 -367l182 132q139 96 176 96q68 0 51 -72q-12 -57 -127 -141l-168 -113 q66 -57 111 -102q74 -78 61 -127q-10 -43 -47 -78q-43 -39 -80 -39q-14 0 -40 23q-53 57 -185 180q0 -2 -31 -142q-59 -279 -184 -278q-57 0 -35 92l52 203l-168 -129q-131 -96 -162 -96t-43 30q-12 25 -6 60z" />
<glyph unicode="+" horiz-adv-x="919" d="M215 690q10 47 51 92q43 47 86 47q12 0 90 -4q39 -2 86 -2l4 21q6 31 13 78q4 33 14 79q8 43 59 89q49 43 93 43q66 0 28 -172l-32 -138q61 0 124 2q102 4 125 4q51 0 74 -17t14 -50q-23 -102 -122 -127q-57 -14 -230 -14q-40 0 -61 -68q-25 -78 -35 -98 q-49 -102 -131 -103q-57 0 -41 72q8 39 53 197q-66 -2 -221 10q-49 12 -41 59z" />
<glyph unicode="," horiz-adv-x="520" d="M125 -86q25 117 117 264q59 96 133 96t55 -84q-9 -37 -55 -129q-47 -92 -76 -135q-61 -88 -123 -88q-65 0 -51 76z" />
<glyph unicode="-" horiz-adv-x="1144" d="M369 690q23 100 129 131q51 14 184 15h348q47 0 66.5 -15.5t11.5 -48.5q-23 -109 -127 -133q-20 -4 -176 -10l-373 -19q-81 0 -63 80z" />
<glyph unicode="." horiz-adv-x="567" d="M211 135q14 59 51 96q43 43 92 43q74 0 56 -86q-41 -188 -156 -188q-70 0 -43 135z" />
<glyph unicode="/" horiz-adv-x="1042" d="M86 -252q10 47 293 531l346 589l213 381q33 78 111 219q53 80 114 80q72 0 56 -78l-13 -30q-139 -326 -397 -764l-442 -750q-27 -55 -91 -162q-61 -86 -131 -86q-73 0 -59 70z" />
<glyph unicode="0" horiz-adv-x="1415" d="M274 510q39 193 160 377q121 186 291 319q-3 12 0 25q31 141 215 141q266 0 395 -219q117 -205 60 -479q-61 -285 -285 -475q-221 -188 -510 -189q-215 0 -297 148q-76 133 -29 352zM467 567q-35 -154 25 -243q61 -98 210 -99q184 0 324 115q137 113 178 299 q43 193 -55 344q-96 147 -289 170q-14 -31 -65 -78q-143 -135 -211 -229q-86 -123 -117 -279z" />
<glyph unicode="1" horiz-adv-x="718" d="M295 113q45 205 151 524q115 348 156 524h-18q-121 0 -193 -14q-29 -4 -45 -4q-25 0 -12 57q18 90 117 133q70 29 297 29q82 0 55 -131q-37 -172 -154 -533q-59 -184 -119 -401q-18 -80 -59 -191q-58 -117 -147 -116q-54 0 -29 123z" />
<glyph unicode="2" horiz-adv-x="1441" d="M322 905q43 207 337 348q250 119 478 119q168 0 247 -84q86 -90 52 -254q-63 -305 -451 -528l-227 -121q-188 -100 -193 -117q-12 -53 205 -53q58 0 172 12q133 14 172 15q172 0 154 -90q-10 -45 -51 -86t-87 -41q-20 0 -34.5 2t-32.5 2q-78 0 -207 -14.5t-207 -14.5 q-323 0 -276 215q31 154 243 281l390 204q213 129 247 291q18 90 -29.5 135t-164.5 45q-129 0 -291 -55q-180 -61 -266 -149q-6 -6 -10 -23q-6 -29 38 -65q45 -35 35 -78q-8 -39 -47 -80q-37 -39 -76 -39q-14 0 -28 8q-120 86 -92 215z" />
<glyph unicode="3" horiz-adv-x="1476" d="M285 88q10 49 53 90q41 39 92 39q72 0 162 -10q109 -12 162 -12q100 0 223 22q158 31 197 94q16 141 -166 213q-129 51 -312 51q-29 0 -84 -6q-37 -4 -86 -4q-59 0 -47 60q23 96 123 141q25 12 141 39q154 33 314 90q240 86 256 164q12 63 -86 96q-76 27 -154 27 q-279 0 -586 -99q-25 -8 -34 -8q-59 0 -43 76q14 63 94 109q94 53 311 83q195 29 324 29q209 0 299 -70.5t59 -214.5q-43 -207 -399 -358q127 -45 200 -131q90 -104 64 -231q-43 -203 -287 -304q-178 -74 -416 -73q-248 0 -333 35q-49 20 -41 63z" />
<glyph unicode="4" horiz-adv-x="1269" d="M219 651q23 106 96 234l134 223q20 47 79 162q53 102 123 102q61 0 43 -78q-23 -106 -143.5 -294.5t-142.5 -294.5q-31 -139 208 -140q84 0 381 45l45 215q59 268 166 269q29 0 29 -45q0 -55 -29 -203q-12 -59 -24 -111q-10 -43 -16.5 -68.5t-8.5 -37.5q29 2 82 2 q39 0 55.5 -15.5t10.5 -44.5q-8 -41 -45 -82q-35 -37 -78 -49q-16 -4 -70 -8q-8 -43 -27 -129q-10 -49 -16 -81t-10 -48q-43 -207 -156 -207q-47 0 -35 53q23 96 41 197l41 197q-307 -49 -428 -49q-160 0 -237 63q-99 73 -68 223z" />
<glyph unicode="5" horiz-adv-x="1474" d="M223 231q10 43 49 82t78 39q8 0 101 -67q106 -80 254 -80q162 0 315 88q178 98 209 250q20 104 -49 162q-61 49 -172 49q-172 0 -394 -107q-178 -86 -200 -86q-76 0 -58 80q43 201 232 526q-8 20 -2 50q22 104 129 135q27 8 180 14q14 0 48 2t93.5 4l118.5 4 q178 10 260 10q101 0 86 -67q-20 -106 -127 -137q-37 -10 -168 -11q-76 0 -446 -24l-135 -291q272 125 471 125q182 0 278 -98q100 -104 64 -287q-51 -242 -322 -426q-252 -172 -504 -172q-115 0 -223 45q-125 55 -160 139q-10 22 -6 49z" />
<glyph unicode="6" horiz-adv-x="1372" d="M283 467q47 219 192 471q160 283 334 408q43 31 68 30q66 0 49 -78q-6 -29 -45 -73l-146 -168q-76 -94 -125 -178q236 109 506 108q236 0 299 -131q43 -88 17 -211q-51 -242 -340 -448q-276 -197 -525 -197q-199 0 -268 137q-61 119 -16 330zM467 526q-68 -326 182 -325 q188 0 387 145q186 139 213 268q18 88 -57 136q-61 37 -158 36q-266 0 -530 -147q-31 -80 -37 -113z" />
<glyph unicode="7" horiz-adv-x="1265" d="M369 1249q8 41 49 82q37 37 84 37q70 0 121 -2q25 0 53.5 -1t43.5 -2t23 -1h203q414 0 481 -33l5 -2q43 -23 34 -67q-12 -63 -233 -340l-293 -355q-160 -201 -233 -323q-18 -35 -91 -150q-61 -82 -120 -82q-70 0 -56 68q0 4 3 10t8.5 15.5t7.5 15.5q133 256 344 530 q150 205 403 498q-256 31 -616 31q-127 0 -182 18q-45 14 -39 53z" />
<glyph unicode="8" horiz-adv-x="1423" d="M254 336q43 197 240 332q-129 71 -99 221q33 164 230 297v4q14 74 98 119q111 59 317 59q180 0 287 -94q119 -104 82 -279q-37 -172 -203 -286q158 -121 121 -303q-43 -199 -266 -324q-166 -92 -397 -92q-190 0 -308 76q-139 90 -102 270zM440 387q-20 -100 103 -162 q100 -47 217 -47q109 0 221 41q145 53 164 146q18 76 -80 157q-92 74 -172 74q-141 0 -260 -41q-168 -55 -193 -168zM567 936q-31 -139 357 -139q88 0 176 37q109 45 125 122q23 102 -86 164q-84 51 -201 51q-23 0 -68 -4q-33 -35 -108 -67q-98 -45 -121 -62 q-62 -41 -74 -102z" />
<glyph unicode="9" horiz-adv-x="1466" d="M332 694q59 279 332 488q268 207 544 207q100 0 187 -43q90 -45 125 -129q8 -20 2 -46q-10 -45 -47 -81q-41 -41 -78 -41q2 0 -2 3l-17.5 13l-27 19.5l-41.5 29.5q-96 68 -183 68q-180 0 -356 -115q-193 -125 -229 -297q-23 -109 16 -180q45 -80 150 -80q119 0 260 86 q55 35 219 160q113 88 157 88q70 0 54 -78q-20 -92 -135 -352q-121 -274 -175 -336q-68 -84 -137 -84q-59 0 -47 59q20 82 88 213l109 213q-261 -197 -461 -196q-174 0 -260 116q-84 115 -47 295z" />
<glyph unicode=":" horiz-adv-x="567" d="M188 82q12 53 64 119q55 70 110 69q70 0 52 -88q-14 -63 -62 -119q-51 -63 -110 -63q-29 0 -45 25q-15 24 -9 57zM285 522q12 57 63 114.5t105 57.5q72 0 53 -80q-12 -57 -64 -110q-53 -55 -106 -55q-65 -1 -51 73z" />
<glyph unicode=";" horiz-adv-x="497" d="M92 -82q4 14 14 39q55 120 87 166q70 106 139 106t53 -73l-41 -80q-68 -131 -78 -146q-61 -90 -125 -90q-67 0 -49 78zM309 575q12 53 53 95q43 43 95 43q39 0 51 -54q12 -41 2 -88q-8 -43 -51 -86q-41 -41 -86 -41t-60 45q-14 37 -4 86z" />
<glyph unicode="&#x3c;" horiz-adv-x="892" d="M197 645q12 59 84 113q218 163 571 276q4 1 9 3q4 1 5 1q27 0 39 -28q10 -25 4 -58q-12 -66 -100 -116q-45 -27 -164 -82q-117 -53 -168 -80q76 -53 221 -189q29 -35 21 -69q-9 -46 -49 -92q-43 -49 -90 -50q-52 0 -191 123q-123 104 -170 170q-30 41 -22 78z" />
<glyph unicode="=" horiz-adv-x="1298" d="M303 457q25 113 135 139q76 20 269 20q109 0 196 -2h199q61 0 88 -6q51 -12 39 -65q-25 -113 -129 -137q-27 -6 -205 -7q-88 0 -264 -12q-145 -10 -264 -10q-82 0 -64 80zM451 872q12 55 61 99q51 45 100 45q57 0 144 -6q114 -9 141 -13q119 0 178 -2q96 -2 168 -26 q51 -18 43 -64q-12 -53 -55 -92q-47 -43 -96 -43q-76 0 -223.5 6t-223.5 6q-123 0 -190 23q-55 18 -47 67z" />
<glyph unicode="&#x3e;" horiz-adv-x="999" d="M365 381q12 55 73 104q70 47 252 183q-55 49 -180 123q-49 27 -96 57q-33 20 -25 57q8 45 55.5 94.5t90.5 49.5q80 0 219 -95q131 -88 176 -153q28 -40 18 -80q-10 -45 -55 -90q-66 -66 -240 -193q-199 -143 -243 -143q-63 0 -45 86z" />
<glyph unicode="?" horiz-adv-x="1234" d="M258 63q12 53 66 113q57 68 108 68q61 0 45 -72q-6 -25 -45 -74q-43 -57 -53 -67q-37 -37 -76 -37q-59 -1 -45 69zM315 561q31 152 254 246q57 25 346 98q244 59 318 121q6 4 10 16q16 76 -67.5 114t-266.5 38q-172 0 -348 -74q-35 -16 -51 -16q-31 0 -43 26 q-14 27 -8 56q12 53 73 96q78 55 256 88q156 29 263 29q175 0 282 -56q141 -74 109 -229q-41 -182 -215 -287q-111 -66 -363 -129q-272 -68 -352 -106q14 -31 8 -64q-8 -41 -45 -84q-39 -45 -82 -45q-45 0 -65 60q-23 55 -13 102z" />
<glyph unicode="@" horiz-adv-x="1781" d="M258 432q45 217 211 471q164 252 387 420q242 184 471 184q264 0 416 -247q141 -233 84 -506q-43 -203 -189 -353q-156 -160 -358 -159q-217 0 -238 139q-125 -86 -213 -86q-92 0 -122 88q-25 76 -5 172q37 178 164 342q150 190 316 190q59 0 139 -45q86 -51 74 -106 q-10 -43 -49 -82q-41 -41 -76 -41q-12 0 -64 41q-53 43 -94 43q-74 0 -145 -111q-53 -88 -72 -176q-20 -100 23 -100q53 0 149 84t139 84q31 0 47 -25q14 -25 9 -57q-2 -10 -13 -33q-6 -14 -10 -31q-8 -45 21.5 -66.5t99.5 -21.5q215 0 270 254q49 223 -59 406 q-113 190 -334 190q-250 0 -500 -282q-221 -256 -276 -518q-90 -416 379 -416q78 0 61 -72q-27 -135 -229 -135q-256 0 -363 156q-106 149 -51 405z" />
<glyph unicode="A" horiz-adv-x="1064" d="M39 53q9 46 264 473l313 525l42 70.5l49 82.5q59 94 106 146q53 59 100.5 59t61.5 -63q18 -86 18 -230v-233q35 -299 62 -727q0 -4 0.5 -10.5t0.5 -9.5q0 -41 -59 -99q-47 -47 -90 -47q-51 0 -67 176q-43 -6 -109 -6h-84q-20 0 -49 1t-35 1h-293q-102 -182 -178 -182 q-56 0 -56 49q0 11 3 24zM358 313h459q-33 279 -39 707z" />
<glyph unicode="B" horiz-adv-x="1232" d="M127 106l70 328q78 365 184 653q-16 -4 -27 -4q-46 0 -46 45q0 13 3 29q16 66 97 113q86 51 309 84q195 29 319 28q384 0 385 -216q0 -30 -8 -64q-47 -219 -457 -412q121 -37 189 -110q63 -70 63 -156q0 -26 -6 -53q-23 -100 -106 -185q-77 -74 -185 -123 q-166 -74 -419 -73q-246 0 -308 43q-60 0 -60 50q0 10 3 23zM319 205q242 -10 263 -10q270 0 387 79q41 25 43 39q3 13 3 26q0 83 -124 134q-104 45 -234 45q-113 0 -266 -29zM440 690q211 55 437 146q332 131 354 229q2 9 2 17q0 56 -86 85q-72 23 -162 23q-195 0 -430 -53 z" />
<glyph unicode="C" horiz-adv-x="1120" d="M162 551q55 260 315 539q281 299 533 299q244 0 243 -355l-2 -4q-10 -47 -51 -88q-43 -43 -86 -43q-29 0 -47 76q-25 104 -41 135q-39 76 -115 76q-151 0 -350 -228q-182 -207 -217 -366q-10 -44 -10 -86q0 -114 74 -203q98 -121 270 -121q102 0 199 58q39 25 129 106 q59 57 90 57q50 0 50 -42q0 -11 -3 -25q-8 -33 -25 -53q-94 -133 -239 -211q-152 -82 -291 -82q-224 0 -350 166q-90 118 -90 270q0 60 14 125z" />
<glyph unicode="D" horiz-adv-x="1325" d="M244 106q29 133 84 324q66 233 86 324l55 262q20 92 53 141l-161 -6h1q-52 0 -51 40q0 9 2 21q23 94 125 125q61 18 180 19h50q330 0 559 -115q246 -122 246 -341q0 -46 -11 -95q-57 -276 -477 -522q-287 -168 -676 -293q-23 -6 -33 -6q-42 0 -41 57q0 26 9 65zM436 201 q270 96 486 217q334 188 366 344q6 27 6 53q0 156 -213 248q-174 76 -419 90l-84 -412q-71 -325 -142 -540z" />
<glyph unicode="E" horiz-adv-x="1071" d="M158 444q29 131 118 351q94 231 125 348q-23 9 -22 37q0 9 2 20q20 100 113 125q41 35 77 35q16 0 29 -14q298 43 627 43q53 0 53 -41q0 -8 -2 -19q-16 -78 -109 -108q-29 -10 -190 -21q-115 -8 -399 -39q-16 -59 -140 -360q168 29 420 28q80 0 80 -56q0 -9 -2 -19 q-18 -84 -119 -113q-35 -8 -129 -14q-109 -6 -317 -25q-8 -27 -21 -76q-16 -78 -16 -137q0 -189 164 -188q78 0 248 53t249 53q83 0 84 -49q0 -7 -2 -14q-25 -115 -174 -154l-241 -45q-20 -6 -61.5 -17.5t-61.5 -17.5q-70 -20 -123 -20q-280 0 -281 282q1 76 21 172z" />
<glyph unicode="F" horiz-adv-x="1110" d="M201 63l28 125q6 29 16.5 70t12.5 55q53 250 143 815q-33 -4 -49 -4q-54 0 -54 45q0 10 3 21q18 88 125 129q74 29 315 53q348 37 588 37q58 0 58 -52q0 -11 -3 -24q-20 -98 -127 -131q-39 -10 -219 -16q-90 -4 -463 -39l-63 -420q207 39 381 39q67 0 67 -55 q0 -13 -4 -29q-18 -88 -94 -115q-43 -16 -145 -22q-129 -6 -242 -19q0 -2 -10 -54t-19 -93q-10 -53 -19 -90t-13 -58q-53 -246 -170 -245q-46 0 -46 49q0 12 3 28z" />
<glyph unicode="G" horiz-adv-x="1329" d="M170 565q43 209 188 398q141 184 340 311t379 127q92 0 174 -47q78 -45 107 -127q10 -27 4 -45q-8 -43 -47 -84q-43 -47 -82 -47q-8 0 -80 75q-72 74 -162 74q-193 0 -391 -190q-190 -184 -233 -381q-11 -51 -11 -98q0 -115 64 -201q86 -117 266 -117q158 0 340 104 q-235 132 -235 214q0 6 2 12q8 41 43 82q41 47 79 47q10 0 33 -17l113 -88q66 -51 121 -78q58 -22 166 -79q24 -19 23 -46q0 -6 -1 -12q-8 -39 -47 -84q-37 -43 -80 -43q-23 0 -51 19q-127 -121 -279 -187q-157 -68 -307 -67q-238 0 -364 168q-87 115 -88 270q0 65 16 137z " />
<glyph unicode="H" horiz-adv-x="1185" d="M90 86q27 133 96 393l101 393l39 181q59 281 184 280q39 0 39 -51q0 -20 -6 -47q-43 -201 -178 -680q27 20 57 20q115 0 303 -20q219 -25 270 -66q47 143 158 533l31 127q25 84 45 125q49 98 123 98q43 0 43 -46q0 -14 -4 -32q-27 -133 -187 -663l-18 -60.5l-32 -109.5 l-58 -205q-18 -63 -56 -168q-49 -98 -125 -98q-40 0 -40 44q0 13 4 29q3 18 79 289q-37 -39 -96 -39q-45 0 -121 17q-53 12 -118 22q-2 0 -265 19q-23 2 -41 10q-2 -12 -10 -50l-22 -106q-47 -219 -162 -219q-37 0 -38 45q0 16 5 35z" />
<glyph unicode="I" horiz-adv-x="784" d="M74 43q18 84 92 121q49 23 149 35q41 139 119 479q68 303 121 479q-23 0 -47 -2q-12 0 -28.5 -1t-20.5 -1q-115 0 -115 68q0 9 2 20q8 45 47 86q37 41 82 41q8 0 46 1t66.5 1t67.5 1t47 1h152q70 0 107 -10q40 -13 40 -47q0 -7 -2 -15q-23 -106 -127 -137q-25 -8 -77 -8 q-27 0 -70 2q-135 -630 -233 -940q119 8 186 8q65 0 65 -55q0 -13 -4 -29q-20 -106 -135 -135q-6 -2 -129 -12q-311 -23 -346 -23q-58 0 -58 49q0 10 3 23z" />
<glyph unicode="J" horiz-adv-x="1269" d="M98 399q27 133 164 242q113 88 268 141q29 8 35 9q46 0 46 -43q0 -10 -3 -23q-16 -72 -92 -121l-131 -65q-76 -37 -84 -82q-3 -14 -3 -28q0 -90 128 -159q133 -70 248 -69q207 0 340 145q117 129 162 342q28 133 27 421q0 56 -1 118q0 6 1 13t1 9q10 45 56 90 q47 47 90 47q27 0 36 -40q17 -64 18 -187q0 -49 -3 -108q-10 -193 -35 -308q-65 -304 -264 -516q-221 -238 -514 -237q-207 0 -357 100q-141 98 -140 241q0 33 7 68z" />
<glyph unicode="K" horiz-adv-x="1150" d="M86 63q31 150 98 392l99 389l57 264q55 268 184 268q37 0 37 -55q0 -22 -6 -53l-100 -443q92 68 264 172q238 145 266 166q76 61 248 183q45 31 72 30q28 0 43 -24q10 -16 10 -36q0 -9 -2 -18q-6 -31 -49 -73q-119 -125 -363 -269q-305 -182 -391 -239q178 -115 457 -426 q101 -112 101 -164q0 -38 -50 -88q-39 -39 -84 -39q-23 0 -45 20q-20 16 -131 150q-188 225 -418 377l-88 -316q-37 -139 -45 -153q-39 -94 -121 -94q-47 0 -47 47q0 14 4 32z" />
<glyph unicode="L" horiz-adv-x="1067" d="M162 453q27 125 133 397q106 270 133 399q12 49 49 92q35 41 86 41q48 0 49 -61q0 -20 -6 -47q-37 -178 -141 -455q-86 -227 -107 -313q-12 -58 -12 -108.5t12 -92.5q31 -104 138 -104q88 0 276.5 53t278.5 53q64 0 64 -53q0 -10 -3 -23q-18 -92 -131 -133 q-20 -6 -152 -30l-213 -54q-129 -31 -215 -30q-172 0 -231 153q-27 68 -27 156q1 74 19 160z" />
<glyph unicode="M" horiz-adv-x="1597" d="M72 55l10 33l313 799l78 221q49 137 102 211q63 92 134 92q29 0 51 -43q23 -49 51 -235q70 -465 76 -713q113 188 319 586l74 139q47 88 84 135q68 88 129 88q43 0 51 -61q2 -11 2 -39.5t-2 -73.5q-2 -51 -2 -111q0 -120 8 -268l25 -371q4 -102 8 -155q1 -21 1 -39 q0 -70 -11 -119q-12 -47 -55 -94t-95 -47q-31 0 -43 47q-14 55 -18 139v146q-12 287 -21 604l-327 -594q-51 -88 -72 -121q-41 -63 -88 -115q-51 -57 -98 -57q-66 0 -88 385q-23 348 -58 563q-164 -406 -245 -631l-56 -149q-33 -86 -71 -148q-53 -80 -111 -79q-58 0 -58 50 q0 11 3 25z" />
<glyph unicode="N" horiz-adv-x="1146" d="M80 45q31 145 106 391q72 236 113 389l43 205q72 336 197 336q27 0 47 -43q33 -70 59 -152q45 -135 51 -151l260 -617l146 631q20 98 28 121q20 80 44 119q53 104 135 104q43 0 43 -45q0 -15 -4 -35q-20 -104 -103 -446q-92 -391 -104 -449q-35 -158 -74 -237 q-28 -55 -68 -98q-51 -57 -94 -58q-23 0 -41 29q-29 41 -131 283q-74 172 -246 614l-170 -633l-32 -119q-22 -71 -49 -116q-55 -96 -125 -97q-35 0 -35 42q0 14 4 32z" />
<glyph unicode="O" horiz-adv-x="1363" d="M180 592q39 190 166 369q129 182 311 280q78 125 340 125q272 0 398 -209q78 -129 78 -294q0 -85 -21 -179q-61 -289 -262 -479q-215 -207 -498 -207q-273 0 -418 160q-110 121 -110 294q0 66 16 140zM371 664q-12 -55 -12 -105q0 -137 87 -233q117 -125 326 -125 q184 0 311 118q129 121 170 306q15 72 15 136q0 145 -78 243q-113 139 -350 139q-45 0 -152 -58q-256 -136 -317 -421z" />
<glyph unicode="P" horiz-adv-x="1245" d="M195 86l63 266q35 129 66 266l53 244q12 59 53 107q45 51 105 51q40 0 39 -57q0 -27 -9 -68l-84 -373q233 40 412 99q297 98 324 227q4 20 4 38q0 110 -140 181q-115 57 -284 76q-76 4 -228 16q-156 12 -200 37q-38 20 -39 51q0 6 2 13q10 49 49 81q41 35 84 35 q86 0 242 -14q344 -27 499 -96q217 -96 218 -292q0 -43 -11 -91q-53 -252 -405 -410q-254 -115 -576 -151q-43 -178 -53 -201q-51 -123 -143 -123q-46 0 -46 50q0 16 5 38z" />
<glyph unicode="Q" horiz-adv-x="1355" d="M154 514q49 233 215 442q168 213 393 322q33 61 106 80q37 10 131 10q264 0 385 -182q82 -120 83 -281q0 -76 -19 -162q-63 -305 -311 -534q124 -144 124 -201q0 -5 -1 -10q-10 -43 -46 -78q-37 -37 -77 -37q-51 0 -176 199q-170 -92 -343 -92q-244 0 -374 139 q-103 108 -103 266q0 56 13 119zM338 586q-10 -46 -10 -88q0 -120 80 -199q98 -100 282 -100q94 0 187 30q-63 130 -63 183q0 7 1 12q6 31 39 63q31 31 64 31q41 0 133 -182q160 147 204 354q14 65 14 122q0 141 -87 230q-115 115 -346 115l-41 -24q-383 -209 -457 -547z " />
<glyph unicode="R" d="M139 68q4 20 19.5 79.5l23.5 92.5q33 131 41 174q2 14 12.5 60t16.5 81q12 53 18 88t11 53q55 262 122 471q-76 0 -76 46q0 8 3 18q10 47 53 88q45 41 90 41q305 0 588 -78q205 -55 299 -131q107 -86 107 -221q0 -39 -9 -80q-55 -258 -450 -401q66 -131 145 -218 q37 -37 53 -55q24 -28 24 -59q0 -7 -1 -15q-10 -45 -51 -86q-45 -45 -82 -45q-16 0 -33 15q-180 143 -268 399q-211 -53 -453 -78q-31 -129 -49 -180q-49 -125 -123 -125q-33 0 -33 40q-1 12 2 26zM397 502q264 31 486 92q369 98 397 229q3 15 3 30q0 137 -284 220 q-182 53 -450 80q-11 -30 -152 -651z" />
<glyph unicode="S" horiz-adv-x="1251" d="M170 170q12 53 55 90t97 37q31 0 147 -31q182 -49 365 -49q72 0 131 14q92 18 102 60q2 9 2 18q0 96 -213 160q-393 119 -428 137q-184 93 -184 255q0 34 8 71q47 219 309 336q207 94 453 94q355 0 355 -168q0 -19 -5 -41q-10 -55 -74 -137q-70 -88 -123 -88 q-29 0 -45 30q-16 25 -6 62q10 47 41 78q-68 49 -246 49q-274 0 -432 -121q-27 -20 -33 -41q-3 -15 -3 -29q0 -117 206 -182l434 -127q191 -85 192 -240q0 -29 -7 -61q-39 -184 -219 -276q-143 -76 -342 -76q-113 0 -263 24q-172 27 -233 70q-42 29 -42 68q0 7 1 14z" />
<glyph unicode="T" horiz-adv-x="1525" d="M299 1161q8 47 55 94q43 43 95 43q10 0 18 -2t20 -2q182 0 594 57.5t594 57.5q86 0 86 -53q0 -8 -2 -17q-23 -100 -127 -133q-37 -12 -116 -16l-119 -4q-111 -8 -248 -27q-219 -33 -248 -35q-27 -127 -86 -358l-90 -356l-43 -203q-43 -207 -143 -207q-29 0 -31 45 q-1 12 -1 27q0 78 28 209q33 156 98 415q104 395 106 414q-137 -12 -329 -12q-112 0 -113 50q0 6 2 13z" />
<glyph unicode="U" horiz-adv-x="1368" d="M190 614q27 125 117 336q96 217 172 324q55 74 103 74q52 0 52 -43q0 -10 -3 -23q-2 -12 -10 -33q0 -2 -14.5 -31.5l-50.5 -100l-73 -148.5q-80 -162 -106 -285q-13 -60 -13 -113q0 -152 105 -245q129 -111 367 -111q195 0 301 162q74 109 120 332q23 100 29 284.5 t29 284.5q8 43 57 88q47 45 92 45q51 0 51 -169q0 -47 -4 -105q-12 -201 -43 -342q-74 -340 -231 -541q-199 -252 -514 -252q-293 0 -440 158q-110 121 -110 301q-1 71 17 153z" />
<glyph unicode="V" horiz-adv-x="1220" d="M307 1253q10 45 53 88q45 45 84 45q25 0 48 -47q33 -78 65 -284q58 -362 80 -738q252 354 469 695l106 168q70 102 117 157q55 63 92 64q29 0 45 -25q10 -16 11 -38q0 -9 -2 -19q-3 -18 -25 -55q-33 -57 -162 -246l-344 -512l-151 -248q-94 -145 -177 -225 q-70 -66 -120 -66q-31 0 -43 43q-6 16 -13 160q-4 111 -26 274l-72 418q-39 234 -39 341q0 32 4 50z" />
<glyph unicode="W" horiz-adv-x="1708" d="M324 1260q8 41 59 86q49 43 90 43q31 0 45 -43q20 -61 23 -146q4 -102 4 -151q10 -158 26 -633l361 618l74 127q37 59 88 118.5t90 59.5q55 0 73 -118q4 -18 27 -283q27 -289 82 -586q114 273 258 658l59 153q39 94 78 154q53 84 115 84q55 0 55 -49q0 -13 -4 -29 q-6 -25 -8 -31l-330 -813l-80 -225q-51 -131 -108 -215q-65 -92 -129 -92q-28 0 -49 43q-33 61 -66 246q-76 420 -90 743q-158 -256 -346 -612l-78 -146q-45 -82 -90 -139q-68 -88 -131 -88q-41 0 -49 61q-4 37 -4 117q0 53 -11 268q-6 305 -32 805q-2 9 -2 15z" />
<glyph unicode="X" horiz-adv-x="1177" d="M72 74q20 98 530 631q-246 493 -246 563q0 36 50 94q41 47 81 47q16 0 37 -31q16 -25 78 -168l170 -331l240 239q141 138 252 228q47 37 71 36q29 0 41 -24q7 -14 7 -31q0 -11 -3 -24q-6 -33 -43 -76q-18 -25 -159 -156q-129 -117 -338 -330q281 -571 281 -673 q0 -39 -50 -88q-39 -39 -80 -39q-18 0 -35 22q-18 27 -90 199q-31 80 -192 409l-316 -346q-35 -49 -139 -172q-51 -55 -94 -55q-29 0 -45 22q-10 14 -10 35q0 9 2 19z" />
<glyph unicode="Y" horiz-adv-x="1308" d="M236 156q8 45 53 92q43 47 86 47l16 -4q264 -78 383 -78q125 0 199 43t129 158q37 78 88 311q-248 -211 -537 -211q-231 0 -327 152q-62 94 -62 228q0 70 17 150q72 332 206 332q33 0 48 -24q16 -27 10 -58q-6 -33 -31 -96t-31 -96q-12 -56 -11 -104q0 -94 44 -160 q68 -100 227 -101q141 0 277 74q145 78 211 209q18 139 39 225q12 57 51 103q45 51 98 51q65 0 65 -103q0 -50 -16 -125q-12 -49 -41 -237q-27 -166 -43 -240q-63 -301 -221 -485q-184 -209 -477 -209q-96 0 -223 27q-150 27 -201 69q-28 20 -27 49q0 5 1 11z" />
<glyph unicode="Z" horiz-adv-x="1380" d="M109 68q10 43 51 94q66 84 157 164l177 149l68.5 61.5l54 48l53 49l46 43l54.5 50.5l55.5 52.5l70.5 67.5l80 76.5l105.5 101.5l124.5 120q-512 27 -686 26q-94 0 -139 13q-46 14 -46 48q0 5 1 11q12 51 55 94q41 41 94 41q10 0 189 -10q31 -2 156.5 -6t220 -8 l183.5 -7.5t129 -5.5t48 -2q86 0 86 -49q0 -8 -2 -16q-12 -49 -49 -100q-92 -119 -340 -353l-680 -620q121 2 451 35q303 29 450 28q48 0 48 -41q0 -11 -3 -24q-18 -92 -123 -131q-53 -20 -278 -35q-598 -39 -791 -39q-74 0 -74 53q1 10 3 21z" />
<glyph unicode="[" horiz-adv-x="1015" d="M268 78q12 45 47 88q23 80 47 186q25 111 70 406q41 256 74 405q-43 -2 -60.5 20.5t-7.5 65.5q12 49 51 88q41 41 84 41q53 0 213 10.5t213 10.5q82 0 66 -74q-25 -111 -158 -141q-47 -14 -219 -21l-53 -368q-27 -193 -64 -369q-16 -74 -53 -213h6q61 0 110.5 2t108.5 2 q63 0 91 -19.5t20 -56.5q-8 -47 -45 -90q-35 -41 -88 -53q-41 -8 -182 -8q-47 0 -84 -2t-86 -2q-59 0 -85 22.5t-16 69.5z" />
<glyph unicode="\" horiz-adv-x="808" d="M338 1440q10 47 53 90q47 47 88 47q37 0 53 -86q4 -25 8.5 -71t4.5 -52q25 -193 110 -770q72 -473 72 -780q0 -20 -2 -35q-10 -47 -49 -84q-41 -37 -84 -37q-37 0 -49.5 39t-18.5 109q0 39 -4 112q-4 43 -45 389q-6 35 -82 592q-63 492 -55 537z" />
<glyph unicode="]" horiz-adv-x="1013" d="M242 53q25 113 155 144q41 12 217 18l56 375q39 254 65 373q18 86 49 200q-47 0 -90 -2h-90q-74 0 -110 10q-55 12 -43 68q12 49 49 92t84 51q25 4 131 4h112q51 2 115 3q55 0 78.5 -21.5t15.5 -64.5t-49 -91q-10 -35 -35 -149q-37 -180 -75 -424q-41 -252 -78 -424 q41 2 58 -20.5t7 -65.5q-12 -45 -47 -88q-43 -43 -88 -43q-20 0 -213 -8q-143 -6 -213 -6q-75 -1 -61 69z" />
<glyph unicode="^" horiz-adv-x="1026" d="M195 399q10 41 227 428q219 387 260 439q82 102 141 102q61 0 95 -192q14 -82 32 -250l33 -230q25 -178 16 -213q-8 -43 -57 -98q-47 -53 -92 -53q-74 0 -107 303q-8 127 -28 385q-170 -285 -236 -412q-23 -51 -108 -194q-61 -82 -123 -82q-67 -1 -53 67z" />
<glyph unicode="_" horiz-adv-x="1357" d="M252 0l29 137h852l-29 -137h-852z" />
<glyph unicode="`" horiz-adv-x="575" d="M494 1890q8 47 57 92q46 43 92 43q35 0 53 -43l62 -184q18 -39 57 -143q8 -27 4 -49q-8 -43 -51 -93q-39 -45 -84 -45q-25 0 -47 25q-35 39 -92 195q-59 163 -51 202z" />
<glyph unicode="a" horiz-adv-x="1069" d="M41 53q9 46 264 473l313 525l42 70.5l49 82.5q59 94 106 146q53 59 100 59q45 0 60 -63q20 -96 20 -230v-233q35 -299 62 -727q0 -20 -2 -27q-9 -46 -56 -92q-47 -47 -90 -47q-51 0 -67 176q-43 -6 -109 -6h-84q-20 0 -49 1t-35 1h-295q-102 -182 -178 -182q-54 0 -54 48 q0 11 3 25zM360 313h459q-33 279 -39 707z" />
<glyph unicode="b" horiz-adv-x="1241" d="M131 106l70 328q78 365 184 653q-16 -4 -25 -4q-48 0 -48 47q0 12 3 27q16 66 97 113q86 51 309 84q195 29 321 28q382 0 383 -215q0 -30 -8 -65q-47 -219 -456 -412q121 -37 188 -110q63 -70 63 -156q0 -26 -6 -53q-23 -100 -106 -185q-77 -74 -185 -123 q-166 -74 -419 -73q-244 0 -306 43q-62 0 -61 51q-1 10 2 22zM326 205q242 -10 262 -10q270 0 387 79q37 23 41 39q3 14 3 27q0 83 -122 133q-104 45 -233 45q-115 0 -269 -29l-35.5 -151.5t-33.5 -132.5zM446 690q205 53 435 146q332 131 354 229q2 9 2 17q0 56 -86 85 q-72 23 -162 23q-195 0 -430 -53z" />
<glyph unicode="c" horiz-adv-x="1128" d="M166 551q55 260 315 539q281 299 533 299q244 0 241 -355v-4q-10 -47 -51 -88q-43 -43 -86 -43q-33 0 -47 76q-29 115 -41 135q-39 76 -117 76q-147 0 -348 -228q-182 -207 -217 -366q-10 -44 -10 -86q0 -114 74 -203q98 -121 270 -121q102 0 199 58q39 25 129 106 q59 57 88 57q52 0 52 -44q0 -10 -3 -23q-6 -27 -25 -53q-94 -133 -239 -211q-152 -82 -293 -82q-225 0 -348 166q-89 121 -90 273q0 59 14 122z" />
<glyph unicode="d" horiz-adv-x="1329" d="M248 106q27 123 82 324q76 266 88 324l55 262q20 92 53 141l-82 -3l-79 -3q-50 0 -51 39q0 10 3 22q23 94 125 125q61 18 181 19h47q332 0 561 -115q246 -122 246 -341q0 -46 -11 -95q-57 -274 -479 -522q-287 -168 -676 -293q-20 -6 -32 -6q-40 0 -40 56q0 27 9 66z M438 201q270 96 488 217q334 188 366 344q6 27 6 52q0 157 -215 249q-174 76 -417 90l-84 -412q-68 -307 -144 -540z" />
<glyph unicode="e" horiz-adv-x="1079" d="M162 444q29 131 119 351q94 231 125 348q-25 10 -25 39q0 8 2 18q20 100 115 125q41 35 77 35q18 0 27 -14q299 43 629 43q51 0 51 -40q0 -9 -2 -20q-16 -78 -106 -108q-31 -10 -193 -21q-109 -8 -397 -39q-16 -59 -140 -360q166 29 420 28q78 0 78 -55q0 -9 -2 -20 q-18 -84 -117 -113q-35 -8 -129 -14q-115 -6 -319 -25l-10.5 -44t-8.5 -32q-16 -79 -16 -139q0 -187 162 -186q80 0 250 53t247 53q85 0 86 -50q0 -6 -2 -13q-25 -113 -176 -154l-239 -45q-20 -6 -62.5 -17.5t-62.5 -17.5q-68 -20 -121 -20q-280 0 -280 282q0 76 20 172z " />
<glyph unicode="f" horiz-adv-x="1112" d="M205 63q2 12 9 45t19 80q6 29 16.5 70t12.5 55q53 250 144 815q-37 -4 -52 -4q-52 0 -52 43q0 10 3 23q23 109 189 149q55 12 249 33q347 37 590 37q56 0 56 -50q0 -11 -3 -26q-23 -98 -124 -131q-35 -10 -220 -16q-90 -4 -462 -39l-66 -420q207 39 383 39q67 0 67 -55 q0 -13 -3 -29q-18 -88 -95 -115q-47 -16 -145 -22q-129 -6 -242 -19q-20 -102 -28 -147q-10 -53 -19.5 -90t-13.5 -58q-53 -246 -170 -245q-46 0 -47 47q1 13 4 30z" />
<glyph unicode="g" horiz-adv-x="1335" d="M172 565q41 201 190 398q143 186 338 311q199 127 381 127q92 0 174 -47q78 -45 107 -127q10 -27 4 -45q-8 -43 -47 -84q-43 -47 -84 -47q-6 0 -78 75q-72 74 -162 74q-194 0 -393 -190q-188 -182 -231 -381q-11 -53 -11 -101q0 -114 62 -198q86 -117 268 -117 q158 0 340 104q-235 132 -235 214q0 6 2 12q8 41 43 82q41 47 80 47q8 0 30 -17l115 -88q63 -49 119 -78q58 -22 166 -79q26 -20 25 -48q0 -5 -1 -10q-8 -39 -47 -84q-37 -43 -80 -43q-27 0 -53 19q-127 -121 -279 -187q-157 -68 -307 -67q-238 0 -362 168q-89 120 -89 275 q0 63 15 132z" />
<glyph unicode="h" horiz-adv-x="1189" d="M92 86q27 133 96 393l101 393l39 181q59 281 184 280q39 0 39 -51q0 -20 -6 -47q-51 -236 -176 -680q27 20 57 20q115 0 303 -20q217 -25 268 -66q63 193 160 533l31 127q16 70 45 125q49 98 123 98q43 0 43 -44q0 -14 -4 -34q-29 -143 -189 -663l-108 -375 q-18 -63 -56 -168q-49 -98 -122 -98q-40 0 -41 44q0 13 4 29q3 18 80 289q-37 -39 -97 -39q-47 0 -123 17q-78 16 -116 22q-25 0 -63 3t-97 8.5t-105 7.5q-23 2 -40 10q-12 -43 -35 -156q-47 -219 -160 -219q-39 0 -39 47q0 15 4 33z" />
<glyph unicode="i" horiz-adv-x="348" d="M76 86q35 158 94 383q78 295 98 381l51 242q66 295 203 294q42 0 42 -62q0 -29 -9 -71q-25 -115 -119 -487.5t-119 -486.5q-61 -281 -192 -281q-53 0 -53 54q0 15 4 34z" />
<glyph unicode="j" horiz-adv-x="1271" d="M98 399q27 133 164 242q113 88 268 141q29 8 35 9q46 0 46 -43q0 -10 -3 -23q-16 -72 -92 -121l-131 -65q-76 -37 -84 -82q-3 -14 -3 -28q0 -90 128 -159q133 -70 248 -69q207 0 340 145q117 129 162 342q28 133 27 421q0 56 -1 118q0 6 1 13t1 9q10 45 56 90 q47 47 90 47q27 0 36 -40q17 -64 18 -187q0 -49 -3 -108q-10 -193 -35 -308q-65 -304 -264 -516q-221 -238 -514 -237q-207 0 -357 100q-141 98 -140 241q0 33 7 68z" />
<glyph unicode="k" horiz-adv-x="1157" d="M90 63q27 129 96.5 391.5t100.5 389.5l57 264q55 268 184 268q35 0 36 -52q0 -23 -7 -56l-98 -443q92 68 264 172q215 131 266 166q76 61 248 183q45 31 70 30q28 0 43 -24q10 -16 10 -36q0 -9 -2 -18q-6 -29 -47 -73q-117 -123 -365 -269q-305 -182 -391 -239 q176 -113 459 -426q101 -112 101 -164q0 -39 -52 -88q-41 -39 -82 -39q-20 0 -47 20q-12 10 -129 150q-186 221 -420 377l-86 -316q-37 -139 -45 -153q-39 -94 -121 -94q-47 0 -47 47q0 14 4 32z" />
<glyph unicode="l" horiz-adv-x="1069" d="M164 453q27 125 133 397q106 270 133 399q12 49 49 92q35 41 86 41q49 0 49 -59q0 -21 -6 -49q-37 -178 -141 -455q-86 -227 -107 -313q-12 -58 -12 -108.5t12 -92.5q31 -104 138 -104q88 0 276.5 53t276.5 53q66 0 66 -53q0 -10 -3 -23q-18 -92 -131 -133 q-20 -6 -152 -30l-21 -6q-22 -5 -79 -19l-115 -29q-129 -31 -213 -30q-175 0 -233 153q-25 65 -25 151q0 75 19 165z" />
<glyph unicode="m" horiz-adv-x="1603" d="M74 55l10 33l313 799l78 221q49 137 103 211q66 92 133 92q27 0 49 -43q27 -55 53 -235q70 -465 76 -713q113 188 319 586q10 23 72 139q43 80 86 135q68 88 127 88q45 0 53 -61q2 -11 2 -39.5t-2 -73.5q-2 -51 -2 -111q0 -120 8 -268l23 -371q2 -39 5 -76.5t5 -78.5 q1 -21 1 -39q0 -70 -11 -119q-10 -45 -57 -94q-43 -47 -93 -47q-31 0 -43 47q-14 55 -18 139v146q-12 287 -21 604l-327 -594q-51 -88 -72 -121q-41 -63 -88 -115q-51 -57 -98 -57q-66 0 -88 385q-20 313 -58 563q-150 -369 -245 -631l-56 -149q-33 -86 -71 -148 q-51 -80 -113 -79q-56 0 -56 49q0 11 3 26z" />
<glyph unicode="n" horiz-adv-x="1148" d="M82 45q31 145 106 391q72 236 113 389l43 205q72 336 197 336q25 0 47 -43q33 -70 59 -152l51 -151l260 -617l144 631q23 102 31 121q20 80 43 119q53 104 135 104q43 0 43 -46q0 -14 -4 -34q-8 -43 -105 -446q-78 -330 -102 -449q-35 -158 -74 -237q-23 -49 -68 -98 q-51 -57 -94 -58q-18 0 -41 29q-29 41 -131 283q-74 172 -246 614l-170 -633l-32 -119q-22 -71 -49 -116q-55 -96 -125 -97q-35 0 -35 42q0 14 4 32z" />
<glyph unicode="o" horiz-adv-x="1368" d="M182 592q39 195 164 369q129 182 311 280q82 125 340 125q273 0 400 -209q78 -129 78 -294q0 -85 -21 -179q-61 -289 -262 -479q-215 -207 -498 -207q-272 0 -420 160q-108 120 -108 291q0 67 16 143zM373 664q-12 -55 -12 -105q0 -137 88 -233q117 -125 323 -125 q186 0 313 118.5t168 305.5q16 75 16 139q0 144 -77 240q-113 139 -350 139q-45 0 -152 -58q-256 -136 -317 -421z" />
<glyph unicode="p" horiz-adv-x="1247" d="M195 86l63 266q51 195 68 266l53 244q12 61 51 107q45 51 107 51q40 0 39 -57q0 -27 -9 -68l-84 -373q233 40 412 99q297 98 324 227q4 20 4 38q0 110 -140 181q-115 57 -284 76q-88 4 -228 16q-156 12 -200 37q-38 20 -39 51q0 6 2 13q10 49 49 81q41 35 84 35 q86 0 242 -14q344 -27 499 -96q217 -96 218 -292q0 -43 -11 -91q-53 -252 -405 -410q-254 -113 -578 -151q-39 -172 -51 -201q-53 -123 -145 -123q-46 0 -46 50q0 16 5 38z" />
<glyph unicode="q" horiz-adv-x="1359" d="M156 514q49 233 215 442q168 213 393 322q33 61 106 80q35 10 131 10q264 0 385 -182q82 -120 83 -281q0 -76 -19 -162q-63 -305 -311 -534q124 -144 124 -201q0 -5 -1 -10q-10 -43 -45 -78q-37 -37 -78 -37q-51 0 -176 199q-169 -92 -345 -92q-242 0 -372 139 q-103 108 -103 266q0 56 13 119zM340 586q-10 -46 -10 -88q0 -120 80 -199q98 -100 282 -100q98 0 187 30q-63 130 -63 183q0 7 1 12q6 31 39 63q31 31 64 31q43 0 133 -182q160 147 204 354q14 65 15 122q0 141 -88 230q-115 115 -346 115l-41 -24q-383 -205 -457 -547z " />
<glyph unicode="r" horiz-adv-x="1331" d="M141 68q4 20 19.5 79.5l23.5 92.5q33 131 41 174q2 14 12.5 60t16.5 81q12 53 18.5 88t10.5 53q55 262 123 471q-78 0 -78 47q0 8 2 17q10 49 55 88q47 41 90 41q303 0 586 -78q207 -55 301 -131q105 -84 105 -218q0 -39 -9 -83q-55 -258 -448 -401q70 -137 145 -218 q37 -37 53 -55q24 -31 24 -61q0 -6 -1 -13q-10 -45 -51 -86q-45 -45 -82 -45q-16 0 -33 15q-180 143 -268 399q-211 -53 -453 -78q-31 -129 -49 -180q-49 -125 -123 -125q-33 0 -33 40q-1 12 2 26zM399 502q264 31 486 92q367 98 395 229q3 15 3 30q0 137 -282 220 q-182 53 -450 80q-11 -30 -152 -651z" />
<glyph unicode="s" horiz-adv-x="1255" d="M172 170q12 53 55 90t95 37q33 0 149 -31q181 -49 363 -49q74 0 131 14q94 18 104 60q2 9 2 18q0 96 -213 160q-393 119 -428 137q-184 93 -184 255q0 34 8 71q47 219 309 336q207 94 453 94q355 0 355 -168q0 -19 -5 -41q-10 -55 -74 -137q-70 -88 -123 -88 q-33 0 -45 30q-16 25 -6 62q10 47 41 78q-68 49 -246 49q-274 0 -432 -121q-27 -20 -32 -41q-3 -15 -4 -29q0 -117 206 -182l434 -127q191 -85 192 -240q0 -29 -7 -61q-39 -184 -219 -276q-145 -76 -344 -76q-109 0 -261 24q-172 27 -233 70q-42 29 -42 68q0 7 1 14z" />
<glyph unicode="t" horiz-adv-x="1527" d="M301 1161q8 47 55 94q43 43 95 43q10 0 18 -2t18 -2q184 0 596 57.5t592 57.5q88 0 88 -54q0 -8 -2 -16q-23 -100 -127 -133q-37 -12 -116 -16l-119 -4q-111 -8 -248 -27q-219 -33 -248 -35q-27 -127 -86 -358l-90 -356l-43 -203q-43 -207 -143 -207q-31 0 -33 45 q-1 11 -1 23q0 73 30 213q33 156 98 415q104 395 106 414q-137 -12 -331 -12q-110 0 -111 50q0 6 2 13z" />
<glyph unicode="u" horiz-adv-x="1370" d="M193 614q29 139 116 336q88 207 172 324q55 74 103 74q52 0 52 -43q0 -10 -3 -23q-2 -12 -10 -33q0 -2 -14.5 -31.5l-50.5 -100l-73 -148.5q-80 -162 -106 -285q-13 -62 -13 -116q0 -151 103 -242q125 -111 369 -111q195 0 301 162q76 117 121 332q23 100 28 284 q6 195 27 285q8 41 59 88q47 45 92 45q51 0 51 -169q0 -47 -4 -105q-12 -201 -43 -342q-74 -340 -231 -541q-199 -252 -514 -252q-293 0 -440 158q-110 121 -110 301q0 71 18 153z" />
<glyph unicode="v" horiz-adv-x="1220" d="M307 1253q10 45 53 88q45 45 84 45q25 0 48 -47q33 -78 65 -284q58 -362 80 -738q252 354 469 695l106 168q70 102 117 157q55 63 92 64q29 0 45 -25q10 -16 11 -38q0 -9 -2 -19q-3 -18 -25 -55q-33 -57 -162 -246l-344 -512l-151 -248q-94 -145 -177 -225 q-70 -66 -120 -66q-31 0 -43 43q-6 16 -13 160q-4 111 -26 274l-72 418q-39 234 -39 341q0 32 4 50z" />
<glyph unicode="w" horiz-adv-x="1708" d="M324 1260q8 41 59 86q49 43 90 43q31 0 45 -43q20 -61 23 -146q4 -102 4 -151q10 -158 26 -633l361 618l74 127q37 59 88 118.5t90 59.5q55 0 73 -118q4 -18 27 -283q27 -289 82 -586q114 273 258 658l59 153q39 94 78 154q53 84 115 84q55 0 55 -49q0 -13 -4 -29 q-6 -25 -8 -31l-330 -813l-80 -225q-51 -131 -108 -215q-65 -92 -129 -92q-28 0 -49 43q-33 61 -66 246q-76 420 -90 743q-158 -256 -346 -612l-78 -146q-45 -82 -90 -139q-68 -88 -131 -88q-41 0 -49 61q-4 37 -4 117q0 53 -11 268q-6 305 -32 805q-2 9 -2 15z" />
<glyph unicode="x" horiz-adv-x="1177" d="M72 74q20 98 530 631q-246 493 -246 563q0 36 50 94q41 47 81 47q16 0 37 -31q16 -25 78 -168l170 -331l240 239q141 138 252 228q47 37 71 36q29 0 41 -24q7 -14 7 -31q0 -11 -3 -24q-6 -33 -43 -76q-18 -25 -159 -156q-129 -117 -338 -330q281 -571 281 -673 q0 -39 -50 -88q-39 -39 -80 -39q-18 0 -35 22q-18 27 -90 199q-35 80 -192 409l-316 -346q-35 -49 -139 -172q-51 -55 -94 -55q-29 0 -45 22q-10 14 -10 35q0 9 2 19z" />
<glyph unicode="y" horiz-adv-x="1308" d="M236 156q8 45 53 92q43 47 86 47l16 -4q264 -78 383 -78q125 0 199 43t129 158q37 78 88 311q-248 -211 -537 -211q-231 0 -327 152q-62 94 -62 228q0 70 17 150q72 332 206 332q33 0 48 -24q16 -27 10 -58q-6 -33 -31 -96t-31 -96q-12 -56 -11 -104q0 -94 44 -160 q68 -100 227 -101q141 0 277 74q145 78 211 209q18 139 39 225q12 57 51 103q45 51 98 51q65 0 65 -103q0 -50 -16 -125q-12 -49 -41 -237q-27 -166 -43 -240q-63 -301 -221 -485q-184 -209 -477 -209q-96 0 -223 27q-150 27 -201 69q-28 20 -27 49q0 5 1 11z" />
<glyph unicode="z" horiz-adv-x="1380" d="M109 68q10 43 51 94q66 84 157 164l177 149l68.5 61.5l54 48l53 49l46 43l54.5 50.5l55.5 52.5l70.5 67.5l80 76.5l105.5 101.5l124.5 120q-512 27 -686 26q-94 0 -139 13q-46 14 -46 48q0 5 1 11q12 51 55 94q41 41 94 41q10 0 189 -10q31 -2 156.5 -6t220 -8 l183.5 -7.5t129 -5.5t48 -2q86 0 86 -49q0 -8 -2 -16q-12 -49 -49 -100q-92 -119 -340 -353l-680 -620q121 2 451 35q303 29 450 28q48 0 48 -41q0 -11 -3 -24q-18 -92 -123 -131q-43 -18 -278 -35q-610 -39 -791 -39q-74 0 -74 53q1 10 3 21z" />
<glyph unicode="{" horiz-adv-x="1054" d="M164 614q20 106 139 144q37 12 139 24q88 12 142 37q-4 29 -10.5 58.5t-12.5 62.5q-12 72 0 125q53 240 445 346q16 4 18 4q53 0 39 -69q-16 -72 -70 -109q-28 -18 -110 -43q-80 -23 -119 -53q-6 -6 -10 -19q-10 -43 12 -133q23 -92 10 -141q-18 -82 -80 -139 q74 -49 52 -158q-12 -61 -64 -166q-49 -102 -63 -168q-2 -18 14 -18q47 0 133 37q82 35 123 34q31 0 45 -22.5t8 -57.5q-18 -80 -170 -151q-131 -59 -223 -59q-80 0 -115 59q-31 51 -12 133q10 53 63 166q45 94 68 164q-49 25 -94 24q-29 0 -49.5 -2t-49.5 -2 q-109 0 -158.5 23.5t-39.5 68.5z" />
<glyph unicode="|" horiz-adv-x="540" d="M49 -264l10 33q123 334 195 671q94 446 201 840q12 52 49 160q47 104 131 104q61 0 43 -80q-2 -8 -10.5 -45l-27.5 -116.5l-38 -161.5l-168 -705l-133 -481q-16 -76 -47 -164q-55 -115 -154 -115q-63 1 -51 60z" />
<glyph unicode="}" horiz-adv-x="1052" d="M289 55q16 78 69 111q27 16 113 41q72 20 111 53q10 8 14 21q8 43 -12 131q-23 92 -11 143q14 72 78 135q-76 49 -53 160q14 63 64 170q55 115 65 168q2 14 -14 14q-46 0 -135 -37q-90 -37 -121 -37q-68 0 -49 82q14 63 102 115q168 96 287 96q80 0 110 -55 q33 -57 15 -139q-10 -53 -60 -164q-49 -102 -67 -164q45 -23 79 -22h58q14 0 33.5 1t23.5 1q109 0 159 -24t40 -69q-8 -43 -51 -90q-39 -43 -90 -55q-25 -8 -140 -23q-86 -12 -139 -36q10 -61 18 -121q10 -74 -2 -125q-51 -244 -440 -346q-16 -4 -20 -4q-49 -1 -35 69z" />
<glyph unicode="~" horiz-adv-x="1343" d="M227 631q10 39 49 82q65 71 160 116q98 47 182 48q98 0 223.5 -82t178.5 -82q45 0 123 116q76 115 137 115q68 0 53 -76q-25 -117 -159 -243q-133 -123 -254 -123q-82 0 -201 82q-117 80 -197 80q-63 0 -141 -60q-76 -57 -105 -57q-31 0 -43 28q-12 25 -6 56z" />
<glyph unicode="&#xa1;" horiz-adv-x="505" d="M43 -96q23 102 86 233q102 213 109 232q29 88 102 258q59 109 143 108q53 0 41 -63q-14 -66 -75 -213l-158 -367q-23 -61 -90 -188q-53 -78 -119 -78q-55 0 -39 78zM461 1010q12 61 53 123q53 72 107 71q59 0 47 -61l-25 -72q-6 -16 -12 -39q-16 -41 -49 -71 q-35 -33 -76 -33q-63 0 -45 82z" />
<glyph unicode="&#xa2;" horiz-adv-x="1236" d="M225 682q51 250 359 467q293 207 546 207q45 70 166 235q49 55 86 56q29 0 45 -23q14 -20 9 -53q-10 -41 -156 -248q43 -18 100 -68q63 -55 54 -102q-10 -43 -48 -78q-40 -37 -79 -37q-14 0 -74 45l-82 58l-449 -656q46 -6 203 -6q113 0 150 -12q51 -14 43 -64 q-12 -51 -47 -88q-37 -39 -82 -51q-25 -6 -72 -6q-246 0 -342 21l-190 -277q-37 -51 -86 -51q-31 0 -43 24q-14 27 -9 54q9 37 191 295q-246 106 -193 358zM416 729q-29 -129 139 -201l432 623q-125 -18 -260 -90q-127 -68 -221 -174q-76 -88 -90 -158z" />
<glyph unicode="&#xa3;" horiz-adv-x="1415" d="M195 82q25 111 141 149q18 6 90 27q45 20 57 70q14 61 -14 194q-51 0 -66 6q-29 10 -18 54q10 47 47 90q-29 135 -6 250q37 174 233 315q188 135 363 135q98 0 141 -55q43 -57 23 -154q-43 -197 -162 -196q-66 0 -51 67q3 12 12 37l5 14.5t6 13.5t3 9q12 53 -53 53 q-92 0 -188 -57q-109 -66 -127 -148q-14 -68 31 -235q203 6 397 6q61 0 88 -18.5t18 -53.5q-12 -55 -55 -94q-45 -43 -96 -43q-8 0 -43 1t-59.5 1t-58.5 1t-42 1h-115q6 -78 -12 -162q-12 -59 -51 -118q74 2 168 2h313q115 0 176 -19q53 -18 45 -65q-23 -111 -135 -144 q-51 -16 -166 -16q-45 0 -385 4q-170 2 -387 2q-83 0 -67 76z" />
<glyph unicode="&#xa4;" horiz-adv-x="1378" d="M358 291q14 68 189 188q-52 80 -31 172q16 80 51 144q-143 141 -129 211q8 43 54 90q43 45 86 45q18 0 43 -31l104 -135q150 109 221 108q74 0 156 -67q168 141 223 141q34 0 49 -24q16 -27 8 -58q-12 -57 -79 -108l-117 -80q27 -90 6 -182q-20 -104 -100 -203 q102 -121 90 -170q-10 -45 -52 -88q-43 -43 -90 -43q-37 0 -155 159q-45 -10 -80 -10q-76 0 -133 25q-223 -162 -260 -162q-72 0 -54 78zM717 733q-14 -66 43 -117t127 -51q86 0 104 84q27 135 -112 211q-57 -10 -101 -41q-52 -37 -61 -86z" />
<glyph unicode="&#xa5;" horiz-adv-x="1617" d="M240 410q23 98 127 129q78 23 223 22h12q59 0 113 4q-225 637 -219 670q8 41 53 82q41 39 86 39q35 0 55 -39q20 -37 74 -219q66 -221 156 -459q395 477 645 713q59 53 98 53q29 0 47 -21q16 -20 10 -49q-8 -47 -225 -284l-412 -455q393 33 473 33q72 0 56 -72 q-23 -90 -119 -121q-18 -6 -182 -16q-10 0 -383 -35l-17 -74q154 12 334 13q41 0 59.5 -15.5t10.5 -48.5q-20 -106 -146 -135q-46 -12 -202 -12q-29 0 -86 -4q-12 -49 -52 -89q-41 -45 -88 -45q-63 0 -45 113q-4 0 -32.5 -5t-70.5 -13.5t-89 -16.5q-117 -25 -191 -24 q-68 0 -53 63q18 84 109 131q68 35 186 49l170 19l16 76q-348 -31 -440 -31q-76 0 -61 74z" />
<glyph unicode="&#xa6;" horiz-adv-x="565" d="M129 -270q10 51 43 161q23 80 41 162q4 14 11 57.5t12 63.5l11 66t11 57q10 39 41 70q33 33 70 32q27 0 30 -47q6 -90 -28 -254l-29 -139q-65 -301 -178 -301q-51 0 -35 72zM348 834l37 200l76 420q12 53 45 92q39 47 92 47t55 -51q0 -23 -14 -92l-21 -98 q-18 -92 -40 -226q-20 -123 -41 -227q-12 -53 -54 -88q-45 -39 -94 -39q-45 1 -41 62z" />
<glyph unicode="&#xa8;" horiz-adv-x="1161" d="M555 1579q3 22 43 117q49 123 139 123q74 0 51 -97q-4 -14 -36 -90q-35 -80 -54 -106q-39 -57 -98 -58q-70 0 -45 111zM1075 1518q-8 31 2 73q16 74 64 146q61 92 123 92q63 0 47 -76q-6 -27 -29 -82q-25 -57 -29 -80q-10 -41 -49 -78q-43 -39 -80 -38.5t-49 43.5z" />
<glyph unicode="&#xa9;" horiz-adv-x="2119" d="M307 602q49 227 201 436q160 224 369 332q76 39 139 57q4 2 23.5 7.5l47.5 13.5q6 2 16.5 6l27 10t28.5 11q115 33 223 32q342 0 562 -217q236 -233 165 -563q-80 -379 -456 -621q-342 -219 -735 -219q-334 0 -504 189q-177 194 -107 526zM506 655q-55 -252 108 -403 q152 -139 412 -139q358 0 619 190q219 162 266 379q12 51 6 104q-22 212 -191 357q-168 143 -395 143q-313 0 -528 -158q-231 -166 -297 -473zM860 618q34 160 172 289q147 137 301 137q164 0 146 -81q-8 -43 -47 -84q-43 -45 -84 -45q-20 0 -45 8t-43 8q-70 0 -132 -51 q-55 -47 -71 -125q-12 -61 18.5 -92t106.5 -31q23 0 69 6q61 8 70 8q55 0 39 -67q-33 -162 -287 -162q-129 0 -182 78q-56 79 -31 204z" />
<glyph unicode="&#xab;" horiz-adv-x="1511" d="M205 375q12 57 88 119q53 43 280 178q238 141 273 141q57 0 39 -80q-12 -53 -72 -104q-53 -45 -164 -107q-135 -77 -166 -98l162 -129q119 -106 107 -160q-8 -45 -57.5 -90t-90.5 -45q-47 0 -205 139q-154 135 -184 185q-14 24 -10 51zM854 399q10 55 86 115 q39 31 239.5 137.5t231.5 106.5t47 -25q14 -23 8 -59q-14 -68 -106 -123l-230 -121q90 -86 127 -127q88 -100 76 -147q-8 -43 -49 -90q-43 -51 -86 -52q-31 0 -172 144q-143 145 -162 184q-16 32 -10 57z" />
<glyph unicode="&#xad;" horiz-adv-x="1142" d="M367 690q23 100 129 131q51 14 186 15h348q45 0 64.5 -15.5t11.5 -48.5q-23 -109 -127 -133q-23 -4 -174 -10l-375 -19q-81 0 -63 80z" />
<glyph unicode="&#xae;" horiz-adv-x="2097" d="M305 596q45 215 199 430q158 223 364 328q43 23 138 55q6 2 16 5t25.5 6t27.5 7q8 6 72 29q109 33 223 33q334 0 553 -213q229 -229 162 -555q-80 -375 -449 -615q-340 -219 -727 -219q-334 0 -499 187q-176 193 -105 522zM506 649q-51 -252 104 -399q150 -137 406 -137 q360 0 624 198q209 160 252 363q10 43 4 102q-23 211 -190 352q-170 141 -391 142q-301 0 -518 -158q-225 -162 -291 -463zM807 324q6 31 35 143q37 141 37 143q4 18 16 113q10 78 18 113q9 34 19 61q-49 -20 -80 -20q-57 0 -43 71q15 77 92 117q76 39 223 68q133 25 224 24 q123 0 194 -51q92 -61 68 -174q-33 -164 -271 -307q72 -147 56 -219q-8 -41 -47 -82q-37 -39 -80 -39q-33 0 -54 39q-18 49 -84 198q-40 -15 -116 -37q-27 -104 -49 -145q-43 -86 -117 -86q-55 0 -41 70zM1059 674q160 68 198 86q133 66 164 123q-18 70 -176 69 q-55 0 -145 -14q-12 -127 -41 -264z" />
<glyph unicode="&#xaf;" horiz-adv-x="1357" d="M512 1229l29 137h854l-29 -137h-854z" />
<glyph unicode="&#xb0;" horiz-adv-x="1089" d="M367 922q37 172 141 241q37 80 172 142q119 55 213 55q133 0 207 -88t45 -221q-37 -172 -203 -307.5t-340 -135.5q-133 0 -196 90q-66 95 -39 224zM545 967q-16 -74 28.5 -115t120.5 -41q84 0 164 55.5t98 139.5q14 66 -38 106q-51 39 -115 39q-45 0 -109 -29l-102 -51 q-39 -65 -47 -104z" />
<glyph unicode="&#xb1;" horiz-adv-x="1032" d="M166 98q20 106 133 131q66 14 199 15h331q45 0 65.5 -16.5t12.5 -49.5q-23 -109 -127 -133q-8 -2 -176 -8q-35 -2 -188 -12q-152 -8 -187 -9q-81 0 -63 82zM279 690q10 47 51 92q43 47 88 47q10 0 88 -4q39 -2 86 -2l4 21q2 10 6 35.5t6 42.5q12 74 15 79q8 43 59 89 q49 43 90 43q68 0 31 -172l-33 -138q59 0 125 2q102 4 125 4q51 0 73.5 -17t14.5 -50q-23 -102 -123 -127q-55 -14 -229 -14q-40 0 -61.5 -68t-37.5 -98q-49 -102 -131 -103q-57 0 -41 72q0 4 7.5 25.5t21.5 71.5l29 100q-70 -2 -226 10q-46 12 -38 59z" />
<glyph unicode="&#xb4;" horiz-adv-x="524" d="M391 1524q10 43 53 92l256 297q53 59 101 59q61 0 47 -78q-12 -53 -139 -208q-115 -141 -179 -195q-51 -41 -88 -41q-65 0 -51 74z" />
<glyph unicode="&#xb6;" horiz-adv-x="1937" d="M264 705q49 229 293 405q377 272 881 272q240 0 544 -90q55 -16 81 -37.5t22 -48.5q-12 -47 -57 -90q-49 -45 -95 -45q-6 0 -26 4q-356 92 -523 92q-418 0 -671 -145q-223 -127 -254 -274q-29 -135 116 -238q125 -86 271 -104q77 283 123 491q39 186 147 186q68 0 49 -82 q-49 -229 -147 -598q41 -18 29 -67q-16 -70 -78 -115l-90 -313q-45 -154 -45 -162q-43 -98 -125 -98q-66 0 -47 82q18 78 124 465q-240 6 -393 135q-178 148 -129 375zM1042 -295q35 156 101 379q78 262 102 375q18 84 43 262q25 172 43 260q8 43 58 84q45 39 88 39 q37 0 36 -60q0 -35 -20 -157q-63 -414 -84 -510q-109 -504 -195 -645q-61 -102 -137 -103q-53 0 -35 76z" />
<glyph unicode="&#xb7;" horiz-adv-x="530" d="M311 692q12 57 63.5 114.5t102.5 57.5q74 0 55 -80q-12 -57 -63 -110t-107 -53q-65 -1 -51 71z" />
<glyph unicode="&#xbb;" horiz-adv-x="1421" d="M201 59q12 59 69 111q55 51 189 129q143 84 194 121l-155 94q-96 61 -136 115q-25 37 -16 71q8 47 53 99q43 49 88 49q18 0 78 -47q53 -41 78 -64q2 0 3 -1t5 -4t9.5 -6t15.5 -9l23.5 -14.5t36 -21.5t48.5 -30q90 -55 123 -100q33 -41 23 -82q-8 -41 -60 -92 q-55 -55 -315 -223q-264 -170 -315 -170q-57 -1 -39 75zM795 129q15 71 159 178l215 146q-27 33 -151 139q-106 92 -125 149q-6 20 -2 41q10 49 51 90q43 43 86 43q41 0 201 -157q162 -158 180 -203q14 -37 8 -57q-10 -45 -59 -99q-55 -59 -258 -204q-215 -158 -258 -158 q-67 0 -47 92z" />
<glyph unicode="&#xbf;" horiz-adv-x="1236" d="M55 106q37 182 215 287q111 66 363 129q274 68 350 107q-12 27 -6 61q8 45 45 84q41 47 82 47q45 0 65.5 -57t12.5 -105q-31 -150 -254 -245q-57 -25 -346 -99q-248 -63 -320 -122q-4 -2 -8 -17q-14 -76 69 -112.5t265 -36.5q174 0 346 71q41 18 53 19q33 0 45 -27 q12 -25 6 -55q-12 -55 -73 -98q-74 -51 -256 -87q-145 -27 -265 -26q-176 0 -280 53q-144 73 -109 229zM1020 1049q2 16 45 71q49 66 53 70q37 37 76 37q57 0 43 -70q-12 -57 -63 -115q-57 -66 -109 -65q-61 0 -45 72z" />
<glyph unicode="&#xc0;" horiz-adv-x="1064" d="M49 53q9 46 264 473l314 525l41.5 70.5l48.5 82.5q55 86 108.5 145.5t98.5 59.5t59 -63q20 -96 21 -230v-233q35 -272 63 -727q0 -20 -2 -27q-8 -43 -57 -92q-47 -47 -90 -47q-51 0 -68 176q-43 -6 -109 -6h-84q-20 0 -48.5 1t-35.5 1h-292q-102 -182 -179 -182 q-69 -1 -53 73zM369 313h458q-33 279 -39 707zM741 1911q8 47 58 92q46 43 92 43q35 0 53 -41q6 -23 28.5 -87.5t33.5 -98.5q23 -49 55 -144q9 -31 6 -49q-8 -43 -51 -92q-39 -45 -86 -45q-27 0 -47 22q-35 39 -92 197q-58 162 -50 203z" />
<glyph unicode="&#xc1;" horiz-adv-x="1071" d="M25 53q9 46 264 473l315 525l88 153q55 86 108.5 145.5t98.5 59.5q47 0 62 -63q18 -86 18 -230v-114.5t1 -84t1 -34.5q35 -299 61 -727q0 -20 -2 -27q-8 -43 -57 -92q-47 -47 -88 -47q-53 0 -70 176q-43 -6 -106 -6h-86q-20 0 -49 1t-35 1h-293q-102 -182 -178 -182 q-69 -1 -53 73zM344 313h461q-33 279 -39 707zM862 1563q9 40 56 92l253 297q55 57 101 57q63 0 47 -78q-12 -51 -141 -207q-117 -147 -177 -196q-47 -39 -88 -39q-65 0 -51 74z" />
<glyph unicode="&#xc2;" horiz-adv-x="1081" d="M45 53q9 46 264 473l316 525l88 153q55 86 108 145.5t99 59.5q47 0 61 -63q18 -86 18 -230v-114.5t1 -84t1 -34.5q35 -299 62 -727q0 -20 -2 -27q-8 -43 -57 -92q-47 -47 -91 -47q-51 0 -67 176q-43 -6 -107 -6h-84q-20 0 -50 1t-36 1h-293q-102 -182 -178 -182 q-69 -1 -53 73zM367 313h458q-35 299 -41 707q-7 -15 -417 -707zM561 1538q8 37 162 221q137 166 195 223q61 61 102 62q43 0 172 -196.5t121 -241.5q-8 -37 -47 -82q-37 -43 -78 -43q-49 0 -133 135l-105 182l-112 -143q-78 -94 -123 -137q-51 -49 -97 -50q-27 0 -45 21 t-12 49z" />
<glyph unicode="&#xc3;" horiz-adv-x="1153" d="M70 53q9 46 264 473l313 525l42 70.5l48 82.5q55 86 108.5 145.5t98.5 59.5q47 0 62 -63q18 -86 18 -230v-233q35 -299 61 -727q0 -20 -2 -27q-9 -46 -55 -92q-47 -47 -90 -47q-51 0 -68 176q-43 -6 -106 -6h-86q-20 0 -49 1t-35 1h-295q-102 -182 -176 -182 q-69 -1 -53 73zM389 313h461q-35 299 -41 707zM502 1561q18 86 153 153q119 61 213 62q72 0 172.5 -51.5t151.5 -51.5q45 0 106 56q59 53 99 53q29 0 45 -25q14 -20 6 -57q-2 -20 -29 -55q-53 -76 -141 -125q-90 -51 -172 -52q-66 0 -166 51.5t-164 51.5q-55 0 -129 -43 t-94 -43q-67 0 -51 76z" />
<glyph unicode="&#xc4;" horiz-adv-x="1112" d="M57 53q9 46 265 473l315 525l88 153q55 86 108.5 145.5t98.5 59.5q47 0 61 -63q18 -86 19 -230v-114.5t1 -84t1 -34.5q31 -260 59 -727q0 -20 -2 -27q-9 -46 -55 -92q-47 -47 -90 -47q-51 0 -68 176q-43 -6 -106 -6h-86q-20 0 -49 1t-35 1h-293q-102 -182 -178 -182 q-70 -1 -54 73zM379 313h459q-35 299 -41 707q-8 -15 -418 -707zM610 1579q3 22 43 117q49 123 140 123q72 0 49 -97q-6 -25 -35 -90q-35 -80 -53 -106q-39 -57 -99 -58q-70 0 -45 111zM1130 1518q-8 31 3 73q16 80 61 146q61 92 123 92q66 0 49 -76q-6 -27 -29 -82 q-25 -57 -28 -80q-10 -41 -49 -78q-43 -39 -80.5 -38.5t-49.5 43.5z" />
<glyph unicode="&#xc5;" horiz-adv-x="1128" d="M45 53q9 46 264 473l316 525l88 153q55 86 108 145.5t99 59.5q47 0 61 -63q18 -86 18 -230v-114.5t1 -84t1 -34.5q35 -299 62 -727q0 -20 -2 -27q-8 -43 -57 -92q-47 -47 -91 -47q-51 0 -67 176q-43 -6 -107 -6h-84q-20 0 -50 1t-36 1h-293q-102 -182 -178 -182 q-69 -1 -53 73zM367 313h458q-35 299 -41 707q-7 -15 -417 -707zM698 1825q37 170 142 241q37 80 172 142q115 53 213 53q131 0 207 -88q74 -86 45 -219q-37 -174 -203 -309.5t-340 -135.5q-132 0 -197 93q-66 94 -39 223zM877 1870q-16 -76 28.5 -117t120.5 -41 q84 0 166 57q78 53 96 140q14 66 -39 106q-49 37 -114 37q-49 0 -109 -27l-102 -51q-39 -65 -47 -104z" />
<glyph unicode="&#xc6;" horiz-adv-x="1792" d="M57 49q2 14 146 250l432 752l42.5 72.5l33 54l14.5 22.5q41 63 106 146q47 59 101 59q47 0 59 -66q16 -98 17 -235q-4 -219 0 -244q63 152 94 268q-31 10 -23 58q10 45 43 84q35 41 76 47q35 23 74 22q14 0 24 -6q80 12 467 35q45 2 86 5t59 4l17 1q66 0 53 -61 q-18 -84 -106 -111q-14 -4 -193 -20q-186 -14 -399 -39q-18 -63 -139 -365q195 37 428 37q86 0 69 -76q-20 -94 -116 -114q-31 -8 -142 -17q-145 -14 -309 -22q-12 -39 -18 -78q-68 -322 147 -322q82 0 254 50q180 51 252 51q45 0 64.5 -15.5t13.5 -46.5q-23 -100 -129 -133 q-12 -4 -103 -20q-111 -18 -188 -43q-201 -57 -246 -58q-113 0 -188 60q-74 57 -86 164h-533q-66 -115 -84 -140q-63 -88 -118 -88q-68 0 -52 78zM403 350h424q-35 254 -32 656z" />
<glyph unicode="&#xc8;" horiz-adv-x="1036" d="M145 444q29 131 119 351q94 231 125 348q-29 12 -20 57q20 100 112 125q41 35 78 35q16 0 29 -14q298 43 626 43q63 0 52 -60q-16 -78 -109 -108q-29 -10 -190 -21q-115 -8 -400 -39q-16 -59 -139 -360q168 29 420 28q45 0 65.5 -19t12.5 -56q-18 -84 -117 -113 q-35 -8 -131 -14q-102 -6 -318 -25q-4 -16 -10 -44t-8 -32q-68 -326 145 -325q78 0 248 53t250 53q47 0 67.5 -15.5t14.5 -47.5q-25 -115 -174 -154l-242 -45l-61 -17.5l-62 -17.5q-70 -20 -122 -20q-357 -1 -261 454zM707 1888q8 45 57 90q46 43 92 43q37 0 55 -41 q14 -47 60 -186q25 -55 55 -141q9 -31 6 -49q-8 -45 -51 -95q-39 -45 -84 -45q-29 0 -49 25q-29 31 -90 194q-61 160 -51 205z" />
<glyph unicode="&#xc9;" horiz-adv-x="1042" d="M127 444q27 121 121 351q94 231 125 348q-31 12 -23 57q20 100 115 125q41 35 78 35q16 0 28 -14q298 43 627 43q61 0 49 -60q-16 -78 -106 -108q-29 -10 -191 -21q-115 -8 -399 -39q-16 -59 -139 -360q168 29 419 28q92 0 76 -75q-18 -84 -116 -113q-35 -8 -129 -14 q-115 -6 -320 -25q-4 -16 -10 -44t-8 -32q-68 -326 145 -325q80 0 250 53t250 53q47 0 67.5 -15.5t14.5 -47.5q-25 -115 -174 -154l-242 -45q-20 -6 -61.5 -17.5t-61.5 -17.5q-70 -20 -123 -20q-356 -1 -262 454zM782 1524q10 43 54 92l256 297q57 59 100 59q61 0 47 -78 q-12 -53 -139 -208q-115 -141 -178 -195q-51 -41 -88 -41q-68 0 -52 74z" />
<glyph unicode="&#xca;" horiz-adv-x="1052" d="M143 444q29 131 119 351q94 231 125 348q-29 12 -20 57q20 100 112 125q41 35 80 35q18 0 27 -14q298 43 626 43q63 0 52 -60q-16 -78 -107 -108q-31 -10 -192 -21q-115 -8 -400 -39q-23 -76 -137 -360q166 29 420 28q92 0 76 -75q-18 -84 -117 -113q-35 -8 -131 -14 q-109 -6 -318 -25q-4 -16 -10 -44t-8 -32q-68 -326 145 -325q80 0 250 53t248 53q47 0 68.5 -15.5t15.5 -47.5q-25 -113 -176 -154l-242 -45l-61 -17.5l-62 -17.5q-68 -20 -123 -20q-354 -1 -260 454zM526 1538q8 37 162 221q137 166 195 223q61 61 102 62q43 0 172 -196.5 t121 -241.5q-10 -41 -45 -82q-37 -43 -80 -43q-47 0 -131 135l-107 182l-110 -143q-78 -94 -123 -137q-51 -49 -96 -50q-29 0 -47 21q-19 21 -13 49z" />
<glyph unicode="&#xcb;" horiz-adv-x="1077" d="M152 444q29 131 118 351q100 244 127 348q-31 12 -22 57q20 100 114 125q41 35 78 35q16 0 29 -14q298 43 627 43q61 0 49 -60q-16 -78 -107 -108q-29 -10 -190 -21q-115 -8 -400 -39q-16 -59 -139 -360q168 29 418 28q45 0 65.5 -19t12.5 -56q-18 -84 -117 -113 q-35 -8 -131 -14q-109 -6 -317 -25l-10.5 -44t-8.5 -32q-68 -326 146 -325q80 0 249.5 53t247.5 53q47 0 67.5 -15.5t14.5 -47.5q-25 -115 -174 -154l-240 -45q-23 -6 -65.5 -18.5t-58.5 -16.5q-68 -20 -121 -20q-356 -1 -262 454zM565 1579q3 22 43 117q49 123 140 123 q74 0 51 -97q-4 -14 -37 -90q-37 -88 -51 -106q-39 -57 -101 -58q-70 0 -45 111zM1087 1518q-9 34 0 73q16 74 64 146q61 92 123 92q63 0 47 -76q-6 -27 -29 -82q-18 -47 -26 -80q-10 -45 -49 -78q-45 -39 -82 -38q-36 0 -48 43z" />
<glyph unicode="&#xcc;" horiz-adv-x="727" d="M57 43q18 82 95 121q45 23 147 35q51 168 121 479q68 303 121 479q-25 0 -49 -2q-12 0 -29 -1t-21 -1q-66 0 -93 22.5t-17 65.5q8 45 47 86q37 41 82 41q8 0 46 1t66.5 1t66.5 1t46 1h154q68 0 104 -10q49 -14 39 -62q-23 -106 -125 -137q-25 -8 -80 -8q-27 0 -69 2 q-135 -630 -234 -940q115 8 187 8q82 0 63 -84q-20 -106 -135 -135q-6 -2 -129 -12q-311 -23 -348 -23q-72 0 -56 72zM522 1890q8 47 58 92q47 43 94 43q33 0 51 -43l61 -184q18 -39 58 -143q8 -27 4 -49q-9 -46 -49 -93q-39 -45 -86 -45q-25 0 -47 25q-35 39 -93 195 q-59 163 -51 202z" />
<glyph unicode="&#xcd;" horiz-adv-x="727" d="M25 43q18 84 92 121q45 23 149 35q41 139 119 479q68 303 121 479q-23 0 -47 -2q-12 0 -28.5 -1t-20.5 -1q-66 0 -94.5 22.5t-18.5 65.5q8 45 47 86q37 41 82 41q8 0 46 1t66.5 1t66.5 1t46 1h156q68 0 104 -10q49 -14 39 -62q-23 -106 -127 -137q-25 -8 -80 -8 q-27 0 -69 2q-139 -649 -232 -940q115 8 187 8q80 0 61 -84q-20 -106 -135 -135q-8 -2 -129 -12q-311 -23 -346 -23q-71 0 -55 72zM602 1524q10 43 53 92l254 297q57 59 103 59q61 0 47 -78q-12 -49 -141 -208q-115 -141 -179 -195q-51 -41 -86 -41q-67 0 -51 74z" />
<glyph unicode="&#xce;" horiz-adv-x="815" d="M72 43q18 82 94 121q45 23 147 35q41 139 119 479q80 346 121 479q-23 0 -47 -2q-10 0 -26.5 -1t-22.5 -1q-66 0 -94.5 22.5t-18.5 65.5q8 45 47 86q37 41 82 41q8 0 46 1t66.5 1t67.5 1t47 1h154q68 0 104 -10q49 -14 39 -62q-23 -106 -125 -137q-25 -8 -79 -8 q-27 0 -70 2q-135 -630 -234 -940q115 8 187 8q80 0 61 -84q-20 -106 -135 -135q-6 -2 -129 -12q-309 -23 -346 -23q-71 0 -55 72zM371 1538q8 37 161 221q127 154 197 223q61 61 100 62q45 0 175 -197q129 -195 118 -241q-10 -41 -45 -82q-37 -43 -80 -43q-51 0 -133 135 l-102 182l-113 -143q-78 -94 -123 -137q-51 -49 -96 -50q-29 0 -47 21t-12 49z" />
<glyph unicode="&#xcf;" horiz-adv-x="835" d="M86 43q18 84 92 121q49 23 150 35q41 139 118 479q68 303 121 479q-25 0 -49 -2q-10 0 -26.5 -1t-22.5 -1q-66 0 -93.5 22.5t-17.5 65.5q8 45 48 86q37 41 81 41q8 0 46 1t67 1t68 1t47 1h151q70 0 107 -10q49 -14 39 -62q-23 -106 -127 -137q-25 -8 -78 -8q-29 0 -72 2 q-139 -649 -231 -940q119 8 186 8q80 0 62 -84q-20 -106 -136 -135q-6 -2 -129 -12q-311 -23 -346 -23q-71 0 -55 72zM399 1579q3 22 43 117q49 123 140 123q72 0 49 -97q-4 -14 -37 -90q-37 -88 -51 -106q-39 -57 -101 -58q-68 0 -43 111zM920 1518q-9 34 0 73 q16 74 63 146q61 92 123 92q63 0 47 -76q-6 -27 -29 -82q-18 -47 -26 -80q-10 -41 -49 -78q-43 -39 -80 -38.5t-49 43.5z" />
<glyph unicode="&#xd1;" horiz-adv-x="1144" d="M78 45q37 170 104 391q90 293 113 389l43 205q72 336 199 336q25 0 47 -43q27 -55 57 -152l51 -151l260 -617l146 631q27 115 28 121q18 68 43 119q57 104 136 104q57 0 38 -80q-20 -104 -102 -446q-92 -391 -104 -449q-35 -166 -72 -237q-23 -49 -68 -98 q-51 -57 -96 -58q-18 0 -41 29q-29 41 -131 283q-74 172 -246 614l-170 -633l-32 -119q-22 -71 -50 -116q-55 -96 -125 -97q-44 0 -28 74zM481 1561q18 84 156 153q121 61 213 62q72 0 172 -51.5t152 -51.5q43 0 106 56q61 53 96 53q29 0 45 -25q14 -25 9 -57 q-2 -20 -29 -55q-51 -74 -144 -125q-90 -51 -170 -52q-66 0 -166 51.5t-163 51.5q-55 0 -129 -43t-94 -43q-70 0 -54 76z" />
<glyph unicode="&#xd2;" d="M170 592q39 195 164 369q129 182 311 280q78 125 340 125q272 0 397 -209q119 -197 58 -473q-61 -289 -262 -479q-215 -207 -498 -207q-273 0 -418 160q-149 166 -92 434zM358 664q-43 -207 76 -338q117 -125 326 -125q184 0 311 118q129 121 170 306q49 238 -63 379 q-113 139 -351 139q-45 0 -151 -58q-257 -136 -318 -421zM795 1890q8 47 57 92q46 43 92 43q35 0 53 -43l62 -184q23 -49 55 -143q8 -27 4 -49q-9 -46 -49 -93q-39 -45 -86 -45q-25 0 -45 25q-33 33 -92 195q-59 163 -51 202z" />
<glyph unicode="&#xd3;" d="M156 592q39 195 163 369q129 182 312 280q82 125 340 125q270 0 397 -209q119 -199 59 -473q-61 -286 -264 -479q-215 -207 -497 -207q-273 0 -418 160q-149 166 -92 434zM346 664q-43 -207 76 -338q113 -125 323 -125q186 0 313.5 118.5t168.5 305.5q49 240 -62 379 q-113 139 -350 139q-45 0 -151 -58q-257 -136 -318 -421zM907 1524q10 43 54 92l256 297q53 59 100 59q61 0 47 -78q-12 -49 -141 -208q-119 -145 -176 -195q-51 -41 -89 -41q-65 0 -51 74z" />
<glyph unicode="&#xd4;" horiz-adv-x="1337" d="M168 592q39 195 164 369q129 182 311 280q82 125 340 125q270 0 397 -209q119 -199 60 -473q-61 -286 -264 -479q-215 -207 -498 -207q-273 0 -418 160q-149 166 -92 434zM358 664q-43 -209 74 -338q113 -125 326 -125q186 0 313 118.5t168 305.5q49 238 -63 379 q-113 139 -349 139q-45 0 -151 -58q-257 -136 -318 -421zM647 1538q8 37 162 221q137 166 195 223q61 61 102 62q45 0 174 -197q129 -195 119 -241q-10 -41 -45 -82q-37 -43 -80 -43q-49 0 -131 135l-107 182l-110 -143q-78 -94 -123 -137q-53 -49 -96 -50q-29 0 -48 21 q-18 21 -12 49z" />
<glyph unicode="&#xd5;" horiz-adv-x="1363" d="M176 592q39 190 166 369q129 182 311 280q82 125 340 125q272 0 398 -209q119 -199 59 -473q-61 -286 -264 -479q-215 -207 -498 -207q-273 0 -418 160q-151 168 -94 434zM369 664q-43 -209 73 -338q113 -125 326 -125q186 0 313 118.5t168 305.5q49 238 -63 379 q-113 139 -348 139q-47 0 -154 -58q-254 -134 -315 -421zM600 1561q18 86 154 153q120 61 215 62q70 0 170 -51.5t151 -51.5q45 0 107 56q59 53 98 53q29 0 45 -25q14 -20 6 -57q-2 -20 -28 -55q-53 -76 -142 -125q-90 -51 -172 -52q-63 0 -163.5 51.5t-166.5 51.5 q-53 0 -126.5 -43t-96.5 -43q-67 0 -51 76z" />
<glyph unicode="&#xd6;" horiz-adv-x="1353" d="M174 592q39 190 166 369q131 184 309 280q82 125 340 125q272 0 400 -209q119 -197 57 -473q-61 -286 -264 -479q-215 -207 -498 -207q-273 0 -418 160q-149 166 -92 434zM365 664q-43 -206 73 -338q117 -125 328 -125q184 0 311 118.5t168 305.5q49 240 -61 379 q-113 139 -350 139q-45 0 -152 -58q-256 -136 -317 -421zM694 1579q3 22 43 117q49 123 140 123q72 0 49 -97q-6 -25 -35 -90q-35 -80 -53 -106q-39 -57 -99 -58q-70 0 -45 111zM1214 1518q-9 34 0 73q14 70 66 146q61 92 121 92q63 0 47 -76q-8 -37 -27 -82 q-25 -57 -28 -80q-10 -45 -50 -78q-45 -39 -79 -38q-38 0 -50 43z" />
<glyph unicode="&#xd7;" horiz-adv-x="1173" d="M295 410q8 41 57 88q39 35 242 190l-96 107q-66 80 -56 127q10 49 56 92q49 45 92 45q25 0 49 -25q31 -25 82 -94l78 -96q305 231 336 231q61 0 43 -90q-12 -57 -111 -141l-156 -119l90 -94q57 -70 46 -117q-8 -41 -54 -88q-43 -45 -84 -45q-37 0 -204 184l-267 -209 q-53 -39 -86 -39q-35 0 -51 29q-14 27 -6 64z" />
<glyph unicode="&#xd8;" d="M168 592q39 195 164 369q129 182 311 280q82 125 340 125q70 0 135 -16q39 88 66 127q53 72 112 71q72 0 56 -78q-10 -41 -82 -190q125 -88 168 -258q41 -162 2 -338q-61 -286 -264 -479q-215 -207 -498 -207q-78 0 -131 10l-47 -82l-44.5 -80l-41.5 -75 q-61 -92 -135 -92.5t-60 69.5q6 27 168 311q-147 74 -203 215q-53 138 -16 318zM358 664q-57 -268 150 -398l496 852q-82 25 -177 25q-45 0 -151 -58q-257 -136 -318 -421zM664 209q53 -8 94 -8q186 0 313 118.5t168 305.5q59 272 -92 413q-82 -153 -483 -829z" />
<glyph unicode="&#xd9;" d="M176 614q25 115 119 336q96 217 172 324q55 74 102 74q66 0 49 -66q-2 -16 -12 -33q0 -2 -135 -280q-84 -168 -109 -285q-49 -233 93 -358q127 -111 368 -111q193 0 299 162q76 117 121 332q23 100 29 284.5t28 284.5q8 43 58 88q47 45 92 45q66 0 47 -274 q-12 -213 -41 -342q-74 -340 -231 -541q-199 -252 -516 -252q-291 0 -439 158q-155 169 -94 454zM811 1890q9 49 55 92q47 43 95 43q35 0 53 -43q8 -23 28.5 -88l30.5 -96q31 -66 57 -143q8 -27 5 -49q-9 -46 -50 -93q-39 -45 -86 -45q-25 0 -47 25q-35 39 -92 195 q-58 159 -49 202z" />
<glyph unicode="&#xda;" d="M166 614q27 125 117 336q96 217 172 324q55 74 102 74q66 0 49 -66q-2 -16 -12 -33q0 -2 -135 -280q-80 -162 -107 -285q-49 -233 90 -358q127 -111 369 -111q193 0 299 162q78 121 123 332q20 90 27 284q6 184 28 285q8 43 58 88q47 45 92 45q68 0 49 -274 q-12 -201 -43 -342q-74 -340 -232 -541q-199 -252 -516 -252q-291 0 -438 158q-153 168 -92 454zM903 1524q10 43 53 92l254 297q53 59 103 59q61 0 47 -78q-12 -49 -141 -208q-115 -141 -179 -195q-51 -41 -88 -41q-64 0 -49 74z" />
<glyph unicode="&#xdb;" horiz-adv-x="1339" d="M176 614q25 115 119 336q96 217 172 324q55 74 102 74q66 0 49 -66q-2 -16 -12 -33q0 -2 -135 -280q-84 -168 -109 -285q-49 -233 93 -358q127 -111 368 -111q193 0 299 162q76 117 121 332q23 100 29 284.5t28 284.5q8 43 58 88q47 45 92 45q66 0 47 -274 q-12 -213 -41 -342q-74 -340 -231 -541q-199 -252 -516 -252q-291 0 -439 158q-155 169 -94 454zM643 1538q8 37 162 221q137 166 194 223q61 61 103 62q43 0 172 -196.5t121 -241.5q-8 -37 -47 -82q-37 -43 -78 -43q-49 0 -133 135l-105 182l-112 -143q-78 -94 -123 -137 q-51 -49 -97 -50q-27 0 -45 21t-12 49z" />
<glyph unicode="&#xdc;" horiz-adv-x="1353" d="M184 614q27 125 117 336q100 225 170 324q55 74 104 74q66 0 50 -66q-2 -16 -13 -33q0 -2 -135 -280q-80 -162 -106 -285q-49 -233 92 -358q127 -111 366 -111q195 0 301 162q76 117 121 332q23 100 29 284q6 195 27 285q8 41 59 88q47 45 90 45q68 0 49 -274 q-12 -201 -43 -342q-74 -342 -229 -541q-199 -252 -516 -252q-293 0 -441 158q-153 168 -92 454zM676 1579q2 8 43 117q49 123 137 123q74 0 51 -97q-4 -14 -37 -90q-37 -88 -51 -106q-39 -57 -98 -58q-70 0 -45 111zM1196 1518q-9 34 0 73q16 74 64 146q61 92 122 92 q63 0 48 -76q-6 -27 -29 -82q-18 -47 -27 -80q-10 -45 -49 -78q-45 -39 -82 -38q-35 0 -47 43z" />
<glyph unicode="&#xdd;" horiz-adv-x="1261" d="M207 156q10 47 51 92q43 47 86 47q2 0 18 -4q264 -78 383 -78q123 0 197 43q76 45 131 158q37 78 88 311q-248 -211 -536 -211q-231 0 -328 152q-94 143 -45 378q72 332 207 332q33 0 47 -24q16 -27 10 -58q-6 -33 -30.5 -96t-30.5 -96q-35 -164 32.5 -264.5 t227.5 -100.5q141 0 276 74q145 78 211 209q23 162 37 225q12 57 51 103q45 51 101 51q98 0 49 -228q-18 -78 -43 -237q-31 -195 -41 -240q-63 -301 -221 -485q-184 -209 -478 -209q-96 0 -223 27q-150 27 -201 69q-32 25 -26 60zM836 1524q10 43 53 92l256 297 q57 59 100 59q61 0 47 -78q-12 -49 -141 -208q-119 -145 -176 -195q-51 -41 -88 -41q-67 0 -51 74z" />
<glyph unicode="&#xde;" horiz-adv-x="1259" d="M242 82l57 203q-4 12 0 39q0 2 23 53q16 31 38 141q23 102 91 361q-31 16 -23 59q12 61 68 106q15 74 67 216q59 113 148 112q37 0 34 -63q-2 -37 -16 -107q-2 -8 -7 -30.5t-7 -34.5l-17 -66q383 -18 560.5 -104t144.5 -238q-74 -342 -924 -461q-37 -127 -55 -168 q-49 -98 -135 -98q-63 0 -47 80zM541 469q151 28 362 86q295 80 305 127q14 63 -126 106t-437 68q-49 -197 -104 -387z" />
<glyph unicode="&#xdf;" horiz-adv-x="1437" d="M213 -430q33 145 51 397q27 348 33 398q16 133 47 280q55 258 172 434q150 221 381 273q76 14 166 14q178 0 289 -70q133 -86 96 -252q-37 -170 -236 -296q121 -37 197 -121q82 -94 57 -221q-43 -199 -247 -310q-176 -96 -385 -96q-180 0 -250 29q-49 20 -39 67 q12 51 53 90t92 39q45 0 108.5 -8t106.5 -8q90 0 201 33q144 46 160 110q16 78 -92 146q-120 74 -357 73q-82 0 -65 78q18 80 106 131q33 18 143 54q102 31 160 63q80 47 92 104q18 90 -116 129q-80 23 -213 23t-205 -59q-127 -102 -203 -459q-34 -166 -61 -492 q-27 -311 -64 -493q-33 -162 -131 -162q-65 0 -47 82z" />
<glyph unicode="&#xe0;" horiz-adv-x="1064" d="M49 53q9 46 264 473l314 525l41.5 70.5l48.5 82.5q55 86 108.5 145.5t98.5 59.5t59 -63q20 -96 21 -230v-233q35 -272 63 -727q0 -20 -2 -27q-8 -43 -57 -92q-47 -47 -90 -47q-51 0 -68 176q-43 -6 -109 -6h-84q-20 0 -48.5 1t-35.5 1h-292q-102 -182 -179 -182 q-69 -1 -53 73zM369 313h458q-33 279 -39 707zM741 1911q8 47 58 92q46 43 92 43q35 0 53 -41q6 -23 28.5 -87.5t33.5 -98.5q23 -49 55 -144q9 -31 6 -49q-8 -43 -51 -92q-39 -45 -86 -45q-27 0 -47 22q-35 39 -92 197q-58 162 -50 203z" />
<glyph unicode="&#xe1;" horiz-adv-x="1071" d="M25 53q9 46 264 473l315 525l88 153q55 86 108.5 145.5t98.5 59.5q47 0 62 -63q18 -86 18 -230v-114.5t1 -84t1 -34.5q35 -299 61 -727q0 -20 -2 -27q-8 -43 -57 -92q-47 -47 -88 -47q-53 0 -70 176q-43 -6 -106 -6h-86q-20 0 -49 1t-35 1h-293q-102 -182 -178 -182 q-69 -1 -53 73zM344 313h461q-33 279 -39 707zM862 1563q9 40 56 92l253 297q55 57 101 57q63 0 47 -78q-12 -51 -141 -207q-117 -147 -177 -196q-47 -39 -88 -39q-65 0 -51 74z" />
<glyph unicode="&#xe2;" horiz-adv-x="1081" d="M45 53q9 46 264 473l316 525l88 153q55 86 108 145.5t99 59.5q47 0 61 -63q18 -86 18 -230v-114.5t1 -84t1 -34.5q35 -299 62 -727q0 -20 -2 -27q-8 -43 -57 -92q-47 -47 -91 -47q-51 0 -67 176q-43 -6 -107 -6h-86q-20 0 -49 1t-35 1h-293q-102 -182 -178 -182 q-69 -1 -53 73zM367 313h458q-35 299 -41 707q-7 -15 -417 -707zM561 1538q8 37 162 221q137 166 195 223q61 61 102 62q43 0 172 -196.5t121 -241.5q-8 -37 -47 -82q-37 -43 -78 -43q-49 0 -133 135l-105 182l-112 -143q-78 -94 -123 -137q-51 -49 -97 -50q-27 0 -45 21 t-12 49z" />
<glyph unicode="&#xe3;" horiz-adv-x="1153" d="M70 53q9 46 264 473l313 525l42 70.5l48 82.5q55 86 108.5 145.5t98.5 59.5q47 0 62 -63q18 -86 18 -230v-233q35 -299 61 -727q0 -20 -2 -27q-9 -46 -55 -92q-47 -47 -90 -47q-51 0 -68 176q-43 -6 -106 -6h-86q-20 0 -49 1t-35 1h-295q-102 -182 -176 -182 q-69 -1 -53 73zM389 313h461q-35 299 -41 707zM502 1561q18 86 153 153q119 61 213 62q72 0 172.5 -51.5t151.5 -51.5q45 0 106 56q59 53 99 53q29 0 45 -25q14 -20 6 -57q-2 -20 -29 -55q-53 -76 -141 -125q-90 -51 -172 -52q-66 0 -166 51.5t-164 51.5q-55 0 -129 -43 t-94 -43q-67 0 -51 76z" />
<glyph unicode="&#xe4;" horiz-adv-x="1112" d="M57 53q9 46 265 473l315 525l88 153q55 86 108.5 145.5t98.5 59.5q47 0 61 -63q18 -86 19 -230v-114.5t1 -84t1 -34.5q31 -260 59 -727q0 -20 -2 -27q-9 -46 -55 -92q-47 -47 -90 -47q-51 0 -68 176q-43 -6 -106 -6h-86q-20 0 -49 1t-35 1h-293q-102 -182 -178 -182 q-70 -1 -54 73zM379 313h459q-35 299 -41 707q-8 -15 -418 -707zM610 1579q3 22 43 117q49 123 140 123q72 0 49 -97q-6 -25 -35 -90q-35 -80 -53 -106q-39 -57 -99 -58q-70 0 -45 111zM1130 1518q-8 31 3 73q16 80 61 146q61 92 123 92q66 0 49 -76q-6 -27 -29 -82 q-25 -57 -28 -80q-10 -41 -49 -78q-43 -39 -80.5 -38.5t-49.5 43.5z" />
<glyph unicode="&#xe5;" horiz-adv-x="1128" d="M45 53q9 46 264 473l316 525l88 153q55 86 108 145.5t99 59.5q47 0 61 -63q18 -86 18 -230v-114.5t1 -84t1 -34.5q35 -299 62 -727q0 -20 -2 -27q-8 -43 -57 -92q-47 -47 -91 -47q-51 0 -67 176q-43 -6 -107 -6h-86q-20 0 -49 1t-35 1h-293q-102 -182 -178 -182 q-69 -1 -53 73zM367 313h458q-35 299 -41 707q-7 -15 -417 -707zM698 1825q37 170 142 241q37 80 172 142q115 53 213 53q131 0 207 -88q74 -86 45 -219q-37 -174 -203 -309.5t-340 -135.5q-132 0 -197 93q-66 94 -39 223zM877 1870q-16 -76 28.5 -117t120.5 -41 q84 0 166 57q78 53 96 140q14 66 -39 106q-49 37 -114 37q-49 0 -109 -27l-102 -51q-39 -65 -47 -104z" />
<glyph unicode="&#xe6;" horiz-adv-x="1792" d="M57 49q2 14 146 250l432 752l42.5 72.5l33 54l14.5 22.5q41 63 106 146q47 59 101 59q47 0 59 -66q16 -98 17 -235q-4 -219 0 -244q63 152 94 268q-31 10 -23 58q10 45 43 84q35 41 76 47q35 23 74 22q14 0 24 -6q80 12 467 35q45 2 86 5t59 4l17 1q66 0 53 -61 q-18 -84 -106 -111q-14 -4 -193 -20q-184 -14 -399 -39q-18 -63 -139 -365q195 37 428 37q86 0 69 -76q-20 -94 -116 -114q-31 -8 -142 -17q-145 -14 -309 -22q-12 -39 -18 -78q-68 -322 147 -322q82 0 254 50q180 51 252 51q45 0 64.5 -15.5t13.5 -46.5q-23 -100 -129 -133 q-12 -4 -103 -20q-111 -18 -188 -43q-201 -57 -246 -58q-113 0 -188 60q-74 57 -86 164h-533q-66 -115 -84 -140q-63 -88 -118 -88q-68 0 -52 78zM403 350h424q-35 254 -32 656z" />
<glyph unicode="&#xe8;" horiz-adv-x="1036" d="M145 444q29 131 119 351q94 231 125 348q-29 12 -20 57q20 100 112 125q41 35 78 35q16 0 29 -14q298 43 626 43q63 0 52 -60q-16 -78 -109 -108q-29 -10 -190 -21q-115 -8 -400 -39q-16 -59 -139 -360q168 29 420 28q45 0 65.5 -19t12.5 -56q-18 -84 -117 -113 q-35 -8 -131 -14q-102 -6 -318 -25q-4 -16 -10 -44t-8 -32q-68 -326 145 -325q78 0 248 53t250 53q47 0 67.5 -15.5t14.5 -47.5q-25 -115 -174 -154l-242 -45l-61 -17.5l-62 -17.5q-70 -20 -122 -20q-357 -1 -261 454zM707 1888q8 45 57 90q46 43 92 43q37 0 55 -41 q14 -47 60 -186q25 -55 55 -141q9 -31 6 -49q-8 -45 -51 -95q-39 -45 -84 -45q-29 0 -49 25q-29 31 -90 194q-61 160 -51 205z" />
<glyph unicode="&#xe9;" horiz-adv-x="1042" d="M127 444q27 121 121 351q94 231 125 348q-31 12 -23 57q20 100 115 125q41 35 78 35q16 0 28 -14q298 43 627 43q61 0 49 -60q-16 -78 -106 -108q-29 -10 -191 -21q-115 -8 -399 -39q-16 -59 -139 -360q168 29 419 28q92 0 76 -75q-18 -84 -116 -113q-35 -8 -129 -14 q-115 -6 -320 -25q-4 -16 -10 -44t-8 -32q-68 -326 145 -325q80 0 250 53t250 53q47 0 67.5 -15.5t14.5 -47.5q-25 -115 -174 -154l-242 -45q-20 -6 -61.5 -17.5t-61.5 -17.5q-70 -20 -123 -20q-356 -1 -262 454zM782 1524q10 43 54 92l256 297q57 59 100 59q61 0 47 -78 q-12 -53 -139 -208q-115 -141 -178 -195q-51 -41 -88 -41q-68 0 -52 74z" />
<glyph unicode="&#xea;" horiz-adv-x="1052" d="M143 444q29 131 119 351q94 231 125 348q-29 12 -20 57q20 100 112 125q41 35 80 35q18 0 27 -14q298 43 626 43q63 0 52 -60q-16 -78 -107 -108q-31 -10 -192 -21q-115 -8 -400 -39q-23 -76 -137 -360q166 29 420 28q92 0 76 -75q-18 -84 -117 -113q-35 -8 -131 -14 q-109 -6 -318 -25q-4 -16 -10 -44t-8 -32q-68 -326 145 -325q80 0 250 53t248 53q47 0 68.5 -15.5t15.5 -47.5q-25 -113 -176 -154l-242 -45l-61 -17.5l-62 -17.5q-68 -20 -123 -20q-354 -1 -260 454zM526 1538q8 37 162 221q137 166 195 223q61 61 102 62q43 0 172 -196.5 t121 -241.5q-10 -41 -45 -82q-37 -43 -80 -43q-47 0 -131 135l-107 182l-110 -143q-78 -94 -123 -137q-51 -49 -96 -50q-29 0 -47 21q-19 21 -13 49z" />
<glyph unicode="&#xeb;" horiz-adv-x="1077" d="M152 444q29 131 118 351q100 244 127 348q-31 12 -22 57q20 100 114 125q41 35 78 35q16 0 29 -14q298 43 627 43q61 0 49 -60q-16 -78 -107 -108q-29 -10 -190 -21q-115 -8 -400 -39q-16 -59 -139 -360q168 29 418 28q45 0 65.5 -19t12.5 -56q-18 -84 -117 -113 q-35 -8 -131 -14q-109 -6 -317 -25l-10.5 -44t-8.5 -32q-68 -326 146 -325q80 0 249.5 53t247.5 53q47 0 67.5 -15.5t14.5 -47.5q-25 -115 -174 -154l-240 -45q-23 -6 -65.5 -18.5t-58.5 -16.5q-68 -20 -121 -20q-356 -1 -262 454zM565 1579q3 22 43 117q49 123 140 123 q74 0 51 -97q-4 -14 -37 -90q-37 -88 -51 -106q-39 -57 -101 -58q-70 0 -45 111zM1087 1518q-9 34 0 73q16 74 64 146q61 92 123 92q63 0 47 -76q-6 -27 -29 -82q-18 -47 -26 -80q-10 -45 -49 -78q-45 -39 -82 -38q-36 0 -48 43z" />
<glyph unicode="&#xec;" horiz-adv-x="460" d="M162 86q43 199 92 383q78 295 98 381l51 242q63 295 203 294q63 0 35 -133q-37 -176 -119 -487q-92 -348 -121 -487q-61 -281 -190 -281q-67 0 -49 88zM440 1890q8 47 58 92q46 43 92 43q35 0 53 -43l59 -184q31 -66 58 -143q8 -27 4 -49q-9 -46 -49 -93q-39 -45 -86 -45 q-27 0 -47 25q-33 33 -93 195q-58 159 -49 202z" />
<glyph unicode="&#xed;" horiz-adv-x="468" d="M68 86q43 199 92 383q92 348 100 381l51 242q66 295 201 294q63 0 35 -133q-37 -176 -119 -487q-92 -348 -121 -487q-61 -281 -190 -281q-67 0 -49 88zM401 1524q10 43 54 92l254 297q53 59 102 59q59 0 45 -78q-12 -53 -139 -208q-115 -141 -178 -195q-51 -41 -88 -41 q-65 0 -50 74z" />
<glyph unicode="&#xee;" horiz-adv-x="776" d="M289 86q35 158 94 383q78 295 98 381l51 242q66 295 203 294q61 0 33 -133q-37 -176 -119 -487t-119 -487q-61 -281 -190 -281q-69 0 -51 88zM348 1538q8 35 164 221q137 166 195 223q61 61 102 62q43 0 172 -197q129 -195 119 -241q-10 -41 -45 -82q-37 -43 -80 -43 q-49 0 -131 135l-105 182l-112 -143q-78 -94 -123 -137q-53 -49 -96 -50q-29 0 -48 21q-18 21 -12 49z" />
<glyph unicode="&#xef;" horiz-adv-x="784" d="M281 86q35 158 94 383q78 295 98 381l51 242q66 295 203 294q61 0 33 -133q-25 -115 -119 -487.5t-119 -486.5q-61 -281 -192 -281q-67 0 -49 88zM375 1579q2 16 41 117q49 123 139 123q72 0 49 -97q-6 -25 -35 -90q-35 -80 -53 -106q-39 -57 -98 -58q-68 0 -43 111z M895 1518q-9 34 0 73q16 74 63 146q61 92 121 92q63 0 47 -76q-8 -37 -26 -82q-25 -57 -29 -80q-10 -45 -49 -78q-45 -39 -80 -38.5t-47 43.5z" />
<glyph unicode="&#xf1;" horiz-adv-x="1144" d="M78 45q37 170 104 391q90 293 113 389l43 205q72 336 199 336q25 0 47 -43q27 -55 57 -152l51 -151l260 -617l146 631q27 115 28 121q18 68 43 119q57 104 136 104q57 0 38 -80q-20 -104 -102 -446q-92 -391 -104 -449q-35 -166 -72 -237q-23 -49 -68 -98 q-51 -57 -96 -58q-18 0 -41 29q-29 41 -131 283q-74 172 -246 614l-170 -633l-32 -119q-22 -71 -50 -116q-55 -96 -125 -97q-44 0 -28 74zM481 1561q18 84 156 153q121 61 213 62q72 0 172 -51.5t152 -51.5q43 0 106 56q61 53 96 53q29 0 45 -25q14 -25 9 -57 q-2 -20 -29 -55q-51 -74 -144 -125q-90 -51 -170 -52q-66 0 -166 51.5t-163 51.5q-55 0 -129 -43t-94 -43q-70 0 -54 76z" />
<glyph unicode="&#xf2;" horiz-adv-x="1144" d="M78 45q37 170 104 391q90 293 113 389l43 205q72 336 199 336q25 0 47 -43q27 -55 57 -152l51 -151l260 -617l146 631q27 115 28 121q18 68 43 119q57 104 136 104q57 0 38 -80q-20 -104 -102 -446q-92 -391 -104 -449q-35 -166 -72 -237q-23 -49 -68 -98 q-51 -57 -96 -58q-18 0 -41 29q-29 41 -131 283q-74 172 -246 614l-170 -633l-32 -119q-22 -71 -50 -116q-55 -96 -125 -97q-44 0 -28 74zM481 1561q18 84 156 153q121 61 213 62q72 0 172 -51.5t152 -51.5q43 0 106 56q61 53 96 53q29 0 45 -25q14 -25 9 -57 q-2 -20 -29 -55q-51 -74 -144 -125q-90 -51 -170 -52q-66 0 -166 51.5t-163 51.5q-55 0 -129 -43t-94 -43q-70 0 -54 76z" />
<glyph unicode="&#xf3;" d="M170 592q39 195 164 369q129 182 311 280q78 125 340 125q272 0 397 -209q119 -197 58 -473q-61 -289 -262 -479q-215 -207 -498 -207q-273 0 -418 160q-149 166 -92 434zM358 664q-43 -207 76 -338q117 -125 326 -125q184 0 311 118q129 121 170 306q49 238 -63 379 q-113 139 -351 139q-45 0 -151 -58q-257 -136 -318 -421zM795 1890q8 47 57 92q46 43 92 43q35 0 53 -43l62 -184q23 -49 55 -143q8 -27 4 -49q-9 -46 -49 -93q-39 -45 -86 -45q-25 0 -45 25q-33 33 -92 195q-59 163 -51 202z" />
<glyph unicode="&#xf4;" d="M156 592q39 195 163 369q129 182 312 280q82 125 340 125q270 0 397 -209q119 -199 59 -473q-61 -286 -264 -479q-215 -207 -497 -207q-273 0 -418 160q-149 166 -92 434zM346 664q-43 -207 76 -338q113 -125 323 -125q186 0 313.5 118.5t168.5 305.5q49 240 -62 379 q-113 139 -350 139q-45 0 -151 -58q-257 -136 -318 -421zM907 1524q10 43 54 92l256 297q53 59 100 59q61 0 47 -78q-12 -49 -141 -208q-119 -145 -176 -195q-51 -41 -89 -41q-65 0 -51 74z" />
<glyph unicode="&#xf5;" horiz-adv-x="1337" d="M168 592q39 195 164 369q129 182 311 280q82 125 340 125q270 0 397 -209q119 -199 60 -473q-61 -286 -264 -479q-215 -207 -498 -207q-273 0 -418 160q-149 166 -92 434zM358 664q-43 -209 74 -338q113 -125 326 -125q186 0 313 118.5t168 305.5q49 238 -63 379 q-113 139 -349 139q-45 0 -151 -58q-257 -136 -318 -421zM647 1538q8 37 162 221q137 166 195 223q61 61 102 62q45 0 174 -197q129 -195 119 -241q-10 -41 -45 -82q-37 -43 -80 -43q-49 0 -131 135l-107 182l-110 -143q-78 -94 -123 -137q-53 -49 -96 -50q-29 0 -48 21 q-18 21 -12 49z" />
<glyph unicode="&#xf6;" horiz-adv-x="1363" d="M176 592q39 190 166 369q129 182 311 280q82 125 340 125q272 0 398 -209q119 -199 59 -473q-61 -286 -264 -479q-215 -207 -498 -207q-273 0 -418 160q-151 168 -94 434zM369 664q-43 -209 73 -338q113 -125 326 -125q186 0 313 118.5t168 305.5q49 238 -63 379 q-113 139 -348 139q-47 0 -154 -58q-254 -134 -315 -421zM600 1561q18 86 154 153q120 61 215 62q70 0 170 -51.5t151 -51.5q45 0 107 56q59 53 98 53q29 0 45 -25q14 -20 6 -57q-2 -20 -28 -55q-53 -76 -142 -125q-90 -51 -172 -52q-63 0 -163.5 51.5t-166.5 51.5 q-53 0 -126.5 -43t-96.5 -43q-67 0 -51 76z" />
<glyph unicode="&#xf7;" horiz-adv-x="823" d="M197 690q31 145 272 146h389q45 0 65.5 -15.5t12.5 -48.5q-20 -104 -127 -133q-45 -10 -139 -10q-55 0 -205 -11q-121 -8 -205 -8q-81 0 -63 80zM342 307q12 55 66 119q55 72 108 72q72 0 53 -90q-14 -63 -61 -119q-51 -63 -113 -64q-31 0 -45 24.5t-8 57.5zM569 1026 q12 53 60 111q55 61 106 61q74 0 56 -80q-12 -57 -62 -108q-55 -57 -108 -58q-68 0 -52 74z" />
<glyph unicode="&#xf8;" d="M168 592q39 195 164 369q129 182 311 280q82 125 340 125q70 0 135 -16q39 88 66 127q53 72 112 71q72 0 56 -78q-10 -41 -82 -190q125 -88 168 -258q41 -162 2 -338q-61 -286 -264 -479q-215 -207 -498 -207q-78 0 -131 10l-47 -82l-44.5 -80l-41.5 -75 q-61 -92 -135 -92.5t-60 69.5q6 27 168 311q-147 74 -203 215q-53 138 -16 318zM358 664q-57 -268 150 -398l496 852q-82 25 -177 25q-45 0 -151 -58q-257 -136 -318 -421zM664 209q53 -8 94 -8q186 0 313 118.5t168 305.5q59 272 -92 413q-82 -153 -483 -829z" />
<glyph unicode="&#xf9;" d="M176 614q25 115 119 336q96 217 172 324q55 74 102 74q66 0 49 -66q-2 -16 -12 -33q0 -2 -135 -280q-84 -168 -109 -285q-49 -233 93 -358q127 -111 368 -111q193 0 299 162q76 117 121 332q23 100 29 284.5t28 284.5q8 43 58 88q47 45 92 45q66 0 47 -274 q-12 -213 -41 -342q-74 -340 -231 -541q-199 -252 -516 -252q-291 0 -439 158q-155 169 -94 454zM811 1890q9 49 55 92q47 43 95 43q35 0 53 -43q8 -23 28.5 -88l30.5 -96q31 -66 57 -143q8 -27 5 -49q-9 -46 -50 -93q-39 -45 -86 -45q-25 0 -47 25q-35 39 -92 195 q-58 159 -49 202z" />
<glyph unicode="&#xfa;" d="M166 614q27 125 117 336q96 217 172 324q55 74 102 74q66 0 49 -66q-2 -16 -12 -33q0 -2 -135 -280q-80 -162 -107 -285q-49 -233 90 -358q127 -111 369 -111q193 0 299 162q78 121 123 332q20 90 27 284q6 184 28 285q8 43 58 88q47 45 92 45q68 0 49 -274 q-12 -201 -43 -342q-74 -340 -232 -541q-199 -252 -516 -252q-291 0 -438 158q-153 168 -92 454zM903 1524q10 43 53 92l254 297q53 59 103 59q61 0 47 -78q-12 -49 -141 -208q-115 -141 -179 -195q-51 -41 -88 -41q-64 0 -49 74z" />
<glyph unicode="&#xfb;" horiz-adv-x="1339" d="M176 614q25 115 119 336q96 217 172 324q55 74 102 74q66 0 49 -66q-2 -16 -12 -33q0 -2 -135 -280q-84 -168 -109 -285q-49 -233 93 -358q127 -111 368 -111q193 0 299 162q76 117 121 332q23 100 29 284.5t28 284.5q8 43 58 88q47 45 92 45q66 0 47 -274 q-12 -213 -41 -342q-74 -340 -231 -541q-199 -252 -516 -252q-291 0 -439 158q-155 169 -94 454zM643 1538q8 37 162 221q137 166 194 223q61 61 103 62q43 0 172 -196.5t121 -241.5q-8 -37 -47 -82q-37 -43 -78 -43q-49 0 -133 135l-105 182l-112 -143q-78 -94 -123 -137 q-51 -49 -97 -50q-27 0 -45 21t-12 49z" />
<glyph unicode="&#xfc;" horiz-adv-x="1353" d="M184 614q27 125 117 336q100 225 170 324q55 74 104 74q66 0 50 -66q-2 -16 -13 -33q0 -2 -135 -280q-80 -162 -106 -285q-49 -233 92 -358q127 -111 366 -111q195 0 301 162q76 117 121 332q23 100 29 284q6 195 27 285q8 41 59 88q47 45 90 45q68 0 49 -274 q-12 -201 -43 -342q-74 -342 -229 -541q-199 -252 -516 -252q-293 0 -441 158q-153 168 -92 454zM676 1579q2 8 43 117q49 123 137 123q74 0 51 -97q-4 -14 -37 -90q-37 -88 -51 -106q-39 -57 -98 -58q-70 0 -45 111zM1196 1518q-9 34 0 73q16 74 64 146q61 92 122 92 q63 0 48 -76q-6 -27 -29 -82q-18 -47 -27 -80q-10 -45 -49 -78q-45 -39 -82 -38q-35 0 -47 43z" />
<glyph unicode="&#xfd;" horiz-adv-x="1261" d="M207 156q10 47 51 92q43 47 86 47q2 0 18 -4q264 -78 383 -78q123 0 197 43q76 45 131 158q37 78 88 311q-248 -211 -536 -211q-231 0 -328 152q-94 143 -45 378q72 332 207 332q33 0 47 -24q16 -27 10 -58q-6 -33 -30.5 -96t-30.5 -96q-35 -164 32.5 -264.5 t227.5 -100.5q141 0 276 74q145 78 211 209q23 162 37 225q12 57 51 103q45 51 101 51q98 0 49 -228q-18 -78 -43 -237q-31 -195 -41 -240q-63 -301 -221 -485q-184 -209 -478 -209q-96 0 -223 27q-150 27 -201 69q-32 25 -26 60zM836 1524q10 43 53 92l256 297 q57 59 100 59q61 0 47 -78q-12 -49 -141 -208q-119 -145 -176 -195q-51 -41 -88 -41q-67 0 -51 74z" />
<glyph unicode="&#xfe;" horiz-adv-x="1259" d="M242 82l57 203q-4 12 0 39q0 2 23 53q16 31 38 141q23 102 91 361q-31 16 -23 59q12 61 68 106q15 74 67 216q59 113 148 112q37 0 34 -63q-2 -37 -16 -107q-2 -8 -7 -30.5t-7 -34.5l-17 -66q383 -18 560.5 -104t144.5 -238q-74 -342 -924 -461q-37 -127 -55 -168 q-49 -98 -135 -98q-63 0 -47 80zM541 469q151 28 362 86q295 80 305 127q14 63 -126 106t-437 68q-49 -197 -104 -387z" />
<glyph unicode="&#xff;" horiz-adv-x="1290" d="M227 156q10 47 52 92q43 47 88 47l16 -4q262 -78 383 -78q119 0 197 43q74 41 131 158q37 78 88 311q-248 -211 -537 -211q-231 0 -330 152q-94 143 -45 378q71 332 209 332q33 0 47 -24q16 -27 11 -58q-6 -33 -31 -96t-31 -96q-35 -164 32.5 -264.5t227.5 -100.5 q141 0 277 74q145 78 211 209q23 162 37 225q12 55 53 103q45 51 98 51q96 0 47 -228q-12 -49 -41 -237q-31 -195 -41 -240q-63 -307 -221 -485q-180 -209 -477 -209q-96 0 -223 27q-150 27 -201 69q-33 25 -27 60zM625 1579q3 22 43 117q49 123 139 123q72 0 49 -97 q-4 -14 -37 -90q-37 -88 -51 -106q-39 -57 -98 -58q-70 0 -45 111zM1145 1518q-9 34 0 73q16 74 63 146q61 92 123 92q63 0 47 -76q-6 -27 -28 -82q-18 -47 -27 -80q-10 -45 -49 -78q-45 -39 -80 -38q-37 0 -49 43z" />
<glyph unicode="&#x152;" horiz-adv-x="2398" d="M324 614q39 188 161 365q127 174 308 274q27 49 79 76q90 47 258 47q326 0 435 -293l14 45q-35 12 -27 58q12 55 76 106q66 53 117 54q16 0 29 -13q33 6 458 35q41 2 82 5t58.5 4t21.5 1q61 0 49 -61q-20 -84 -106 -111q-23 -8 -189 -20q-164 -14 -395 -39 q-25 -82 -133 -356q172 33 420 32q84 0 67 -75q-18 -92 -114 -113l-16 -1q-15 -1 -52 -4t-80 -5q-80 -12 -293 -33q-8 -23 -22 -74q-68 -317 145 -317q86 0 246 51t246 51q49 0 70.5 -14.5t13.5 -46.5q-23 -96 -127 -136q-55 -20 -144 -34q-84 -12 -141 -27l-123 -35 q-68 -20 -123 -20q-115 0 -192 61q-76 61 -82 174q-215 -209 -500 -209q-268 0 -409 166q-143 168 -86 432zM510 678q-43 -197 82 -328q117 -125 317 -125q178 0 312 121q127 115 163 295q49 236 -61 375q-111 137 -346 137q-45 0 -152 -57q-123 -66 -204.5 -176.5 t-110.5 -241.5z" />
<glyph unicode="&#x153;" horiz-adv-x="2398" d="M324 614q39 188 161 365q127 174 308 274q27 49 79 76q90 47 258 47q326 0 435 -293l14 45q-35 12 -27 58q12 55 76 106q66 53 117 54q16 0 29 -13q33 6 458 35q41 2 82 5t58.5 4t21.5 1q61 0 49 -61q-20 -84 -106 -111q-23 -8 -189 -20q-164 -14 -395 -39 q-25 -82 -133 -356q172 33 420 32q84 0 67 -75q-18 -92 -114 -113l-16 -1q-15 -1 -52 -4t-80 -5q-80 -12 -293 -33q-8 -23 -22 -74q-68 -317 145 -317q86 0 246 51t246 51q49 0 70.5 -14.5t13.5 -46.5q-23 -96 -127 -136q-55 -20 -144 -34q-84 -12 -141 -27l-123 -35 q-68 -20 -123 -20q-115 0 -192 61q-76 61 -82 174q-215 -209 -500 -209q-268 0 -409 166q-143 168 -86 432zM510 678q-43 -197 82 -328q117 -125 317 -125q178 0 312 121q127 115 163 295q49 236 -61 375q-111 137 -346 137q-45 0 -152 -57q-123 -66 -204.5 -176.5 t-110.5 -241.5z" />
<glyph unicode="&#x160;" horiz-adv-x="1441" d="M236 170q12 53 55 90t94 37q33 0 150 -31q181 -49 362 -49q72 0 131 14q94 18 105 60q10 53 -42.5 98t-168.5 80q-393 119 -428 137q-224 114 -179 326q47 219 312 336q207 94 450 94q396 0 350 -209q-12 -59 -71 -137q-70 -88 -123 -88q-29 0 -45 30q-16 25 -6 62 q10 47 41 78q-68 49 -246 49q-274 0 -432 -121q-27 -20 -33 -41q-27 -137 203 -211l434 -127q225 -100 182 -301q-41 -184 -217 -276q-145 -76 -344 -76q-111 0 -260 24q-174 27 -236 70q-48 33 -38 82zM821 1845q8 43 53 90q43 45 87 45q20 0 43 -28q27 -39 73 -131 q41 -86 72 -131q68 40 160 116l153 127q51 35 74 35q61 0 43 -80q-8 -37 -41 -78q-61 -76 -215 -188q-152 -111 -242 -147q-18 -6 -28 -7q-27 0 -49 21q-31 28 -99 141t-80 162q-10 30 -4 53z" />
<glyph unicode="&#x161;" horiz-adv-x="1441" d="M236 170q12 53 55 90t94 37q33 0 150 -31q181 -49 362 -49q72 0 131 14q94 18 105 60q10 53 -42.5 98t-168.5 80q-393 119 -428 137q-224 114 -179 326q47 219 312 336q207 94 450 94q396 0 350 -209q-12 -59 -71 -137q-70 -88 -123 -88q-29 0 -45 30q-16 25 -6 62 q10 47 41 78q-68 49 -246 49q-274 0 -432 -121q-27 -20 -33 -41q-27 -137 203 -211l434 -127q225 -100 182 -301q-41 -184 -217 -276q-145 -76 -344 -76q-111 0 -260 24q-174 27 -236 70q-48 33 -38 82zM821 1845q8 43 53 90q43 45 87 45q20 0 43 -28q27 -39 73 -131 q41 -86 72 -131q68 40 160 116l153 127q51 35 74 35q61 0 43 -80q-8 -37 -41 -78q-61 -76 -215 -188q-152 -111 -242 -147q-18 -6 -28 -7q-27 0 -49 21q-31 28 -99 141t-80 162q-10 30 -4 53z" />
<glyph unicode="&#x178;" horiz-adv-x="1513" d="M326 156q10 47 51 92q43 47 86 47l16 -4q264 -78 383 -78q121 0 199 43q74 41 131 158q37 78 88 311q-248 -211 -539 -211q-229 0 -327 152q-94 143 -45 378q71 332 209 332q33 0 47 -24.5t8 -57t-30.5 -96t-31.5 -96.5q-35 -164 33 -264.5t230 -100.5q141 0 276 74 q145 78 211 209q23 162 37 225q12 57 51 103q45 51 100 51q96 0 47 -228q-12 -49 -40 -237q-31 -195 -41 -240q-63 -303 -224 -485q-182 -209 -477 -209q-94 0 -221 27q-152 29 -203 69q-30 23 -24 60zM723 1579q2 16 41 117q49 123 139 123q72 0 49 -97q-6 -25 -34 -90 q-35 -80 -54 -106q-39 -57 -98 -58q-68 0 -43 111zM1241 1518q-8 31 2 73q16 74 64 146q61 92 120 92q66 0 50 -76q-6 -27 -29 -82q-25 -57 -29 -80q-10 -45 -49 -78q-45 -39 -80 -38q-37 0 -49 43z" />
<glyph unicode="&#x17d;" horiz-adv-x="1517" d="M172 68q8 37 51 94q61 78 160 164l174 149q223 197 715 670q-512 27 -686 26q-95 0 -142 13q-53 16 -43 59q12 51 56 94q41 41 94 41q8 0 186 -10q31 -2 158 -6t221 -8l183.5 -7.5t129 -5.5t48.5 -2q49 0 70.5 -16t13.5 -49q-10 -45 -52 -100q-92 -119 -340 -353 l-680 -620q121 2 451 35q303 29 453 28q59 0 45 -65q-18 -92 -123 -131q-43 -18 -279 -35q-610 -39 -790 -39q-90 0 -74 74zM844 1845q8 43 53 90q43 45 84 45q23 0 45 -28q27 -39 74 -131q41 -86 71 -131q68 40 160 116l154 127q51 35 74 35q61 0 43 -80q-8 -37 -41 -78 q-61 -76 -215 -188q-152 -111 -242 -147q-18 -6 -29 -7q-27 0 -49 21q-35 31 -100 141q-63 106 -78 162q-10 30 -4 53z" />
<glyph unicode="&#x17e;" horiz-adv-x="1517" d="M172 68q8 37 51 94q61 78 160 164l174 149q223 197 715 670q-512 27 -686 26q-95 0 -142 13q-53 16 -43 59q12 51 56 94q41 41 94 41q8 0 186 -10q31 -2 158 -6t221 -8l183.5 -7.5t129 -5.5t48.5 -2q49 0 70.5 -16t13.5 -49q-10 -45 -52 -100q-92 -119 -340 -353 l-680 -620q121 2 451 35q303 29 453 28q59 0 45 -65q-18 -92 -123 -131q-43 -18 -279 -35q-610 -39 -790 -39q-90 0 -74 74zM844 1845q8 43 53 90q43 45 84 45q23 0 45 -28q27 -39 74 -131q41 -86 71 -131q68 40 160 116l154 127q51 35 74 35q61 0 43 -80q-8 -37 -41 -78 q-61 -76 -215 -188q-152 -111 -242 -147q-18 -6 -29 -7q-27 0 -49 21q-35 31 -100 141q-63 106 -78 162q-10 30 -4 53z" />
<glyph unicode="&#x2c6;" horiz-adv-x="985" d="M453 1538q8 37 161 221q127 154 197 223q61 61 100 62q45 0 174 -197q129 -195 119 -241q-10 -41 -45 -82q-37 -43 -80 -43q-51 0 -133 135l-102 182l-113 -143q-78 -94 -123 -137q-51 -49 -96 -50q-29 0 -47 21t-12 49z" />
<glyph unicode="&#x2c7;" horiz-adv-x="1024" d="M547 1845q8 43 53 90q43 45 86 45q20 0 43 -28q27 -39 74 -131q41 -86 71 -131q68 40 160 116l154 127q47 35 74 35q61 0 43 -80q-8 -37 -41 -78q-61 -76 -215 -188q-152 -111 -242 -147q-18 -6 -29 -7q-27 0 -49 21q-35 31 -100 141q-63 106 -78 162q-10 30 -4 53z" />
<glyph unicode="&#x2c9;" horiz-adv-x="1142" d="M549 1548q22 98 129 129q59 16 184 17h350q45 0 64.5 -15.5t11.5 -48.5q-23 -111 -127 -135q-23 -4 -174 -10l-295 -13l-80 -4q-81 0 -63 80z" />
<glyph unicode="&#x2da;" horiz-adv-x="1089" d="M551 1782q37 172 139 241q37 80 172 142q115 53 213 53q135 0 207 -86q74 -88 45 -221q-37 -174 -203 -309q-164 -133 -340 -134q-133 0 -196 91q-64 92 -37 223zM727 1827q-16 -76 29 -117q41 -39 121 -39q86 0 165 55q78 53 97 140q14 66 -39 106q-47 37 -115 37 q-49 0 -108 -27l-103 -51q-39 -65 -47 -104z" />
<glyph unicode="&#x2dc;" horiz-adv-x="1298" d="M516 1561q18 86 154 153q120 61 215 62q72 0 172 -51.5t151 -51.5q41 0 105 56q61 53 98 53q31 0 45 -24.5t8 -57.5q-2 -16 -30 -55q-47 -72 -142 -125q-90 -51 -172 -52q-63 0 -163.5 51.5t-165.5 51.5q-53 0 -127 -43t-95 -43q-69 0 -53 76z" />
<glyph unicode="&#x2000;" horiz-adv-x="1128" />
<glyph unicode="&#x2001;" horiz-adv-x="2260" />
<glyph unicode="&#x2002;" horiz-adv-x="1128" />
<glyph unicode="&#x2003;" horiz-adv-x="2260" />
<glyph unicode="&#x2004;" horiz-adv-x="751" />
<glyph unicode="&#x2005;" horiz-adv-x="563" />
<glyph unicode="&#x2006;" horiz-adv-x="374" />
<glyph unicode="&#x2007;" horiz-adv-x="374" />
<glyph unicode="&#x2008;" horiz-adv-x="280" />
<glyph unicode="&#x2009;" horiz-adv-x="450" />
<glyph unicode="&#x200a;" horiz-adv-x="124" />
<glyph unicode="&#x2010;" horiz-adv-x="1144" d="M369 690q23 100 129 131q51 14 184 15h348q47 0 66.5 -15.5t11.5 -48.5q-23 -109 -127 -133q-20 -4 -176 -10l-373 -19q-81 0 -63 80z" />
<glyph unicode="&#x2011;" horiz-adv-x="1144" d="M369 690q23 100 129 131q51 14 184 15h348q47 0 66.5 -15.5t11.5 -48.5q-23 -109 -127 -133q-20 -4 -176 -10l-373 -19q-81 0 -63 80z" />
<glyph unicode="&#x2012;" horiz-adv-x="1144" d="M369 690q23 100 129 131q51 14 184 15h348q47 0 66.5 -15.5t11.5 -48.5q-23 -109 -127 -133q-20 -4 -176 -10l-373 -19q-81 0 -63 80z" />
<glyph unicode="&#x2013;" horiz-adv-x="962" d="M365 690q23 111 133 133q70 14 186 15q49 0 86 -2h86q45 0 64.5 -15.5t11.5 -48.5q-23 -109 -127 -133q-33 -8 -86 -8q-31 -2 -88 -2q-4 0 -39 -3t-64 -8q-86 -8 -102 -8q-79 0 -61 80z" />
<glyph unicode="&#x2014;" d="M375 690q23 98 108 125q55 16 168 19q80 2 187 2h368q47 0 66.5 -15.5t11.5 -48.5q-23 -109 -127 -133q-27 -4 -176 -10q-449 -18 -545 -19q-79 0 -61 80z" />
<glyph unicode="&#x2018;" horiz-adv-x="477" d="M393 1071q0 115 19 203q6 34 37 61q35 31 63 31q27 0 41 -31q14 -360 10 -379q-6 -37 -45 -75q-37 -37 -74 -37q-23 0 -34 35q-19 57 -17 192z" />
<glyph unicode="&#x2019;" horiz-adv-x="489" d="M319 913q10 55 68 185q47 109 94 182q58 86 117 86q63 0 47 -78q-2 -12 -14 -35q-45 -115 -150 -321q-45 -78 -116 -78q-58 0 -46 59z" />
<glyph unicode="&#x201a;" horiz-adv-x="487" d="M80 -217q10 55 67 184q47 109 95 183q57 86 114 86q63 0 50 -76q-4 -16 -15 -37q-51 -127 -149 -322q-47 -78 -117 -77q-57 0 -45 59z" />
<glyph unicode="&#x201c;" horiz-adv-x="976" d="M449 1063q0 123 16 201q10 37 37 61q35 31 63 31q27 0 41 -31l10 -381q-10 -39 -45 -74q-37 -37 -73 -36q-23 0 -35 34q-18 54 -14 195zM786 1112q-6 109 2 143q9 46 50 86q37 37 86 37q37 0 49 -37q14 -49 12 -192q-4 -156 -14 -207q-10 -47 -51 -82q-43 -37 -82 -37 t-45 60z" />
<glyph unicode="&#x201d;" horiz-adv-x="974" d="M389 913q10 47 70 185q49 111 96 182q59 86 117 86q63 0 47 -78l-17 -35q-45 -115 -149 -321q-47 -78 -117 -78q-59 0 -47 59zM721 942q8 35 102 182q94 143 131 183q53 59 101 59q65 0 49 -74q-6 -25 -33 -65l-192 -275q-58 -80 -111 -80q-61 0 -47 70z" />
<glyph unicode="&#x201e;" horiz-adv-x="972" d="M152 -213q14 70 67 184q51 113 96 183q57 86 117 86q63 0 45 -78q-10 -31 -12 -35q-43 -109 -152 -322q-49 -78 -114 -77q-59 0 -47 59zM481 -184q10 41 103 182q80 125 131 180q55 61 100 62q61 0 47 -74q-6 -29 -31 -66l-192 -274q-57 -80 -109 -80q-63 0 -49 70z" />
<glyph unicode="&#x2020;" horiz-adv-x="919" d="M242 -295q29 139 125 533q92 356 129 528q-68 6 -197 31q-57 18 -45 71q14 59 57 103q49 49 100.5 49t131.5 -14q6 23 18 112q8 68 19 113q8 51 59 98t98 47q43 0 43 -67q0 -55 -55 -334q127 -20 164 -27q96 -16 151 -39q53 -23 43 -65q-8 -49 -57 -94q-47 -45 -96 -45 q-86 0 -254 28q-90 -412 -189 -770q-16 -70 -71 -231q-45 -106 -127 -107q-65 0 -47 80z" />
<glyph unicode="&#x2021;" horiz-adv-x="948" d="M217 414q8 47 55 96q43 45 93 45q8 0 94 -18q31 127 53 229q-68 6 -197 31q-59 18 -47 71q12 55 60 103q49 49 98 49t133 -14q0 8 16 112q6 43 21 113q10 53 57 98q51 47 101 47q45 0 41 -67q-4 -74 -54 -334q53 -10 160 -27q100 -18 156 -39q51 -18 43 -65t-60 -94 q-47 -45 -96 -45q-82 0 -254 28q-14 -66 -51 -221q129 -4 322 -29q57 -16 45 -63q-10 -47 -45 -86q-37 -41 -82 -49q-12 -2 -66 -2q-131 0 -227 8l-68 -281q-45 -170 -88 -278q-43 -106 -127 -107q-66 0 -47 80q16 80 147 606q-111 14 -124 19q-74 23 -62 84z" />
<glyph unicode="&#x2022;" horiz-adv-x="1470" d="M289 547q45 221 260 407q217 188 434 189q242 0 367 -129q133 -137 83.5 -372.5t-286.5 -387.5q-213 -135 -461 -135q-203 0 -315 110q-125 121 -82 318z" />
<glyph unicode="&#x2026;" horiz-adv-x="1329" d="M258 135q12 55 53 96q43 43 92 43q74 0 56 -86q-41 -188 -158 -188q-72 0 -43 135zM582 74q12 57 61 119q55 70 111 69q72 0 53 -88q-12 -63 -62 -119q-51 -63 -112 -63q-31 0 -45 24q-14 21 -6 58zM948 68q12 57 62 114q49 59 104 60q74 0 55 -82q-12 -57 -63 -110.5 t-107 -53.5q-65 0 -51 72z" />
<glyph unicode="&#x202f;" horiz-adv-x="450" />
<glyph unicode="&#x2030;" horiz-adv-x="2256" d="M338 10q4 16 35 60q190 254 461 581q293 354 462 580l45.5 59.5l28.5 37.5t15.5 19.5t9.5 11.5t4 7q78 90 125 90q31 0 45 -22q12 -20 6 -56q-23 -102 -438 -612l-537 -649l-104 -127q-55 -57 -97 -58q-31 0 -49 24.5t-12 53.5zM373 915q31 151 159 295q139 158 285 158 q125 0 199 -106.5t45 -235.5q-35 -160 -152 -268q-123 -117 -280 -117q-127 0 -203 72q-80 79 -53 202zM561 991q-14 -63 33 -108q41 -39 111 -39q53 0 104 28.5t59 79.5q18 74 -34 140q-49 55 -121 79q-129 -71 -152 -180zM829 299q16 78 68 160q51 90 117 137q47 35 71 35 q12 0 17 -2q53 109 194 108q135 0 197 -98q57 -86 29 -225q-37 -172 -176 -297q-143 -127 -310 -127q-125 0 -182 94q-52 88 -25 215zM1016 356q-14 -63 22 -114q39 -51 105 -52q65 0 123 56q57 53 71 121q18 76 -26 122q-41 39 -121 39q-16 0 -31 -2q-20 -2 -33 0 q-12 -29 -61 -77q-37 -41 -49 -93zM1556 285q31 147 173 297q0 16 2 26q33 162 254 162q145 0 225 -102.5t49 -247.5q-35 -166 -195 -293q-162 -127 -325 -127q-113 0 -162 88q-46 78 -21 197zM1739 324q-12 -55 16 -84q31 -31 84 -31q71 0 141 43q68 41 84.5 112.5 t-30.5 135.5q-46 61 -123 61q-23 0 -47 -6q-6 -33 -62 -106q-53 -72 -63 -125z" />
<glyph unicode="&#x2039;" horiz-adv-x="817" d="M135 399q12 59 86 115q35 27 242 137q201 106 229 107q34 0 49 -25q14 -23 9 -59q-14 -66 -109 -123l-229 -121q104 -102 127 -127q88 -100 75 -147q-8 -45 -47 -90q-43 -51 -88 -52q-31 0 -172 144q-143 145 -162 184q-16 32 -10 57z" />
<glyph unicode="&#x203a;" horiz-adv-x="909" d="M240 59q12 59 69 111q55 51 189 129q143 84 194 121l-155 94q-94 57 -134 115q-27 39 -18 71q8 47 53 99q43 49 88 49q20 0 78 -47q53 -41 78 -64q2 -2 141 -86q90 -55 123 -100q33 -41 23 -82q-8 -41 -60 -92q-55 -55 -315 -223q-264 -170 -315 -170q-57 -1 -39 75z" />
<glyph unicode="&#x205f;" horiz-adv-x="563" />
<glyph unicode="&#x20ac;" horiz-adv-x="1892" d="M324 336q18 80 86 110q47 20 139 29q0 55 10 96q9 40 25 80q-147 -10 -172 -10q-74 0 -56 80q20 106 148 135q16 4 205 12q156 199 413 346q266 154 488 154q100 0 186 -43q98 -49 123 -125q10 -27 4 -47q-10 -39 -41 -74q-33 -35 -70 -35q2 0 -6 7.5t-30.5 23 l-53.5 37.5q-100 70 -184 70q-147 0 -332 -92q-158 -80 -297 -207q176 10 410 10q51 0 73.5 -16.5t14.5 -51.5q-20 -106 -129 -137q-31 -8 -162 -12q-223 -2 -358 -12l-6 -23q-14 -61 6 -131q6 0 332 27q211 20 331 61l27 10q47 0 31 -69q-23 -90 -117 -125 q-25 -10 -131 -27q-139 -18 -352 -49q143 -106 374 -107q154 0 344 66q35 10 39 10q55 0 39 -65q-14 -76 -96 -129q-66 -43 -207 -72q-117 -25 -213 -25q-178 0 -330 70q-160 74 -231 211q-197 -29 -229 -29q-61 0 -45 68z" />
<glyph unicode="&#x2122;" horiz-adv-x="1202" d="M254 557q6 25 29 47q20 20 51 21q51 0 198 20q131 18 199 19q27 0 37 -9.5t4 -29.5q29 -135 35 -277q43 92 135 256q31 43 64 43q18 0 22 -31q3 -40 6 -116q4 -102 8 -152q6 -80 -8 -151q-6 -22 -30 -43q-27 -23 -46 -23q-16 0 -20 23v11t-1 27.5t-1 36.5q-3 65 -6 191 q-25 -51 -131 -230q-31 -43 -58 -43q-33 0 -26 37q-12 29 -17 123l-6 133l-45 -137q-33 -86 -59 -133q-23 -41 -53 -41q-35 0 -29 39q10 47 149 391q-39 -6 -178 -20q10 -33 2 -70q-2 -14 -30 -86q-23 -55 -29 -84l-12 -49q-18 -86 -64 -86q-29 0 -8 94q31 143 63 274 q-74 -4 -100.5 -4t-37.5 7.5t-7 21.5z" />
<glyph unicode="&#xe000;" horiz-adv-x="1410" d="M0 1410h1410v-1410h-1410v1410z" />
</font>
</defs>
</svg>
