<?xml version="1.0" encoding="utf-8"?>
<!-- Generator: Adobe Illustrator 15.1.0, SVG Export Plug-In  -->
<!DOCTYPE svg [
	<!ENTITY ns_flows "http://ns.adobe.com/Flows/1.0/">
]>
<svg version="1.2" baseProfile="tiny"
	 xmlns="http://www.w3.org/2000/svg" xmlns:xlink="http://www.w3.org/1999/xlink" xmlns:a="http://ns.adobe.com/AdobeSVGViewerExtensions/3.0/"
	 x="0px" y="0px" width="107px" height="107px" viewBox="0 0 107 107" overflow="visible" xml:space="preserve">
<defs>
</defs>
<g>
	<linearGradient id="SVGID_1_" gradientUnits="userSpaceOnUse" x1="53.6665" y1="0" x2="53.6665" y2="107.333">
		<stop  offset="0" style="stop-color:#727270"/>
		<stop  offset="1" style="stop-color:#41413F"/>
		<a:midPointStop  offset="0" style="stop-color:#727270"/>
		<a:midPointStop  offset="0.5" style="stop-color:#727270"/>
		<a:midPointStop  offset="1" style="stop-color:#41413F"/>
	</linearGradient>
	<path fill="url(#SVGID_1_)" d="M107.3,99.3c0,4.4-3.6,8-8,8H8c-4.4,0-8-3.6-8-8V8c0-4.4,3.6-8,8-8h91.3c4.4,0,8,3.6,8,8V99.3z"/>
</g>
<g>
	<rect x="8.6" y="46.7" fill-rule="evenodd" fill="#FFFFFF" width="41.5" height="33.7"/>
	<g id="PfcyK0_2_">
		<g>
			<g>
				<path fill-rule="evenodd" fill="#9CD1EA" d="M47.6,57.5c-7.5-0.8-14.2,1.4-21.8,1.4c-0.3,0-0.6,0-0.9,0
					c-3.8-0.5-7.1-1.5-11.3-1.6c-0.7-0.2-1.8,0-2.6-0.1c0-2.7,0-5.4,0-8.1c12.2,0,24.4,0,36.6,0C47.6,51.9,47.6,54.7,47.6,57.5z"/>
				<path fill-rule="evenodd" fill="#70B0D0" d="M11,57.3C11,57.2,11,57.2,11,57.3c0.9,0,1.9-0.2,2.6,0C12.7,57.3,11.9,57.3,11,57.3
					z"/>
				<path fill-rule="evenodd" fill="#70B0D0" d="M24.9,58.9c0.3,0,0.6,0,0.9,0C25.7,59,25,59,24.9,58.9z"/>
				<path fill-rule="evenodd" fill="#9CD1EA" d="M27.9,62.5c6.6,0,13,0,19.7,0c0,1.3,0,2.7,0,4c-0.6-0.2-1.1,0.1-1.7-0.4
					c-0.5,0.2-0.6,0.4-1.3,0.2c-0.2-0.2-0.9-0.1-1.1,0c-1.1,0.3-2.4,0-3.2-0.4c-0.3-0.1-0.1,0.3-0.4,0.2c-2.3-0.5-4.4-1.1-7.2-1.1
					c-0.2-0.2-0.7,0-1-0.1c-3.4-0.3-6.8-0.6-9.5-1.5c-0.7-0.1-1.4-0.3-2.2-0.2c-0.2-0.2-0.7,0-1-0.1c-1.2,0.1-2.1-0.1-3-0.4
					c0.8-0.2,1.9,0.2,2.7,0c0.3,0.1,1.2,0.1,1.5,0c0.2,0,0.3,0,0.5-0.1c0.3,0,0.6,0,0.9,0c0.1,0,0.1,0,0.2,0c0.6,0.1,1.6,0.1,2.2,0
					c0.6,0,1.2-0.1,1.8-0.1c0.3,0,0.9,0.1,1.1-0.1c0.1,0,0.1,0,0.2,0C27.3,62.6,27.8,62.7,27.9,62.5z"/>
				<path fill-rule="evenodd" fill="#70B0D0" d="M27,62.6c0.1-0.2,0.6,0,0.9-0.1C27.8,62.7,27.3,62.6,27,62.6z"/>
				<path fill-rule="evenodd" fill="#70B0D0" d="M25.7,62.7c0.2-0.2,0.8,0,1.1-0.1C26.6,62.8,26,62.6,25.7,62.7z"/>
				<path fill-rule="evenodd" fill="#70B0D0" d="M20.6,62.8c0.1-0.1,0.8-0.1,0.9,0C21.2,62.8,20.9,62.8,20.6,62.8z"/>
				<path fill-rule="evenodd" fill="#70B0D0" d="M21.7,62.8c0.7,0,1.5,0,2.2,0C23.4,63,22.3,63,21.7,62.8z"/>
				<path fill-rule="evenodd" fill="#70B0D0" d="M18.6,62.9c0.5,0,1,0,1.5,0C19.8,63,18.9,63,18.6,62.9z"/>
				<path fill-rule="evenodd" fill="#70B0D0" d="M18.9,63.3c0.3,0,0.8-0.1,1,0.1C19.6,63.3,19.1,63.4,18.9,63.3z"/>
				<path fill-rule="evenodd" fill="#70B0D0" d="M31.6,65.1c0.3,0,0.8-0.1,1,0.1C32.3,65.1,31.8,65.3,31.6,65.1z"/>
				<path fill-rule="evenodd" fill="#5A9FC1" d="M47.6,72c0,0.2,0,0.4,0,0.7c-1.4,0.6-2.9,0.6-4.7,0.7C44.3,72.7,45.8,72.2,47.6,72z
					"/>
				<path fill-rule="evenodd" fill="#5A9FC1" d="M19.9,63.4c0.8,0,1.4,0.2,2.2,0.2c2.7,1,6.1,1.2,9.5,1.5c0.2,0.2,0.7,0,1,0.1
					c2.8,0,4.9,0.6,7.2,1.1c0.3,0.1,0.1-0.3,0.4-0.2c0.8,0.4,2.2,0.7,3.2,0.4c0.2,0.1,0.7-0.1,1.1,0c0.7,0.1,0.8,0,1.3-0.2
					c0.6,0.4,1.1,0.2,1.7,0.4c0,1.7,0,3.4,0,5.1c-0.7-0.2-1.5,0.5-2.1,0.3c-0.1,0,0-0.1,0-0.1c-0.4,0.1-0.7,0.3-1,0.3
					c-0.1,0-0.3-0.2-0.4-0.1c-0.5,0.1-1.1,0.5-1.8,0.4c-0.3,0,0.3-0.3,0-0.6c-0.8,0.2-2.1,0.7-2.6,0.1c-2.1,0.6-4.8,1-7.5,0.8
					c1.5-0.5,3.5-0.6,5.1-1c-4.9-0.3-8.5,0.9-13.1,1.1c0.1-0.4,0.7-0.2,1-0.3c2.3-0.4,5-0.8,6.8-1.8c-1.8,0-3.8,0.8-5.9,1
					c-1.1,0.1-2.2,0-3.2,0.4c1.3-1.2,4-1.1,5.5-2.2c-0.5-0.3-1.3-0.1-1.8,0.1c-0.3,0,0.1-0.2,0.1-0.3c-1,0-1.8,0.1-2.7,0.1
					c-0.2-0.1-0.4-0.1-0.4-0.4c-1.6,0.3-2.8-0.4-4.3,0c0-0.2,0.4-0.1,0.7-0.2c0.3-0.2,0.3-0.3,0.6-0.4c-1.6-0.4-3.6,0.1-4.4-1
					c-2.3,0.4-2.8-1.7-4.8-1.8c0-0.1,0-0.1-0.1-0.1c0-2.9,0-5.8,0-8.6c0.9,0,1.8,0,2.6,0c4.2,0.1,7.5,1.1,11.3,1.6
					c0.1,0.1,0.8,0.1,0.9,0c7.6,0,14.3-2.2,21.8-1.4c0,1.7,0,3.4,0,5.1c-6.7,0-13.1,0-19.7,0c-0.3,0-0.7-0.1-0.9,0.1
					c-0.1,0-0.1,0-0.2,0c-0.3,0-0.9-0.1-1.1,0.1c-0.6,0-1.1,0.2-1.8,0.1c-0.7,0-1.5,0-2.2,0c-0.1,0-0.1,0-0.2,0
					c-0.1-0.1-0.8-0.1-0.9,0c-0.2,0-0.3,0.1-0.5,0.1c-0.5,0-1,0-1.5,0c-0.8,0.2-1.9-0.2-2.7,0c0.9,0.2,1.8,0.5,3,0.4
					C19.1,63.4,19.6,63.3,19.9,63.4z"/>
				<path fill-rule="evenodd" fill="#70B0D0" d="M43.5,66.4c0.2-0.1,0.9-0.2,1.1,0C44.2,66.4,43.7,66.5,43.5,66.4z"/>
				<path fill-rule="evenodd" fill="#70B0D0" d="M11,65.9c0.1,0,0.1,0.1,0.1,0.1c2,0.2,2.5,2.2,4.8,1.8c0.8,1.2,2.8,0.6,4.4,1
					C20,69,20,69.2,19.7,69.4c-0.2,0.1-0.6,0.1-0.7,0.2c1.5-0.4,2.7,0.3,4.3,0c0,0.2,0.2,0.3,0.4,0.4c0.9-0.1,1.7-0.2,2.7-0.1
					c0,0.1-0.4,0.3-0.1,0.3c0.5-0.2,1.3-0.3,1.8-0.1c-1.5,1.1-4.1,1-5.5,2.2c1-0.4,2.1-0.3,3.2-0.4c2.1-0.2,4-1,5.9-1
					c-1.8,0.9-4.6,1.4-6.8,1.8c-0.3,0-0.8-0.1-1,0.3c4.7-0.2,8.2-1.4,13.1-1.1c-1.6,0.5-3.6,0.5-5.1,1c2.7,0.2,5.4-0.2,7.5-0.8
					c0.6,0.6,1.8,0.1,2.6-0.1c0.3,0.3-0.3,0.6,0,0.6c0.7,0,1.4-0.4,1.8-0.4c0.1,0,0.3,0.1,0.4,0.1c0.3,0,0.6-0.2,1-0.3
					c0,0-0.1,0.1,0,0.1c0.6,0.2,1.5-0.5,2.1-0.3c0,0.1,0,0.2,0,0.3c-1.8,0.2-3.3,0.7-4.7,1.4c1.8-0.1,3.3-0.1,4.7-0.7
					c0,1.7,0,3.5,0,5.2c-12.2,0-24.4,0-36.6,0C11,73.9,11,69.9,11,65.9z"/>
			</g>
		</g>
	</g>
</g>
<rect x="58.9" y="45.4" fill-rule="evenodd" fill="#33342E" width="41.5" height="33.7"/>
<path fill-rule="evenodd" fill="#33342E" d="M84,52c0.2,0,0.6-0.1,0.7,0.1C84.5,52,84.1,52.1,84,52z"/>
<path fill-rule="evenodd" fill="#33342E" d="M90.2,57.4c0.4,0,0.2,0.4,0.1,0.5C90.1,58,90.1,57.5,90.2,57.4z"/>
<path fill-rule="evenodd" fill="#33342E" d="M91.7,59.5c0,0.2-0.1,0.2-0.2,0.3c-0.2,0-0.3-0.1-0.3-0.3
	C91.3,59.4,91.7,59.4,91.7,59.5z"/>
<path fill-rule="evenodd" fill="#33342E" d="M74.6,62.4c-0.1,0.7,0.2,1,0.2,1.6c0.7,0.2,1.1,0.5,1.1,1c0,0.5-0.8,0.6-0.5,1.2
	c0,0.2,0.2-0.1,0.4,0c0.5,0.7,1.8,0.5,2.9,0.6c-0.1,0.2-0.4,0.2-0.4,0.5c0.6,0,1.6-0.3,2.6-0.2c0.6-0.5,1.7-0.3,2.3-0.1
	c-0.1,0.6-0.2,1.7,0,2.3c-0.2,0.2-0.7,0-1,0.1c-0.8,1.4-3,0.3-3.9-0.3c0.2,0.6,0.8,0.7,1.3,0.9c-1.2,0.5-2.5-0.3-3-1
	c-0.3,0,0,0.5-0.3,0.4c0.3,0.1,0.5,0.3,0.7,0.5c-0.4,0.2-1.1,0-1.5-0.1c-0.2,0.1,0.3,0.2,0.1,0.4c-0.6,0-1-0.3-1.3-0.5
	c-0.2,0.2,0.2,0.4,0.1,0.7c-0.6-0.1-0.9-0.4-1.5-0.7c-0.5,0.3-1.1,0.1-1.8,0c0.1,0.2,0.4,0.2,0.6,0.3c-0.7,0.3-1.3-0.1-1.9,0
	c-1,0.1-1.8,1.2-2.7,0.5c0.2-0.6,1.1-0.6,1.7-0.9c0-0.3-0.4-0.2-0.4-0.4c-0.1-0.2,0.2-0.1,0.4-0.1c0-0.3-0.3-0.3-0.3-0.6
	c-0.5,0.2-0.7-0.6-1-0.9c-1.1-0.1-1.7,0.4-2,1.1c0.1,0.1,0.2,0.1,0.3,0.2c-0.5,0-0.8,0.3-0.8,0.8c0.1,0.3,0.6,0.2,0.9,0.3
	c0,0.3-0.3,0.2-0.4,0.1c0,0.2,0.2,0.2,0.2,0.3c0.2-0.2,0.8,0.1,1.2,0.2c-0.9,1.3-2.9,0.6-4.4,0.3c-0.4,0.1-0.7,0.2-1.1,0.2
	c0-2.6,0-5.1,0-7.7c4.9,0.3,8.3-0.8,13.1-0.6C74.7,62.9,74.4,62.4,74.6,62.4z"/>
<path fill-rule="evenodd" fill="#33342E" d="M89.1,67.8c0.4,0,0.6,0.3,1,0.3C89.9,68.2,89.1,68.2,89.1,67.8z"/>
<path fill-rule="evenodd" fill="#33342E" d="M92.4,58.8c0.4-0.1,0.8,0.1,1,0.4c-0.1-0.3-0.6-0.1-0.7-0.4
	C92.6,58.8,92.6,59,92.4,58.8C92.4,58.9,92.4,58.9,92.4,58.8z"/>
<path fill-rule="evenodd" fill="#33342E" d="M88.2,53c0,0.3,0.2,0.3,0.2,0.5c-0.2-0.1-0.4-0.3-0.7-0.5c0.3,0,0.2,0.3,0.4,0.3
	C88.1,53.2,88,52.8,88.2,53z"/>
<path fill-rule="evenodd" fill="#33342E" d="M82.2,51.4c0.4-0.2,0.6,0.3,0.8,0.5C82.7,51.8,82.7,51.4,82.2,51.4z"/>
<path fill-rule="evenodd" fill="#33342E" d="M76.7,56.3c0,0.4-0.2,0.5-0.4,0.7C76.4,56.7,76.6,56.5,76.7,56.3z"/>
<path fill-rule="evenodd" fill="#33342E" d="M76.8,58.2c-0.2,0.4,0.3,0.8-0.1,1C77,58.9,76.5,58.5,76.8,58.2z"/>
<path fill-rule="evenodd" fill="#33342E" d="M93.6,61.3c0,0.8-0.5,0.9-0.2,1.6c-0.4,0.3-0.6,1-0.1,1.5c-0.1,0-0.2,0-0.3,0
	c0.2,0.8-1,0.9-0.5,1.6c0.4,0,0.5-0.6,0.9-0.2c-0.8,0.8-2.5,0.3-3.8,0.4c-0.6,1.6-2.9,0.2-4.1,0.4c-0.6,0.7-0.4,2.7,0.7,2.8
	c0.6-0.5,2.1,0.1,2.4-0.7c0.8,0,1.6,0.5,2.3,0.1c0-0.2,0-0.3-0.1-0.4c0.4-0.1,1.2,0.7,1.5,0c1.1,0.2,2.2,0.8,3.3,0.7
	c0.2-0.1,0.3-0.4,0.1-0.6c0.5,0,0.8,0.1,1.2,0c0.2-0.1-0.3-0.2-0.4-0.3c0.3,0,0.9,0.3,1.5,0.2c0,3.4,0,4.8,0,8.1
	c-12.2,0-24.4,0-36.6,0c0-2.5,0-3,0-5.5c0.4,0,0.7-0.2,1.1-0.2c1.5,0.3,3.5,1,4.4-0.3c-0.5-0.2-1-0.4-1.2-0.2
	c-0.1-0.1-0.2-0.1-0.2-0.3c0.2,0.1,0.4,0.1,0.4-0.1c-0.3-0.1-0.7,0-0.9-0.3c0.1-0.5,0.3-0.8,0.8-0.8c-0.1-0.1-0.2-0.1-0.3-0.2
	c0.3-0.7,0.9-1.2,2-1.1c0.3,0.3,0.5,1,1,0.9c0,0.3,0.3,0.3,0.3,0.6c-0.1,0-0.4-0.1-0.4,0.1c0,0.3,0.4,0.2,0.4,0.4
	c-0.5,0.3-1.5,0.3-1.7,0.9c0.9,0.6,1.7-0.4,2.7-0.5c0.6-0.1,1.2,0.3,1.9,0c-0.2-0.1-0.5-0.1-0.6-0.3c0.7,0.1,1.2,0.3,1.8,0
	c0.6,0.2,0.9,0.5,1.5,0.7c0.1-0.3-0.3-0.5-0.1-0.7c0.4,0.3,0.7,0.5,1.3,0.5c0.2-0.2-0.3-0.3-0.1-0.4c0.4,0.1,1.1,0.3,1.5,0.1
	c-0.2-0.2-0.4-0.4-0.7-0.5c0.3,0,0-0.5,0.3-0.4c0.6,0.7,1.8,1.4,3,1c-0.5-0.2-1.2-0.3-1.3-0.9c0.9,0.6,3.1,1.7,3.9,0.3
	c0.3,0,0.8,0.1,1-0.1c-0.2-0.6-0.1-1.7,0-2.3c-0.6-0.2-1.7-0.4-2.3,0.1c-0.9,0-1.9,0.2-2.6,0.2c0-0.3,0.3-0.3,0.4-0.5
	c-1-0.1-2.4,0.1-2.9-0.6c-0.2-0.1-0.4,0.2-0.4,0c-0.3-0.6,0.5-0.7,0.5-1.2c0-0.5-0.4-0.9-1.1-1c0-0.6-0.3-0.9-0.2-1.6
	c0-0.4,0-0.8,0-1.2c1.4,0,0.3-1.6,0.8-2.2c0.5-0.1,0.8,0.4,1.2,0.2c0.5-0.2,0-0.7,0.1-1c-0.1-0.5-0.3-0.8-0.5-1c0,0,0-0.1,0-0.1
	c0.2-0.2,0.4-0.4,0.4-0.7c0.7-1.1,1.1-2.5,2.3-3c0.3,0.3,1.2,0.4,1.5,0.1c0-0.2-0.2-0.2-0.1-0.5c0.2-0.2,0.7-0.3,0.4-0.7
	c0.4-0.3,0.7-0.6,1.3-0.6c0.5,0,0.5,0.4,0.8,0.5c0.4,0,0.4,0.4,0.6,0.6c0.4,0,0.1-0.3,0.1-0.6c0.1-0.1,0.1,0,0.2,0
	c0.1,0.2,0.5,0,0.7,0.1c0.1,0.4,0.5-0.1,0.8,0.2c0.2-0.5,0.6-0.6,1.2-0.4c-0.3,0.7,0.5,0.9,1,1.2c0.2,0.2,0.4,0.4,0.7,0.5
	c0-0.2-0.2-0.3-0.2-0.5c0.6,0.3,1.1,0.7,1.4,1.3c0.3,0.1,0.2-0.2,0.4-0.1c0.1,0.4-0.1,0.5-0.1,0.7c1.1-0.4,1.6,0.9,2.2,1.4
	c-0.2,0.1-0.1,0.5-0.4,0.3c0.1,0.9,0.6,1.4,1,1.9c-0.3,0-1.1,0.3-0.6,0.7c0.3,0.1,0-0.4,0.4-0.3c0,0,0,0,0,0.1
	c0.2,0.1,0.2-0.1,0.4-0.1c0.1,0.3,0.6,0.1,0.7,0.4C94,59.7,93.9,60.6,93.6,61.3z M90.3,58c0.1-0.1,0.3-0.6-0.1-0.5
	C90.1,57.5,90.1,58,90.3,58z M91.2,59.5c0,0.2,0.1,0.3,0.3,0.3c0.1-0.1,0.2-0.1,0.2-0.3C91.7,59.4,91.3,59.4,91.2,59.5z"/>
<path fill-rule="evenodd" fill="#33342E" d="M98,61c0,2.5,0,5,0,7.5c-0.6,0.1-1.2-0.3-1.5-0.2c0.1,0.1,0.5,0.2,0.4,0.3
	c-0.4,0.1-0.8,0-1.2,0c0.1,0.2,0.1,0.5-0.1,0.6c-1.1,0.1-2.2-0.5-3.3-0.7c-0.3,0.7-1.2-0.1-1.5,0c0.1,0.1,0.2,0.2,0.1,0.4
	c-0.7,0.3-1.5-0.1-2.3-0.1c-0.3,0.7-1.9,0.2-2.4,0.7c-1.1-0.1-1.3-2.1-0.7-2.8c1.2-0.2,3.5,1.2,4.1-0.4c1.3-0.1,3,0.4,3.8-0.4
	c-0.4-0.4-0.5,0.2-0.9,0.2c-0.5-0.7,0.7-0.8,0.5-1.6c0.1,0,0.2,0,0.3,0c-0.5-0.4-0.3-1.1,0.1-1.5c-0.3-0.7,0.2-0.8,0.2-1.6
	C95.1,61.5,96.5,61,98,61z M90.1,68.1c-0.4,0-0.5-0.3-1-0.3C89.1,68.2,89.9,68.2,90.1,68.1z"/>
<path fill-rule="evenodd" fill="#33342E" d="M98,61c-1.5,0-2.9,0.5-4.4,0.3c0.3-0.7,0.4-1.6-0.1-2.1c-0.2-0.3-0.7-0.5-1-0.4
	c-0.3-0.1-0.1,0.4-0.4,0.3c-0.5-0.4,0.2-0.7,0.6-0.7c-0.5-0.5-0.9-1-1-1.9c0.3,0.2,0.2-0.2,0.4-0.3c-0.6-0.6-1.1-1.8-2.2-1.4
	c0-0.2,0.2-0.4,0.1-0.7c-0.2,0-0.2,0.2-0.4,0.1c-0.3-0.6-0.8-1-1.4-1.3c-0.1-0.2,0,0.2,0,0.3C88,53.2,88,53,87.7,53
	c-0.4-0.3-1.3-0.5-1-1.2c-0.6-0.1-1.1-0.1-1.2,0.4c-0.3-0.3-0.7,0.1-0.8-0.2c-0.1-0.2-0.5,0-0.7-0.1c-0.1,0-0.1-0.1-0.2,0
	c0,0.3,0.2,0.6-0.1,0.6C83.4,52.4,83.4,52,83,52c-0.2-0.2-0.4-0.7-0.8-0.5c-0.6,0-1,0.3-1.3,0.6c0.3,0.5-0.2,0.6-0.4,0.7
	c-0.1,0.3,0.2,0.3,0.1,0.5c-0.4,0.4-1.2,0.3-1.5-0.1c-1.2,0.6-1.7,1.9-2.3,3c-0.2,0.2-0.3,0.4-0.4,0.7c0,0,0,0.1,0,0.1
	c0.3,0.3,0.4,0.6,0.5,1c-0.3,0.3,0.2,0.7-0.1,1c-0.5,0.2-0.7-0.3-1.2-0.2c-0.5,0.6,0.6,2.2-0.8,2.2c0,0.4,0,0.8,0,1.2
	c-0.2,0,0.1,0.5-0.1,0.4c-4.8-0.2-8.3,0.9-13.1,0.6c0-5.8,0-9.7,0-15.6c12.2,0,24.4,0,36.6,0C98,52.9,98,56,98,61z"/>
<g>
	<rect x="55.9" y="42.4" fill-rule="evenodd" fill="#FFFFFF" width="41.5" height="33.7"/>
	<g id="tykqki_2_">
		<g>
			<g>
				<path fill-rule="evenodd" fill="#BDCF31" d="M81,49c0.2,0,0.6-0.1,0.7,0.1C81.5,49,81.1,49.1,81,49z"/>
				<path fill-rule="evenodd" fill="#D9D931" d="M87.2,54.4c0.4,0,0.2,0.4,0.1,0.5C87.1,55,87.1,54.5,87.2,54.4z"/>
				<path fill-rule="evenodd" fill="#D9D931" d="M88.7,56.5c0,0.2-0.1,0.2-0.2,0.3c-0.2,0-0.3-0.1-0.3-0.3
					C88.3,56.4,88.7,56.4,88.7,56.5z"/>
				<path fill-rule="evenodd" fill="#BDCF31" d="M71.6,59.4c-0.1,0.7,0.2,1,0.2,1.6c0.7,0.2,1.1,0.5,1.1,1c0,0.5-0.8,0.6-0.5,1.2
					c0,0.2,0.2-0.1,0.4,0c0.5,0.7,1.8,0.5,2.9,0.6c-0.1,0.2-0.4,0.2-0.4,0.5c0.6,0,1.6-0.3,2.6-0.2c0.6-0.5,1.7-0.3,2.3-0.1
					c-0.1,0.6-0.2,1.7,0,2.3c-0.2,0.2-0.7,0-1,0.1c-0.8,1.4-3,0.3-3.9-0.3c0.2,0.6,0.8,0.7,1.3,0.9c-1.2,0.5-2.5-0.3-3-1
					c-0.3,0,0,0.5-0.3,0.4c0.3,0.1,0.5,0.3,0.7,0.5c-0.4,0.2-1.1,0-1.5-0.1c-0.2,0.1,0.3,0.2,0.1,0.4c-0.6,0-1-0.3-1.3-0.5
					c-0.2,0.2,0.2,0.4,0.1,0.7c-0.6-0.1-0.9-0.4-1.5-0.7c-0.5,0.3-1.1,0.1-1.8,0c0.1,0.2,0.4,0.2,0.6,0.3c-0.7,0.3-1.3-0.1-1.9,0
					c-1,0.1-1.8,1.2-2.7,0.5c0.2-0.6,1.1-0.6,1.7-0.9c0-0.3-0.4-0.2-0.4-0.4c-0.1-0.2,0.2-0.1,0.4-0.1c0-0.3-0.3-0.3-0.3-0.6
					c-0.5,0.2-0.7-0.6-1-0.9c-1.1-0.1-1.7,0.4-2,1.1c0.1,0.1,0.2,0.1,0.3,0.2c-0.5,0-0.8,0.3-0.8,0.8c0.1,0.3,0.6,0.2,0.9,0.3
					c0,0.3-0.3,0.2-0.4,0.1c0,0.2,0.2,0.2,0.2,0.3c0.2-0.2,0.8,0.1,1.2,0.2c-0.9,1.3-2.9,0.6-4.4,0.3c-0.4,0.1-0.7,0.2-1.1,0.2
					c0-2.6,0-5.1,0-7.7c4.9,0.3,8.3-0.8,13.1-0.6C71.7,59.9,71.4,59.4,71.6,59.4z"/>
				<path fill-rule="evenodd" fill="#9DAD3A" d="M86.1,64.8c0.4,0,0.6,0.3,1,0.3C86.9,65.2,86.1,65.2,86.1,64.8z"/>
				<path fill-rule="evenodd" fill="#BDCF31" d="M89.4,55.8c0.4-0.1,0.8,0.1,1,0.4c-0.1-0.3-0.6-0.1-0.7-0.4
					C89.6,55.8,89.6,56,89.4,55.8C89.4,55.9,89.4,55.9,89.4,55.8z"/>
				<path fill-rule="evenodd" fill="#BDCF31" d="M85.2,50c0,0.3,0.2,0.3,0.2,0.5c-0.2-0.1-0.4-0.3-0.7-0.5c0.3,0,0.2,0.3,0.4,0.3
					C85.1,50.2,85,49.8,85.2,50z"/>
				<path fill-rule="evenodd" fill="#BDCF31" d="M79.2,48.4c0.4-0.2,0.6,0.3,0.8,0.5C79.7,48.8,79.7,48.4,79.2,48.4z"/>
				<path fill-rule="evenodd" fill="#BDCF31" d="M73.7,53.3c0,0.4-0.2,0.5-0.4,0.7C73.4,53.7,73.6,53.5,73.7,53.3z"/>
				<path fill-rule="evenodd" fill="#BDCF31" d="M73.8,55.2c-0.2,0.4,0.3,0.8-0.1,1C74,55.9,73.5,55.5,73.8,55.2z"/>
				<path fill-rule="evenodd" fill="#9DAD3A" d="M90.6,58.3c0,0.8-0.5,0.9-0.2,1.6c-0.4,0.3-0.6,1-0.1,1.5c-0.1,0-0.2,0-0.3,0
					c0.2,0.8-1,0.9-0.5,1.6c0.4,0,0.5-0.6,0.9-0.2c-0.8,0.8-2.5,0.3-3.8,0.4c-0.6,1.6-2.9,0.2-4.1,0.4c-0.6,0.7-0.4,2.7,0.7,2.8
					c0.6-0.5,2.1,0.1,2.4-0.7c0.8,0,1.6,0.5,2.3,0.1c0-0.2,0-0.3-0.1-0.4c0.4-0.1,1.2,0.7,1.5,0c1.1,0.2,2.2,0.8,3.3,0.7
					c0.2-0.1,0.3-0.4,0.1-0.6c0.5,0,0.8,0.1,1.2,0c0.2-0.1-0.3-0.2-0.4-0.3c0.3,0,0.9,0.3,1.5,0.2c0,3.4,0,4.8,0,8.1
					c-12.2,0-24.4,0-36.6,0c0-2.5,0-3,0-5.5c0.4,0,0.7-0.2,1.1-0.2c1.5,0.3,3.5,1,4.4-0.3c-0.5-0.2-1-0.4-1.2-0.2
					c-0.1-0.1-0.2-0.1-0.2-0.3c0.2,0.1,0.4,0.1,0.4-0.1c-0.3-0.1-0.7,0-0.9-0.3c0.1-0.5,0.3-0.8,0.8-0.8c-0.1-0.1-0.2-0.1-0.3-0.2
					c0.3-0.7,0.9-1.2,2-1.1c0.3,0.3,0.5,1,1,0.9c0,0.3,0.3,0.3,0.3,0.6c-0.1,0-0.4-0.1-0.4,0.1c0,0.3,0.4,0.2,0.4,0.4
					c-0.5,0.3-1.5,0.3-1.7,0.9c0.9,0.6,1.7-0.4,2.7-0.5c0.6-0.1,1.2,0.3,1.9,0c-0.2-0.1-0.5-0.1-0.6-0.3c0.7,0.1,1.2,0.3,1.8,0
					c0.6,0.2,0.9,0.5,1.5,0.7c0.1-0.3-0.3-0.5-0.1-0.7c0.4,0.3,0.7,0.5,1.3,0.5c0.2-0.2-0.3-0.3-0.1-0.4c0.4,0.1,1.1,0.3,1.5,0.1
					c-0.2-0.2-0.4-0.4-0.7-0.5c0.3,0,0-0.5,0.3-0.4c0.6,0.7,1.8,1.4,3,1c-0.5-0.2-1.2-0.3-1.3-0.9c0.9,0.6,3.1,1.7,3.9,0.3
					c0.3,0,0.8,0.1,1-0.1c-0.2-0.6-0.1-1.7,0-2.3c-0.6-0.2-1.7-0.4-2.3,0.1c-0.9,0-1.9,0.2-2.6,0.2c0-0.3,0.3-0.3,0.4-0.5
					c-1-0.1-2.4,0.1-2.9-0.6c-0.2-0.1-0.4,0.2-0.4,0c-0.3-0.6,0.5-0.7,0.5-1.2c0-0.5-0.4-0.9-1.1-1c0-0.6-0.3-0.9-0.2-1.6
					c0-0.4,0-0.8,0-1.2c1.4,0,0.3-1.6,0.8-2.2c0.5-0.1,0.8,0.4,1.2,0.2c0.5-0.2,0-0.7,0.1-1c-0.1-0.5-0.3-0.8-0.5-1c0,0,0-0.1,0-0.1
					c0.2-0.2,0.4-0.4,0.4-0.7c0.7-1.1,1.1-2.5,2.3-3c0.3,0.3,1.2,0.4,1.5,0.1c0-0.2-0.2-0.2-0.1-0.5c0.2-0.2,0.7-0.3,0.4-0.7
					c0.4-0.3,0.7-0.6,1.3-0.6c0.5,0,0.5,0.4,0.8,0.5c0.4,0,0.4,0.4,0.6,0.6c0.4,0,0.1-0.3,0.1-0.6c0.1-0.1,0.1,0,0.2,0
					c0.1,0.2,0.5,0,0.7,0.1c0.1,0.4,0.5-0.1,0.8,0.2c0.2-0.5,0.6-0.6,1.2-0.4c-0.3,0.7,0.5,0.9,1,1.2c0.2,0.2,0.4,0.4,0.7,0.5
					c0-0.2-0.2-0.3-0.2-0.5c0.6,0.3,1.1,0.7,1.4,1.3c0.3,0.1,0.2-0.2,0.4-0.1c0.1,0.4-0.1,0.5-0.1,0.7c1.1-0.4,1.6,0.9,2.2,1.4
					c-0.2,0.1-0.1,0.5-0.4,0.3c0.1,0.9,0.6,1.4,1,1.9c-0.3,0-1.1,0.3-0.6,0.7c0.3,0.1,0-0.4,0.4-0.3c0,0,0,0,0,0.1
					c0.2,0.1,0.2-0.1,0.4-0.1c0.1,0.3,0.6,0.1,0.7,0.4C91,56.7,90.9,57.6,90.6,58.3z M87.3,55c0.1-0.1,0.3-0.6-0.1-0.5
					C87.1,54.5,87.1,55,87.3,55z M88.2,56.5c0,0.2,0.1,0.3,0.3,0.3c0.1-0.1,0.2-0.1,0.2-0.3C88.7,56.4,88.3,56.4,88.2,56.5z"/>
				<path fill-rule="evenodd" fill="#BDCF31" d="M95,58c0,2.5,0,5,0,7.5c-0.6,0.1-1.2-0.3-1.5-0.2c0.1,0.1,0.5,0.2,0.4,0.3
					c-0.4,0.1-0.8,0-1.2,0c0.1,0.2,0.1,0.5-0.1,0.6c-1.1,0.1-2.2-0.5-3.3-0.7c-0.3,0.7-1.2-0.1-1.5,0c0.1,0.1,0.2,0.2,0.1,0.4
					c-0.7,0.3-1.5-0.1-2.3-0.1c-0.3,0.7-1.9,0.2-2.4,0.7c-1.1-0.1-1.3-2.1-0.7-2.8c1.2-0.2,3.5,1.2,4.1-0.4c1.3-0.1,3,0.4,3.8-0.4
					c-0.4-0.4-0.5,0.2-0.9,0.2c-0.5-0.7,0.7-0.8,0.5-1.6c0.1,0,0.2,0,0.3,0c-0.5-0.4-0.3-1.1,0.1-1.5c-0.3-0.7,0.2-0.8,0.2-1.6
					C92.1,58.5,93.5,58,95,58z M87.1,65.1c-0.4,0-0.5-0.3-1-0.3C86.1,65.2,86.9,65.2,87.1,65.1z"/>
				<path fill-rule="evenodd" fill="#D9D931" d="M95,58c-1.5,0-2.9,0.5-4.4,0.3c0.3-0.7,0.4-1.6-0.1-2.1c-0.2-0.3-0.7-0.5-1-0.4
					c-0.3-0.1-0.1,0.4-0.4,0.3c-0.5-0.4,0.2-0.7,0.6-0.7c-0.5-0.5-0.9-1-1-1.9c0.3,0.2,0.2-0.2,0.4-0.3c-0.6-0.6-1.1-1.8-2.2-1.4
					c0-0.2,0.2-0.4,0.1-0.7c-0.2,0-0.2,0.2-0.4,0.1c-0.3-0.6-0.8-1-1.4-1.3c-0.1-0.2,0,0.2,0,0.3C85,50.2,85,50,84.7,50
					c-0.4-0.3-1.3-0.5-1-1.2c-0.6-0.1-1.1-0.1-1.2,0.4c-0.3-0.3-0.7,0.1-0.8-0.2c-0.1-0.2-0.5,0-0.7-0.1c-0.1,0-0.1-0.1-0.2,0
					c0,0.3,0.2,0.6-0.1,0.6C80.4,49.4,80.4,49,80,49c-0.2-0.2-0.4-0.7-0.8-0.5c-0.6,0-1,0.3-1.3,0.6c0.3,0.5-0.2,0.6-0.4,0.7
					c-0.1,0.3,0.2,0.3,0.1,0.5c-0.4,0.4-1.2,0.3-1.5-0.1c-1.2,0.6-1.7,1.9-2.3,3c-0.2,0.2-0.3,0.4-0.4,0.7c0,0,0,0.1,0,0.1
					c0.3,0.3,0.4,0.6,0.5,1c-0.3,0.3,0.2,0.7-0.1,1c-0.5,0.2-0.7-0.3-1.2-0.2c-0.5,0.6,0.6,2.2-0.8,2.2c0,0.4,0,0.8,0,1.2
					c-0.2,0,0.1,0.5-0.1,0.4c-4.8-0.2-8.3,0.9-13.1,0.6c0-5.8,0-9.7,0-15.6c12.2,0,24.4,0,36.6,0C95,49.9,95,53,95,58z"/>
			</g>
		</g>
	</g>
</g>
<path fill="#33342E" d="M71.3,25.5c-10.2-1.1-18.2,3.2-19.6,3.9l-4.2-7c0,0-8.6,18-10.8,21.8l22.5-2.4l-4.3-7.1
	c2.7-1.4,7.5-4,15.8-4c10,0,13.2,5.9,14.3,15.5l1-0.4C85.9,45.9,87.7,27.3,71.3,25.5z"/>
<path fill="#67C8F0" d="M69.3,22.5c-10.2-0.8-18.2,3.2-19.6,3.9l-4.2-7c0,0-8.6,18-10.8,21.8l22.5-2.4l-4.3-7.1
	c2.7-1.4,8.5-4,16.8-4c10,0,15.2,9,15.2,18.5l1-0.4C85.9,45.9,87.4,24,69.3,22.5z"/>
</svg>
