<?xml version="1.0" encoding="UTF-8" standalone="no"?>
<!-- Created with Inkscape (http://www.inkscape.org/) -->
<svg
   xmlns:svg="http://www.w3.org/2000/svg"
   xmlns="http://www.w3.org/2000/svg"
   version="1.0"
   width="748.49799"
   height="347.5"
   viewBox="0 0 748.498 347.5"
   id="svg2"
   xml:space="preserve"><defs
   id="defs27" />
		<path
   d="M 105.375,2.002 L 643.124,2.002 C 700.215,2.002 746.496,43.348 746.496,94.35 L 746.496,253.148 C 746.496,304.151 700.215,345.497 643.124,345.497 L 105.375,345.497 C 48.284,345.497 2.003,304.151 2.003,253.148 L 2.003,94.351 C 2.002,43.348 48.284,2.002 105.375,2.002 z "
   style="fill:#ffffff;stroke:#000000;stroke-width:4.00449991;stroke-linecap:round;stroke-linejoin:round"
   id="rect2206" /><ellipse
   cx="376.73999"
   cy="170.02901"
   rx="37.320999"
   ry="38.209999"
   style="fill:none;stroke:#4466bb;stroke-width:3.00970006;stroke-linecap:round;stroke-linejoin:round"
   id="path2208" /><ellipse
   cx="249.019"
   cy="82.168999"
   rx="5.2690001"
   ry="5.3340001"
   style="fill:#cc3333;stroke:#e24b5a;stroke-width:0.50160003;stroke-linecap:round;stroke-linejoin:round"
   id="path2210" /><ellipse
   cx="249.019"
   cy="258.41199"
   rx="5.2690001"
   ry="5.335"
   style="fill:#cc3333;stroke:#e24b5a;stroke-width:0.50160003;stroke-linecap:round;stroke-linejoin:round"
   id="path2212" /><ellipse
   cx="504.01901"
   cy="258.41199"
   rx="5.2690001"
   ry="5.335"
   style="fill:#cc3333;stroke:#e24b5a;stroke-width:0.50160003;stroke-linecap:round;stroke-linejoin:round"
   id="path2214" /><ellipse
   cx="504.01901"
   cy="82.168999"
   rx="5.2690001"
   ry="5.3340001"
   style="fill:#cc3333;stroke:#e24b5a;stroke-width:0.50160003;stroke-linecap:round;stroke-linejoin:round"
   id="path2216" /><line
   style="fill:none;stroke:#cc3333;stroke-width:2.99760008;stroke-linecap:round;stroke-dasharray:8.9929, 8.9929"
   y2="345.99799"
   x2="377.34399"
   y1="7.8800001"
   x1="376.99799"
   id="path2218" /><line
   style="fill:none;stroke:#4466bb;stroke-width:8.02579975"
   y2="343.48401"
   x2="227.77"
   y1="3.5829999"
   x1="227.51199"
   id="path3093" /><line
   style="fill:none;stroke:#4466bb;stroke-width:8.02579975"
   y2="343.48401"
   x2="526.63599"
   y1="3.993"
   x1="526.63202"
   id="path3095" /><path
   d="M 170.671,256.73 C 170.671,278.802 152.377,296.716 129.837,296.716 C 107.297,296.716 89.003,278.802 89.003,256.73 C 89.003,234.657 107.297,216.742 129.837,216.742 C 152.377,216.742 170.671,234.657 170.671,256.73 z M 120.617,216.742 L 120.617,206.969 M 138.18,206.968 L 138.18,217.63 M 139.936,296.716 L 139.936,306.491 M 119.739,297.605 L 119.739,306.492"
   style="fill:none;stroke:#cc3333;stroke-width:3.00970006;stroke-linecap:round;stroke-linejoin:round"
   id="path25" /><path
   d="M 136.586,257.941 C 136.586,261.284 133.905,263.997 130.603,263.997 C 127.301,263.997 124.62,261.284 124.62,257.941 C 124.62,254.599 127.301,251.886 130.603,251.886 C 133.899,251.886 136.576,254.585 136.586,257.921"
   style="fill:#cc3333"
   id="path24203" /><path
   d="M 170.671,81.729 C 170.671,103.802 152.377,121.717 129.837,121.717 C 107.297,121.717 89.003,103.802 89.003,81.729 C 89.003,59.656 107.297,41.742 129.837,41.742 C 152.377,41.742 170.671,59.657 170.671,81.729 z M 120.617,41.742 L 120.617,31.968 M 138.18,31.968 L 138.18,42.631 M 139.936,121.717 L 139.936,131.491 M 119.739,122.605 L 119.739,131.491"
   style="fill:none;stroke:#cc3333;stroke-width:3.00970006;stroke-linecap:round;stroke-linejoin:round"
   id="path28" /><path
   d="M 136.284,81.699 C 136.284,85.042 133.603,87.754 130.301,87.754 C 126.997,87.754 124.317,85.042 124.317,81.699 C 124.317,78.357 126.998,75.644 130.301,75.644 C 133.597,75.644 136.273,78.343 136.284,81.678"
   style="fill:#cc3333"
   id="path24191" /><path
   d="M 656.671,81.729 C 656.671,103.802 638.377,121.717 615.837,121.717 C 593.297,121.717 575.003,103.802 575.003,81.729 C 575.003,59.656 593.297,41.742 615.837,41.742 C 638.377,41.742 656.671,59.657 656.671,81.729 z M 606.617,41.742 L 606.617,31.968 M 624.179,31.968 L 624.179,42.631 M 625.936,121.717 L 625.936,131.491 M 605.739,122.605 L 605.739,131.491"
   style="fill:none;stroke:#cc3333;stroke-width:3.00970006;stroke-linecap:round;stroke-linejoin:round"
   id="path31" /><path
   d="M 622.467,81.699 C 622.467,85.042 619.785,87.754 616.483,87.754 C 613.181,87.754 610.5,85.042 610.5,81.699 C 610.5,78.357 613.181,75.644 616.483,75.644 C 619.779,75.644 622.456,78.343 622.466,81.678"
   style="fill:#cc3333"
   id="path24179" /><path
   d="M 656.671,256.73 C 656.671,278.802 638.377,296.716 615.837,296.716 C 593.297,296.716 575.003,278.802 575.003,256.73 C 575.003,234.657 593.297,216.742 615.837,216.742 C 638.377,216.742 656.671,234.657 656.671,256.73 z M 606.617,216.742 L 606.617,206.969 M 624.179,206.968 L 624.179,217.63 M 625.936,296.716 L 625.936,306.491 M 605.739,297.605 L 605.739,306.492"
   style="fill:none;stroke:#cc3333;stroke-width:3.00970006;stroke-linecap:round;stroke-linejoin:round"
   id="path34" /><path
   d="M 622.466,257.941 C 622.466,261.284 619.785,263.997 616.483,263.997 C 613.179,263.997 610.499,261.284 610.499,257.941 C 610.499,254.599 613.18,251.886 616.483,251.886 C 619.779,251.886 622.455,254.585 622.466,257.921"
   style="fill:#cc3333"
   id="path24167" /><path
   d="M 66.484,192.923 C 66.484,192.923 54.261,192.808 53.761,192.54 C 43.569,187.094 53.296,178.12 52.966,177.805 C 45.231,170.421 51.476,162.296 55.066,162.589 L 66.276,162.462"
   style="fill:url(#pattern9092);fill-opacity:1;stroke:#cc3333;stroke-width:3.00970006"
   id="path14545" /><path
   d="M 65.6,12.586 L 65.555,335.173 M 66.246,147.109 C 108.857,147.009 110.271,208.016 65.823,207.758 M 66.159,159.263 C 67.17,159.409 81.391,159.165 81.391,159.165 L 81.668,195.108 L 65.706,195.108"
   style="fill:none;stroke:#cc3333;stroke-width:3.00970006;stroke-linecap:round"
   id="path39" /><path
   d="M 679.978,159.673 C 679.978,159.673 692.2,159.884 692.697,160.154 C 702.847,165.679 693.052,174.578 693.381,174.895 C 701.06,182.339 694.753,190.415 691.166,190.094 L 679.955,190.134"
   style="fill:url(#pattern12010);fill-opacity:1;stroke:#cc3333;stroke-width:3.00970006"
   id="path15433" /><path
   d="M 679.857,335.94 L 680.044,11.447 M 679.868,205.488 C 636.527,205.286 634.698,144.952 679.93,144.838 M 679.927,193.687 C 673.632,193.255 664.814,193.315 664.814,193.315 L 664.458,157.367 L 679.951,157.488"
   style="fill:none;stroke:#cc3333;stroke-width:3.00970006;stroke-linecap:round"
   id="path43" /><path
   d="M 381.218,169.978 C 381.22,171.413 380.485,172.74 379.29,173.458 C 378.095,174.176 376.622,174.176 375.427,173.458 C 374.232,172.739 373.496,171.412 373.498,169.978 C 373.496,168.542 374.231,167.215 375.427,166.498 C 376.622,165.779 378.095,165.779 379.29,166.498 C 380.485,167.215 381.22,168.542 381.218,169.978 L 381.218,169.978 z "
   style="fill:#5567b0"
   id="path29529" /><path
   d="M 316.077,343.916 C 315.632,326.934 327.244,311.094 346.434,302.505 C 365.625,293.916 389.398,293.92 408.584,302.515 C 427.77,311.11 439.374,326.953 438.92,343.935"
   style="fill:none;stroke:#cc3333;stroke-width:2.13089991"
   id="path6578" />
	</svg>