<?xml version="1.0" encoding="utf-8"?>
<!-- Generator: Adobe Illustrator 13.0.0, SVG Export Plug-In . SVG Version: 6.00 Build 14948)  -->
<!DOCTYPE svg PUBLIC "-//W3C//DTD SVG 1.0//EN" "http://www.w3.org/TR/2001/REC-SVG-20010904/DTD/svg10.dtd">
<svg version="1.0" id="Layer_1" xmlns="http://www.w3.org/2000/svg" xmlns:xlink="http://www.w3.org/1999/xlink" x="0px" y="0px"
	 width="154.685px" height="138.05px" viewBox="0 0 154.685 138.05" enable-background="new 0 0 154.685 138.05"
	 xml:space="preserve">

<g>
	<g opacity="0.25">
		<g>
			<circle fill-rule="evenodd" clip-rule="evenodd" cx="88.365" cy="131.57" r="4.988"/>
			<circle fill-rule="evenodd" clip-rule="evenodd" cx="88.365" cy="131.57" r="4.988"/>
		</g>
		<g>
			<path fill-rule="evenodd" clip-rule="evenodd" d="M87.263,116.331c0-4.268,3.462-7.73,7.731-7.73c4.271,0,7.732,3.463,7.732,7.73
				c0,4.272-3.462,7.733-7.732,7.733C90.725,124.064,87.263,120.604,87.263,116.331z"/>
			<path fill-rule="evenodd" clip-rule="evenodd" d="M87.263,116.331c0-4.268,3.462-7.73,7.731-7.73c4.271,0,7.732,3.463,7.732,7.73
				c0,4.272-3.462,7.733-7.732,7.733C90.725,124.064,87.263,120.604,87.263,116.331z"/>
		</g>
		<g>
			<path fill-rule="evenodd" clip-rule="evenodd" d="M7.437,14.007c0-4.84,3.922-8.762,8.761-8.762h126.516
				c4.838,0,8.76,3.922,8.76,8.762v82.946c0,4.839-3.922,8.763-8.76,8.763H16.198c-4.839,0-8.761-3.924-8.761-8.763V14.007z"/>
			<path fill-rule="evenodd" clip-rule="evenodd" d="M7.437,14.007c0-4.84,3.922-8.762,8.761-8.762h126.516
				c4.838,0,8.76,3.922,8.76,8.762v82.946c0,4.839-3.922,8.763-8.76,8.763H16.198c-4.839,0-8.761-3.924-8.761-8.763V14.007z"/>
		</g>
	</g>
	<g>
		<linearGradient id="SVGID_1_" gradientUnits="userSpaceOnUse" x1="79.7866" y1="129.1797" x2="89.7622" y2="129.1797">
			<stop  offset="0" style="stop-color:#7CD4FF"/>
			<stop  offset="1" style="stop-color:#3777AE"/>
		</linearGradient>
		<circle fill-rule="evenodd" clip-rule="evenodd" fill="url(#SVGID_1_)" stroke="#194E6A" cx="84.774" cy="129.179" r="4.988"/>
		<linearGradient id="SVGID_2_" gradientUnits="userSpaceOnUse" x1="79.7866" y1="129.1797" x2="89.7622" y2="129.1797">
			<stop  offset="0" style="stop-color:#7CD4FF"/>
			<stop  offset="1" style="stop-color:#3777AE"/>
		</linearGradient>
		<circle fill-rule="evenodd" clip-rule="evenodd" fill="url(#SVGID_2_)" stroke="#194E6A" cx="84.774" cy="129.179" r="4.988"/>
	</g>
	<g>
		<linearGradient id="SVGID_3_" gradientUnits="userSpaceOnUse" x1="83.6724" y1="113.9404" x2="99.1362" y2="113.9404">
			<stop  offset="0" style="stop-color:#7CD4FF"/>
			<stop  offset="1" style="stop-color:#3777AE"/>
		</linearGradient>
		<path fill-rule="evenodd" clip-rule="evenodd" fill="url(#SVGID_3_)" stroke="#194E6A" d="M83.672,113.938
			c0-4.268,3.462-7.73,7.731-7.73c4.271,0,7.732,3.463,7.732,7.73c0,4.273-3.462,7.734-7.732,7.734
			C87.134,121.673,83.672,118.212,83.672,113.938z"/>
		<linearGradient id="SVGID_4_" gradientUnits="userSpaceOnUse" x1="83.6724" y1="113.9404" x2="99.1362" y2="113.9404">
			<stop  offset="0" style="stop-color:#7CD4FF"/>
			<stop  offset="1" style="stop-color:#3777AE"/>
		</linearGradient>
		<path fill-rule="evenodd" clip-rule="evenodd" fill="url(#SVGID_4_)" stroke="#194E6A" d="M83.672,113.938
			c0-4.268,3.462-7.73,7.731-7.73c4.271,0,7.732,3.463,7.732,7.73c0,4.273-3.462,7.734-7.732,7.734
			C87.134,121.673,83.672,118.212,83.672,113.938z"/>
	</g>
	<g>
		<linearGradient id="SVGID_5_" gradientUnits="userSpaceOnUse" x1="3.8462" y1="53.0879" x2="147.8823" y2="53.0879">
			<stop  offset="0" style="stop-color:#7CD4FF"/>
			<stop  offset="1" style="stop-color:#3777AE"/>
		</linearGradient>
		<path fill-rule="evenodd" clip-rule="evenodd" fill="url(#SVGID_5_)" stroke="#194E6A" d="M3.846,11.614
			c0-4.84,3.922-8.762,8.761-8.762h126.516c4.838,0,8.76,3.922,8.76,8.762v82.947c0,4.838-3.922,8.762-8.76,8.762H12.607
			c-4.839,0-8.761-3.924-8.761-8.762V11.614z"/>
		<linearGradient id="SVGID_6_" gradientUnits="userSpaceOnUse" x1="3.8462" y1="53.0879" x2="147.8823" y2="53.0879">
			<stop  offset="0" style="stop-color:#7CD4FF"/>
			<stop  offset="1" style="stop-color:#3777AE"/>
		</linearGradient>
		<path fill-rule="evenodd" clip-rule="evenodd" fill="url(#SVGID_6_)" stroke="#194E6A" d="M3.846,11.614
			c0-4.84,3.922-8.762,8.761-8.762h126.516c4.838,0,8.76,3.922,8.76,8.762v82.947c0,4.838-3.922,8.762-8.76,8.762H12.607
			c-4.839,0-8.761-3.924-8.761-8.762V11.614z"/>
	</g>
</g>
</svg>
