<?xml version="1.0" encoding="utf-8"?>
<!-- Generator: Adobe Illustrator 13.0.0, SVG Export Plug-In . SVG Version: 6.00 Build 14948)  -->
<!DOCTYPE svg PUBLIC "-//W3C//DTD SVG 1.0//EN" "http://www.w3.org/TR/2001/REC-SVG-20010904/DTD/svg10.dtd">
<svg version="1.0" id="Layer_1" xmlns="http://www.w3.org/2000/svg" xmlns:xlink="http://www.w3.org/1999/xlink" x="0px" y="0px"
	 width="138.629px" height="121.897px" viewBox="0 0 138.629 121.897" enable-background="new 0 0 138.629 121.897"
	 xml:space="preserve">

<g>
	<g opacity="0.25">
		<path fill-rule="evenodd" clip-rule="evenodd" d="M71.427,120.692l-58.237-0.001c-6.572-0.001-9.401-4.899-6.115-10.592
			l29.118-50.437l29.12-50.435c3.286-5.692,8.944-5.692,12.23,0l29.12,50.435l29.117,50.437c3.287,5.692,0.457,10.591-6.114,10.592
			L71.427,120.692z"/>
		<path fill-rule="evenodd" clip-rule="evenodd" d="M71.427,120.692l-58.237-0.001c-6.572-0.001-9.401-4.899-6.115-10.592
			l29.118-50.437l29.12-50.435c3.286-5.692,8.944-5.692,12.23,0l29.12,50.435l29.117,50.437c3.287,5.692,0.457,10.591-6.114,10.592
			L71.427,120.692z"/>
	</g>
	<g>
		<linearGradient id="SVGID_1_" gradientUnits="userSpaceOnUse" x1="2.1089" y1="60.4336" x2="133.5645" y2="60.4336">
			<stop  offset="0" style="stop-color:#7CD4FF"/>
			<stop  offset="1" style="stop-color:#3777AE"/>
		</linearGradient>
		<path fill-rule="evenodd" clip-rule="evenodd" fill="url(#SVGID_1_)" stroke="#194E6A" d="M67.836,118.3l-58.237-0.002
			c-6.572,0-9.401-4.898-6.115-10.592l29.118-50.436l29.12-50.435c3.286-5.692,8.944-5.692,12.23,0l29.12,50.435l29.117,50.436
			c3.287,5.693,0.457,10.592-6.114,10.592L67.836,118.3z"/>
		<linearGradient id="SVGID_2_" gradientUnits="userSpaceOnUse" x1="2.1089" y1="60.4336" x2="133.5645" y2="60.4336">
			<stop  offset="0" style="stop-color:#7CD4FF"/>
			<stop  offset="1" style="stop-color:#3777AE"/>
		</linearGradient>
		<path fill-rule="evenodd" clip-rule="evenodd" fill="url(#SVGID_2_)" stroke="#194E6A" d="M67.836,118.3l-58.237-0.002
			c-6.572,0-9.401-4.898-6.115-10.592l29.118-50.436l29.12-50.435c3.286-5.692,8.944-5.692,12.23,0l29.12,50.435l29.117,50.436
			c3.287,5.693,0.457,10.592-6.114,10.592L67.836,118.3z"/>
	</g>
</g>
</svg>
