<?xml version="1.0" encoding="utf-8"?>
<!-- Generator: Adobe Illustrator 13.0.0, SVG Export Plug-In . SVG Version: 6.00 Build 14948)  -->
<!DOCTYPE svg PUBLIC "-//W3C//DTD SVG 1.0//EN" "http://www.w3.org/TR/2001/REC-SVG-20010904/DTD/svg10.dtd">
<svg version="1.0" id="Layer_1" xmlns="http://www.w3.org/2000/svg" xmlns:xlink="http://www.w3.org/1999/xlink" x="0px" y="0px"
	 width="116.139px" height="134.172px" viewBox="0 0 116.139 134.172" enable-background="new 0 0 116.139 134.172"
	 xml:space="preserve">

<g>
	<g opacity="0.25">
		<ellipse fill-rule="evenodd" clip-rule="evenodd" cx="60.182" cy="24.381" rx="48.899" ry="18.583"/>
	</g>
	<g opacity="0.25">
		<path fill-rule="evenodd" clip-rule="evenodd" d="M109.166,35.278v77.655l-0.169,0.613c0,10.262-21.892,18.58-48.899,18.58
			c-27.007,0-48.898-8.318-48.898-18.58c0-0.207-0.006-0.41,0.012-0.613V35.426c8.615,6.975,27.267,11.805,48.887,11.805
			C81.87,47.231,100.631,42.333,109.166,35.278z"/>
	</g>
	<g>
		<linearGradient id="SVGID_1_" gradientUnits="userSpaceOnUse" x1="7.6904" y1="21.9883" x2="105.4893" y2="21.9883">
			<stop  offset="0" style="stop-color:#7CD4FF"/>
			<stop  offset="1" style="stop-color:#3777AE"/>
		</linearGradient>
		
			<ellipse fill-rule="evenodd" clip-rule="evenodd" fill="url(#SVGID_1_)" stroke="#194E6A" cx="56.59" cy="21.989" rx="48.899" ry="18.583"/>
	</g>
	<g>
		<linearGradient id="SVGID_2_" gradientUnits="userSpaceOnUse" x1="7.6074" y1="81.3096" x2="105.5752" y2="81.3096">
			<stop  offset="0" style="stop-color:#7CD4FF"/>
			<stop  offset="1" style="stop-color:#3777AE"/>
		</linearGradient>
		<path fill-rule="evenodd" clip-rule="evenodd" fill="url(#SVGID_2_)" stroke="#194E6A" d="M105.575,32.886v77.654l-0.17,0.613
			c0,10.262-21.891,18.58-48.898,18.58s-48.898-8.318-48.898-18.58c0-0.205-0.006-0.41,0.012-0.613V33.034
			c8.615,6.975,27.266,11.805,48.887,11.805C78.278,44.839,97.04,39.941,105.575,32.886z"/>
	</g>
</g>
</svg>
