<?xml version="1.0" encoding="utf-8"?>
<!-- Generator: Adobe Illustrator 13.0.0, SVG Export Plug-In . SVG Version: 6.00 Build 14948)  -->
<!DOCTYPE svg PUBLIC "-//W3C//DTD SVG 1.0//EN" "http://www.w3.org/TR/2001/REC-SVG-20010904/DTD/svg10.dtd">
<svg version="1.0" id="Layer_1" xmlns="http://www.w3.org/2000/svg" xmlns:xlink="http://www.w3.org/1999/xlink" x="0px" y="0px"
	 width="157.533px" height="112.898px" viewBox="0 0 157.533 112.898" enable-background="new 0 0 157.533 112.898"
	 xml:space="preserve">

<g>
	<g opacity="0.25">
		<path fill-rule="evenodd" clip-rule="evenodd" d="M9.633,17.481c0-4.787,3.88-8.668,8.668-8.668h125.167
			c4.787,0,8.668,3.881,8.668,8.668v82.062c0,4.788-3.881,8.671-8.668,8.671H18.302c-4.788,0-8.668-3.883-8.668-8.671V17.481z"/>
		<path fill-rule="evenodd" clip-rule="evenodd" d="M9.633,17.481c0-4.787,3.88-8.668,8.668-8.668h125.167
			c4.787,0,8.668,3.881,8.668,8.668v82.062c0,4.788-3.881,8.671-8.668,8.671H18.302c-4.788,0-8.668-3.883-8.668-8.671V17.481z"/>
	</g>
	<g>
		<linearGradient id="SVGID_1_" gradientUnits="userSpaceOnUse" x1="6.0166" y1="54.7896" x2="148.52" y2="54.7896">
			<stop  offset="0" style="stop-color:#7CD4FF"/>
			<stop  offset="1" style="stop-color:#3777AE"/>
		</linearGradient>
		<path fill-rule="evenodd" clip-rule="evenodd" fill="url(#SVGID_1_)" stroke="#194E6A" d="M6.017,13.758
			c0-4.786,3.88-8.668,8.668-8.668h125.167c4.787,0,8.668,3.882,8.668,8.668v82.064c0,4.787-3.881,8.666-8.668,8.666H14.685
			c-4.788,0-8.668-3.879-8.668-8.666V13.758z"/>
		<linearGradient id="SVGID_2_" gradientUnits="userSpaceOnUse" x1="6.0166" y1="54.7896" x2="148.52" y2="54.7896">
			<stop  offset="0" style="stop-color:#7CD4FF"/>
			<stop  offset="1" style="stop-color:#3777AE"/>
		</linearGradient>
		<path fill-rule="evenodd" clip-rule="evenodd" fill="url(#SVGID_2_)" stroke="#194E6A" d="M6.017,13.758
			c0-4.786,3.88-8.668,8.668-8.668h125.167c4.787,0,8.668,3.882,8.668,8.668v82.064c0,4.787-3.881,8.666-8.668,8.666H14.685
			c-4.788,0-8.668-3.879-8.668-8.666V13.758z"/>
	</g>
</g>
</svg>
