<?xml version="1.0" encoding="utf-8"?>
<!-- Generator: Adobe Illustrator 13.0.0, SVG Export Plug-In . SVG Version: 6.00 Build 14948)  -->
<!DOCTYPE svg PUBLIC "-//W3C//DTD SVG 1.0//EN" "http://www.w3.org/TR/2001/REC-SVG-20010904/DTD/svg10.dtd">
<svg version="1.0" id="Layer_1" xmlns="http://www.w3.org/2000/svg" xmlns:xlink="http://www.w3.org/1999/xlink" x="0px" y="0px"
	 width="153.178px" height="138.27px" viewBox="0 0 153.178 138.27" enable-background="new 0 0 153.178 138.27"
	 xml:space="preserve">

<g>
	<g opacity="0.25">
		<g>
			<circle fill-rule="evenodd" clip-rule="evenodd" cx="87.277" cy="131.214" r="4.988"/>
			<circle fill-rule="evenodd" clip-rule="evenodd" cx="87.277" cy="131.214" r="4.988"/>
		</g>
		<g>
			<path fill-rule="evenodd" clip-rule="evenodd" d="M86.175,115.975c0-4.268,3.462-7.73,7.731-7.73c4.271,0,7.732,3.463,7.732,7.73
				c0,4.272-3.462,7.733-7.732,7.733C89.637,123.708,86.175,120.248,86.175,115.975z"/>
			<path fill-rule="evenodd" clip-rule="evenodd" d="M86.175,115.975c0-4.268,3.462-7.73,7.731-7.73c4.271,0,7.732,3.463,7.732,7.73
				c0,4.272-3.462,7.733-7.732,7.733C89.637,123.708,86.175,120.248,86.175,115.975z"/>
		</g>
		<g>
			<path fill-rule="evenodd" clip-rule="evenodd" d="M6.349,13.651c0-4.84,3.922-8.762,8.761-8.762h126.516
				c4.838,0,8.76,3.922,8.76,8.762v82.946c0,4.839-3.922,8.763-8.76,8.763H15.109c-4.839,0-8.761-3.924-8.761-8.763V13.651z"/>
			<path fill-rule="evenodd" clip-rule="evenodd" d="M6.349,13.651c0-4.84,3.922-8.762,8.761-8.762h126.516
				c4.838,0,8.76,3.922,8.76,8.762v82.946c0,4.839-3.922,8.763-8.76,8.763H15.109c-4.839,0-8.761-3.924-8.761-8.763V13.651z"/>
		</g>
	</g>
	<g>
		<linearGradient id="SVGID_1_" gradientUnits="userSpaceOnUse" x1="79.584" y1="130.1138" x2="89.5879" y2="130.1138">
			<stop  offset="0" style="stop-color:#BEBEBE"/>
			<stop  offset="1" style="stop-color:#6A6A6A"/>
		</linearGradient>
		<circle fill-rule="evenodd" clip-rule="evenodd" fill="url(#SVGID_1_)" stroke="#414141" cx="84.586" cy="130.112" r="5.002"/>
		<linearGradient id="SVGID_2_" gradientUnits="userSpaceOnUse" x1="79.584" y1="130.1138" x2="89.5879" y2="130.1138">
			<stop  offset="0" style="stop-color:#BEBEBE"/>
			<stop  offset="1" style="stop-color:#6A6A6A"/>
		</linearGradient>
		<circle fill-rule="evenodd" clip-rule="evenodd" fill="url(#SVGID_2_)" stroke="#414141" cx="84.586" cy="130.112" r="5.002"/>
	</g>
	<g>
		<linearGradient id="SVGID_3_" gradientUnits="userSpaceOnUse" x1="83.4805" y1="114.8296" x2="98.9883" y2="114.8296">
			<stop  offset="0" style="stop-color:#BEBEBE"/>
			<stop  offset="1" style="stop-color:#6A6A6A"/>
		</linearGradient>
		<path fill-rule="evenodd" clip-rule="evenodd" fill="url(#SVGID_3_)" stroke="#414141" d="M83.48,114.829
			c0-4.279,3.471-7.752,7.754-7.752c4.282,0,7.754,3.473,7.754,7.752c0,4.285-3.472,7.754-7.754,7.754
			C86.951,122.583,83.48,119.114,83.48,114.829z"/>
		<linearGradient id="SVGID_4_" gradientUnits="userSpaceOnUse" x1="83.4805" y1="114.8296" x2="98.9883" y2="114.8296">
			<stop  offset="0" style="stop-color:#BEBEBE"/>
			<stop  offset="1" style="stop-color:#6A6A6A"/>
		</linearGradient>
		<path fill-rule="evenodd" clip-rule="evenodd" fill="url(#SVGID_4_)" stroke="#414141" d="M83.48,114.829
			c0-4.279,3.471-7.752,7.754-7.752c4.282,0,7.754,3.473,7.754,7.752c0,4.285-3.472,7.754-7.754,7.754
			C86.951,122.583,83.48,119.114,83.48,114.829z"/>
	</g>
	<g>
		<linearGradient id="SVGID_5_" gradientUnits="userSpaceOnUse" x1="3.4277" y1="53.8062" x2="147.873" y2="53.8062">
			<stop  offset="0" style="stop-color:#BEBEBE"/>
			<stop  offset="1" style="stop-color:#6A6A6A"/>
		</linearGradient>
		<path fill-rule="evenodd" clip-rule="evenodd" fill="url(#SVGID_5_)" stroke="#414141" d="M3.428,12.213
			c0-4.854,3.933-8.785,8.785-8.785h126.875c4.853,0,8.785,3.932,8.785,8.785v83.182c0,4.854-3.933,8.789-8.785,8.789H12.213
			c-4.853,0-8.785-3.936-8.785-8.789V12.213z"/>
		<linearGradient id="SVGID_6_" gradientUnits="userSpaceOnUse" x1="3.4277" y1="53.8062" x2="147.873" y2="53.8062">
			<stop  offset="0" style="stop-color:#BEBEBE"/>
			<stop  offset="1" style="stop-color:#6A6A6A"/>
		</linearGradient>
		<path fill-rule="evenodd" clip-rule="evenodd" fill="url(#SVGID_6_)" stroke="#414141" d="M3.428,12.213
			c0-4.854,3.933-8.785,8.785-8.785h126.875c4.853,0,8.785,3.932,8.785,8.785v83.182c0,4.854-3.933,8.789-8.785,8.789H12.213
			c-4.853,0-8.785-3.936-8.785-8.789V12.213z"/>
	</g>
</g>
</svg>
