<?xml version="1.0" encoding="utf-8"?>
<!-- Generator: Adobe Illustrator 13.0.0, SVG Export Plug-In . SVG Version: 6.00 Build 14948)  -->
<!DOCTYPE svg PUBLIC "-//W3C//DTD SVG 1.0//EN" "http://www.w3.org/TR/2001/REC-SVG-20010904/DTD/svg10.dtd">
<svg version="1.0" id="Layer_1" xmlns="http://www.w3.org/2000/svg" xmlns:xlink="http://www.w3.org/1999/xlink" x="0px" y="0px"
	 width="154.685px" height="138.05px" viewBox="0 0 154.685 138.05" enable-background="new 0 0 154.685 138.05"
	 xml:space="preserve">
<g>
	<g opacity="0.25">
		<path fill-rule="evenodd" clip-rule="evenodd" d="M7.437,14.08c0-4.84,3.922-8.762,8.76-8.762h126.516
			c4.838,0,8.762,3.922,8.762,8.762v82.946c0,4.839-3.924,8.763-8.762,8.763h-35.27l-20.107,30.696v-30.696H16.197
			c-4.838,0-8.76-3.924-8.76-8.763V14.08z"/>
		<path fill-rule="evenodd" clip-rule="evenodd" d="M7.437,14.08c0-4.84,3.922-8.762,8.76-8.762h126.516
			c4.838,0,8.762,3.922,8.762,8.762v82.946c0,4.839-3.924,8.763-8.762,8.763h-35.27l-20.107,30.696v-30.696H16.197
			c-4.838,0-8.76-3.924-8.76-8.763V14.08z"/>
	</g>
	<g>
		<linearGradient id="SVGID_1_" gradientUnits="userSpaceOnUse" x1="3.8457" y1="68.5098" x2="147.8823" y2="68.5098">
			<stop  offset="0" style="stop-color:#7CD4FF"/>
			<stop  offset="1" style="stop-color:#3777AE"/>
		</linearGradient>
		<path fill-rule="evenodd" clip-rule="evenodd" fill="url(#SVGID_1_)" stroke="#194E6A" d="M3.846,11.688
			c0-4.84,3.922-8.762,8.76-8.762h126.517c4.838,0,8.76,3.922,8.76,8.762v82.947c0,4.838-3.922,8.762-8.76,8.762h-35.27
			l-20.107,30.697v-30.697h-71.14c-4.838,0-8.76-3.924-8.76-8.762V11.688z"/>
		<linearGradient id="SVGID_2_" gradientUnits="userSpaceOnUse" x1="3.8457" y1="68.5098" x2="147.8823" y2="68.5098">
			<stop  offset="0" style="stop-color:#7CD4FF"/>
			<stop  offset="1" style="stop-color:#3777AE"/>
		</linearGradient>
		<path fill-rule="evenodd" clip-rule="evenodd" fill="url(#SVGID_2_)" stroke="#194E6A" d="M3.846,11.688
			c0-4.84,3.922-8.762,8.76-8.762h126.517c4.838,0,8.76,3.922,8.76,8.762v82.947c0,4.838-3.922,8.762-8.76,8.762h-35.27
			l-20.107,30.697v-30.697h-71.14c-4.838,0-8.76-3.924-8.76-8.762V11.688z"/>
	</g>
</g>
</svg>
