<?xml version="1.0" encoding="utf-8"?>
<!-- Generator: Adobe Illustrator 13.0.0, SVG Export Plug-In . SVG Version: 6.00 Build 14948)  -->
<!DOCTYPE svg PUBLIC "-//W3C//DTD SVG 1.0//EN" "http://www.w3.org/TR/2001/REC-SVG-20010904/DTD/svg10.dtd">
<svg version="1.0" id="Layer_1" xmlns="http://www.w3.org/2000/svg" xmlns:xlink="http://www.w3.org/1999/xlink" x="0px" y="0px"
	 width="153.157px" height="137.618px" viewBox="0 0 153.157 137.618" enable-background="new 0 0 153.157 137.618"
	 xml:space="preserve">

<g>
	<g opacity="0.25">
		<g>
			<path fill-rule="evenodd" clip-rule="evenodd" d="M82.666,131.472c0-2.754,2.232-4.984,4.988-4.984
				c2.754,0,4.988,2.23,4.988,4.984c0,2.756-2.234,4.99-4.988,4.99C84.898,136.462,82.666,134.228,82.666,131.472z"/>
			<path fill-rule="evenodd" clip-rule="evenodd" d="M82.666,131.472c0-2.754,2.232-4.984,4.988-4.984
				c2.754,0,4.988,2.23,4.988,4.984c0,2.756-2.234,4.99-4.988,4.99C84.898,136.462,82.666,134.228,82.666,131.472z"/>
		</g>
		<g>
			<circle fill-rule="evenodd" clip-rule="evenodd" cx="94.284" cy="116.233" r="7.731"/>
			<circle fill-rule="evenodd" clip-rule="evenodd" cx="94.284" cy="116.233" r="7.731"/>
		</g>
		<g>
			<path fill-rule="evenodd" clip-rule="evenodd" d="M6.725,13.909c0-4.84,3.922-8.762,8.761-8.762h126.516
				c4.838,0,8.76,3.922,8.76,8.762v82.946c0,4.84-3.922,8.764-8.76,8.764H15.486c-4.839,0-8.761-3.924-8.761-8.764V13.909z"/>
			<path fill-rule="evenodd" clip-rule="evenodd" d="M6.725,13.909c0-4.84,3.922-8.762,8.761-8.762h126.516
				c4.838,0,8.76,3.922,8.76,8.762v82.946c0,4.84-3.922,8.764-8.76,8.764H15.486c-4.839,0-8.761-3.924-8.761-8.764V13.909z"/>
		</g>
	</g>
	<g>
		<g>
			<linearGradient id="SVGID_1_" gradientUnits="userSpaceOnUse" x1="78.9702" y1="128.8438" x2="88.9468" y2="128.8438">
				<stop  offset="0" style="stop-color:#FF897A"/>
				<stop  offset="1" style="stop-color:#FF3400"/>
			</linearGradient>
			<circle fill-rule="evenodd" clip-rule="evenodd" fill="url(#SVGID_1_)" stroke="#6F0000" cx="83.958" cy="128.843" r="4.988"/>
			<linearGradient id="SVGID_2_" gradientUnits="userSpaceOnUse" x1="78.9702" y1="128.8438" x2="88.9468" y2="128.8438">
				<stop  offset="0" style="stop-color:#FF897A"/>
				<stop  offset="1" style="stop-color:#FF3400"/>
			</linearGradient>
			<circle fill-rule="evenodd" clip-rule="evenodd" fill="url(#SVGID_2_)" stroke="#6F0000" cx="83.958" cy="128.843" r="4.988"/>
		</g>
		<g>
			<linearGradient id="SVGID_3_" gradientUnits="userSpaceOnUse" x1="82.8569" y1="113.6045" x2="98.3198" y2="113.6045">
				<stop  offset="0" style="stop-color:#FF897A"/>
				<stop  offset="1" style="stop-color:#FF3400"/>
			</linearGradient>
			<path fill-rule="evenodd" clip-rule="evenodd" fill="url(#SVGID_3_)" stroke="#6F0000" d="M82.857,113.603
				c0-4.268,3.461-7.73,7.73-7.73c4.271,0,7.732,3.463,7.732,7.73c0,4.273-3.461,7.734-7.732,7.734
				C86.318,121.337,82.857,117.876,82.857,113.603z"/>
			<linearGradient id="SVGID_4_" gradientUnits="userSpaceOnUse" x1="82.8569" y1="113.6045" x2="98.3198" y2="113.6045">
				<stop  offset="0" style="stop-color:#FF897A"/>
				<stop  offset="1" style="stop-color:#FF3400"/>
			</linearGradient>
			<path fill-rule="evenodd" clip-rule="evenodd" fill="url(#SVGID_4_)" stroke="#6F0000" d="M82.857,113.603
				c0-4.268,3.461-7.73,7.73-7.73c4.271,0,7.732,3.463,7.732,7.73c0,4.273-3.461,7.734-7.732,7.734
				C86.318,121.337,82.857,117.876,82.857,113.603z"/>
		</g>
		<g>
			<linearGradient id="SVGID_5_" gradientUnits="userSpaceOnUse" x1="3.0303" y1="52.752" x2="147.0659" y2="52.752">
				<stop  offset="0" style="stop-color:#FF897A"/>
				<stop  offset="1" style="stop-color:#FF3400"/>
			</linearGradient>
			<path fill-rule="evenodd" clip-rule="evenodd" fill="url(#SVGID_5_)" stroke="#6F0000" d="M3.03,11.279
				c0-4.84,3.922-8.762,8.761-8.762h126.515c4.84,0,8.76,3.922,8.76,8.762v82.947c0,4.838-3.92,8.762-8.76,8.762H11.791
				c-4.839,0-8.761-3.924-8.761-8.762V11.279z"/>
			<linearGradient id="SVGID_6_" gradientUnits="userSpaceOnUse" x1="3.0303" y1="52.752" x2="147.0659" y2="52.752">
				<stop  offset="0" style="stop-color:#FF897A"/>
				<stop  offset="1" style="stop-color:#FF3400"/>
			</linearGradient>
			<path fill-rule="evenodd" clip-rule="evenodd" fill="url(#SVGID_6_)" stroke="#6F0000" d="M3.03,11.279
				c0-4.84,3.922-8.762,8.761-8.762h126.515c4.84,0,8.76,3.922,8.76,8.762v82.947c0,4.838-3.92,8.762-8.76,8.762H11.791
				c-4.839,0-8.761-3.924-8.761-8.762V11.279z"/>
		</g>
	</g>
</g>
</svg>
