<?xml version="1.0" encoding="utf-8"?>
<!-- Generator: Adobe Illustrator 13.0.0, SVG Export Plug-In . SVG Version: 6.00 Build 14948)  -->
<!DOCTYPE svg PUBLIC "-//W3C//DTD SVG 1.0//EN" "http://www.w3.org/TR/2001/REC-SVG-20010904/DTD/svg10.dtd">
<svg version="1.0" id="Layer_1" xmlns="http://www.w3.org/2000/svg" xmlns:xlink="http://www.w3.org/1999/xlink" x="0px" y="0px"
	 width="153.178px" height="138.27px" viewBox="0 0 153.178 138.27" enable-background="new 0 0 153.178 138.27"
	 xml:space="preserve">

<g>
	<g opacity="0.25">
		<path fill-rule="evenodd" clip-rule="evenodd" d="M6.606,13.725c0-4.84,3.922-8.762,8.76-8.762h126.517
			c4.838,0,8.761,3.922,8.761,8.762v82.947c0,4.838-3.923,8.762-8.761,8.762h-35.27L86.506,136.13v-30.697h-71.14
			c-4.838,0-8.76-3.924-8.76-8.762V13.725z"/>
		<path fill-rule="evenodd" clip-rule="evenodd" d="M6.606,13.725c0-4.84,3.922-8.762,8.76-8.762h126.517
			c4.838,0,8.761,3.922,8.761,8.762v82.947c0,4.838-3.923,8.762-8.761,8.762h-35.27L86.506,136.13v-30.697h-71.14
			c-4.838,0-8.76-3.924-8.76-8.762V13.725z"/>
	</g>
	<g>
		<linearGradient id="SVGID_1_" gradientUnits="userSpaceOnUse" x1="3.1689" y1="69.271" x2="147.6152" y2="69.271">
			<stop  offset="0" style="stop-color:#BEBEBE"/>
			<stop  offset="1" style="stop-color:#6A6A6A"/>
		</linearGradient>
		<path fill-rule="evenodd" clip-rule="evenodd" fill="url(#SVGID_1_)" stroke="#414141" d="M3.169,12.287
			c0-4.854,3.934-8.785,8.785-8.785H138.83c4.852,0,8.785,3.932,8.785,8.785v83.181c0,4.854-3.934,8.789-8.785,8.789h-35.369
			l-20.166,30.783v-30.783H11.954c-4.852,0-8.785-3.936-8.785-8.789V12.287z"/>
		<linearGradient id="SVGID_2_" gradientUnits="userSpaceOnUse" x1="3.1689" y1="69.271" x2="147.6152" y2="69.271">
			<stop  offset="0" style="stop-color:#BEBEBE"/>
			<stop  offset="1" style="stop-color:#6A6A6A"/>
		</linearGradient>
		<path fill-rule="evenodd" clip-rule="evenodd" fill="url(#SVGID_2_)" stroke="#414141" d="M3.169,12.287
			c0-4.854,3.934-8.785,8.785-8.785H138.83c4.852,0,8.785,3.932,8.785,8.785v83.181c0,4.854-3.934,8.789-8.785,8.789h-35.369
			l-20.166,30.783v-30.783H11.954c-4.852,0-8.785-3.936-8.785-8.789V12.287z"/>
	</g>
</g>
</svg>
