<?xml version="1.0" encoding="utf-8"?>
<!-- Generator: Adobe Illustrator 13.0.0, SVG Export Plug-In . SVG Version: 6.00 Build 14948)  -->
<!DOCTYPE svg PUBLIC "-//W3C//DTD SVG 1.0//EN" "http://www.w3.org/TR/2001/REC-SVG-20010904/DTD/svg10.dtd">
<svg version="1.0" id="Layer_1" xmlns="http://www.w3.org/2000/svg" xmlns:xlink="http://www.w3.org/1999/xlink" x="0px" y="0px"
	 width="151.256px" height="138.503px" viewBox="0 0 151.256 138.503" enable-background="new 0 0 151.256 138.503"
	 xml:space="preserve">

<g>
	<path fill-rule="evenodd" clip-rule="evenodd" fill="none" stroke="#595959" d="M3.927,12.199c0-4.84,3.922-8.762,8.76-8.762
		h126.516c4.838,0,8.761,3.922,8.761,8.762v82.947c0,4.838-3.923,8.762-8.761,8.762h-35.27l-20.107,30.697v-30.697H12.688
		c-4.838,0-8.76-3.924-8.76-8.762V12.199z"/>
	<path fill-rule="evenodd" clip-rule="evenodd" fill="none" stroke="#595959" d="M3.927,12.199c0-4.84,3.922-8.762,8.76-8.762
		h126.516c4.838,0,8.761,3.922,8.761,8.762v82.947c0,4.838-3.923,8.762-8.761,8.762h-35.27l-20.107,30.697v-30.697H12.688
		c-4.838,0-8.76-3.924-8.76-8.762V12.199z"/>
</g>
</svg>
