<?xml version="1.0" encoding="utf-8"?>
<!-- Generator: Adobe Illustrator 13.0.0, SVG Export Plug-In . SVG Version: 6.00 Build 14948)  -->
<!DOCTYPE svg PUBLIC "-//W3C//DTD SVG 1.0//EN" "http://www.w3.org/TR/2001/REC-SVG-20010904/DTD/svg10.dtd">
<svg version="1.0" id="Layer_1" xmlns="http://www.w3.org/2000/svg" xmlns:xlink="http://www.w3.org/1999/xlink" x="0px" y="0px"
	 width="116.137px" height="115.055px" viewBox="0 0 116.137 115.055" enable-background="new 0 0 116.137 115.055"
	 xml:space="preserve">

<g>
	<g opacity="0.25">
		<path fill-rule="evenodd" clip-rule="evenodd" d="M5.901,31.21c0-14.409,11.679-26.088,26.088-26.088h56.389
			c14.408,0,26.086,11.679,26.086,26.088v56.389c0,14.408-11.678,26.088-26.086,26.088H31.989c-14.409,0-26.088-11.68-26.088-26.088
			V31.21z"/>
	</g>
	<g>
		<linearGradient id="SVGID_1_" gradientUnits="userSpaceOnUse" x1="2.3091" y1="57.0117" x2="110.8716" y2="57.0117">
			<stop  offset="0" style="stop-color:#7CD4FF"/>
			<stop  offset="1" style="stop-color:#3777AE"/>
		</linearGradient>
		<path fill-rule="evenodd" clip-rule="evenodd" fill="url(#SVGID_1_)" stroke="#194E6A" d="M2.309,28.818
			c0-14.409,11.68-26.088,26.088-26.088h56.389c14.408,0,26.086,11.679,26.086,26.088v56.388c0,14.408-11.678,26.088-26.086,26.088
			H28.397c-14.408,0-26.088-11.68-26.088-26.088V28.818z"/>
	</g>
</g>
</svg>
