<?xml version="1.0" encoding="utf-8"?>
<!-- Generator: Adobe Illustrator 13.0.0, SVG Export Plug-In . SVG Version: 6.00 Build 14948)  -->
<!DOCTYPE svg PUBLIC "-//W3C//DTD SVG 1.0//EN" "http://www.w3.org/TR/2001/REC-SVG-20010904/DTD/svg10.dtd">
<svg version="1.0" id="Layer_1" xmlns="http://www.w3.org/2000/svg" xmlns:xlink="http://www.w3.org/1999/xlink" x="0px" y="0px"
	 width="125.75px" height="122.047px" viewBox="0 0 125.75 122.047" enable-background="new 0 0 125.75 122.047"
	 xml:space="preserve">

<g>
	<path fill-rule="evenodd" clip-rule="evenodd" fill="none" stroke="#595959" d="M63.193,95.206l-29.76,21.621
		c-5.72,4.155-11.191,0.181-9.009-6.546l11.368-34.982L6.035,53.678c-5.72-4.157-3.631-10.588,3.44-10.59l36.783-0.001l11.367-34.98
		c2.185-6.727,8.947-6.727,11.133,0l11.368,34.98l36.781,0.001c7.071,0.002,9.162,6.433,3.441,10.59L90.593,75.298l11.363,34.982
		c2.187,6.727-3.286,10.701-9.007,6.546L63.193,95.206z"/>
	<path fill-rule="evenodd" clip-rule="evenodd" fill="none" stroke="#595959" d="M63.193,95.206l-29.76,21.621
		c-5.72,4.155-11.191,0.181-9.009-6.546l11.368-34.982L6.035,53.678c-5.72-4.157-3.631-10.588,3.44-10.59l36.783-0.001l11.367-34.98
		c2.185-6.727,8.947-6.727,11.133,0l11.368,34.98l36.781,0.001c7.071,0.002,9.162,6.433,3.441,10.59L90.593,75.298l11.363,34.982
		c2.187,6.727-3.286,10.701-9.007,6.546L63.193,95.206z"/>
</g>
</svg>
