<?xml version="1.0" encoding="utf-8"?>
<!-- Generator: Adobe Illustrator 13.0.0, SVG Export Plug-In . SVG Version: 6.00 Build 14948)  -->
<!DOCTYPE svg PUBLIC "-//W3C//DTD SVG 1.0//EN" "http://www.w3.org/TR/2001/REC-SVG-20010904/DTD/svg10.dtd">
<svg version="1.0" id="Layer_1" xmlns="http://www.w3.org/2000/svg" xmlns:xlink="http://www.w3.org/1999/xlink" x="0px" y="0px"
	 width="129.18px" height="121.815px" viewBox="0 0 129.18 121.815" enable-background="new 0 0 129.18 121.815"
	 xml:space="preserve">

<g>
	<g opacity="0.25">
		<path fill-rule="evenodd" clip-rule="evenodd" d="M66.116,96.75l-29.76,21.621c-5.72,4.155-11.191,0.181-9.009-6.546
			l11.368-34.982L8.958,55.222c-5.72-4.157-3.631-10.588,3.44-10.59l36.783-0.001L60.548,9.65c2.185-6.727,8.948-6.727,11.134,0
			l11.368,34.98l36.781,0.001c7.071,0.002,9.162,6.433,3.441,10.59L93.517,76.843l11.363,34.982
			c2.187,6.727-3.286,10.701-9.007,6.546L66.116,96.75z"/>
		<path fill-rule="evenodd" clip-rule="evenodd" d="M66.116,96.75l-29.76,21.621c-5.72,4.155-11.191,0.181-9.009-6.546
			l11.368-34.982L8.958,55.222c-5.72-4.157-3.631-10.588,3.44-10.59l36.783-0.001L60.548,9.65c2.185-6.727,8.948-6.727,11.134,0
			l11.368,34.98l36.781,0.001c7.071,0.002,9.162,6.433,3.441,10.59L93.517,76.843l11.363,34.982
			c2.187,6.727-3.286,10.701-9.007,6.546L66.116,96.75z"/>
	</g>
	<g>
		<linearGradient id="SVGID_1_" gradientUnits="userSpaceOnUse" x1="3.2441" y1="61.0044" x2="124.498" y2="61.0044">
			<stop  offset="0" style="stop-color:#BEBEBE"/>
			<stop  offset="1" style="stop-color:#6A6A6A"/>
		</linearGradient>
		<path fill-rule="evenodd" clip-rule="evenodd" fill="url(#SVGID_1_)" stroke="#414141" d="M63.871,95.515l-29.844,21.684
			c-5.736,4.166-11.225,0.182-9.033-6.564l11.4-35.082L6.55,53.87C0.814,49.7,2.91,43.251,10,43.249h36.889l11.4-35.08
			c2.189-6.746,8.973-6.746,11.165,0l11.402,35.08h36.885c7.092,0.002,9.188,6.451,3.451,10.621L91.35,75.552l11.396,35.082
			c2.191,6.746-3.295,10.73-9.033,6.564L63.871,95.515z"/>
		<linearGradient id="SVGID_2_" gradientUnits="userSpaceOnUse" x1="3.2441" y1="61.0044" x2="124.498" y2="61.0044">
			<stop  offset="0" style="stop-color:#BEBEBE"/>
			<stop  offset="1" style="stop-color:#6A6A6A"/>
		</linearGradient>
		<path fill-rule="evenodd" clip-rule="evenodd" fill="url(#SVGID_2_)" stroke="#414141" d="M63.871,95.515l-29.844,21.684
			c-5.736,4.166-11.225,0.182-9.033-6.564l11.4-35.082L6.55,53.87C0.814,49.7,2.91,43.251,10,43.249h36.889l11.4-35.08
			c2.189-6.746,8.973-6.746,11.165,0l11.402,35.08h36.885c7.092,0.002,9.188,6.451,3.451,10.621L91.35,75.552l11.396,35.082
			c2.191,6.746-3.295,10.73-9.033,6.564L63.871,95.515z"/>
	</g>
</g>
</svg>
