<?xml version="1.0" encoding="UTF-8" standalone="no"?>
<!-- Generator: Adobe Illustrator 13.0.0, SVG Export Plug-In . SVG Version: 6.00 Build 14948)  -->
<svg
   xmlns:dc="http://purl.org/dc/elements/1.1/"
   xmlns:cc="http://creativecommons.org/ns#"
   xmlns:rdf="http://www.w3.org/1999/02/22-rdf-syntax-ns#"
   xmlns:svg="http://www.w3.org/2000/svg"
   xmlns="http://www.w3.org/2000/svg"
   xmlns:xlink="http://www.w3.org/1999/xlink"
   xmlns:sodipodi="http://sodipodi.sourceforge.net/DTD/sodipodi-0.dtd"
   xmlns:inkscape="http://www.inkscape.org/namespaces/inkscape"
   version="1.0"
   id="Layer_1"
   x="0px"
   y="0px"
   width="128.846px"
   height="122.544px"
   viewBox="0 0 128.846 122.544"
   enable-background="new 0 0 128.846 122.544"
   xml:space="preserve"
   sodipodi:version="0.32"
   inkscape:version="0.46"
   sodipodi:docname="red_star_rnd.svg"
   inkscape:output_extension="org.inkscape.output.svg.inkscape"><metadata
   id="metadata8407"><rdf:RDF><cc:Work
       rdf:about=""><dc:format>image/svg+xml</dc:format><dc:type
         rdf:resource="http://purl.org/dc/dcmitype/StillImage" /></cc:Work></rdf:RDF></metadata><defs
   id="defs8405"><inkscape:perspective
   sodipodi:type="inkscape:persp3d"
   inkscape:vp_x="0 : 61.271999 : 1"
   inkscape:vp_y="0 : 1000 : 0"
   inkscape:vp_z="128.84599 : 61.271999 : 1"
   inkscape:persp3d-origin="64.422997 : 40.848 : 1"
   id="perspective8409" />
	
	
<linearGradient
   inkscape:collect="always"
   xlink:href="#SVGID_1_"
   id="linearGradient8932"
   gradientUnits="userSpaceOnUse"
   x1="2.4384999"
   y1="60.637699"
   x2="123.3472"
   y2="60.637699" /><linearGradient
   inkscape:collect="always"
   xlink:href="#SVGID_2_"
   id="linearGradient8934"
   gradientUnits="userSpaceOnUse"
   x1="2.4384999"
   y1="60.637699"
   x2="123.3472"
   y2="60.637699" />
		<linearGradient
   id="SVGID_1_"
   gradientUnits="userSpaceOnUse"
   x1="2.4384999"
   y1="60.637699"
   x2="123.3472"
   y2="60.637699">
			<stop
   offset="0"
   style="stop-color:#FF897A"
   id="stop8391" />
			<stop
   offset="1"
   style="stop-color:#FF3400"
   id="stop8393" />
		</linearGradient>
		
		<linearGradient
   id="SVGID_2_"
   gradientUnits="userSpaceOnUse"
   x1="2.4384999"
   y1="60.637699"
   x2="123.3472"
   y2="60.637699">
			<stop
   offset="0"
   style="stop-color:#FF897A"
   id="stop8398" />
			<stop
   offset="1"
   style="stop-color:#FF3400"
   id="stop8400" />
		</linearGradient>
		
	<linearGradient
   inkscape:collect="always"
   xlink:href="#SVGID_2_"
   id="linearGradient8943"
   gradientUnits="userSpaceOnUse"
   x1="2.4384999"
   y1="60.637699"
   x2="123.3472"
   y2="60.637699" /><linearGradient
   inkscape:collect="always"
   xlink:href="#SVGID_1_"
   id="linearGradient8946"
   gradientUnits="userSpaceOnUse"
   x1="2.4384999"
   y1="60.637699"
   x2="123.3472"
   y2="60.637699" />
		
		
	</defs><sodipodi:namedview
   inkscape:window-height="970"
   inkscape:window-width="1680"
   inkscape:pageshadow="2"
   inkscape:pageopacity="0.0"
   guidetolerance="10.0"
   gridtolerance="10.0"
   objecttolerance="10.0"
   borderopacity="1.0"
   bordercolor="#666666"
   pagecolor="#ffffff"
   id="base"
   showgrid="false"
   inkscape:zoom="3.9496018"
   inkscape:cx="14.797741"
   inkscape:cy="61.271999"
   inkscape:window-x="-8"
   inkscape:window-y="-8"
   inkscape:current-layer="Layer_1" />

<g
   id="g8950">
   
     
     <path
     style="opacity:0.25;fill-rule:evenodd"
     id="path8384"
     d="M 66.588,97.681 L 36.828,119.302 C 31.108,123.457 25.637,119.483 27.819,112.756 L 39.187,77.774 L 9.43,56.153 C 3.71,51.996 5.799,45.565 12.87,45.563 L 49.653,45.562 L 61.02,10.582 C 63.205,3.855 69.967,3.855 72.154,10.582 L 83.522,45.562 L 120.303,45.563 C 127.374,45.565 129.465,51.996 123.744,56.153 L 93.989,77.774 L 105.352,112.756 C 107.539,119.483 102.066,123.457 96.345,119.302 L 66.588,97.681 z"
     clip-rule="evenodd" /><path
     style="fill:#ffffff;fill-rule:evenodd;stroke:#000000;fill-opacity:1;stroke-opacity:1"
     id="path8395"
     d="M 62.894,95.051 L 33.134,116.672 C 27.413,120.827 21.943,116.853 24.124,110.126 L 35.493,75.144 L 5.736,53.523 C 0.015,49.366 2.105,42.935 9.175,42.933 L 45.958,42.932 L 57.325,7.952 C 59.511,1.225 66.272,1.225 68.46,7.952 L 79.827,42.932 L 116.608,42.933 C 123.68,42.935 125.77,49.366 120.049,53.523 L 90.294,75.144 L 101.657,110.126 C 103.843,116.853 98.37,120.827 92.649,116.672 L 62.894,95.051 z"
     clip-rule="evenodd" /></g>
</svg>