<?xml version="1.0" encoding="utf-8"?>
<!-- Generator: Adobe Illustrator 13.0.0, SVG Export Plug-In . SVG Version: 6.00 Build 14948)  -->
<!DOCTYPE svg PUBLIC "-//W3C//DTD SVG 1.0//EN" "http://www.w3.org/TR/2001/REC-SVG-20010904/DTD/svg10.dtd">
<svg version="1.0" id="Layer_1" xmlns="http://www.w3.org/2000/svg" xmlns:xlink="http://www.w3.org/1999/xlink" x="0px" y="0px"
	 width="129.18px" height="121.815px" viewBox="0 0 129.18 121.815" enable-background="new 0 0 129.18 121.815"
	 xml:space="preserve">

<g>
	<g opacity="0.25">
		<polygon fill-rule="evenodd" clip-rule="evenodd" points="102.995,119.442 65.882,92.479 28.768,119.442 42.944,75.813 
			5.832,48.849 51.705,48.847 65.882,5.22 80.06,48.847 125.931,48.849 88.819,75.813 		"/>
		<polygon fill-rule="evenodd" clip-rule="evenodd" points="102.995,119.442 65.882,92.479 28.768,119.442 42.944,75.813 
			5.832,48.849 51.705,48.847 65.882,5.22 80.06,48.847 125.931,48.849 88.819,75.813 		"/>
	</g>
	<g>
		<linearGradient id="SVGID_1_" gradientUnits="userSpaceOnUse" x1="3.8833" y1="61.0073" x2="124.3252" y2="61.0073">
			<stop  offset="0" style="stop-color:#BEBEBE"/>
			<stop  offset="1" style="stop-color:#6A6A6A"/>
		</linearGradient>
		<polygon fill-rule="evenodd" clip-rule="evenodd" fill="url(#SVGID_1_)" stroke="#414141" points="101.323,118.28 64.104,91.241 
			26.885,118.28 41.1,74.528 3.883,47.486 49.887,47.486 64.104,3.734 78.323,47.486 124.325,47.486 87.106,74.528 		"/>
		<linearGradient id="SVGID_2_" gradientUnits="userSpaceOnUse" x1="3.8833" y1="61.0073" x2="124.3252" y2="61.0073">
			<stop  offset="0" style="stop-color:#BEBEBE"/>
			<stop  offset="1" style="stop-color:#6A6A6A"/>
		</linearGradient>
		<polygon fill-rule="evenodd" clip-rule="evenodd" fill="url(#SVGID_2_)" stroke="#414141" points="101.323,118.28 64.104,91.241 
			26.885,118.28 41.1,74.528 3.883,47.486 49.887,47.486 64.104,3.734 78.323,47.486 124.325,47.486 87.106,74.528 		"/>
	</g>
</g>
</svg>
