<?xml version="1.0" encoding="utf-8"?>
<!-- Generator: Adobe Illustrator 13.0.0, SVG Export Plug-In . SVG Version: 6.00 Build 14948)  -->
<!DOCTYPE svg PUBLIC "-//W3C//DTD SVG 1.0//EN" "http://www.w3.org/TR/2001/REC-SVG-20010904/DTD/svg10.dtd">
<svg version="1.0" id="Layer_1" xmlns="http://www.w3.org/2000/svg" xmlns:xlink="http://www.w3.org/1999/xlink" x="0px" y="0px"
	 width="96.402px" height="118.167px" viewBox="0 0 96.402 118.167" enable-background="new 0 0 96.402 118.167"
	 xml:space="preserve">

<g>
	<g opacity="0.25">
		<path fill-rule="evenodd" clip-rule="evenodd" d="M64.151,56.98v56.241c0,1.236-1.089,2.326-2.326,2.326H36.573
			c-1.238,0-2.326-1.09-2.326-2.326V56.98H8.101c-2.491,0-3.393-1.989-1.746-3.859L47.951,5.78c0.964-1.099,2.529-1.099,3.493,0
			l41.599,47.341c1.644,1.87,0.745,3.859-1.748,3.859H64.151z"/>
		<path fill-rule="evenodd" clip-rule="evenodd" d="M64.151,56.98v56.241c0,1.236-1.089,2.326-2.326,2.326H36.573
			c-1.238,0-2.326-1.09-2.326-2.326V56.98H8.101c-2.491,0-3.393-1.989-1.746-3.859L47.951,5.78c0.964-1.099,2.529-1.099,3.493,0
			l41.599,47.341c1.644,1.87,0.745,3.859-1.748,3.859H64.151z"/>
	</g>
	<g>
		<linearGradient id="SVGID_1_" gradientUnits="userSpaceOnUse" x1="3.1616" y1="59.4341" x2="91.7666" y2="59.4341">
			<stop  offset="0" style="stop-color:#BEBEBE"/>
			<stop  offset="1" style="stop-color:#6A6A6A"/>
		</linearGradient>
		<path fill-rule="evenodd" clip-rule="evenodd" fill="url(#SVGID_1_)" stroke="#414141" d="M61.958,56.153v56.401
			c0,1.24-1.092,2.332-2.332,2.332H34.302c-1.242,0-2.332-1.092-2.332-2.332V56.153H5.749c-2.498,0-3.402-1.994-1.752-3.869
			L45.712,4.808c0.967-1.102,2.537-1.102,3.504,0l41.717,47.477c1.648,1.875,0.746,3.869-1.754,3.869H61.958z"/>
		<linearGradient id="SVGID_2_" gradientUnits="userSpaceOnUse" x1="3.1616" y1="59.4341" x2="91.7666" y2="59.4341">
			<stop  offset="0" style="stop-color:#BEBEBE"/>
			<stop  offset="1" style="stop-color:#6A6A6A"/>
		</linearGradient>
		<path fill-rule="evenodd" clip-rule="evenodd" fill="url(#SVGID_2_)" stroke="#414141" d="M61.958,56.153v56.401
			c0,1.24-1.092,2.332-2.332,2.332H34.302c-1.242,0-2.332-1.092-2.332-2.332V56.153H5.749c-2.498,0-3.402-1.994-1.752-3.869
			L45.712,4.808c0.967-1.102,2.537-1.102,3.504,0l41.717,47.477c1.648,1.875,0.746,3.869-1.754,3.869H61.958z"/>
	</g>
</g>
</svg>
