<?xml version="1.0" encoding="utf-8"?>
<!-- Generator: Adobe Illustrator 13.0.0, SVG Export Plug-In . SVG Version: 6.00 Build 14948)  -->
<!DOCTYPE svg PUBLIC "-//W3C//DTD SVG 1.0//EN" "http://www.w3.org/TR/2001/REC-SVG-20010904/DTD/svg10.dtd">
<svg version="1.0" id="Layer_1" xmlns="http://www.w3.org/2000/svg" xmlns:xlink="http://www.w3.org/1999/xlink" x="0px" y="0px"
	 width="116.463px" height="93.249px" viewBox="0 0 116.463 93.249" enable-background="new 0 0 116.463 93.249"
	 xml:space="preserve">

<g>
	<path fill-rule="evenodd" clip-rule="evenodd" fill="none" stroke="#595959" d="M55.279,31.942h56.24
		c1.236,0,2.324,1.086,2.324,2.325v25.253c0,1.235-1.088,2.325-2.324,2.325h-56.24v26.147c0,2.49-1.988,3.391-3.86,1.745
		L4.078,48.141c-1.097-0.963-1.097-2.53,0-3.495l47.34-41.599c1.872-1.643,3.86-0.745,3.86,1.748V31.942z"/>
	<path fill-rule="evenodd" clip-rule="evenodd" fill="none" stroke="#595959" d="M55.279,31.942h56.24
		c1.236,0,2.324,1.086,2.324,2.325v25.253c0,1.235-1.088,2.325-2.324,2.325h-56.24v26.147c0,2.49-1.988,3.391-3.86,1.745
		L4.078,48.141c-1.097-0.963-1.097-2.53,0-3.495l47.34-41.599c1.872-1.643,3.86-0.745,3.86,1.748V31.942z"/>
</g>
</svg>
