<?xml version="1.0" encoding="utf-8"?>
<!-- Generator: Adobe Illustrator 13.0.0, SVG Export Plug-In . SVG Version: 6.00 Build 14948)  -->
<!DOCTYPE svg PUBLIC "-//W3C//DTD SVG 1.0//EN" "http://www.w3.org/TR/2001/REC-SVG-20010904/DTD/svg10.dtd">
<svg version="1.0" id="Layer_1" xmlns="http://www.w3.org/2000/svg" xmlns:xlink="http://www.w3.org/1999/xlink" x="0px" y="0px"
	 width="116.463px" height="93.249px" viewBox="0 0 116.463 93.249" enable-background="new 0 0 116.463 93.249"
	 xml:space="preserve">

<g>
	<path fill-rule="evenodd" clip-rule="evenodd" fill="none" stroke="#595959" d="M61.819,60.847H5.581
		c-1.238,0-2.326-1.088-2.326-2.326V33.268c0-1.237,1.088-2.325,2.326-2.325h56.238V4.795c0-2.493,1.988-3.391,3.861-1.748
		l47.34,41.599c1.098,0.965,1.098,2.529,0,3.495L65.68,89.738c-1.873,1.646-3.861,0.745-3.861-1.745V60.847z"/>
	<path fill-rule="evenodd" clip-rule="evenodd" fill="none" stroke="#595959" d="M61.819,60.847H5.581
		c-1.238,0-2.326-1.088-2.326-2.326V33.268c0-1.237,1.088-2.325,2.326-2.325h56.238V4.795c0-2.493,1.988-3.391,3.861-1.748
		l47.34,41.599c1.098,0.965,1.098,2.529,0,3.495L65.68,89.738c-1.873,1.646-3.861,0.745-3.861-1.745V60.847z"/>
</g>
</svg>
