<?xml version="1.0" encoding="utf-8"?>
<!-- Generator: Adobe Illustrator 13.0.0, SVG Export Plug-In . SVG Version: 6.00 Build 14948)  -->
<!DOCTYPE svg PUBLIC "-//W3C//DTD SVG 1.0//EN" "http://www.w3.org/TR/2001/REC-SVG-20010904/DTD/svg10.dtd">
<svg version="1.0" id="Layer_1" xmlns="http://www.w3.org/2000/svg" xmlns:xlink="http://www.w3.org/1999/xlink" x="0px" y="0px"
	 width="121.085px" height="95.54px" viewBox="0 0 121.085 95.54" enable-background="new 0 0 121.085 95.54" xml:space="preserve">

<g>
	<g opacity="0.25">
		<path fill-rule="evenodd" clip-rule="evenodd" d="M59.385,35.196h56.24c1.236,0,2.324,1.086,2.324,2.325v25.253
			c0,1.235-1.088,2.325-2.324,2.325h-56.24v26.147c0,2.49-1.988,3.391-3.86,1.745L8.184,51.395c-1.097-0.963-1.097-2.53,0-3.495
			l47.34-41.599c1.872-1.643,3.86-0.745,3.86,1.748V35.196z"/>
		<path fill-rule="evenodd" clip-rule="evenodd" d="M59.385,35.196h56.24c1.236,0,2.324,1.086,2.324,2.325v25.253
			c0,1.235-1.088,2.325-2.324,2.325h-56.24v26.147c0,2.49-1.988,3.391-3.86,1.745L8.184,51.395c-1.097-0.963-1.097-2.53,0-3.495
			l47.34-41.599c1.872-1.643,3.86-0.745,3.86,1.748V35.196z"/>
	</g>
	<g>
		<linearGradient id="SVGID_1_" gradientUnits="userSpaceOnUse" x1="3.771" y1="47.2554" x2="114.3589" y2="47.2554">
			<stop  offset="0" style="stop-color:#7CD4FF"/>
			<stop  offset="1" style="stop-color:#3777AE"/>
		</linearGradient>
		<path fill-rule="evenodd" clip-rule="evenodd" fill="url(#SVGID_1_)" stroke="#194E6A" d="M55.794,32.803h56.24
			c1.237,0,2.325,1.086,2.325,2.326v25.252c0,1.236-1.088,2.326-2.325,2.326h-56.24v26.146c0,2.49-1.988,3.391-3.86,1.746
			L4.593,49.002c-1.097-0.963-1.097-2.529,0-3.494l47.34-41.6c1.872-1.643,3.86-0.744,3.86,1.748V32.803z"/>
		<linearGradient id="SVGID_2_" gradientUnits="userSpaceOnUse" x1="3.771" y1="47.2554" x2="114.3589" y2="47.2554">
			<stop  offset="0" style="stop-color:#7CD4FF"/>
			<stop  offset="1" style="stop-color:#3777AE"/>
		</linearGradient>
		<path fill-rule="evenodd" clip-rule="evenodd" fill="url(#SVGID_2_)" stroke="#194E6A" d="M55.794,32.803h56.24
			c1.237,0,2.325,1.086,2.325,2.326v25.252c0,1.236-1.088,2.326-2.325,2.326h-56.24v26.146c0,2.49-1.988,3.391-3.86,1.746
			L4.593,49.002c-1.097-0.963-1.097-2.529,0-3.494l47.34-41.6c1.872-1.643,3.86-0.744,3.86,1.748V32.803z"/>
	</g>
</g>
</svg>
