<?xml version="1.0" encoding="utf-8"?>
<!-- Generator: Adobe Illustrator 13.0.0, SVG Export Plug-In . SVG Version: 6.00 Build 14948)  -->
<!DOCTYPE svg PUBLIC "-//W3C//DTD SVG 1.0//EN" "http://www.w3.org/TR/2001/REC-SVG-20010904/DTD/svg10.dtd">
<svg version="1.0" id="Layer_1" xmlns="http://www.w3.org/2000/svg" xmlns:xlink="http://www.w3.org/1999/xlink" x="0px" y="0px"
	 width="97.773px" height="118.167px" viewBox="0 0 97.773 118.167" enable-background="new 0 0 97.773 118.167"
	 xml:space="preserve">

<g>
	<g opacity="0.25">
		<path fill-rule="evenodd" clip-rule="evenodd" d="M65.453,57.689v56.24c0,1.236-1.089,2.326-2.326,2.326H37.875
			c-1.238,0-2.326-1.09-2.326-2.326v-56.24H9.402c-2.491,0-3.393-1.989-1.746-3.859L49.252,6.489c0.964-1.099,2.529-1.099,3.493,0
			L94.344,53.83c1.644,1.87,0.745,3.859-1.748,3.859H65.453z"/>
		<path fill-rule="evenodd" clip-rule="evenodd" d="M65.453,57.689v56.24c0,1.236-1.089,2.326-2.326,2.326H37.875
			c-1.238,0-2.326-1.09-2.326-2.326v-56.24H9.402c-2.491,0-3.393-1.989-1.746-3.859L49.252,6.489c0.964-1.099,2.529-1.099,3.493,0
			L94.344,53.83c1.644,1.87,0.745,3.859-1.748,3.859H65.453z"/>
	</g>
	<g>
		<linearGradient id="SVGID_1_" gradientUnits="userSpaceOnUse" x1="3.231" y1="58.5684" x2="91.5854" y2="58.5684">
			<stop  offset="0" style="stop-color:#7CD4FF"/>
			<stop  offset="1" style="stop-color:#3777AE"/>
		</linearGradient>
		<path fill-rule="evenodd" clip-rule="evenodd" fill="url(#SVGID_1_)" stroke="#194E6A" d="M61.862,55.297v56.24
			c0,1.236-1.09,2.326-2.326,2.326H34.284c-1.238,0-2.326-1.09-2.326-2.326v-56.24H5.811c-2.492,0-3.393-1.99-1.746-3.859
			L45.661,4.096c0.965-1.098,2.529-1.098,3.494,0l41.598,47.342c1.645,1.869,0.746,3.859-1.748,3.859H61.862z"/>
		<linearGradient id="SVGID_2_" gradientUnits="userSpaceOnUse" x1="3.231" y1="58.5684" x2="91.5854" y2="58.5684">
			<stop  offset="0" style="stop-color:#7CD4FF"/>
			<stop  offset="1" style="stop-color:#3777AE"/>
		</linearGradient>
		<path fill-rule="evenodd" clip-rule="evenodd" fill="url(#SVGID_2_)" stroke="#194E6A" d="M61.862,55.297v56.24
			c0,1.236-1.09,2.326-2.326,2.326H34.284c-1.238,0-2.326-1.09-2.326-2.326v-56.24H5.811c-2.492,0-3.393-1.99-1.746-3.859
			L45.661,4.096c0.965-1.098,2.529-1.098,3.494,0l41.598,47.342c1.645,1.869,0.746,3.859-1.748,3.859H61.862z"/>
	</g>
</g>
</svg>
