<?xml version="1.0" encoding="utf-8"?>
<!-- Generator: Adobe Illustrator 13.0.0, SVG Export Plug-In . SVG Version: 6.00 Build 14948)  -->
<!DOCTYPE svg PUBLIC "-//W3C//DTD SVG 1.0//EN" "http://www.w3.org/TR/2001/REC-SVG-20010904/DTD/svg10.dtd">
<svg version="1.0" id="Layer_1" xmlns="http://www.w3.org/2000/svg" xmlns:xlink="http://www.w3.org/1999/xlink" x="0px" y="0px"
	 width="97.774px" height="116.878px" viewBox="0 0 97.774 116.878" enable-background="new 0 0 97.774 116.878"
	 xml:space="preserve">

<g>
	<path fill-rule="evenodd" clip-rule="evenodd" fill="none" stroke="#595959" d="M34.752,61.478V5.239
		c0-1.237,1.086-2.325,2.325-2.325H62.33c1.236,0,2.326,1.088,2.326,2.325v56.239h26.146c2.491,0,3.392,1.99,1.746,3.861
		l-41.596,47.34c-0.965,1.098-2.531,1.098-3.496,0L5.86,65.339c-1.645-1.871-0.745-3.861,1.746-3.861H34.752z"/>
	<path fill-rule="evenodd" clip-rule="evenodd" fill="none" stroke="#595959" d="M34.752,61.478V5.239
		c0-1.237,1.086-2.325,2.325-2.325H62.33c1.236,0,2.326,1.088,2.326,2.325v56.239h26.146c2.491,0,3.392,1.99,1.746,3.861
		l-41.596,47.34c-0.965,1.098-2.531,1.098-3.496,0L5.86,65.339c-1.645-1.871-0.745-3.861,1.746-3.861H34.752z"/>
</g>
</svg>
