<?xml version="1.0" encoding="utf-8"?>
<!-- Generator: Adobe Illustrator 13.0.0, SVG Export Plug-In . SVG Version: 6.00 Build 14948)  -->
<!DOCTYPE svg PUBLIC "-//W3C//DTD SVG 1.0//EN" "http://www.w3.org/TR/2001/REC-SVG-20010904/DTD/svg10.dtd">
<svg version="1.0" id="Layer_1" xmlns="http://www.w3.org/2000/svg" xmlns:xlink="http://www.w3.org/1999/xlink" x="0px" y="0px"
	 width="96.661px" height="119.096px" viewBox="0 0 96.661 119.096" enable-background="new 0 0 96.661 119.096"
	 xml:space="preserve">

<g>
	<g opacity="0.25">
		<path fill-rule="evenodd" clip-rule="evenodd" d="M64.949,58.272v56.24c0,1.236-1.089,2.326-2.326,2.326H37.371
			c-1.238,0-2.326-1.09-2.326-2.326v-56.24H8.898c-2.491,0-3.393-1.989-1.746-3.859L48.749,7.072c0.964-1.099,2.529-1.099,3.493,0
			L93.84,54.413c1.644,1.87,0.745,3.859-1.748,3.859H64.949z"/>
		<path fill-rule="evenodd" clip-rule="evenodd" d="M64.949,58.272v56.24c0,1.236-1.089,2.326-2.326,2.326H37.371
			c-1.238,0-2.326-1.09-2.326-2.326v-56.24H8.898c-2.491,0-3.393-1.989-1.746-3.859L48.749,7.072c0.964-1.099,2.529-1.099,3.493,0
			L93.84,54.413c1.644,1.87,0.745,3.859-1.748,3.859H64.949z"/>
	</g>
	<g>
		<linearGradient id="SVGID_1_" gradientUnits="userSpaceOnUse" x1="2.623" y1="58.9136" x2="90.978" y2="58.9136">
			<stop  offset="0" style="stop-color:#FF897A"/>
			<stop  offset="1" style="stop-color:#FF3400"/>
		</linearGradient>
		<path fill-rule="evenodd" clip-rule="evenodd" fill="url(#SVGID_1_)" stroke="#6F0000" d="M61.253,55.643v56.24
			c0,1.236-1.088,2.326-2.326,2.326H33.675c-1.238,0-2.326-1.09-2.326-2.326v-56.24H5.203c-2.49,0-3.393-1.989-1.746-3.859
			L45.054,4.442c0.963-1.099,2.529-1.099,3.492,0l41.6,47.341c1.643,1.87,0.744,3.859-1.748,3.859H61.253z"/>
		<linearGradient id="SVGID_2_" gradientUnits="userSpaceOnUse" x1="2.623" y1="58.9136" x2="90.978" y2="58.9136">
			<stop  offset="0" style="stop-color:#FF897A"/>
			<stop  offset="1" style="stop-color:#FF3400"/>
		</linearGradient>
		<path fill-rule="evenodd" clip-rule="evenodd" fill="url(#SVGID_2_)" stroke="#6F0000" d="M61.253,55.643v56.24
			c0,1.236-1.088,2.326-2.326,2.326H33.675c-1.238,0-2.326-1.09-2.326-2.326v-56.24H5.203c-2.49,0-3.393-1.989-1.746-3.859
			L45.054,4.442c0.963-1.099,2.529-1.099,3.492,0l41.6,47.341c1.643,1.87,0.744,3.859-1.748,3.859H61.253z"/>
	</g>
</g>
</svg>
