<?xml version="1.0" encoding="utf-8"?>
<!-- Generator: Adobe Illustrator 13.0.0, SVG Export Plug-In . SVG Version: 6.00 Build 14948)  -->
<!DOCTYPE svg PUBLIC "-//W3C//DTD SVG 1.0//EN" "http://www.w3.org/TR/2001/REC-SVG-20010904/DTD/svg10.dtd">
<svg version="1.0" id="Layer_1" xmlns="http://www.w3.org/2000/svg" xmlns:xlink="http://www.w3.org/1999/xlink" x="0px" y="0px"
	 width="118.344px" height="94.854px" viewBox="0 0 118.344 94.854" enable-background="new 0 0 118.344 94.854"
	 xml:space="preserve">

<g>
	<g opacity="0.25">
		<path fill-rule="evenodd" clip-rule="evenodd" d="M57.918,34.128h56.24c1.236,0,2.324,1.086,2.324,2.325v25.252
			c0,1.235-1.088,2.325-2.324,2.325h-56.24v26.147c0,2.49-1.988,3.391-3.86,1.745L6.717,50.326c-1.097-0.963-1.097-2.529,0-3.494
			l47.34-41.599c1.872-1.643,3.86-0.745,3.86,1.748V34.128z"/>
		<path fill-rule="evenodd" clip-rule="evenodd" d="M57.918,34.128h56.24c1.236,0,2.324,1.086,2.324,2.325v25.252
			c0,1.235-1.088,2.325-2.324,2.325h-56.24v26.147c0,2.49-1.988,3.391-3.86,1.745L6.717,50.326c-1.097-0.963-1.097-2.529,0-3.494
			l47.34-41.599c1.872-1.643,3.86-0.745,3.86,1.748V34.128z"/>
	</g>
	<g>
		<linearGradient id="SVGID_1_" gradientUnits="userSpaceOnUse" x1="2.4966" y1="47.7617" x2="113.3994" y2="47.7617">
			<stop  offset="0" style="stop-color:#BEBEBE"/>
			<stop  offset="1" style="stop-color:#6A6A6A"/>
		</linearGradient>
		<path fill-rule="evenodd" clip-rule="evenodd" fill="url(#SVGID_1_)" stroke="#414141" d="M54.668,33.269h56.4
			c1.24,0,2.331,1.09,2.331,2.332v25.324c0,1.24-1.091,2.332-2.331,2.332h-56.4v26.223c0,2.498-1.994,3.4-3.871,1.75L3.322,49.512
			c-1.1-0.964-1.1-2.535,0-3.503L50.797,4.292c1.877-1.646,3.871-0.746,3.871,1.754V33.269z"/>
		<linearGradient id="SVGID_2_" gradientUnits="userSpaceOnUse" x1="2.4966" y1="47.7617" x2="113.3994" y2="47.7617">
			<stop  offset="0" style="stop-color:#BEBEBE"/>
			<stop  offset="1" style="stop-color:#6A6A6A"/>
		</linearGradient>
		<path fill-rule="evenodd" clip-rule="evenodd" fill="url(#SVGID_2_)" stroke="#414141" d="M54.668,33.269h56.4
			c1.24,0,2.331,1.09,2.331,2.332v25.324c0,1.24-1.091,2.332-2.331,2.332h-56.4v26.223c0,2.498-1.994,3.4-3.871,1.75L3.322,49.512
			c-1.1-0.964-1.1-2.535,0-3.503L50.797,4.292c1.877-1.646,3.871-0.746,3.871,1.754V33.269z"/>
	</g>
</g>
</svg>
