<?xml version="1.0" encoding="utf-8"?>
<!-- Generator: Adobe Illustrator 13.0.0, SVG Export Plug-In . SVG Version: 6.00 Build 14948)  -->
<!DOCTYPE svg PUBLIC "-//W3C//DTD SVG 1.0//EN" "http://www.w3.org/TR/2001/REC-SVG-20010904/DTD/svg10.dtd">
<svg version="1.0" id="Layer_1" xmlns="http://www.w3.org/2000/svg" xmlns:xlink="http://www.w3.org/1999/xlink" x="0px" y="0px"
	 width="96.661px" height="119.096px" viewBox="0 0 96.661 119.096" enable-background="new 0 0 96.661 119.096"
	 xml:space="preserve">

<g>
	<g opacity="0.25">
		<path fill-rule="evenodd" clip-rule="evenodd" d="M36.043,64.812V8.574c0-1.237,1.086-2.325,2.325-2.325h25.252
			c1.236,0,2.326,1.088,2.326,2.325v56.238h26.146c2.491,0,3.392,1.99,1.746,3.861l-41.596,47.34c-0.965,1.099-2.531,1.099-3.496,0
			L7.151,68.674c-1.645-1.871-0.745-3.861,1.746-3.861H36.043z"/>
		<path fill-rule="evenodd" clip-rule="evenodd" d="M36.043,64.812V8.574c0-1.237,1.086-2.325,2.325-2.325h25.252
			c1.236,0,2.326,1.088,2.326,2.325v56.238h26.146c2.491,0,3.392,1.99,1.746,3.861l-41.596,47.34c-0.965,1.099-2.531,1.099-3.496,0
			L7.151,68.674c-1.645-1.871-0.745-3.861,1.746-3.861H36.043z"/>
	</g>
	<g>
		<linearGradient id="SVGID_1_" gradientUnits="userSpaceOnUse" x1="2.6235" y1="58.9136" x2="90.978" y2="58.9136">
			<stop  offset="0" style="stop-color:#FF897A"/>
			<stop  offset="1" style="stop-color:#FF3400"/>
		</linearGradient>
		<path fill-rule="evenodd" clip-rule="evenodd" fill="url(#SVGID_1_)" stroke="#6F0000" d="M32.349,62.183V5.944
			c0-1.237,1.086-2.325,2.324-2.325h25.252c1.236,0,2.326,1.088,2.326,2.325v56.238h26.146c2.492,0,3.393,1.99,1.746,3.861
			l-41.596,47.34c-0.965,1.099-2.531,1.099-3.496,0L3.457,66.044c-1.645-1.871-0.746-3.861,1.746-3.861H32.349z"/>
		<linearGradient id="SVGID_2_" gradientUnits="userSpaceOnUse" x1="2.6235" y1="58.9136" x2="90.978" y2="58.9136">
			<stop  offset="0" style="stop-color:#FF897A"/>
			<stop  offset="1" style="stop-color:#FF3400"/>
		</linearGradient>
		<path fill-rule="evenodd" clip-rule="evenodd" fill="url(#SVGID_2_)" stroke="#6F0000" d="M32.349,62.183V5.944
			c0-1.237,1.086-2.325,2.324-2.325h25.252c1.236,0,2.326,1.088,2.326,2.325v56.238h26.146c2.492,0,3.393,1.99,1.746,3.861
			l-41.596,47.34c-0.965,1.099-2.531,1.099-3.496,0L3.457,66.044c-1.645-1.871-0.746-3.861,1.746-3.861H32.349z"/>
	</g>
</g>
</svg>
