<?xml version="1.0" encoding="UTF-8" standalone="no"?>
<!-- Generator: Adobe Illustrator 13.0.0, SVG Export Plug-In . SVG Version: 6.00 Build 14948)  -->
<svg
   xmlns:dc="http://purl.org/dc/elements/1.1/"
   xmlns:cc="http://creativecommons.org/ns#"
   xmlns:rdf="http://www.w3.org/1999/02/22-rdf-syntax-ns#"
   xmlns:svg="http://www.w3.org/2000/svg"
   xmlns="http://www.w3.org/2000/svg"
   xmlns:xlink="http://www.w3.org/1999/xlink"
   xmlns:sodipodi="http://sodipodi.sourceforge.net/DTD/sodipodi-0.dtd"
   xmlns:inkscape="http://www.inkscape.org/namespaces/inkscape"
   version="1.0"
   id="Layer_1"
   x="0px"
   y="0px"
   width="119.268px"
   height="96.873px"
   viewBox="0 0 119.268 96.873"
   enable-background="new 0 0 119.268 96.873"
   xml:space="preserve"
   sodipodi:version="0.32"
   inkscape:version="0.46"
   sodipodi:docname="red_arrow_left.svg"
   inkscape:output_extension="org.inkscape.output.svg.inkscape"><metadata
   id="metadata4509"><rdf:RDF><cc:Work
       rdf:about=""><dc:format>image/svg+xml</dc:format><dc:type
         rdf:resource="http://purl.org/dc/dcmitype/StillImage" /></cc:Work></rdf:RDF></metadata><defs
   id="defs4507"><inkscape:perspective
   sodipodi:type="inkscape:persp3d"
   inkscape:vp_x="0 : 48.436501 : 1"
   inkscape:vp_y="0 : 1000 : 0"
   inkscape:vp_z="119.268 : 48.436501 : 1"
   inkscape:persp3d-origin="59.633999 : 32.291 : 1"
   id="perspective4511" />
	
	
<linearGradient
   inkscape:collect="always"
   xlink:href="#SVGID_2_"
   id="linearGradient4520"
   gradientUnits="userSpaceOnUse"
   x1="2.8104999"
   y1="47.8018"
   x2="113.3989"
   y2="47.8018" />
		<linearGradient
   id="SVGID_2_"
   gradientUnits="userSpaceOnUse"
   x1="2.8104999"
   y1="47.8018"
   x2="113.3989"
   y2="47.8018">
	<stop
   offset="0"
   style="stop-color:#FFFFFF"
   id="stop4502" />
		</linearGradient>
		
	<linearGradient
   inkscape:collect="always"
   xlink:href="#SVGID_2_"
   id="linearGradient4525"
   gradientUnits="userSpaceOnUse"
   x1="2.8104999"
   y1="47.8018"
   x2="113.3989"
   y2="47.8018" />
		
		
	</defs><sodipodi:namedview
   inkscape:window-height="669"
   inkscape:window-width="640"
   inkscape:pageshadow="2"
   inkscape:pageopacity="0.0"
   guidetolerance="10.0"
   gridtolerance="10.0"
   objecttolerance="10.0"
   borderopacity="1.0"
   bordercolor="#666666"
   pagecolor="#ffffff"
   id="base"
   showgrid="false"
   inkscape:zoom="4.745615"
   inkscape:cx="59.633999"
   inkscape:cy="48.436501"
   inkscape:window-x="138"
   inkscape:window-y="138"
   inkscape:current-layer="Layer_1" />

<g
   id="g4529">

     <path
     style="opacity:0.25;fill-rule:evenodd"
     id="path4495"
     d="M 58.528,35.98 L 114.769,35.98 C 116.005,35.98 117.093,37.066 117.093,38.305 L 117.093,63.558 C 117.093,64.793 116.005,65.883 114.769,65.883 L 58.528,65.883 L 58.528,92.03 C 58.528,94.52 56.54,95.421 54.668,93.775 L 7.328,52.179 C 6.231,51.216 6.231,49.65 7.328,48.685 L 54.668,7.086 C 56.54,5.443 58.528,6.341 58.528,8.834 L 58.528,35.98 L 58.528,35.98 z"
     clip-rule="evenodd" /><path
     style="fill:url(#linearGradient4525);fill-rule:evenodd;stroke:#000000"
     id="path4504"
     d="M 54.833,33.351 L 111.074,33.351 C 112.311,33.351 113.399,34.437 113.399,35.676 L 113.399,60.929 C 113.399,62.164 112.311,63.254 111.074,63.254 L 54.833,63.254 L 54.833,89.401 C 54.833,91.891 52.845,92.792 50.974,91.146 L 3.633,49.549 C 2.536,48.586 2.536,47.02 3.633,46.055 L 50.974,4.456 C 52.845,2.813 54.833,3.711 54.833,6.204 L 54.833,33.351 z"
     clip-rule="evenodd" /></g>
</svg>