<?xml version="1.0" encoding="utf-8"?>
<!-- Generator: Adobe Illustrator 13.0.0, SVG Export Plug-In . SVG Version: 6.00 Build 14948)  -->
<!DOCTYPE svg PUBLIC "-//W3C//DTD SVG 1.0//EN" "http://www.w3.org/TR/2001/REC-SVG-20010904/DTD/svg10.dtd">
<svg version="1.0" id="Layer_1" xmlns="http://www.w3.org/2000/svg" xmlns:xlink="http://www.w3.org/1999/xlink" x="0px" y="0px"
	 width="157.533px" height="112.898px" viewBox="0 0 157.533 112.898" enable-background="new 0 0 157.533 112.898"
	 xml:space="preserve">

<g>
	<g opacity="0.25">
		<path fill-rule="evenodd" clip-rule="evenodd" d="M9.955,17.229c0-4.787,3.879-8.668,8.666-8.668h125.167
			c4.789,0,8.671,3.881,8.671,8.668v82.062c0,4.788-3.882,8.671-8.671,8.671H18.621c-4.787,0-8.666-3.883-8.666-8.671V17.229z"/>
		<path fill-rule="evenodd" clip-rule="evenodd" d="M9.955,17.229c0-4.787,3.879-8.668,8.666-8.668h125.167
			c4.789,0,8.671,3.881,8.671,8.668v82.062c0,4.788-3.882,8.671-8.671,8.671H18.621c-4.787,0-8.666-3.883-8.666-8.671V17.229z"/>
	</g>
	<g>
		<linearGradient id="SVGID_1_" gradientUnits="userSpaceOnUse" x1="6.3384" y1="54.5376" x2="148.8413" y2="54.5376">
			<stop  offset="0" style="stop-color:#BEBEBE"/>
			<stop  offset="1" style="stop-color:#6A6A6A"/>
		</linearGradient>
		<path fill-rule="evenodd" clip-rule="evenodd" fill="url(#SVGID_1_)" stroke="#414141" d="M6.338,13.506
			c0-4.786,3.878-8.668,8.666-8.668h125.167c4.788,0,8.67,3.882,8.67,8.668v82.064c0,4.787-3.882,8.666-8.67,8.666H15.004
			c-4.788,0-8.666-3.879-8.666-8.666V13.506z"/>
		<linearGradient id="SVGID_2_" gradientUnits="userSpaceOnUse" x1="6.3384" y1="54.5376" x2="148.8413" y2="54.5376">
			<stop  offset="0" style="stop-color:#BEBEBE"/>
			<stop  offset="1" style="stop-color:#6A6A6A"/>
		</linearGradient>
		<path fill-rule="evenodd" clip-rule="evenodd" fill="url(#SVGID_2_)" stroke="#414141" d="M6.338,13.506
			c0-4.786,3.878-8.668,8.666-8.668h125.167c4.788,0,8.67,3.882,8.67,8.668v82.064c0,4.787-3.882,8.666-8.67,8.666H15.004
			c-4.788,0-8.666-3.879-8.666-8.666V13.506z"/>
	</g>
</g>
</svg>
