<?xml version="1.0" encoding="utf-8"?>
<!-- Generator: Adobe Illustrator 13.0.0, SVG Export Plug-In . SVG Version: 6.00 Build 14948)  -->
<!DOCTYPE svg PUBLIC "-//W3C//DTD SVG 1.0//EN" "http://www.w3.org/TR/2001/REC-SVG-20010904/DTD/svg10.dtd">
<svg version="1.0" id="Layer_1" xmlns="http://www.w3.org/2000/svg" xmlns:xlink="http://www.w3.org/1999/xlink" x="0px" y="0px"
	 width="137.543px" height="122.28px" viewBox="0 0 137.543 122.28" enable-background="new 0 0 137.543 122.28"
	 xml:space="preserve">

<g>
	<g opacity="0.25">
		<path fill-rule="evenodd" clip-rule="evenodd" d="M70.535,120.661l-58.237-0.001c-6.572-0.001-9.401-4.899-6.115-10.592
			l29.118-50.437l29.12-50.435c3.286-5.692,8.944-5.692,12.23,0l29.12,50.435l29.117,50.437c3.287,5.692,0.457,10.591-6.114,10.592
			L70.535,120.661z"/>
		<path fill-rule="evenodd" clip-rule="evenodd" d="M70.535,120.661l-58.237-0.001c-6.572-0.001-9.401-4.899-6.115-10.592
			l29.118-50.437l29.12-50.435c3.286-5.692,8.944-5.692,12.23,0l29.12,50.435l29.117,50.437c3.287,5.692,0.457,10.591-6.114,10.592
			L70.535,120.661z"/>
	</g>
	<g>
		<linearGradient id="SVGID_1_" gradientUnits="userSpaceOnUse" x1="1.9136" y1="61.0127" x2="133.7422" y2="61.0127">
			<stop  offset="0" style="stop-color:#BEBEBE"/>
			<stop  offset="1" style="stop-color:#6A6A6A"/>
		</linearGradient>
		<path fill-rule="evenodd" clip-rule="evenodd" fill="url(#SVGID_1_)" stroke="#414141" d="M67.829,119.044l-58.404-0.001
			c-6.591-0.001-9.428-4.914-6.133-10.622L32.493,57.84L61.696,7.263c3.295-5.708,8.968-5.708,12.265,0l29.202,50.578l29.2,50.581
			c3.297,5.708,0.459,10.621-6.132,10.622L67.829,119.044z"/>
		<linearGradient id="SVGID_2_" gradientUnits="userSpaceOnUse" x1="1.9136" y1="61.0127" x2="133.7422" y2="61.0127">
			<stop  offset="0" style="stop-color:#BEBEBE"/>
			<stop  offset="1" style="stop-color:#6A6A6A"/>
		</linearGradient>
		<path fill-rule="evenodd" clip-rule="evenodd" fill="url(#SVGID_2_)" stroke="#414141" d="M67.829,119.044l-58.404-0.001
			c-6.591-0.001-9.428-4.914-6.133-10.622L32.493,57.84L61.696,7.263c3.295-5.708,8.968-5.708,12.265,0l29.202,50.578l29.2,50.581
			c3.297,5.708,0.459,10.621-6.132,10.622L67.829,119.044z"/>
	</g>
</g>
</svg>
