<?xml version="1.0" encoding="utf-8"?>
<!-- Generator: Adobe Illustrator 13.0.0, SVG Export Plug-In . SVG Version: 6.00 Build 14948)  -->
<!DOCTYPE svg PUBLIC "-//W3C//DTD SVG 1.0//EN" "http://www.w3.org/TR/2001/REC-SVG-20010904/DTD/svg10.dtd">
<svg version="1.0" id="Layer_1" xmlns="http://www.w3.org/2000/svg" xmlns:xlink="http://www.w3.org/1999/xlink" x="0px" y="0px"
	 width="136.036px" height="120.908px" viewBox="0 0 136.036 120.908" enable-background="new 0 0 136.036 120.908"
	 xml:space="preserve">

<g>
	<path fill-rule="evenodd" clip-rule="evenodd" fill="none" stroke="#595959" d="M68.334,119.001L10.097,119
		c-6.572-0.001-9.401-4.899-6.115-10.592L33.1,57.972L62.22,7.538c3.286-5.691,8.944-5.691,12.23,0l29.12,50.435l29.117,50.437
		c3.287,5.692,0.457,10.591-6.114,10.592L68.334,119.001z"/>
	<path fill-rule="evenodd" clip-rule="evenodd" fill="none" stroke="#595959" d="M68.334,119.001L10.097,119
		c-6.572-0.001-9.401-4.899-6.115-10.592L33.1,57.972L62.22,7.538c3.286-5.691,8.944-5.691,12.23,0l29.12,50.435l29.117,50.437
		c3.287,5.692,0.457,10.591-6.114,10.592L68.334,119.001z"/>
</g>
</svg>
