<?xml version="1.0" encoding="utf-8"?>
<!-- Generator: Adobe Illustrator 13.0.0, SVG Export Plug-In . SVG Version: 6.00 Build 14948)  -->
<!DOCTYPE svg PUBLIC "-//W3C//DTD SVG 1.0//EN" "http://www.w3.org/TR/2001/REC-SVG-20010904/DTD/svg10.dtd">
<svg version="1.0" id="Layer_1" xmlns="http://www.w3.org/2000/svg" xmlns:xlink="http://www.w3.org/1999/xlink" x="0px" y="0px"
	 width="157.533px" height="112.898px" viewBox="0 0 157.533 112.898" enable-background="new 0 0 157.533 112.898"
	 xml:space="preserve">

<g>
	<g opacity="0.25">
		<g>
			<polygon points="9.955,8.483 152.59,8.483 152.59,108.233 9.955,108.233 9.955,8.483 			"/>
			<path d="M81.274,58.358"/>
		</g>
		<g>
			<polygon points="9.955,8.483 152.59,8.483 152.59,108.233 9.955,108.233 9.955,8.483 			"/>
			<path d="M81.274,58.358"/>
		</g>
	</g>
	<g>
		<g>
			<linearGradient id="SVGID_1_" gradientUnits="userSpaceOnUse" x1="6.3384" y1="54.6367" x2="148.9741" y2="54.6367">
				<stop  offset="0" style="stop-color:#BEBEBE"/>
				<stop  offset="1" style="stop-color:#6A6A6A"/>
			</linearGradient>
			<polygon fill="url(#SVGID_1_)" stroke="#414141" points="6.338,4.762 148.974,4.762 148.974,104.511 6.338,104.511 6.338,4.762 
							"/>
			<linearGradient id="SVGID_2_" gradientUnits="userSpaceOnUse" x1="77.6567" y1="54.6353" x2="77.6567" y2="54.6353">
				<stop  offset="0" style="stop-color:#BEBEBE"/>
				<stop  offset="1" style="stop-color:#6A6A6A"/>
			</linearGradient>
			<path fill="url(#SVGID_2_)" stroke="#414141" d="M77.657,54.635"/>
		</g>
		<g>
			<linearGradient id="SVGID_3_" gradientUnits="userSpaceOnUse" x1="6.3384" y1="54.6367" x2="148.9741" y2="54.6367">
				<stop  offset="0" style="stop-color:#BEBEBE"/>
				<stop  offset="1" style="stop-color:#6A6A6A"/>
			</linearGradient>
			<polygon fill="url(#SVGID_3_)" stroke="#414141" points="6.338,4.762 148.974,4.762 148.974,104.511 6.338,104.511 6.338,4.762 
							"/>
			<linearGradient id="SVGID_4_" gradientUnits="userSpaceOnUse" x1="77.6567" y1="54.6353" x2="77.6567" y2="54.6353">
				<stop  offset="0" style="stop-color:#BEBEBE"/>
				<stop  offset="1" style="stop-color:#6A6A6A"/>
			</linearGradient>
			<path fill="url(#SVGID_4_)" stroke="#414141" d="M77.657,54.635"/>
		</g>
	</g>
</g>
</svg>
