<?xml version="1.0" encoding="utf-8"?>
<!-- Generator: Adobe Illustrator 13.0.0, SVG Export Plug-In . SVG Version: 6.00 Build 14948)  -->
<!DOCTYPE svg PUBLIC "-//W3C//DTD SVG 1.0//EN" "http://www.w3.org/TR/2001/REC-SVG-20010904/DTD/svg10.dtd">
<svg version="1.0" id="Layer_1" xmlns="http://www.w3.org/2000/svg" xmlns:xlink="http://www.w3.org/1999/xlink" x="0px" y="0px"
	 width="157.533px" height="112.898px" viewBox="0 0 157.533 112.898" enable-background="new 0 0 157.533 112.898"
	 xml:space="preserve">
<g>
	<g opacity="0.25">
		<g>
			<polygon points="10.126,8.483 152.763,8.483 152.763,108.233 10.126,108.233 10.126,8.483 			"/>
			<path d="M81.445,58.358"/>
		</g>
		<g>
			<polygon points="10.126,8.483 152.763,8.483 152.763,108.233 10.126,108.233 10.126,8.483 			"/>
			<path d="M81.445,58.358"/>
		</g>
	</g>
	<g>
		<g>
			<linearGradient id="SVGID_1_" gradientUnits="userSpaceOnUse" x1="6.5093" y1="54.6367" x2="149.146" y2="54.6367">
				<stop  offset="0" style="stop-color:#7CD4FF"/>
				<stop  offset="1" style="stop-color:#3777AE"/>
			</linearGradient>
			<polygon fill="url(#SVGID_1_)" stroke="#194E6A" points="6.509,4.762 149.146,4.762 149.146,104.511 6.509,104.511 6.509,4.762 
							"/>
			<path fill="#999999" d="M77.828,54.635"/>
		</g>
		<g>
			<linearGradient id="SVGID_2_" gradientUnits="userSpaceOnUse" x1="6.5093" y1="54.6367" x2="149.146" y2="54.6367">
				<stop  offset="0" style="stop-color:#7CD4FF"/>
				<stop  offset="1" style="stop-color:#3777AE"/>
			</linearGradient>
			<polygon fill="url(#SVGID_2_)" stroke="#194E6A" points="6.509,4.762 149.146,4.762 149.146,104.511 6.509,104.511 6.509,4.762 
							"/>
			<path fill="none" stroke="#000000" stroke-miterlimit="3.8637" d="M77.828,54.635"/>
		</g>
	</g>
</g>

</svg>
