<?xml version="1.0" encoding="utf-8"?>
<!-- Generator: Adobe Illustrator 13.0.0, SVG Export Plug-In . SVG Version: 6.00 Build 14948)  -->
<!DOCTYPE svg PUBLIC "-//W3C//DTD SVG 1.0//EN" "http://www.w3.org/TR/2001/REC-SVG-20010904/DTD/svg10.dtd">
<svg version="1.0" id="Layer_1" xmlns="http://www.w3.org/2000/svg" xmlns:xlink="http://www.w3.org/1999/xlink" x="0px" y="0px"
	 width="157.533px" height="112.898px" viewBox="0 0 157.533 112.898" enable-background="new 0 0 157.533 112.898"
	 xml:space="preserve">

<g>
	<path fill-rule="evenodd" clip-rule="evenodd" fill="none" stroke="#595959" d="M7.752,15.981c0-4.786,3.878-8.668,8.666-8.668
		h125.168c4.787,0,8.669,3.882,8.669,8.668v82.064c0,4.787-3.882,8.666-8.669,8.666H16.418c-4.788,0-8.666-3.879-8.666-8.666V15.981
		z"/>
	<path fill-rule="evenodd" clip-rule="evenodd" fill="none" stroke="#595959" d="M7.752,15.981c0-4.786,3.878-8.668,8.666-8.668
		h125.168c4.787,0,8.669,3.882,8.669,8.668v82.064c0,4.787-3.882,8.666-8.669,8.666H16.418c-4.788,0-8.666-3.879-8.666-8.666V15.981
		z"/>
</g>
</svg>
