<?xml version="1.0" encoding="utf-8"?>
<!-- Generator: Adobe Illustrator 13.0.0, SVG Export Plug-In . SVG Version: 6.00 Build 14948)  -->
<!DOCTYPE svg PUBLIC "-//W3C//DTD SVG 1.0//EN" "http://www.w3.org/TR/2001/REC-SVG-20010904/DTD/svg10.dtd">
<svg version="1.0" id="Layer_1" xmlns="http://www.w3.org/2000/svg" xmlns:xlink="http://www.w3.org/1999/xlink" x="0px" y="0px"
	 width="119.268px" height="96.873px" viewBox="0 0 119.268 96.873" enable-background="new 0 0 119.268 96.873"
	 xml:space="preserve">

<g>
	<g opacity="0.25">
		<path fill-rule="evenodd" clip-rule="evenodd" d="M65.069,64.885H8.831c-1.238,0-2.326-1.088-2.326-2.326V37.307
			c0-1.237,1.088-2.325,2.326-2.325h56.238V8.834c0-2.493,1.988-3.391,3.861-1.748l47.34,41.599c1.098,0.965,1.098,2.529,0,3.494
			L68.93,93.776c-1.873,1.646-3.861,0.745-3.861-1.745V64.885z"/>
		<path fill-rule="evenodd" clip-rule="evenodd" d="M65.069,64.885H8.831c-1.238,0-2.326-1.088-2.326-2.326V37.307
			c0-1.237,1.088-2.325,2.326-2.325h56.238V8.834c0-2.493,1.988-3.391,3.861-1.748l47.34,41.599c1.098,0.965,1.098,2.529,0,3.494
			L68.93,93.776c-1.873,1.646-3.861,0.745-3.861-1.745V64.885z"/>
	</g>
	<g>
		<linearGradient id="SVGID_1_" gradientUnits="userSpaceOnUse" x1="2.8101" y1="47.8018" x2="113.3979" y2="47.8018">
			<stop  offset="0" style="stop-color:#FF897A"/>
			<stop  offset="1" style="stop-color:#FF3400"/>
		</linearGradient>
		<path fill-rule="evenodd" clip-rule="evenodd" fill="url(#SVGID_1_)" stroke="#6F0000" d="M61.375,62.255H5.136
			c-1.238,0-2.326-1.088-2.326-2.326V34.677c0-1.237,1.088-2.325,2.326-2.325h56.239V6.204c0-2.493,1.988-3.391,3.86-1.748
			l47.34,41.599c1.098,0.965,1.098,2.529,0,3.494l-47.34,41.598c-1.872,1.646-3.86,0.745-3.86-1.745V62.255z"/>
		<linearGradient id="SVGID_2_" gradientUnits="userSpaceOnUse" x1="2.8101" y1="47.8018" x2="113.3979" y2="47.8018">
			<stop  offset="0" style="stop-color:#FF897A"/>
			<stop  offset="1" style="stop-color:#FF3400"/>
		</linearGradient>
		<path fill-rule="evenodd" clip-rule="evenodd" fill="url(#SVGID_2_)" stroke="#6F0000" d="M61.375,62.255H5.136
			c-1.238,0-2.326-1.088-2.326-2.326V34.677c0-1.237,1.088-2.325,2.326-2.325h56.239V6.204c0-2.493,1.988-3.391,3.86-1.748
			l47.34,41.599c1.098,0.965,1.098,2.529,0,3.494l-47.34,41.598c-1.872,1.646-3.86,0.745-3.86-1.745V62.255z"/>
	</g>
</g>
</svg>
