<?xml version="1.0" encoding="utf-8"?>
<!-- Generator: Adobe Illustrator 13.0.0, SVG Export Plug-In . SVG Version: 6.00 Build 14948)  -->
<!DOCTYPE svg PUBLIC "-//W3C//DTD SVG 1.0//EN" "http://www.w3.org/TR/2001/REC-SVG-20010904/DTD/svg10.dtd">
<svg version="1.0" id="Layer_1" xmlns="http://www.w3.org/2000/svg" xmlns:xlink="http://www.w3.org/1999/xlink" x="0px" y="0px"
	 width="153.157px" height="137.618px" viewBox="0 0 153.157 137.618" enable-background="new 0 0 153.157 137.618"
	 xml:space="preserve">

<g>
	<g opacity="0.25">
		<path fill-rule="evenodd" clip-rule="evenodd" d="M6.725,13.982c0-4.84,3.922-8.762,8.76-8.762h126.517
			c4.838,0,8.761,3.922,8.761,8.762v82.946c0,4.84-3.923,8.764-8.761,8.764h-35.27l-20.107,30.695v-30.695h-71.14
			c-4.838,0-8.76-3.924-8.76-8.764V13.982z"/>
		<path fill-rule="evenodd" clip-rule="evenodd" d="M6.725,13.982c0-4.84,3.922-8.762,8.76-8.762h126.517
			c4.838,0,8.761,3.922,8.761,8.762v82.946c0,4.84-3.923,8.764-8.761,8.764h-35.27l-20.107,30.695v-30.695h-71.14
			c-4.838,0-8.76-3.924-8.76-8.764V13.982z"/>
	</g>
	<g>
		<linearGradient id="SVGID_1_" gradientUnits="userSpaceOnUse" x1="3.0298" y1="68.1748" x2="147.0679" y2="68.1748">
			<stop  offset="0" style="stop-color:#FF897A"/>
			<stop  offset="1" style="stop-color:#FF3400"/>
		</linearGradient>
		<path fill-rule="evenodd" clip-rule="evenodd" fill="url(#SVGID_1_)" stroke="#6F0000" d="M3.03,11.353
			c0-4.84,3.922-8.762,8.761-8.762h126.516c4.839,0,8.762,3.922,8.762,8.762V94.3c0,4.838-3.923,8.762-8.762,8.762h-35.269
			l-20.108,30.697v-30.697H11.791c-4.839,0-8.761-3.924-8.761-8.762V11.353z"/>
		<linearGradient id="SVGID_2_" gradientUnits="userSpaceOnUse" x1="3.0298" y1="68.1748" x2="147.0679" y2="68.1748">
			<stop  offset="0" style="stop-color:#FF897A"/>
			<stop  offset="1" style="stop-color:#FF3400"/>
		</linearGradient>
		<path fill-rule="evenodd" clip-rule="evenodd" fill="url(#SVGID_2_)" stroke="#6F0000" d="M3.03,11.353
			c0-4.84,3.922-8.762,8.761-8.762h126.516c4.839,0,8.762,3.922,8.762,8.762V94.3c0,4.838-3.923,8.762-8.762,8.762h-35.269
			l-20.108,30.697v-30.697H11.791c-4.839,0-8.761-3.924-8.761-8.762V11.353z"/>
	</g>
</g>
</svg>
