<?xml version="1.0" encoding="utf-8"?>
<!-- Generator: Adobe Illustrator 13.0.0, SVG Export Plug-In . SVG Version: 6.00 Build 14948)  -->
<!DOCTYPE svg PUBLIC "-//W3C//DTD SVG 1.0//EN" "http://www.w3.org/TR/2001/REC-SVG-20010904/DTD/svg10.dtd">
<svg version="1.0" id="Layer_1" xmlns="http://www.w3.org/2000/svg" xmlns:xlink="http://www.w3.org/1999/xlink" x="0px" y="0px"
	 width="141.28px" height="125.158px" viewBox="0 0 141.28 125.158" enable-background="new 0 0 141.28 125.158"
	 xml:space="preserve">

<g>
	<g opacity="0.25">
		<path fill-rule="evenodd" clip-rule="evenodd" d="M72.229,121.835l-58.237-0.001c-6.572-0.001-9.401-4.899-6.115-10.592
			l29.118-50.437l29.12-50.435c3.286-5.692,8.944-5.692,12.23,0l29.12,50.435l29.117,50.437c3.287,5.692,0.457,10.591-6.114,10.592
			L72.229,121.835z"/>
		<path fill-rule="evenodd" clip-rule="evenodd" d="M72.229,121.835l-58.237-0.001c-6.572-0.001-9.401-4.899-6.115-10.592
			l29.118-50.437l29.12-50.435c3.286-5.692,8.944-5.692,12.23,0l29.12,50.435l29.117,50.437c3.287,5.692,0.457,10.591-6.114,10.592
			L72.229,121.835z"/>
	</g>
	<g>
		<linearGradient id="SVGID_1_" gradientUnits="userSpaceOnUse" x1="2.8071" y1="61.3394" x2="134.2622" y2="61.3394">
			<stop  offset="0" style="stop-color:#FF897A"/>
			<stop  offset="1" style="stop-color:#FF3400"/>
		</linearGradient>
		<path fill-rule="evenodd" clip-rule="evenodd" fill="url(#SVGID_1_)" stroke="#6F0000" d="M68.535,119.206l-58.238-0.001
			c-6.572-0.001-9.401-4.899-6.115-10.592L33.3,58.176L62.42,7.742c3.285-5.692,8.943-5.692,12.23,0l29.119,50.435l29.118,50.437
			c3.286,5.692,0.457,10.591-6.114,10.592L68.535,119.206z"/>
		<linearGradient id="SVGID_2_" gradientUnits="userSpaceOnUse" x1="2.8071" y1="61.3394" x2="134.2622" y2="61.3394">
			<stop  offset="0" style="stop-color:#FF897A"/>
			<stop  offset="1" style="stop-color:#FF3400"/>
		</linearGradient>
		<path fill-rule="evenodd" clip-rule="evenodd" fill="url(#SVGID_2_)" stroke="#6F0000" d="M68.535,119.206l-58.238-0.001
			c-6.572-0.001-9.401-4.899-6.115-10.592L33.3,58.176L62.42,7.742c3.285-5.692,8.943-5.692,12.23,0l29.119,50.435l29.118,50.437
			c3.286,5.692,0.457,10.591-6.114,10.592L68.535,119.206z"/>
	</g>
</g>
</svg>
