<?xml version="1.0" encoding="UTF-8" standalone="no"?>
<!-- Generator: Adobe Illustrator 13.0.0, SVG Export Plug-In . SVG Version: 6.00 Build 14948)  -->
<svg
   xmlns:dc="http://purl.org/dc/elements/1.1/"
   xmlns:cc="http://creativecommons.org/ns#"
   xmlns:rdf="http://www.w3.org/1999/02/22-rdf-syntax-ns#"
   xmlns:svg="http://www.w3.org/2000/svg"
   xmlns="http://www.w3.org/2000/svg"
   xmlns:xlink="http://www.w3.org/1999/xlink"
   xmlns:sodipodi="http://sodipodi.sourceforge.net/DTD/sodipodi-0.dtd"
   xmlns:inkscape="http://www.inkscape.org/namespaces/inkscape"
   version="1.0"
   id="Layer_1"
   x="0px"
   y="0px"
   width="96.661px"
   height="119.096px"
   viewBox="0 0 96.661 119.096"
   enable-background="new 0 0 96.661 119.096"
   xml:space="preserve"
   sodipodi:version="0.32"
   inkscape:version="0.46"
   sodipodi:docname="red_arrow_down.svg"
   inkscape:output_extension="org.inkscape.output.svg.inkscape"><metadata
   id="metadata4418"><rdf:RDF><cc:Work
       rdf:about=""><dc:format>image/svg+xml</dc:format><dc:type
         rdf:resource="http://purl.org/dc/dcmitype/StillImage" /></cc:Work></rdf:RDF></metadata><defs
   id="defs4416"><inkscape:perspective
   sodipodi:type="inkscape:persp3d"
   inkscape:vp_x="0 : 59.548 : 1"
   inkscape:vp_y="0 : 1000 : 0"
   inkscape:vp_z="96.661003 : 59.548 : 1"
   inkscape:persp3d-origin="48.330502 : 39.698667 : 1"
   id="perspective4420" />
	
	
<linearGradient
   inkscape:collect="always"
   xlink:href="#SVGID_2_"
   id="linearGradient4429"
   gradientUnits="userSpaceOnUse"
   x1="2.6235001"
   y1="58.913601"
   x2="90.977997"
   y2="58.913601" />
		<linearGradient
   id="SVGID_2_"
   gradientUnits="userSpaceOnUse"
   x1="2.6235001"
   y1="58.913601"
   x2="90.977997"
   y2="58.913601">
			<stop
   offset="0"
   style="stop-color:#FFFFFF"
   id="stop4411" />
		</linearGradient>
		
	<linearGradient
   inkscape:collect="always"
   xlink:href="#SVGID_2_"
   id="linearGradient4434"
   gradientUnits="userSpaceOnUse"
   x1="2.6235001"
   y1="58.913601"
   x2="90.977997"
   y2="58.913601" />
		
		
	</defs><sodipodi:namedview
   inkscape:window-height="669"
   inkscape:window-width="640"
   inkscape:pageshadow="2"
   inkscape:pageopacity="0.0"
   guidetolerance="10.0"
   gridtolerance="10.0"
   objecttolerance="10.0"
   borderopacity="1.0"
   bordercolor="#666666"
   pagecolor="#ffffff"
   id="base"
   showgrid="false"
   inkscape:zoom="4.0639484"
   inkscape:cx="48.330502"
   inkscape:cy="59.548"
   inkscape:window-x="92"
   inkscape:window-y="92"
   inkscape:current-layer="Layer_1" />

<g
   id="g4438">

     <path
     style="opacity:0.25;fill-rule:evenodd"
     id="path4404"
     d="M 36.043,64.812 L 36.043,8.574 C 36.043,7.337 37.129,6.249 38.368,6.249 L 63.62,6.249 C 64.856,6.249 65.946,7.337 65.946,8.574 L 65.946,64.812 L 92.092,64.812 C 94.583,64.812 95.484,66.802 93.838,68.673 L 52.242,116.013 C 51.277,117.112 49.711,117.112 48.746,116.013 L 7.151,68.674 C 5.506,66.803 6.406,64.813 8.897,64.813 L 36.043,64.813 L 36.043,64.812 z"
     clip-rule="evenodd" /><path
     style="fill:url(#linearGradient4434);fill-rule:evenodd;stroke:#000000"
     id="path4413"
     d="M 32.349,62.183 L 32.349,5.944 C 32.349,4.707 33.435,3.619 34.673,3.619 L 59.925,3.619 C 61.161,3.619 62.251,4.707 62.251,5.944 L 62.251,62.182 L 88.397,62.182 C 90.889,62.182 91.79,64.172 90.143,66.043 L 48.547,113.383 C 47.582,114.482 46.016,114.482 45.051,113.383 L 3.457,66.044 C 1.812,64.173 2.711,62.183 5.203,62.183 L 32.349,62.183 z"
     clip-rule="evenodd" /></g>
</svg>