<?xml version="1.0" encoding="UTF-8" standalone="no"?>
<!-- Created with Inkscape (http://www.inkscape.org/) -->

<svg
   width="42.0px"
   height="42.0px"
   viewBox="0 0 42.0 42.0"
   version="1.1"
   id="SVGRoot"
   sodipodi:docname="hand.svg"
   inkscape:version="1.2 (dc2aedaf03, 2022-05-15)"
   xml:space="preserve"
   xmlns:inkscape="http://www.inkscape.org/namespaces/inkscape"
   xmlns:sodipodi="http://sodipodi.sourceforge.net/DTD/sodipodi-0.dtd"
   xmlns:xlink="http://www.w3.org/1999/xlink"
   xmlns="http://www.w3.org/2000/svg"
   xmlns:svg="http://www.w3.org/2000/svg"
   xmlns:rdf="http://www.w3.org/1999/02/22-rdf-syntax-ns#"
   xmlns:cc="http://creativecommons.org/ns#"><sodipodi:namedview
     id="namedview1017"
     pagecolor="#232323"
     bordercolor="#666666"
     borderopacity="1.0"
     inkscape:pageshadow="2"
     inkscape:pageopacity="0"
     inkscape:pagecheckerboard="true"
     inkscape:document-units="px"
     showgrid="true"
     inkscape:zoom="16"
     inkscape:cx="34.65625"
     inkscape:cy="21.625"
     inkscape:window-width="1920"
     inkscape:window-height="1009"
     inkscape:window-x="-8"
     inkscape:window-y="-8"
     inkscape:window-maximized="1"
     inkscape:current-layer="g6999"
     inkscape:snap-global="false"
     showborder="true"
     borderlayer="false"
     inkscape:showpageshadow="false"
     inkscape:deskcolor="#232323"><inkscape:grid
       type="xygrid"
       id="grid1080" /></sodipodi:namedview><defs
     id="defs1012"><linearGradient
       inkscape:collect="always"
       id="text"><stop
         style="stop-color:#000000;stop-opacity:1;"
         offset="0"
         id="stop1782" /><stop
         style="stop-color:#ffffff;stop-opacity:1"
         offset="1"
         id="stop1784" /></linearGradient><linearGradient
       inkscape:collect="always"
       xlink:href="#text"
       id="linearGradient8154"
       gradientUnits="userSpaceOnUse"
       x1="18.606758"
       y1="16.624496"
       x2="50.686764"
       y2="5.6289864" /><linearGradient
       id="paint0_linear_224_12"
       x1="16"
       y1="-5.5"
       x2="10.3785"
       y2="20.6906"
       gradientUnits="userSpaceOnUse"
       gradientTransform="translate(6.199521,10.000063)"><stop
         id="stop878" /><stop
         offset="1"
         id="stop880" /></linearGradient><linearGradient
       id="paint1_linear_224_12"
       x1="15"
       y1="0.999999"
       x2="8.5746746"
       y2="15.658489"
       gradientUnits="userSpaceOnUse"
       gradientTransform="translate(6.199521,10.000063)"><stop
         stop-color="white"
         id="stop883" /><stop
         offset="1"
         id="stop885" /></linearGradient><filter
       style="color-interpolation-filters:sRGB"
       id="filter37990-9-5"
       inkscape:label="shadowFilter"
       x="-0.067811772"
       y="-0.07751945"
       width="1.1356235"
       height="1.1873387"><feGaussianBlur
         stdDeviation="0.29999999999999999"
         id="feGaussianBlur37992-3-6" /><feOffset
         dx="0"
         dy="0.29999999999999999"
         id="feOffset37994-2-2" /></filter><filter
       style="color-interpolation-filters:sRGB"
       id="filter37990-9-5-3"
       inkscape:label="shadowFilter"
       x="-0.067811772"
       y="-0.07751945"
       width="1.1356235"
       height="1.1873387"><feGaussianBlur
         stdDeviation="0.29999999999999999"
         id="feGaussianBlur37992-3-6-6" /><feOffset
         dx="0"
         dy="0.29999999999999999"
         id="feOffset37994-2-2-7" /></filter></defs><g
     inkscape:label="icon"
     inkscape:groupmode="layer"
     id="layer1"><g
       id="g6999"
       inkscape:label="hand"><path
         style="display:inline;fill:#fee0ca;fill-opacity:1;stroke:#c2a794;stroke-width:0.3;stroke-miterlimit:4;stroke-dasharray:none;stroke-opacity:0.85098;paint-order:stroke fill markers"
         d="m 26.40287,33.827364 c 0.430244,0.560244 6.708338,-3.866241 6.360145,-4.336394 C 32.414803,29.020831 31.289309,27.300742 31.289309,27.300742 30.855028,24.662638 29.673596,21.24103 27.675785,16.963324 26.846103,14.956333 26.80866,12.943815 26.238287,10.914948 26.031789,10.180394 25.825009,9.3413703 25.387254,8.6440923 24.565463,7.7998095 23.572189,8.8300889 23.863835,10.225444 c 0.222386,1.064015 1.119735,5.690836 0.97991,6.388202 -0.139834,0.697364 -0.997607,0.32596 -1.232968,-0.121021 -0.436636,-0.851782 -0.630494,-1.833981 -1.046441,-2.787759 -0.88821,-2.036682 -2.05026,-4.1574421 -3.555532,-6.1045595 -0.994061,-1.2461068 -1.92781,0.4380278 -1.058067,1.8859562 0,0 2.23502,3.9309253 2.694965,5.2684643 0.459951,1.337537 0.774319,2.23439 0.208979,2.468582 -0.565349,0.234193 -1.166721,-1.327495 -1.573329,-1.813671 -1.4552,-2.285869 -2.905314,-4.370269 -4.37968,-6.6270264 -0.63276,-0.935288 -2.107781,-0.1171082 -1.961571,0.7411515 0.932638,1.6319679 1.347112,2.1538119 2.139551,3.6958699 1.027437,1.761659 3.770311,5.127386 2.895273,5.68811 -0.875036,0.560728 -1.431918,-0.750409 -2.019975,-1.451117 -0.588052,-0.700706 -1.944392,-2.35012 -2.807097,-3.291152 -0.862704,-0.941033 -1.010662,-1.170418 -1.816879,-2.192202 -0.545341,-0.737746 -1.9103751,0.109151 -1.499707,1.226519 0.410729,1.117358 2.766102,3.900095 2.766102,3.900095 0,0 1.964399,3.059247 3.152221,4.187596 1.78163,1.674775 2.546719,4.281008 2.090797,4.830182 -0.455923,0.549175 -1.403189,0.189798 -2.128138,-0.532752 l -2.593493,-1.755453 c -0.506798,-0.296909 -2.607464,-0.361128 -3.4180104,-0.05951 -1.6924493,1.000415 -0.5397474,1.646806 0.3905664,2.010795 l 2.254169,0.914779 c 0,0 1.772081,1.11245 2.782231,1.70638 1.01015,0.593935 1.364032,1.30913 3.271313,1.866972 1.907283,0.557842 6.314515,2.055191 6.314515,2.055191 0.567309,0.420691 1.645702,1.462665 1.68933,1.503294 z"
         id="path1061"
         sodipodi:nodetypes="czccscszcscczzcccczzzczcczccccczzccc"
         inkscape:label="hand" /><path
         style="opacity:0.609023;fill:#e4bfa0;fill-opacity:1;stroke:none;stroke-width:0.3;stroke-opacity:0.85098;paint-order:stroke fill markers"
         d="m 15.2278,28.484959 c 0.617073,0.37463 5.966793,1.18859 8.607272,0.864417 1.436345,-0.176341 3.324878,1.868046 3.952387,1.796188 0.627509,-0.07186 2.357195,-0.943471 2.64317,-1.772174 0.285975,-0.828704 -0.201452,-2.843922 -0.817351,-7.837766 0.09562,0.02471 1.638936,4.639978 1.697737,5.794657 0.446898,0.680734 1.120969,1.74171 1.448959,2.173224 0.327991,0.431513 -5.783023,4.866803 -6.32823,4.348206 -0.545206,-0.518597 -1.662775,-1.499128 -1.662775,-1.499128 -2.332611,-0.854914 -7.837183,-1.918169 -9.541169,-3.867624 z"
         id="path1572"
         sodipodi:nodetypes="cszzcczzcc"
         inkscape:label="shasow" /></g></g><metadata
     id="metadata1158"><rdf:RDF><cc:License
         rdf:about="http://creativecommons.org/publicdomain/zero/1.0/"><cc:permits
           rdf:resource="http://creativecommons.org/ns#Reproduction" /><cc:permits
           rdf:resource="http://creativecommons.org/ns#Distribution" /><cc:permits
           rdf:resource="http://creativecommons.org/ns#DerivativeWorks" /></cc:License><cc:Work
         rdf:about=""><cc:license
           rdf:resource="http://creativecommons.org/publicdomain/zero/1.0/" /></cc:Work></rdf:RDF></metadata></svg>
