<?xml version="1.0" encoding="utf-8"?>
<!-- Generator: Adobe Illustrator 25.4.1, SVG Export Plug-In . SVG Version: 6.00 Build 0)  -->
<svg version="1.1" id="Layer_1" xmlns="http://www.w3.org/2000/svg" xmlns:xlink="http://www.w3.org/1999/xlink" x="0px" y="0px"
	 viewBox="3 3 42 42" style="enable-background:new 0 0 48 48;" xml:space="preserve">
<style type="text/css">
	.st0{fill:url(#sphere_00000165197213314460928750000017148520640734379697_);}
	.st1{opacity:0.2;}
	.st2{fill:url(#XMLID_00000075845174906833417790000014345170309992264347_);}
	.st3{fill:url(#SVGID_1_);}
	.st4{fill:url(#SVGID_00000114763773849447990070000014401938215165764764_);}
	.st5{display:none;fill:#FFF100;}
	.st6{fill:none;stroke:#231F20;stroke-width:1.5;stroke-linecap:round;stroke-miterlimit:10;}
	.st7{display:none;fill:none;stroke:#231F20;stroke-width:1.25;stroke-linecap:round;stroke-miterlimit:10;}
	.st8{opacity:0.19;fill:none;stroke:#FFFFFF;stroke-linecap:round;stroke-miterlimit:10;enable-background:new    ;}
</style>
<radialGradient id="sphere_00000032634667868878058700000018205383444123115446_" cx="-572.2238" cy="-116.9939" r="7.276" gradientTransform="matrix(2.8862 0 0 -2.8862 1675.5521 -313.6678)" gradientUnits="userSpaceOnUse">
	<stop  offset="0" style="stop-color:#FFFFFF;stop-opacity:0"/>
	<stop  offset="1" style="stop-color:#FFFFFF"/>
</radialGradient>
<circle id="sphere" style="fill:url(#sphere_00000032634667868878058700000018205383444123115446_);" cx="24" cy="24" r="21"/>
<g id="shaded">
	<path id="XMLID_00000019651251341721943210000005570257145846259618_" class="st1" d="M37.495,29.225l-2.293,2.549l-3.743,4.168
		c-0.01,0.01-0.02,0.02-0.029,0.03l-1.176,1.089c-0.01,0.01-0.02,0.02-0.029,0.02c-2.058,1.649-2.773,1.879-3.753,2.259
		c-1.382,0.53-3.038,0.57-4.605,0.45c-2.43-0.18-4.615-1.199-6.291-2.759c-0.049-0.05-0.098-0.09-0.157-0.14
		c-0.049-0.05-0.098-0.1-0.147-0.15c-0.823-0.8-1.519-1.729-2.058-2.779c-0.539-1.05-0.911-2.199-1.088-3.428
		c-0.225-1.579-0.304-3.278,0.108-4.718c0.304-1.03,0.48-1.769,1.94-3.988c0.01-0.01,0.01-0.02,0.02-0.03l0.98-1.269
		c0.01-0.01,0.02-0.02,0.029-0.03l3.841-4.138l2.303-2.479c0.186-0.2,0.48-0.2,0.676-0.02l2.117,2.029l1.548,1.489
		c0.196,0.18,0.206,0.49,0.029,0.68l-1.244,1.399l-1.009,1.119l-3.635,4.038c-0.196,0.21-0.363,0.44-0.519,0.68
		c-0.294,0.46-0.529,0.96-0.686,1.489c-0.216,0.75-0.284,1.549-0.167,2.369c0.059,0.4,0.157,0.79,0.294,1.159
		c0.176,0.49,0.431,0.95,0.725,1.359c0.206,0.29,0.47,0.53,0.764,0.72c0.421,0.28,0.882,0.49,1.382,0.64
		c0.372,0.11,0.754,0.18,1.146,0.21c0.813,0.06,1.587-0.06,2.312-0.34c0.51-0.2,0.98-0.47,1.411-0.8
		c0.225-0.18,0.431-0.37,0.627-0.58l3.675-3.978l1.039-1.129l1.274-1.359c0.176-0.19,0.48-0.2,0.666-0.02l1.489,1.399l2.215,2.079
		C37.662,28.716,37.671,29.025,37.495,29.225z"/>
	<g>
		
			<radialGradient id="XMLID_00000078750054773125572540000006325716550493728132_" cx="198.1462" cy="-260.1743" r="11.8228" gradientTransform="matrix(0.7639 0.6454 -0.7652 0.9058 -327.403 133.0501)" gradientUnits="userSpaceOnUse">
			<stop  offset="0.8394" style="stop-color:#EC1C24"/>
			<stop  offset="0.8623" style="stop-color:#DD1C24"/>
			<stop  offset="0.9063" style="stop-color:#B61B26"/>
			<stop  offset="0.913" style="stop-color:#AF1B26"/>
			<stop  offset="0.9269" style="stop-color:#A01A22"/>
			<stop  offset="0.9531" style="stop-color:#891A1D"/>
			<stop  offset="0.978" style="stop-color:#7C191A"/>
			<stop  offset="1" style="stop-color:#771919"/>
		</radialGradient>
		
			<path id="XMLID_00000041297147520953760440000004016014525183788421_" style="fill:url(#XMLID_00000078750054773125572540000006325716550493728132_);" d="
			M36.02,27.7l-2.34,2.55l-3.82,4.17c-0.01,0.01-0.02,0.02-0.03,0.03l-1.2,1.09c-0.01,0.01-0.02,0.02-0.03,0.02
			c-2.1,1.65-2.83,1.88-3.83,2.26c-1.41,0.53-3.1,0.57-4.7,0.45c-2.48-0.18-4.71-1.2-6.42-2.76c-0.05-0.05-0.1-0.09-0.16-0.14
			c-0.05-0.05-0.1-0.1-0.15-0.15c-0.84-0.8-1.55-1.73-2.1-2.78c-0.55-1.05-0.93-2.2-1.11-3.43c-0.23-1.58-0.31-3.28,0.11-4.72
			c0.31-1.03,0.49-1.77,1.98-3.99c0.01-0.01,0.01-0.02,0.02-0.03l1-1.27c0.01-0.01,0.02-0.02,0.03-0.03l3.92-4.14l2.35-2.48
			c0.19-0.2,0.49-0.2,0.69-0.02l2.16,2.03l1.58,1.49c0.2,0.18,0.21,0.49,0.03,0.68l-1.27,1.4l-1.03,1.12l-3.71,4.04
			c-0.2,0.21-0.37,0.44-0.53,0.68c-0.3,0.46-0.54,0.96-0.7,1.49c-0.22,0.75-0.29,1.55-0.17,2.37c0.06,0.4,0.16,0.79,0.3,1.16
			c0.18,0.49,0.44,0.95,0.74,1.36c0.21,0.29,0.48,0.53,0.78,0.72c0.43,0.28,0.9,0.49,1.41,0.64c0.38,0.11,0.77,0.18,1.17,0.21
			c0.83,0.06,1.62-0.06,2.36-0.34c0.52-0.2,1-0.47,1.44-0.8c0.23-0.18,0.44-0.37,0.64-0.58l3.75-3.98l1.06-1.13l1.3-1.36
			c0.18-0.19,0.49-0.2,0.68-0.02l1.52,1.4L36,26.99C36.19,27.19,36.2,27.5,36.02,27.7z"/>
		<g>
			
				<linearGradient id="SVGID_1_" gradientUnits="userSpaceOnUse" x1="30.5557" y1="28.7112" x2="35.7164" y2="33.4063" gradientTransform="matrix(1 0 0 1 0 -4)">
				<stop  offset="0" style="stop-color:#136984"/>
				<stop  offset="0.0234" style="stop-color:#117191"/>
				<stop  offset="0.0956" style="stop-color:#0B87B2"/>
				<stop  offset="0.1696" style="stop-color:#0697CC"/>
				<stop  offset="0.2452" style="stop-color:#03A3DF"/>
				<stop  offset="0.3234" style="stop-color:#01ABEA"/>
				<stop  offset="0.4081" style="stop-color:#00ADEE"/>
				<stop  offset="0.4987" style="stop-color:#02A8E6"/>
				<stop  offset="0.6431" style="stop-color:#0699CE"/>
				<stop  offset="0.822" style="stop-color:#0C81A9"/>
				<stop  offset="0.9727" style="stop-color:#136984"/>
			</linearGradient>
			<path class="st3" d="M36.02,27.7l-2.34,2.55l-2.64-2.47l-1.87-1.75l1.06-1.13l1.3-1.36c0.18-0.19,0.49-0.2,0.68-0.02l1.52,1.4
				L35.99,27C36.19,27.19,36.2,27.5,36.02,27.7z"/>
			
				<linearGradient id="SVGID_00000079467855286331358170000002081345029152009620_" gradientUnits="userSpaceOnUse" x1="17.9567" y1="16.8866" x2="24.4891" y2="22.9648" gradientTransform="matrix(1 0 0 1 0 -4)">
				<stop  offset="0.0837" style="stop-color:#136984"/>
				<stop  offset="0.147" style="stop-color:#0D7DA3"/>
				<stop  offset="0.2271" style="stop-color:#0892C4"/>
				<stop  offset="0.3041" style="stop-color:#03A1DB"/>
				<stop  offset="0.3761" style="stop-color:#01AAE9"/>
				<stop  offset="0.4377" style="stop-color:#00ADEE"/>
				<stop  offset="0.73" style="stop-color:#0B85AF"/>
				<stop  offset="0.9514" style="stop-color:#136984"/>
			</linearGradient>
			<path style="fill:url(#SVGID_00000079467855286331358170000002081345029152009620_);" d="M23.98,15.85
				c0.2,0.18,0.21,0.49,0.03,0.68l-1.27,1.4l-1.03,1.12l-1.95-1.82l-2.56-2.39l2.35-2.48c0.19-0.2,0.49-0.2,0.69-0.02l2.16,2.03
				L23.98,15.85z"/>
		</g>
		<polygon class="st5" points="22.7,22.59 21.76,25.14 23.06,24.94 22.03,27.94 24.33,23.91 22.74,24.22 		"/>
		<line class="st6" x1="25.77" y1="12.73" x2="38.04" y2="12.73"/>
		<line class="st7" x1="25.79" y1="15.78" x2="38.06" y2="15.78"/>
		<line class="st6" x1="25.79" y1="18.84" x2="38.06" y2="18.84"/>
		<line class="st6" x1="34.98" y1="9.67" x2="34.98" y2="21.94"/>
		<line class="st7" x1="31.92" y1="9.69" x2="31.92" y2="21.96"/>
		<line class="st6" x1="28.87" y1="9.69" x2="28.87" y2="21.96"/>
	</g>
	<path class="st8" d="M19.47,34.14c2.57,0.82,5.15,0.06,7.26-1.51"/>
	<path class="st8" d="M20.67,15.23c-1.08,1.26-2.16,2.51-3.24,3.77"/>
</g>
</svg>
