<?xml version="1.0" encoding="utf-8"?>
<!-- Generator: Adobe Illustrator 14.0.0, SVG Export Plug-In . SVG Version: 6.00 Build 43363)  -->
<!DOCTYPE svg PUBLIC "-//W3C//DTD SVG 1.1//EN" "http://www.w3.org/Graphics/SVG/1.1/DTD/svg11.dtd">
<svg version="1.1" id="Layer_1" xmlns="http://www.w3.org/2000/svg" xmlns:xlink="http://www.w3.org/1999/xlink" x="0px" y="0px"
	 width="40.815px" height="19.919px" viewBox="-10.719 10.182 40.815 19.919" enable-background="new -10.719 10.182 40.815 19.919"
	 xml:space="preserve">
<path fill="#707070" stroke="#000000" stroke-miterlimit="3.8637" d="M21.02,11.062c4.547-0.003,8.234,3.68,8.236,8.227l0.002,1.854
	c0.002,4.547-3.682,8.234-8.228,8.236l-22.729,0.014c-4.545,0.002-8.232-3.682-8.236-8.227v-1.854
	c-0.004-4.546,3.681-8.234,8.227-8.236L21.02,11.062z"/>
<path fill="#FFFFFF" d="M17.315,23.464c0.201-0.002,0.363,0.156,0.363,0.35c0,0.191-0.162,0.35-0.36,0.35l-16.677,0.01
	c-0.199,0-0.361-0.156-0.362-0.35c0-0.195,0.161-0.35,0.36-0.35L17.315,23.464z M17.315,19.871c0.199,0.001,0.361,0.157,0.361,0.351
	s-0.162,0.351-0.361,0.351L0.639,20.583c-0.201,0-0.362-0.157-0.362-0.351s0.161-0.351,0.36-0.351L17.315,19.871z M17.311,16.28
	c0.201,0,0.363,0.156,0.363,0.349c0,0.194-0.162,0.351-0.361,0.351l-16.678,0.01c-0.199,0.001-0.359-0.156-0.361-0.35
	c0-0.192,0.162-0.351,0.361-0.351L17.311,16.28z"/>
</svg>
