<?xml version="1.0" encoding="UTF-8" standalone="no"?>
<!-- Created with Inkscape (http://www.inkscape.org/) -->

<svg
   width="512"
   height="512"
   viewBox="0 0 480.00001 480.00001"
   id="svg2"
   version="1.1"
   inkscape:version="1.2 (1:1.2.1+202207142221+cd75a1ee6d)"
   sodipodi:docname="bigOpenBoard.svg"
   xml:space="preserve"
   xmlns:inkscape="http://www.inkscape.org/namespaces/inkscape"
   xmlns:sodipodi="http://sodipodi.sourceforge.net/DTD/sodipodi-0.dtd"
   xmlns="http://www.w3.org/2000/svg"
   xmlns:svg="http://www.w3.org/2000/svg"
   xmlns:rdf="http://www.w3.org/1999/02/22-rdf-syntax-ns#"
   xmlns:cc="http://creativecommons.org/ns#"
   xmlns:dc="http://purl.org/dc/elements/1.1/"><defs
     id="defs4" /><sodipodi:namedview
     id="base"
     pagecolor="#ffffff"
     bordercolor="#666666"
     borderopacity="1.0"
     inkscape:pageopacity="0"
     inkscape:pageshadow="2"
     inkscape:zoom="0.69999999"
     inkscape:cx="61.428572"
     inkscape:cy="241.42857"
     inkscape:document-units="px"
     inkscape:current-layer="g4180"
     showgrid="true"
     inkscape:window-width="1366"
     inkscape:window-height="695"
     inkscape:window-x="0"
     inkscape:window-y="0"
     inkscape:window-maximized="1"
     fit-margin-top="0"
     fit-margin-left="0"
     fit-margin-right="0"
     fit-margin-bottom="0"
     inkscape:pagecheckerboard="true"
     inkscape:showpageshadow="0"
     inkscape:deskcolor="#ffffff"><inkscape:grid
       type="xygrid"
       id="grid238"
       originx="0"
       originy="0" /></sodipodi:namedview><metadata
     id="metadata7"><rdf:RDF><cc:Work
         rdf:about=""><dc:format>image/svg+xml</dc:format><dc:type
           rdf:resource="http://purl.org/dc/dcmitype/StillImage" /><cc:license
           rdf:resource="http://creativecommons.org/publicdomain/zero/1.0/" /></cc:Work><cc:License
         rdf:about="http://creativecommons.org/publicdomain/zero/1.0/"><cc:permits
           rdf:resource="http://creativecommons.org/ns#Reproduction" /><cc:permits
           rdf:resource="http://creativecommons.org/ns#Distribution" /><cc:permits
           rdf:resource="http://creativecommons.org/ns#DerivativeWorks" /></cc:License></rdf:RDF></metadata><g
     inkscape:label="Layer 1"
     inkscape:groupmode="layer"
     id="layer1"
     transform="translate(326.70573,-158.19652)"><g
       id="g4180"
       transform="translate(-80.000001,-1211.4286)"
       inkscape:export-xdpi="90.052353"
       inkscape:export-ydpi="90.052353"><g
         transform="matrix(0.75645444,0,0,0.75785534,652.30806,165.61191)"
         id="g4153"><path
           inkscape:connector-curvature="0"
           id="path4161"
           d="m -628.62068,1697.4681 c 13.14312,0.2124 35.12086,16.4365 42.94711,32.0803 2.35808,4.7135 4.91382,12.368 5.69949,17.0701 1.01914,6.0995 1.32218,45.6874 1.06514,139.1498 -0.35795,130.1622 -0.36873,130.6498 -3.04254,137.6326 -6.98689,18.2469 -18.80254,30.1214 -37.31669,37.5024 l -7.5,2.99 -88.17598,0.3596 -88.17599,0.3595 -74.3201,74.328 c -40.876,40.8803 -74.7437,74.3279 -75.2615,74.3279 -0.5178,0 -0.95,-32.7656 -0.9606,-72.8125 l 0.003,-4e-4 c -0.01,-40.0469 -0.4509,-73.4919 -0.9787,-74.3224 -0.7293,-1.1474 -20.1541,-1.6024 -80.91836,-1.8956 -79.2912,-0.3824 -80.0205,-0.409 -87.3578,-3.1831 -20.4938,-7.7481 -35.7458,-25.1932 -39.4693,-45.1446 -1.6934,-9.0731 -1.654,-263.6831 0.042,-271.3919 4.2556,-19.3442 18.8058,-36.5688 37.1476,-43.9759 l 7.1787,-2.8991 210.93746,-0.3267 c 116.0157,-0.1797 210.93754,-0.017 210.93754,0.3604 m -22.71007,33.0913 -195.20747,0.028 c -186.11286,0.026 -195.44086,0.1335 -200.21816,2.3038 -6.3018,2.8629 -12.5827,9.9275 -14.2891,16.0721 -0.8754,3.1522 -1.3135,47.1598 -1.3182,132.3915 l -0.01,127.6697 3.4928,6.6859 c 2.5425,4.867 5.1512,7.7114 9.5886,10.4553 l 6.0958,3.7693 92.898,0.3434 92.89796,0.3434 0.3259,53.3027 c 0.2434,39.8 0.7021,53.428 1.8109,53.7974 0.8167,0.2721 26.048,-23.7104 56.0696,-53.2945 l 54.5847,-53.7893 90.18035,-0.3516 c 100.83729,-0.3931 93.47886,0.2938 102.37862,-9.5571 2.48072,-2.7459 5.10718,-7.1417 5.8366,-9.7685 1.87394,-6.7484 1.85479,-253.5001 -0.0203,-260.9466 -2.94132,-11.681 -13.39081,-19.3768 -26.37832,-19.4269"
           style="fill:#505556;fill-opacity:1"
           sodipodi:nodetypes="cssssscccsscccssccscsccssscccscccscscssssc" /><path
           sodipodi:nodetypes="cssssssccssssc"
           inkscape:connector-curvature="0"
           id="path4163"
           d="m -650.46338,1731.932 -25.0324,43.3307 c -13.7678,23.8319 -28.9698,49.1185 -33.7823,56.1925 -19.4479,28.5869 -69.98167,94.2133 -81.23877,105.502 -5.5577,5.5732 -13.7438,8.7141 -19.4471,7.4614 -7.8682,-1.7282 -12.8519,-12.6325 -10.0491,-21.9875 3.1587,-10.5426 43.97117,-98.8133 56.00257,-121.1241 3.1513,-5.8438 14.4102,-23.4888 25.0198,-39.2113 77.9724,-114.4038 54.4668,-79.8679 77.9724,-114.4038 33.3219,-48.9912 33.8173,-49.51 47.2739,-49.51 6.9774,0 9.0105,0.5388 13.483,3.5733 5.7935,3.9308 10.3583,11.8124 10.3583,17.8848 0,6.3557 -2.2694,11.0695 -20.8474,43.3028 -9.8464,17.0838 -17.9026,31.7717 -17.9026,32.6398"
           style="fill:#f48c4f;fill-opacity:1" /></g></g></g></svg>
