<?xml version="1.0" encoding="iso-8859-1"?>
<!-- Generator: Adobe Illustrator 15.1.0, SVG Export Plug-In . SVG Version: 6.00 Build 0)  -->
<!DOCTYPE svg PUBLIC "-//W3C//DTD SVG 1.1//EN" "http://www.w3.org/Graphics/SVG/1.1/DTD/svg11.dtd">
<svg version="1.1" xmlns="http://www.w3.org/2000/svg" xmlns:xlink="http://www.w3.org/1999/xlink" x="0px" y="0px" width="24px"
	 height="24px" viewBox="0 0 24 24" style="enable-background:new 0 0 24 24;" xml:space="preserve">
<g id="Icons" style="opacity:0.75;">
	<g id="bold-b">
		<path id="b" style="fill-rule:evenodd;clip-rule:evenodd;" d="M7,18h6c2,0,4-1,4-3c0-1.064,0.011-1.975-1.989-3
			c2-0.975,1.989-1.935,1.989-3c0-2-2-3-4-3H7V18z M14,10c0,1.001,0,1-2,1c-1,0-2,0-2,0V8c0,0,1,0,2,0c2,0,2,0,2,1
			C14,9.999,14,8.999,14,10z M12,16c-1,0-2,0-2,0v-3c0,0,1,0,2,0c2,0,2,0,2,1s0-0.001,0,1S14,16,12,16z"/>
	</g>
</g>
<g id="Guides" style="display:none;">
</g>
</svg>
