<?xml version="1.0" encoding="utf-8"?>
<!-- Generator: Adobe Illustrator 14.0.0, SVG Export Plug-In . SVG Version: 6.00 Build 43363)  -->
<!DOCTYPE svg PUBLIC "-//W3C//DTD SVG 1.1//EN" "http://www.w3.org/Graphics/SVG/1.1/DTD/svg11.dtd">
<svg version="1.1" id="Layer_1" xmlns="http://www.w3.org/2000/svg" xmlns:xlink="http://www.w3.org/1999/xlink" x="0px" y="0px"
	 width="26.703px" height="22.297px" viewBox="0 0 26.703 22.297" enable-background="new 0 0 26.703 22.297" xml:space="preserve">
<g>
	<path fill-rule="evenodd" clip-rule="evenodd" fill="#333333" stroke="#CDCCCC" stroke-miterlimit="3.8637" d="M17.978,0.507
		c4.547,0,8.231,3.686,8.231,8.232v4.838c0,4.547-3.685,8.232-8.231,8.232H8.732c-4.546,0-8.231-3.686-8.231-8.232V8.739
		c0-4.547,3.686-8.232,8.231-8.232H17.978z"/>
	<path fill="#FFFFFF" d="M17.516,13.955c0.4,0.4,0.451,1.04,0.064,1.428c-0.388,0.388-1.027,0.337-1.428-0.063l-2.797-2.8
		l-2.797,2.8c-0.4,0.4-1.04,0.451-1.428,0.063s-0.337-1.027,0.063-1.428l2.8-2.797l-2.8-2.797c-0.4-0.4-0.451-1.04-0.063-1.428
		s1.027-0.337,1.428,0.063l2.797,2.8l2.797-2.8c0.4-0.4,1.04-0.451,1.428-0.063c0.387,0.388,0.336,1.027-0.064,1.428l-2.799,2.797
		L17.516,13.955z"/>
</g>
</svg>
