<?xml version="1.0" encoding="iso-8859-1"?>
<!-- Generator: Adobe Illustrator 13.0.2, SVG Export Plug-In . SVG Version: 6.00 Build 14948)  -->
<!DOCTYPE svg PUBLIC "-//W3C//DTD SVG 1.1//EN" "http://www.w3.org/Graphics/SVG/1.1/DTD/svg11.dtd">
<svg version="1.1" id="Layer_1" xmlns="http://www.w3.org/2000/svg" xmlns:xlink="http://www.w3.org/1999/xlink" x="0px" y="0px"
	 width="26px" height="26px" viewBox="0 0 26 26" style="enable-background:new 0 0 26 26;" xml:space="preserve">

<circle style="fill:#CCCCCC;" cx="13" cy="13" r="13"/>
<path style="fill:#FF0000;" d="M13,13V2C9.962,2,7.212,3.231,5.222,5.222L13,13z"/>
<path style="fill:#FFA400;" d="M13,13l7.778-7.778C18.631,3.074,15.815,2,13,2V13z"/>
<path style="fill:#FFFF00;" d="M13,13h11c0-3.038-1.231-5.788-3.223-7.778L13,13z"/>
<path style="fill:#68FF00;" d="M13,13l7.778,7.779C22.926,18.631,24,15.815,23.999,13H13z"/>
<path style="fill:#00B300;" d="M13,13v11c3.037,0,5.788-1.231,7.778-3.223L13,13z"/>
<path style="fill:#0083BD;" d="M13,13l-7.778,7.778c2.147,2.147,4.963,3.221,7.778,3.221V13z"/>
<path style="fill:#0000FF;" d="M13,13H2c0,3.037,1.232,5.787,3.223,7.777L13,13z"/>
<path style="fill:#8800FF;" d="M12.999,13L5.221,5.222C3.073,7.369,2,10.185,2,13H12.999z"/>
</svg>
