<?xml version="1.0" encoding="UTF-8" standalone="no"?>
<!-- Generator: Adobe Illustrator 13.0.2, SVG Export Plug-In . SVG Version: 6.00 Build 14948)  -->

<svg
   version="1.2"
   x="0px"
   y="0px"
   width="128px"
   height="128px"
   viewBox="0 0 128 128"
   xml:space="preserve"
   id="svg31"
   sodipodi:docname="defaultWidgetIcon.svg"
   inkscape:version="1.2 (dc2aedaf03, 2022-05-15)"
   xmlns:inkscape="http://www.inkscape.org/namespaces/inkscape"
   xmlns:sodipodi="http://sodipodi.sourceforge.net/DTD/sodipodi-0.dtd"
   xmlns="http://www.w3.org/2000/svg"
   xmlns:svg="http://www.w3.org/2000/svg"
   xmlns:rdf="http://www.w3.org/1999/02/22-rdf-syntax-ns#"
   xmlns:cc="http://creativecommons.org/ns#"
   xmlns:ns="&amp;#38;#38;#38;#38;#38;ns_sfw;"
   xmlns:a="http://ns.adobe.com/AdobeSVGViewerExtensions/3.0/"><defs
   id="defs35" /><sodipodi:namedview
   id="namedview33"
   pagecolor="#505050"
   bordercolor="#eeeeee"
   borderopacity="1"
   inkscape:pageshadow="0"
   inkscape:pageopacity="0"
   inkscape:pagecheckerboard="0"
   showgrid="false"
   inkscape:zoom="2.5234375"
   inkscape:cx="45.374613"
   inkscape:cy="40.619195"
   inkscape:window-width="1366"
   inkscape:window-height="695"
   inkscape:window-x="0"
   inkscape:window-y="0"
   inkscape:window-maximized="1"
   inkscape:current-layer="Layer_2"
   inkscape:showpageshadow="2"
   inkscape:deskcolor="#505050" />
<metadata
   id="metadata2">
	<ns:sfw>
		<ns:slices />
		<ns:sliceSourceBounds
   x="8.255"
   y="22.924"
   width="110.488"
   height="82.884"
   bottomLeftOrigin="true" />
	</ns:sfw>
<rdf:RDF><cc:License
     rdf:about="http://creativecommons.org/publicdomain/zero/1.0/"><cc:permits
       rdf:resource="http://creativecommons.org/ns#Reproduction" /><cc:permits
       rdf:resource="http://creativecommons.org/ns#Distribution" /><cc:permits
       rdf:resource="http://creativecommons.org/ns#DerivativeWorks" /></cc:License><cc:Work
     rdf:about=""><cc:license
       rdf:resource="http://creativecommons.org/publicdomain/zero/1.0/" /></cc:Work></rdf:RDF></metadata>
<g
   id="Layer_2">
	<linearGradient
   id="SVGID_1_"
   gradientUnits="userSpaceOnUse"
   x1="63.498501"
   y1="7.4120002"
   x2="63.4995"
   y2="101.9506"
   gradientTransform="translate(0.5005,10.3655)">
		<stop
   offset="0"
   style="stop-color:#ffffff;stop-opacity:1;"
   id="stop4" />
		<stop
   offset="1"
   style="stop-color:#a9a9a9;stop-opacity:1;"
   id="stop6" />
		<a:midPointStop
   offset="0"
   style="stop-color:#FCFCFC" />
		<a:midPointStop
   offset="0.5"
   style="stop-color:#FCFCFC" />
		<a:midPointStop
   offset="1"
   style="stop-color:#E6E6E6" />
	</linearGradient>
	<path
   fill="url(#SVGID_1_)"
   d="m 105.4065,112.8335 h -82.815 c -6.19,0 -11.227,-5.038 -11.227,-11.231 v -75.209 c 0,-6.191 5.036,-11.227 11.227,-11.227 h 82.815 c 6.19,0 11.229,5.036 11.229,11.227 v 75.208 c 0,6.194 -5.038,11.232 -11.229,11.232 z"
   id="path9"
   sodipodi:nodetypes="sssssssss"
   style="fill:url(#SVGID_1_)" />
	<linearGradient
   id="SVGID_2_"
   gradientUnits="userSpaceOnUse"
   x1="66.1289"
   y1="104.8428"
   x2="66.1289"
   y2="77.0022">
		<stop
   offset="0"
   style="stop-color:#E0E0E0"
   id="stop11" />
		<stop
   offset="1"
   style="stop-color:#999999"
   id="stop13" />
		<a:midPointStop
   offset="0"
   style="stop-color:#E0E0E0" />
		<a:midPointStop
   offset="0.5"
   style="stop-color:#E0E0E0" />
		<a:midPointStop
   offset="1"
   style="stop-color:#999999" />
	</linearGradient>
	
	<path
   fill="#ffffff"
   d="m 105.4065,12.5575 c 7.629,0 13.837,6.207 13.837,13.836 v 75.208 c 0,7.633 -6.208,13.84 -13.837,13.84 h -82.815 c -7.629,0 -13.836,-6.207 -13.836,-13.84 v -75.208 c 0,-7.629 6.207,-13.836 13.836,-13.836 h 82.815 m 0,5.22 h -82.815 c -4.751,0 -8.616,3.865 -8.616,8.616 v 75.208 c 0,4.753 3.865,8.619 8.616,8.619 h 82.815 c 4.751,0 8.617,-3.866 8.617,-8.619 v -75.208 c 0,-4.751 -3.866,-8.616 -8.617,-8.616 z"
   id="path18"
   sodipodi:nodetypes="cssssssscsssssssss" />
	<path
   fill="#b0b9c4"
   d="m 105.4065,12.5575 c 7.629,0 13.837,6.207 13.837,13.836 v 75.208 c 0,7.633 -6.208,13.84 -13.837,13.84 h -82.815 c -7.629,0 -13.836,-6.207 -13.836,-13.84 v -75.208 c 0,-7.629 6.207,-13.836 13.836,-13.836 h 82.815 m 0,3.48 h -82.815 c -5.71,0 -10.356,4.646 -10.356,10.356 v 75.208 c 0,5.713 4.646,10.359 10.356,10.359 h 82.815 c 5.711,0 10.357,-4.646 10.357,-10.359 v -75.208 c 0.001,-5.71 -4.646,-10.356 -10.357,-10.356 z"
   id="path20"
   sodipodi:nodetypes="cssssssscssssssscs" />
</g>

</svg>
