<?xml version="1.0" encoding="iso-8859-1"?>
<!-- Generator: Adobe Illustrator 13.0.2, SVG Export Plug-In . SVG Version: 6.00 Build 14948)  -->
<!DOCTYPE svg PUBLIC "-//W3C//DTD SVG 1.1//EN" "http://www.w3.org/Graphics/SVG/1.1/DTD/svg11.dtd">
<svg version="1.1" id="Layer_1" xmlns="http://www.w3.org/2000/svg" xmlns:xlink="http://www.w3.org/1999/xlink" x="0px" y="0px"
	 width="26px" height="26px" viewBox="0 0 26 26" style="enable-background:new 0 0 26 26;" xml:space="preserve">

<circle style="fill:#CCCCCC;" cx="13" cy="13" r="13"/>
<circle style="fill:#999999;" cx="13" cy="13" r="11"/>
<rect x="5" y="6" style="fill:#F2F2F2;" width="12" height="10"/>
<rect x="8" y="9" style="fill:#999999;" width="12" height="10"/>
<rect x="7" y="8" style="fill:#999999;" width="8" height="6"/>
<rect x="9" y="10" style="fill:#FFFFFF;" width="12" height="10"/>
<path style="fill:#FFA600;" d="M10,7c0,0,2,0,4,0s3,1,3,3s0,3,0,3h3l-5,5l-5-5h3c0,0,0-1,0-2s0-2-1-2C10.5,9,10,7,10,7z"/>
</svg>
