<?xml version="1.0" encoding="UTF-8" standalone="no"?>
<!-- Generator: Adobe Illustrator 13.0.2, SVG Export Plug-In . SVG Version: 6.00 Build 14948)  -->

<svg
   xmlns:dc="http://purl.org/dc/elements/1.1/"
   xmlns:cc="http://creativecommons.org/ns#"
   xmlns:rdf="http://www.w3.org/1999/02/22-rdf-syntax-ns#"
   xmlns:svg="http://www.w3.org/2000/svg"
   xmlns="http://www.w3.org/2000/svg"
   xmlns:sodipodi="http://sodipodi.sourceforge.net/DTD/sodipodi-0.dtd"
   xmlns:inkscape="http://www.inkscape.org/namespaces/inkscape"
   version="1.1"
   id="Layer_1"
   x="0px"
   y="0px"
   width="26px"
   height="26px"
   viewBox="0 0 26 26"
   style="enable-background:new 0 0 26 26;"
   xml:space="preserve"
   inkscape:version="0.48.3.1 r9886"
   sodipodi:docname="duplicateDisabled.svg"><metadata
   id="metadata21"><rdf:RDF><cc:Work
       rdf:about=""><dc:format>image/svg+xml</dc:format><dc:type
         rdf:resource="http://purl.org/dc/dcmitype/StillImage" /></cc:Work></rdf:RDF></metadata><defs
   id="defs19" /><sodipodi:namedview
   pagecolor="#ffffff"
   bordercolor="#666666"
   borderopacity="1"
   objecttolerance="10"
   gridtolerance="10"
   guidetolerance="10"
   inkscape:pageopacity="0"
   inkscape:pageshadow="2"
   inkscape:window-width="1283"
   inkscape:window-height="762"
   id="namedview17"
   showgrid="false"
   inkscape:zoom="9.0769231"
   inkscape:cx="13"
   inkscape:cy="13"
   inkscape:window-x="65"
   inkscape:window-y="24"
   inkscape:window-maximized="0"
   inkscape:current-layer="Layer_1" />

<circle
   style="fill:#CCCCCC;opacity:0.5"
   cx="13"
   cy="13"
   r="13"
   id="circle3" />
<circle
   style="fill:#999999;opacity:0.5"
   cx="13"
   cy="13"
   r="11"
   id="circle5" />
<rect
   x="5"
   y="6"
   style="fill:#F2F2F2;opacity:0.5"
   width="12"
   height="10"
   id="rect7" />
<rect
   x="8"
   y="9"
   style="fill:#999999;opacity:0.5"
   width="12"
   height="10"
   id="rect9" />
<rect
   x="7"
   y="8"
   style="fill:#999999;opacity:0.5"
   width="8"
   height="6"
   id="rect11" />
<rect
   x="9"
   y="10"
   style="fill:#FFFFFF;opacity:0.5"
   width="12"
   height="10"
   id="rect13" />
<path
   style="fill:#FFA600;opacity:0.5"
   d="M10,7c0,0,2,0,4,0s3,1,3,3s0,3,0,3h3l-5,5l-5-5h3c0,0,0-1,0-2s0-2-1-2C10.5,9,10,7,10,7z"
   id="path15" />
</svg>