<?xml version="1.0" encoding="iso-8859-1"?>
<!-- Generator: Adobe Illustrator 13.0.2, SVG Export Plug-In . SVG Version: 6.00 Build 14948)  -->
<!DOCTYPE svg PUBLIC "-//W3C//DTD SVG 1.1//EN" "http://www.w3.org/Graphics/SVG/1.1/DTD/svg11.dtd">
<svg version="1.1" id="Layer_1" xmlns="http://www.w3.org/2000/svg" xmlns:xlink="http://www.w3.org/1999/xlink" x="0px" y="0px"
	 width="26px" height="26px" viewBox="0 0 26 26" style="enable-background:new 0 0 26 26;" xml:space="preserve">

<circle style="fill:#CCCCCC;" cx="13" cy="13" r="13"/>
<circle style="fill:#997E4D;" cx="13" cy="13" r="11"/>
<path style="fill:#FFFFFF;" d="M4,13c0,0,2-6,9-6s9,6,9,6s-2,6-9,6S4,13,4,13z"/>
<circle cx="13" cy="13" r="4"/>
<circle style="fill:#FFFFFF;" cx="12" cy="11" r="1"/>
<path style="fill:#FFA600;" d="M6.317,22.521c-0.638,0.638-1.673,0.638-2.311,0l0,0c-0.639-0.638-0.638-1.673,0-2.311L20.211,4.479
	c0.639-0.638,1.673-0.638,2.312,0l0,0c0.636,0.639,0.637,1.673,0,2.312L6.317,22.521z"/>
</svg>
