<?xml version="1.0" encoding="iso-8859-1"?>
<!-- Generator: Adobe Illustrator 13.0.2, SVG Export Plug-In . SVG Version: 6.00 Build 14948)  -->
<!DOCTYPE svg PUBLIC "-//W3C//DTD SVG 1.1//EN" "http://www.w3.org/Graphics/SVG/1.1/DTD/svg11.dtd">
<svg version="1.1" id="Layer_1" xmlns="http://www.w3.org/2000/svg" xmlns:xlink="http://www.w3.org/1999/xlink" x="0px" y="0px"
	 width="26px" height="26px" viewBox="0 0 26 26" style="enable-background:new 0 0 26 26;" xml:space="preserve">

<circle style="fill:#CCCCCC;" cx="13" cy="13" r="13"/>
<circle style="fill:#997E4D;" cx="13" cy="13" r="11"/>
<g>
	<rect x="8.062" y="14" style="fill:#FFFFFF;" width="0.875" height="7"/>
	<rect x="5" y="17.062" style="fill:#FFFFFF;" width="7" height="0.875"/>
	
		<rect x="8.062" y="14" transform="matrix(-0.7071 -0.7071 0.7071 -0.7071 2.136 35.8848)" style="fill:#FFFFFF;" width="0.876" height="6.999"/>
	
		<rect x="8.062" y="14" transform="matrix(-0.7065 0.7077 -0.7077 -0.7065 26.8898 23.8495)" style="fill:#FFFFFF;" width="0.876" height="7"/>
</g>
<g>
	
		<rect x="14.908" y="4.069" transform="matrix(0.3367 -0.9416 0.9416 0.3367 1.3254 21.0412)" style="fill:#FFFFFF;" width="1.378" height="11.021"/>
	
		<rect x="14.909" y="4.07" transform="matrix(-0.9415 -0.3371 0.3371 -0.9415 27.0539 23.8576)" style="fill:#FFFFFF;" width="1.378" height="11.021"/>
	
		<rect x="14.909" y="4.07" transform="matrix(-0.9043 0.4268 -0.4268 -0.9043 33.7921 11.5858)" style="fill:#FFFFFF;" width="1.377" height="11.02"/>
	
		<rect x="14.908" y="4.071" transform="matrix(0.4277 0.9039 -0.9039 0.4277 17.5862 -8.6157)" style="fill:#FFFFFF;" width="1.379" height="11.019"/>
</g>
</svg>
