<?xml version="1.0" encoding="UTF-8" standalone="no"?>
<!-- Created with Inkscape (http://www.inkscape.org/) -->

<svg
   width="20"
   height="40"
   viewBox="0 0 20 40"
   version="1.1"
   id="SVGRoot"
   sodipodi:docname="library_open.svg"
   inkscape:version="1.1 (c68e22c387, 2021-05-23)"
   xml:space="preserve"
   xmlns:inkscape="http://www.inkscape.org/namespaces/inkscape"
   xmlns:sodipodi="http://sodipodi.sourceforge.net/DTD/sodipodi-0.dtd"
   xmlns="http://www.w3.org/2000/svg"
   xmlns:svg="http://www.w3.org/2000/svg"
   xmlns:rdf="http://www.w3.org/1999/02/22-rdf-syntax-ns#"
   xmlns:cc="http://creativecommons.org/ns#"><sodipodi:namedview
     id="namedview1017"
     pagecolor="#ffffff"
     bordercolor="#666666"
     borderopacity="1.0"
     inkscape:pageshadow="2"
     inkscape:pageopacity="0"
     inkscape:pagecheckerboard="true"
     inkscape:document-units="px"
     showgrid="true"
     inkscape:zoom="5.6568543"
     inkscape:cx="-8.662058"
     inkscape:cy="30.582368"
     inkscape:window-width="1920"
     inkscape:window-height="972"
     inkscape:window-x="0"
     inkscape:window-y="56"
     inkscape:window-maximized="1"
     inkscape:current-layer="layer1"
     inkscape:snap-global="true"
     showborder="true"
     borderlayer="false"
     inkscape:showpageshadow="false"
     inkscape:deskcolor="#d1d1d1"
     fit-margin-top="0"
     fit-margin-left="0"
     fit-margin-right="0"
     fit-margin-bottom="0"><inkscape:grid
       type="xygrid"
       id="grid1080"
       originx="-10"
       originy="-1" /></sodipodi:namedview><defs
     id="defs1012" /><g
     inkscape:label="icon"
     id="layer1"
     inkscape:groupmode="layer"
     transform="translate(-10,-1)"><g
       id="g12118"
       inkscape:label="pages_open"><path
         id="rect1031"
         style="fill:#b8b8b7;stroke-width:2;paint-order:stroke fill markers"
         d="m 10,1 h 16 c 2.216,0 4,1.784 4,4 v 32 c 0,2.216 -1.784,4 -4,4 H 10 Z"
         sodipodi:nodetypes="ccssscc"
         inkscape:label="body" /><path
         style="fill:#646464;fill-opacity:1;stroke:none;stroke-width:1.25499px;stroke-linecap:butt;stroke-linejoin:miter;stroke-opacity:1"
         d="M 16,10.5 23,6 v 9 z"
         id="path3497"
         sodipodi:nodetypes="cccc"
         inkscape:label="arrow" /><path
         id="rect291"
         style="fill:#f7cf27;fill-opacity:1;stroke:#ab7e1e;stroke-width:0.860868;stroke-dasharray:none;stroke-opacity:1;paint-order:stroke fill markers"
         d="m 24.732965,20.451133 c 0.48003,0 0.866482,0.38146 0.866482,0.855291 v 0.855292 2.565874 c 0,0.47383 -0.386452,0.85529 -0.866482,0.85529 h -3.46593 c -0.48003,0 -0.866482,-0.38146 -0.866482,-0.85529 v -2.565874 c 0,-0.47383 0.386452,-0.855292 0.866482,-0.855292 H 23 c 0,-0.473831 0.386452,-0.855291 0.866482,-0.855291 z" /><path
         style="fill:#5fb4da;fill-opacity:1;stroke:#006a8d;stroke-width:0.76866;stroke-dasharray:none;stroke-opacity:1;paint-order:stroke fill markers"
         d="m 17.593965,20.663748 0.01435,4.630024 -3.865844,-2.297425 z"
         id="path5811"
         sodipodi:nodetypes="cccc" /><path
         id="rect9252"
         style="fill:#d0c329;fill-opacity:1;stroke:#938915;stroke-width:0.852753;stroke-opacity:1;paint-order:stroke fill markers"
         d="m 23.334816,29.432813 h 2.16211 c 0.02003,0 0.03516,0.01708 0.03516,0.03711 v 2.05664 c 0,0.02003 -0.01513,0.03516 -0.03516,0.03516 h -2.148438 l -1.898439,0.942383 c -0.01784,0.0091 0,-4.015627 0,-4.015627 0,-0.01753 1.884767,0.944334 1.884767,0.944334 z"
         sodipodi:nodetypes="csssscccc" /><path
         id="path13606"
         style="fill:#f89504;fill-opacity:1;stroke:#fc6d12;stroke-width:0.54151;stroke-opacity:1;paint-order:stroke fill markers"
         inkscape:transform-center-x="-0.019899089"
         inkscape:transform-center-y="-0.18397285"
         d="m 14.20957,32.542553 1.258502,-0.670582 1.259285,0.669108 -0.248862,-1.404127 1.025499,-0.990887 -1.412306,-0.197217 -0.625492,-1.281509 -0.623992,1.282241 -1.412075,0.19887 1.026659,0.989685 z" /></g></g><metadata
     id="metadata1158"><rdf:RDF><cc:Work
         rdf:about=""><cc:license
           rdf:resource="http://creativecommons.org/publicdomain/zero/1.0/" /></cc:Work><cc:License
         rdf:about="http://creativecommons.org/publicdomain/zero/1.0/"><cc:permits
           rdf:resource="http://creativecommons.org/ns#Reproduction" /><cc:permits
           rdf:resource="http://creativecommons.org/ns#Distribution" /><cc:permits
           rdf:resource="http://creativecommons.org/ns#DerivativeWorks" /></cc:License></rdf:RDF></metadata></svg>
