<?xml version="1.0" encoding="UTF-8" standalone="no"?>
<svg xmlns:dc="http://purl.org/dc/elements/1.1/" xmlns:cc="http://creativecommons.org/ns#" xmlns:rdf="http://www.w3.org/1999/02/22-rdf-syntax-ns#" xmlns:svg="http://www.w3.org/2000/svg" xmlns="http://www.w3.org/2000/svg" version="1.1" id="Layer_1" x="0px" y="0px" width="44" height="26" viewBox="0 0 44 26" xml:space="preserve">
  <metadata id="metadata17">
    <rdf:RDF>
      <cc:Work rdf:about="">
        <dc:format>image/svg+xml</dc:format>
        <dc:type rdf:resource="http://purl.org/dc/dcmitype/StillImage" />
        <dc:title></dc:title>
      </cc:Work>
    </rdf:RDF>
  </metadata>
  <defs id="defs15" />
  <path style="fill:#cccccc;fill-opacity:1;stroke:#cccccc;stroke-width:4;stroke-miterlimit:4;stroke-dasharray:none;image-rendering:auto" id="rect41" width="40.0" height="22.0" x="2" y="2" d="M 13,2 H 31 A 11,11 45 0 1 42,13 11,11 135 0 1 31,24 H 13 A 11,11 45 0 1 2,13 11,11 135 0 1 13,2 Z" />
  <path style="fill:none;stroke:#999999;stroke-width:4;stroke-miterlimit:4;stroke-dasharray:none;stroke-opacity:1" id="rect868" width="34" height="16" x="5" y="5" d="m 13,5 h 18 a 8,8 45 0 1 8,8 8,8 135 0 1 -8,8 H 13 A 8,8 45 0 1 5,13 8,8 135 0 1 13,5 Z" />
  <circle style="fill:#ffffff;fill-opacity:1;stroke-width:0.5" cx="13" cy="13" id="circle4-3" r="7" />
</svg>
