<?xml version="1.0" encoding="utf-8"?>
<!-- Generator: Adobe Illustrator 14.0.0, SVG Export Plug-In . SVG Version: 6.00 Build 43363)  -->
<!DOCTYPE svg PUBLIC "-//W3C//DTD SVG 1.1 Tiny//EN" "http://www.w3.org/Graphics/SVG/1.1/DTD/svg11-tiny.dtd">
<svg version="1.1" baseProfile="tiny"
	 id="svg2" xmlns:cc="http://creativecommons.org/ns#" xmlns:rdf="http://www.w3.org/1999/02/22-rdf-syntax-ns#" xmlns:svg="http://www.w3.org/2000/svg" xmlns:dc="http://purl.org/dc/elements/1.1/" sodipodi:docname="close.svg" xmlns:inkscape="http://www.inkscape.org/namespaces/inkscape" xmlns:sodipodi="http://sodipodi.sourceforge.net/DTD/sodipodi-0.dtd" sodipodi:version="0.32" inkscape:version="0.46" inkscape:output_extension="org.inkscape.output.svg.inkscape"
	 xmlns="http://www.w3.org/2000/svg" xmlns:xlink="http://www.w3.org/1999/xlink" x="0px" y="0px" width="26px" height="26px"
	 viewBox="0 0 26 26" xml:space="preserve">
<defs>
	
	
		<inkscape:perspective  inkscape:persp3d-origin="372.04724 : 350.78739 : 1" inkscape:vp_z="744.09448 : 526.18109 : 1" inkscape:vp_x="0 : 526.18109 : 1" sodipodi:type="inkscape:persp3d" inkscape:vp_y="0 : 1000 : 0" id="perspective17">
		</inkscape:perspective>
</defs>
<sodipodi:namedview  inkscape:current-layer="svg2" inkscape:window-y="196" inkscape:window-x="1734" inkscape:cy="17.522492" inkscape:cx="18.843278" inkscape:zoom="9.9337156" showgrid="false" pagecolor="#ffffff" bordercolor="#666666" borderopacity="1.0" objecttolerance="10.0" gridtolerance="10.0" guidetolerance="10.0" inkscape:pageopacity="0.0" inkscape:pageshadow="2" inkscape:window-width="892" inkscape:window-height="671" id="base">
	</sodipodi:namedview>
<circle id="circle4" sodipodi:ry="12" sodipodi:rx="12" sodipodi:cy="0" sodipodi:cx="0" fill="#808080" stroke="#C0C0C0" stroke-width="2" cx="13" cy="13" r="12">
</circle>
<path fill="#FFFFFF" d="M9.481,14.531l-2.439,3.678l3.668-2.459c-0.226-0.185-0.449-0.386-0.666-0.602
	C9.845,14.949,9.656,14.741,9.481,14.531z M16.796,8.46c-1.062-1.062-2.309-1.537-2.784-1.063c-0.145,0.146-0.201,0.363-0.179,0.626
	c-0.009,0.214-0.037,0.412-0.077,0.593l-1.833,1.833c-0.562,0.159-1.103,0.17-1.394,0.159c-0.614-0.191-1.132-0.161-1.432,0.138
	c-0.666,0.666-0.007,2.404,1.469,3.881c1.478,1.479,3.216,2.136,3.881,1.47c0.253-0.254,0.314-0.662,0.212-1.154l0.007,0.007
	c0,0-0.106-0.845,0.155-1.707l1.726-1.726c0.209-0.053,0.44-0.086,0.697-0.094c0.257,0.021,0.47-0.036,0.614-0.179
	C18.332,10.769,17.858,9.523,16.796,8.46z"/>
</svg>
