<?xml version="1.0" encoding="utf-8"?>
<!-- Generator: Adobe Illustrator 14.0.0, SVG Export Plug-In . SVG Version: 6.00 Build 43363)  -->
<!DOCTYPE svg PUBLIC "-//W3C//DTD SVG 1.1//EN" "http://www.w3.org/Graphics/SVG/1.1/DTD/svg11.dtd">
<svg version="1.1"
	 id="svg2" xmlns:svg="http://www.w3.org/2000/svg" inkscape:version="0.46" xmlns:dc="http://purl.org/dc/elements/1.1/" xmlns:inkscape="http://www.inkscape.org/namespaces/inkscape" xmlns:sodipodi="http://sodipodi.sourceforge.net/DTD/sodipodi-0.dtd" xmlns:cc="http://creativecommons.org/ns#" sodipodi:docname="close.svg" sodipodi:version="0.32" xmlns:rdf="http://www.w3.org/1999/02/22-rdf-syntax-ns#" inkscape:output_extension="org.inkscape.output.svg.inkscape"
	 xmlns="http://www.w3.org/2000/svg" xmlns:xlink="http://www.w3.org/1999/xlink" x="0px" y="0px" width="26px" height="26px"
	 viewBox="0 0 26 26" enable-background="new 0 0 26 26" xml:space="preserve">
<defs>
	
	
		<inkscape:perspective  id="perspective17" inkscape:vp_x="0 : 526.18109 : 1" inkscape:vp_z="744.09448 : 526.18109 : 1" inkscape:persp3d-origin="372.04724 : 350.78739 : 1" inkscape:vp_y="0 : 1000 : 0" sodipodi:type="inkscape:persp3d">
		</inkscape:perspective>
</defs>
<sodipodi:namedview  id="base" inkscape:window-height="671" inkscape:window-width="892" inkscape:pageshadow="2" inkscape:pageopacity="0.0" guidetolerance="10.0" gridtolerance="10.0" objecttolerance="10.0" borderopacity="1.0" bordercolor="#666666" pagecolor="#ffffff" showgrid="false" inkscape:zoom="9.9337156" inkscape:cx="18.843278" inkscape:cy="17.522492" inkscape:window-y="196" inkscape:current-layer="svg2" inkscape:window-x="1734">
	</sodipodi:namedview>
<circle id="circle4" sodipodi:cx="0" sodipodi:cy="0" sodipodi:rx="12" sodipodi:ry="12" fill="#808080" stroke="#C0C0C0" stroke-width="2" cx="13" cy="13" r="12">
</circle>
<path fill="#FFFFFF" d="M12.913,7.086c0.001,0,0.002,0,0.004,0.001c0.001,0,0.002,0,0.003,0L12.913,7.086z M19.026,13.239
	c0-3.38-2.727-6.128-6.109-6.152c-0.019-0.001-0.034-0.001-0.045-0.001c-1.741,0-3.321,0.729-4.439,1.894L6.972,7.5v4.299h4.244
	l-1.474-1.493c0.786-0.837,1.894-1.357,3.13-1.358c0.012,0,0.018,0,0.021,0h0.008c2.359,0.015,4.263,1.934,4.262,4.29
	c0.001,0.002,0,0.014,0.001,0.034c-0.019,2.356-1.937,4.257-4.29,4.256c-0.008,0.001-0.02,0-0.037,0l0.005,1.863
	c0.006,0,0.016,0,0.031,0c3.381,0,6.13-2.729,6.152-6.114v-0.01v-0.013C19.026,13.254,19.026,13.248,19.026,13.239z"/>
</svg>
