<?xml version="1.0" encoding="utf-8"?>
<!-- Generator: Adobe Illustrator 14.0.0, SVG Export Plug-In . SVG Version: 6.00 Build 43363)  -->
<!DOCTYPE svg PUBLIC "-//W3C//DTD SVG 1.1//EN" "http://www.w3.org/Graphics/SVG/1.1/DTD/svg11.dtd">
<svg version="1.1" id="Layer_1" xmlns="http://www.w3.org/2000/svg" xmlns:xlink="http://www.w3.org/1999/xlink" x="0px" y="0px"
	 width="23.955px" height="23.685px" viewBox="0 0 23.955 23.685" enable-background="new 0 0 23.955 23.685" xml:space="preserve">
<g>
	<path fill="#9A9A9A" stroke="#676767" stroke-width="1.4232" stroke-miterlimit="3.8637" d="M22.956,17.407
		c0,2.808-2.4,5.217-5.531,5.217H6.669c-3.131,0-5.531-2.409-5.531-5.217V6.36c0-2.808,2.4-5.217,5.531-5.217h10.755
		c3.131,0,5.531,2.409,5.531,5.217V17.407z"/>
	<path fill="#FFFFFF" d="M7.715,5.09v13.574c0,0.467-0.367,0.854-0.83,0.854c-0.491,0-0.864-0.382-0.864-0.854V5.09
		c0-0.467,0.366-0.854,0.832-0.854C7.344,4.235,7.715,4.617,7.715,5.09z M12.155,4.235c0.463,0,0.83,0.388,0.83,0.854v13.574
		c0,0.467-0.367,0.854-0.83,0.854c-0.465,0-0.832-0.387-0.832-0.854V5.089C11.323,4.623,11.69,4.235,12.155,4.235z M17.424,4.235
		c0.463,0,0.83,0.388,0.83,0.854v13.574c0,0.467-0.367,0.854-0.83,0.854c-0.465,0-0.832-0.387-0.832-0.854V5.089
		C16.592,4.623,16.959,4.235,17.424,4.235z"/>
</g>
</svg>
