<?xml version="1.0" encoding="utf-8"?>
<!-- Generator: Adobe Illustrator 14.0.0, SVG Export Plug-In . SVG Version: 6.00 Build 43363)  -->
<!DOCTYPE svg PUBLIC "-//W3C//DTD SVG 1.1//EN" "http://www.w3.org/Graphics/SVG/1.1/DTD/svg11.dtd">
<svg version="1.1" id="Layer_1" xmlns="http://www.w3.org/2000/svg" xmlns:xlink="http://www.w3.org/1999/xlink" x="0px" y="0px"
	 width="26.727px" height="22.311px" viewBox="0 0 26.727 22.311" enable-background="new 0 0 26.727 22.311" xml:space="preserve">
<g>
	<path fill-rule="evenodd" clip-rule="evenodd" fill="#333333" stroke="#CDCCCC" stroke-miterlimit="3.8637" d="M17.993,0.517
		c4.547,0,8.231,3.686,8.231,8.232v4.838c0,4.547-3.685,8.232-8.231,8.232H8.748c-4.546,0-8.231-3.686-8.231-8.232V8.749
		c0-4.547,3.686-8.232,8.231-8.232H17.993z"/>
	<g>
		<path fill="#FFFFFF" d="M9.792,7.146c0.4-0.4,1.04-0.451,1.428-0.063s0.337,1.027-0.063,1.428l-2.8,2.797l2.8,2.796
			c0.4,0.4,0.451,1.041,0.063,1.428c-0.388,0.389-1.027,0.338-1.428-0.062l-2.797-2.8l-1.361-1.361l1.361-1.361L9.792,7.146z"/>
		<path fill="#FFFFFF" d="M17.393,15.468c-0.4,0.4-1.04,0.451-1.428,0.062c-0.388-0.387-0.337-1.027,0.063-1.428l2.8-2.796
			l-2.8-2.797c-0.4-0.4-0.451-1.04-0.063-1.428s1.027-0.337,1.428,0.063l2.797,2.8l1.361,1.361l-1.361,1.361L17.393,15.468z"/>
		<path fill="#FFFFFF" d="M9.27,10.329h10.062c0.566,0,1.055,0.416,1.055,0.965c0,0.548-0.488,0.965-1.055,0.965H9.27
			c-0.566,0-1.055-0.417-1.055-0.965C8.215,10.745,8.703,10.329,9.27,10.329z"/>
	</g>
</g>
</svg>
