<?xml version="1.0" encoding="utf-8"?>
<!-- Generator: Adobe Illustrator 14.0.0, SVG Export Plug-In . SVG Version: 6.00 Build 43363)  -->
<!DOCTYPE svg PUBLIC "-//W3C//DTD SVG 1.1//EN" "http://www.w3.org/Graphics/SVG/1.1/DTD/svg11.dtd">
<svg version="1.1" id="Layer_1" xmlns="http://www.w3.org/2000/svg" xmlns:xlink="http://www.w3.org/1999/xlink" x="0px" y="0px"
	 width="26.708px" height="22.311px" viewBox="0 0 26.708 22.311" enable-background="new 0 0 26.708 22.311" xml:space="preserve">
<g>
	<path fill-rule="evenodd" clip-rule="evenodd" fill="#624D9F" stroke="#352063" stroke-miterlimit="3.8637" d="M17.981,0.513
		c4.547,0,8.232,3.686,8.232,8.231v4.839c0,4.547-3.686,8.232-8.232,8.232H8.737c-4.547,0-8.232-3.686-8.232-8.232V8.744
		c0-4.546,3.686-8.231,8.232-8.231H17.981z"/>
	<g>
		<path fill="#FFFFFF" d="M17.696,4.562c0.559-0.089,1.106,0.246,1.191,0.788c0.086,0.542-0.331,1.029-0.891,1.118l-3.908,0.617
			l0.621,3.908c0.088,0.559-0.246,1.107-0.788,1.193c-0.541,0.085-1.029-0.332-1.118-0.891l-0.616-3.91l-0.302-1.901l1.902-0.301
			L17.696,4.562z"/>
		<path fill="#FFFFFF" d="M10.324,18.023c-1.439-0.609-2.524-1.707-3.146-3.018c-0.228-0.48,0.037-0.902,0.381-1.064
			c0.344-0.164,0.838-0.102,1.065,0.38c0.459,0.97,1.26,1.778,2.324,2.229c2.304,0.979,4.964-0.096,5.942-2.4
			c0.977-2.301-0.101-4.948-2.407-5.927c-0.489-0.208-0.572-0.699-0.424-1.049c0.148-0.351,0.56-0.632,1.049-0.424
			c3.114,1.322,4.579,4.906,3.255,8.025C17.041,17.892,13.441,19.347,10.324,18.023z"/>
	</g>
</g>
</svg>
