<?xml version="1.0" encoding="UTF-8" standalone="no"?>
<!-- Created with Inkscape (http://www.inkscape.org/) -->

<svg
   width="20"
   height="20"
   viewBox="0 0 5.2916668 5.2916668"
   version="1.1"
   id="svg5"
   sodipodi:docname="settingsCompass.svg"
   inkscape:version="1.2.2 (b0a8486541, 2022-12-01)"
   xmlns:inkscape="http://www.inkscape.org/namespaces/inkscape"
   xmlns:sodipodi="http://sodipodi.sourceforge.net/DTD/sodipodi-0.dtd"
   xmlns="http://www.w3.org/2000/svg"
   xmlns:svg="http://www.w3.org/2000/svg">
  <sodipodi:namedview
     id="namedview20"
     pagecolor="#505050"
     bordercolor="#ffffff"
     borderopacity="1"
     inkscape:showpageshadow="0"
     inkscape:pageopacity="0"
     inkscape:pagecheckerboard="1"
     inkscape:deskcolor="#505050"
     inkscape:document-units="mm"
     showgrid="false"
     inkscape:zoom="60.853846"
     inkscape:cx="-5.0613071"
     inkscape:cy="10.048666"
     inkscape:window-width="1920"
     inkscape:window-height="983"
     inkscape:window-x="0"
     inkscape:window-y="56"
     inkscape:window-maximized="1"
     inkscape:current-layer="svg5" />
  <defs
     id="defs2">
    <linearGradient
       id="linearGradient5401">
      <stop
         style="stop-color:#d9262b;stop-opacity:1;"
         offset="0"
         id="stop5399" />
    </linearGradient>
  </defs>
  <g
     id="layer3"
     transform="matrix(0.19561258,0,0,0.19569173,0.10286968,0.10273336)"
     style="fill:#9a9a9a;fill-opacity:1;stroke:#676767;stroke-width:1.05086;stroke-dasharray:none;stroke-opacity:1">
    <circle
       style="fill:#9a9a9a;fill-opacity:1;fill-rule:evenodd;stroke:#676767;stroke-width:1.05086;stroke-linecap:round;stroke-linejoin:round;stroke-miterlimit:3.8;stroke-dasharray:none;stroke-dashoffset:4.6719;stroke-opacity:1;paint-order:markers fill stroke"
       id="path7731"
       cx="13"
       cy="13"
       r="13" />
    <path
       style="fill:#9a9a9a;fill-opacity:1;fill-rule:evenodd;stroke:#676767;stroke-width:3.97175;stroke-linecap:round;stroke-linejoin:round;stroke-miterlimit:3.8;stroke-dasharray:none;stroke-dashoffset:4.6719;stroke-opacity:1;paint-order:markers fill stroke"
       d="m 41.766301,82.537582 c 0,-4.168441 -3.93e-4,-4.201582 -0.04914,-4.250336 -0.02702,-0.02702 -0.05743,-0.04943 -0.06756,-0.0498 -0.01013,-3.63e-4 -0.311404,-0.07628 -0.669489,-0.168705 L 40.329049,77.9007 37.675521,76.797989 c -1.45944,-0.606491 -2.730855,-1.145822 -2.825367,-1.198514 -0.09451,-0.05269 -0.362034,-0.210237 -0.594493,-0.3501 -0.308127,-0.185389 -0.444537,-0.254296 -0.503414,-0.254296 -0.07447,0 -0.311252,0.230464 -3.041572,2.960436 l -2.960813,2.960436 -5.202289,-5.202334 -5.20229,-5.202333 2.960502,-2.960425 c 3.418502,-3.418415 3.063077,-2.990462 2.796784,-3.367486 -0.732775,-1.037479 -1.426304,-2.373871 -1.937157,-3.732794 -0.364369,-0.969259 -0.687144,-2.036012 -1.018439,-3.365873 -0.09403,-0.377441 -0.138246,-0.514426 -0.176452,-0.546647 -0.04812,-0.04058 -0.286125,-0.04299 -4.237174,-0.04299 h -4.186193 v -0.343958 -0.343958 l 11.970959,1.11e-4 11.970959,1.11e-4 0.127746,0.251715 c 0.446537,0.879869 1.146816,1.951484 1.689717,2.585715 0.591253,0.69072 1.693049,1.788075 2.347379,2.337922 0.715769,0.601471 1.697481,1.225553 2.738882,1.741125 1.393351,0.689814 2.76986,1.136088 4.274904,1.385952 0.962516,0.159794 1.678442,0.209313 2.751662,0.190324 1.70346,-0.03014 2.846783,-0.23715 4.655426,-0.842917 0.796801,-0.266871 1.372124,-0.499561 1.90434,-0.770213 1.473763,-0.749462 2.87774,-1.78617 4.018021,-2.966938 l 0.318304,-0.329605 v 8.853838 8.853837 l -0.509795,0.186724 c -0.845355,0.30963 -1.633161,0.550896 -2.671815,0.818245 -0.358465,0.09227 -0.557054,0.155211 -0.589642,0.186888 -0.04871,0.04735 -0.04919,0.08429 -0.05549,4.248279 l -0.0064,4.200518 H 49.12428 41.766249 Z"
       id="path8078"
       transform="scale(0.26458333)" />
    <path
       style="fill:#9a9a9a;fill-opacity:1;fill-rule:evenodd;stroke:#676767;stroke-width:3.97175;stroke-linecap:round;stroke-linejoin:round;stroke-miterlimit:3.8;stroke-dasharray:none;stroke-dashoffset:4.6719;stroke-opacity:1;paint-order:markers fill stroke"
       d=""
       id="path8080"
       transform="scale(0.26458333)" />
    <path
       style="fill:#9a9a9a;fill-opacity:1;fill-rule:evenodd;stroke:#676767;stroke-width:3.97175;stroke-linecap:round;stroke-linejoin:round;stroke-miterlimit:3.8;stroke-dasharray:none;stroke-dashoffset:4.6719;stroke-opacity:1;paint-order:markers fill stroke"
       d=""
       id="path8082"
       transform="scale(0.26458333)" />
    <path
       style="fill:#9a9a9a;fill-opacity:1;fill-rule:evenodd;stroke:#676767;stroke-width:3.97175;stroke-linecap:round;stroke-linejoin:round;stroke-miterlimit:3.8;stroke-dasharray:none;stroke-dashoffset:4.6719;stroke-opacity:1;paint-order:markers fill stroke"
       d=""
       id="path8084"
       transform="scale(0.26458333)" />
    <path
       style="fill:#9a9a9a;fill-opacity:1;fill-rule:evenodd;stroke:#676767;stroke-width:3.97175;stroke-linecap:round;stroke-linejoin:round;stroke-miterlimit:3.8;stroke-dasharray:none;stroke-dashoffset:4.6719;stroke-opacity:1;paint-order:markers fill stroke"
       d="m 40.234375,77.884393 c -0.029,-0.0085 -0.1125,-0.03321 -0.185547,-0.05481 -1.541664,-0.455879 -3.043288,-1.067042 -4.478516,-1.822763 -0.207418,-0.109216 -0.49713,-0.266849 -0.494772,-0.269207 0.0015,-0.0015 5.217274,2.157591 5.22101,2.161205 0.0041,0.004 -0.01354,-9e-5 -0.06218,-0.01442 z"
       id="path8086"
       transform="scale(0.26458333)" />
    <path
       style="fill:#9a9a9a;fill-opacity:1;fill-rule:evenodd;stroke:#676767;stroke-width:3.97175;stroke-linecap:round;stroke-linejoin:round;stroke-miterlimit:3.8;stroke-dasharray:none;stroke-dashoffset:4.6719;stroke-opacity:1;paint-order:markers fill stroke"
       d="m 41.414062,78.192648 c -0.335646,-0.08074 -0.713916,-0.177963 -0.951171,-0.244463 l -0.109375,-0.03066 -2.67182,-1.106928 -2.671819,-1.106928 -0.117083,-0.06605 c -0.302337,-0.170545 -0.606575,-0.350444 -0.912267,-0.539432 -0.07939,-0.04908 -0.136531,-0.08181 -0.152402,-0.08728 -0.0489,-0.01687 -0.112168,-0.01033 -0.15904,0.01643 -0.01237,0.0071 -0.173625,0.165444 -0.476702,0.468204 l -0.458008,0.457529 v -1.204079 -1.204079 h 4.373047 4.373047 v 2.332031 c 0,1.282617 -4.4e-4,2.331844 -9.77e-4,2.331616 -5.37e-4,-2.31e-4 -0.02998,-0.0074 -0.06543,-0.01592 z"
       id="path8088"
       transform="scale(0.26458333)" />
    <path
       style="fill:#9a9a9a;fill-opacity:1;fill-rule:evenodd;stroke:#676767;stroke-width:3.97175;stroke-linecap:round;stroke-linejoin:round;stroke-miterlimit:3.8;stroke-dasharray:none;stroke-dashoffset:4.6719;stroke-opacity:1;paint-order:markers fill stroke"
       d="m 41.780889,82.524247 c 0,-3.295602 -0.01267,-4.201578 -0.05928,-4.239584 -0.0326,-0.02659 -0.400736,-0.136554 -0.818071,-0.244369 -2.147488,-0.554789 -4.537195,-1.550033 -6.435336,-2.680126 -0.331175,-0.19717 -0.651226,-0.358492 -0.711225,-0.358492 -0.08105,0 -0.86798,0.758819 -3.061429,2.952054 l -2.95234,2.95206 -5.192911,-5.192749 -5.192911,-5.192749 2.963995,-2.964275 c 1.630198,-1.630352 2.963995,-3.001022 2.963995,-3.045935 0,-0.04491 -0.146984,-0.300941 -0.326633,-0.568952 -1.175467,-1.753643 -2.02021,-3.784345 -2.708145,-6.510191 -0.140688,-0.557457 -0.232289,-0.831822 -0.296877,-0.889208 -0.08745,-0.07769 -0.35796,-0.08299 -4.237789,-0.08299 h -4.14438 V 49.13167 41.804602 h 4.167539 c 3.742534,0 4.17389,-0.0077 4.229802,-0.07502 0.03424,-0.04126 0.163882,-0.480449 0.288083,-0.975971 0.548877,-2.189835 1.385219,-4.193144 2.584942,-6.191772 0.243902,-0.406318 0.443458,-0.772812 0.443458,-0.814432 0,-0.04162 -0.901561,-0.977422 -2.003471,-2.07956 l -2.003471,-2.00389 H 49.13167 78.984907 l -2.003471,2.003888 c -1.101911,1.102138 -2.003472,2.037079 -2.003472,2.077647 0,0.04057 0.204527,0.435282 0.45451,0.877144 1.146679,2.026862 1.933393,3.941389 2.580935,6.280902 0.132153,0.477462 0.236079,0.764164 0.29654,0.818071 0.08715,0.07771 0.358633,0.08299 4.261172,0.08299 h 4.168092 v 7.327068 7.327069 h -4.168092 c -3.900533,0 -4.174404,0.0053 -4.266431,0.08299 -0.07417,0.0626 -0.156605,0.321916 -0.335442,1.055193 -0.29894,1.225701 -0.446468,1.711613 -0.763125,2.513493 -0.312636,0.791686 -1.065693,2.299962 -1.728121,3.461195 -0.275019,0.482111 -0.500038,0.908868 -0.500038,0.948348 0,0.03948 1.333796,1.405705 2.963996,3.036057 l 2.963996,2.964275 -5.192914,5.192749 -5.19291,5.192749 -2.952339,-2.95206 c -2.16157,-2.16136 -2.981026,-2.952054 -3.059437,-2.952054 -0.0589,0 -0.421632,0.184306 -0.806073,0.409569 -2.094147,1.22707 -3.901344,1.968252 -6.457849,2.648541 -0.35037,0.09323 -0.665149,0.192846 -0.69951,0.221362 -0.05082,0.04218 -0.06247,0.833702 -0.06247,4.243099 v 4.191254 H 49.13167 41.780889 Z m 9.348552,-18.331622 c 0.892199,-0.116278 1.750869,-0.329772 2.960522,-0.736082 1.41098,-0.473933 2.21093,-0.858423 3.364688,-1.617211 3.531642,-2.322643 5.98078,-6.093486 6.659172,-10.252886 0.27342,-1.676396 0.246308,-3.675577 -0.07188,-5.300239 -0.749311,-3.825958 -2.76683,-7.036558 -5.89145,-9.375414 -2.045665,-1.531232 -4.684372,-2.557904 -7.430105,-2.890917 -0.778809,-0.09446 -2.692105,-0.08042 -3.46198,0.02539 -2.445411,0.336113 -4.634266,1.160865 -6.654197,2.507275 -0.823783,0.549103 -1.899015,1.518372 -2.900072,2.61427 -0.667866,0.731141 -0.988464,1.146263 -1.421282,1.84033 -1.302132,2.088099 -2.051615,4.341285 -2.284447,6.867779 -0.06754,0.732931 -0.02715,2.46551 0.07519,3.224858 0.318209,2.361156 1.12234,4.514557 2.408478,6.449718 0.640719,0.964044 1.654985,2.096977 2.763336,3.08664 1.822483,1.62732 4.267467,2.840872 6.76468,3.357604 0.640912,0.132619 1.591557,0.26757 2.173093,0.308487 0.616421,0.04337 2.234301,-0.01682 2.946259,-0.109606 z"
       id="path8159"
       transform="scale(0.26458333)" />
  </g>
  <rect
     style="fill:#9a9a9a;fill-opacity:1;fill-rule:evenodd;stroke:none;stroke-width:0.104;stroke-linecap:round;stroke-linejoin:round;stroke-miterlimit:3.8;stroke-dasharray:none;stroke-dashoffset:4.6719;stroke-opacity:1;paint-order:markers fill stroke"
     id="rect9436"
     width="4.1953621"
     height="2.5111637"
     x="0.58113205"
     y="1.3666635"
     ry="0.70895338" />
  <rect
     style="fill:#9a9a9a;fill-opacity:1;fill-rule:evenodd;stroke:none;stroke-width:0.104;stroke-linecap:round;stroke-linejoin:round;stroke-miterlimit:3.8;stroke-dasharray:none;stroke-dashoffset:4.6719;stroke-opacity:1;paint-order:markers fill stroke"
     id="rect9542"
     width="2.9140892"
     height="4.2819886"
     x="1.254321"
     y="0.55594963"
     ry="0.70895338" />
  <g
     id="layer2"
     transform="scale(0.20352564)"
     style="stroke:none;stroke-width:1.00233071;stroke-dasharray:none">
    <path
       style="fill:#934e52;fill-opacity:1;fill-rule:evenodd;stroke:none;stroke-width:1.00233071;stroke-linecap:round;stroke-linejoin:round;stroke-miterlimit:3.8;stroke-dasharray:none;stroke-dashoffset:4.6719;stroke-opacity:1;paint-order:markers fill stroke"
       d="M 8.9324423,19.89359 7.341452,21.48458 4.513025,18.656153 6.1040152,17.065163 C 5.7564495,16.580432 5.4509804,15.959388 5.25,15 H 3 V 11 H 5.25 C 5.4468661,10.190819 5.7180744,9.4835134 6.1040152,8.9334344 L 4.513025,7.3424442 7.341452,4.5140171 8.9324423,6.1050074 C 9.5726755,5.7221 10.247969,5.4093137 11,5.25 V 3 h 4 v 2.25 c 0.82503,0.2427194 1.480921,0.5048629 2.064162,0.8550074 L 18.655153,4.5140171 21.48358,7.3424442 19.892589,8.9334344 C 20.163817,9.3505867 20.468703,9.9305516 20.75,11 H 23 v 4 h -2.25 c -0.126075,0.663813 -0.431392,1.355201 -0.857411,2.065159 l 1.590991,1.59099 -2.828419,2.828431 -1.590991,-1.59099 C 16.573425,20.17547 16.108029,20.45689 15,20.75 V 23 h -4 v -2.25 m -0.401986,-4.539429 c 0.894348,0.660042 1.984183,0.923909 3.071116,0.743569 0.291511,-0.04837 0.844123,-0.226303 1.099623,-0.354071 0.968143,-0.484136 1.695764,-1.32317 2.036893,-2.34878 0.507779,-1.526644 0.03141,-3.246766 -1.186309,-4.2836947 C 15.177586,9.5914266 14.812436,9.3854796 14.256171,9.1987576 13.044981,8.7921965 11.772181,8.9788923 10.681605,9.7230788 10.436971,9.890012 9.883819,10.443651 9.7158334,10.689711 9.2328588,11.39712 8.9882068,12.182294 8.992238,13.011986 c 0.00421,0.866828 0.269218,1.671962 0.7797239,2.368931 0.1649624,0.225216 0.6025321,0.664691 0.8260641,0.829656 z"
       id="path7676" />
    <g
       id="g5397"
       style="mix-blend-mode:normal;fill:none;fill-opacity:1;fill-rule:evenodd;stroke:none;stroke-width:1.00233071;stroke-dasharray:none">
      <path
         style="fill:none;fill-opacity:1;fill-rule:evenodd;stroke:none;stroke-width:1.00233071;stroke-linecap:round;stroke-linejoin:round;stroke-dasharray:none;stroke-opacity:1"
         d="m 15,3 v 2.25 c 0.563928,0.1842937 1.00057,0.2655469 2.065864,0.8557089 l 1.59099,-1.5909903 2.828427,2.8284272 -1.59099,1.5909902 C 20.171952,9.4220072 20.447912,9.8648113 20.75,11 H 23 v 4 h -2.25 c -0.153124,0.522847 -0.101183,0.788356 -0.855706,2.065899 l 1.59099,1.59099 -2.828427,2.828427 -1.59099,-1.59099 C 16.201813,20.42675 15.591741,20.60129 15,20.75 V 23 H 11 V 20.75 C 10.608483,20.661346 10.24372,20.542118 9.9009897,20.397707 9.5582598,20.253297 9.2375634,20.083706 8.934181,19.894327 L 7.3431908,21.485317 4.5147636,18.65689 6.1057539,17.0659 C 5.6359265,16.41572 5.4209228,15.712452 5.25,15 H 3 V 11 H 5.25 C 5.4265112,10.151915 5.7411177,9.5063701 6.1057089,8.934136 L 4.5147186,7.3431458 7.3431458,4.5147186 8.934136,6.1057089 C 9.5116409,5.7994505 9.9803461,5.4726083 11,5.25 V 3 h 4"
         id="path4423" />
      <ellipse
         style="fill:none;fill-opacity:1;fill-rule:evenodd;stroke:none;stroke-width:1.00233071;stroke-linecap:round;stroke-linejoin:round;stroke-miterlimit:3.8;stroke-dasharray:none;stroke-dashoffset:4.6719;stroke-opacity:1"
         id="path4526"
         cx="13"
         cy="13"
         ry="3.9496007"
         rx="3.9496005" />
    </g>
  </g>
  <path
     style="fill:#ffffff;fill-opacity:1;fill-rule:evenodd;stroke:none;stroke-width:0.0253402;stroke-linecap:round;stroke-linejoin:round;stroke-miterlimit:3.8;stroke-dasharray:none;stroke-dashoffset:4.6719;stroke-opacity:1;paint-order:markers fill stroke"
     d="m 8.4623378,16.802553 -5.62e-4,-0.862722 -0.7799971,-0.320668 c -0.428998,-0.176367 -0.7946403,-0.320565 -0.8125379,-0.32044 -0.017898,1.32e-4 -0.302657,0.270048 -0.6327985,0.599828 L 5.6361851,16.49815 4.5673134,15.429279 3.4984417,14.360407 4.1087025,13.752643 4.7189632,13.144878 4.5542835,12.870877 C 4.3650944,12.556095 4.220841,12.200877 4.1192181,11.799543 L 4.048283,11.519403 H 3.182655 2.3170269 V 9.9911516 8.4628998 H 3.1866994 4.0563718 L 4.0922927,8.3232209 C 4.21264,7.8552491 4.4216446,7.3356774 4.6112023,7.0332449 L 4.7141994,6.8689167 4.1072592,6.2606511 3.500319,5.6523856 4.5768623,4.576213 5.6534057,3.5000404 6.256139,4.1034352 6.8588727,4.70683 7.2911481,4.4888001 C 7.5288993,4.3688837 7.8898054,4.2195622 8.0931615,4.1569747 L 8.4628998,4.0431791 V 3.180103 2.3170269 h 1.5282518 1.5282514 v 0.8628067 0.8628066 l 0.427199,0.1439432 c 0.23496,0.079169 0.601001,0.2302054 0.813425,0.335637 l 0.386225,0.1916939 0.608267,-0.6067991 0.608267,-0.6067991 1.067619,1.0679979 1.067619,1.067998 -0.605528,0.6061917 -0.605527,0.6061915 0.188184,0.3621904 c 0.103501,0.1992048 0.252838,0.5587035 0.33186,0.7988859 l 0.143676,0.4366955 0.857294,0.00876 0.857293,0.00876 v 1.5277059 1.5277061 h -0.855537 c -0.656109,0 -0.858341,0.0096 -0.86756,0.04108 -0.0066,0.0226 -0.04621,0.166794 -0.088,0.32044 -0.04202,0.154504 -0.184377,0.498242 -0.318513,0.769105 l -0.242531,0.489747 0.60251,0.603171 0.602509,0.60317 -1.076016,1.076016 -1.076016,1.076016 -0.604537,-0.603874 -0.604537,-0.603875 -0.425255,0.212635 c -0.35176,0.175886 -0.611695,0.274932 -1.151304,0.438697 -0.03149,0.0096 -0.04108,0.212135 -0.04108,0.868006 V 17.66527 H 9.9911516 8.4628998 Z M 10.812792,12.983412 C 11.360322,12.823731 11.73459,12.61469 12.10662,12.260764 13.272534,11.151589 13.423909,9.4176289 12.467459,8.1274367 11.658516,7.0362215 10.143789,6.6138344 8.8597743,7.1214201 8.444313,7.2856565 8.1743185,7.4674354 7.8208769,7.8208769 7.3502973,8.2914569 7.0905464,8.766193 6.9652127,9.3847406 c -0.082112,0.4052375 -0.052161,1.0976014 0.06433,1.4870974 0.1528426,0.511042 0.3869842,0.906473 0.7590583,1.28194 0.487796,0.492245 1.004447,0.769433 1.6714937,0.896773 0.3683409,0.07032 0.9865953,0.03963 1.3526973,-0.06714 z"
     id="path11428"
     transform="scale(0.26458333)" />
</svg>
