<?xml version="1.0" encoding="utf-8"?>
<!-- Generator: Adobe Illustrator 15.1.0, SVG Export Plug-In  -->
<!DOCTYPE svg PUBLIC "-//W3C//DTD SVG 1.1//EN" "http://www.w3.org/Graphics/SVG/1.1/DTD/svg11.dtd" [
	<!ENTITY ns_flows "http://ns.adobe.com/Flows/1.0/">
]>
<svg version="1.1"
	 xmlns="http://www.w3.org/2000/svg" xmlns:xlink="http://www.w3.org/1999/xlink" xmlns:a="http://ns.adobe.com/AdobeSVGViewerExtensions/3.0/"
	 x="0px" y="0px" width="107px" height="107px" viewBox="-17.174 -24.39 107 107"
	 overflow="visible" enable-background="new -17.174 -24.39 107 107" xml:space="preserve">
<defs>
</defs>
<g>
	<linearGradient id="SVGID_1_" gradientUnits="userSpaceOnUse" x1="12.2129" y1="39.3477" x2="59.75" y2="39.3477">
		<stop  offset="0" style="stop-color:#898989"/>
		<stop  offset="0.0798" style="stop-color:#58585A"/>
		<stop  offset="0.4447" style="stop-color:#474749"/>
		<stop  offset="0.7853" style="stop-color:#3D3D3F"/>
		<stop  offset="0.8232" style="stop-color:#464648"/>
		<stop  offset="0.8857" style="stop-color:#5F5F61"/>
		<stop  offset="0.9646" style="stop-color:#87888A"/>
		<stop  offset="1" style="stop-color:#9B9C9E"/>
	</linearGradient>
	<path fill="url(#SVGID_1_)" d="M59.45,37.001l-1.48-9.818l-44.251,1.82l-1.206,7.998c-0.195,0.645-0.3,1.307-0.3,1.981
		c0,6.921,10.642,12.53,23.769,12.53s23.769-5.609,23.769-12.53C59.75,38.308,59.646,37.646,59.45,37.001z"/>
	<linearGradient id="SVGID_2_" gradientUnits="userSpaceOnUse" x1="13.1631" y1="38.3486" x2="58.7988" y2="38.3486">
		<stop  offset="0" style="stop-color:#898989"/>
		<stop  offset="0.0859" style="stop-color:#676769"/>
		<stop  offset="0.268" style="stop-color:#616163"/>
		<stop  offset="0.4049" style="stop-color:#58585A"/>
		<stop  offset="0.908" style="stop-color:#676769"/>
		<stop  offset="0.9389" style="stop-color:#6D6D6F"/>
		<stop  offset="0.9815" style="stop-color:#7F7F80"/>
		<stop  offset="1" style="stop-color:#898989"/>
	</linearGradient>
	<path fill="url(#SVGID_2_)" d="M58.512,36.071l-1.422-9.523l-42.48,1.766l-1.158,7.758c-0.188,0.625-0.288,1.268-0.288,1.922
		c0,6.713,10.217,12.155,22.818,12.155s22.817-5.442,22.817-12.155C58.799,37.339,58.699,36.696,58.512,36.071z"/>
</g>
<linearGradient id="SVGID_3_" gradientUnits="userSpaceOnUse" x1="13.3369" y1="31.8486" x2="58.6104" y2="31.8486">
	<stop  offset="0" style="stop-color:#898989"/>
	<stop  offset="0.0859" style="stop-color:#3D3D3F"/>
	<stop  offset="0.39" style="stop-color:#434345"/>
	<stop  offset="0.8089" style="stop-color:#555557"/>
	<stop  offset="0.865" style="stop-color:#58585A"/>
	<stop  offset="1" style="stop-color:#58585A"/>
</linearGradient>
<path fill="url(#SVGID_3_)" d="M13.337,31.536c2,0.104,6.124,4.434,12.807,6.387c6.149,1.796,12.109,2.05,17.251,0
	c8.431-3.361,13.344-8.442,15.216-6.49l-1-7.102H14.455L13.337,31.536z"/>
<polygon fill="#4C4C4C" points="36.026,31.402 35.981,31.382 35.981,36.613 36.034,36.638 72.053,19.763 72.053,17.504 
	67.232,17.504 "/>
<polygon fill="#58585A" points="35.981,31.382 4.822,17.504 0,17.504 0,19.763 35.981,36.613 "/>
<g>
	<polygon fill="#B0B2B3" points="36.034,0.628 0,17.504 36.034,34.38 72.053,17.504 	"/>
	<linearGradient id="SVGID_4_" gradientUnits="userSpaceOnUse" x1="0" y1="17.5039" x2="72.0527" y2="17.5039">
		<stop  offset="0" style="stop-color:#676769"/>
		<stop  offset="0.3361" style="stop-color:#6D6D6F"/>
		<stop  offset="0.799" style="stop-color:#7F7F80"/>
		<stop  offset="1" style="stop-color:#898989"/>
	</linearGradient>
	<polygon fill="url(#SVGID_4_)" points="36.034,0.628 0,17.504 36.034,34.38 72.053,17.504 	"/>
</g>
<linearGradient id="SVGID_5_" gradientUnits="userSpaceOnUse" x1="0" y1="25.5254" x2="72.0527" y2="25.5254">
	<stop  offset="0" style="stop-color:#58585A"/>
	<stop  offset="0.2484" style="stop-color:#5B5B5D"/>
	<stop  offset="0.4496" style="stop-color:#656567"/>
	<stop  offset="0.6342" style="stop-color:#767678"/>
	<stop  offset="0.8089" style="stop-color:#8D8E90"/>
	<stop  offset="0.9752" style="stop-color:#ABADAE"/>
	<stop  offset="1" style="stop-color:#B0B2B3"/>
</linearGradient>
<polygon fill="url(#SVGID_5_)" points="71.615,16.671 72.053,17.504 36.034,34.38 0,17.504 0.438,16.671 "/>
<g>
	<polygon fill="#B0B2B3" points="36.034,0 0.438,16.671 36.034,33.341 71.615,16.671 	"/>
	<linearGradient id="SVGID_6_" gradientUnits="userSpaceOnUse" x1="0.4375" y1="16.6704" x2="71.6152" y2="16.6704">
		<stop  offset="0" style="stop-color:#3D3D3F"/>
		<stop  offset="0.1996" style="stop-color:#434345"/>
		<stop  offset="0.4751" style="stop-color:#555556"/>
		<stop  offset="0.7934" style="stop-color:#727273"/>
		<stop  offset="1" style="stop-color:#898989"/>
	</linearGradient>
	<polygon fill="url(#SVGID_6_)" points="36.034,0 0.438,16.671 36.034,33.341 71.615,16.671 	"/>
</g>
<polyline fill="none" stroke="#F4CC4D" stroke-width="2" stroke-linecap="round" stroke-linejoin="round" stroke-miterlimit="10" points="
	37.981,15.245 17.606,24.812 17.606,40.544 "/>
<g>
	<path fill="#C2981E" d="M20.072,38.685H15.14l-2.854,15.502c0,0.743,2.381,2.803,5.32,2.803c2.938,0,5.32-2.06,5.32-2.803
		L20.072,38.685z"/>
	<linearGradient id="SVGID_7_" gradientUnits="userSpaceOnUse" x1="16.2759" y1="47.8516" x2="20.8228" y2="47.5343">
		<stop  offset="0.5031" style="stop-color:#F4CC4D"/>
		<stop  offset="0.6585" style="stop-color:#EEC649"/>
		<stop  offset="0.8725" style="stop-color:#DCB43E"/>
		<stop  offset="1" style="stop-color:#CEA636"/>
	</linearGradient>
	<path fill="url(#SVGID_7_)" d="M20.072,38.685H15.14l-2.854,15.502c0,0.743,2.381,2.803,5.32,2.803c2.938,0,5.32-2.06,5.32-2.803
		L20.072,38.685z"/>
</g>
<linearGradient id="SVGID_8_" gradientUnits="userSpaceOnUse" x1="18.2104" y1="44.4365" x2="20.937" y2="51.7485">
	<stop  offset="0" style="stop-color:#EAC049"/>
	<stop  offset="0.3765" style="stop-color:#E4BA45"/>
	<stop  offset="0.8952" style="stop-color:#D2AA39"/>
	<stop  offset="0.9877" style="stop-color:#CEA636"/>
</linearGradient>
<polygon fill="url(#SVGID_8_)" points="20.535,56.606 18.673,41.413 19.269,41.341 21.131,56.533 "/>
<linearGradient id="SVGID_9_" gradientUnits="userSpaceOnUse" x1="19.7891" y1="45.0312" x2="22.4774" y2="51.315">
	<stop  offset="0" style="stop-color:#CEA636"/>
	<stop  offset="0.416" style="stop-color:#CBA230"/>
	<stop  offset="0.9877" style="stop-color:#C2981E"/>
</linearGradient>
<polygon fill="url(#SVGID_9_)" points="22.019,55.55 19.634,40.843 20.226,40.747 22.61,55.454 "/>
<path fill="#B79537" d="M20.384,40.379c-0.584,0.987-1.588,1.745-2.814,1.745c-1.229,0-2.188-0.593-2.771-1.58l0.172-1.494
	l5.169-0.275L20.384,40.379z"/>
<radialGradient id="SVGID_10_" cx="16.71" cy="36.7051" r="5.0908" gradientUnits="userSpaceOnUse">
	<stop  offset="0.5031" style="stop-color:#F4CC4D"/>
	<stop  offset="0.6585" style="stop-color:#EEC649"/>
	<stop  offset="0.8725" style="stop-color:#DCB43E"/>
	<stop  offset="1" style="stop-color:#CEA636"/>
</radialGradient>
<circle fill="url(#SVGID_10_)" cx="17.606" cy="38.685" r="2.923"/>
<g>
	<path fill="#B79537" d="M17.606,56.989c-2.939,0-5.32-2.06-5.32-2.803v0.799c0,0.742,2.381,2.803,5.32,2.803
		c2.938,0,5.32-2.061,5.32-2.803v-0.799C22.927,54.93,20.545,56.989,17.606,56.989z"/>
	<linearGradient id="SVGID_11_" gradientUnits="userSpaceOnUse" x1="13.0371" y1="56.083" x2="22.2794" y2="55.6343">
		<stop  offset="0" style="stop-color:#F4CC4D"/>
		<stop  offset="0.2114" style="stop-color:#EEC647"/>
		<stop  offset="0.5031" style="stop-color:#DDB437"/>
		<stop  offset="0.8282" style="stop-color:#C2981E"/>
		<stop  offset="0.9877" style="stop-color:#D3A522"/>
	</linearGradient>
	<path fill="url(#SVGID_11_)" d="M17.606,56.989c-2.939,0-5.32-2.06-5.32-2.803v0.799c0,0.742,2.381,2.803,5.32,2.803
		c2.938,0,5.32-2.061,5.32-2.803v-0.799C22.927,54.93,20.545,56.989,17.606,56.989z"/>
</g>
</svg>
