<?xml version="1.0" encoding="UTF-8" standalone="no"?>
<!-- Generator: Adobe Illustrator 15.0.0, SVG Export Plug-In  -->

<svg
   version="1.2"
   x="0px"
   y="0px"
   width="96px"
   height="96px"
   viewBox="-14.375 -5.215 96 96"
   overflow="visible"
   xml:space="preserve"
   id="svg432"
   sodipodi:docname="trash-delete-document.svg"
   inkscape:version="1.1.2 (0a00cf5339, 2022-02-04)"
   xmlns:inkscape="http://www.inkscape.org/namespaces/inkscape"
   xmlns:sodipodi="http://sodipodi.sourceforge.net/DTD/sodipodi-0.dtd"
   xmlns:xlink="http://www.w3.org/1999/xlink"
   xmlns="http://www.w3.org/2000/svg"
   xmlns:svg="http://www.w3.org/2000/svg"
   xmlns:rdf="http://www.w3.org/1999/02/22-rdf-syntax-ns#"
   xmlns:cc="http://creativecommons.org/ns#"
   xmlns:a="http://ns.adobe.com/AdobeSVGViewerExtensions/3.0/"><sodipodi:namedview
   id="namedview434"
   pagecolor="#ffffff"
   bordercolor="#000000"
   borderopacity="0"
   inkscape:showpageshadow="2"
   inkscape:pageopacity="0.0"
   inkscape:pagecheckerboard="true"
   inkscape:deskcolor="#d1d1d1"
   showgrid="true"
   inkscape:zoom="5.6568544"
   inkscape:cx="19.975766"
   inkscape:cy="15.46796"
   inkscape:window-width="1920"
   inkscape:window-height="1003"
   inkscape:window-x="0"
   inkscape:window-y="0"
   inkscape:window-maximized="1"
   inkscape:current-layer="svg432"
   shape-rendering="crispEdges"
   inkscape:pageshadow="0"
   inkscape:snap-global="true"
   inkscape:snap-bbox="true"><inkscape:grid
     type="xygrid"
     id="grid4425" /></sodipodi:namedview>
<defs
   id="defs2"><linearGradient
     inkscape:collect="always"
     id="linearGradient4432"><stop
       style="stop-color:#e0832f;stop-opacity:1"
       offset="0"
       id="stop4428" /><stop
       style="stop-color:#f2d55e;stop-opacity:1"
       offset="1"
       id="stop4430" /></linearGradient><linearGradient
     inkscape:collect="always"
     id="linearGradient8756"><stop
       style="stop-color:#6a6a6c;stop-opacity:1;"
       offset="0"
       id="stop8752" /><stop
       style="stop-color:#afb0b1;stop-opacity:1;"
       offset="1"
       id="stop8754" /></linearGradient><linearGradient
     inkscape:collect="always"
     id="bevel"><stop
       style="stop-color:#c8c8cc;stop-opacity:1;"
       offset="0"
       id="stop4336" /><stop
       style="stop-color:#6f7072;stop-opacity:1;"
       offset="1"
       id="stop4338" /></linearGradient><linearGradient
     inkscape:collect="always"
     xlink:href="#bevel"
     id="linearGradient3019"
     x1="23.575415"
     y1="107.64565"
     x2="20.057384"
     y2="70.918808"
     gradientUnits="userSpaceOnUse"
     gradientTransform="translate(-5.3058472,-36.962622)" /><linearGradient
     inkscape:collect="always"
     xlink:href="#bevel"
     id="linearGradient3021"
     x1="39.075352"
     y1="109.22163"
     x2="38.981522"
     y2="71.874733"
     gradientUnits="userSpaceOnUse"
     gradientTransform="translate(-5.3058472,-37.79242)" /><linearGradient
     inkscape:collect="always"
     xlink:href="#bevel"
     id="linearGradient4342"
     gradientUnits="userSpaceOnUse"
     x1="54.598053"
     y1="107.699"
     x2="58.201073"
     y2="70.384377"
     gradientTransform="translate(-5.3058472,-36.816366)" /><linearGradient
     inkscape:collect="always"
     xlink:href="#linearGradient8756"
     id="linearGradient8758"
     x1="32.552113"
     y1="21.543194"
     x2="32.488987"
     y2="14.059519"
     gradientUnits="userSpaceOnUse"
     gradientTransform="translate(0.34479141,-6.7010816)" /><linearGradient
     id="SVGID_1_-3"
     gradientUnits="userSpaceOnUse"
     x1="63.4995"
     y1="24.502399"
     x2="63.4995"
     y2="101.9506"
     gradientTransform="matrix(1.0860908,0,0,1,32.900174,-33.864014)"><stop
       offset="0"
       style="stop-color:#FCFCFC"
       id="stop4" /><stop
       offset="1"
       style="stop-color:#E6E6E6"
       id="stop6-6" /><a:midPointStop
       offset="0"
       style="stop-color:#FCFCFC" /><a:midPointStop
       offset="0.5"
       style="stop-color:#FCFCFC" /><a:midPointStop
       offset="1"
       style="stop-color:#E6E6E6" /></linearGradient><filter
     inkscape:collect="always"
     style="color-interpolation-filters:sRGB"
     id="filter1048"
     x="-0.029090904"
     y="-0.028602066"
     width="1.0690121"
     height="1.0678525"
     inkscape:label="shadowFilter"><feGaussianBlur
       inkscape:collect="always"
       stdDeviation="1.1191913"
       id="feGaussianBlur1050" /><feOffset
       dx="1"
       dy="1"
       id="feOffset876" /></filter><linearGradient
     inkscape:collect="always"
     xlink:href="#gradientStylusHolder"
     id="linearGradient11809"
     x1="110.36134"
     y1="192.05977"
     x2="117.9259"
     y2="192.05977"
     gradientUnits="userSpaceOnUse"
     gradientTransform="matrix(0.3077232,0,0,0.3077232,120.76812,143.13922)" /><linearGradient
     inkscape:collect="always"
     id="gradientStylusHolder"><stop
       style="stop-color:#a7a7a7;stop-opacity:1;"
       offset="0"
       id="stop9704" /><stop
       style="stop-color:#212121;stop-opacity:1"
       offset="1"
       id="stop9706" /></linearGradient><filter
     inkscape:collect="always"
     style="color-interpolation-filters:sRGB"
     id="filter12705-7"
     x="-0.12427052"
     y="-0.099978448"
     width="1.248541"
     height="1.1999569"
     inkscape:label="filterBottomGlare"><feGaussianBlur
       inkscape:collect="always"
       stdDeviation="0.27371099"
       id="feGaussianBlur12707-6" /></filter><linearGradient
     inkscape:collect="always"
     xlink:href="#gradientBody"
     id="linearGradient12481"
     x1="113.45532"
     y1="190.96683"
     x2="118.70955"
     y2="190.96683"
     gradientUnits="userSpaceOnUse"
     gradientTransform="matrix(0.3077232,0,0,0.3077232,120.76812,143.13922)" /><linearGradient
     inkscape:collect="always"
     id="gradientBody"><stop
       style="stop-color:#f8e20a;stop-opacity:1;"
       offset="0"
       id="stop6588" /><stop
       style="stop-color:#a79907;stop-opacity:1;"
       offset="1"
       id="stop6590" /></linearGradient><linearGradient
     inkscape:collect="always"
     xlink:href="#gradientButtonAndPin"
     id="linearGradient8002"
     gradientUnits="userSpaceOnUse"
     gradientTransform="matrix(0.22058068,0,0,0.22058068,225.38794,0.08238655)"
     x1="115.95115"
     y1="174.19702"
     x2="121.0631"
     y2="174.19702" /><linearGradient
     inkscape:collect="always"
     id="gradientButtonAndPin"><stop
       style="stop-color:#ffffff;stop-opacity:1"
       offset="0"
       id="stop6886" /><stop
       style="stop-color:#767676;stop-opacity:1"
       offset="1"
       id="stop6888" /></linearGradient><linearGradient
     inkscape:collect="always"
     xlink:href="#linearGradient10476"
     id="linearGradient6594-9"
     x1="106.14433"
     y1="128.42783"
     x2="108.69588"
     y2="130.97939"
     gradientUnits="userSpaceOnUse"
     gradientTransform="matrix(0.3077232,0,0,0.3077232,126.44178,159.50234)" /><linearGradient
     inkscape:collect="always"
     id="linearGradient10476"><stop
       style="stop-color:#f8e20a;stop-opacity:1;"
       offset="0"
       id="stop10472" /><stop
       style="stop-color:#716705;stop-opacity:1;"
       offset="1"
       id="stop10474" /></linearGradient><filter
     inkscape:collect="always"
     style="color-interpolation-filters:sRGB"
     id="filter40862-5"
     x="-0.036175182"
     y="-0.037975627"
     width="1.0723504"
     height="1.0759513"
     inkscape:label="filterTopGlare"><feGaussianBlur
       inkscape:collect="always"
       stdDeviation="0.23570633"
       id="feGaussianBlur40864-4" /></filter><linearGradient
     inkscape:collect="always"
     xlink:href="#linearGradient4432"
     id="linearGradient4434"
     x1="59.125"
     y1="39.414883"
     x2="102.11523"
     y2="39.414883"
     gradientUnits="userSpaceOnUse"
     gradientTransform="rotate(-46.768349,35.311456,91.193627)" /></defs>

<linearGradient
   id="SVGID_1_"
   gradientUnits="userSpaceOnUse"
   x1="0.75"
   y1="15.5117"
   x2="66.5"
   y2="15.5117"
   gradientTransform="translate(0,3.0052039)">
	<stop
   offset="0"
   style="stop-color:#FFFFFF"
   id="stop6" />
	<stop
   offset="0.0613"
   style="stop-color:#D9D9DA"
   id="stop8" />
	<stop
   offset="0.546"
   style="stop-color:#F6F5F6"
   id="stop10" />
	<stop
   offset="0.9509"
   style="stop-color:#C5C6C8"
   id="stop12" />
	<stop
   offset="1"
   style="stop-color:#FFFFFF"
   id="stop14" />
</linearGradient>






<linearGradient
   id="SVGID_2_"
   gradientUnits="userSpaceOnUse"
   x1="2.6221"
   y1="20.394"
   x2="64.627"
   y2="20.394"
   gradientTransform="translate(0,3.0052039)">
	<stop
   offset="0"
   style="stop-color:#88888A"
   id="stop29" />
	<stop
   offset="0.546"
   style="stop-color:#C8C8CC"
   id="stop31" />
	<stop
   offset="1"
   style="stop-color:#88888A"
   id="stop33" />
</linearGradient>




<g
   id="g4510"
   inkscape:label="trash"
   transform="translate(0,8)"
   sodipodi:insensitive="true"
   style="display:inline"><g
     id="g4523"
     inkscape:label="miniTrash"><path
       style="opacity:1;fill:#dfdfe1;fill-opacity:1;stroke-width:0.8;stroke-linecap:round;stroke-opacity:0.7"
       d="M 3.6510574,20.731323 10.83377,75.049562 c 8.263588,7.51989 41.566317,7.157627 45.724368,-1.194876 l 7.041508,-53.080072 c -17.866076,5.46897 -47.589337,5.03122 -59.9485886,-0.04329 z"
       id="path992"
       sodipodi:nodetypes="ccccc"
       inkscape:label="basecolor" /><path
       fill="url(#SVGID_1_)"
       d="m 66.5,11.535206 c 0,3.708003 -14.719,6.716003 -32.875,6.716003 -18.156,0 -32.875,-3.007 -32.875,-6.716003 v 7.248003 c 0,3.709 14.719,6.715 32.875,6.715 18.156,0 32.875,-3.006 32.875,-6.715 z"
       id="path17"
       style="display:inline;fill:url(#SVGID_1_)"
       inkscape:label="gradientTop" /><path
       fill="#ffffff"
       d="m 33.625,4.4042039 c -18.156,0 -32.875,2.428 -32.875,7.1310021 0,3.708003 14.719,6.716003 32.875,6.716003 18.156,0 32.875,-3.007 32.875,-6.716003 0,-3.7090021 -14.719,-7.1310021 -32.875,-7.1310021 z m 0,11.2000051 c -15.589,0 -28.226,-1.917 -28.226,-4.280003 0,-2.3630022 12.637,-4.3380021 28.226,-4.3380021 15.589,0 28.226,1.9749999 28.226,4.3380021 0,2.363003 -12.637,4.280003 -28.226,4.280003 z"
       id="path21"
       style="display:inline"
       inkscape:label="top" /><polygon
       fill="#ffffff"
       points="6.784,20.331 13.015,74.863 10.117,71.202 2.824,18.249 "
       id="polygon23"
       style="display:inline"
       inkscape:label="glare"
       transform="translate(0,3.0052039)" /><path
       fill="#bebfc4"
       d="m 33.625,29.836209 c -13.782,0 -25.052,-1.287 -30.104,-3.941 l -0.202,-3.942 c 4.778,2.511 16.957,4.198 30.306,4.198 13.35,0 25.528,-1.687 30.305,-4.197 l 0.155,3.781 c -5.049,2.654 -16.677,4.101 -30.46,4.101 z"
       id="path25"
       inkscape:label="shadow" /><path
       fill="none"
       stroke="#88888a"
       stroke-width="1.5"
       stroke-miterlimit="10"
       d="m 57.347,73.555209 c -0.784,4.246 -10.604,7.605 -23.722,7.605 -13.118,0 -23.083,-3.223 -23.75,-7.82 l -6.904,-52.126 c -1.434,-0.753 -2.221,-1.573 -2.221,-2.431 v -7.248003 c 0,-5.2660021 14.719,-7.7800021 32.875,-7.7800021 18.156,0 32.875,2.89 32.875,7.7800021 v 7.248003 c 0,0.857 -0.787,1.678 -2.222,2.432 z"
       id="path27"
       style="display:inline"
       inkscape:label="border" /><path
       fill="url(#SVGID_2_)"
       d="m 33.625,26.248209 c -13.782,0 -25.951,-1.715 -31.003,-4.37 l 0.697,-1.328 c 4.778,2.511 16.957,4.198 30.306,4.198 13.35,0 25.528,-1.687 30.305,-4.197 l 0.697,1.328 c -5.049,2.654 -17.219,4.369 -31.002,4.369 z"
       id="path36"
       style="display:inline;fill:url(#SVGID_2_)"
       inkscape:label="borderTop" /><path
       id="rect2097"
       style="opacity:0.829701;fill:url(#linearGradient3021);fill-opacity:1;stroke-width:0.825659;stroke-linecap:round;stroke-opacity:0.7"
       d="m 33.67282,33.989832 c -1.449962,0 -2.660156,1.24463 -2.660156,2.734375 V 68.77889 c -0.0034,0.0549 -0.0059,0.11015 -0.0059,0.16602 0,1.48974 1.210193,2.73242 2.660156,2.73242 1.426345,0 2.619664,-1.2028 2.658203,-2.66016 h 0.0078 V 36.724207 c 0,-1.489745 -1.210193,-2.734375 -2.660156,-2.734375 z"
       inkscape:label="bevel" /><path
       id="path2986"
       style="opacity:0.829701;fill:url(#linearGradient4342);fill-opacity:1;stroke-width:0.725292;stroke-linecap:round;stroke-opacity:0.7"
       d="m 52.824454,33.998334 c -1.132123,-0.117767 -2.188718,1.00239 -2.322394,2.460796 l -2.876287,31.380364 c -0.0076,0.0535 -0.0145,0.10735 -0.0195,0.16204 -0.133675,1.45841 0.699732,2.77324 1.831857,2.891 1.113682,0.11585 2.15335,-0.96473 2.31421,-2.3883 l 0.0062,6.5e-4 2.897668,-31.613637 c 0.133675,-1.458404 -0.699557,-2.775143 -1.831682,-2.89291 z"
       inkscape:label="bevel" /><path
       id="path2988"
       style="opacity:0.829701;fill:url(#linearGradient3019);fill-opacity:1;stroke-width:0.725292;stroke-linecap:round;stroke-opacity:0.7"
       d="m 14.73579,33.998334 c 1.132123,-0.117767 2.188718,1.00239 2.322394,2.460796 l 2.876287,31.380358 c 0.0076,0.0535 0.0145,0.10736 0.0195,0.16205 0.133675,1.4584 -0.699732,2.77323 -1.831857,2.891 -1.113682,0.11585 -2.15335,-0.96474 -2.31421,-2.3883 l -0.0062,6.4e-4 -2.897668,-31.613631 c -0.133675,-1.458404 0.699557,-2.775143 1.831682,-2.89291 z"
       inkscape:label="bevel" /><path
       id="path5439"
       style="opacity:0.829701;fill:url(#linearGradient8758);fill-opacity:1;stroke-width:0.858188;stroke-linecap:round;stroke-opacity:0.7"
       d="m 59.951217,11.354595 c -0.103652,2.894674 -12.184349,4.338159 -27.214504,4.338159 -15.030155,0 -27.1319211,-2.042425 -27.2145038,-4.338159 C 5.4286482,8.7536724 17.706557,7.0164394 32.736713,7.0164394 c 15.030156,0 27.324659,1.2618596 27.214504,4.3381556 z"
       sodipodi:nodetypes="sssss"
       inkscape:label="hole" /></g></g><metadata
   id="metadata4423"><rdf:RDF><cc:Work
       rdf:about=""><cc:license
         rdf:resource="http://creativecommons.org/publicdomain/zero/1.0/" /></cc:Work><cc:License
       rdf:about="http://creativecommons.org/publicdomain/zero/1.0/"><cc:permits
         rdf:resource="http://creativecommons.org/ns#Reproduction" /><cc:permits
         rdf:resource="http://creativecommons.org/ns#Distribution" /><cc:permits
         rdf:resource="http://creativecommons.org/ns#DerivativeWorks" /></cc:License></rdf:RDF></metadata><g
   id="Layer_2"
   transform="matrix(0.43821831,0,0,0.43821831,10.278071,22.721477)"
   sodipodi:insensitive="true"
   style="display:inline"><linearGradient
     id="linearGradient905"
     gradientUnits="userSpaceOnUse"
     x1="63.4995"
     y1="24.502399"
     x2="63.4995"
     y2="101.9506"
     gradientTransform="matrix(1.0860908,0,0,1,-4.966225,0.3655)"><stop
       offset="0"
       style="stop-color:#FCFCFC"
       id="stop901" /><stop
       offset="1"
       style="stop-color:#E6E6E6"
       id="stop903" /><a:midPointStop
       offset="0"
       style="stop-color:#FCFCFC" /><a:midPointStop
       offset="0.5"
       style="stop-color:#FCFCFC" /><a:midPointStop
       offset="1"
       style="stop-color:#E6E6E6" /></linearGradient><linearGradient
     id="SVGID_2_-7"
     gradientUnits="userSpaceOnUse"
     x1="66.128899"
     y1="104.8428"
     x2="66.128899"
     y2="77.002197"><stop
       offset="0"
       style="stop-color:#E0E0E0"
       id="stop11" /><stop
       offset="1"
       style="stop-color:#999999"
       id="stop13" /><a:midPointStop
       offset="0"
       style="stop-color:#E0E0E0" /><a:midPointStop
       offset="0.5"
       style="stop-color:#E0E0E0" /><a:midPointStop
       offset="1"
       style="stop-color:#999999" /></linearGradient><g
     id="g4146"
     inkscape:label="board"><path
       fill="url(#SVGID_1_)"
       d="M 146.83761,68.603986 H 56.893006 c -6.722902,0 -12.193541,-5.038 -12.193541,-11.231 V 2.1639864 c 0,-6.191 5.469553,-11.227 12.193541,-11.227 h 89.944604 c 6.7229,0 12.19572,5.036 12.19572,11.227 V 57.371986 c 0,6.194 -5.47173,11.232 -12.19572,11.232 z"
       id="path9"
       style="fill:url(#SVGID_1_-3);stroke-width:1.04216" /><path
       fill="#ffffff"
       d="m 146.83761,-11.672014 c 8.28579,0 15.02824,6.2070004 15.02824,13.8360004 V 57.371986 c 0,7.633 -6.74245,13.84 -15.02824,13.84 H 56.893006 c -8.285786,0 -15.027152,-6.207 -15.027152,-13.84 V 2.1639864 c 0,-7.629 6.741366,-13.8360004 15.027152,-13.8360004 h 89.944604 m 0,5.2200004 H 56.893006 c -5.160017,0 -9.357758,3.865 -9.357758,8.616 V 57.371986 c 0,4.753 4.197741,8.619 9.357758,8.619 h 89.944604 c 5.16002,0 9.35885,-3.866 9.35885,-8.619 V 2.1639864 c 0,-4.751 -4.19883,-8.616 -9.35885,-8.616 z"
       id="path18"
       style="stroke-width:1.04216" /><path
       fill="#B0B9C4"
       d="m 146.83761,-11.672014 c 8.28579,0 15.02824,6.2070004 15.02824,13.8360004 V 57.371986 c 0,7.633 -6.74245,13.84 -15.02824,13.84 H 56.893006 c -8.285786,0 -15.027152,-6.207 -15.027152,-13.84 V 2.1639864 c 0,-7.629 6.741366,-13.8360004 15.027152,-13.8360004 h 89.944604 m 0,3.4800004 H 56.893006 c -6.201578,0 -11.247556,4.646 -11.247556,10.356 V 57.371986 c 0,5.713 5.045978,10.359 11.247556,10.359 h 89.944604 c 6.20267,0 11.24864,-4.646 11.24864,-10.359 V 2.1639864 c 0.001,-5.71 -5.04597,-10.356 -11.24864,-10.356 z"
       id="path20"
       style="fill:#88888a;fill-opacity:1;stroke-width:1.04216" /><rect
       style="fill:#949494;fill-opacity:1;stroke-width:1.21848;stroke-linecap:round;stroke-linejoin:round;stroke-dashoffset:0.2826;paint-order:markers fill stroke"
       id="rect3262"
       width="12"
       height="59.999996"
       x="54.866398"
       y="-0.22951356"
       ry="1.5359807" /><rect
       style="fill:#bebfbf;fill-opacity:1;stroke-width:0.875838;stroke-linecap:round;stroke-linejoin:round;stroke-dashoffset:0.2826;paint-order:markers fill stroke"
       id="rect5701"
       width="12"
       height="31"
       x="54.866398"
       y="-0.22951356"
       ry="0.79359007" /><g
       id="g1275"
       inkscape:label="penArrow"
       transform="matrix(9.8343419,0,0,9.8343419,-1441.6689,-1935.8736)"><path
         id="path1011"
         style="display:inline;mix-blend-mode:normal;fill:#333333;fill-opacity:1;stroke:none;stroke-width:1.09112px;stroke-linecap:butt;stroke-linejoin:miter;stroke-opacity:1;filter:url(#filter1048)"
         d="m -25.039062,2.1191406 c -0.369462,-5.738e-4 -0.656163,0.096083 -0.839844,0.3007813 l -5.169922,5.7597656 c -0.0805,0.089709 -0.137721,0.1971749 -0.173828,0.3203125 -1.215346,-0.2757137 -2.344201,-0.1217399 -3.638672,0.5761719 l -57.369141,56.3828121 -0.955078,2.976563 c -10.707303,11.355449 -11.801823,20.604589 -11.703123,24.427734 l -1.03711,3.066407 c 0,0 0.43852,0.60109 3.07031,-1.132813 11.743344,-0.236 21.551721,-9.1771 25.111329,-12.871094 l 0.0039,-0.002 2.388672,-1.167969 56.371093,-59.539062 c -0.0072,-0.616662 -0.119796,-1.290586 -0.324219,-1.992188 0.128604,-0.04964 0.236596,-0.121324 0.322266,-0.216797 L -13.812507,13.248 c 0.904276,-1.007746 -1.05999,-4.2351957 -4.402344,-7.2343751 -2.663438,-2.3899711 -5.374792,-3.8922799 -6.824218,-3.8945313 z"
         transform="matrix(0.08141844,0,0,0.08141844,163.26923,195.84286)"
         inkscape:label="shadow" /><path
         style="display:inline;fill:url(#linearGradient11809);fill-opacity:1;stroke:none;stroke-width:0.0888376px;stroke-linecap:butt;stroke-linejoin:miter;stroke-opacity:1"
         d="m 154.74447,203.55833 c 0,0 -0.22694,-0.98201 1.05103,-2.26009 1.27797,-1.27805 1.26115,1.08663 1.26115,1.08663 0,0 -1.03653,1.24925 -2.31218,1.17346 z"
         id="path9606"
         sodipodi:nodetypes="cccc"
         inkscape:label="blackBlur" /><path
         style="fill:#ffffff;fill-opacity:1;stroke:none;stroke-width:0.264583px;stroke-linecap:butt;stroke-linejoin:miter;stroke-opacity:1;filter:url(#filter12705-7)"
         d="m 109.86907,196.12316 3.79766,-6.57048 1.4884,1.10567 -5.2861,5.46481 z"
         id="path12389-5"
         transform="matrix(0.33413223,0,0,0.3133411,117.96516,142.11697)"
         inkscape:label="bottomGlare" /><path
         style="fill:#302300;fill-opacity:1;stroke:none;stroke-width:0.0814186px;stroke-linecap:butt;stroke-linejoin:miter;stroke-opacity:1"
         d="m 154.73498,203.38735 c 0,0 0.146,0.0454 0.17015,0.16699 -0.2233,0.14945 -0.26019,0.099 -0.26019,0.099 z"
         id="path38159-5"
         sodipodi:nodetypes="cccc"
         inkscape:label="stylus" /><path
         style="fill:url(#linearGradient12481);fill-opacity:1;stroke:none;stroke-width:0.0814186px;stroke-linecap:butt;stroke-linejoin:miter;stroke-opacity:1"
         d="m 155.76005,201.17237 -0.0792,0.24657 c 0,0 0.66256,0.27659 1.25844,1.09421 0.50207,0.68885 0,0 0,0 l 0.19489,-0.0953 -0.0789,-0.99598 -0.9422,-0.23881 z"
         id="path12399"
         sodipodi:nodetypes="ccsccccc"
         inkscape:label="bevel" /><rect
         style="fill:url(#linearGradient8002);fill-opacity:1;stroke:none;stroke-width:0.0363957;stroke-linecap:round;stroke-linejoin:round"
         id="rect7697"
         width="1.3199494"
         height="1.0281007"
         x="250.87828"
         y="38.075741"
         ry="0.19898757"
         transform="rotate(41.902436)"
         rx="0.65997469"
         inkscape:label="button" /><path
         style="display:inline;fill:url(#linearGradient6594-9);fill-opacity:1;stroke:none;stroke-width:0.0814186px;stroke-linecap:butt;stroke-linejoin:miter;stroke-opacity:1"
         d="m 155.76005,201.17237 4.67085,-4.59053 c 0.24894,-0.13422 0.42256,-0.0237 0.79178,0.21994 0.32682,0.21559 0.49851,0.5392 0.50119,0.76853 l -4.58955,4.84759 c -0.15837,-0.52073 -0.80391,-1.05701 -1.37427,-1.24553 z"
         id="path55-2-5"
         sodipodi:nodetypes="ccsccc"
         inkscape:label="body" /><path
         style="mix-blend-mode:normal;fill:#ffffff;fill-opacity:0.922547;stroke:none;stroke-width:0.264583px;stroke-linecap:butt;stroke-linejoin:miter;stroke-opacity:1;filter:url(#filter40862-5)"
         d="m 132.26583,204.41411 0.77298,0.46621 14.86468,-14.59556 -1.08253,-0.30071 z"
         id="path40464-3"
         sodipodi:nodetypes="ccccc"
         transform="matrix(0.30772324,0,0,0.30772324,115.58223,138.46509)"
         inkscape:label="topGlare" /><rect
         style="fill:#ffffff;fill-opacity:0.922547;stroke:none;stroke-width:0.0708224;stroke-linecap:round;stroke-linejoin:round"
         id="rect6666"
         width="0.92930192"
         height="4.388371"
         x="252.75137"
         y="24.564032"
         transform="rotate(45.079262)"
         ry="0.23726632"
         inkscape:label="pin" /></g></g></g><path
   id="path1200"
   style="opacity:1;fill:url(#linearGradient4434);fill-opacity:1;stroke:#775221;stroke-width:2;stroke-linecap:round;stroke-miterlimit:4;stroke-dasharray:none;stroke-opacity:0.980392;paint-order:stroke fill markers"
   d="M 13.686903,8.678925 A 20.494474,20.494476 43.231651 0 0 14.58128,37.648215 20.494474,20.494476 43.231651 0 0 43.551992,36.755174 20.494474,20.494476 43.231651 0 0 42.657526,7.783127 20.494474,20.494476 43.231651 0 0 13.686903,8.678925 Z m 7.257173,2.383265 a 14.00294,14.002941 43.231651 0 1 17.266631,1.45108 14.00294,14.002941 43.231651 0 1 2.555552,17.165042 L 21.045936,11.139186 c -0.03154,-0.02965 -0.06779,-0.0522 -0.10186,-0.077 z M 16.1409,16.467947 35.625,34.785 A 14.00294,14.002941 43.231651 0 1 19.028101,32.91807 14.00294,14.002941 43.231651 0 1 16.1409,16.467947 Z" /></svg>
