<?xml version="1.0" encoding="UTF-8" standalone="no"?>
<!-- Generator: Adobe Illustrator 15.0.0, SVG Export Plug-In  -->

<svg
   version="1.2"
   x="0px"
   y="0px"
   width="96px"
   height="96px"
   viewBox="-14.375 -5.215 96 96"
   overflow="visible"
   xml:space="preserve"
   id="svg432"
   sodipodi:docname="trash-folder.svg"
   inkscape:version="1.1.2 (0a00cf5339, 2022-02-04)"
   xmlns:inkscape="http://www.inkscape.org/namespaces/inkscape"
   xmlns:sodipodi="http://sodipodi.sourceforge.net/DTD/sodipodi-0.dtd"
   xmlns:xlink="http://www.w3.org/1999/xlink"
   xmlns="http://www.w3.org/2000/svg"
   xmlns:svg="http://www.w3.org/2000/svg"
   xmlns:rdf="http://www.w3.org/1999/02/22-rdf-syntax-ns#"
   xmlns:cc="http://creativecommons.org/ns#"
   xmlns:a="http://ns.adobe.com/AdobeSVGViewerExtensions/3.0/"><sodipodi:namedview
   id="namedview434"
   pagecolor="#ffffff"
   bordercolor="#000000"
   borderopacity="0"
   inkscape:showpageshadow="2"
   inkscape:pageopacity="0.0"
   inkscape:pagecheckerboard="true"
   inkscape:deskcolor="#d1d1d1"
   showgrid="true"
   inkscape:zoom="8.0000002"
   inkscape:cx="48.499999"
   inkscape:cy="54.562499"
   inkscape:window-width="1920"
   inkscape:window-height="1003"
   inkscape:window-x="0"
   inkscape:window-y="0"
   inkscape:window-maximized="1"
   inkscape:current-layer="svg432"
   shape-rendering="crispEdges"
   inkscape:pageshadow="0"
   inkscape:snap-global="false"><inkscape:grid
     type="xygrid"
     id="grid4425" /></sodipodi:namedview>
<defs
   id="defs2"><linearGradient
     inkscape:collect="always"
     id="linearGradient14275"><stop
       style="stop-color:#e7a036;stop-opacity:1"
       offset="0"
       id="stop14271" /><stop
       style="stop-color:#dab33d;stop-opacity:1"
       offset="1"
       id="stop14273" /></linearGradient><linearGradient
     inkscape:collect="always"
     id="linearGradient8756"><stop
       style="stop-color:#6a6a6c;stop-opacity:1;"
       offset="0"
       id="stop8752" /><stop
       style="stop-color:#afb0b1;stop-opacity:1;"
       offset="1"
       id="stop8754" /></linearGradient><linearGradient
     inkscape:collect="always"
     id="bevel"><stop
       style="stop-color:#c8c8cc;stop-opacity:1;"
       offset="0"
       id="stop4336" /><stop
       style="stop-color:#6f7072;stop-opacity:1;"
       offset="1"
       id="stop4338" /></linearGradient><linearGradient
     inkscape:collect="always"
     xlink:href="#bevel"
     id="linearGradient3019"
     x1="23.575415"
     y1="107.64565"
     x2="20.057384"
     y2="70.918808"
     gradientUnits="userSpaceOnUse"
     gradientTransform="translate(-5.3058472,-36.962622)" /><linearGradient
     inkscape:collect="always"
     xlink:href="#bevel"
     id="linearGradient3021"
     x1="39.075352"
     y1="109.22163"
     x2="38.981522"
     y2="71.874733"
     gradientUnits="userSpaceOnUse"
     gradientTransform="translate(-5.3058472,-37.79242)" /><linearGradient
     inkscape:collect="always"
     xlink:href="#bevel"
     id="linearGradient4342"
     gradientUnits="userSpaceOnUse"
     x1="54.598053"
     y1="107.699"
     x2="58.201073"
     y2="70.384377"
     gradientTransform="translate(-5.3058472,-36.816366)" /><linearGradient
     inkscape:collect="always"
     xlink:href="#linearGradient8756"
     id="linearGradient8758"
     x1="32.552113"
     y1="21.543194"
     x2="32.488987"
     y2="14.059519"
     gradientUnits="userSpaceOnUse"
     gradientTransform="translate(0.34479141,-6.7010816)" /><linearGradient
     id="SVGID_1_-3"
     gradientUnits="userSpaceOnUse"
     x1="63.4995"
     y1="24.502399"
     x2="63.4995"
     y2="101.9506"
     gradientTransform="matrix(1.0860908,0,0,1,32.900174,-33.864014)"><stop
       offset="0"
       style="stop-color:#FCFCFC"
       id="stop4" /><stop
       offset="1"
       style="stop-color:#E6E6E6"
       id="stop6-6" /><a:midPointStop
       offset="0"
       style="stop-color:#FCFCFC" /><a:midPointStop
       offset="0.5"
       style="stop-color:#FCFCFC" /><a:midPointStop
       offset="1"
       style="stop-color:#E6E6E6" /></linearGradient><linearGradient
     inkscape:collect="always"
     xlink:href="#linearGradient14275"
     id="linearGradient14277"
     x1="163.63496"
     y1="-20.211374"
     x2="170.81422"
     y2="-20.262428"
     gradientUnits="userSpaceOnUse"
     gradientTransform="translate(-123.87197,36.48572)" /><linearGradient
     id="SVGID_1_-36"
     gradientUnits="userSpaceOnUse"
     x1="38.2183"
     y1="69.749496"
     x2="38.2183"
     y2="0.74949998"
     gradientTransform="matrix(0.57601397,0,0,0.57601397,19.431915,19.813319)"><stop
       offset="0"
       style="stop-color:#B8B6B7"
       id="stop6-7" /><stop
       offset="1"
       style="stop-color:#D9D9DE"
       id="stop8-5" /></linearGradient><linearGradient
     id="SVGID_2_-3"
     gradientUnits="userSpaceOnUse"
     x1="45.7817"
     y1="69.783699"
     x2="45.7817"
     y2="17.034201"
     gradientTransform="matrix(0.57601397,0,0,0.57601397,19.431915,19.813319)"><stop
       offset="0"
       style="stop-color:#EBEBED"
       id="stop15" /><stop
       offset="1"
       style="stop-color:#FFFFFF"
       id="stop17" /></linearGradient><linearGradient
     id="SVGID_3_"
     gradientUnits="userSpaceOnUse"
     x1="47.1133"
     y1="69.749496"
     x2="47.1133"
     y2="19.7071"
     gradientTransform="matrix(0.57601397,0,0,0.57601397,19.431915,19.813319)"><stop
       offset="0"
       style="stop-color:#C8C8CC"
       id="stop22" /><stop
       offset="0.0241"
       style="stop-color:#CBCBCF"
       id="stop24" /><stop
       offset="0.1455"
       style="stop-color:#D6D6DB"
       id="stop26" /><stop
       offset="0.2577"
       style="stop-color:#D9D9DE"
       id="stop28" /><stop
       offset="1"
       style="stop-color:#E5E5E9"
       id="stop30" /></linearGradient><linearGradient
     id="SVGID_4_"
     gradientUnits="userSpaceOnUse"
     x1="3.6626"
     y1="43.402802"
     x2="75.865799"
     y2="43.402802"><stop
       offset="0"
       style="stop-color:#848685"
       id="stop35" /><stop
       offset="0.0053"
       style="stop-color:#888A89"
       id="stop37" /><stop
       offset="0.0344"
       style="stop-color:#9A9C9B"
       id="stop39" /><stop
       offset="0.0687"
       style="stop-color:#A7A9A9"
       id="stop41" /><stop
       offset="0.113"
       style="stop-color:#AFB0B1"
       id="stop43" /><stop
       offset="0.2025"
       style="stop-color:#B1B3B4"
       id="stop45" /><stop
       offset="0.4988"
       style="stop-color:#AFB0B1"
       id="stop47" /><stop
       offset="0.6946"
       style="stop-color:#A6A7A7"
       id="stop49" /><stop
       offset="0.8607"
       style="stop-color:#979898"
       id="stop51" /><stop
       offset="1"
       style="stop-color:#848685"
       id="stop53" /></linearGradient><linearGradient
     id="linearGradient897"
     gradientUnits="userSpaceOnUse"
     x1="38.2183"
     y1="69.749496"
     x2="38.2183"
     y2="0.74949998"><stop
       offset="0"
       style="stop-color:#B8B6B7"
       id="stop893" /><stop
       offset="1"
       style="stop-color:#D9D9DE"
       id="stop895" /></linearGradient><linearGradient
     id="linearGradient905"
     gradientUnits="userSpaceOnUse"
     x1="45.7817"
     y1="69.783699"
     x2="45.7817"
     y2="17.034201"><stop
       offset="0"
       style="stop-color:#EBEBED"
       id="stop901" /><stop
       offset="1"
       style="stop-color:#FFFFFF"
       id="stop903" /></linearGradient><linearGradient
     id="linearGradient918"
     gradientUnits="userSpaceOnUse"
     x1="47.1133"
     y1="69.749496"
     x2="47.1133"
     y2="19.7071"><stop
       offset="0"
       style="stop-color:#C8C8CC"
       id="stop908" /><stop
       offset="0.0241"
       style="stop-color:#CBCBCF"
       id="stop910" /><stop
       offset="0.1455"
       style="stop-color:#D6D6DB"
       id="stop912" /><stop
       offset="0.2577"
       style="stop-color:#D9D9DE"
       id="stop914" /><stop
       offset="1"
       style="stop-color:#E5E5E9"
       id="stop916" /></linearGradient></defs>

<linearGradient
   id="SVGID_1_"
   gradientUnits="userSpaceOnUse"
   x1="0.75"
   y1="15.5117"
   x2="66.5"
   y2="15.5117"
   gradientTransform="translate(0,3.0052039)">
	<stop
   offset="0"
   style="stop-color:#FFFFFF"
   id="stop6" />
	<stop
   offset="0.0613"
   style="stop-color:#D9D9DA"
   id="stop8" />
	<stop
   offset="0.546"
   style="stop-color:#F6F5F6"
   id="stop10" />
	<stop
   offset="0.9509"
   style="stop-color:#C5C6C8"
   id="stop12" />
	<stop
   offset="1"
   style="stop-color:#FFFFFF"
   id="stop14" />
</linearGradient>






<linearGradient
   id="SVGID_2_"
   gradientUnits="userSpaceOnUse"
   x1="2.6221"
   y1="20.394"
   x2="64.627"
   y2="20.394"
   gradientTransform="translate(0,3.0052039)">
	<stop
   offset="0"
   style="stop-color:#88888A"
   id="stop29" />
	<stop
   offset="0.546"
   style="stop-color:#C8C8CC"
   id="stop31" />
	<stop
   offset="1"
   style="stop-color:#88888A"
   id="stop33" />
</linearGradient>




<g
   id="g4523"
   inkscape:label="miniTrash"
   transform="translate(0,8)"><path
     style="opacity:1;fill:#dfdfe1;fill-opacity:1;stroke-width:0.8;stroke-linecap:round;stroke-opacity:0.7"
     d="M 3.6510574,20.731323 10.83377,75.049562 c 8.263588,7.51989 41.566317,7.157627 45.724368,-1.194876 l 7.041508,-53.080072 c -17.866076,5.46897 -47.589337,5.03122 -59.9485886,-0.04329 z"
     id="path992"
     sodipodi:nodetypes="ccccc"
     inkscape:label="basecolor" /><path
     fill="url(#SVGID_1_)"
     d="m 66.5,11.535206 c 0,3.708003 -14.719,6.716003 -32.875,6.716003 -18.156,0 -32.875,-3.007 -32.875,-6.716003 v 7.248003 c 0,3.709 14.719,6.715 32.875,6.715 18.156,0 32.875,-3.006 32.875,-6.715 z"
     id="path17"
     style="display:inline;fill:url(#SVGID_1_)"
     inkscape:label="gradientTop" /><path
     fill="#ffffff"
     d="m 33.625,4.4042039 c -18.156,0 -32.875,2.428 -32.875,7.1310021 0,3.708003 14.719,6.716003 32.875,6.716003 18.156,0 32.875,-3.007 32.875,-6.716003 0,-3.7090021 -14.719,-7.1310021 -32.875,-7.1310021 z m 0,11.2000051 c -15.589,0 -28.226,-1.917 -28.226,-4.280003 0,-2.3630022 12.637,-4.3380021 28.226,-4.3380021 15.589,0 28.226,1.9749999 28.226,4.3380021 0,2.363003 -12.637,4.280003 -28.226,4.280003 z"
     id="path21"
     style="display:inline"
     inkscape:label="top" /><polygon
     fill="#ffffff"
     points="10.117,71.202 2.824,18.249 6.784,20.331 13.015,74.863 "
     id="polygon23"
     style="display:inline"
     inkscape:label="glare"
     transform="translate(0,3.0052039)" /><path
     fill="#bebfc4"
     d="m 33.625,29.836209 c -13.782,0 -25.052,-1.287 -30.104,-3.941 l -0.202,-3.942 c 4.778,2.511 16.957,4.198 30.306,4.198 13.35,0 25.528,-1.687 30.305,-4.197 l 0.155,3.781 c -5.049,2.654 -16.677,4.101 -30.46,4.101 z"
     id="path25"
     inkscape:label="shadow" /><path
     fill="none"
     stroke="#88888a"
     stroke-width="1.5"
     stroke-miterlimit="10"
     d="m 57.347,73.555209 c -0.784,4.246 -10.604,7.605 -23.722,7.605 -13.118,0 -23.083,-3.223 -23.75,-7.82 l -6.904,-52.126 c -1.434,-0.753 -2.221,-1.573 -2.221,-2.431 v -7.248003 c 0,-5.2660021 14.719,-7.7800021 32.875,-7.7800021 18.156,0 32.875,2.89 32.875,7.7800021 v 7.248003 c 0,0.857 -0.787,1.678 -2.222,2.432 z"
     id="path27"
     style="display:inline"
     inkscape:label="border" /><path
     fill="url(#SVGID_2_)"
     d="m 33.625,26.248209 c -13.782,0 -25.951,-1.715 -31.003,-4.37 l 0.697,-1.328 c 4.778,2.511 16.957,4.198 30.306,4.198 13.35,0 25.528,-1.687 30.305,-4.197 l 0.697,1.328 c -5.049,2.654 -17.219,4.369 -31.002,4.369 z"
     id="path36"
     style="display:inline;fill:url(#SVGID_2_)"
     inkscape:label="borderTop" /><path
     id="rect2097"
     style="opacity:0.829701;fill:url(#linearGradient3021);fill-opacity:1;stroke-width:0.825659;stroke-linecap:round;stroke-opacity:0.7"
     d="m 33.67282,33.989832 c -1.449962,0 -2.660156,1.24463 -2.660156,2.734375 V 68.77889 c -0.0034,0.0549 -0.0059,0.11015 -0.0059,0.16602 0,1.48974 1.210193,2.73242 2.660156,2.73242 1.426345,0 2.619664,-1.2028 2.658203,-2.66016 h 0.0078 V 36.724207 c 0,-1.489745 -1.210193,-2.734375 -2.660156,-2.734375 z"
     inkscape:label="bevel" /><path
     id="path2986"
     style="opacity:0.829701;fill:url(#linearGradient4342);fill-opacity:1;stroke-width:0.725292;stroke-linecap:round;stroke-opacity:0.7"
     d="m 52.824454,33.998334 c -1.132123,-0.117767 -2.188718,1.00239 -2.322394,2.460796 l -2.876287,31.380364 c -0.0076,0.0535 -0.0145,0.10735 -0.0195,0.16204 -0.133675,1.45841 0.699732,2.77324 1.831857,2.891 1.113682,0.11585 2.15335,-0.96473 2.31421,-2.3883 l 0.0062,6.5e-4 2.897668,-31.613637 c 0.133675,-1.458404 -0.699557,-2.775143 -1.831682,-2.89291 z"
     inkscape:label="bevel" /><path
     id="path2988"
     style="opacity:0.829701;fill:url(#linearGradient3019);fill-opacity:1;stroke-width:0.725292;stroke-linecap:round;stroke-opacity:0.7"
     d="m 14.73579,33.998334 c 1.132123,-0.117767 2.188718,1.00239 2.322394,2.460796 l 2.876287,31.380358 c 0.0076,0.0535 0.0145,0.10736 0.0195,0.16205 0.133675,1.4584 -0.699732,2.77323 -1.831857,2.891 -1.113682,0.11585 -2.15335,-0.96474 -2.31421,-2.3883 l -0.0062,6.4e-4 -2.897668,-31.613631 c -0.133675,-1.458404 0.699557,-2.775143 1.831682,-2.89291 z"
     inkscape:label="bevel" /><path
     id="path5439"
     style="opacity:0.829701;fill:url(#linearGradient8758);fill-opacity:1;stroke-width:0.858188;stroke-linecap:round;stroke-opacity:0.7"
     d="m 59.951217,11.354595 c -0.103652,2.894674 -12.184349,4.338159 -27.214504,4.338159 -15.030155,0 -27.1319211,-2.042425 -27.2145038,-4.338159 C 5.4286482,8.7536724 17.706557,7.0164394 32.736713,7.0164394 c 15.030156,0 27.324659,1.2618596 27.214504,4.3381556 z"
     sodipodi:nodetypes="sssss"
     inkscape:label="hole" /></g><metadata
   id="metadata4423"><rdf:RDF><cc:Work
       rdf:about=""><cc:license
         rdf:resource="http://creativecommons.org/publicdomain/zero/1.0/" /></cc:Work><cc:License
       rdf:about="http://creativecommons.org/publicdomain/zero/1.0/"><cc:permits
         rdf:resource="http://creativecommons.org/ns#Reproduction" /><cc:permits
         rdf:resource="http://creativecommons.org/ns#Distribution" /><cc:permits
         rdf:resource="http://creativecommons.org/ns#DerivativeWorks" /></cc:License></rdf:RDF></metadata><path
   fill="none"
   stroke="#000000"
   stroke-miterlimit="10"
   d="M 19.863925,56.62234"
   id="path4"
   style="stroke-width:0.576014" /><path
   fill="url(#SVGID_1_)"
   d="m 63.028684,29.645301 v -2.945735 c 0,-0.718289 -0.58811,-1.3064 -1.306399,-1.3064 H 37.143769 v -3.419795 c 0,-0.954455 -0.773587,-1.728042 -1.728042,-1.728042 h -13.82376 c -0.954455,0 -1.728042,0.773587 -1.728042,1.728042 V 56.53421 c 0,1.908334 0.642832,3.456083 1.596711,3.456083 0.954455,0 1.530469,-1.544869 1.859373,-3.456083 l 3.28904,-25.593453 c 0.09159,-0.712529 0.754578,-1.295456 1.472868,-1.295456 h 34.946767"
   id="path11"
   style="fill:url(#SVGID_1_-36);stroke-width:0.576014" /><path
   id="path875"
   style="fill:#c97815;fill-opacity:1;stroke:#8f887a;stroke-width:0.813621;stroke-linecap:square;stroke-opacity:1"
   d="M 15.8358,9.618264 25.63772,20.171524 36.224,9.618264 H 30.29737 C 30.32177,7.077149 31.39953,-2.292217 36.43054,-2.244569 21.97166,-2.295479 22.3386,2.757427 22.20224,9.618264 Z"
   sodipodi:nodetypes="ccccccc"
   inkscape:label="arrow" /><path
   fill="none"
   stroke="#848685"
   stroke-width="0.864021"
   stroke-miterlimit="10"
   d="m 63.028684,29.645301 v -2.945735 c 0,-0.718289 -0.58811,-1.3064 -1.306399,-1.3064 H 37.143769 v -3.419795 c 0,-0.954455 -0.773587,-1.728042 -1.728042,-1.728042 h -13.82376 c -0.954455,0 -1.728042,0.773587 -1.728042,1.728042 V 56.53421 c 0,1.908334 0.642832,3.456083 1.596711,3.456083"
   id="path60" /><path
   style="display:inline;fill:url(#linearGradient14277);fill-opacity:1;stroke:#8f887a;stroke-width:1px;stroke-linecap:butt;stroke-linejoin:miter;stroke-opacity:1"
   d="M 54.21169,33.231819 C 55.32535,27.52308 57.73319,16.453193 50.79683,5.660836 43.86047,-5.131521 29.92435,-2.146735 25.97502,-0.435894 46.4566,0.62585 41.94512,27.099391 40.99537,33.229502 Z"
   id="path6385"
   sodipodi:nodetypes="czccc" /><path
   fill="none"
   stroke="#000000"
   stroke-miterlimit="10"
   d="M 19.863925,56.62234"
   id="path13"
   style="stroke-width:0.576014" /><path
   fill="url(#SVGID_2_)"
   d="m 21.443932,59.963221 c 0.954455,5.76e-4 1.532197,-1.543142 1.863405,-3.454356 l 3.31784,-25.589421 c 0.09274,-0.712529 0.755731,-1.294879 1.47402,-1.293727 l 40.97533,0.04608 c 0.717713,5.76e-4 1.197533,0.57947 1.066202,1.285663 l -4.545326,24.315278 c -0.131908,0.706193 -0.454475,1.831724 -0.716562,2.500477 0,0 -0.876693,2.23839 -1.831724,2.237238 l -41.156198,-0.04608 z"
   id="path20"
   style="fill:url(#SVGID_2_-3);stroke-width:0.576014" /><path
   fill="url(#SVGID_3_)"
   d="m 22.993985,59.990293 c 0.924503,0 1.48266,-1.467107 1.80062,-3.282703 l 3.185357,-24.311822 c 0.08871,-0.676816 0.730386,-1.230366 1.426211,-1.230366 h 39.685058 c 0.695825,0 1.161245,0.548942 1.033945,1.219998 l -4.375402,23.102768 c -0.126723,0.67048 -0.438346,1.740138 -0.691216,2.375482 0,0 -0.846741,2.126643 -1.771243,2.126643 H 23.426572 Z"
   id="path33"
   style="fill:url(#SVGID_3_);stroke-width:0.576014" /><g
   id="g58"
   transform="matrix(0.57601397,0,0,0.57601397,19.431915,19.813319)"><linearGradient
     id="linearGradient941"
     gradientUnits="userSpaceOnUse"
     x1="3.6626"
     y1="43.402802"
     x2="75.865799"
     y2="43.402802"><stop
       offset="0"
       style="stop-color:#848685"
       id="stop921" /><stop
       offset="0.0053"
       style="stop-color:#888A89"
       id="stop923" /><stop
       offset="0.0344"
       style="stop-color:#9A9C9B"
       id="stop925" /><stop
       offset="0.0687"
       style="stop-color:#A7A9A9"
       id="stop927" /><stop
       offset="0.113"
       style="stop-color:#AFB0B1"
       id="stop929" /><stop
       offset="0.2025"
       style="stop-color:#B1B3B4"
       id="stop931" /><stop
       offset="0.4988"
       style="stop-color:#AFB0B1"
       id="stop933" /><stop
       offset="0.6946"
       style="stop-color:#A6A7A7"
       id="stop935" /><stop
       offset="0.8607"
       style="stop-color:#979898"
       id="stop937" /><stop
       offset="1"
       style="stop-color:#848685"
       id="stop939" /></linearGradient><path
     fill="url(#SVGID_4_)"
     d="m 3.663,69.047 c 0.725,-0.279 1.739,-1.881 2.349,-5.424 l 5.705,-44.401 c 0.209,-1.628 1.659,-2.903 3.3,-2.903 h 60.849 v 1.5 H 15.017 c -0.871,0 -1.701,0.73 -1.813,1.594 L 7.494,63.846 C 6.759,68.12 5.54,70.301 3.772,70.488 Z"
     id="path56"
     style="fill:url(#SVGID_4_)" /></g><path
   fill="none"
   stroke="#848685"
   stroke-width="0.864021"
   stroke-miterlimit="10"
   d="m 63.104718,29.645301 h 5.951953 c 0.718289,0 1.198685,0.577742 1.067353,1.283936 l -4.517101,24.321037 c -0.131331,0.706194 -0.452171,1.831725 -0.713681,2.501053 0,0 -0.874966,2.238966 -1.828845,2.238966 H 21.460636"
   id="path62" /></svg>
