<?xml version="1.0" encoding="iso-8859-1"?>
<!-- Generator: Adobe Illustrator 13.0.2, SVG Export Plug-In . SVG Version: 6.00 Build 14948)  -->
<!DOCTYPE svg PUBLIC "-//W3C//DTD SVG 1.1//EN" "http://www.w3.org/Graphics/SVG/1.1/DTD/svg11.dtd">
<svg version="1.1" id="Layer_1" xmlns="http://www.w3.org/2000/svg" xmlns:xlink="http://www.w3.org/1999/xlink" x="0px" y="0px"
	 width="26px" height="26px" viewBox="0 0 26 26" style="enable-background:new 0 0 26 26;" xml:space="preserve">

<circle style="fill:#CCCCCC;" cx="13" cy="13" r="13"/>
<circle style="fill:#999999;" cx="13" cy="13" r="11"/>
<rect x="7" y="11" style="fill:#FFFFFF;" width="12" height="10"/>
<path style="fill:#FFFFFF;" d="M13,3C9.687,3,7,5.687,7,9h3c0-1.657,1.343-3,3-3c1.657,0,3,1.343,3,3v8.19
	c1.792-1.038,3-2.971,3-5.19V9C19,5.687,16.313,3,13,3z"/>
<path style="fill:#231F20;" d="M14.5,14.5c0-0.829-0.672-1.5-1.5-1.5s-1.5,0.671-1.5,1.5c0,0.628,0.387,1.164,0.934,1.388L11.5,19h3
	l-0.934-3.112C14.113,15.664,14.5,15.128,14.5,14.5z"/>
</svg>
