<?xml version="1.0" standalone="no"?>
<!DOCTYPE svg PUBLIC "-//W3C//DTD SVG 1.1//EN" "http://www.w3.org/Graphics/SVG/1.1/DTD/svg11.dtd" >
<svg xmlns="http://www.w3.org/2000/svg">
<metadata>
This is a custom SVG webfont generated by Font Squirrel.
Copyright   : Copyright c ShyFonts Type Foundry 2000 All rights reserved
Designer    : ShyFonts Type Foundry
Foundry URL : httpwwwshyfontscom
</metadata>
<defs>
<font id="webfontCl8SWzq3" horiz-adv-x="1341" >
<font-face units-per-em="2048" ascent="1638" descent="-410" />
<missing-glyph horiz-adv-x="569" />
<glyph unicode=" "  horiz-adv-x="569" />
<glyph unicode="&#x09;" horiz-adv-x="569" />
<glyph unicode="&#xa0;" horiz-adv-x="569" />
<glyph unicode="!" horiz-adv-x="501" d="M96 63q-1 -2 -1 -4q10 25 26 72l2 14q2 14 6 25q12 34 55 74t74 30q57 0 45 -90q-16 -63 -47 -118q-66 -63 -121 -76q-57 3 -39 73zM246 530q8 51 53 211q55 80 147 344q43 76 103 209q63 86 131 74q45 0 37 -78q-6 -18 -92 -239q-84 -158 -103 -215q-27 -92 -121 -277 q-37 -86 -114 -98q-66 6 -41 69z" />
<glyph unicode="&#x22;" horiz-adv-x="905" d="M426 891q-6 29 14 168q20 51 30.5 92t10.5 70q12 51 51 88q41 37 95 55q66 -14 28 -147q6 -35 -16 -109q-23 -72 -16 -92q-20 -68 -21 -72q-14 -49 -65 -88q-47 -37 -76 -27q-47 5 -35 62zM723 963q57 219 98 290q31 119 144 125q35 2 45 -22.5t-4 -77.5 q-51 -141 -99 -305q-43 -88 -125 -94q-33 -2 -48 19.5t-11 64.5z" />
<glyph unicode="#" horiz-adv-x="1613" d="M272 420q23 121 121 133q35 27 215 51q18 164 62 328q-72 10 -162 -4q-92 -6 -156 -23q-51 12 -45 72q14 106 135 131q39 16 129 35q78 6 158 2q31 152 156 158q20 4 28.5 -13.5t1.5 -58.5q0 -2 -3 -21.5l-5 -31.5q256 27 404 71q23 156 143 158q63 -6 57 -76 q-10 -8 -28 -82l180 17q59 0 41 -66q-6 -94 -119 -123q-53 0 -147 2q-27 -143 -105 -407l140 35q43 18 102 22q59 -6 41 -72q-29 -78 -131 -133q-80 0 -176 -2l-25 -137q-23 -63 -27 -86q-12 -43 -55 -74q-40 -28 -74 -24q-43 0 -49 53q8 18 33 209l-373 -6 q-84 -197 -73 -207q-43 -127 -144 -125q-43 6 -28 90q-3 3 24 203q12 -16 -94 -43q-31 -2 -113 -8q-51 0 -39 53zM737 606q98 31 486 105q6 158 14 344q-68 -25 -395 -62q-9 -131 -105 -387z" />
<glyph unicode="$" horiz-adv-x="1429" d="M143 -238q39 84 105 211q41 121 110 226q-20 8 -16 30q18 52 61 99l125 295q-252 117 -155 301q6 129 176 270q119 68 287 100l114 258q58 111 129 123q63 -8 45 -65q-8 -53 -53 -144q-31 -66 -55 -147q20 2 43.5 3t52.5 2t43 1q27 80 115 225q41 109 123 115 q18 6 32 -12q14 -20 9 -51q-31 -84 -52 -152q-39 -76 -61 -158q256 -92 252 -256q-20 -53 -117 -162q-72 -47 -176 -83q-25 -20 -35 -21q-59 2 -37 61q4 61 88 111l29.5 20.5t27 17.5t20.5 13l15.5 10.5t11.5 7.5t6 4l1 1q-31 52 -184 80q-59 -182 -187 -412 q268 -68 234 -305q-66 -164 -189 -250q-137 -61 -295 -74q-61 -61 -149 -243q-41 -66 -96 -56q-39 -2 -53.5 16.5t-4.5 57.5q6 43 47 131q33 47 74 119q-72 6 -131 26q-35 -80 -70 -176l-92 -159q-61 -98 -112 -80q-35 -4 -49.5 14t-6.5 57zM532 971q-31 -84 99 -148l88 310 q-47 -39 -96 -64q-91 -55 -91 -98zM567 303q61 -16 125 -16q20 57 119 270q-33 -2 -133 10q-68 -138 -111 -264zM756 760q70 14 153 -29q66 190 170 389q-37 20 -78 17q-31 -2 -63 0zM870 279q125 12 197 57l2 2q27 92 -100 164z" />
<glyph unicode="%" horiz-adv-x="1554" d="M303 12q2 16 31 58q152 186 448 643q313 270 502 540q84 104 76 113q74 74 129 90q25 0 43 -20.5t8 -55.5q-29 -96 -442 -551q-254 -434 -598 -766q34 7 -37 -73q-51 -61 -107 -56q-25 -6 -45 19q-18 20 -8 59zM350 907q10 156 170 310q139 168 248 151 q145 -18 202.5 -126.5t51.5 -225.5q-47 -129 -156 -273q-111 -84 -268 -79q-121 -6 -223 38q-62 99 -25 205zM530 985q-31 -63 25 -102q43 -29 119 -45q43 -2 102 26q57 29 58 92q23 74 -41 136q-47 55 -121 79q-138 -75 -142 -186zM807 307q8 55 49 139q68 96 111 146 q55 39 80 39q12 0 16 -2q57 125 184 102q145 2 203 -104q78 -78 31 -232q-20 -133 -181 -274q-158 -139 -317 -111q-92 -23 -158 74q-67 92 -18 223zM977 352q-3 -55 31 -116q35 -61 92 -48q80 12 137 54q51 37 55 125q23 86 -12 120q-57 47 -129 41q-14 0 -29 -4 q-16 -4 -35 2q-14 -31 -51 -71q-45 -48 -59 -103z" />
<glyph unicode="&#x26;" horiz-adv-x="1556" d="M254 299q33 166 139 254q119 96 271 137q-230 154 -234 393q18 35 72 105q154 180 434 180q256 -12 559 -115q23 113 100 119q33 4 52 -22q20 -27 8 -56q-9 -31 -105 -190l-118 -158q-57 -57 -113 -69q-66 6 -41 73q0 53 86 142q-236 98 -549 77q-176 -31 -213 -96 q-6 -76 234 -196q215 -31 399 -138q31 -14 35 -55q-12 -43 -49 -86q-39 -45 -99 -39q-25 -2 -78 0q-55 3 -79 12q-131 0 -287 -47q-223 -92 -238 -149q-4 -41 23 -68q80 -104 389 -110q98 -8 258 14q88 246 215 264q18 -12 36.5 -30.5t6.5 -53.5q-2 -8 -27 -69 q-53 -90 -133 -199q-31 -72 -96 -107q-78 -27 -217 -34l-70 16q-272 0 -405 51q-176 66 -166 250z" />
<glyph unicode="'" horiz-adv-x="585" d="M395 897q-6 23 39 162q-6 39 8 92q12 47 9 70q14 53 57 90t84 43q80 0 43 -152q-10 -20 -25 -92q-4 -27 -8 -49.5t-8 -42.5q-8 -47 -23 -78q-18 -47 -49 -78q-35 -35 -94 -28q-39 4 -33 63z" />
<glyph unicode="(" horiz-adv-x="724" d="M221 621q66 176 185 399q80 203 256 287q33 53 73 59q31 -4 43 -25q16 -25 10 -67q-10 -27 -51 -82q-129 -133 -178 -223q-98 -106 -131 -281q-20 -154 21 -258q4 -57 94 -252q6 -43 0 -63q-12 -40 -56 -86q-45 -47 -81 -33q-23 -4 -48 18q-125 66 -131 285 q-8 142 -6 322z" />
<glyph unicode=")" horiz-adv-x="729" d="M223 88q14 37 62 88q121 145 186 209q59 117 111 281q8 150 -7 290q-10 39 -133 205q27 68 27 88q16 51 49 88q39 45 88 33q29 4 53 -12q109 -84 140 -271q12 -199 -21 -358q-66 -176 -153 -381q-104 -154 -258 -282q-57 -59 -86 -68q-31 4 -43 27q-15 28 -15 63z" />
<glyph unicode="*" horiz-adv-x="1091" d="M188 453q12 37 54 75q61 66 182 134q94 66 192 149l13 14q-78 33 -203 181q-43 10 -37 45q18 39 59 79.5t70 40.5q33 0 197 -137q-14 59 20 164q10 199 135 211q33 2 49.5 -19.5t16.5 -62.5l-92 -332q59 20 170 92q121 76 180 99q31 4 42 -15.5t3 -62.5 q-20 -51 -129 -147q-78 -35 -162 -89q106 -76 107 -116q76 -68 67 -127q-16 -39 -45 -74q-31 -37 -82 -37q-25 -4 -45 14q-76 74 -170 197q-25 -47 -45 -141q-25 -160 -76 -238t-129 -69q-31 12 -12 108l29 217q-70 -90 -148 -149q-119 -80 -161 -90q-33 0 -45 26 q-11 31 -5 60z" />
<glyph unicode="+" horiz-adv-x="921" d="M215 694q10 39 43 78q35 41 98 53q33 4 93 -2q66 -6 77 0l6 19l6.5 31.5l10.5 52.5q12 57 10 75q8 45 55 82q45 37 97 56q63 -12 51 -160q-25 -33 -55 -158q63 0 133 2q18 2 59 5t62 6q47 -8 68.5 -28t12.5 -52q-27 -80 -124 -127q-106 6 -220 18q-47 -20 -73 -96 q-29 -80 -29 -92q-37 -111 -135 -105q-47 4 -33 76q-2 12 61 168q-104 16 -223 45q-67 0 -51 53z" />
<glyph unicode="," horiz-adv-x="493" d="M111 -80q37 104 106 256q80 100 148 105q61 -6 47 -99q-6 -14 -60 -129q-47 -100 -67 -121q-61 -80 -121 -86q-78 -12 -53 74z" />
<glyph unicode="-" horiz-adv-x="1048" d="M371 682q-6 104 141 147q27 12 133 7l414 -107q37 95 31 31q-37 -70 -132 -139q-6 14 -155 51q-358 49 -395 -68q-64 19 -37 78z" />
<glyph unicode="." horiz-adv-x="501" d="M211 154q9 37 43 73q35 37 96 49q80 -6 53 -98q-55 -156 -159 -188q-64 19 -33 164z" />
<glyph unicode="/" horiz-adv-x="825" d="M-29 -252q12 33 250 485q246 367 365 625l252 361q10 96 106 235q45 94 117 90q29 2 40 -17.5t5 -64.5q0 -4 -4 -10t-6 -12q-139 -291 -377 -697q-209 -391 -508 -854q20 -16 -33 -133q-76 -80 -135 -75q-39 2 -56.5 18t-15.5 49z" />
<glyph unicode="0" horiz-adv-x="1374" d="M264 524q57 162 154 353q96 188 315 337q-14 2 -20 6.5t-4 10.5q37 123 198 127q301 33 385 -213q143 -164 78 -500q-80 -219 -303 -450.5t-473 -143.5q-215 -10 -291 131q-111 92 -39 342zM453 567q-33 -150 16 -258q61 -68 211 -102q215 37 360 143q152 111 154 268 q6 184 -68 332q-72 141 -274 203q-16 -29 -80 -74q-152 -158 -209 -241q-69 -101 -110 -271z" />
<glyph unicode="1" horiz-adv-x="694" d="M297 119q12 57 104 520q170 305 172 508l-4 14q-10 0 -192 -8q-12 -8 -47 -12q-29 -4 -8 53q18 96 127 133q51 39 262 2q51 14 70.5 -13.5t4.5 -98.5q-57 -154 -168 -553q-59 -197 -94 -340q-18 -88 -82 -228q-39 -96 -123 -112q-65 6 -22 135z" />
<glyph unicode="2" horiz-adv-x="1392" d="M295 889q68 213 321 354q297 152 492 100q184 49 246 -59q83 -71 80 -252q-61 -305 -496 -510q-74 -71 -190 -153l-113 -59.5t-69.5 -35t-22.5 -6.5q-18 -55 196 -55l195 20q133 14 158 7q182 25 151 -97q-14 -35 -53 -80q-43 -49 -80 -34q-12 -6 -35 0q-20 6 -35 0 q-63 2 -188 -23q-127 -27 -227 -6q-137 8 -198.5 66.5t-51.5 166.5q-2 68 55 125.5t176 104.5q162 117 391 252q176 104 234 293q20 72 -38 104.5t-198 26.5q-80 20 -243 -23q-168 -74 -283 -143v-29q-2 -25 41 -65.5t35 -77.5q-8 -45 -49 -76q-35 -27 -76 -47q-14 4 -27 12 q-123 86 -98 199z" />
<glyph unicode="3" horiz-adv-x="1441" d="M248 86q6 51 57 94q49 41 90 41q41 -2 160 -30.5t156 -0.5q115 8 217 25q170 49 209 88q-12 131 -158 201q-141 72 -297 63q-53 8 -117 -4q-59 -12 -78 0q-55 6 -47 62q23 98 119 129q37 31 139 37q213 74 338 106q217 84 236 152q23 72 -92 102q-59 39 -148 20 q-262 41 -608 -96q-4 4 -10 0q-55 0 -47 78q25 66 104 96q84 51 326 70q137 41 297 53q377 27 401 -274q-80 -227 -420 -316q78 -84 185 -188q84 -115 59 -240q-57 -168 -293 -313q-168 -25 -395 -16q-227 0 -355 -11q-40 35 -28 72z" />
<glyph unicode="4" horiz-adv-x="1282" d="M215 659q29 84 113 215l135 234q16 37 72 147q55 129 124 109q35 6 49.5 -11.5t8.5 -58.5q-35 -106 -160 -323t-129 -271q-25 -70 31.5 -97.5t191.5 -12.5q53 -35 377 53l10 178q25 152 74 219.5t125 53.5q16 0 10 -43q12 -59 -10 -226q-29 -29 -37 -96q-33 -70 -29 -100 q35 6 86 2q72 0 60 -64q-12 -31 -47 -80q-34 -46 -74 -43q-22 -9 -68 -6q-12 -45 -26 -129q-9 -98 -31 -135q-12 -199 -141 -199q-31 -4 -42 6.5t-3 32.5q8 61 47 211q10 135 33 191q-295 -86 -449 -70q-131 4 -215 82q-82 67 -86 231z" />
<glyph unicode="5" horiz-adv-x="1462" d="M215 231q12 47 45 84q33 39 84 33q6 6 105 -53q88 -94 247 -76q168 -31 289 51q213 102 240 273q31 100 -66 168q-61 33 -160 34q-156 18 -389 -98q-186 -84 -207 -88q-76 10 -59 72q74 233 281 540q-55 18 -50 43q35 104 125 136q43 16 183 -2q59 25 250 24 q160 33 286 14q47 0 64.5 -16t5.5 -49q-6 -102 -113 -154q-46 0 -166 -12q-92 12 -475 -10q-39 -84 -92 -281q248 111 453 146q158 -35 270 -131q94 -117 59 -301q-71 -194 -331 -437q-225 -104 -478 -108q-109 -20 -249 2q-106 74 -134 141q-24 33 -18 55z" />
<glyph unicode="6" horiz-adv-x="1368" d="M276 123q-37 150 27 328q8 219 209 499q154 297 276 396q66 27 86 28q68 6 39 -78q2 -23 -34 -77q-92 -92 -142 -172q-82 -88 -121 -170q197 127 469 71q264 23 340 -82q31 -95 0 -233q-70 -197 -352 -467q-246 -119 -498 -129q-197 -10 -299 86zM467 524 q-47 -166 3 -240.5t200 -58.5q162 -49 377 146q158 109 202 247q12 74 -63 146q-16 4 -64.5 14t-79.5 19q-231 -6 -546 -162q-25 -78 -29 -111z" />
<glyph unicode="7" horiz-adv-x="1284" d="M381 1245q14 49 53 88q41 41 80 35q59 0 121 -10q90 18 123 2l229 24q439 -18 455 -55l4 -2q49 -20 33 -72q-18 -51 -248 -366q-127 -121 -268 -295q-156 -209 -256 -365q-8 -27 -66 -143q-76 -76 -125 -74q-35 2 -52.5 18.5t-14.5 47.5l20 41q135 240 317 520 q164 215 447 467q-317 37 -610 35q-121 31 -193 53q-57 20 -49 51z" />
<glyph unicode="8" horiz-adv-x="1431" d="M279 322q8 205 247 356q-143 74 -141 211q55 143 221 280l21 21q10 76 98 127q123 41 285 22q221 10 323 -65q139 -111 62 -268q-37 -211 -187 -312q174 -94 115 -307q-57 -158 -272 -328q-151 -46 -375 -36q-195 -6 -334 28q-118 119 -63 271zM457 391q-35 -109 96 -145 q82 -70 209 -70q109 -10 235 41q129 76 144 150q31 82 -60 137q-109 78 -182 84q-154 0 -268 -33q-90 -20 -134 -62.5t-40 -101.5zM567 928q-18 -117 330 -142q72 14 215 48q108 46 117 122q23 104 -94 148q-82 82 -199 51q-25 18 -59 12q-37 -37 -117 -77l-117 -52 q-53 -32 -76 -110z" />
<glyph unicode="9" horiz-adv-x="1462" d="M328 672q80 324 313 499q268 254 604 218q74 0 146 -41q113 -43 139 -144q0 -10 -6 -35q-12 -35 -51 -82q-40 -49 -74 -36l-78 79q-84 84 -203 41q-164 23 -321 -116q-227 -115 -232 -279q-35 -98 -12 -186q59 -96 147 -90q131 14 254 92l240 143q83 89 154 105 q35 2 50 -17.5t11 -58.5q-57 -123 -170 -389q-96 -254 -143 -293q-74 -89 -142 -86q-33 -4 -45 11.5t-6 51.5q14 55 107 222q49 90 90 196q-266 -240 -441 -205q-205 2 -270 140q-65 135 -61 260z" />
<glyph unicode=":" horiz-adv-x="497" d="M162 86q16 51 51 107q72 72 123 77q78 -4 63 -84q-23 -66 -80 -123q-41 -72 -110 -65q-29 6 -43 27q-16 22 -4 61zM262 530q0 39 57 107q55 66 111 53q33 2 44 -18.5t3 -65.5q-15 -40 -67 -104q-51 -63 -101 -45q-65 -1 -47 73z" />
<glyph unicode=";" horiz-adv-x="475" d="M90 -86q-6 16 6 43q57 117 88 168q70 104 138 104q70 -10 51 -79q4 4 -45 -76l-72 -146q-76 -100 -121 -94q-70 6 -45 80zM299 578q14 45 53 90q37 45 99 47q35 0 41 -56q18 -49 6 -92q-10 -31 -54 -84q-41 -51 -82 -34q-43 0 -55 49q-22 29 -8 80z" />
<glyph unicode="&#x3c;" horiz-adv-x="886" d="M199 641q14 63 92 113q184 180 526 229q47 55 51 55q29 0 41.5 -26.5t1.5 -63.5q-18 -53 -104 -121q-31 -10 -158 -59q-106 -49 -174 -96q84 -45 252 -201q0 -18 -2 -55q-8 -41 -59 -92q-37 -55 -86 -54q-45 6 -205 123q-102 125 -150 164q-42 43 -26 84z" />
<glyph unicode="=" horiz-adv-x="1222" d="M279 465q27 100 122 129q72 10 285 14q8 0 195 21q117 -33 188 -8q20 -2 48 -6.5t34 -4.5q57 -14 37 -63q-31 -133 -125 -148h-201q-80 2 -274 -32q-182 -33 -258 22q-41 -10 -54 8.5t3 67.5zM422 874q12 57 51 99q40 43 105 37q18 2 70 3t77 1q98 -18 137 -13 q92 -16 162 -18q131 -4 186 -14q57 -18 39 -66q-16 -45 -59 -92q-47 -53 -90 -37q-59 4 -209 29q-133 20 -246 -27l-176 23q-65 22 -47 75z" />
<glyph unicode="&#x3e;" horiz-adv-x="827" d="M344 375q0 59 76 112l225 181q-45 43 -176 112q-25 31 -90 66q-27 31 -19 57q4 45 56 88q57 47 90 58q82 -2 199 -82q141 -131 194 -172q35 -29 19 -78q-10 -31 -56 -90q-72 -55 -231 -158q-187 -144 -252 -178q-64 6 -35 84z" />
<glyph unicode="?" horiz-adv-x="1210" d="M238 63q8 59 75 115q45 63 103 74q55 -8 51 -80q-10 -18 -57 -72q-37 -63 -50 -69q-41 -43 -71 -41q-69 -1 -51 73zM293 561q37 166 266 221q35 41 352 95q236 86 316 147q-3 9 0 18q31 139 -309 175q-209 -27 -367 -91q-47 -25 -59 -22q-33 -4 -41 26q-8 27 -9 56 q10 53 70 90q86 59 244 90q176 47 274 18q188 33 277 -45q133 -49 112 -241q-53 -143 -221 -287q-100 -33 -342 -80q-266 -66 -371 -145q23 -23 21 -60q-15 -43 -43 -80q-41 -43 -90 -47q-41 -6 -70 56q-12 67 -10 106z" />
<glyph unicode="@" horiz-adv-x="1808" d="M258 442q39 211 195 455q213 246 378 410q274 201 512 229q276 -53 388 -315q193 -223 94 -496q-53 -143 -193 -340q-143 -115 -342 -115q-205 0 -262 97q-104 -65 -184 -80q-106 6 -119 98q-35 80 -29 170q53 150 158 326q180 219 315 200q78 12 158 -49q63 -59 72 -102 q-16 -43 -43 -78q-34 -43 -86 -37q-12 -2 -62 35q-43 33 -90 47q-78 -4 -143 -106q-59 -100 -80 -168q-25 -129 31 -111q51 -2 145 80t139 80q37 6 47.5 -20.5t10.5 -53.5q-2 -8 -6.5 -14t-6.5 -17q-8 -25 -12 -35q-12 -39 21.5 -61t113.5 -27q218 0 240 265q94 227 -19 364 q-145 190 -339 197q-297 8 -533 -260q-244 -236 -229 -506q-59 -219 33 -309.5t337 -49.5q46 -71 37 -141q-33 -150 -203 -137q-283 39 -370 162q-135 143 -74 413z" />
<glyph unicode="A" horiz-adv-x="1112" d="M47 55q4 47 260 520q168 182 268 437q90 102 138 192q57 76 104 150q32 52 77 52q11 0 21 -3h5q45 0 63 -55q18 -102 21 -228q-8 -148 -8 -199q0 -36 3 -36q14 -272 127 -676q-63 -66 -67 -80q-16 -45 -62 -94q-38 -43 -67 -43q-9 0 -17 4q-53 2 -53 194 q-49 -30 -103 -29l-20 1q-16 -4 -86 -4q-53 0 -82 4l-262 26q-150 -207 -207 -219q-59 5 -59 52q0 14 6 34zM434 385l379 -78q-14 107 -14 247q0 191 26 445q-72 -28 -391 -614z" />
<glyph unicode="B" horiz-adv-x="1230" d="M127 104l76 365q84 272 133 578q37 37 24 36h-3q-51 0 -48 78q16 53 100.5 98.5t327.5 106.5q207 18 310 20q370 -52 369 -262q0 -25 -5 -53q-59 -160 -471 -422q32 5 60 5q101 0 153 -60q58 -56 58 -138q0 -44 -17 -96q-6 -84 -82 -184q-98 -72 -180 -108 q-160 -63 -459 -76q-70 -12 -126 -13q-109 0 -165 48q-56 8 -56 66q0 5 1 11zM311 199q122 -3 202 -4q49 0 71 2q310 9 393 73q35 33 39 43q7 20 6 38q0 75 -115 122q-133 51 -227 53l-287 -55q-25 -176 -82 -272zM473 721q176 0 422 141q295 98 338 215q2 7 2 13 q0 41 -70 90q-61 10 -176 10q-201 -27 -407 -62q-72 -147 -109 -407z" />
<glyph unicode="C" horiz-adv-x="1114" d="M195 532q12 268 340 572q248 289 424 289q17 0 34 -2q239 -31 239 -290q0 -45 -7 -97l32 26q-12 -43 -53 -82q-37 -35 -84 -53q-35 2 -45 74q-29 123 -41 141q-40 68 -100 68q-12 0 -25 -2q-143 0 -321 -199q-200 -227 -234 -381q-15 -61 -14 -112q0 -109 66 -169 q98 -88 268 -155q127 33 223 80l111 94q66 66 90 69q5 0 9 1q45 0 45 -43q0 -14 -5 -33q-4 -14 -25 -47q-96 -115 -229 -179q-144 -68 -289 -92q-46 -7 -87 -7q-194 0 -279 159q-66 122 -66 237q0 67 23 133z" />
<glyph unicode="D" horiz-adv-x="1339" d="M264 96q4 125 98 342q53 204 54 288q0 16 -2 28l78 225q0 127 38 180q-128 -10 -159 -10q-7 0 -7 0.5t5 1.5q-6 -1 -11 -1q-46 0 -47 54q35 92 140 133q66 16 163 25l58 -12q328 -18 581 -90q226 -134 227 -361q0 -59 -16 -125q-78 -209 -495 -532l-637 -199 q-35 -55 -49 -59q-35 2 -35 41q0 26 16 71zM434 170q295 113 477 242q387 229 389 354q3 18 4 35q0 147 -225 303q-170 6 -377 76l-63 -435q-127 -319 -205 -575z" />
<glyph unicode="E" horiz-adv-x="1101" d="M238 465q-9 37 -9 84q0 101 41 246q131 201 138 340q-19 19 -19 54v11q25 113 121 117q31 35 78 39q4 1 6 0q11 0 20 -10q128 31 272 31q153 0 322 -36q44 20 66 20q25 0 20 -28q-18 -84 -106 -110q-18 -9 -68.5 -9.5t-130.5 9.5q-68 -31 -253 -31q-47 0 -103 2 q-45 -88 -184 -397q231 12 450 22q8 1 14 1q46 0 43 -58q-29 -104 -116 -111q-22 -13 -101 -13q-20 0 -45 1h-16q-110 0 -264 -39q-37 -37 -49 -74q-3 -33 -3 -64q0 -244 175 -290q47 14 239 57q186 41 225 72q8 1 17 1q75 0 75 -50q0 -7 -1 -14q-35 -92 -181 -160 q-22 1 -45 1q-86 0 -184 -18l-58.5 -25.5t-76.5 -31.5q-65 -12 -111 -18h-5q-253 0 -252 218q0 105 59 261z" />
<glyph unicode="F" horiz-adv-x="1105" d="M205 68q2 25 26.5 123t24.5 118l113 746q1 17 1 29q0 40 -18 40q-55 0 -55 42q0 7 2 16q27 92 119 137q63 26 206 26q49 0 107 -4q265 73 443 74q77 0 137 -14q12 2 21 2q50 0 50 -57q0 -10 -2 -23q-28 -77 -129 -129q-8 0 -31.5 2t-75.5 7t-100 9q-86 -25 -514 -102 q20 -69 20 -242q0 -72 -3 -161q166 57 368 65q43 0 43 -40q0 -20 -10 -50q-10 -98 -94 -123q-39 -8 -147 -16q-19 1 -38 1q-102 0 -192 -30q-18 -35 -28 -145q-20 -84 -31 -140q-83 -227 -185 -258q-35 8 -35 51q0 19 7 46z" />
<glyph unicode="G" horiz-adv-x="1333" d="M205 586q0 186 174 346q106 197 334 348q183 123 305 123q27 0 51 -6q20 3 39 3q86 0 156 -54q82 -63 88 -132q25 -14 18 -32q-4 -45 -51 -82q-40 -51 -76 -52q-2 0 -4 1q-4 2 -74 77q-68 74 -161 74q-203 -25 -404 -158q-195 -248 -199 -393q-14 -68 -13 -127 q0 -112 48 -192q74 -121 254 -144q182 18 332 125q-207 172 -223 221q14 55 45 93q34 48 76 47h10q4 0 24 -17q70 -41 123 -100q51 -49 117 -72q55 -23 156 -73q31 -25 28 -60q-10 -31 -51 -84q-29 -39 -59 -39l-15 2q-27 -4 -51 19q-143 -137 -282 -185q-180 -61 -287 -83 q-272 6 -354 186q-75 163 -75 372q0 24 1 48z" />
<glyph unicode="H" horiz-adv-x="1183" d="M90 86q12 66 88 426q63 215 119 369l51 174q30 263 149 262h11q8 2 14 2q24 0 25 -29q0 -21 -12 -57q-18 -186 -183 -739q41 82 68 82q1 0 2 -1q39 5 84 5q103 0 242 -25q217 -25 243 -63q63 139 203 483q-14 53 -14 98q0 39 10 70q2 76 37 131q37 101 123 101q5 0 10 -1 q35 -2 35 -50q0 -17 -4 -38q-53 -158 -211 -704q2 -18 -72 -283q-20 -74 -82 -219q-33 -82 -100 -94q-44 4 -45 42q0 16 8 38q-2 16 47 288q-12 -43 -70 -43h-8q-8 2 -51 7.5l-74 9.5q-76 26 -99 26q-7 0 -11 -2q-52 -3 -115.5 -3t-138.5 3q-8 6 -20.5 12.5t-18.5 10.5 t-11 6q-16 -37 -49 -172q-33 -197 -120 -197q-9 0 -19 2h-8q-37 0 -37 40q0 13 4 32z" />
<glyph unicode="I" horiz-adv-x="786" d="M82 37q16 92 96 123q28 25 112 25q9 0 19 -1q52 157 154 516q49 270 100 461q-23 -4 -53 -2q-31 -10 -45 -4q-117 0 -117 86q8 37 53 82q41 41 76 45q11 1 24 1q38 0 91 -7q18 -2 35 -2q44 0 78 16l143 -8q34 4 58 4q39 0 63 -10q38 -12 37 -46q0 -9 -2 -20 q-31 -89 -130 -141q-23 2 -75 6q-8 -6 -78 -10q-109 -600 -186 -954q41 27 161 32h5q46 0 46 -41q0 -19 -10 -47q-12 -123 -137 -143q-6 1 -21 1q-41 0 -110 -7q-65 3 -119 3q-178 0 -217 -30h-6q-52 0 -52 38q0 15 7 34z" />
<glyph unicode="J" horiz-adv-x="1271" d="M127 385q-2 147 164 264q106 94 231 133q12 2 28.5 5.5t20.5 3.5h5q36 0 36 -34q0 -14 -6 -34q-8 -59 -82 -127q-82 -35 -131 -64q-76 -31 -82 -77q-9 -21 -8 -44q0 -81 113 -167q104 -40 201 -40q35 0 69 5h16q195 0 324 143q104 102 148 365q35 119 83 551 q-49 -25 -49 -19q10 41 62 86q55 49 84 51q2 0 3 1q28 0 34 -48q15 -38 15 -110.5t-15 -181.5q-6 -102 -23 -316q-88 -244 -274 -528q-197 -170 -490 -170q-45 -3 -89 -4q-154 0 -300 43q-104 110 -104 224q0 44 16 89z" />
<glyph unicode="K" horiz-adv-x="1173" d="M86 61q37 152 115 365q18 279 94 408l59 272q86 256 164 276q46 -9 46 -73q0 -21 -5 -47q-39 -258 -94 -437q90 70 254 150q184 162 270 178q104 90 275 195q23 29 47 26q33 4 43 -22.5t10 -48.5q-12 -43 -47 -74q-133 -133 -387 -244q-260 -231 -365 -268 q152 -106 512 -395q48 -122 49 -175q0 -23 -10 -30q-12 -33 -53 -80q-31 -36 -62 -36q-9 0 -18 3q-16 -2 -43 21q-25 10 -127 157q-152 186 -440 359l-25 -293q-70 -147 -92 -170q-35 -103 -117 -103h-10q-44 8 -44 69q0 8 1 17z" />
<glyph unicode="L" horiz-adv-x="1083" d="M156 453q59 133 131 364q74 236 162 440q0 43 38 89q30 35 65 34q12 0 23 -4q48 -3 48 -89v-23q-35 -162 -111 -457q-152 -207 -152 -311q-7 -42 -6 -78q0 -63 21 -107q24 -109 127 -108h6q11 -2 24 -2q85 0 244 73q103 47 180 47q58 0 101 -26q17 4 30 4q40 0 40 -39 q0 -15 -7 -37q-25 -70 -133 -135q-5 1 -30 1q-40 0 -111 -3q-10 -18 -244 -90q-76 -2 -180 -19q-193 4 -217 170q-50 111 -51 259z" />
<glyph unicode="M" horiz-adv-x="1597" d="M82 86q131 248 274 782q86 135 113 226q68 172 100 225q55 93 130 93q9 0 18 -1q23 0 39 -41q35 -51 78 -262q37 -475 77 -721q90 256 281 617q53 90 96 143q33 72 78 141q57 74 127 78q41 -2 59 -59q-3 -11 -3 -39t3 -74q-13 -93 -12 -204q0 -79 6 -167q2 -59 7.5 -187 t7.5 -196q19 -59 18 -117q0 -21 -2 -40q5 -35 5 -69q0 -45 -9 -89q-18 -43 -62 -92q-36 -40 -68 -41q-10 0 -20 4h-3q-29 0 -38 45q-20 37 -19 103q0 17 1 36q2 22 2 45q0 46 -8 97q23 221 28 636q-172 -238 -348 -688q-86 -39 -94 -57q-63 -86 -88 -113q-51 -66 -102 -65 h-4q-55 -3 -68 387q1 32 1 64q0 279 -95 518q-174 -463 -223 -666l-20.5 -49l-33.5 -82q-35 -88 -75 -156q-51 -59 -111 -78q-47 9 -47 53q0 13 4 29q-4 5 -4 13q0 6 4 18z" />
<glyph unicode="N" horiz-adv-x="1150" d="M82 41q45 170 113 395q86 264 102 375l41 248q57 262 219 317q12 -16 31 -53q25 -65 67 -154q25 -131 45 -147q86 -252 289 -565q0 127 78 628q74 55 66 70q12 72 49 121q61 86 127 92h4q41 0 42 -38q0 -16 -7 -40q-49 -135 -125 -459q-80 -334 -76 -405 q-31 -152 -72 -250q-35 -68 -71 -104q-42 -62 -90 -62h-9q-18 0 -37 31q-33 35 -116 242q-127 229 -230 686q-121 -285 -203 -627q-14 -100 -40 -166q-8 -68 -41 -108q-40 -95 -119 -95h-15q-4 -1 -8 -1q-21 0 -20 29q0 16 6 40z" />
<glyph unicode="O" horiz-adv-x="1368" d="M221 571q-2 211 158 398q129 195 266 272q102 102 321 103q6 0 13 -1q45 6 86 6q238 0 309 -200q97 -107 97 -298q0 -89 -21 -196q-84 -227 -268 -475q-190 -141 -462 -141h-11h-17q-254 0 -438 96q-68 119 -68 247q0 91 35 189zM377 643q-6 -37 -6 -72q0 -133 84 -245 q115 -119 313 -150q186 49 309 135q125 88 187 293v30q0 203 -78 333q-82 135 -332 176q-43 0 -172 -51q-270 -181 -305 -449z" />
<glyph unicode="P" horiz-adv-x="1265" d="M205 88q18 94 37 264q74 160 73 258l76 267q-1 6 -1 12q0 41 38 84q45 39 90 39h6h4q46 0 46 -62q0 -23 -7 -55q-12 -94 -114 -356q26 -1 50 -1q214 0 388 70q319 129 326 240q5 21 4 40q0 106 -150 152q-89 84 -225 84q-29 0 -60 -4q-87 39 -190 39h-14q-168 8 -217 29 q-35 14 -35 46q0 11 4 26q6 46 49 86q31 29 60 28q11 0 20 -4q29 6 68 6q65 0 161 -16q45 3 87 2q267 0 450 -96q200 -85 200 -275q0 -63 -22 -137q-66 -184 -420 -414q-256 -49 -545 -75q-37 -182 -67 -246q-47 -115 -131 -129q-50 4 -50 48q0 20 11 50z" />
<glyph unicode="Q" horiz-adv-x="1380" d="M188 530q12 211 197 451q168 154 356 264q80 90 146 113q53 10 121 16q250 -43 395 -205q86 -90 86 -243q0 -92 -31 -209q-92 -254 -319 -537q143 -90 143 -162q0 -8 -2 -16q-6 -35 -53 -84q-35 -35 -60 -35q-6 0 -12 2h-3q-48 0 -189 193q-126 -76 -286 -76h-24 q-28 -1 -54 -1q-235 0 -327 97q-113 105 -113 261q0 78 29 171zM346 537q-2 -18 -2 -37q0 -114 68 -205q129 -82 290 -121q123 39 187 53q-59 128 -60 173q0 17 9 24q2 29 32 65q25 31 68 31q43 -6 125 -215q184 154 215 385q14 64 14 118q0 143 -100 212q-84 121 -238 121 q-53 0 -114 -15q0 14 -9 14q-6 0 -18 -7q-393 -212 -467 -596z" />
<glyph unicode="R" horiz-adv-x="1320" d="M133 70l43 157q29 104 49 189q6 51 27 139q8 45 14 82t13 63q37 205 149 490q-28 -7 -48 -7q-54 0 -52 48q8 39 57 82q51 45 84 47q57 5 111 5q266 0 469 -122q19 1 37 1q200 0 264 -97q106 -71 106 -243q0 -34 -4 -73q-74 -205 -467 -419q89 -71 172 -160q16 -27 43 -80 q30 -27 30 -60q0 -6 -1 -12q-12 -41 -45 -82t-86 -45q-3 -1 -6 0q-13 0 -29 13q-203 121 -248 417q-230 -72 -454 -71h-19q-25 -172 -57 -211q-34 -120 -102 -120q-6 0 -13 1q-40 0 -37 68zM453 430q188 92 419 162q338 127 422 231q2 12 2 23q0 142 -321 241 q-90 35 -246 36q-69 0 -151 -7q-45 -20 -125 -686z" />
<glyph unicode="S" horiz-adv-x="1236" d="M164 170q14 61 47 92q32 30 82 30q9 0 18 -1q6 1 16 1q37 0 140 -18q112 -44 244 -43q53 0 110 7q47 -16 86 -17q19 0 37 4q109 18 111 66q4 12 4 24q0 89 -242 170q-406 39 -401 117q-176 117 -176 279q0 25 4 51q49 225 295 305q154 110 316 110q65 0 132 -18 q107 18 186 18q214 0 214 -133q0 -27 -9 -59l-102 -151q-53 -76 -118 -76h-5q-27 6 -43 28q-8 20 -8 43q0 11 2 21q6 49 47 78q-63 49 -264 55q-13 1 -27 1q-217 0 -373 -148q-47 -2 -51 -23q-8 -24 -7 -45q0 -109 198 -166l477 -117q155 -94 155 -248q0 -39 -10 -81 q-53 -143 -221 -273q-111 -34 -273 -33h-55q-119 -14 -286 -16q-135 49 -207 80q-47 31 -47 64q0 11 4 22z" />
<glyph unicode="T" horiz-adv-x="1460" d="M322 1249q45 35 102 54q4 -4 14 -7q8 -2 21 -2q32 -1 68 -1q196 0 505 42q344 47 631 92q68 -26 68 -74q0 -9 -2 -20q-28 -80 -130 -135h-110q-72 -4 -127 -16h-12q-73 0 -211 -33q-117 -12 -260 -23q-23 -131 -113 -358q-33 -299 -76 -365l-22 -184q-72 -210 -146 -210 q-5 0 -10 1q-6 -3 -12 -2q-22 0 -29 33q2 68 41 240q49 150 66 432q88 319 133 397q-217 -4 -328 -12q-115 3 -115 46q0 63 54 105z" />
<glyph unicode="U" horiz-adv-x="1376" d="M231 594q-2 15 -1 32q0 134 114 335q90 238 129 313q68 66 113 72q6 1 10 0q41 0 41 -33q0 -13 -6 -31q2 -14 -6 -33q-2 -8 -121 -309q-90 -137 -107 -260q-32 -80 -32 -154q0 -124 90 -229q112 -74 294 -74q53 0 111 6q14 -1 28 -1q158 0 261 155q61 88 108 354 q25 63 58 271q23 144 22 214q0 37 -6 56q-2 41 43 78q47 37 99 53q57 0 69 -246q-45 -272 -69 -383q-102 -287 -240 -551q-172 -180 -474 -180h-20h-34q-259 0 -445 88q-67 118 -67 250q0 100 38 207z" />
<glyph unicode="V" horiz-adv-x="1226" d="M317 1249q-3 49 37 86q37 33 95 47q2 0 3 1q26 0 44 -44q33 -70 55 -313q55 -262 67 -762l549 754q-4 80 45 149l119 168q45 63 96 70q25 -6 43 -27q12 -13 12 -35q0 -12 -3 -26q-8 -20 -27 -57q-8 -12 -149 -211q-74 -117 -398 -578q-20 -61 -94 -221l-178 -213 q-76 -63 -137 -70h-4q-25 0 -39 39q-2 18 -23 160q4 51 4 101q0 79 -10 157q-66 163 -66 344q0 36 2 72q-45 276 -45 375q0 21 2 34z" />
<glyph unicode="W" horiz-adv-x="1705" d="M324 1260q10 41 63 81q57 45 84 48h4q28 0 39 -50q19 -42 20 -109q0 -15 -2 -32q4 -74 21 -149q8 -76 8 -183q0 -169 -20 -432l428 555q0 7 -1 14q0 92 42 150q27 70 80 127q43 60 91 60q3 0 5 -1q51 -4 76 -102q0 -61 20 -305q14 -334 121 -586q74 319 260 668 q-5 22 -5 45q0 51 23 106q29 82 74 152q66 78 113 82h5q54 0 54 -52q0 -14 -4 -32q0 -10 -6 -25q-88 -190 -303 -731q-59 -182 -119 -315q-37 -115 -86 -211q-78 -84 -126 -84h-3q-37 0 -66 41q-20 51 -75 227q-25 449 -105 752q-139 -233 -305 -641q-63 -47 -84 -113 l-49.5 -77t-36.5 -58q-92 -82 -143 -94q-39 4 -41 73q-7 18 -7 74q0 18 1 41q-2 14 -17 293q-3 47 -3 113q0 249 46 727q-71 -48 -71 -47z" />
<glyph unicode="X" horiz-adv-x="1247" d="M76 78q25 90 420 534l-136 662q14 45 46 90q28 41 64 41q9 0 17 -2h5l38 -23q6 -8 82 -166q47 -137 156 -299q115 61 264 218q154 131 234 210q49 33 73 39q25 0 41 -22q9 -13 10 -31q0 -14 -6 -31q-4 -20 -47 -71l-135 -158l-381 -315q326 -447 327 -624q0 -50 -26 -79 q-9 -28 -49 -74q-31 -35 -60 -35q-8 0 -16 3q-2 0 -4 -1q-18 0 -32 23l-113 176q-6 104 -119 398q-169 -83 -326 -301q-63 -53 -192 -187q-34 -60 -76 -60q-4 0 -8 1q-27 6 -43 26q-12 15 -12 34q0 11 4 24z" />
<glyph unicode="Y" horiz-adv-x="1347" d="M246 156q12 51 47 94q31 40 79 39h13q2 4 12 2q194 -72 326 -72q31 0 59 4q50 -10 88 -9q59 0 97 24q61 40 147 165l113 310q-303 -180 -594 -240q-207 25 -289 205q-68 86 -68 218q0 70 19 155q49 287 197 344q20 -12 55 -43q20 -18 8 -58q-4 -14 -14.5 -40.5 t-22.5 -65.5q-25 -74 -24 -86q-18 -60 -18 -110q0 -87 54 -142q82 -82 215 -133q170 41 275 90q137 94 235 213q10 117 15 229q25 57 63 90q37 51 101 52h2q47 0 47 -84q0 -52 -19 -138q-14 -70 -14 -227.5t-59 -255.5q-90 -256 -232 -498q-158 -146 -432 -145h-22 q-90 -29 -225 -29h-25l-179 76q-33 24 -33 51q0 7 3 15z" />
<glyph unicode="Z" horiz-adv-x="1378" d="M121 61q0 49 51 103q57 76 141 162q96 57 176 143q272 246 668 659q-232 51 -399 52q-134 0 -226 -33q-121 12 -145 33q-43 17 -43 45q0 7 2 16q0 53 43 88q45 35 100 47q5 1 15 1q24 0 178 -9q135 -4 365 -45q184 34 277 34q75 0 91 -22q18 3 34 3q63 0 63 -45 q0 -9 -3 -19q-29 -63 -61 -109q-63 -100 -361 -354q-172 -160 -671 -682q166 92 440 98q195 47 350 48q79 0 148 -13h3q25 0 25 -32q0 -16 -6 -40q-25 -74 -125 -133q-11 -2 -36 -1q-52 0 -228 10q-61 1 -118 1q-481 0 -705 -92q-48 16 -49 57q1 13 6 29z" />
<glyph unicode="[" horiz-adv-x="997" d="M270 80q3 49 31 86q37 84 43 180q41 143 51 404q66 287 107 399q-108 0 -68 92q6 51 51 94q41 39 74 45q51 -10 213 -6q152 4 221 27q77 -3 62 -74q-31 -127 -160 -127q-51 -37 -195 -18q-20 -195 -77 -387q-31 -205 -48 -373q-45 -104 -57 -201l-4 -8h104q70 0 113 6 q145 -2 111 -86q-12 -39 -47 -84q-37 -49 -82 -47q-33 -10 -172 8q-47 -23 -97 -20q-57 4 -82 -4q-129 0 -92 94z" />
<glyph unicode="\" horiz-adv-x="794" d="M334 1436q16 55 53 94q40 43 92 49q35 -6 35 -100q29 -63 31 -111q16 -72 33 -721q98 -587 147 -854v2q-2 -5 -4 -14q-12 -43 -51 -84q-39 -43 -78 -31q-37 -4 -47 43q-8 41 -29 94q2 27 8 117q-20 102 -8 404q-49 315 -151 581q-6 396 -31 531z" />
<glyph unicode="]" horiz-adv-x="980" d="M223 53q43 117 170 154q31 2 215 -17q2 190 60 410q0 201 53 379q23 68 33 172q-8 10 -74 10q-68 0 -94 2q-80 -12 -109 6q-49 18 -43 70q12 51 47 86q43 43 86 64q27 -4 146 10q28 -12 98 -13q78 -10 119 3q49 -2 73.5 -22.5t22.5 -57.5q-20 -63 -49 -90 q-31 -86 -47 -146q-4 -156 -45 -434q-86 -264 -82 -416q72 -18 45 -102q-8 -23 -45 -82q-43 -37 -88 -37q-70 4 -228 -20q-162 -25 -198 4q-33 -4 -50.5 13t-15.5 54z" />
<glyph unicode="^" horiz-adv-x="1044" d="M215 403q0 35 219 467q200 395 258 395q5 0 8 -3q63 90 144 102q55 6 117 -199q-20 -39 -15 -268q37 -94 62 -195q20 -180 8 -223q-12 -37 -62 -98q-51 -63 -86 -45q-72 4 -82 344q-59 125 -47 352q-125 -289 -250 -426q-12 -55 -88 -182q-86 -94 -135 -100q-76 3 -51 79 z" />
<glyph unicode="_" horiz-adv-x="1214" d="M27 113l104 12l881 135l-54 -274z" />
<glyph unicode="`" horiz-adv-x="561" d="M485 1888q6 49 62 97q57 47 90 45q31 -2 51 -52q12 -57 66 -172q10 -57 49 -139q10 -47 4 -63q-10 -35 -55 -93q-41 -53 -78 -38q-25 -4 -47 22q-41 25 -90 203q-52 182 -52 190z" />
<glyph unicode="a" horiz-adv-x="1118" d="M49 55q4 47 260 520q168 182 269 437q90 102 137 192q57 76 104 150q32 52 77 52q11 0 22 -3h4q45 0 63 -55q15 -89 19 -228q-6 -124 -7 -185q0 -50 4 -50q14 -272 127 -676q-63 -66 -67 -80q-14 -39 -62 -94q-36 -43 -66 -43q-9 0 -18 4q-53 2 -53 194q-52 -30 -103 -29 q-10 0 -20 1q-18 -4 -88 -4q-51 0 -80 4l-262 26q-150 -207 -207 -219q-59 5 -59 52q0 14 6 34zM434 385l381 -78q-14 102 -14 239q0 187 26 453q-77 -33 -393 -614z" />
<glyph unicode="b" horiz-adv-x="1241" d="M131 104l78 365q90 293 133 578q37 37 23 36h-4q-48 0 -46 78q16 53 100.5 98.5t327.5 106.5q207 18 308 20q371 -52 371 -265q0 -24 -5 -50q-61 -162 -473 -422q32 5 60 5q102 0 155 -60q58 -56 58 -138q0 -44 -17 -96q-6 -84 -82 -184q-98 -72 -180 -108 q-160 -63 -459 -76q-70 -12 -126 -13q-111 0 -165 48q-58 8 -57 66q-1 5 0 11zM317 199q122 -3 201 -4q49 0 70 2q310 9 393 73q39 35 41 43q7 20 7 38q0 75 -116 122q-131 51 -229 53l-285 -55q-25 -176 -82 -272zM479 721q174 0 420 141q295 98 338 215q2 7 2 14 q0 42 -68 89q-61 10 -176 10q-211 -29 -409 -62q-70 -141 -107 -407z" />
<glyph unicode="c" horiz-adv-x="1120" d="M199 532q12 270 338 572q248 289 426 289q17 0 34 -2q239 -31 239 -290q0 -45 -7 -97l31 26q-12 -45 -52 -82q-37 -35 -84 -53q-35 2 -45 74q-29 123 -41 141q-40 68 -102 68q-12 0 -25 -2q-139 0 -319 -199q-203 -231 -236 -381q-15 -63 -15 -114q0 -108 67 -167 q102 -90 270 -155q129 34 221 80l113 94q66 66 90 69q5 0 9 1q45 0 45 -43q0 -14 -5 -33q-4 -14 -25 -47q-96 -115 -229 -179q-144 -68 -289 -92q-46 -7 -87 -7q-194 0 -279 159q-66 122 -66 237q0 67 23 133z" />
<glyph unicode="d" horiz-adv-x="1343" d="M268 96q4 125 99 342q51 197 51 285q0 17 -2 31l80 225q0 127 39 180q-128 -10 -159 -10q-7 0 -7.5 0.5t4.5 1.5q-6 -1 -11 -1q-48 0 -49 54q35 92 140 133q65 15 165 25l56 -12q330 -18 583 -90q225 -133 226 -358q0 -60 -17 -128q-78 -211 -493 -532l-637 -199 q-35 -55 -49 -59q-35 2 -35 41q0 26 16 71zM438 170q295 113 477 242q385 231 388 354q3 18 3 36q0 148 -223 302q-170 6 -378 76l-62 -435q-127 -319 -205 -575z" />
<glyph unicode="e" horiz-adv-x="1075" d="M236 465q-9 37 -9 84q0 101 41 246q131 201 138 340q-19 19 -19 54v11q25 113 123 117q31 37 76 39q4 1 7 0q13 0 21 -10q127 31 270 31q152 0 322 -36q44 20 66 20q25 0 20 -28q-18 -84 -106 -110q-18 -9 -67.5 -9.5t-131.5 9.5q-68 -31 -253 -31q-47 0 -103 2 q-45 -88 -185 -397q231 12 451 22q8 1 14 1q48 0 45 -58q-29 -104 -116 -111q-22 -13 -102 -13q-20 0 -46 1h-16q-110 0 -264 -39q-37 -37 -50 -74q-3 -33 -2 -64q0 -244 175 -290q47 14 239 57q186 41 225 72q8 1 16 1q75 0 76 -50q0 -7 -1 -14q-31 -90 -181 -160 q-22 1 -45 1q-86 0 -184 -18l-58.5 -25.5t-76.5 -31.5q-65 -12 -111 -18h-5q-253 0 -252 218q0 105 59 261z" />
<glyph unicode="f" horiz-adv-x="1107" d="M209 68q2 25 27 122q18 74 22 119l115 746q1 14 1 25q0 44 -20 44q-55 0 -55 42q0 7 2 16q37 114 178 153q44 14 167 14q41 0 91 -1q258 68 432 67q80 0 144 -14q12 2 21 2q52 0 52 -59q0 -10 -2 -21q-28 -77 -129 -129q-8 0 -31.5 2t-75.5 7t-99 9q-82 -25 -517 -102 q20 -69 20 -242q0 -72 -3 -161q166 57 369 65q46 0 45 -40q0 -20 -11 -50q-6 -98 -94 -123q-37 -8 -149 -16q-19 1 -38 1q-101 0 -190 -30q-18 -35 -28 -145q-20 -84 -31 -140q-82 -227 -186 -258q-35 8 -35 49q0 20 8 48z" />
<glyph unicode="g" horiz-adv-x="1339" d="M209 586q0 186 174 346q106 197 334 348q183 123 305 123q27 0 51 -6q20 3 39 3q86 0 156 -54q82 -63 88 -132q25 -14 18 -32q-4 -43 -51 -82q-40 -51 -76 -52q-2 0 -4 1q-4 2 -74 77q-68 74 -163 74q-201 -25 -402 -158q-199 -250 -201 -393q-12 -66 -12 -123 q0 -115 49 -196q74 -121 254 -144q180 18 330 125q-203 170 -221 221q15 58 43 93q34 48 78 47h10q4 0 24 -17q70 -41 123 -100q53 -51 117 -72q55 -23 156 -73q29 -25 26 -60q-12 -35 -49 -84q-29 -39 -59 -39l-15 2q-27 -4 -51 19q-139 -133 -284 -185q-174 -59 -285 -83 q-272 6 -354 186q-75 163 -75 372q0 24 1 48z" />
<glyph unicode="h" horiz-adv-x="1189" d="M94 86q12 66 88 426q71 243 117 369l53 174q30 263 147 262h11q8 2 15 2q26 0 25 -31q0 -21 -11 -55q-18 -186 -183 -739q41 82 66 82q1 0 2 -1q39 5 84 5q105 0 244 -25q215 -25 241 -63l205 483q-14 53 -14 98q0 39 10 70q2 70 37 131q37 101 123 101q5 0 10 -1 q35 -2 35 -50q0 -17 -4 -38q-47 -141 -213 -704q4 -25 -70 -283q-20 -74 -82 -219q-33 -82 -100 -94q-46 4 -46 43q0 15 7 37q-4 25 47 288q-12 -43 -70 -43h-8q-8 0 -50 6.5t-73 10.5q-76 26 -99 26q-7 0 -11 -2q-51 -3 -115 -3t-139 3q-39 25 -49 29q-14 -41 -50 -172 q-30 -197 -122 -197q-9 0 -19 2h-8q-35 0 -35 38q-1 14 4 34z" />
<glyph unicode="i" horiz-adv-x="333" d="M76 90q45 131 78 375q127 295 120 393l21 234q102 254 213 284q6 1 11 1q41 0 40 -60q0 -30 -10 -76q-47 -135 -141 -496q-94 -362 -91 -446q-53 -264 -184 -285q-16 -5 -29 -4q-35 0 -35 39q0 17 7 41z" />
<glyph unicode="j" horiz-adv-x="1302" d="M168 385q-4 147 162 264q106 94 231 133q12 2 28.5 5.5t20.5 3.5h5q36 0 36 -34q0 -14 -6 -34q-8 -63 -82 -127q-82 -35 -131 -64q-76 -31 -82 -77q-9 -21 -8 -44q0 -81 113 -167q104 -40 202 -40q35 0 70 5h16q193 0 322 143q104 100 149 365q33 106 82 551 q-49 -25 -49 -19q10 41 62 86q55 49 84 51q2 0 3 1q28 0 34 -48q15 -38 15 -110.5t-15 -181.5q-12 -215 -23 -316q-90 -252 -272 -528q-197 -170 -492 -170q-45 -3 -89 -4q-154 0 -300 43q-102 108 -102 222q0 45 16 91z" />
<glyph unicode="k" horiz-adv-x="1179" d="M90 61q35 154 115 365q18 279 94 408l59 272q86 256 164 276q46 -9 47 -72q0 -21 -6 -48q-33 -238 -94 -437q90 70 254 150q186 162 270 178q104 90 275 195q23 29 47 26q33 2 43 -22q10 -27 10 -49q-12 -40 -49 -74q-131 -133 -387 -244q-260 -231 -365 -268 q168 -117 514 -395q48 -127 48 -176q0 -22 -9 -29q-14 -37 -53 -80q-34 -36 -62 -36q-9 0 -18 3q-16 -2 -43 21q-25 8 -127 157q-152 186 -440 359l-25 -293q-74 -152 -92 -170q-35 -103 -117 -103h-10q-44 8 -44 66q0 9 1 20z" />
<glyph unicode="l" horiz-adv-x="1089" d="M160 453q53 119 129 364q74 236 162 440q0 43 38 89q30 35 65 34q12 0 24 -4q50 -3 49 -91v-21q-23 -106 -113 -457q-150 -205 -149 -311q-6 -39 -7 -74q0 -63 21 -111q27 -109 127 -108h6q11 -2 24 -2q85 0 244 73q103 47 180 47q58 0 101 -26q17 4 30 4q40 0 40 -39 q0 -15 -7 -37q-25 -68 -135 -135q-5 1 -29 1q-39 0 -110 -3q-10 -18 -244 -90q-76 -2 -180 -19q-193 4 -217 170q-50 111 -51 259z" />
<glyph unicode="m" horiz-adv-x="1601" d="M84 86q131 248 274 782q86 135 113 226q59 160 100 225q55 93 130 93q9 0 18 -1q23 0 39 -41q35 -51 78 -262q37 -475 77 -721q94 272 281 617q53 90 96 143q37 84 78 141q57 74 125 78q43 -4 61 -59q-3 -11 -3 -39t3 -74q-13 -100 -13 -208q0 -79 7 -163q2 -59 7.5 -187 t7.5 -196q17 -53 17 -111q0 -23 -3 -46q5 -35 5 -69q0 -45 -9 -89q-20 -47 -60 -92q-36 -40 -68 -41q-10 0 -20 4h-3q-29 0 -38 45q-20 37 -19 103q0 17 1 36q2 22 2 45q0 46 -8 97q23 221 29 636q-172 -238 -349 -688q-86 -39 -94 -57q-55 -76 -90 -113q-51 -66 -100 -65 h-4q-57 -4 -70 387q1 34 1 67q0 283 -95 515q-168 -449 -221 -666l-54 -131q-35 -88 -75 -156q-51 -59 -113 -78q-46 9 -46 51q0 14 5 31q-5 6 -5 14t5 17z" />
<glyph unicode="n" horiz-adv-x="1153" d="M82 41q20 78 113 395q89 276 104 375l41 248q61 262 219 317q8 -8 31 -53q25 -65 67 -154q25 -131 45 -147q78 -242 289 -565q4 160 76 628q74 55 66 70q16 72 49 121q61 86 129 92h5q41 0 41 -38q0 -16 -7 -40q-43 -121 -123 -459q-78 -326 -78 -407q-27 -137 -74 -248 q-39 -74 -69 -104q-42 -62 -90 -62h-9q-18 0 -37 31q-33 35 -116 242q-127 229 -230 686q-119 -279 -205 -627q-12 -109 -38 -166q-8 -68 -41 -108q-37 -95 -119 -95h-15q-4 -1 -8 -1q-22 0 -22 32q0 15 6 37z" />
<glyph unicode="o" horiz-adv-x="1370" d="M223 571q-2 211 158 398q129 197 264 272q102 102 323 103q6 0 13 -1q45 6 86 6q238 0 309 -200q97 -107 97 -298q0 -89 -21 -196q-84 -227 -268 -475q-190 -141 -462 -141h-11h-17q-257 0 -440 96q-66 119 -66 245q0 92 35 191zM379 643q-6 -37 -6 -72q0 -133 84 -245 q119 -119 311 -150q188 49 311 135q125 88 187 293v30q0 203 -78 333q-82 135 -332 176q-45 0 -172 -51q-272 -183 -305 -449z" />
<glyph unicode="p" horiz-adv-x="1267" d="M207 88q12 66 35 264q76 164 75 258l76 267q-2 8 -1 15q0 37 38 81q45 39 90 39h6h4q46 0 46 -62q0 -23 -7 -55q-12 -94 -114 -356q26 -1 50 -1q214 0 388 70q319 129 326 240q5 20 4 39q0 106 -150 153q-91 84 -225 84q-29 0 -60 -4q-87 39 -190 39h-14q-168 8 -217 29 q-35 14 -35 46q0 11 4 26q3 46 49 86q33 29 59 28q10 0 19 -4q30 6 69 6q65 0 160 -16q45 3 88 2q268 0 451 -96q200 -85 200 -275q0 -63 -22 -137q-66 -184 -420 -414q-256 -49 -545 -75q-37 -182 -67 -246q-47 -115 -131 -129q-49 4 -50 49q1 21 11 49z" />
<glyph unicode="q" horiz-adv-x="1382" d="M188 530q12 211 197 451q168 154 356 264q80 90 146 113q53 10 121 16q250 -43 395 -205q86 -90 86 -243q0 -92 -31 -209q-92 -254 -319 -537q143 -90 143 -162q0 -8 -2 -16q-6 -35 -53 -84q-35 -35 -60 -35q-6 0 -12 2h-3q-48 0 -189 193q-126 -76 -286 -76h-24 q-28 -1 -54 -1q-235 0 -327 97q-113 105 -113 261q0 78 29 171zM346 537q-2 -18 -2 -37q0 -114 68 -205q129 -82 290 -121q123 39 187 53q-59 128 -60 173q0 17 9 24q2 29 32 65q25 31 68 31q43 -6 125 -215q184 154 215 385q14 64 14 118q0 143 -100 212q-84 121 -238 121 q-53 0 -114 -15q0 14 -9 14q-6 0 -18 -7q-393 -213 -467 -596z" />
<glyph unicode="r" horiz-adv-x="1323" d="M133 70l45 157q14 49 47 189q4 31 29 139l27 145q37 205 149 490q-28 -7 -48 -7q-54 0 -52 48q8 39 57 82q51 45 84 47q57 5 111 5q266 0 469 -122q19 1 37 1q200 0 264 -97q106 -73 106 -245q0 -33 -4 -71q-74 -205 -467 -419q89 -71 172 -160q8 -14 22.5 -42t20.5 -38 q30 -27 30 -60q0 -6 -1 -12q-12 -41 -45 -82q-33 -43 -88 -45q-3 -1 -6 0q-12 0 -27 13q-205 123 -250 417q-227 -72 -454 -71h-19q-25 -174 -55 -211q-34 -120 -102 -120q-6 0 -13 1q-41 0 -39 68zM455 430q188 92 419 162q338 127 422 231q2 12 2 23q0 142 -321 241 q-90 35 -246 36q-69 0 -151 -7q-49 -22 -125 -686z" />
<glyph unicode="s" horiz-adv-x="1239" d="M166 170q14 61 47 92q32 30 82 30q9 0 18 -1q6 1 16 1q37 0 140 -18q112 -44 244 -43q53 0 110 7q47 -16 86 -17q19 0 37 4q109 18 111 66q4 12 4 24q0 89 -242 170q-406 39 -401 117q-176 117 -176 279q0 25 4 51q49 225 295 305q154 110 316 110q65 0 132 -18 q107 18 186 18q214 0 214 -133q0 -27 -9 -59l-102 -151q-53 -76 -120 -76h-5q-27 6 -43 28q-8 20 -8 43q0 11 2 21q6 47 49 78q-65 49 -264 55q-13 1 -26 1q-217 0 -374 -148q-47 -2 -51 -23q-8 -24 -7 -45q0 -109 198 -166q203 -47 477 -117q155 -94 155 -248 q0 -39 -10 -81q-53 -143 -221 -273q-111 -34 -274 -33h-54q-119 -14 -286 -16q-135 49 -207 80q-47 31 -47 64q0 11 4 22z" />
<glyph unicode="t" horiz-adv-x="1460" d="M322 1249q45 35 102 54q4 -4 14 -7q8 -2 21 -2q32 -1 68 -1q196 0 505 42q344 47 631 92q68 -26 68 -74q0 -9 -2 -20q-28 -80 -130 -135h-110q-72 -4 -127 -16h-12q-73 0 -211 -33q-117 -12 -260 -23q-23 -131 -113 -358q-33 -299 -76 -365l-22 -184q-72 -210 -146 -210 q-5 0 -10 1q-6 -3 -12 -2q-22 0 -29 33q2 68 41 240q49 150 66 432q88 319 133 397q-217 -4 -328 -12q-115 3 -115 46q0 63 54 105z" />
<glyph unicode="u" horiz-adv-x="1376" d="M231 594q-2 15 -1 32q0 134 114 335q90 238 129 313q68 66 113 72q6 1 10 0q41 0 41 -33q0 -13 -6 -31q2 -14 -6 -33q-2 -8 -121 -309q-90 -137 -107 -260q-32 -80 -32 -154q0 -124 90 -229q112 -74 294 -74q53 0 111 6q14 -1 28 -1q158 0 261 155q61 88 108 354 q25 63 58 271q23 144 22 214q0 37 -6 56q-2 41 43 78q47 37 99 53q57 0 69 -246q-45 -272 -69 -383q-102 -287 -240 -551q-172 -180 -474 -180h-20h-34q-259 0 -445 88q-67 118 -67 250q0 100 38 207z" />
<glyph unicode="v" horiz-adv-x="1226" d="M317 1249q-3 49 37 86q37 33 95 47q2 0 3 1q26 0 44 -44q33 -70 55 -313q55 -262 67 -762l549 754q-4 80 45 149l119 168q45 63 96 70q25 -6 43 -27q12 -13 12 -35q0 -12 -3 -26q-8 -20 -27 -57q-8 -12 -149 -211q-74 -117 -398 -578q-37 -94 -94 -221l-178 -213 q-76 -63 -137 -70h-4q-25 0 -39 39q-2 18 -23 160q4 51 4 101q0 79 -10 157q-66 163 -66 344q0 36 2 72q-45 276 -45 375q0 21 2 34z" />
<glyph unicode="w" horiz-adv-x="1703" d="M322 1260q10 41 63 81q57 45 84 48h4q30 0 41 -50q18 -38 18 -104q0 -18 -2 -37q4 -74 21 -149q8 -76 8 -183q0 -169 -20 -432l426 557q0 6 -1 12q0 89 44 150q31 76 79 127q43 60 92 60q3 0 5 -1q51 -2 76 -102q0 -5 -1 -12q0 -46 21 -293q14 -334 121 -586 q78 324 262 668q-5 22 -5 46q0 50 21 105q35 92 74 152q66 78 113 82h5q56 0 56 -53q0 -14 -4 -31q0 -6 -8 -25q-88 -190 -303 -731q-59 -182 -119 -315q-39 -125 -84 -211q-78 -84 -128 -84h-3q-37 0 -66 41q-20 51 -75 227q-25 459 -103 752q-139 -233 -305 -641 q-66 -47 -86 -113l-86 -135q-92 -82 -143 -94q-39 4 -41 73q-7 18 -7 74q0 18 1 41q0 18 -3.5 57t-6.5 105.5t-7 130.5q-3 47 -3 113q0 249 46 727q-71 -48 -71 -47z" />
<glyph unicode="x" horiz-adv-x="1247" d="M76 78q25 90 420 534l-136 662q14 45 46 90q28 41 64 41q9 0 17 -2h5l38 -23q6 -8 82 -166q47 -137 156 -299q115 61 264 218q154 131 234 210q49 33 73 39q25 0 41 -22q9 -13 10 -31q0 -14 -6 -31q-4 -20 -47 -71l-135 -158l-381 -315q326 -447 327 -624q0 -50 -26 -79 q-9 -28 -49 -74q-31 -35 -60 -35q-8 0 -16 3q-2 0 -4 -1q-18 0 -32 23l-113 176q-6 96 -119 398q-169 -83 -326 -301q-63 -53 -192 -187q-34 -60 -76 -60q-4 0 -8 1q-27 6 -43 26q-12 15 -12 34q0 11 4 24z" />
<glyph unicode="y" horiz-adv-x="1347" d="M246 156q12 51 47 94q31 40 79 39h13q2 4 12 2q194 -72 326 -72q31 0 59 4q50 -10 88 -9q59 0 97 24q61 40 147 165l113 310q-303 -180 -594 -240q-207 25 -289 205q-68 86 -68 218q0 70 19 155q49 287 197 344q20 -12 55 -43q20 -18 8 -58q-4 -14 -14.5 -40.5 t-22.5 -65.5q-25 -74 -24 -86q-18 -60 -18 -110q0 -87 54 -142q82 -82 215 -133q170 41 275 90q137 94 235 213q10 117 15 229q25 57 63 90q37 51 101 52h2q47 0 47 -84q0 -52 -19 -138q-14 -70 -14 -227.5t-59 -255.5q-90 -256 -232 -498q-158 -146 -432 -145h-22 q-90 -29 -225 -29h-25l-179 76q-33 24 -33 51q0 7 3 15z" />
<glyph unicode="z" horiz-adv-x="1378" d="M121 61q0 49 51 103q57 76 141 162q96 57 176 143q272 246 668 659q-232 51 -399 52q-134 0 -226 -33q-121 12 -145 33q-43 17 -43 45q0 7 2 16q0 53 43 88q45 35 100 47q5 1 15 1q24 0 178 -9q135 -4 365 -45q184 34 277 34q75 0 91 -22q18 3 34 3q63 0 63 -45 q0 -9 -3 -19q-29 -63 -61 -109q-63 -100 -361 -354q-172 -160 -671 -682q166 92 440 98q195 47 350 48q79 0 148 -13h3q25 0 25 -32q0 -16 -6 -40q-25 -74 -125 -133q-15 -2 -46 -2q-73 0 -218 11q-77 2 -147 2q-466 0 -672 -88q-52 15 -52 55q0 12 5 26z" />
<glyph unicode="{" horiz-adv-x="1073" d="M160 602q39 106 155 156l127 30q94 -6 152 27q-6 61 -23 125q-10 82 -2 119q46 276 424 301q35 55 41 55q55 0 37 -80q-6 -63 -72 -98q-20 -14 -106 -51q-90 -39 -117 -41q-6 -6 -12 -23q-6 -45 20 -133q29 -90 -2 -141q-4 -76 -67 -150q66 -53 53 -161q-23 -37 -80 -156 q-52 -108 -61 -160q2 -23 16 -22q49 6 129 37q72 29 129 34q31 -3 49 -24q18 -20 2 -58q-23 -68 -174 -161q-127 -29 -215 -35q-80 0 -125 39q-20 63 4 137q2 63 70 174q51 117 51 160q-41 16 -94 20q-23 4 -51 2q-23 -2 -45 -2q-211 -24 -213 80z" />
<glyph unicode="|" horiz-adv-x="530" d="M41 -264q6 12 12 31q138 329 160 663q121 459 252 803q-12 90 39 194q49 115 135 113q23 4 32 -17.5t1 -66.5q-6 -16 -88 -344q-45 -229 -133 -608q-55 -217 -193 -580q25 -20 2 -141q-76 -111 -151 -105q-35 2 -52.5 16.5t-15.5 41.5z" />
<glyph unicode="}" horiz-adv-x="1081" d="M297 63q18 59 61 97q29 16 123 47q82 18 107 55q12 4 16 19q12 45 -8.5 133t-11.5 141q12 70 75 145q-80 25 -36 162q4 49 49 155.5t61 164.5q6 20 -12 20q-45 4 -135 -47t-119 -22q-74 -6 -57 86q27 53 114 106q152 102 297 102q74 -18 99 -75q27 -63 18 -133l-70 -156 q-63 -106 -57 -162q37 -29 74 -22q10 -2 55 -2h57q246 0 197 -99q-12 -35 -51 -82q-41 -49 -84 -49q-41 -14 -135 -16q-102 -33 -148 -45q14 -66 15 -125q27 -70 8 -123q-78 -248 -424 -401q-34 49 -43 49q-53 -1 -35 77z" />
<glyph unicode="~" horiz-adv-x="1277" d="M197 629q6 39 49 88q57 68 155 121q102 55 187 28q84 -6 221 -96q141 -92 178 -57q53 0 113 123q61 123 143 102q74 0 55 -78q-35 -98 -170 -244q-137 -147 -237 -98q-86 -6 -191 92q-106 100 -217 47q-55 10 -122.5 -57.5t-116.5 -52.5q-27 0 -41 31q-16 22 -6 51z" />
<glyph unicode="&#xa1;" horiz-adv-x="491" d="M37 -102q31 115 90 239q106 213 106 230q25 102 93 237q82 143 163 131q41 0 33 -59q-31 -92 -80 -203q-29 -104 -204 -420q27 -33 -39 -149q-47 -80 -127 -74q-27 -4 -36 11.5t1 56.5zM453 1010q25 68 61 129q37 66 104 59q27 2 37.5 -14.5t6.5 -48.5q2 14 -7 -8 l-20 -64q0 -2 -1 -5t-3 -10.5t-4 -13.5q-12 -39 -54 -76q-43 -41 -71 -30q-29 -4 -40 16.5t-9 65.5z" />
<glyph unicode="&#xa2;" horiz-adv-x="1267" d="M219 647q98 309 420 504q242 199 494 168q35 63 161 266q70 70 97 60q31 6 43 -19q14 -27 8 -51q-2 -39 -137 -252l94 -63q63 -70 41 -109q-18 -43 -49 -78q-41 -45 -74 -31q-12 -6 -70 52q-92 31 -88 47l-354 -709q-34 34 44 46q33 5 87 7q94 4 125 -18q58 -22 43 -68 q-6 -43 -47 -84t-78 -47q-25 -10 -78 -14q-223 -18 -334 25l-155 -291q-80 -34 -129 -43q-25 3 -37 30q-12 29 -10 54q10 39 178 260q-244 184 -195 358zM434 731q-37 -135 139 -176q57 88 414 524q-109 39 -262 -35q-156 -76 -215 -157q-80 -80 -76 -156z" />
<glyph unicode="&#xa3;" horiz-adv-x="1363" d="M176 82q43 113 158 160q35 6 78 12q43 20 57 76q6 70 -16 207q-51 -18 -66 -9q-27 6 -16 54q15 43 43 92q-41 119 -4 241q53 193 239 322q186 141 350 113q104 37 146 -35q39 -70 39 -141q-27 -205 -176 -209q-35 -4 -45.5 12t2.5 55q-6 10 8 41q10 23 10 35q6 29 -7 41 t-48 10q-95 12 -172 -55q-117 -66 -146 -146q-2 -59 60 -264q223 8 391 11q45 8 67.5 -4.5t20.5 -45.5q-12 -49 -49 -92q-37 -41 -103 -45q-23 2 -106 2q-82 0 -96 2l-119 -12q20 -63 -6 -139q-9 -68 -56 -129q104 6 170 2l289 -6q145 0 195 -17q66 -16 53 -65 q-31 -92 -141 -150q-18 0 -158 8q-102 2 -412 -26q-293 -29 -360 26q-77 -12 -74 68z" />
<glyph unicode="&#xa4;" horiz-adv-x="1298" d="M293 295q16 55 192 172q-41 98 -26 184q16 76 49 133q-150 180 -131 213q18 57 63 99q49 45 76 45q18 -2 47 -31q29 -49 115 -125q133 80 215 107q57 -8 139 -64q205 125 238 129q25 0 47 -22.5t6 -63.5q-16 -43 -84 -113q-57 -27 -111 -63q31 -76 -8 -199 q-8 -88 -76 -202q78 -113 82 -160q-12 -49 -59 -90q-45 -41 -84 -47q-41 2 -145 178q-57 -25 -93 -23q-76 -12 -143 13q-199 -178 -250 -152q-31 -2 -46 18.5t-13 63.5zM664 735q-18 -70 41 -108q57 -37 116 -64q94 0 119 76q18 127 -106 201q-74 8 -117 -21 q-53 -29 -53 -84z" />
<glyph unicode="&#xa5;" horiz-adv-x="1624" d="M250 418q10 88 112 133q102 10 244 10q80 4 115 0q-238 547 -217 670q4 43 47 84q43 39 84 43q39 -2 59 -41q20 -31 58 -225q78 -213 161 -482q496 506 656 785q53 10 98 10q33 0 47 -21q16 -23 10 -49q-6 -53 -256 -305q-104 -129 -358 -389q377 -49 449 -25 q82 6 57 -65q-25 -70 -121 -123q-4 0 -172 14q-57 -25 -428 -90l23 -39q121 0 321 9q53 4 74.5 -10.5t13.5 -45.5q-41 -115 -147 -157q-63 0 -199 14q-66 -10 -92 -10q-12 -57 -60 -99q-35 -45 -84 -39q-55 -4 -55 121q-25 -16 -180 -55q-117 -6 -193 -12q-63 2 -53 55 q18 104 105 129q76 49 204 59q84 10 156 9l27 84q-385 -41 -441 -23q-45 -8 -60 10.5t-5 65.5z" />
<glyph unicode="&#xa6;" horiz-adv-x="485" d="M117 -276q16 63 47 170q29 98 39 161q6 34 18 129q12 92 25 109q12 45 49 74q43 33 61 32q29 -4 35 -47q-12 -190 -16 -237l-43 -156q-28 -316 -191 -295q-42 -12 -24 60zM342 840q4 63 35 202q111 336 69 412q20 57 52 96q33 45 90 39q45 2 57 -43q-4 -27 -18 -90 l-19 -115q-33 -76 -41 -235q-10 -164 -43 -215q-18 -43 -57 -82q-43 -43 -88 -31q-43 1 -37 62z" />
<glyph unicode="&#xa8;" horiz-adv-x="1159" d="M549 1565q4 8 23.5 54l35.5 85q43 115 133 115q66 -10 41 -99q4 -10 -26 -96q-55 -92 -54 -100q-39 -53 -94 -58q-79 7 -59 99zM1083 1513q-14 37 0 78q14 68 52 146q76 80 125 88q74 6 51 -80q-8 -23 -31 -78q-25 -57 -25 -76q-6 -33 -45 -69q-37 -34 -86 -49 q-31 1 -41 40z" />
<glyph unicode="&#xa9;" horiz-adv-x="2131" d="M356 580q-8 242 193 471q150 231 315 319q82 23 154 53q28 12 74 25q20 10 73 20q96 27 230 29q346 10 600 -223q154 -190 112 -582q-106 -297 -469 -624q-303 -127 -696 -123q-322 -12 -555 104q-133 244 -31 531zM555 659q-100 -258 61 -444q180 -111 400 -109 q412 43 629 160q244 227 251 383q31 80 31 142q-20 207 -184 358t-414 111q-313 68 -532 -164q-187 -109 -242 -437zM866 621q29 162 160 284q172 129 297 129q90 6 129 -12t27 -61q-6 -33 -35 -82q-43 -46 -92 -43q-8 -2 -39 2q-27 4 -47 12q-70 -6 -135.5 -57.5 t-71.5 -118.5q-16 -57 20.5 -87t128.5 -32q2 -4 52 8q51 12 65 2q53 -2 39 -76q-14 -158 -285 -118q-113 -35 -180 43q-66 76 -33 207z" />
<glyph unicode="&#xab;" horiz-adv-x="1603" d="M283 375q10 61 98 123q45 29 264 143q266 143 275 170q29 2 41 -16.5t8 -55.5q-18 -63 -76 -108q-76 -59 -170 -121q-135 -47 -166 -90q100 -51 178 -125q102 -106 90 -168q-6 -39 -57 -84q-53 -47 -84 -41q-47 -8 -192 164q-186 104 -205 166q-6 25 -4 43zM932 401 q15 52 74 105q45 31 258 145q225 96 221 109q35 -6 49 -33q16 -29 10 -55q-25 -63 -110 -131q-80 -25 -220 -88q111 -100 117 -152q94 -86 82 -149q-14 -41 -45 -84q-45 -51 -96 -54q-29 -4 -188.5 123t-139.5 209q-18 28 -12 55z" />
<glyph unicode="&#xad;" horiz-adv-x="1050" d="M373 682q-6 104 141 147q29 12 133 7l414 -107q37 95 31 31q-41 -74 -131 -139q-8 14 -156 51q-358 49 -395 -68q-64 19 -37 78z" />
<glyph unicode="&#xae;" horiz-adv-x="2107" d="M356 571q-10 244 189 467q150 227 311 316q96 27 152 51q43 14 71 22q25 12 74 25q94 25 231 25q340 12 590 -220q147 -184 111 -571q-109 -291 -463 -618q-307 -127 -688 -125q-322 -10 -549 104q-133 239 -29 524zM553 651q-98 -260 59 -436q176 -111 392 -109 q424 43 634 166q231 223 242 373q29 76 29 135q-23 207 -185 355q-164 147 -411 108q-305 68 -522 -164q-183 -109 -238 -428zM813 334q14 37 33 133q14 74 39 143q6 37 12 111q6 80 25 113q4 41 16 63l-78 -23q-59 -6 -39 68q4 84 84 129q88 49 240 57q100 39 211 29 q115 2 198 -65q74 -61 56 -162q-43 -145 -230 -307q52 -144 19 -215q0 -43 -35 -90.5t-90 -36.5q-31 4 -55 43q-16 45 -99 208q-20 -27 -100 -47q-20 -88 -51 -145q-39 -86 -115 -92q-49 6 -41 86zM1059 666q176 88 205 88q125 61 166 125q-6 82 -164 77q-88 -12 -150 -10 q-22 -167 -57 -280z" />
<glyph unicode="&#xaf;" horiz-adv-x="1214" d="M289 1341l102 13l883 137l-55 -277z" />
<glyph unicode="&#xb0;" horiz-adv-x="1026" d="M322 909q59 195 170 246q18 88 176 154q115 59 188 51q145 -18 205 -109q59 -92 51 -213q-53 -139 -219 -303q-168 -166 -318 -104q-129 -6 -188 94q-55 94 -65 184zM514 963q-8 -68 33 -109q43 -43 119 -43q82 -10 159 61q76 70 105 138q3 61 -43 110q-49 23 -125 23 q-29 6 -96 -21q-39 -23 -111 -47q-37 -71 -41 -112z" />
<glyph unicode="&#xb1;" horiz-adv-x="1019" d="M152 94q31 111 131 142q113 12 211 6l346 51q70 -49 65 -107q-35 -117 -139 -129q-6 -14 -156 -20q-14 0 -38.5 -1t-66.5 -2t-75 -1q-123 -31 -209 -25q-69 0 -69 86zM274 694q10 39 43 78q35 41 99 53q33 4 92 -2q66 -6 78 0l4 19l18 84q12 51 8 75q8 43 58 82 q47 37 94 56q63 -12 51 -160q-25 -33 -55 -158q63 0 133 2q18 2 59 5t62 6q47 -8 68.5 -28t13.5 -52q-27 -80 -123 -127q-111 6 -219 18q-47 -18 -76 -96q-29 -80 -29 -92q-37 -111 -135 -105q-45 2 -31 76q-4 14 60 168q-104 16 -223 45q-66 0 -50 53z" />
<glyph unicode="&#xb4;" horiz-adv-x="745" d="M514 1520q0 43 55 98l226 297q78 47 118 53q35 4 46.5 -16.5t1.5 -65.5q-12 -35 -148 -217l-168 -172q-43 -37 -90 -47q-61 7 -41 70z" />
<glyph unicode="&#xb6;" horiz-adv-x="1927" d="M293 709q15 224 264 411q358 272 846 252q301 -2 549 -102q152 -12 139 -64q-6 -47 -63 -88q-53 -39 -93 -51q-8 6 -22 8q-338 90 -516 96q-451 -59 -686 -112q-227 -194 -228 -295q-27 -150 97 -256q119 -106 286 -109q41 283 125 519q15 141 135 178q58 -15 37 -86 q-12 -244 -110 -607q6 -20 4 -67q-12 -76 -84 -123l-60 -342q-94 -132 -73 -125q-55 -92 -115 -98q-37 -2 -50 21.5t-3 70.5q2 47 121 442q-252 -10 -367 142q-205 186 -133 385zM1038 -299q33 127 144 367q104 227 61 389q35 86 76 280q39 184 10 244q14 29 62 76 q39 39 94 49q33 -2 35 -55q0 -47 -41 -183q-18 -402 -68 -503q-150 -416 -199 -648q-53 -72 -127 -77q-27 -2 -38 13t-9 48z" />
<glyph unicode="&#xb7;" horiz-adv-x="393" d="M244 711q-10 29 51 100q59 72 117 47q27 2 37 -19.5t2 -70.5l-15.5 -21.5l-26 -36l-30.5 -42.5q-53 -74 -92 -35q-66 2 -43 78z" />
<glyph unicode="&#xbb;" horiz-adv-x="1427" d="M207 59q4 59 55 101q86 72 182 137q190 119 203 119q-70 59 -162 98q-98 72 -118 115q-29 35 -27 71q20 51 63 91q51 43 78 51q23 2 70 -47q43 -23 82 -54q14 -8 147 -94q89 -31 117 -98q37 -39 27 -80q-6 -43 -60 -92q-74 -70 -325 -258q-266 -98 -306 -142 q-49 8 -26 82zM793 135q23 63 149 170q104 63 236 156q-31 12 -154 104q-131 109 -133 180q-14 14 -4 39q10 41 41 78q33 39 96 51q35 4 233 -170q196 -172 144 -186q14 -37 10 -61q-12 -37 -63 -101q-47 -57 -246 -168q-225 -164 -264 -188q-37 -4 -48 19.5t3 76.5z" />
<glyph unicode="&#xbf;" horiz-adv-x="1325" d="M172 102q33 209 250 289q102 72 321 141l375 86q-23 37 -10 70q2 45 41 86q37 49 88 49q39 -2 63 -51q25 -47 7 -117q-18 -135 -273 -249q-18 -6 -315 -123q-291 -59 -324 -99q-10 2 -14 -8q-23 -70 52 -120t247 -81q209 37 393 134q37 8 43 8q29 -4 41 -25q14 -25 8 -61 q-6 -49 -63 -94q-80 -49 -271 -113q-143 -6 -266 -4q-137 18 -276 43q-129 107 -117 239zM1143 1042q10 29 55 76q37 66 47 72q43 40 74 37q63 -6 45 -76q-16 -43 -64 -113q-53 -53 -106 -55q-57 0 -51 59z" />
<glyph unicode="&#xc0;" horiz-adv-x="1058" d="M43 53q10 45 309 457q88 266 297 569q10 25 66 133q33 59 94 144q49 68 113 53q45 0 51 -61q35 -86 41 -252l-10.5 -120t-5.5 -71.5t1 -23.5q0 -293 37 -729q23 -14 21 -23q-6 -45 -53.5 -92t-88.5 -49q-63 6 -90 151q-27 16 -86 23q-34 -3 -86 0q-57 4 -88 -2l-301 43 q-104 -249 -160 -215q-35 -4 -50 12t-11 53zM360 293l523 39q-92 264 -78 749q-62 -120 -445 -788zM739 1909q2 49 60 96q53 45 90 45q29 -2 51 -51q12 -63 68 -170q10 -66 47 -141q10 -47 4 -64q-10 -33 -55 -92q-41 -53 -78 -39q-25 -4 -47 23q-41 25 -91 202 q-49 176 -49 191z" />
<glyph unicode="&#xc1;" horiz-adv-x="1073" d="M23 43q18 57 329 489q96 264 246 478q51 94 90 192q59 86 117 144q46 46 98 67q45 -6 53 -61q37 -94 37 -236q-25 -199 -10 -233q55 -279 53 -793l6 39q-10 -41 -55 -96q-47 -55 -96 -47q-47 0 -60 180q-47 -10 -118 -4q-33 -8 -80 -8q-51 0 -78 10l-291 -4 q-100 -172 -186 -189q-69 19 -55 72zM354 291l398 -8q8 301 -33 766q24 -74 -365 -758zM872 1556q0 43 56 99l223 297q82 49 121 55q35 4 46 -17.5t1 -66.5q-14 -37 -148 -217l-167 -170q-47 -41 -91 -49q-61 6 -41 69z" />
<glyph unicode="&#xc2;" horiz-adv-x="1095" d="M53 59q4 35 289 521l258 505q86 47 121 119q45 92 106 152q66 61 99 47q39 0 61 -66q6 -188 8 -221q-18 -190 9 -233q37 -291 88 -654l-14.5 -50t-10.5 -35.5t-4 -14.5q-12 -47 -59 -98q-45 -49 -86 -39q-55 0 -64 178q-43 -16 -117 -2q-29 -12 -73 -4q-49 10 -89 -2 l-303 -2q-51 -104 -91 -150.5t-72 -34.5q-83 4 -56 84zM438 324l387 -25q-45 262 21 711q-91 -35 -408 -686zM563 1538q6 35 162 244q139 115 186 178q46 61 111 80q41 2 207 -205q167 -210 86 -231q-10 -27 -51 -82q-37 -49 -74 -35q-51 0 -119 153q-82 55 -115 166 q-55 -88 -118 -151q-49 -80 -107 -129q-55 -49 -115 -58q-25 -2 -43 17q-22 22 -10 53z" />
<glyph unicode="&#xc3;" horiz-adv-x="1153" d="M70 51q10 55 327 471l236 541q76 74 117 131q45 90 104 143q68 61 90 70q25 2 38 -13.5t17 -45.5q37 -88 29 -238q12 -162 -2 -227q33 -254 41 -785l21 32q-8 -44 -54 -91q-41 -43 -94 -53q-57 12 -78 155q-29 23 -88 19q-37 0 -94 -6q-59 -6 -80 8l-315 -8 q-66 -158 -162 -185q-61 19 -53 82zM356 334l496 45q-2 227 -61 631q-9 -33 -435 -676zM508 1550q10 92 158 174q96 47 206 60q72 -16 152 -80q80 -66 174 -35q43 4 113 55q55 41 86 60q33 -6 47 -33q12 -25 6 -55q-6 -20 -29 -54q-51 -63 -135 -104q-82 -39 -172 -59 q-72 -14 -168 47q-94 61 -160 39q-66 6 -125 -33t-104 -45q-37 -2 -49 14t0 49z" />
<glyph unicode="&#xc4;" horiz-adv-x="1112" d="M55 55q20 51 322 410q98 289 289 553q8 100 59 186q51 98 115 152q68 59 94 53q47 6 53 -66q25 -90 23 -243q34 -194 6 -215q53 -244 35 -740q12 -2 18 -7t4 -9q-12 -51 -49 -88q-39 -39 -90 -51q-59 0 -80 149q-35 18 -106 19q-16 4 -80 -2q-59 -6 -82 10l-318 -10 q-100 -156 -145 -176q-74 -1 -68 75zM389 324l426 2q-35 279 16 667q-70 -27 -442 -669zM602 1565q10 27 60 139q47 115 135 115q66 -10 41 -99q2 -8 -29 -96q-51 -90 -51 -100q-39 -53 -94 -58q-82 7 -62 99zM1139 1513q-14 37 0 78q16 78 51 146q76 80 125 88q71 6 49 -80 q-16 -47 -29 -78q-25 -57 -24 -76q-6 -37 -45 -69q-41 -35 -88 -49q-33 1 -39 40z" />
<glyph unicode="&#xc5;" horiz-adv-x="1163" d="M45 61q14 37 328 517q125 201 250 471l100 151q39 86 104 156q63 66 95 47q25 4 40 -10.5t17 -49.5q18 -88 41 -229q0 -205 -19 -231q61 -213 121 -797q-31 27 -44 37t-15 6q-10 -41 -59 -86q-41 -37 -86 -57q-66 -4 -62 161q-49 12 -108 9q-33 4 -99 -2q-59 -6 -78 6 l-270 20q-119 -199 -199 -198q-35 -4 -50 15t-7 64zM408 406l383 -103q25 281 -56 684q23 -18 -327 -581zM684 1812q57 193 170 246q18 88 176 154q117 61 191 49q147 -18 204 -107q58 -89 50 -215q-47 -135 -218 -301q-168 -166 -317 -104q-129 -6 -188 94q-59 98 -68 184z M883 1870q-23 -66 30 -111q51 -45 111 -47q88 2 166 60q74 53 106 129q0 68 -47 114q-57 41 -104 39q-59 -4 -117 -20q-82 -51 -104 -62q-39 -67 -41 -102z" />
<glyph unicode="&#xc6;" horiz-adv-x="1789" d="M57 41q4 27 156 233q135 276 489 748q-6 170 23 176q66 96 109 148q55 70 96 59q49 0 57 -74q16 -72 10 -248q35 -176 11 -223q57 143 90 254q-29 29 -23 72q14 41 47 78q31 33 76 57q33 20 68 22q16 -2 28 -10q63 12 518 62q110 -26 111 -17q70 -6 45 -65 q-16 -80 -106 -101q-12 -12 -185 -30q-150 14 -422 -43q2 -57 -129 -389q219 63 441 102q90 -33 65 -111q-18 -90 -116 -110q-20 -6 -127 -25q-215 -23 -320 -16q-12 -47 -16 -80q-43 -180 0 -265t170 -75l225 88q170 68 262 31q76 10 70 -66q-31 -84 -129 -137q-12 3 -99 0 q-113 -20 -198 -59q-188 -39 -232 -54q-123 0 -182 65.5t-86 168.5l-592 -6q-12 -137 -37 -144q-57 -78 -123 -88q-63 9 -45 72zM418 309l413 37q-49 242 -12 598q-88 -33 -401 -635z" />
<glyph unicode="&#xc8;" horiz-adv-x="1099" d="M141 387q43 199 127 377q143 301 152 379q-45 12 -37 51q31 104 109 129q51 39 83 33q18 4 27 -10q276 80 674 40q15 2 12 -20q-2 -13 -10 -35q-2 -72 -94 -123q-51 -4 -187 -26q-104 8 -428 -23q-10 -51 -86 -348q123 12 394 55q72 -41 63 -112q-23 -94 -104 -115 q-10 0 -29 -2t-49.5 -3t-55.5 -3q-39 -2 -337 -33q0 -31 -11 -72q-92 -332 164 -338q53 6 232 66q168 57 254 63q100 -18 67 -81q-6 -115 -158 -146q-109 -27 -258 -37q-59 -35 -112 -47q-55 -12 -121 -16q-347 10 -281 397zM725 1884q2 49 61 98q55 47 91 43q31 -4 53 -51 q14 -68 63 -170q10 -59 49 -141q10 -45 5 -61q-14 -37 -56 -95q-39 -55 -78 -39q-23 -2 -47 25q-41 25 -90 201q-51 186 -51 190z" />
<glyph unicode="&#xc9;" horiz-adv-x="1032" d="M162 473q-8 94 90 328q76 195 113 358q-28 -9 -13 43q31 98 109 123q43 29 82 35q14 0 26 -12q299 6 648 77q37 -37 24 -90q-2 -84 -96 -114q-43 -12 -178 -11q-109 -31 -424 -90q-10 -35 -168 -338q197 47 426 66q66 -8 91.5 -30.5t10.5 -63.5q-16 -76 -123 -115 q-8 -2 -127 -23q-127 -20 -286 -18q-39 -33 -45 -72q-45 -166 -9.5 -244.5t150.5 -72.5q84 -6 237 43q150 47 271 51q41 -2 57 -16.5t12 -44.5q-18 -98 -161 -166q-168 -25 -240 -39q-59 -8 -125 -29l-71 -11t-60 -11q-178 -10 -232.5 110.5t11.5 376.5zM786 1520 q0 43 56 98l225 297q78 45 121 53q35 4 46 -16.5t1 -65.5q-12 -35 -148 -217l-167 -172q-43 -37 -91 -47q-63 7 -43 70z" />
<glyph unicode="&#xca;" horiz-adv-x="1052" d="M203 449q-37 117 51 313q131 268 125 379q-23 18 -17 53q27 117 109 129q45 43 88 37q16 0 25 -14q338 63 665 0q20 30 20 -5q0 -8 -1 -18q-31 -78 -117 -102q-39 -10 -166 -17q-108 -12 -405 0l-154 -411q121 16 455 30q57 18 47 -69q-28 -86 -123 -111q-25 -8 -139 -18 q-127 -10 -293 -33q-33 -31 -35 -66q-52 -283 166 -344q18 2 246 51q184 39 225 74q102 10 84 -59q-27 -131 -170 -168q-109 -6 -240 -35q-66 -20 -127 -43q-84 -8 -121 -16q-309 43 -198 463zM526 1538q2 33 160 244q143 119 188 178q47 61 109 80q41 2 207 -205 q167 -210 86 -231q-12 -33 -49 -82q-39 -51 -76 -35q-49 0 -119 153q-78 53 -114 166q-47 -80 -119 -151q-52 -83 -105 -129q-55 -49 -114 -58q-25 -4 -45.5 16.5t-8.5 53.5z" />
<glyph unicode="&#xcb;" horiz-adv-x="1071" d="M184 496q-10 61 72 325q152 213 154 322q-45 12 -27 57q29 90 106 115q47 41 76 43q23 4 33 -12q334 55 631 32q31 10 41 -3t2 -48q-14 -78 -107 -117q-25 -4 -188 13q-76 -27 -416 -68q-8 -68 -135 -348q163 18 455 6q31 4 44 -10.5t11 -48.5q-16 -74 -109 -121 q-43 0 -127 -17q-95 -18 -350 -12q10 -39 4 -78q-109 -299 146 -325q76 2 254 30t233 68q53 2 74.5 -9t13.5 -36q-28 -138 -153 -148q-147 -43 -263 -63q-49 -20 -116 -35q-80 -20 -121 -14q-373 -49 -238 502zM559 1565l62 139q43 115 133 115q66 -10 41 -99q4 -10 -27 -96 q-55 -92 -53 -100q-39 -53 -94 -58q-82 7 -62 99zM1096 1513q-14 37 0 78q14 68 51 146q76 80 125 88q74 6 51 -80q-8 -23 -31 -78q-25 -57 -24 -76q-6 -33 -45 -69q-37 -34 -86 -49q-35 3 -41 40z" />
<glyph unicode="&#xcc;" horiz-adv-x="731" d="M53 35q25 102 88 127q51 31 168 37q45 160 84 491q135 317 162 447q-27 20 -63 14q-41 0 -52 2q-74 4 -98.5 26.5t-3.5 63.5q0 47 39 92t76 33q41 0 114 -6q78 -6 119 10l150 21q77 -22 104 -31q53 -16 35 -68q-12 -111 -117 -131q-29 -10 -88 -6q0 -2 -65 -6 q-82 -580 -226 -934q90 10 174 -4q41 10 57.5 -10.5t6.5 -71.5q-6 -88 -117 -125q-74 -12 -147 -26q-260 -20 -344 -9q-62 7 -56 64zM524 1888q2 49 59.5 96.5t90.5 45.5q31 -2 51 -52q12 -61 68 -172q10 -63 47 -139q10 -47 4 -63q-10 -33 -53 -93q-41 -55 -80 -38 q-25 -2 -47 22q-41 25 -91 203q-49 175 -49 190z" />
<glyph unicode="&#xcd;" horiz-adv-x="729" d="M37 41q6 84 90 129l149 39q33 170 84 508q143 270 162 440h-55q-41 -8 -53 -6q-117 -14 -121 86q20 57 49 94q35 45 94 39q43 0 111 10q82 12 108 -8l156 -4q66 -2 109 -6q47 -10 32 -62q-18 -94 -121 -147q-25 -2 -79 -2q-6 2 -66 2q-203 -578 -268 -979q109 41 221 57 q76 -6 57 -88q-29 -121 -139 -120q-23 -23 -115 -21q-270 -29 -358 -31q-35 -4 -47 13.5t0 56.5zM614 1520q0 43 56 98l225 297q78 45 121 53q33 2 44 -17.5t1 -64.5q-10 -33 -146 -217l-170 -172q-43 -37 -90 -47q-61 7 -41 70z" />
<glyph unicode="&#xce;" horiz-adv-x="884" d="M86 43q14 84 80 125q51 20 164 16q29 139 139 455q4 336 82 518q-14 0 -37 -2h-51q-74 -2 -102.5 18.5t-12.5 65.5q9 43 55 86q47 43 76 49q25 -4 111 -4q84 0 115 2l145 4q72 -2 115 -16q43 -18 34 -57q-29 -121 -122 -146q-45 0 -80 -2q-4 0 -72 -6 q-143 -508 -248 -973q115 59 217 49q68 0 47 -94q-8 -100 -139 -129q-23 0 -127 -20q-272 20 -344 -11q-76 6 -45 72zM379 1538q6 39 160 244q139 115 186 178q46 61 111 80q41 2 206 -205q167 -210 86 -231q-10 -27 -51 -82q-37 -49 -73 -35q-51 0 -119 153 q-82 55 -115 166q-55 -88 -119 -151q-53 -84 -106 -129q-59 -49 -115 -58q-25 -2 -43 17q-20 20 -8 53z" />
<glyph unicode="&#xcf;" horiz-adv-x="833" d="M78 39q23 92 92 131q59 18 158 25q51 172 88 471q96 297 143 475q-2 14 -41 18q-28 -6 -49 -6q-135 2 -117 88q12 43 56 84q41 37 75 41q55 4 121 14q78 12 113 -10l143 -14q84 10 109 6q55 -9 43 -55q-29 -127 -113 -133q-39 -18 -92 -19h-64q-188 -645 -208 -905 q53 -35 159 -14q72 -12 51 -86q-2 -117 -118 -144q-12 -2 -127 -6q-279 -72 -361 -35q-33 -2 -48 17.5t-13 56.5zM389 1565q4 8 23.5 54l36.5 85q47 115 135 115q66 -8 41 -99q2 -8 -29 -96q-51 -90 -51 -100q-39 -53 -94 -58q-82 7 -62 99zM924 1513q-14 33 2 78 q16 78 51 146q76 80 125 88q71 6 49 -80q-16 -47 -29 -78q-25 -57 -24 -76q-6 -33 -45 -69q-35 -33 -88 -49q-31 1 -41 40z" />
<glyph unicode="&#xd1;" horiz-adv-x="1161" d="M86 45q18 156 145 399q35 180 82 398l21 182q45 166 97 248t114 80q33 12 51 -23q31 -59 53 -158q47 -127 58 -151q63 -199 297 -645q-12 227 112 663q6 33 12.5 62.5l9.5 42.5l3 12q18 68 47 115q43 111 131 116q59 -8 45 -81l-96 -445q-63 -295 -123 -475 q-27 -100 -72 -229q-14 -39 -55 -88q-57 -57 -105 -64q-18 6 -41 35q-25 49 -135 246q-63 260 -276 637q-47 -201 -82 -623q-66 -55 -86 -113q-12 -70 -43 -125q-63 -104 -125 -98q-57 6 -39 82zM500 1550q10 92 157 174q96 47 207 60q72 -16 152 -80q80 -66 174 -35 q43 4 113 55q55 41 86 60q31 -6 45 -33t8 -55q-4 -10 -29 -54q-49 -61 -137 -104q-84 -41 -170 -59q-74 -14 -170 47q-94 59 -158 39q-66 6 -125 -33t-102 -45q-37 -2 -50 14t-1 49z" />
<glyph unicode="&#xd2;" d="M168 592q43 205 151 346q129 231 310 279q102 162 385 151q233 -6 356 -250q147 -166 19 -471q0 -276 -211 -444q-188 -219 -533 -189q-272 -57 -389 125q-131 197 -88 453zM377 666q-80 -199 76 -328q111 -162 297 -162q205 6 305 125q101 120 166 320q86 264 -43 368 q-127 102 -340 180l-176 -69q-213 -151 -285 -434zM793 1888q2 49 59 96.5t88 45.5q33 -4 53 -52q12 -61 68 -172q10 -63 47 -139q10 -47 4 -63q-10 -33 -53 -93q-41 -55 -80 -38q-25 -2 -47 22q-41 25 -90 203q-49 175 -49 190z" />
<glyph unicode="&#xd3;" horiz-adv-x="1382" d="M156 553q68 223 206 420q119 170 302 274q68 100 327 154q266 -72 441 -215q115 -223 -2 -510q-37 -250 -230 -500q-272 -217 -491 -209q-279 27 -402 178q-208 195 -151 408zM352 657q-41 -176 121 -333q106 -121 287 -113q223 4 356 94q135 92 135 318q45 205 -43 354 q-88 147 -383 160q-25 8 -139 -66q-236 -95 -334 -414zM942 1520q-3 43 55 98l226 297q74 45 118 53q35 2 46.5 -17.5t1.5 -64.5q-12 -35 -148 -217l-168 -172q-43 -37 -90 -47q-61 7 -41 70z" />
<glyph unicode="&#xd4;" horiz-adv-x="1361" d="M166 555q80 254 207 408q102 178 278 251q98 145 328 146q315 33 407 -240q139 -131 39 -420q-61 -342 -235 -514q-197 -172 -492 -190q-274 10 -434 131q-149 229 -98 428zM367 629q-20 -193 57 -316q132 -114 326 -98q229 -6 348 104q117 106 141 302q41 272 -35 395 t-346 127q-61 2 -158 -51q-239 -180 -333 -463zM664 1538q6 39 159 244q139 115 187 178q46 61 110 80q41 2 207 -205q167 -210 86 -231q-12 -33 -49 -82q-39 -51 -76 -35q-51 0 -119 153q-82 55 -114 166q-55 -88 -119 -151q-52 -83 -105 -129q-55 -49 -114 -58 q-25 -4 -45 16.5t-8 53.5z" />
<glyph unicode="&#xd5;" horiz-adv-x="1386" d="M170 590q39 170 188 362q94 184 312 310q59 88 338 133q233 -35 358 -205q174 -227 102 -490q-72 -299 -276 -487q-238 -250 -512 -176q-281 -74 -381 145q-149 144 -129 408zM354 662q-55 -188 113 -328q92 -137 309 -105q156 -33 295 84q137 117 191 312 q23 246 -60 395q-80 147 -340 90q-70 27 -168 -39q-297 -141 -340 -409zM602 1550q10 92 158 174q96 47 207 60q72 -16 151 -80q80 -66 174 -35q43 4 113 55q55 41 86 60q31 -6 45 -33t8 -55q-2 -14 -28 -54q-51 -63 -136 -104q-82 -39 -172 -59q-72 -14 -168 47 q-94 61 -159 39q-68 6 -127.5 -33t-102.5 -45q-37 -2 -49 14t0 49z" />
<glyph unicode="&#xd6;" horiz-adv-x="1392" d="M211 621q10 147 149 360q106 160 283 285q113 100 377 100q233 12 414 -192q111 -244 14 -451q-68 -362 -223 -494q-211 -229 -533 -235q-276 -37 -391 153q-190 171 -90 474zM391 705q-76 -254 58 -383q109 -141 352 -123q156 27 303 137q147 109 149 264 q76 231 -73.5 374.5t-345.5 168.5q-39 2 -129 -53q-267 -149 -314 -385zM694 1565l62 139q43 115 133 115q66 -10 41 -99q2 -8 -29 -96q-53 -94 -51 -100q-39 -53 -94 -58q-82 7 -62 99zM1231 1513q-14 37 0 78q14 68 51 146q76 80 125 88q71 6 49 -80q-16 -47 -29 -78 q-25 -57 -24 -76q-6 -33 -45 -69q-35 -33 -88 -49q-33 1 -39 40z" />
<glyph unicode="&#xd7;" horiz-adv-x="1060" d="M240 406q6 43 63 90q18 33 213 157q-25 83 -67 148q-70 80 -62 121q10 43 53 96q47 55 95 35q25 6 53 -19q33 -33 76 -106q78 -72 79 -84q339 266 336 227q68 10 43 -94q-16 -43 -116 -143q-63 -35 -148 -99q47 -47 82 -110q63 -57 55 -113q-16 -41 -49 -84 q-31 -39 -88 -43q-43 -4 -190 141q-121 -43 -273 -155q-70 -55 -96 -49q-34 -6 -55 18q-22 27 -4 66z" />
<glyph unicode="&#xd8;" horiz-adv-x="1357" d="M160 567q82 207 198 394q158 180 285 292q88 94 361 95q76 20 135 2q43 88 65 120q53 88 113 70q39 8 55.5 -10.5t7.5 -59.5q-8 -14 -96 -213q147 -74 162 -241q70 -135 10 -350q-84 -233 -272 -486q-195 -145 -473 -141q-74 -35 -150 -37l-39 -78q-41 -61 -78 -149 q-61 -88 -149 -97q-33 -4 -47.5 12.5t-11.5 53.5q10 31 145 307q-121 104 -168 213q-51 117 -53 303zM381 655q-47 -221 123 -397l510 780q-63 94 -176 101q-37 6 -156 -47q-209 -136 -301 -437zM774 203q209 10 346 102q135 92 133 295q80 326 -102 432q-96 -154 -373 -831 h-26t22 2z" />
<glyph unicode="&#xd9;" d="M178 612q25 133 103 314q94 270 174 331q72 100 114 91q55 0 41 -72q0 -10 -10 -27q-10 -31 -141 -315q-61 -111 -107 -252q-61 -203 125 -358q113 -106 324 -99q236 4 338 127q47 102 121 330q-10 125 -5 307q6 188 31 293q25 39 70 82q47 45 90 53q59 -6 47 -289 q-20 -211 -66 -354q-31 -356 -202 -522q-169 -264 -553 -227q-287 -63 -408 118q-135 199 -86 469zM809 1888q2 49 59.5 96.5t89.5 45.5q33 -4 54 -52q14 -68 65 -172q10 -63 47 -139q10 -47 4 -63q-10 -33 -53 -93q-41 -55 -80 -38q-25 -2 -47 22q-41 25 -90 203 q-49 175 -49 190z" />
<glyph unicode="&#xda;" horiz-adv-x="1353" d="M162 573q59 172 162 392q86 211 157 313q49 63 99 76q63 -12 59 -64l-21 -41q-20 -61 -108 -293q-119 -160 -123 -262q-68 -272 92 -346q100 -137 334 -104q238 -31 336 133q39 82 135 346q0 14 1 94t1 146q0 164 35 303q-4 53 45 98q49 47 90 49q80 0 55 -285 q-2 -156 -57 -337q-61 -305 -211 -564q-254 -262 -506 -256q-299 31 -424 176q-210 193 -151 426zM934 1520q0 43 55 98l225 297q78 47 119 53q35 4 46.5 -16.5t0.5 -65.5q-14 -41 -145 -217l-168 -172q-43 -37 -92 -47q-61 7 -41 70z" />
<glyph unicode="&#xdb;" horiz-adv-x="1347" d="M174 578q58 178 160 374q61 213 139 305q66 86 107 91q35 4 47 -14.5t2 -57.5q-6 -18 -11 -27q0 -2 -11 -31.5t-34.5 -99l-52.5 -149.5q-100 -156 -151 -281q-12 -221 123 -389q102 -109 364 -111q147 16 272 189q61 109 156 340q-8 80 10 303q18 221 11 256q14 39 63 82 q47 41 98 53q20 2 35 -26.5t23 -89t12 -154.5l-84 -338q-94 -403 -217 -567q-172 -211 -508 -234q-286 9 -455 129q-153 234 -98 447zM655 1538q6 39 160 244q143 119 189 178q46 61 110 80q41 2 207 -205q167 -210 86 -231q-10 -27 -51 -82q-37 -49 -74 -35q-51 0 -119 153 q-78 53 -114 166q-55 -88 -119 -151q-49 -80 -107 -129q-55 -49 -112 -58q-27 -4 -47.5 16.5t-8.5 53.5z" />
<glyph unicode="&#xdc;" horiz-adv-x="1366" d="M221 641q-2 86 105 334q66 193 147 311q74 61 117 62q27 2 40 -13.5t13 -48.5q-8 -16 -20 -37q-6 -20 -170 -299q-47 -131 -84 -260q-6 -229 104 -371q135 -80 344 -112q215 4 316 149q102 133 129 383q29 61 22.5 248t32.5 291q10 43 53 86q45 45 100 45q55 -4 50 -270 q-6 -176 -50 -328q-90 -408 -198 -535q-190 -270 -551 -278q-295 -37 -412 152q-192 172 -88 491zM676 1565q4 8 23.5 54l35.5 85q43 115 135 115q63 -8 39 -99q4 -10 -26 -96q-55 -90 -52 -100q-39 -53 -94 -58q-81 7 -61 99zM1210 1513q-14 33 2 78q14 68 52 146 q76 80 125 88q71 6 49 -80q-16 -47 -29 -78q-25 -57 -25 -76q-6 -33 -45 -69q-35 -33 -88 -49q-31 1 -41 40z" />
<glyph unicode="&#xdd;" horiz-adv-x="1290" d="M231 158q10 45 52 92q43 49 84 39q6 6 18 2q289 -47 397 -78q104 -2 179 31q78 35 145 166q18 74 98 335q-272 -264 -538 -198q-268 -37 -367 141q-49 115 -6 356q29 346 207 340q18 -12 30 -38q12 -29 11 -54q-10 -18 -39 -96q-23 -57 -29 -92q-10 -164 47 -268 q57 -106 225 -76q123 -25 269 47q135 61 227 211q0 152 29 227q4 57 45 103q45 51 94 51q106 -6 27 -244q8 -55 -9 -201q-14 -131 -57 -262q-57 -270 -207 -508q-231 -219 -469 -213q-104 28 -221 49q-190 47 -223 66q-29 31 -19 72zM866 1520q-3 43 56 98l225 297 q78 47 119 53q35 4 46 -16.5t1 -65.5q-8 -27 -148 -217l-168 -172q-43 -37 -90 -47q-61 7 -41 70z" />
<glyph unicode="&#xde;" horiz-adv-x="1261" d="M256 78q-7 -10 4 23q17 48 76 194q-37 8 -37 29q4 4 23 51q14 23 30 141q16 115 101 387q-14 -8 -21.5 0t-5.5 31q22 61 74 110q25 82 53 224q61 89 160 98q20 4 30.5 -10.5t6.5 -46.5q-2 -45 -19 -113q-4 -27 -14 -63q-8 -47 -15 -62q377 -25 551 -118t146 -255 q-98 -268 -961 -510q10 -33 -10 -82q-43 -88 -143 -108q-54 8 -29 80zM539 444q172 72 354 107q279 117 317 125q20 65 -131 105q-150 40 -473 57q13 -152 -67 -394z" />
<glyph unicode="&#xdf;" horiz-adv-x="1441" d="M227 -426q40 129 37 363q61 323 31 423l39 293q113 283 188 420q162 264 361 273q86 18 182 10q211 6 293 -39q147 -104 86 -277q-27 -158 -238 -286q127 -47 215 -133q61 -101 49 -228q-55 -158 -258 -317q-160 -49 -366 -47q-172 -2 -266 -6q-39 31 -25 69q4 57 55 96 q53 41 90 41q23 -2 107 -22q78 -18 102 0q82 6 193 33q152 61 170 106q0 76 -86 137q-119 88 -332 76q-120 18 -104 80q25 82 120 145q20 12 140 52q111 35 155 53q80 66 92 106q31 104 -96 138q-109 23 -235 4q-115 12 -209 -45q-104 -82 -205 -504q-18 -125 -74 -445 q-59 -344 -55 -473q0 -92 -27.5 -138t-83.5 -44q-74 2 -45 86z" />
<glyph unicode="&#xe0;" horiz-adv-x="1058" d="M43 53q10 45 309 457q88 266 297 569q10 25 66 133q33 59 94 144q49 68 113 53q45 0 51 -61q35 -86 41 -252l-10.5 -120t-5.5 -71.5t1 -23.5q0 -293 37 -729q23 -14 21 -23q-6 -45 -53.5 -92t-88.5 -49q-63 6 -90 151q-27 16 -86 23q-33 -2 -88 0q-59 4 -86 -2l-301 43 q-104 -249 -160 -215q-35 -4 -50 12t-11 53zM360 293l523 39q-92 264 -78 749q-62 -120 -445 -788zM739 1909q2 49 60 96q53 45 90 45q29 -2 51 -51q12 -63 68 -170q10 -66 47 -141q10 -47 4 -64q-10 -33 -55 -92q-41 -53 -78 -39q-25 -4 -47 23q-41 25 -91 202 q-49 176 -49 191z" />
<glyph unicode="&#xe1;" horiz-adv-x="1073" d="M23 43q18 57 329 489q96 264 246 478q51 94 90 192q59 86 117 144q46 46 98 67q45 -6 53 -61q37 -94 37 -236q-25 -199 -10 -233q55 -279 53 -793l6 39q-10 -41 -55 -96q-47 -55 -96 -47q-47 0 -60 180q-47 -10 -118 -4q-33 -8 -80 -8q-59 0 -82 8l-287 -2 q-100 -172 -186 -189q-69 19 -55 72zM354 291l398 -8q8 301 -33 766q24 -74 -365 -758zM872 1556q0 43 56 99l223 297q82 49 121 55q35 4 46 -17.5t1 -66.5q-14 -37 -148 -217l-167 -170q-47 -41 -91 -49q-61 6 -41 69z" />
<glyph unicode="&#xe2;" horiz-adv-x="1095" d="M53 59q4 35 289 521l258 505q86 47 121 119q45 92 106 152q66 61 99 47q39 0 61 -66q6 -188 8 -221q-18 -190 9 -233q37 -291 88 -654l-14.5 -50t-10.5 -35.5t-4 -14.5q-12 -47 -59 -98q-45 -49 -86 -39q-55 0 -64 178q-43 -16 -117 -2q-29 -12 -75 -4q-51 10 -89 -2 l-301 -2q-51 -104 -91 -150.5t-72 -34.5q-83 4 -56 84zM438 324l387 -25q-45 262 21 711q-91 -35 -408 -686zM563 1538q6 35 162 244q139 115 186 178q46 61 111 80q41 2 207 -205q167 -210 86 -231q-10 -27 -51 -82q-37 -49 -74 -35q-51 0 -119 153q-82 55 -115 166 q-55 -88 -118 -151q-49 -80 -107 -129q-55 -49 -115 -58q-25 -2 -43 17q-22 22 -10 53z" />
<glyph unicode="&#xe3;" horiz-adv-x="1153" d="M70 51q10 55 327 471l236 541q76 74 117 131q45 90 104 143q68 61 90 70q25 2 38 -13.5t17 -45.5q37 -88 29 -238q12 -162 -2 -227q33 -254 41 -785l21 32q-8 -44 -54 -91q-41 -43 -94 -53q-57 12 -78 155q-29 23 -88 19q-37 0 -94 -6q-61 -6 -82 8l-313 -8 q-66 -158 -162 -185q-61 19 -53 82zM356 334l496 45q-2 227 -61 631q-9 -33 -435 -676zM508 1550q10 92 158 174q96 47 206 60q72 -16 152 -80q80 -66 174 -35q43 4 113 55q55 41 86 60q33 -6 47 -33q12 -25 6 -55q-6 -20 -29 -54q-51 -63 -135 -104q-82 -39 -172 -59 q-72 -14 -168 47q-94 61 -160 39q-66 6 -125 -33t-104 -45q-37 -2 -49 14t0 49z" />
<glyph unicode="&#xe4;" horiz-adv-x="1112" d="M55 55q20 51 322 410q98 289 289 553q8 100 59 186q51 98 115 152q68 59 94 53q47 6 53 -66q25 -90 23 -243q34 -194 6 -215q53 -244 35 -740q12 -2 18 -7t4 -9q-12 -51 -49 -88q-39 -39 -90 -51q-59 0 -80 149q-35 18 -106 19q-16 4 -82 -2q-59 -6 -80 8l-318 -8 q-100 -156 -145 -176q-74 -1 -68 75zM389 324l426 2q-35 279 16 667q-70 -27 -442 -669zM602 1565q10 27 60 139q47 115 135 115q66 -10 41 -99q2 -8 -29 -96q-51 -90 -51 -100q-39 -53 -94 -58q-82 7 -62 99zM1139 1513q-14 37 0 78q16 78 51 146q76 80 125 88q71 6 49 -80 q-16 -47 -29 -78q-25 -57 -24 -76q-6 -37 -45 -69q-41 -35 -88 -49q-33 1 -39 40z" />
<glyph unicode="&#xe5;" horiz-adv-x="1163" d="M45 61q14 37 328 517q125 201 250 471l100 151q39 86 104 156q63 66 95 47q25 4 40 -10.5t17 -49.5q18 -88 41 -229q0 -205 -19 -231q61 -213 121 -797q-31 27 -44 37t-15 6q-10 -41 -59 -86q-41 -37 -86 -57q-66 -4 -62 161q-49 12 -108 9q-33 4 -99 -2q-59 -6 -78 6 l-270 20q-119 -199 -199 -198q-35 -4 -50 15t-7 64zM408 406l383 -103q25 281 -56 684q23 -18 -327 -581zM684 1812q57 193 170 246q18 88 176 154q117 61 191 49q147 -18 204 -107q58 -89 50 -215q-47 -135 -218 -301q-168 -166 -317 -104q-129 -6 -188 94q-59 98 -68 184z M883 1870q-23 -66 30 -111q51 -45 111 -47q88 2 166 60q74 53 106 129q0 68 -47 114q-57 41 -104 39q-59 -4 -117 -20q-82 -51 -104 -62q-39 -67 -41 -102z" />
<glyph unicode="&#xe6;" horiz-adv-x="1789" d="M57 41q4 27 156 233q135 276 489 748q-6 170 23 176q66 96 109 148q55 70 96 59q49 0 57 -74q16 -72 10 -248q35 -176 11 -223q57 143 90 254q-29 29 -23 72q14 41 47 78q31 33 76 57q33 20 68 22q16 -2 28 -10q63 12 518 62q110 -26 111 -17q70 -6 45 -65 q-16 -80 -106 -101q-12 -12 -185 -30q-145 14 -422 -43q2 -57 -129 -389q219 63 441 102q90 -33 65 -111q-18 -90 -116 -110q-20 -6 -127 -25q-215 -23 -320 -16q-12 -47 -16 -80q-43 -180 0 -265t170 -75l225 88q170 68 262 31q76 10 70 -66q-31 -84 -129 -137q-12 3 -99 0 q-113 -20 -198 -59q-188 -39 -232 -54q-123 0 -182 65.5t-86 168.5l-592 -6q-12 -137 -37 -144q-57 -78 -123 -88q-63 9 -45 72zM418 309l413 37q-49 242 -12 598q-88 -33 -401 -635z" />
<glyph unicode="&#xe8;" horiz-adv-x="1099" d="M141 387q43 199 127 377q143 301 152 379q-45 12 -37 51q31 104 109 129q51 39 83 33q18 4 27 -10q276 80 674 40q15 2 12 -20q-2 -13 -10 -35q-2 -72 -94 -123q-51 -4 -187 -26q-104 8 -428 -23q-10 -51 -86 -348q123 12 394 55q72 -41 63 -112q-23 -94 -104 -115 q-10 0 -29 -2t-49.5 -3t-55.5 -3q-39 -2 -337 -33q0 -31 -11 -72q-92 -332 164 -338q53 6 232 66q168 57 254 63q100 -18 67 -81q-6 -115 -158 -146q-109 -27 -258 -37q-59 -35 -112 -47q-55 -12 -121 -16q-347 10 -281 397zM725 1884q2 49 61 98q55 47 91 43q31 -4 53 -51 q14 -68 63 -170q10 -59 49 -141q10 -45 5 -61q-14 -37 -56 -95q-39 -55 -78 -39q-23 -2 -47 25q-41 25 -90 201q-51 186 -51 190z" />
<glyph unicode="&#xe9;" horiz-adv-x="1032" d="M162 473q-8 94 90 328q76 195 113 358q-28 -9 -13 43q31 98 109 123q43 29 82 35q14 0 26 -12q299 6 648 77q37 -37 24 -90q-2 -84 -96 -114q-43 -12 -178 -11q-109 -31 -424 -90q-10 -35 -168 -338q197 47 426 66q66 -8 91.5 -30.5t10.5 -63.5q-16 -76 -123 -115 q-8 -2 -127 -23q-127 -20 -286 -18q-39 -33 -45 -72q-45 -166 -9.5 -244.5t150.5 -72.5q84 -6 237 43q150 47 271 51q41 -2 57 -16.5t12 -44.5q-18 -98 -161 -166q-168 -25 -240 -39q-59 -8 -125 -29l-71 -11t-60 -11q-178 -10 -232.5 110.5t11.5 376.5zM786 1520 q0 43 56 98l225 297q78 45 121 53q35 4 46 -16.5t1 -65.5q-12 -35 -148 -217l-167 -172q-43 -37 -91 -47q-63 7 -43 70z" />
<glyph unicode="&#xea;" horiz-adv-x="1052" d="M203 449q-37 117 51 313q131 268 125 379q-23 18 -17 53q27 117 109 129q45 43 88 37q16 0 25 -14q338 63 665 0q20 30 20 -5q0 -8 -1 -18q-31 -78 -117 -102q-39 -10 -166 -17q-108 -12 -405 0l-154 -411q121 16 455 30q57 18 47 -69q-28 -86 -123 -111q-25 -8 -139 -18 q-127 -10 -293 -33q-33 -31 -35 -66q-52 -283 166 -344q18 2 246 51q184 39 225 74q102 10 84 -59q-27 -131 -170 -168q-109 -6 -240 -35q-66 -20 -127 -43q-84 -8 -121 -16q-309 43 -198 463zM526 1538q2 33 160 244q143 119 188 178q47 61 109 80q41 2 207 -205 q167 -210 86 -231q-12 -33 -49 -82q-39 -51 -76 -35q-49 0 -119 153q-78 53 -114 166q-47 -80 -119 -151q-52 -83 -105 -129q-55 -49 -114 -58q-25 -4 -45.5 16.5t-8.5 53.5z" />
<glyph unicode="&#xeb;" horiz-adv-x="1071" d="M184 496q-10 61 72 325q152 213 154 322q-45 12 -27 57q29 90 106 115q47 41 76 43q23 4 33 -12q334 55 631 32q31 10 41 -3t2 -48q-14 -78 -107 -117q-25 -4 -188 13q-76 -27 -416 -68q-8 -68 -135 -348q163 18 455 6q31 4 44 -10.5t11 -48.5q-16 -74 -109 -121 q-43 0 -127 -17q-95 -18 -350 -12q10 -39 4 -78q-109 -299 146 -325q76 2 254 30t233 68q53 2 74.5 -9t13.5 -36q-28 -138 -153 -148q-147 -43 -263 -63q-49 -20 -116 -35q-80 -20 -121 -14q-373 -49 -238 502zM559 1565l62 139q43 115 133 115q66 -10 41 -99q4 -10 -27 -96 q-55 -92 -53 -100q-39 -53 -94 -58q-82 7 -62 99zM1096 1513q-14 37 0 78q14 68 51 146q76 80 125 88q74 6 51 -80q-8 -23 -31 -78q-25 -57 -24 -76q-6 -33 -45 -69q-37 -34 -86 -49q-35 3 -41 40z" />
<glyph unicode="&#xec;" horiz-adv-x="462" d="M166 90q27 143 94 383l90 391l39 195q57 180 115.5 262t118.5 68q45 -4 -7 -152q-4 -166 -81 -481q-74 -297 -113 -486q-109 -256 -225 -293q-56 13 -31 113zM442 1888q2 49 59.5 96.5t90.5 45.5q31 -2 51 -52q12 -61 68 -172q10 -63 47 -139q10 -51 6 -63 q-12 -33 -55 -93q-41 -55 -80 -38q-27 -2 -45 22q-41 25 -92 203q-50 175 -50 190z" />
<glyph unicode="&#xed;" horiz-adv-x="475" d="M63 90q35 147 103 361q94 305 100 399l58 248q43 252 192 307q61 -25 23 -154q-23 -158 -95 -514q-74 -373 -155 -481q-10 -145 -51 -208.5t-113 -49.5q-33 -2 -47.5 20.5t-14.5 71.5zM414 1520q0 45 55 98l225 297q74 45 119 53q35 2 46 -17.5t1 -64.5 q-12 -35 -147 -217l-168 -172q-43 -37 -90 -47q-61 7 -41 70z" />
<glyph unicode="&#xee;" horiz-adv-x="849" d="M293 96q23 106 127 398q80 258 65 356l45 207q98 317 201 325q37 4 44 -25.5t-15 -92.5q-43 -227 -113 -533q-98 -434 -100 -442q-66 -295 -199 -289q-73 -13 -55 96zM356 1538q6 39 160 244q139 115 186 178q46 61 111 80q41 2 207 -205q167 -210 86 -231 q-10 -27 -51 -82q-37 -49 -74 -35q-51 0 -119 153q-82 55 -114 166q-55 -88 -119 -151q-49 -80 -107 -129q-55 -49 -112 -58q-25 -4 -45.5 16.5t-8.5 53.5z" />
<glyph unicode="&#xef;" horiz-adv-x="792" d="M281 84q47 150 92 352q96 332 96 412l39 272q123 264 233 266q51 4 23 -112q-39 -188 -80 -483q-41 -291 -135 -510q-86 -289 -217 -304q-57 19 -51 107zM369 1565q4 8 23.5 54l35.5 85q43 115 135 115q63 -8 39 -99q4 -10 -27 -96q-53 -94 -51 -100q-39 -53 -94 -58 q-81 7 -61 99zM903 1513q-14 33 2 78q14 68 51 146q76 80 125 88q71 6 49 -80q-16 -47 -28 -78q-25 -57 -25 -76q-6 -33 -45 -69q-35 -33 -88 -49q-35 3 -41 40z" />
<glyph unicode="&#xf1;" horiz-adv-x="1161" d="M86 45q18 156 145 399q35 180 82 398l21 182q45 166 97 248t114 80q33 12 51 -23q31 -59 53 -158q47 -127 58 -151q63 -199 297 -645q-12 227 112 663q6 33 12.5 62.5l9.5 42.5l3 12q18 68 47 115q43 111 131 116q59 -8 45 -81l-96 -445q-63 -295 -123 -475 q-27 -100 -72 -229q-14 -39 -55 -88q-57 -57 -105 -64q-18 6 -41 35q-25 49 -135 246q-63 260 -276 637q-47 -201 -82 -623q-66 -55 -86 -113q-12 -70 -43 -125q-63 -104 -125 -98q-57 6 -39 82zM500 1550q10 92 157 174q96 47 207 60q72 -16 152 -80q80 -66 174 -35 q43 4 113 55q55 41 86 60q31 -6 45 -33t8 -55q-4 -10 -29 -54q-49 -61 -137 -104q-84 -41 -170 -59q-74 -14 -170 47q-94 59 -158 39q-66 6 -125 -33t-102 -45q-37 -2 -50 14t-1 49z" />
<glyph unicode="&#xf2;" horiz-adv-x="1161" d="M86 45q18 156 145 399q35 180 82 398l21 182q45 166 97 248t114 80q33 12 51 -23q31 -59 53 -158q47 -127 58 -151q63 -199 297 -645q-12 227 112 663q6 33 12.5 62.5l9.5 42.5l3 12q18 68 47 115q43 111 131 116q59 -8 45 -81l-96 -445q-63 -295 -123 -475 q-27 -100 -72 -229q-14 -39 -55 -88q-57 -57 -105 -64q-18 6 -41 35q-25 49 -135 246q-63 260 -276 637q-47 -201 -82 -623q-66 -55 -86 -113q-12 -70 -43 -125q-63 -104 -125 -98q-57 6 -39 82zM500 1550q10 92 157 174q96 47 207 60q72 -16 152 -80q80 -66 174 -35 q43 4 113 55q55 41 86 60q31 -6 45 -33t8 -55q-4 -10 -29 -54q-49 -61 -137 -104q-84 -41 -170 -59q-74 -14 -170 47q-94 59 -158 39q-66 6 -125 -33t-102 -45q-37 -2 -50 14t-1 49z" />
<glyph unicode="&#xf3;" d="M168 592q43 205 151 346q129 231 310 279q102 162 385 151q233 -6 356 -250q147 -166 19 -471q0 -276 -211 -444q-188 -219 -533 -189q-272 -57 -389 125q-131 197 -88 453zM377 666q-80 -199 76 -328q111 -162 297 -162q205 6 305 125q101 120 166 320q86 264 -43 368 q-127 102 -340 180l-176 -69q-213 -151 -285 -434zM793 1888q2 49 59 96.5t88 45.5q33 -4 53 -52q12 -61 68 -172q10 -63 47 -139q10 -47 4 -63q-10 -33 -53 -93q-41 -55 -80 -38q-25 -2 -47 22q-41 25 -90 203q-49 175 -49 190z" />
<glyph unicode="&#xf4;" horiz-adv-x="1382" d="M156 553q68 223 206 420q119 170 302 274q68 100 327 154q266 -72 441 -215q115 -223 -2 -510q-37 -250 -230 -500q-272 -217 -491 -209q-279 27 -402 178q-208 195 -151 408zM352 657q-41 -176 121 -333q106 -121 287 -113q223 4 356 94q135 92 135 318q45 205 -43 354 q-88 147 -383 160q-25 8 -139 -66q-236 -95 -334 -414zM942 1520q-3 43 55 98l226 297q74 45 118 53q35 2 46.5 -17.5t1.5 -64.5q-12 -35 -148 -217l-168 -172q-43 -37 -90 -47q-61 7 -41 70z" />
<glyph unicode="&#xf5;" horiz-adv-x="1361" d="M166 555q80 254 207 408q102 178 278 251q98 145 328 146q315 33 407 -240q139 -131 39 -420q-61 -342 -235 -514q-197 -172 -492 -190q-274 10 -434 131q-149 229 -98 428zM367 629q-20 -193 57 -316q132 -114 326 -98q229 -6 348 104q117 106 141 302q41 272 -35 395 t-346 127q-61 2 -158 -51q-239 -180 -333 -463zM664 1538q6 39 159 244q139 115 187 178q46 61 110 80q41 2 207 -205q167 -210 86 -231q-12 -33 -49 -82q-39 -51 -76 -35q-51 0 -119 153q-82 55 -114 166q-55 -88 -119 -151q-52 -83 -105 -129q-55 -49 -114 -58 q-25 -4 -45 16.5t-8 53.5z" />
<glyph unicode="&#xf6;" horiz-adv-x="1386" d="M170 590q39 170 188 362q94 184 312 310q59 88 338 133q233 -35 358 -205q174 -227 102 -490q-72 -299 -276 -487q-238 -250 -512 -176q-281 -74 -381 145q-149 144 -129 408zM354 662q-55 -188 113 -328q92 -137 309 -105q156 -33 295 84q137 117 191 312 q23 246 -60 395q-80 147 -340 90q-70 27 -168 -39q-297 -141 -340 -409zM602 1550q10 92 158 174q96 47 207 60q72 -16 151 -80q80 -66 174 -35q43 4 113 55q55 41 86 60q31 -6 45 -33t8 -55q-2 -14 -28 -54q-51 -63 -136 -104q-82 -39 -172 -59q-72 -14 -168 47 q-94 61 -159 39q-68 6 -127.5 -33t-102.5 -45q-37 -2 -49 14t0 49z" />
<glyph unicode="&#xf7;" horiz-adv-x="815" d="M195 690q49 141 247 162l373 -70q125 41 113 -10q-12 -121 -131 -141q-8 0 -25.5 -1t-51.5 -2t-63 -1q-58 9 -190 -18.5t-221 -6.5q-65 2 -51 88zM342 307q8 57 59 111q66 74 109 78q41 4 57.5 -16.5t5.5 -65.5q-23 -72 -65 -123q-59 -74 -119 -60q-29 -10 -37 21 q-10 35 -10 55zM559 1022q18 61 76 111q43 66 104 67q35 2 47.5 -20.5t-0.5 -69.5q-14 -39 -63 -106q-47 -41 -105 -46q-61 3 -59 64z" />
<glyph unicode="&#xf8;" horiz-adv-x="1357" d="M160 567q82 207 198 394q158 180 285 292q88 94 361 95q76 20 135 2q43 88 65 120q53 88 113 70q39 8 55.5 -10.5t7.5 -59.5q-8 -14 -96 -213q147 -74 162 -241q70 -135 10 -350q-84 -233 -272 -486q-195 -145 -473 -141q-74 -35 -150 -37l-39 -78q-41 -61 -78 -149 q-61 -88 -149 -97q-33 -4 -47.5 12.5t-11.5 53.5q10 31 145 307q-121 104 -168 213q-51 117 -53 303zM381 655q-47 -221 123 -397l510 780q-63 94 -176 101q-37 6 -156 -47q-209 -136 -301 -437zM774 203q209 10 346 102q135 92 133 295q80 326 -102 432q-96 -154 -373 -831 h-26t22 2z" />
<glyph unicode="&#xf9;" d="M178 612q25 133 103 314q94 270 174 331q72 100 114 91q55 0 41 -72q0 -10 -10 -27q-10 -31 -141 -315q-61 -111 -107 -252q-61 -203 125 -358q113 -106 324 -99q236 4 338 127q47 102 121 330q-10 125 -5 307q6 188 31 293q25 39 70 82q47 45 90 53q59 -6 47 -289 q-20 -211 -66 -354q-31 -356 -202 -522q-169 -264 -553 -227q-287 -63 -408 118q-135 199 -86 469zM809 1888q2 49 59.5 96.5t89.5 45.5q33 -4 54 -52q14 -68 65 -172q10 -63 47 -139q10 -47 4 -63q-10 -33 -53 -93q-41 -55 -80 -38q-25 -2 -47 22q-41 25 -90 203 q-49 175 -49 190z" />
<glyph unicode="&#xfa;" horiz-adv-x="1353" d="M162 573q59 172 162 392q86 211 157 313q49 63 99 76q63 -12 59 -64l-21 -41q-20 -61 -108 -293q-119 -160 -123 -262q-68 -272 92 -346q100 -137 334 -104q238 -31 336 133q39 82 135 346q0 14 1 94t1 146q0 164 35 303q-4 53 45 98q49 47 90 49q80 0 55 -285 q-2 -156 -57 -337q-61 -305 -211 -564q-254 -262 -506 -256q-299 31 -424 176q-210 193 -151 426zM934 1520q0 43 55 98l225 297q78 47 119 53q35 4 46.5 -16.5t0.5 -65.5q-14 -41 -145 -217l-168 -172q-43 -37 -92 -47q-61 7 -41 70z" />
<glyph unicode="&#xfb;" horiz-adv-x="1347" d="M174 578q58 178 160 374q61 213 139 305q66 86 107 91q35 4 47 -14.5t2 -57.5q-6 -18 -11 -27q0 -2 -11 -31.5t-34.5 -99l-52.5 -149.5q-100 -156 -151 -281q-12 -221 123 -389q102 -109 364 -111q147 16 272 189q61 109 156 340q-8 80 10 303q18 221 11 256q14 39 63 82 q47 41 98 53q20 2 35 -26.5t23 -89t12 -154.5l-84 -338q-94 -403 -217 -567q-172 -211 -508 -234q-286 9 -455 129q-153 234 -98 447zM655 1538q6 39 160 244q143 119 189 178q46 61 110 80q41 2 207 -205q167 -210 86 -231q-10 -27 -51 -82q-37 -49 -74 -35q-51 0 -119 153 q-78 53 -114 166q-55 -88 -119 -151q-49 -80 -107 -129q-55 -49 -112 -58q-27 -4 -47.5 16.5t-8.5 53.5z" />
<glyph unicode="&#xfc;" horiz-adv-x="1366" d="M221 641q-2 86 105 334q66 193 147 311q74 61 117 62q27 2 40 -13.5t13 -48.5q-8 -16 -20 -37q-6 -20 -170 -299q-47 -131 -84 -260q-6 -229 104 -371q135 -80 344 -112q215 4 316 149q102 133 129 383q29 61 22.5 248t32.5 291q10 43 53 86q45 45 100 45q55 -4 50 -270 q-6 -176 -50 -328q-90 -408 -198 -535q-190 -270 -551 -278q-295 -37 -412 152q-192 172 -88 491zM676 1565q4 8 23.5 54l35.5 85q43 115 135 115q63 -8 39 -99q4 -10 -26 -96q-55 -90 -52 -100q-39 -53 -94 -58q-81 7 -61 99zM1210 1513q-14 33 2 78q14 68 52 146 q76 80 125 88q71 6 49 -80q-16 -47 -29 -78q-25 -57 -25 -76q-6 -33 -45 -69q-35 -33 -88 -49q-31 1 -41 40z" />
<glyph unicode="&#xfd;" horiz-adv-x="1290" d="M231 158q10 45 52 92q43 49 84 39q6 6 18 2q289 -47 397 -78q104 -2 179 31q78 35 145 166q18 74 98 335q-272 -264 -538 -198q-268 -37 -367 141q-49 115 -6 356q29 346 207 340q18 -12 30 -38q12 -29 11 -54q-10 -18 -39 -96q-23 -57 -29 -92q-10 -164 47 -268 q57 -106 225 -76q123 -25 269 47q135 61 227 211q0 152 29 227q4 57 45 103q45 51 94 51q106 -6 27 -244q8 -55 -9 -201q-14 -131 -57 -262q-57 -270 -207 -508q-231 -219 -469 -213q-104 28 -221 49q-190 47 -223 66q-29 31 -19 72zM866 1520q-3 43 56 98l225 297 q78 47 119 53q35 4 46 -16.5t1 -65.5q-8 -27 -148 -217l-168 -172q-43 -37 -90 -47q-61 7 -41 70z" />
<glyph unicode="&#xfe;" horiz-adv-x="1261" d="M256 78q-7 -10 4 23q17 48 76 194q-37 8 -37 29q4 4 23 51q14 23 30 141q16 115 101 387q-14 -8 -21.5 0t-5.5 31q22 61 74 110q25 82 53 224q61 89 160 98q20 4 30.5 -10.5t6.5 -46.5q-2 -45 -19 -113q-4 -27 -14 -63q-8 -47 -15 -62q377 -25 551 -118t146 -255 q-98 -268 -961 -510q10 -33 -10 -82q-43 -88 -143 -108q-54 8 -29 80zM539 444q172 72 354 107q279 117 317 125q20 65 -131 105q-150 40 -473 57q13 -152 -67 -394z" />
<glyph unicode="&#xff;" horiz-adv-x="1314" d="M231 160q6 43 45 94q41 53 99 41l10 -4q289 -59 397 -96q108 0 191 43q86 45 110 168q51 96 76 333q-182 -213 -508 -231q-221 39 -352 151q-76 141 -35 359q123 352 219 377q37 -23 47 -43q14 -27 11 -58q-10 -35 -37 -96q-31 -70 -25 -98q-53 -168 25 -266 q76 -94 241 -76q147 -34 265 37q168 80 202 227q29 137 60 221q0 68 43 105q41 49 104 43q80 -2 49 -236q-14 -68 -28 -215q-16 -160 -62 -235q-84 -362 -192 -476q-174 -225 -510 -231q-88 -10 -205 25q-176 31 -207 79q-41 17 -33 58zM618 1565q4 8 24 54l36 85 q43 115 133 115q66 -10 41 -99q4 -10 -27 -96q-55 -92 -53 -100q-39 -53 -92 -58q-82 7 -62 99zM1153 1513q-14 37 0 78q14 68 51 146q76 80 125 88q74 6 51 -80q-8 -23 -30 -78q-25 -57 -25 -76q-6 -33 -45 -69q-37 -34 -86 -49q-31 1 -41 40z" />
<glyph unicode="&#x152;" horiz-adv-x="2414" d="M342 586q0 193 164 372q125 195 321 285q-4 59 52 80q90 45 274 63q319 -12 434 -292v28q-35 23 -24 60q18 63 88 114q71 52 104 50q18 0 31 -13l24.5 4l42 6.5l72.5 11.5l138.5 21.5l217.5 32.5q108 -49 123 -31q57 -2 43 -55q0 -90 -94 -117q-29 -6 -174 -10 q-156 -39 -422 -86q-16 -82 -158 -338q209 51 424 66q59 -8 83 -31t12 -62q-14 -76 -123 -112l-13 -2q-12 -2 -52 -9.5t-81 -13.5q-80 0 -286 13q-10 -70 -25 -103q-70 -305 135 -311q96 -6 269 35q193 47 227 57q53 2 76.5 -14.5t15.5 -51.5q-25 -76 -131 -137 q-46 -3 -135 -12q-98 -14 -148 -41q-59 -12 -114 -37q-61 -14 -123 -14q-111 6 -201 63q-92 59 -74 156q-242 -215 -485 -174q-313 -29 -444 168q-130 193 -64 381zM520 678q-51 -193 94 -356q78 -115 310 -109q205 31 319 137q106 94 162 314q63 190 -70 317 q-131 125 -319 149q-72 25 -178 -22q-100 -74 -215 -180q-107 -98 -103 -250z" />
<glyph unicode="&#x153;" horiz-adv-x="2414" d="M342 586q0 193 164 372q125 195 321 285q-4 59 52 80q90 45 274 63q319 -12 434 -292v28q-35 23 -24 60q18 63 88 114q71 52 104 50q18 0 31 -13l24.5 4l42 6.5l72.5 11.5l138.5 21.5l217.5 32.5q108 -49 123 -31q57 -2 43 -55q0 -90 -94 -117q-29 -6 -174 -10 q-156 -39 -422 -86q-16 -82 -158 -338q209 51 424 66q59 -8 83 -31t12 -62q-14 -76 -123 -112l-13 -2q-12 -2 -52 -9.5t-81 -13.5q-80 0 -286 13q-10 -70 -25 -103q-70 -305 135 -311q96 -6 269 35q193 47 227 57q53 2 76.5 -14.5t15.5 -51.5q-25 -76 -131 -137 q-46 -3 -135 -12q-98 -14 -148 -41q-59 -12 -114 -37q-61 -14 -123 -14q-111 6 -201 63q-92 59 -74 156q-242 -215 -485 -174q-313 -29 -444 168q-130 193 -64 381zM520 678q-51 -193 94 -356q78 -115 310 -109q205 31 319 137q106 94 162 314q63 190 -70 317 q-131 125 -319 149q-72 25 -178 -22q-100 -74 -215 -180q-107 -98 -103 -250z" />
<glyph unicode="&#x160;" horiz-adv-x="1460" d="M244 170q10 61 59 94q51 33 94 33q28 0 160 -25q193 -80 346 -77q94 23 129 34q94 20 105 64q40 108 -203 166q-367 190 -434 147q-221 104 -185 301q83 240 320 400q238 59 438 51q199 8 288 -41t64 -158q-4 -66 -53 -149q-86 -88 -131 -82q-31 2 -43 28q-16 25 -6 60 q2 45 41 86q-57 41 -266 59q-256 -18 -420 -131q-23 -29 -29 -47q-10 -72 50.5 -117t193.5 -65q219 -96 385 -180q281 -43 182 -302q-6 -139 -182 -247q-176 -82 -375 -107q-96 25 -266 49q-158 51 -223 66q-45 53 -39 90zM829 1792q-4 27 2 51q12 49 48 90q37 43 90 49 q22 -6 37 -36q43 -47 84 -125q57 -96 63 -129q72 29 164 106l54.5 48.5l44 37.5t29.5 26.5t19 17.5l6 5q51 37 74 35q29 4 39 -18.5t2 -71.5q-12 -31 -39 -72q-55 -57 -205 -155q-178 -117 -243 -164q-25 -18 -37 -19q-18 -2 -49 21q-31 35 -80 156q-52 124 -103 147z" />
<glyph unicode="&#x161;" horiz-adv-x="1460" d="M244 170q10 61 59 94q51 33 94 33q28 0 160 -25q193 -80 346 -77q94 23 129 34q94 20 105 64q40 108 -203 166q-367 190 -434 147q-221 104 -185 301q83 240 320 400q238 59 438 51q199 8 288 -41t64 -158q-4 -66 -53 -149q-86 -88 -131 -82q-31 2 -43 28q-16 25 -6 60 q2 45 41 86q-57 41 -266 59q-256 -18 -420 -131q-23 -29 -29 -47q-10 -72 50.5 -117t193.5 -65q219 -96 385 -180q281 -43 182 -302q-6 -139 -182 -247q-176 -82 -375 -107q-96 25 -266 49q-158 51 -223 66q-45 53 -39 90zM829 1792q-4 27 2 51q12 49 48 90q37 43 90 49 q22 -6 37 -36q43 -47 84 -125q57 -96 63 -129q72 29 164 106l54.5 48.5l44 37.5t29.5 26.5t19 17.5l6 5q51 37 74 35q29 4 39 -18.5t2 -71.5q-12 -31 -39 -72q-55 -57 -205 -155q-178 -117 -243 -164q-25 -18 -37 -19q-18 -2 -49 21q-31 35 -80 156q-52 124 -103 147z" />
<glyph unicode="&#x178;" horiz-adv-x="1529" d="M332 160q6 43 45 94q41 53 96 41l12 -4q285 -59 396 -96q111 0 192 43q84 43 109 168q51 96 75 333q-182 -213 -507 -231q-219 39 -351 151q-78 145 -37 359q123 352 222 377q33 -20 45 -43q14 -27 10 -58q-10 -35 -37 -96q-29 -66 -22 -98q-55 -170 22 -266 q76 -94 244 -76q147 -34 264 37q166 78 201 227q29 137 59 221q0 68 43 105q41 49 105 43q80 -2 49 -236q-10 -49 -27 -215q-16 -160 -61 -235q-84 -360 -195 -476q-174 -225 -510 -231q-88 -8 -205 25q-176 31 -207 79q-38 15 -30 58zM717 1565q4 8 23.5 54l35.5 85 q43 115 135 115q63 -8 39 -99q4 -10 -26 -96q-55 -90 -52 -100q-39 -53 -94 -58q-81 7 -61 99zM1251 1513q-14 33 2 78q14 68 52 146q76 80 125 88q71 6 49 -80q-16 -47 -29 -78q-25 -57 -25 -76q-6 -33 -45 -69q-35 -33 -88 -49q-35 3 -41 40z" />
<glyph unicode="&#x17d;" horiz-adv-x="1529" d="M166 57q12 55 49 105q53 84 180 164l152 153q297 242 788 586q-549 43 -735 80q-125 23 -162 39q-58 18 -37 61q2 47 52 98q47 51 90 35q35 0 182 -26q154 10 385 37q365 -43 358 -50q49 2 71 -14t13 -49q-9 -43 -43 -105q-102 -115 -342 -348q-223 -178 -632 -673 q80 39 438 55q225 63 416 76q63 -18 41 -93q-6 -72 -107 -120q-63 -20 -299 -68q-565 -35 -797 -10q-67 12 -61 67zM838 1792q-2 16 2 51q12 47 49 90t88 49q25 -6 39 -36q37 -39 84 -125q53 -90 61 -129q68 29 162 106l156 135q51 37 73 35q29 4 39.5 -18.5t1.5 -71.5 q-12 -31 -39 -72q-55 -57 -204 -155q-178 -117 -244 -164q-25 -18 -37 -19q-18 -2 -49 21q-31 35 -80 156q-51 124 -102 147z" />
<glyph unicode="&#x17e;" horiz-adv-x="1529" d="M166 57q12 55 49 105q53 84 180 164l152 153q297 242 788 586q-549 43 -735 80q-125 23 -162 39q-58 18 -37 61q2 47 52 98q47 51 90 35q35 0 182 -26q154 10 385 37q365 -43 358 -50q49 2 71 -14t13 -49q-9 -43 -43 -105q-102 -115 -342 -348q-223 -178 -632 -673 q80 39 438 55q225 63 416 76q63 -18 41 -93q-6 -72 -107 -120q-63 -20 -299 -68q-565 -35 -797 -10q-67 12 -61 67zM838 1792q-2 16 2 51q12 47 49 90t88 49q25 -6 39 -36q37 -39 84 -125q53 -90 61 -129q68 29 162 106l156 135q51 37 73 35q29 4 39.5 -18.5t1.5 -71.5 q-12 -31 -39 -72q-55 -57 -204 -155q-178 -117 -244 -164q-25 -18 -37 -19q-18 -2 -49 21q-31 35 -80 156q-51 124 -102 147z" />
<glyph unicode="&#x2c6;" horiz-adv-x="1040" d="M469 1538q2 33 160 244q139 115 186 178q46 61 111 80q41 2 207 -205q167 -210 86 -231q-10 -27 -52 -82q-37 -49 -73 -35q-49 0 -119 153q-78 53 -115 166q-47 -80 -119 -151q-49 -80 -106 -129q-55 -49 -113 -58q-25 -4 -45 16.5t-8 53.5z" />
<glyph unicode="&#x2c7;" horiz-adv-x="991" d="M532 1792q-4 27 3 51q12 49 47 90q37 43 90 49q22 -6 37 -36q43 -47 84 -125q57 -96 63 -129q72 29 164 106l54.5 48.5l44 37.5t29.5 26.5t19 17.5l7 5q51 37 73 35q29 4 39 -18.5t2 -71.5q-12 -31 -39 -72q-55 -57 -205 -155q-178 -117 -243 -164q-25 -18 -37 -19 q-18 -2 -49 21q-31 35 -80 156q-52 124 -103 147z" />
<glyph unicode="&#x2c9;" horiz-adv-x="1083" d="M553 1542q6 102 133 139q46 15 160 13l381 -49q33 20 46 15t9 -38q-35 -90 -131 -135q-10 4 -164 20q-385 18 -381 -41q-73 6 -53 76z" />
<glyph unicode="&#x2da;" horiz-adv-x="1128" d="M555 1769q59 195 170 246q18 88 176 154q113 59 189 49q150 -18 206 -107q59 -90 50 -213q-49 -137 -218 -303q-166 -164 -317 -102q-131 -6 -190 92q-56 94 -66 184zM748 1823q-8 -68 32 -109q43 -43 119 -41q82 -12 160 60q76 70 104 139q4 59 -43 108q-47 25 -125 23 q-29 6 -96 -21q-41 -25 -108 -47q-37 -69 -43 -112z" />
<glyph unicode="&#x2dc;" horiz-adv-x="1269" d="M512 1550q10 92 158 174q96 47 207 60q72 -16 151 -80q80 -66 174 -35q43 4 113 55q55 41 86 60q31 -6 45 -33t8 -55q-4 -10 -29 -54q-49 -61 -137 -104q-84 -41 -170 -59q-74 -14 -170 47q-94 59 -157 39q-68 6 -127.5 -33t-102.5 -45q-37 -2 -49 14t0 49z" />
<glyph unicode="&#x2000;" horiz-adv-x="1130" />
<glyph unicode="&#x2001;" horiz-adv-x="2260" />
<glyph unicode="&#x2002;" horiz-adv-x="1130" />
<glyph unicode="&#x2003;" horiz-adv-x="2260" />
<glyph unicode="&#x2004;" horiz-adv-x="753" />
<glyph unicode="&#x2005;" horiz-adv-x="563" />
<glyph unicode="&#x2006;" horiz-adv-x="376" />
<glyph unicode="&#x2007;" horiz-adv-x="376" />
<glyph unicode="&#x2008;" horiz-adv-x="280" />
<glyph unicode="&#x2009;" horiz-adv-x="450" />
<glyph unicode="&#x200a;" horiz-adv-x="124" />
<glyph unicode="&#x2010;" horiz-adv-x="1048" d="M371 682q-6 104 141 147q27 12 133 7l414 -107q37 95 31 31q-37 -70 -132 -139q-6 14 -155 51q-358 49 -395 -68q-64 19 -37 78z" />
<glyph unicode="&#x2011;" horiz-adv-x="1048" d="M371 682q-6 104 141 147q27 12 133 7l414 -107q37 95 31 31q-37 -70 -132 -139q-6 14 -155 51q-358 49 -395 -68q-64 19 -37 78z" />
<glyph unicode="&#x2012;" horiz-adv-x="1048" d="M371 682q-6 104 141 147q27 12 133 7l414 -107q37 95 31 31q-37 -70 -132 -139q-6 14 -155 51q-358 49 -395 -68q-64 19 -37 78z" />
<glyph unicode="&#x2013;" horiz-adv-x="950" d="M342 690q37 94 133 123q88 29 187 23q37 6 98 -5q31 -2 84 3q92 3 74 -68q-29 -86 -130 -135q-10 2 -39.5 3t-43.5 1q-61 -4 -93 -10q-23 0 -90 -13q-51 -2 -104 -2q-78 6 -76 80z" />
<glyph unicode="&#x2014;" horiz-adv-x="1261" d="M346 686q10 100 115 133q31 14 143 15q131 -12 195 -3l397 29q57 -25 51 -94q-33 -86 -131 -135q-4 2 -164 18q-420 23 -561 -47q-65 14 -45 84z" />
<glyph unicode="&#x2018;" horiz-adv-x="456" d="M389 1079q12 117 10 195q14 33 47 65.5t56 26.5q31 0 41 -31q41 -342 12 -379q-14 -41 -49 -77q-39 -43 -70 -31q-12 -2 -20 7t-13 30q-26 49 -14 194z" />
<glyph unicode="&#x2019;" horiz-adv-x="450" d="M299 909q6 72 80 195q78 131 84 180q47 82 110 76q61 0 45 -80q0 -2 -12 -29q-33 -76 -139 -288q-53 -98 -133 -115q-53 10 -35 61z" />
<glyph unicode="&#x201a;" horiz-adv-x="448" d="M59 -219q6 70 80 192q76 127 82 183q45 80 113 73q59 0 45 -79q0 -2 -12 -29q-20 -47 -142 -289q-53 -100 -131 -115q-53 11 -35 64z" />
<glyph unicode="&#x201c;" horiz-adv-x="1024" d="M457 1069q2 98 28 188q14 45 41 70q33 29 62 29q27 -2 39 -27l-25 -395q31 -25 -6 -68t-80 -37q-18 4 -31 39l-6 42t-10 74t-12 85zM811 1255q16 51 55 91q43 43 76 32q43 -4 51 -43q8 -31 21 -180q12 -139 -21 -217q-12 -33 -55 -78q-43 -47 -78 -33q-37 -4 -41 64 q-14 61 -6 231q6 100 -2 133z" />
<glyph unicode="&#x201d;" horiz-adv-x="962" d="M379 905q14 63 84 201l84 174q63 88 117 80q31 8 41 -11.5t0 -62.5q4 -6 -9 -35q-63 -127 -139 -342q-55 -55 -119 -59q-37 2 -51 16t-8 39zM721 938q0 45 117 195l104 174q57 49 105 55q70 6 47 -78q-8 -23 -29 -59l-184 -244q-57 -96 -123 -113q-60 7 -37 70z" />
<glyph unicode="&#x201e;" horiz-adv-x="960" d="M139 -219q20 72 84 199l84 174q59 88 117 77q33 8 42 -10t-1 -61q4 -6 -8 -35q-57 -109 -140 -342q-59 -57 -118 -59q-72 6 -60 57zM481 -188q0 41 117 192l104 174q59 51 105 58q35 4 46 -15.5t1 -60.5q-10 -33 -29 -64l-186 -241q-57 -98 -121 -113q-60 7 -37 70z" />
<glyph unicode="&#x2020;" horiz-adv-x="915" d="M244 -303q18 172 147 563q35 332 103 522q-59 -16 -218 -4q-33 29 -22 90q16 57 53 105q41 53 101 41q80 0 141 -4q-3 25 12 110q4 39 17 117q10 41 67 96q59 55 96 43q37 0 35 -76q6 -47 -74 -333q109 4 183 -29q102 6 151 -31q51 -14 45 -67q-18 -45 -61 -92 q-49 -51 -90 -37q-88 6 -244 47q-137 -432 -186 -766q-23 -113 -92 -262q-23 -98 -113 -97q-76 -6 -51 64z" />
<glyph unicode="&#x2021;" horiz-adv-x="958" d="M227 418q8 43 49 90t91 43q8 6 90 -16q45 141 55 219q-66 27 -201 41q-55 29 -32 73q6 49 51 105q43 51 104 49q33 -4 125 -29q10 41 10 119q16 68 25 121q20 51 68 94q47 45 96 53q37 -6 41 -73q-2 -43 -19 -338q39 2 131 -21q83 -18 148 -37q51 -20 43 -71 q-18 -45 -62 -92q-49 -53 -90 -37q-86 6 -243 47q-52 -157 -62 -240q88 -14 309 -39q37 -4 52.5 -17t7.5 -38q-18 -51 -49 -96q-33 -47 -86 -45h-66q-111 12 -219 -4q-59 -145 -64 -281q-20 -74 -81 -270q-70 -98 -150 -113q-57 6 -33 96q10 72 160 615q-133 -14 -143 4 q-81 12 -56 88z" />
<glyph unicode="&#x2022;" horiz-adv-x="1462" d="M309 532q12 231 269 433q258 203 428 196q193 -18 350 -176q104 -125 69 -369q-68 -181 -295 -387q-194 -77 -436 -73q-193 -8 -348 57q-98 150 -37 319z" />
<glyph unicode="&#x2026;" horiz-adv-x="1280" d="M246 135q8 51 49 88q43 41 94 58q70 -14 45 -88q-49 -219 -147 -201q-68 12 -41 143zM567 78q16 51 51 106q72 72 123 78q80 -4 66 -86q-20 -57 -80 -121q-43 -74 -113 -67q-25 6 -41 28q-18 25 -6 62zM938 78q0 39 57 106q55 66 111 54q33 2 44 -19.5t3 -66.5 q-15 -40 -68 -105q-51 -63 -100 -45q-65 0 -47 76z" />
<glyph unicode="&#x202f;" horiz-adv-x="450" />
<glyph unicode="&#x2030;" horiz-adv-x="2422" d="M381 14q6 14 39 56q137 221 516 612q317 299 399 520q109 137 107 164q74 88 121 92q39 -2 51 -26q10 -23 4 -56q-10 -94 -356 -604q-348 -330 -627 -709q-23 6 -103 -75q-41 -47 -90 -60q-31 10 -49 29q-20 20 -12 57zM403 899q41 152 187 322q131 147 274 151 q119 -18 188.5 -98t43.5 -250q-25 -141 -135 -283q-156 -121 -279 -114q-131 14 -199 82q-105 92 -80 190zM594 991q-4 -72 45 -104q41 -35 117 -35q47 -2 98 22q47 25 57 74q10 88 -32 154q-47 53 -131 65q-113 -55 -154 -176zM870 299q18 78 66 162q49 88 125 131 q39 37 69 39q10 0 15 -2q49 96 215 96q100 14 176 -74q68 -106 37 -219q-59 -195 -191 -323q-131 -127 -309 -138q-104 18 -176 129q-39 72 -27 199zM1065 356q-10 -70 29 -116.5t92 -51.5q59 0 117 50q59 49 83 135q2 76 -30 125q-39 39 -129 26q-2 4 -24.5 0t-33.5 2 q-12 -27 -67 -77q-28 -38 -37 -93zM1604 293q45 125 159 287q6 10 11 28q20 162 268 131q120 18 215 -67q96 -86 43 -269q-49 -129 -209 -282.5t-303 -95.5q-111 -10 -158 79q-63 56 -26 189zM1782 322q-2 -45 24.5 -84t75.5 -33q88 12 150 41q63 29 67 123q25 72 -24 133 q-51 63 -115 49q-31 10 -51 4q-2 -31 -54 -106q-50 -78 -73 -127z" />
<glyph unicode="&#x2039;" horiz-adv-x="823" d="M143 401q16 55 72 105q37 25 260 145q221 94 221 109q35 -6 49 -33q16 -29 11 -55q-23 -61 -113 -131q-66 -20 -217 -88q113 -100 119 -152q94 -86 82 -149q-10 -31 -45 -84q-47 -51 -99 -54q-29 -4 -188.5 123t-138.5 209q-21 24 -13 55z" />
<glyph unicode="&#x203a;" horiz-adv-x="897" d="M244 55q0 63 67 115q72 68 170 129q182 74 205 119q-76 59 -162 96q-90 74 -125 107q-33 35 -16 77q8 51 57 97q49 47 76 53q25 -2 82 -53q47 -23 80 -58q2 -2 16.5 -13l48 -38l68.5 -55q86 -16 127 -90q39 -27 25 -74q-14 -35 -62 -94q-70 -51 -301 -180 q-225 -152 -330 -213q-51 5 -26 75z" />
<glyph unicode="&#x205f;" horiz-adv-x="563" />
<glyph unicode="&#x20ac;" horiz-adv-x="1730" d="M211 336q10 90 82 110q33 18 133 31q0 51 8 94q12 31 23 78q-113 -8 -166 -4q-33 -4 -48.5 13.5t-11.5 54.5q39 104 140 145q29 4 235 6q113 221 400 348q250 162 495 125q74 20 174 -18q115 -31 129 -119q0 -25 -4 -49q-9 -31 -43 -74q-33 -41 -65 -28l-80 81 q-86 86 -205 41q-133 18 -297 -96q-190 -68 -299 -186q217 23 369 4q63 -8 87.5 -25.5t12.5 -46.5q-12 -96 -131 -135q-18 -6 -150 -24q-267 -22 -356 -13l-12 -8q-6 -71 0 -129q10 -2 336 2q254 61 333 84q25 10 27 10q45 6 27 -78q-6 -74 -101 -116l-145 -39 q-106 -6 -367 -43q180 -80 385 -129l336 90q39 18 54 14q55 0 32 -65q0 -72 -82 -142q-80 -43 -202 -73q-150 -16 -230 -11q-199 12 -303 74q-178 63 -246 232q-217 -59 -237 -54q-64 -6 -37 68z" />
<glyph unicode="&#x2122;" horiz-adv-x="1187" d="M252 555q2 27 26.5 45t47.5 25q61 0 186 28q119 27 223 13q45 -2 33 -37l16.5 -144.5l16.5 -140.5q39 82 160 256q6 53 40 47q18 0 23 -31q0 -66 -2 -118q-2 -74 20 -154l-8 -73.5t-8 -82.5q-2 -10 -29 -36q-25 -25 -45 -19q-8 -2 -12 4t-6 19q-2 4 -2 77q2 43 -14 185 q-20 -74 -107 -213q-51 -57 -74 -58q-33 0 -24 39q-16 29 -21 129q0 57 -14 117q-8 -63 -35 -129q-20 -84 -65 -131q-23 -47 -50 -45q-33 2 -26 41q14 55 135 348q-51 41 -168 6q18 -8 8 -53q-4 -12 -35 -94q-23 -59 -26 -76l-15 -49q-10 -78 -63 -90q-29 10 -14 96 q20 145 90 274q-68 -3 -123 0q-20 0 -30.5 6.5t-8.5 18.5z" />
<glyph unicode="&#xe000;" horiz-adv-x="1405" d="M0 1405h1405v-1405h-1405v1405z" />
</font>
</defs>
</svg>
