<?xml version="1.0" encoding="utf-8"?>
<!-- Generator: Adobe Illustrator 13.0.0, SVG Export Plug-In . SVG Version: 6.00 Build 14948)  -->
<!DOCTYPE svg PUBLIC "-//W3C//DTD SVG 1.0//EN" "http://www.w3.org/TR/2001/REC-SVG-20010904/DTD/svg10.dtd" [
	<!ENTITY ns_extend "http://ns.adobe.com/Extensibility/1.0/">
	<!ENTITY ns_ai "http://ns.adobe.com/AdobeIllustrator/10.0/">
	<!ENTITY ns_graphs "http://ns.adobe.com/Graphs/1.0/">
	<!ENTITY ns_vars "http://ns.adobe.com/Variables/1.0/">
	<!ENTITY ns_imrep "http://ns.adobe.com/ImageReplacement/1.0/">
	<!ENTITY ns_sfw "http://ns.adobe.com/SaveForWeb/1.0/">
	<!ENTITY ns_custom "http://ns.adobe.com/GenericCustomNamespace/1.0/">
	<!ENTITY ns_adobe_xpath "http://ns.adobe.com/XPath/1.0/">
]>
<svg version="1.0" id="Layer_1" xmlns:x="&ns_extend;" xmlns:i="&ns_ai;" xmlns:graph="&ns_graphs;"
	 xmlns="http://www.w3.org/2000/svg" xmlns:xlink="http://www.w3.org/1999/xlink" x="0px" y="0px" width="1799.108px"
	 height="1116.847px" viewBox="0 0 1799.108 1116.847" enable-background="new 0 0 1799.108 1116.847" xml:space="preserve">
<switch>

	<g i:extraneous="self">
		<g>
			<rect x="0.5" y="0.5" fill="#FFFFFF" stroke="#231F20" width="1797.651" height="1115.586"/>
			<g>
				<rect x="517.457" y="40.999" fill="#E6F5F5" width="115.883" height="1074.926"/>
				<rect x="749.83" y="40.999" fill="#E6F5F5" width="115.882" height="1074.831"/>
				<rect x="983.14" y="40.999" fill="#E6F5F5" width="115.878" height="1074.831"/>
				<rect x="1214.576" y="40.999" fill="#E6F5F5" width="115.883" height="1075.775"/>
				<rect x="1445.075" y="40.999" fill="#E6F5F5" width="115.884" height="1075.775"/>
				<polyline fill="#E6F5F5" points="1797.09,40.999 1679.327,40.999 1679.327,1115.69 1797.09,1115.69 				"/>
			</g>
			<g>
				<rect x="0.5" y="115.412" opacity="0.5" fill="#F0F0F0" width="1797.651" height="70.398"/>
				<rect x="0.5" y="258.145" opacity="0.5" fill="#F0F0F0" width="1797.651" height="70.398"/>
				<rect x="0.5" y="400.877" opacity="0.5" fill="#F0F0F0" width="1797.651" height="70.398"/>
				<rect x="0.5" y="543.61" opacity="0.5" fill="#F0F0F0" width="1797.651" height="70.398"/>
				<rect x="0.5" y="686.343" opacity="0.5" fill="#F0F0F0" width="1797.651" height="70.398"/>
				<rect x="0.5" y="829.077" opacity="0.5" fill="#F0F0F0" width="1797.651" height="70.396"/>
				<rect x="0.5" y="973.021" opacity="0.5" fill="#F0F0F0" width="1797.651" height="70.396"/>
			</g>
			<path fill="none" stroke="#231F20" stroke-width="0.1876" stroke-miterlimit="10" d="M672.494,39.551"/>
			<path fill="none" stroke="#231F20" stroke-width="0.1876" stroke-miterlimit="10" d="M896.82,39.551"/>
			<path fill="none" stroke="#231F20" stroke-width="0.1876" stroke-miterlimit="10" d="M672.484,39.551"/>
			<path fill="none" stroke="#231F20" stroke-width="0.1876" stroke-miterlimit="10" d="M1121.156,39.551"/>
			<path fill="none" stroke="#231F20" stroke-width="0.1876" stroke-miterlimit="10" d="M896.82,39.551"/>
			<path fill="none" stroke="#231F20" stroke-width="0.1876" stroke-miterlimit="10" d="M1798.822,39.551"/>
			<path fill="none" stroke="#231F20" stroke-width="0.1876" stroke-miterlimit="10" d="M1569.817,39.551"/>
			<g>
				
					<line fill="none" stroke="#231F20" stroke-width="0.9281" stroke-miterlimit="10" x1="2.77" y1="114.347" x2="1799.108" y2="114.347"/>
				
					<line fill="none" stroke="#231F20" stroke-width="0.9281" stroke-miterlimit="10" x1="2.77" y1="185.811" x2="1799.108" y2="185.811"/>
				
					<line fill="none" stroke="#231F20" stroke-width="0.9281" stroke-miterlimit="10" x1="3.947" y1="1116.042" x2="1798.971" y2="1116.086"/>
				
					<line fill="none" stroke="#231F20" stroke-width="0.9281" stroke-miterlimit="10" x1="2.77" y1="257.278" x2="1799.108" y2="257.278"/>
				
					<line fill="none" stroke="#231F20" stroke-width="0.9281" stroke-miterlimit="10" x1="2.77" y1="328.742" x2="1799.108" y2="328.742"/>
				
					<line fill="none" stroke="#231F20" stroke-width="0.9281" stroke-miterlimit="10" x1="2.77" y1="400.208" x2="1799.108" y2="400.208"/>
				
					<line fill="none" stroke="#231F20" stroke-width="0.9281" stroke-miterlimit="10" x1="2.77" y1="471.674" x2="1799.108" y2="471.674"/>
				
					<line fill="none" stroke="#231F20" stroke-width="0.9281" stroke-miterlimit="10" x1="2.77" y1="686.07" x2="1799.108" y2="686.07"/>
				
					<line fill="none" stroke="#231F20" stroke-width="0.9281" stroke-miterlimit="10" x1="2.77" y1="757.537" x2="1799.108" y2="757.537"/>
				<line fill="none" stroke="#231F20" stroke-width="0.9281" stroke-miterlimit="10" x1="2.77" y1="829" x2="1799.108" y2="829"/>
				
					<line fill="none" stroke="#231F20" stroke-width="0.9281" stroke-miterlimit="10" x1="2.77" y1="971.93" x2="1799.108" y2="971.93"/>
				
					<line fill="none" stroke="#231F20" stroke-width="0.9281" stroke-miterlimit="10" x1="2.77" y1="1043.396" x2="1799.108" y2="1043.396"/>
				
					<line fill="none" stroke="#231F20" stroke-width="0.9281" stroke-miterlimit="10" x1="2.77" y1="543.139" x2="1799.108" y2="543.139"/>
				
					<line fill="none" stroke="#231F20" stroke-width="0.9281" stroke-miterlimit="10" x1="2.77" y1="614.604" x2="1799.108" y2="614.604"/>
				
					<line fill="none" stroke="#231F20" stroke-width="0.9281" stroke-miterlimit="10" x1="2.77" y1="900.467" x2="1799.108" y2="900.467"/>
			</g>
			
				<line fill="none" stroke="#231F20" stroke-width="0.9281" stroke-miterlimit="10" x1="1798.151" y1="1116.847" x2="1798.151" y2="23.503"/>
			
				<line fill="none" stroke="#231F20" stroke-width="0.9281" stroke-miterlimit="10" x1="1680.088" y1="1115.914" x2="1680.088" y2="40.156"/>
			
				<line fill="none" stroke="#231F20" stroke-width="0.9281" stroke-miterlimit="10" x1="1562.029" y1="1115.914" x2="1562.029" y2="40.156"/>
			
				<line fill="none" stroke="#231F20" stroke-width="0.9281" stroke-miterlimit="10" x1="1445.84" y1="1115.914" x2="1445.84" y2="40.156"/>
			
				<line fill="none" stroke="#231F20" stroke-width="0.9281" stroke-miterlimit="10" x1="1331.529" y1="1115.914" x2="1331.529" y2="40.156"/>
			
				<line fill="none" stroke="#231F20" stroke-width="0.9281" stroke-miterlimit="10" x1="1215.341" y1="1115.914" x2="1215.341" y2="40.156"/>
			
				<line fill="none" stroke="#231F20" stroke-width="0.9281" stroke-miterlimit="10" x1="1099.154" y1="1115.914" x2="1099.154" y2="40.156"/>
			
				<line fill="none" stroke="#231F20" stroke-width="0.9281" stroke-miterlimit="10" x1="982.969" y1="1115.914" x2="982.969" y2="40.156"/>
			
				<line fill="none" stroke="#231F20" stroke-width="0.9281" stroke-miterlimit="10" x1="866.783" y1="1115.914" x2="866.783" y2="40.156"/>
			
				<line fill="none" stroke="#231F20" stroke-width="0.9281" stroke-miterlimit="10" x1="750.594" y1="1115.914" x2="750.594" y2="40.156"/>
			
				<line fill="none" stroke="#231F20" stroke-width="0.9281" stroke-miterlimit="10" x1="634.409" y1="1115.914" x2="634.409" y2="40.156"/>
			
				<line fill="none" stroke="#231F20" stroke-width="0.9281" stroke-miterlimit="10" x1="518.224" y1="1115.914" x2="518.224" y2="40.156"/>
			
				<line fill="none" stroke="#231F20" stroke-width="0.9281" stroke-miterlimit="10" x1="403.909" y1="1115.914" x2="403.909" y2="40.156"/>
			<g>
				<g>
					
						<line fill="none" stroke="#231F20" stroke-width="0.1876" stroke-miterlimit="10" x1="1768.167" y1="1116.272" x2="1768.167" y2="23.503"/>
					
						<line fill="none" stroke="#231F20" stroke-width="0.1876" stroke-miterlimit="10" x1="1738.184" y1="1116.272" x2="1738.184" y2="23.503"/>
					
						<line fill="none" stroke="#231F20" stroke-width="0.1876" stroke-miterlimit="10" x1="1708.203" y1="1116.272" x2="1708.203" y2="23.503"/>
				</g>
				<g>
					
						<line fill="none" stroke="#231F20" stroke-width="0.1876" stroke-miterlimit="10" x1="1651.981" y1="1116.272" x2="1651.981" y2="23.503"/>
					
						<line fill="none" stroke="#231F20" stroke-width="0.1876" stroke-miterlimit="10" x1="1621.997" y1="1116.272" x2="1621.997" y2="23.503"/>
					
						<line fill="none" stroke="#231F20" stroke-width="0.1876" stroke-miterlimit="10" x1="1592.014" y1="1116.272" x2="1592.014" y2="23.503"/>
				</g>
				<g>
					
						<line fill="none" stroke="#231F20" stroke-width="0.1876" stroke-miterlimit="10" x1="1536.734" y1="1116.272" x2="1536.734" y2="23.503"/>
					
						<line fill="none" stroke="#231F20" stroke-width="0.1876" stroke-miterlimit="10" x1="1506.75" y1="1116.272" x2="1506.75" y2="23.503"/>
					
						<line fill="none" stroke="#231F20" stroke-width="0.1876" stroke-miterlimit="10" x1="1476.767" y1="1116.272" x2="1476.767" y2="23.503"/>
				</g>
			</g>
			<g>
				<g>
					
						<line fill="none" stroke="#231F20" stroke-width="0.1876" stroke-miterlimit="10" x1="1417.755" y1="1115.332" x2="1417.755" y2="23.503"/>
					
						<line fill="none" stroke="#231F20" stroke-width="0.1876" stroke-miterlimit="10" x1="1387.768" y1="1115.332" x2="1387.768" y2="23.503"/>
					
						<line fill="none" stroke="#231F20" stroke-width="0.1876" stroke-miterlimit="10" x1="1357.783" y1="1115.332" x2="1357.783" y2="23.503"/>
				</g>
				<g>
					
						<line fill="none" stroke="#231F20" stroke-width="0.1876" stroke-miterlimit="10" x1="1301.562" y1="1115.332" x2="1301.562" y2="23.503"/>
					
						<line fill="none" stroke="#231F20" stroke-width="0.1876" stroke-miterlimit="10" x1="1271.578" y1="1115.332" x2="1271.578" y2="23.503"/>
					
						<line fill="none" stroke="#231F20" stroke-width="0.1876" stroke-miterlimit="10" x1="1241.598" y1="1115.332" x2="1241.598" y2="23.503"/>
				</g>
				<g>
					
						<line fill="none" stroke="#231F20" stroke-width="0.1876" stroke-miterlimit="10" x1="1186.318" y1="1115.332" x2="1186.318" y2="23.503"/>
					
						<line fill="none" stroke="#231F20" stroke-width="0.1876" stroke-miterlimit="10" x1="1156.335" y1="1115.332" x2="1156.335" y2="23.503"/>
					
						<line fill="none" stroke="#231F20" stroke-width="0.1876" stroke-miterlimit="10" x1="1126.356" y1="1115.332" x2="1126.356" y2="23.503"/>
				</g>
			</g>
			<g>
				<g>
					
						<line fill="none" stroke="#231F20" stroke-width="0.1876" stroke-miterlimit="10" x1="1069.209" y1="1116.272" x2="1069.209" y2="23.503"/>
					
						<line fill="none" stroke="#231F20" stroke-width="0.1876" stroke-miterlimit="10" x1="1039.224" y1="1116.272" x2="1039.224" y2="23.503"/>
					
						<line fill="none" stroke="#231F20" stroke-width="0.1876" stroke-miterlimit="10" x1="1009.243" y1="1116.272" x2="1009.243" y2="23.503"/>
				</g>
				<g>
					
						<line fill="none" stroke="#231F20" stroke-width="0.1876" stroke-miterlimit="10" x1="953.021" y1="1116.272" x2="953.021" y2="23.503"/>
					
						<line fill="none" stroke="#231F20" stroke-width="0.1876" stroke-miterlimit="10" x1="923.036" y1="1116.272" x2="923.036" y2="23.503"/>
					
						<line fill="none" stroke="#231F20" stroke-width="0.1876" stroke-miterlimit="10" x1="893.052" y1="1116.272" x2="893.052" y2="23.503"/>
				</g>
				<g>
					
						<line fill="none" stroke="#231F20" stroke-width="0.1876" stroke-miterlimit="10" x1="837.774" y1="1116.272" x2="837.774" y2="23.503"/>
					
						<line fill="none" stroke="#231F20" stroke-width="0.1876" stroke-miterlimit="10" x1="807.796" y1="1116.272" x2="807.796" y2="23.503"/>
					
						<line fill="none" stroke="#231F20" stroke-width="0.1876" stroke-miterlimit="10" x1="777.808" y1="1116.272" x2="777.808" y2="23.503"/>
				</g>
			</g>
			<g>
				<g>
					
						<line fill="none" stroke="#231F20" stroke-width="0.1876" stroke-miterlimit="10" x1="720.665" y1="1115.801" x2="720.665" y2="23.503"/>
					
						<line fill="none" stroke="#231F20" stroke-width="0.1876" stroke-miterlimit="10" x1="690.681" y1="1115.801" x2="690.681" y2="23.503"/>
					
						<line fill="none" stroke="#231F20" stroke-width="0.1876" stroke-miterlimit="10" x1="660.699" y1="1115.801" x2="660.699" y2="23.503"/>
				</g>
				<g>
					
						<line fill="none" stroke="#231F20" stroke-width="0.1876" stroke-miterlimit="10" x1="604.478" y1="1115.801" x2="604.478" y2="23.503"/>
					
						<line fill="none" stroke="#231F20" stroke-width="0.1876" stroke-miterlimit="10" x1="574.495" y1="1115.801" x2="574.495" y2="23.503"/>
					
						<line fill="none" stroke="#231F20" stroke-width="0.1876" stroke-miterlimit="10" x1="544.511" y1="1115.801" x2="544.511" y2="23.503"/>
				</g>
				<g>
					
						<line fill="none" stroke="#231F20" stroke-width="0.1876" stroke-miterlimit="10" x1="489.232" y1="1115.801" x2="489.232" y2="23.503"/>
					
						<line fill="none" stroke="#231F20" stroke-width="0.1876" stroke-miterlimit="10" x1="459.25" y1="1115.801" x2="459.25" y2="23.503"/>
					
						<line fill="none" stroke="#231F20" stroke-width="0.1876" stroke-miterlimit="10" x1="429.267" y1="1115.801" x2="429.267" y2="23.503"/>
				</g>
			</g>
			<g>
				
					<line fill="none" stroke="#231F20" stroke-width="0.9281" stroke-miterlimit="10" x1="1.227" y1="253.878" x2="1.227" y2="40.156"/>
				
					<line fill="none" stroke="#231F20" stroke-width="0.9281" stroke-miterlimit="10" x1="1.227" y1="469.271" x2="1.227" y2="255.548"/>
				
					<line fill="none" stroke="#231F20" stroke-width="0.9281" stroke-miterlimit="10" x1="1.227" y1="684.662" x2="1.227" y2="470.941"/>
				
					<line fill="none" stroke="#231F20" stroke-width="0.9281" stroke-miterlimit="10" x1="1.227" y1="900.059" x2="1.227" y2="686.336"/>
				
					<line fill="none" stroke="#231F20" stroke-width="0.9281" stroke-miterlimit="10" x1="1.227" y1="1115.457" x2="1.227" y2="901.74"/>
			</g>
			<rect x="0.451" y="0.399" fill="#333333" width="1798.52" height="41.937"/>
			<g>
				<g>
					<g>
						<path fill="#FFFFFF" d="M1718.311,14.921h7.002c2.377,0,4.219,0.759,5.529,2.278c1.168,1.37,1.752,3.125,1.752,5.265
							c0,1.653-0.344,3.147-1.033,4.481c-1.217,2.359-3.309,3.539-6.271,3.539h-6.979V14.921z M1724.846,28.683
							c0.785,0,1.431-0.074,1.936-0.222c0.902-0.275,1.64-0.805,2.216-1.589c0.457-0.628,0.788-1.433,0.989-2.416
							c0.117-0.586,0.176-1.13,0.176-1.631c0-1.928-0.422-3.426-1.264-4.492c-0.844-1.066-2.203-1.599-4.074-1.599h-4.117v11.95
							H1724.846z"/>
						<path fill="#FFFFFF" d="M1736.062,14.921h12.71v1.907h-10.396v4.725h9.608v1.801h-9.608v5.275h10.574v1.854h-12.889V14.921z"
							/>
						<path fill="#FFFFFF" d="M1764.512,16.055c1.209,1.038,1.881,2.218,2.015,3.539h-2.312c-0.259-1.003-0.772-1.797-1.541-2.384
							s-1.848-0.879-3.238-0.879c-1.692,0-3.061,0.539-4.104,1.616c-1.041,1.079-1.562,2.73-1.562,4.957
							c0,1.824,0.471,3.302,1.411,4.438c0.941,1.134,2.346,1.702,4.211,1.702c1.719,0,3.026-0.597,3.923-1.791
							c0.478-0.628,0.832-1.455,1.066-2.479h2.312c-0.203,1.638-0.88,3.012-2.026,4.121c-1.375,1.334-3.229,2.002-5.562,2.002
							c-2.012,0-3.701-0.548-5.067-1.644c-1.801-1.448-2.698-3.685-2.698-6.71c0-2.297,0.675-4.181,2.024-5.65
							c1.462-1.597,3.477-2.396,6.047-2.396C1761.602,14.498,1763.301,15.017,1764.512,16.055z"/>
					</g>
				</g>
				<g>
					<g>
						<path fill="#FFFFFF" d="M1600.144,14.921h2.794l8.734,12.574V14.921h2.267v15.563h-2.666l-8.864-12.559v12.559h-2.265V14.921z
							"/>
						<path fill="#FFFFFF" d="M1632.202,17.146c1.16,1.377,1.74,3.139,1.74,5.287c0,2.324-0.662,4.255-1.99,5.795
							c-1.558,1.809-3.78,2.712-6.665,2.712c-2.695,0-4.812-0.791-6.354-2.373c-1.377-1.526-2.064-3.454-2.064-5.785
							c0-2.104,0.59-3.905,1.766-5.402c1.51-1.921,3.743-2.882,6.699-2.882C1628.427,14.498,1630.717,15.38,1632.202,17.146z
							 M1630.109,27.065c0.936-1.332,1.401-2.864,1.401-4.596c0-1.831-0.538-3.305-1.615-4.422c-1.077-1.117-2.55-1.675-4.417-1.675
							c-1.812,0-3.291,0.553-4.436,1.659s-1.717,2.737-1.717,4.893c0,1.725,0.49,3.179,1.473,4.364
							c0.98,1.184,2.572,1.775,4.775,1.775C1627.664,29.064,1629.177,28.398,1630.109,27.065z"/>
						<path fill="#FFFFFF" d="M1638.159,14.921l5.031,13.253l4.971-13.253h2.66l-6.39,15.563h-2.516l-6.38-15.563H1638.159z"/>
					</g>
				</g>
				<g>
					<g>
						<path fill="#FFFFFF" d="M1496.511,17.146c1.159,1.377,1.739,3.139,1.739,5.287c0,2.324-0.662,4.255-1.99,5.795
							c-1.557,1.809-3.779,2.712-6.665,2.712c-2.694,0-4.812-0.791-6.354-2.373c-1.376-1.526-2.063-3.454-2.063-5.785
							c0-2.104,0.589-3.905,1.766-5.402c1.509-1.921,3.742-2.882,6.699-2.882C1492.734,14.498,1495.025,15.38,1496.511,17.146z
							 M1494.418,27.065c0.935-1.332,1.401-2.864,1.401-4.596c0-1.831-0.538-3.305-1.616-4.422c-1.077-1.117-2.55-1.675-4.416-1.675
							c-1.813,0-3.291,0.553-4.437,1.659c-1.144,1.106-1.716,2.737-1.716,4.893c0,1.725,0.49,3.179,1.473,4.364
							c0.98,1.184,2.572,1.775,4.774,1.775C1491.972,29.064,1493.484,28.398,1494.418,27.065z"/>
						<path fill="#FFFFFF" d="M1513.465,16.055c1.209,1.038,1.881,2.218,2.014,3.539h-2.312c-0.258-1.003-0.771-1.797-1.54-2.384
							s-1.848-0.879-3.238-0.879c-1.692,0-3.061,0.539-4.104,1.616c-1.041,1.079-1.562,2.73-1.562,4.957
							c0,1.824,0.47,3.302,1.411,4.438c0.941,1.134,2.345,1.702,4.211,1.702c1.718,0,3.026-0.597,3.923-1.791
							c0.478-0.628,0.832-1.455,1.066-2.479h2.312c-0.203,1.638-0.88,3.012-2.027,4.121c-1.374,1.334-3.229,2.002-5.562,2.002
							c-2.013,0-3.701-0.548-5.067-1.644c-1.801-1.448-2.699-3.685-2.699-6.71c0-2.297,0.675-4.181,2.025-5.65
							c1.462-1.597,3.477-2.396,6.047-2.396C1510.554,14.498,1512.254,15.017,1513.465,16.055z"/>
						<path fill="#FFFFFF" d="M1531.445,14.921v1.854h-5.902v13.709h-2.396V16.775h-5.902v-1.854H1531.445z"/>
					</g>
				</g>
				<g>
					<g>
						<path fill="#FFFFFF" d="M1371.195,25.463c0.054,0.883,0.28,1.599,0.677,2.15c0.758,1.031,2.095,1.546,4.009,1.546
							c0.858,0,1.64-0.113,2.344-0.338c1.363-0.438,2.044-1.222,2.044-2.352c0-0.848-0.289-1.452-0.866-1.812
							c-0.585-0.354-1.502-0.66-2.749-0.921l-2.298-0.477c-1.502-0.311-2.565-0.653-3.189-1.028
							c-1.077-0.649-1.617-1.621-1.617-2.914c0-1.397,0.531-2.545,1.59-3.442c1.06-0.897,2.562-1.346,4.503-1.346
							c1.785,0,3.304,0.393,4.554,1.181c1.249,0.787,1.873,2.046,1.873,3.777h-2.229c-0.115-0.833-0.358-1.473-0.731-1.917
							c-0.693-0.812-1.872-1.218-3.533-1.218c-1.341,0-2.305,0.261-2.893,0.784c-0.587,0.522-0.88,1.13-0.88,1.822
							c0,0.763,0.348,1.321,1.039,1.674c0.456,0.226,1.484,0.508,3.085,0.848l2.38,0.497c1.147,0.241,2.033,0.569,2.656,0.985
							c1.08,0.729,1.618,1.784,1.618,3.168c0,1.724-0.688,2.956-2.064,3.697c-1.375,0.742-2.975,1.112-4.795,1.112
							c-2.124,0-3.787-0.494-4.989-1.482c-1.202-0.981-1.791-2.313-1.767-3.994H1371.195z"/>
						<path fill="#FFFFFF" d="M1386.157,14.921h12.71v1.907h-10.396v4.725h9.608v1.801h-9.608v5.275h10.575v1.854h-12.89V14.921z"/>
						<path fill="#FFFFFF" d="M1402.443,14.921h7.838c1.55,0,2.801,0.391,3.754,1.171c0.952,0.78,1.43,1.877,1.43,3.29
							c0,1.215-0.427,2.272-1.275,3.172c-0.851,0.901-2.151,1.351-3.904,1.351h-5.469v6.579h-2.373V14.921z M1411.648,17.062
							c-0.521-0.219-1.237-0.328-2.145-0.328h-4.688v5.392h4.688c1.058,0,1.917-0.201,2.576-0.604
							c0.658-0.403,0.988-1.112,0.988-2.129C1413.068,18.248,1412.594,17.472,1411.648,17.062z"/>
					</g>
				</g>
				<g>
					<g>
						<path fill="#FFFFFF" d="M1258.57,14.921h2.679l6.357,15.563h-2.6l-1.828-4.662h-6.872l-1.898,4.662h-2.434L1258.57,14.921z
							 M1262.506,24.106l-2.697-6.875l-2.803,6.875H1262.506z"/>
						<path fill="#FFFFFF" d="M1272.31,14.921v9.62c0,1.13,0.24,2.069,0.722,2.818c0.713,1.13,1.913,1.695,3.605,1.695
							c2.025,0,3.404-0.611,4.133-1.833c0.394-0.664,0.589-1.557,0.589-2.68v-9.62h2.397v8.741c0,1.913-0.291,3.386-0.873,4.417
							c-1.07,1.879-3.088,2.818-6.054,2.818c-2.968,0-4.982-0.939-6.043-2.818c-0.582-1.031-0.873-2.504-0.873-4.417v-8.741H1272.31
							z"/>
						<path fill="#FFFFFF" d="M1299.037,15.367c1.717,0.812,2.767,2.235,3.15,4.269h-2.349c-0.28-1.137-0.86-1.965-1.74-2.484
							c-0.88-0.519-1.988-0.778-3.328-0.778c-1.588,0-2.925,0.541-4.01,1.621c-1.087,1.08-1.628,2.69-1.628,4.831
							c0,1.851,0.446,3.356,1.343,4.518s2.356,1.743,4.382,1.743c1.549,0,2.833-0.408,3.849-1.223
							c1.018-0.816,1.537-2.135,1.561-3.957h-5.482v-1.748h7.689v8.327h-1.526l-0.572-2.003c-0.791,0.784-1.489,1.329-2.099,1.632
							c-1.024,0.522-2.327,0.784-3.906,0.784c-2.042,0-3.796-0.597-5.267-1.791c-1.604-1.497-2.404-3.552-2.404-6.166
							c0-2.606,0.783-4.679,2.351-6.218c1.487-1.469,3.416-2.204,5.781-2.204C1296.452,14.519,1297.855,14.801,1299.037,15.367z"/>
					</g>
				</g>
				<g>
					<g>
						<path fill="#FFFFFF" d="M1149.626,25.844c0,1.314-0.22,2.334-0.657,3.062c-0.812,1.328-2.356,1.992-4.632,1.992
							c-1.312,0-2.436-0.316-3.366-0.948c-0.93-0.632-1.396-1.757-1.396-3.374v-1.112h2.23v1.112c0,0.847,0.212,1.485,0.639,1.912
							c0.426,0.427,1.09,0.641,1.99,0.641c1.266,0,2.095-0.385,2.484-1.155c0.24-0.473,0.358-1.367,0.358-2.68V14.921h2.35V25.844z"
							/>
						<path fill="#FFFFFF" d="M1155.789,14.921v9.62c0,1.13,0.24,2.069,0.721,2.818c0.714,1.13,1.914,1.695,3.606,1.695
							c2.025,0,3.405-0.611,4.133-1.833c0.394-0.664,0.589-1.557,0.589-2.68v-9.62h2.397v8.741c0,1.913-0.291,3.386-0.873,4.417
							c-1.07,1.879-3.088,2.818-6.054,2.818c-2.968,0-4.982-0.939-6.043-2.818c-0.582-1.031-0.873-2.504-0.873-4.417v-8.741
							H1155.789z"/>
						<path fill="#FFFFFF" d="M1170.861,14.921h2.371V28.63h8.787v1.854h-11.158V14.921z"/>
					</g>
				</g>
				<g>
					<g>
						<path fill="#FFFFFF" d="M1025.944,25.844c0,1.314-0.22,2.334-0.656,3.062c-0.812,1.328-2.356,1.992-4.633,1.992
							c-1.312,0-2.435-0.316-3.366-0.948c-0.93-0.632-1.396-1.757-1.396-3.374v-1.112h2.229v1.112c0,0.847,0.213,1.485,0.639,1.912
							c0.427,0.427,1.091,0.641,1.99,0.641c1.267,0,2.096-0.385,2.485-1.155c0.239-0.473,0.358-1.367,0.358-2.68V14.921h2.349
							V25.844z"/>
						<path fill="#FFFFFF" d="M1032.108,14.921v9.62c0,1.13,0.239,2.069,0.721,2.818c0.714,1.13,1.914,1.695,3.606,1.695
							c2.024,0,3.404-0.611,4.133-1.833c0.393-0.664,0.589-1.557,0.589-2.68v-9.62h2.396v8.741c0,1.913-0.291,3.386-0.873,4.417
							c-1.07,1.879-3.088,2.818-6.054,2.818c-2.967,0-4.981-0.939-6.043-2.818c-0.582-1.031-0.872-2.504-0.872-4.417v-8.741
							H1032.108z"/>
						<path fill="#FFFFFF" d="M1047.18,14.921h2.794l8.734,12.574V14.921h2.267v15.563h-2.666l-8.863-12.559v12.559h-2.266V14.921z"
							/>
					</g>
				</g>
				<g>
					<g>
						<path fill="#FFFFFF" d="M901.091,14.921h3.398l5.037,13.158l5-13.158h3.376v15.563h-2.265v-9.186
							c0-0.317,0.007-0.843,0.023-1.578c0.015-0.735,0.023-1.522,0.023-2.363l-5.002,13.126h-2.351l-5.048-13.126v0.477
							c0,0.381,0.013,0.962,0.037,1.742c0.023,0.78,0.034,1.355,0.034,1.722v9.186h-2.265V14.921z"/>
						<path fill="#FFFFFF" d="M926.602,14.921h2.679l6.357,15.563h-2.6l-1.828-4.662h-6.872l-1.898,4.662h-2.434L926.602,14.921z
							 M930.537,24.106l-2.697-6.875l-2.803,6.875H930.537z"/>
						<path fill="#FFFFFF" d="M936.426,14.921h2.767l5.035,7.48l5.034-7.48h2.792l-6.634,9.291v6.272h-2.373v-6.272L936.426,14.921z
							"/>
					</g>
				</g>
				<g>
					<g>
						<path fill="#FFFFFF" d="M791.949,14.921h2.678l6.356,15.563h-2.6l-1.828-4.662h-6.872l-1.899,4.662h-2.433L791.949,14.921z
							 M795.882,24.106l-2.697-6.875l-2.803,6.875H795.882z"/>
						<path fill="#FFFFFF" d="M803.35,14.921h7.838c1.548,0,2.799,0.391,3.75,1.171c0.955,0.78,1.431,1.877,1.431,3.29
							c0,1.215-0.424,2.272-1.275,3.172c-0.851,0.901-2.151,1.351-3.902,1.351h-5.47v6.579h-2.371V14.921z M812.553,17.062
							c-0.521-0.219-1.237-0.328-2.144-0.328h-4.688v5.392h4.688c1.057,0,1.917-0.201,2.576-0.604
							c0.659-0.403,0.988-1.112,0.988-2.129C813.973,18.248,813.499,17.472,812.553,17.062z"/>
						<path fill="#FFFFFF" d="M819.695,14.921h7.962c1.31,0,2.391,0.174,3.242,0.52c1.615,0.664,2.424,1.889,2.424,3.675
							c0,0.933-0.218,1.695-0.649,2.289c-0.434,0.593-1.039,1.07-1.818,1.43c0.684,0.248,1.196,0.572,1.544,0.975
							c0.344,0.402,0.538,1.056,0.578,1.959l0.084,2.087c0.022,0.593,0.079,1.035,0.165,1.325c0.145,0.494,0.398,0.812,0.765,0.953
							v0.35h-2.909c-0.081-0.135-0.143-0.308-0.19-0.519c-0.048-0.212-0.088-0.622-0.121-1.229l-0.143-2.595
							c-0.055-1.017-0.468-1.698-1.24-2.044c-0.439-0.191-1.131-0.286-2.073-0.286h-5.247v6.674h-2.373V14.921z M827.401,22.051
							c1.083,0,1.939-0.197,2.568-0.593c0.629-0.395,0.944-1.108,0.944-2.141c0-1.108-0.439-1.864-1.321-2.267
							c-0.472-0.212-1.101-0.317-1.89-0.317h-5.635v5.317H827.401z"/>
					</g>
				</g>
				<g>
					<g>
						<path fill="#FFFFFF" d="M668.719,14.921h3.399l5.035,13.158l5.002-13.158h3.374v15.563h-2.265v-9.186
							c0-0.317,0.007-0.843,0.024-1.578c0.016-0.735,0.023-1.522,0.023-2.363l-5,13.126h-2.351l-5.049-13.126v0.477
							c0,0.381,0.013,0.962,0.037,1.742s0.037,1.355,0.037,1.722v9.186h-2.265V14.921z"/>
						<path fill="#FFFFFF" d="M694.23,14.921h2.678l6.356,15.563h-2.6l-1.828-4.662h-6.872l-1.899,4.662h-2.434L694.23,14.921z
							 M698.164,24.106l-2.697-6.875l-2.803,6.875H698.164z"/>
						<path fill="#FFFFFF" d="M705.69,14.921h7.962c1.31,0,2.391,0.174,3.242,0.52c1.615,0.664,2.424,1.889,2.424,3.675
							c0,0.933-0.218,1.695-0.649,2.289c-0.434,0.593-1.039,1.07-1.818,1.43c0.684,0.248,1.196,0.572,1.544,0.975
							c0.344,0.402,0.538,1.056,0.578,1.959l0.084,2.087c0.022,0.593,0.079,1.035,0.165,1.325c0.145,0.494,0.398,0.812,0.765,0.953
							v0.35h-2.909c-0.08-0.135-0.143-0.308-0.19-0.519c-0.048-0.212-0.088-0.622-0.121-1.229l-0.143-2.595
							c-0.055-1.017-0.468-1.698-1.24-2.044c-0.439-0.191-1.131-0.286-2.073-0.286h-5.247v6.674h-2.373V14.921z M713.396,22.051
							c1.083,0,1.939-0.197,2.568-0.593c0.629-0.395,0.944-1.108,0.944-2.141c0-1.108-0.439-1.864-1.321-2.267
							c-0.472-0.212-1.101-0.317-1.89-0.317h-5.635v5.317H713.396z"/>
					</g>
				</g>
				<g>
					<g>
						<path fill="#FFFFFF" d="M560.311,14.921h12.149v1.907h-9.776v4.725h8.596v1.854h-8.596v7.077h-2.373V14.921z"/>
						<path fill="#FFFFFF" d="M575.226,14.921h12.71v1.907h-10.397v4.725h9.611v1.801h-9.611v5.275h10.576v1.854h-12.888V14.921z"/>
						<path fill="#FFFFFF" d="M591.226,14.921h7.573c2.063,0,3.533,0.544,4.405,1.632c0.512,0.642,0.769,1.384,0.769,2.225
							c0,0.981-0.315,1.787-0.944,2.415c-0.325,0.332-0.794,0.636-1.405,0.911c0.896,0.304,1.57,0.647,2.014,1.028
							c0.787,0.678,1.18,1.614,1.18,2.807c0,1.003-0.355,1.91-1.068,2.723c-1.061,1.215-2.755,1.822-5.073,1.822h-7.45V14.921z
							 M597.913,21.5c1.012,0,1.798-0.123,2.36-0.37c0.883-0.389,1.324-1.088,1.324-2.098c0-1.017-0.468-1.702-1.409-2.056
							c-0.53-0.197-1.317-0.296-2.36-0.296h-4.277v4.82H597.913z M598.714,28.683c1.467,0,2.516-0.375,3.142-1.123
							c0.393-0.474,0.591-1.046,0.591-1.717c0-1.13-0.575-1.899-1.724-2.309c-0.609-0.219-1.416-0.329-2.418-0.329h-4.753v5.477
							H598.714z"/>
					</g>
				</g>
				<g>
					<g>
						<path fill="#FFFFFF" d="M448.759,25.844c0,1.314-0.22,2.334-0.657,3.062c-0.812,1.328-2.356,1.992-4.632,1.992
							c-1.313,0-2.435-0.316-3.366-0.948c-0.931-0.632-1.397-1.757-1.397-3.374v-1.112h2.229v1.112c0,0.847,0.213,1.485,0.64,1.912
							c0.426,0.427,1.089,0.641,1.989,0.641c1.267,0,2.095-0.385,2.485-1.155c0.239-0.473,0.359-1.367,0.359-2.68V14.921h2.349
							V25.844z"/>
						<path fill="#FFFFFF" d="M457.47,14.921h2.679l6.356,15.563h-2.6l-1.828-4.662h-6.872l-1.9,4.662h-2.432L457.47,14.921z
							 M461.404,24.106l-2.697-6.875l-2.802,6.875H461.404z"/>
						<path fill="#FFFFFF" d="M468.645,14.921h2.795l8.734,12.574V14.921h2.265v15.563h-2.666l-8.863-12.559v12.559h-2.266V14.921z"
							/>
					</g>
				</g>
			</g>
		</g>
	</g>
</switch>

</svg>
