<?xml version="1.0" encoding="utf-8"?>
<!-- Generator: Adobe Illustrator 15.1.0, SVG Export Plug-In  -->
<!DOCTYPE svg [
	<!ENTITY ns_flows "http://ns.adobe.com/Flows/1.0/">
]>
<svg version="1.2" baseProfile="tiny"
	 xmlns="http://www.w3.org/2000/svg" xmlns:xlink="http://www.w3.org/1999/xlink" xmlns:a="http://ns.adobe.com/AdobeSVGViewerExtensions/3.0/"
	 x="0px" y="0px" width="107px" height="107px" viewBox="0 0 107 107" overflow="visible" xml:space="preserve">
<defs>
</defs>
<linearGradient id="SVGID_1_" gradientUnits="userSpaceOnUse" x1="53.6665" y1="0" x2="53.6665" y2="107.334">
	<stop  offset="0" style="stop-color:#727270"/>
	<stop  offset="1" style="stop-color:#41413F"/>
	<a:midPointStop  offset="0" style="stop-color:#727270"/>
	<a:midPointStop  offset="0.5" style="stop-color:#727270"/>
	<a:midPointStop  offset="1" style="stop-color:#41413F"/>
</linearGradient>
<path fill="url(#SVGID_1_)" d="M107.3,99.3c0,4.4-3.6,8-8,8H8c-4.4,0-8-3.6-8-8V8c0-4.4,3.6-8,8-8h91.3c4.4,0,8,3.6,8,8V99.3z"/>
<rect x="90.4" y="18.8" fill="#B4B4B1" width="16.9" height="64"/>
<rect y="18.8" fill="#B4B4B1" width="17.5" height="64"/>
<rect x="33.4" y="20.3" fill="#3A3A3A" width="49" height="67.8"/>
<rect x="30.4" y="17.3" fill="#FFFFFF" width="49" height="67.8"/>
<g>
	<rect x="36.9" y="20.9" fill-rule="evenodd" fill="#FFFFFF" width="36" height="29.3"/>
	<g id="PfcyK0_4_">
		<g>
			<g>
				<path fill-rule="evenodd" fill="#9CD1EA" d="M70.8,30.3c-6.5-0.7-12.4,1.2-19,1.2c-0.3,0-0.5,0-0.8,0c-3.3-0.5-6.2-1.3-9.8-1.4
					c-0.6-0.1-1.5,0-2.3-0.1c0-2.3,0-4.7,0-7c10.6,0,21.2,0,31.8,0C70.8,25.5,70.8,27.9,70.8,30.3z"/>
				<path fill-rule="evenodd" fill="#70B0D0" d="M39,30.1C39,30.1,39,30.1,39,30.1c0.7,0,1.7-0.1,2.3,0C40.5,30.1,39.8,30.1,39,30.1
					z"/>
				<path fill-rule="evenodd" fill="#70B0D0" d="M51.1,31.5c0.3,0,0.5,0,0.8,0C51.7,31.6,51.2,31.6,51.1,31.5z"/>
				<path fill-rule="evenodd" fill="#9CD1EA" d="M53.7,34.7c5.7,0,11.3,0,17.1,0c0,1.2,0,2.3,0,3.5c-0.5-0.2-1,0.1-1.5-0.3
					c-0.4,0.2-0.6,0.3-1.1,0.2c-0.2-0.1-0.7-0.1-1,0c-0.9,0.3-2.1,0-2.8-0.3c-0.3-0.1-0.1,0.3-0.4,0.2c-2-0.4-3.8-1-6.2-1
					c-0.2-0.1-0.6,0-0.9-0.1c-2.9-0.3-5.9-0.5-8.3-1.3c-0.7,0-1.2-0.2-1.9-0.2c-0.2-0.1-0.6,0-0.9-0.1c-1.1,0.1-1.8-0.1-2.6-0.3
					c0.7-0.1,1.7,0.2,2.4,0c0.3,0.1,1,0.1,1.3,0c0.2,0,0.3,0,0.4-0.1c0.3,0,0.5,0,0.8,0c0.1,0,0.1,0,0.2,0c0.5,0.1,1.4,0.1,1.9,0
					c0.6,0,1-0.1,1.5-0.1c0.3,0,0.8,0.1,1-0.1c0.1,0,0.1,0,0.2,0C53.2,34.7,53.6,34.8,53.7,34.7z"/>
				<path fill-rule="evenodd" fill="#70B0D0" d="M52.9,34.8c0.1-0.1,0.5,0,0.8-0.1C53.6,34.8,53.2,34.7,52.9,34.8z"/>
				<path fill-rule="evenodd" fill="#70B0D0" d="M51.8,34.8c0.2-0.1,0.7,0,1-0.1C52.6,34.9,52.1,34.8,51.8,34.8z"/>
				<path fill-rule="evenodd" fill="#70B0D0" d="M47.4,35c0.1-0.1,0.7-0.1,0.8,0C47.9,35,47.7,35,47.4,35z"/>
				<path fill-rule="evenodd" fill="#70B0D0" d="M48.4,35c0.6,0,1.3,0,1.9,0C49.8,35.1,48.8,35.1,48.4,35z"/>
				<path fill-rule="evenodd" fill="#70B0D0" d="M45.6,35c0.4,0,0.9,0,1.3,0C46.7,35.1,45.9,35.1,45.6,35z"/>
				<path fill-rule="evenodd" fill="#70B0D0" d="M45.9,35.3c0.3,0,0.7-0.1,0.9,0.1C46.5,35.4,46,35.5,45.9,35.3z"/>
				<path fill-rule="evenodd" fill="#70B0D0" d="M57,36.9c0.3,0,0.7-0.1,0.9,0.1C57.6,37,57.1,37.1,57,36.9z"/>
				<path fill-rule="evenodd" fill="#5A9FC1" d="M70.8,42.9c0,0.2,0,0.4,0,0.6c-1.2,0.5-2.5,0.5-4.1,0.6
					C68,43.6,69.3,43.1,70.8,42.9z"/>
				<path fill-rule="evenodd" fill="#5A9FC1" d="M46.8,35.4c0.7,0,1.3,0.1,1.9,0.2c2.4,0.8,5.3,1.1,8.3,1.3c0.2,0.1,0.6,0,0.9,0.1
					c2.4,0,4.3,0.5,6.2,1c0.3,0.1,0.1-0.3,0.4-0.2c0.7,0.3,1.9,0.6,2.8,0.3c0.1,0.1,0.6,0,1,0c0.6,0.1,0.7,0,1.1-0.2
					c0.5,0.4,1,0.1,1.5,0.3c0,1.5,0,3,0,4.5c-0.6-0.1-1.3,0.4-1.8,0.3c0,0,0-0.1,0-0.1c-0.4,0-0.6,0.2-0.9,0.3
					c-0.1,0-0.3-0.1-0.4-0.1c-0.4,0-1,0.4-1.6,0.4c-0.2,0,0.2-0.2,0-0.5c-0.7,0.2-1.8,0.6-2.3,0.1c-1.8,0.5-4.1,0.9-6.5,0.7
					c1.3-0.4,3.1-0.5,4.5-0.9c-4.3-0.3-7.3,0.8-11.4,1c0.1-0.3,0.6-0.2,0.8-0.3c2-0.3,4.3-0.7,5.9-1.5c-1.6,0-3.3,0.7-5.1,0.9
					c-1,0.1-1.9,0-2.8,0.3c1.2-1.1,3.5-1,4.8-1.9c-0.5-0.2-1.2-0.1-1.6,0.1c-0.3,0,0.1-0.1,0.1-0.3c-0.9,0-1.6,0.1-2.4,0.1
					c-0.2-0.1-0.3-0.1-0.4-0.3c-1.4,0.3-2.4-0.3-3.8,0c0-0.1,0.4-0.1,0.6-0.2c0.3-0.1,0.3-0.3,0.5-0.4c-1.4-0.3-3.1,0.1-3.8-0.9
					c-2,0.3-2.4-1.5-4.2-1.6c0-0.1,0-0.1-0.1-0.1c0-2.5,0-5,0-7.5c0.8,0,1.5,0,2.3,0c3.6,0.1,6.5,0.9,9.8,1.4c0.1,0.1,0.7,0.1,0.8,0
					c6.6,0,12.5-1.9,19-1.2c0,1.5,0,2.9,0,4.4c-5.8,0-11.4,0-17.1,0c-0.2,0-0.6-0.1-0.8,0.1c-0.1,0-0.1,0-0.2,0
					c-0.3,0-0.8-0.1-1,0.1c-0.5,0-1,0.1-1.5,0.1c-0.6,0-1.3,0-1.9,0c-0.1,0-0.1,0-0.2,0c-0.1-0.1-0.7-0.1-0.8,0
					c-0.1,0-0.2,0.1-0.4,0.1c-0.4,0-0.9,0-1.3,0c-0.7,0.2-1.7-0.1-2.4,0c0.8,0.2,1.5,0.4,2.6,0.3C46,35.5,46.5,35.4,46.8,35.4z"/>
				<path fill-rule="evenodd" fill="#70B0D0" d="M67.3,38.1c0.2-0.1,0.8-0.1,1,0C67.9,38,67.4,38.1,67.3,38.1z"/>
				<path fill-rule="evenodd" fill="#70B0D0" d="M39,37.6c0,0,0.1,0.1,0.1,0.1c1.8,0.1,2.2,1.9,4.2,1.6c0.7,1,2.4,0.6,3.8,0.9
					c-0.2,0.1-0.2,0.2-0.5,0.4c-0.2,0.1-0.5,0.1-0.6,0.2c1.3-0.3,2.4,0.3,3.8,0c0,0.2,0.2,0.3,0.4,0.3c0.8-0.1,1.5-0.2,2.4-0.1
					c0,0.1-0.4,0.3-0.1,0.3c0.4-0.2,1.1-0.3,1.6-0.1c-1.3,1-3.6,0.9-4.8,1.9c0.9-0.3,1.8-0.2,2.8-0.3c1.8-0.2,3.5-0.9,5.1-0.9
					c-1.6,0.8-4,1.2-5.9,1.5c-0.2,0-0.7-0.1-0.8,0.3c4.1-0.1,7.1-1.2,11.4-1c-1.4,0.4-3.1,0.4-4.5,0.9c2.4,0.2,4.7-0.2,6.5-0.7
					c0.5,0.5,1.6,0.1,2.3-0.1c0.2,0.3-0.2,0.5,0,0.5c0.6,0,1.2-0.3,1.6-0.4c0.1,0,0.3,0.1,0.4,0.1c0.3,0,0.5-0.2,0.9-0.3
					c0,0,0,0.1,0,0.1c0.5,0.2,1.3-0.4,1.8-0.3c0,0.1,0,0.2,0,0.3c-1.6,0.2-2.9,0.6-4.1,1.2c1.6-0.1,2.9-0.1,4.1-0.6c0,1.5,0,3,0,4.5
					c-10.6,0-21.2,0-31.8,0C39,44.6,39,41.1,39,37.6z"/>
			</g>
		</g>
	</g>
</g>
<rect x="39" y="57" fill="#70B0D0" width="31.8" height="2.5"/>
<rect x="39" y="62.1" fill="#70B0D0" width="31.8" height="2.5"/>
<rect x="39" y="67.4" fill="#70B0D0" width="13.9" height="2.5"/>
<circle fill="none" stroke="#FFFFFF" stroke-miterlimit="10" cx="54.9" cy="53.6" r="47.3"/>
</svg>
