<?xml version="1.0" encoding="utf-8"?>
<!-- Generator: Adobe Illustrator 15.1.0, SVG Export Plug-In  -->
<!DOCTYPE svg [
	<!ENTITY ns_flows "http://ns.adobe.com/Flows/1.0/">
]>
<svg version="1.2" baseProfile="tiny"
	 xmlns="http://www.w3.org/2000/svg" xmlns:xlink="http://www.w3.org/1999/xlink" xmlns:a="http://ns.adobe.com/AdobeSVGViewerExtensions/3.0/"
	 x="0px" y="0px" width="107px" height="107px" viewBox="0 0 107 107" overflow="visible" xml:space="preserve">
<defs>
</defs>
<g>
	<linearGradient id="SVGID_1_" gradientUnits="userSpaceOnUse" x1="53.666" y1="0" x2="53.666" y2="107.334">
		<stop  offset="0" style="stop-color:#727270"/>
		<stop  offset="1" style="stop-color:#41413F"/>
		<a:midPointStop  offset="0" style="stop-color:#727270"/>
		<a:midPointStop  offset="0.5" style="stop-color:#727270"/>
		<a:midPointStop  offset="1" style="stop-color:#41413F"/>
	</linearGradient>
	<path fill="url(#SVGID_1_)" d="M107.3,99.3c0,4.4-3.6,8-8,8H8c-4.4,0-8-3.6-8-8V8c0-4.4,3.6-8,8-8h91.3c4.4,0,8,3.6,8,8V99.3z"/>
</g>
<path fill="#33342E" d="M69.9,28.5c-10.2-1.1-18.2,3.2-19.6,3.9l-4.2-7c0,0-8.6,18-10.8,21.8l22.5-2.4l-4.3-7.1
	c2.7-1.4,7.5-4,15.8-4c10,0,13.2,5.9,14.3,15.5l1-0.4C84.5,48.9,86.3,30.3,69.9,28.5z"/>
<path fill="#67C8F0" d="M67.9,25.5c-10.2-0.8-18.2,3.2-19.6,3.9l-4.2-7c0,0-8.6,18-10.8,21.8l22.5-2.4l-4.3-7.1
	c2.7-1.4,8.5-4,16.8-4c10,0,15.2,9,15.2,18.5l1-0.4C84.5,48.9,86,27,67.9,25.5z"/>
<rect x="10.5" y="59.5" fill="#FFFFFF" width="26.8" height="13.3"/>
<g>
	<g  a:adobe-opacity-share="1">
		<rect x="70.8" y="57.9" fill="#33342E"  a:adobe-opacity-share="0" width="29.2" height="13.3"/>
	</g>
	<g>
		<rect x="68.8" y="54.9" fill="#FFFFFF" width="29.2" height="13.3"/>
	</g>
</g>
<rect x="42.8" y="59.5" fill="#FFFFFF" width="13.4" height="13.3"/>
</svg>
