<?xml version="1.0" standalone="no"?>
<!DOCTYPE svg PUBLIC "-//W3C//DTD SVG 1.1//EN" "http://www.w3.org/Graphics/SVG/1.1/DTD/svg11.dtd" >
<svg xmlns="http://www.w3.org/2000/svg">
<metadata>
This is a custom SVG webfont generated by Font Squirrel.
Copyright   : Copyright c ShyFonts Type Foundry 2000 All rights reserved
Designer    : ShyFonts Type Foundry
Foundry URL : httpwwwshyfontscom
</metadata>
<defs>
<font id="webfontQZ4gvFgm" horiz-adv-x="1404" >
<font-face units-per-em="2048" ascent="1638" descent="-410" />
<missing-glyph horiz-adv-x="569" />
<glyph unicode=" "  horiz-adv-x="569" />
<glyph unicode="&#x09;" horiz-adv-x="569" />
<glyph unicode="&#xa0;" horiz-adv-x="569" />
<glyph unicode="!" horiz-adv-x="616" d="M102 59q0 -6 1 -1t3.5 29t6.5 46q0 6 4 39q6 57 45 96q41 41 92 41q96 0 96 -119q0 -76 -39 -145q-47 -84 -114 -84q-37 0 -68 31q-27 26 -27 67zM147 528q0 78 29 222l80 366q31 150 47 187q45 106 139 106q90 0 90 -111q0 -96 -36 -237q-14 -59 -30.5 -118.5l-24 -85.5 t-7.5 -32q-6 -41 -11 -78.5t-11 -76.5q-18 -109 -52 -162q-45 -76 -127 -76q-86 0 -86 96z" />
<glyph unicode="&#x22;" horiz-adv-x="1034" d="M242 1221q0 70 41 118q43 53 108 54q104 0 105 -176q0 -8 -1 -42t-1 -58.5t-1 -59.5t-1 -43q0 -47 -5 -76q-10 -57 -53 -98q-45 -41 -98 -41q-94 0 -94 157v64q2 27 2 59q0 6 -1 31t-1 41v70zM545 989q0 197 16 277q27 143 152 143q51 0 79.5 -35t28.5 -88 q0 -180 -30 -309q-34 -141 -142 -141q-104 -1 -104 153z" />
<glyph unicode="#" horiz-adv-x="1716" d="M121 979q0 125 137 170q41 14 240 35q18 166 147 166q102 0 96 -133l125 17l197 28q14 180 143 180q45 0 72 -33t27 -76q0 -4 -5 -45q96 12 146 12q43 0 67 -28q25 -27 25 -72q0 -100 -82 -137q-47 -23 -170 -33q-4 -135 -4 -293q143 25 188 25q92 0 93 -98 q0 -106 -95 -152q-53 -25 -186 -41v-104q0 -47 -4 -72q-10 -55 -51 -94q-39 -37 -94 -37q-92 0 -93 160l4 116l-337 -41q0 -129 -19 -188q-35 -111 -133 -111q-92 0 -92 115q0 39 6 150q-133 -31 -184 -31q-84 0 -84 92q0 113 90 160q51 27 184 45q0 12 2 47t4 104.5 l4 135.5q-209 -39 -272 -39q-92 0 -92 100zM721 672l323 37q2 156 7 292l-324 -45q0 -25 -2 -118.5t-4 -165.5z" />
<glyph unicode="$" horiz-adv-x="1507" d="M150 915q0 150 135 269q115 100 276 143l64 266q10 45 47 76t84 31q40 0 67 -25t27 -65q0 -72 -45 -250q29 2 72 2q35 190 45 213q43 131 139 131q40 0 67 -31q29 -33 29 -73q0 -68 -47 -275q307 -82 307 -272q0 -98 -86 -191q-74 -80 -178 -121q-18 -8 -41 -8 q-40 0 -68 31q-25 27 -24 70q0 66 49 108l102 74q-39 29 -114 49l-76 -354q260 -111 260 -314q0 -170 -135 -272q-115 -84 -297 -96q-39 -164 -53 -195q-49 -119 -135 -119q-45 0 -76 33t-31 78q0 51 53 217q-20 4 -61 16l-37 -157q-16 -68 -53 -154q-43 -98 -121 -98 q-45 0 -72 31q-27 29 -26 73q0 86 39 217l63 213q-10 20 -10 45q0 68 49 117l61 256q-249 108 -249 311zM389 967q0 -51 76 -86l39 182q-115 -37 -115 -96zM571 336q40 -12 68 -19l49 195q-2 0 -25.5 8t-41.5 12zM684 807l70 -21l69 318h-35q-23 0 -38 -2zM885 311 q70 8 108 35q-6 45 -78 86q-4 -12 -14 -54z" />
<glyph unicode="%" horiz-adv-x="1650" d="M158 915q0 168 106 320q117 168 275 168q143 0 249 -119q109 -121 103 -262l127 225q72 135 84 150q66 96 125 96q45 0 73.5 -35t28.5 -80q0 -111 -323 -649q49 41 147 41q150 0 242 -104q86 -104 86 -252q0 -182 -121 -320q-125 -137 -309 -137q-141 0 -228 106 q-80 100 -78 246l-163 -274q-80 -135 -156 -135q-45 0 -78 32.5t-33 77.5q0 31 25 76q86 166 319 553q-68 -31 -153 -31q-145 0 -244 80q-104 86 -104 227zM397 991q0 -51 47 -86q41 -29 95 -28q39 0 69 18q39 23 39 57q0 119 -166 181q-84 -62 -84 -142zM985 356 q0 -53 39 -92t90 -39q49 0 88 45q37 43 37 97q0 129 -147 129q-12 -2 -39 -4q-8 -18 -41 -64q-27 -37 -27 -72z" />
<glyph unicode="&#x26;" horiz-adv-x="1656" d="M203 303q0 268 286 410q-264 143 -264 342q0 80 49 153q123 188 439 189q248 0 522 -84q43 94 121 94q39 0 76 -33q33 -31 32 -76q0 -47 -61 -188q-63 -147 -94 -188q-55 -76 -123 -76q-51 0 -76 31q-29 35 -29 79q0 47 37 111q-244 66 -514 66q-137 0 -137 -54 q0 -49 115 -100q31 -14 159 -59q27 -10 228 -72q51 -14 164 -55q74 -37 73 -105q0 -61 -43 -112.5t-102 -51.5q-29 0 -84 6q-74 8 -82 9q-115 0 -258 -39q-184 -53 -184 -140q0 -12 18 -34q80 -90 393 -90q88 0 211 12q74 252 193 252q43 0 73.5 -33t30.5 -76q0 -27 -24 -84 l-82 -211q-33 -76 -101 -104q-61 -27 -235 -27h-49q-678 0 -678 338z" />
<glyph unicode="'" horiz-adv-x="718" d="M229 1221q0 66 43 119t107 53q104 0 104 -176q0 -57 -2 -103v-100q0 -47 -4 -76q-10 -57 -53 -98q-45 -41 -100 -41q-94 0 -95 157v64q2 27 2 59v72q0 16 -1 40t-1 30z" />
<glyph unicode="(" horiz-adv-x="845" d="M123 621q0 195 74 397q80 221 209 338q49 43 94 43q47 0 77.5 -37t30.5 -84q0 -45 -41 -102q-104 -141 -135 -215q-47 -111 -47 -250q0 -133 31 -222q27 -72 104 -194l74 -119q16 -27 16 -59q0 -61 -43 -110.5t-102 -49.5q-35 0 -72 25q-127 84 -205 286q-65 179 -65 353 z" />
<glyph unicode=")" horiz-adv-x="841" d="M227 1249q0 59 45 111q43 49 103 49q35 0 71 -25q129 -86 203 -284q66 -178 66 -352q0 -197 -72 -396q-78 -211 -211 -338q-51 -49 -92 -49q-47 0 -80 39q-31 37 -31 84q0 43 43 105q102 143 136 213q47 111 47 249q0 129 -31 222q-27 78 -102 194q-51 76 -76 117 q-19 30 -19 61z" />
<glyph unicode="*" horiz-adv-x="1216" d="M123 457q0 72 137 196l207 164q-80 41 -219 141q-47 41 -47 91q0 55 41 106q41 49 96 49q37 0 160 -80q2 152 12 199q27 119 129 119q49 0 75.5 -33t26.5 -84q0 -96 -10 -287q213 182 273 183q43 0 71.5 -33t28.5 -74q0 -90 -219 -254q199 -143 198 -229 q0 -55 -41 -102.5t-96 -47.5q-25 0 -65 29q-23 18 -168 139v-74q0 -313 -160 -313q-88 0 -88 127q0 59 4 121q-184 -176 -246 -176q-46 0 -73 37q-27 35 -27 86z" />
<glyph unicode="+" horiz-adv-x="1032" d="M92 690q0 63 43 118.5t101 55.5q15 0 141 -6q0 37 -2 72q-4 61 -4 71q0 59 49 112.5t106 53.5q102 0 103 -206q0 -68 -2 -103q168 6 211 6q137 0 137 -102q0 -129 -121 -160q-63 -18 -246 -14q-6 -117 -28 -174q-37 -94 -134 -95q-90 0 -90 105q0 37 11 164q-16 0 -31 -2 h-33q-94 0 -133 12q-78 24 -78 92z" />
<glyph unicode="," horiz-adv-x="632" d="M168 -86q0 127 61 279q45 117 146 116q49 0 77.5 -34.5t28.5 -84.5q0 -47 -26 -139q-23 -78 -52 -139q-53 -109 -135 -109q-100 0 -100 111z" />
<glyph unicode="-" horiz-adv-x="1239" d="M231 690q0 115 101 156q66 25 194 24h371q125 0 125 -98q0 -57 -35 -104q-33 -45 -90 -62q-25 -6 -178 -12l-187 -10q-115 -6 -186 -6q-115 -1 -115 112z" />
<glyph unicode="." horiz-adv-x="641" d="M188 135q0 66 43 121q41 53 109 53q49 0 77.5 -34.5t28.5 -86.5q0 -84 -30 -145q-41 -78 -119 -78q-109 0 -109 170z" />
<glyph unicode="/" horiz-adv-x="917" d="M39 -252q0 70 176 541l225 592q41 104 131 379q25 98 66 221q45 100 129 100q49 0 76 -31q29 -33 28 -80q0 -18 -4 -38q-72 -328 -237 -766l-80 -215.5l-63.5 -169l-48 -126l-35 -92t-23.5 -62.5t-15.5 -41t-8.5 -22.5t-5 -14.5t-4 -9q-47 -137 -61 -172 q-51 -96 -140 -96q-49 0 -77.5 28.5t-28.5 73.5z" />
<glyph unicode="0" horiz-adv-x="1505" d="M178 510q0 195 80 383q82 195 217 326v12q0 176 219 176q281 0 467 -229q170 -217 170 -504q0 -299 -194 -500q-193 -199 -492 -199q-227 0 -350 158q-117 148 -117 377zM426 567q0 -143 66 -221q72 -88 208 -88q172 0 277 104q102 102 102 277q0 178 -110 313 q-113 137 -285 164q-12 -27 -45 -63q-113 -131 -158 -219q-55 -117 -55 -267z" />
<glyph unicode="1" horiz-adv-x="823" d="M96 1200q0 111 109 164q72 33 305 33q119 0 119 -166q0 -175 -31 -467q-37 -350 -43 -469q-4 -78 -20 -199q-39 -139 -156 -139q-90 0 -90 156q0 182 37 508q41 369 47 505q-39 0 -96.5 -8t-96.5 -8q-84 0 -84 90z" />
<glyph unicode="2" horiz-adv-x="1536" d="M141 905q0 221 275 373q233 129 477 129q182 0 291 -94q113 -98 112 -279q0 -326 -352 -559q-41 -27 -203 -121l-114.5 -67.5t-34.5 -18.5q0 -25 78 -24q63 0 221 16q137 14 219 14q80 0 131 -22q78 -35 78 -100q0 -57 -43 -109q-43 -53 -102 -53q-20 0 -35 2 q-29 4 -35 4q-59 0 -203 -16q-127 -14 -203 -15q-358 0 -358 250q0 166 186 297l344 209q186 125 186.5 270.5t-200.5 145.5q-121 0 -262 -52q-158 -53 -221 -141q4 -10 53 -51q51 -43 51 -92q0 -55 -37 -103q-39 -51 -96 -51q-27 0 -49 15q-154 96 -154 243z" />
<glyph unicode="3" horiz-adv-x="1572" d="M178 1151q0 86 86 137t303 88q205 31 328 31q453 0 453 -320q0 -209 -275 -354q293 -135 293 -366q0 -223 -236 -332q-178 -78 -434 -78q-240 0 -340 35q-78 27 -77 96q0 68 45 115q47 51 108 51q53 0 164 -12.5t164 -12.5q311 0 360 86q-22 126 -202 185 q-133 41 -295 41q-47 0 -84 -4q-55 -6 -84 -7q-94 0 -95 95q0 150 185 198l315 82q242 74 242 154q0 88 -232 88q-244 0 -571 -100q-18 -6 -27 -7q-43 0 -67 33q-27 37 -27 78z" />
<glyph unicode="4" horiz-adv-x="1370" d="M96 651q0 102 47 240l86 229l52 178q43 109 129 109q94 0 94 -113q0 -106 -82 -301q-80 -190 -80 -288q0 -106 205 -107q84 0 336 41v186q0 109 24 187q37 117 119 116q78 0 84 -180q2 -29 2 -102q0 2 0 -18.5v-38t-1 -53.5t-1 -72q25 2 47 2q111 0 111 -95 q0 -74 -45 -118.5t-115 -51.5v-227q0 -242 -145 -242q-80 0 -80 88q0 18 -1 77t-1 100q-2 86 -2 176q-252 -43 -381 -43q-174 0 -281 73q-121 84 -121 248z" />
<glyph unicode="5" horiz-adv-x="1574" d="M190 231q0 55 41 107q39 49 97 49q16 0 133 -73.5t252 -73.5q147 0 272 75q145 90 145 228q0 92 -73 137q-63 41 -158 41q-120 0 -233 -49q-63 -27 -213 -105q-78 -41 -109 -41q-47 0 -78 35q-29 31 -28 80q0 211 114 524q-10 27 -10 52q0 172 223 182h90q18 0 51 2 t94.5 5t110.5 5q145 8 260 8q135 0 136 -100q0 -172 -215 -182h-82q-78 0 -416 -23l-51 -196q211 98 395 98q197 0 326 -111q133 -115 133 -309q0 -256 -242 -451q-227 -184 -489 -184q-119 0 -250 53q-145 59 -203 150q-23 38 -23 67z" />
<glyph unicode="6" horiz-adv-x="1464" d="M193 467q0 215 96 485q109 295 256 418q45 39 86 39q43 0 69.5 -33t26.5 -78q0 -37 -35 -94q-31 -43 -160 -260q197 78 418 78q254 0 357 -145q66 -96 65 -232q0 -258 -254 -473q-244 -207 -508 -207q-211 0 -319 150q-98 131 -98 352zM432 526q0 -291 217 -290 q176 0 336 137q143 125 143 241q0 74 -77 111q-61 29 -140 29q-244 0 -469 -136q-10 -57 -10 -92z" />
<glyph unicode="7" horiz-adv-x="1380" d="M139 1249q0 55 43 104.5t99 49.5q20 0 122 -4q61 -2 121 -2h252q367 0 453 -37q74 -31 74 -100q0 -68 -168 -357l-201 -332q-119 -199 -178 -346l-33.5 -83t-23 -56t-7.5 -18q-52 -92 -129 -93q-39 0 -71 29q-31 29 -31 74q0 14 10 51q119 389 504 991q-244 23 -565 23 q-133 0 -197 20q-74 21 -74 86z" />
<glyph unicode="8" horiz-adv-x="1519" d="M197 336q0 184 145 326q-123 86 -123 227q0 175 166 313q4 84 88 135q113 66 324 66q197 0 331 -105q152 -117 152 -303q0 -162 -121 -282q164 -129 164 -307q0 -104 -61 -203q-59 -90 -152 -150q-150 -96 -397 -96q-209 0 -348 82q-168 100 -168 297zM440 387 q0 -88 127 -137q92 -37 203 -37q96 0 188 29q121 41 121 123q0 63 -102 133q-94 63 -166 63q-371 0 -371 -174zM451 936q0 -104 274 -105q311 0 311 125q0 84 -110 138q-90 43 -189 43q-35 0 -49 -2q-10 -12 -141 -86q-96 -54 -96 -113z" />
<glyph unicode="9" horiz-adv-x="1454" d="M102 694q0 286 240 510q238 219 524 219q109 0 213 -47q109 -51 162 -141q20 -37 21 -64q0 -58 -37 -104q-41 -53 -97 -53q-6 0 -114 67q-104 66 -185 66q-166 0 -309 -105q-156 -113 -155 -272q0 -90 47 -156q53 -72 141 -71q111 0 229 88q23 14 183 160q95 86 153 86 q49 0 76 -31q29 -33 29 -80q0 -98 -62 -363q-66 -274 -106 -346q-61 -98 -150 -98q-94 0 -94 94q0 90 76 330q-182 -135 -355 -135q-190 0 -309 127q-121 131 -121 319z" />
<glyph unicode=":" horiz-adv-x="757" d="M236 82q0 74 47 145q53 78 120 78q51 0 78 -35q29 -39 29 -88q0 -80 -45 -143q-49 -74 -125 -74q-43 0 -74 35q-30 33 -30 82zM240 522q0 72 45 135q49 72 118 72q49 0 76 -33q31 -37 31 -82q0 -72 -49 -133q-53 -66 -121 -65q-46 0 -74 30q-26 29 -26 76z" />
<glyph unicode=";" horiz-adv-x="612" d="M133 -82q0 88 60 219q55 125 147 125q43 0 73.5 -30.5t30.5 -75.5q0 -9 -12 -50q-53 -176 -59 -186q-51 -113 -140 -113q-45 0 -71 33q-29 35 -29 78zM213 575.5q0 63.5 43 118.5q41 53 106 54q49 0 87 -66q31 -59 30 -111q0 -59 -43 -110t-100 -51q-55 0 -94 57 q-29 45 -29 108.5z" />
<glyph unicode="&#x3c;" horiz-adv-x="985" d="M74 645q0 72 71 137q90 80 265 176q199 113 282 113q45 0 72 -37q27 -35 27 -82q0 -84 -93 -145l-254 -135q82 -49 224 -162q45 -43 45 -94q0 -66 -39 -117q-43 -57 -105 -57q-55 0 -229 125q-150 111 -217 178q-49 53 -49 100z" />
<glyph unicode="=" horiz-adv-x="1400" d="M217 457q0 120 117 166q72 27 219 26h231h232q82 0 117 -14q59 -23 59 -92q0 -137 -125 -168q-47 -12 -102 -13h-56q-14 0 -32.5 1.5t-22.5 1.5q-117 0 -262 -11q-174 -12 -260 -12q-115 0 -115 115zM276 872q0 70 48 123q49 55 116 56q29 0 148 -9q127 -10 143 -10 l182 -4q113 -6 179 -27q80 -25 79 -96q0 -66 -45 -117q-47 -53 -110 -53q-25 0 -225 8q-152 6 -224 7q-137 0 -207 20q-84 24 -84 102z" />
<glyph unicode="&#x3e;" horiz-adv-x="931" d="M182 905q0 59 47 119q45 57 105 57q84 0 250 -96q160 -92 223 -162q43 -49 43 -102q0 -55 -43 -111q-43 -57 -213 -198q-182 -154 -225 -154q-45 0 -74 41q-25 33 -25 82q0 68 64 129l180 154q-68 43 -168 96l-110 57q-54 35 -54 88z" />
<glyph unicode="?" horiz-adv-x="1329" d="M213 561q0 172 219 277q55 27 322 96q221 57 284 115q-6 111 -278 110q-125 0 -203 -16q-61 -12 -192 -64q-25 -10 -41 -10q-41 0 -72 37t-31 80q0 68 68 123q72 57 246 94q154 29 270 29q190 0 317 -64q166 -82 166 -254q0 -195 -145 -301q-101 -74 -326 -135 q-283 -78 -334 -100q8 -23 9 -50q0 -59 -35 -108q-40 -55 -99 -55t-104 69q-41 66 -41 127zM260 63q0 63 51 142q49 74 119 74q41 0 67.5 -33t26.5 -74q0 -63 -75 -164q-37 -49 -95 -49q-40 0 -67 31q-27 28 -27 73z" />
<glyph unicode="@" horiz-adv-x="1875" d="M176 432q0 225 117 488q123 272 307 434q211 186 451 186q280 0 491 -258q205 -246 205 -528q0 -219 -125 -379q-135 -168 -348 -168q-209 0 -281 121q-98 -70 -182 -70q-104 0 -166 98q-51 82 -51 199q0 193 102 367q117 199 299 198q76 0 172 -53q106 -61 107 -131 q0 -51 -41 -105q-39 -51 -92 -51q-27 0 -84.5 41t-87.5 41q-68 0 -101 -96q-25 -70 -24 -156q0 -2 -4 -22q-2 -10 -2 -21q0 -25 16 -24q39 0 117 84q80 86 137 86q45 0 76 -35q29 -31 28 -82q0 -4 -4 -32.5t-4 -31.5q0 -55 105 -55q184 0 184 221q0 209 -135 381 q-147 182 -352 183q-236 0 -414 -275q-160 -246 -160 -493q0 -207 119 -301q102 -82 317 -82q113 0 113 -105q0 -170 -238 -170q-268 0 -419 166q-148 160 -148 430z" />
<glyph unicode="A" horiz-adv-x="1136" d="M29 53q0 66 161 484l207 526q59 156 60 158q33 76 78 145q53 76 114 76q68 0 107 -86q35 -76 67 -228q43 -205 54 -237l65 -211l115 -377q39 -135 39 -174q0 -61 -45 -115q-45 -57 -107 -57q-66 0 -129 170q-23 -2 -82 -2q-6 0 -34.5 1t-49.5 1h-84h-270 q-63 -182 -164 -182q-45 0 -73.5 32.5t-28.5 75.5zM377 348h362q-70 215 -149 557z" />
<glyph unicode="B" horiz-adv-x="1300" d="M66 1157q0 84 84 141q82 53 303 91q190 29 323 28q193 0 316 -61q156 -80 155 -254q0 -219 -319 -404q264 -113 264 -327q0 -108 -74 -203q-65 -83 -172 -135q-158 -76 -424 -76q-242 0 -321 41q-96 2 -97 108v328q0 358 39 617q-77 12 -77 106zM346 238q150 -8 229 -9 q205 0 316 54q2 2 13 7t22 11l18 12q0 92 -141 140q-98 33 -221 32q-104 0 -228 -22q-4 -159 -8 -225zM365 737q639 188 639 328q0 90 -238 90q-190 0 -385 -45q-2 -33 -7 -157z" />
<glyph unicode="C" horiz-adv-x="1191" d="M45 551q0 270 213 561q231 311 494 311q129 0 243 -129q109 -125 109 -256q0 -61 -41 -114q-43 -59 -105 -60q-45 0 -84 76l-67 137q-45 74 -113 74q-135 0 -274 -215q-131 -199 -131 -344q0 -156 114 -264q117 -111 271 -111q102 0 176 55q25 23 102 109q49 55 92 55 q41 0 70 -30q29 -33 29 -70t-19 -70q-66 -135 -206 -223q-139 -86 -293 -86q-240 0 -410 176t-170 418z" />
<glyph unicode="D" horiz-adv-x="1396" d="M57 1212q0 123 131 160q55 16 228 17q344 0 608 -121q338 -158 338 -463q0 -289 -371 -545q-256 -172 -633 -303q-23 -8 -43 -8q-94 0 -94 157q0 100 17 324q14 168 18 324v262q0 66 8 104q-57 -4 -110 -4q-39 0 -68 28.5t-29 67.5zM469 254q659 266 659 508 q0 176 -245 272q-156 63 -398 82l4 -375q0 -303 -20 -487z" />
<glyph unicode="E" horiz-adv-x="1148" d="M63 444q0 117 41 338q47 246 54 340q-33 27 -33 78t29 96q29 43 75 62q37 35 88 35q23 0 41 -13q285 43 609 43q96 0 96 -94q0 -109 -107 -141q-37 -12 -196 -23q-137 -8 -363 -35q-10 -86 -49 -286q131 20 371 20q127 0 127 -110q0 -98 -84 -133q-39 -16 -170 -27 q-106 -10 -281 -25q-2 -20 -2 -43q0 -291 180 -290q82 0 238 53t240 53q129 0 129 -98q0 -129 -148 -178l-252 -52l-59.5 -20l-58.5 -19q-61 -18 -123 -18q-211 0 -308 145q-84 123 -84 342z" />
<glyph unicode="F" horiz-adv-x="1185" d="M53 1190q0 127 162 176q63 20 268 41q334 35 584 35q47 0 76 -31q29 -33 28 -78q0 -123 -120 -162q-55 -18 -113 -18q-39 -2 -113 -2q-121 -4 -422 -35q2 -35 5.5 -85l8.5 -127l9 -136q193 33 342 33q49 0 84 -35q33 -33 33 -84q0 -100 -78 -141q-49 -25 -168 -31 q-139 -8 -205 -14l2 -265q0 -279 -151 -278q-94 0 -95 110q0 72 2.5 127.5t2.5 122.5q0 285 -27 779h-18q-4 0 -8 -1q-36 0 -62.5 27t-26.5 72z" />
<glyph unicode="G" horiz-adv-x="1402" d="M51 565q0 215 109 414q98 184 282 321q180 135 373 136q100 0 201 -54q94 -51 145 -139q20 -37 21 -61q0 -59 -41 -113q-39 -51 -97 -51q-20 0 -106 73.5t-166 73.5q-178 0 -328 -180q-141 -174 -141 -356q0 -164 107 -275q104 -109 268 -108q121 0 248 67 q-246 125 -246 230q0 58 37 110q37 51 92 52q23 0 55 -21q86 -63 262 -164q61 -20 189 -84q51 -37 51 -84q0 -55 -41 -108.5t-92 -53.5q-23 0 -49 11q-219 -244 -541 -244q-254 0 -422 176q-170 180 -170 432z" />
<glyph unicode="H" horiz-adv-x="1253" d="M72 86q0 151 12 393q8 160 16 395v179q0 313 160 313q88 0 88 -131q0 -186 -29 -627h17q369 0 559 -65q18 156 43 481q10 213 14 233q35 150 142 150q90 0 90 -113q0 -164 -45 -665q-6 -109 -35 -459q-23 -213 -152 -213q-88 0 -88 106q0 74 15 224q-22 -6 -50 -6 q-55 0 -127 14q-113 23 -124 24q-139 4 -275 19v-113q0 -252 -147 -252q-84 0 -84 113z" />
<glyph unicode="I" horiz-adv-x="864" d="M72 43q0 158 211 186q8 121 14 447q4 309 14 444h-57q-166 0 -166 121q0 63 39 111q41 51 98 51q8 0 47 1t66 1t65.5 1t47.5 1h153q195 0 195 -107q0 -131 -121 -167q-36 -13 -99 -13h-26q0 -553 -29 -864q39 2 148 2q51 0 81.5 -30.5t30.5 -86.5q0 -162 -200 -180 q-289 -25 -408 -24q-49 0 -76 30q-28 33 -28 76z" />
<glyph unicode="J" horiz-adv-x="1339" d="M14 399q0 143 119 263q102 98 254 153q23 8 45 8q92 0 92 -98q0 -80 -65 -135q-25 -20 -119 -72q-66 -35 -66 -61q0 -90 158 -162q135 -59 236 -59q362 0 362 452q0 156 -86 531q-4 14 -4 30q0 57 47 115q46 55 105 55q47 0 75 -59q43 -84 78 -299q33 -201 33 -318 q0 -317 -164 -540q-180 -246 -489 -246q-218 0 -400 111q-211 130 -211 331z" />
<glyph unicode="K" horiz-adv-x="1224" d="M76 63q0 195 12 392q16 285 18 389v264q0 301 162 301q86 0 86 -141q0 -244 -4 -369q84 57 404 293l118 106q78 76 125 99q20 12 52 12q45 0 71 -33q29 -35 29 -78q0 -109 -272 -313l-379 -262q205 -125 546 -440q111 -104 111 -164q0 -58 -43 -105q-45 -49 -100 -49 q-41 0 -125 74l-111 106q-209 199 -442 342l-21 -329q-10 -209 -143 -209q-94 -1 -94 114z" />
<glyph unicode="L" horiz-adv-x="1136" d="M66 453q0 133 49 397t49 399q0 66 39 117t100 51q100 0 100 -143q0 -190 -45 -461q-39 -227 -39 -307q0 -102 33 -174q47 -96 133 -96q90 0 268.5 53t266.5 53q45 0 80 -31q33 -31 33 -80q0 -115 -125 -163q-25 -10 -152 -35l-21 -5q-22 -5 -75 -19.5t-111 -28.5 q-123 -31 -209 -31q-188 0 -290 164q-84 135 -84 340z" />
<glyph unicode="M" horiz-adv-x="1673" d="M63 55q0 10 5 39q63 319 145 797l25 205q25 158 63 237q55 113 143 113q82 0 152 -180q4 -8 13 -38t30 -83q143 -399 201 -610q92 262 157 481q57 188 80 235q68 152 162 152q63 0 94 -76q8 -18 29 -127q29 -162 86 -377l102 -370q12 -41 22.5 -81l20.5 -77 q23 -96 23 -164q0 -66 -45 -119q-47 -55 -109 -55q-53 0 -84 63q-29 59 -49 144q-6 37 -14 73.5l-17 75.5q-43 160 -122 486l-162 -480q-45 -119 -49 -126q-25 -61 -66 -117q-53 -72 -115 -72q-92 0 -202 412q-63 238 -133 442q-53 -283 -89 -506l-24 -155q-16 -98 -41 -152 q-43 -100 -127 -100q-49 0 -76 32q-29 35 -29 78z" />
<glyph unicode="N" horiz-adv-x="1218" d="M72 45q0 139 24 391q27 289 29 391v203q0 131 27 225q43 143 133 144q43 0 84 -56q41 -57 90 -151l86 -156l329 -518l9 516q4 170 20 234q37 145 148 145q92 0 92 -114.5t-10 -446.5q-8 -264 -9 -449q0 -166 -22 -245q-18 -59 -60 -117q-49 -66 -104 -66q-33 0 -74 45 q-51 53 -192 281l-320 514q0 -4 -28 -514q-12 -166 -27 -223q-39 -141 -145 -141q-80 -1 -80 108z" />
<glyph unicode="O" horiz-adv-x="1435" d="M55 592q0 199 90.5 383t255.5 291q68 133 340 133q289 0 467 -217q168 -205 168 -498q0 -299 -172 -506q-184 -217 -475 -217q-283 0 -475 170q-199 180 -199 461zM299 664q0 -193 139 -314q131 -115 328 -114q166 0 262 112q92 106 92 277q0 225 -131 354 q-135 131 -356 131q-35 0 -123 -53q-211 -131 -211 -393z" />
<glyph unicode="P" horiz-adv-x="1320" d="M68 1260q0 61 41 104q43 45 102 45q113 0 246 -12q354 -27 540 -107q301 -127 301 -407q0 -260 -315 -426q-233 -123 -549 -166q0 -144 -18 -209q-35 -121 -144 -121q-94 0 -94 125q0 37 8 266q10 209 11 266v244q0 78 41 133q43 57 116 58q92 0 92 -158q0 -154 -4 -332 q596 104 596 285q0 217 -450 262q-145 8 -275 18q-200 22 -233 80q-12 21 -12 52z" />
<glyph unicode="Q" horiz-adv-x="1431" d="M47 514q0 236 125 457t328 329q45 102 245 103q276 0 451 -193q166 -187 166 -467q0 -299 -186 -530q158 -154 157 -215q0 -55 -41 -102q-39 -45 -92 -46q-59 0 -225 189q-145 -82 -318 -82q-258 0 -428 149q-182 158 -182 408zM285 586q0 -164 118 -262q114 -92 283 -93 q63 0 125 17q-82 133 -82 176q0 47 35 88t82 41q55 0 174 -162q92 125 92 299q0 211 -133 324q-123 104 -340 108q-9 -6 -31 -18q-323 -201 -323 -518z" />
<glyph unicode="R" d="M70 1231q0 57 47 110q45 51 104 52q315 0 613 -76q231 -57 350 -146q164 -119 164 -321q0 -264 -344 -418q66 -86 206 -213q68 -61 68 -116.5t-41 -108.5q-45 -57 -98 -57q-27 0 -56 20q-203 132 -350 387q-158 -41 -383 -68q-2 -307 -143 -307q-78 0 -78 99 q0 20 4 171.5t4 174.5v141v141q0 244 19 441q-86 14 -86 94zM362 541q745 94 746 282q0 223 -733 293q-7 -106 -13 -575z" />
<glyph unicode="S" horiz-adv-x="1327" d="M55 932q0 233 248 362q199 102 459 103q164 0 272 -43q156 -61 156 -201q0 -78 -51 -162q-57 -96 -129 -96q-53 0 -78 37q-29 41 -29 88q0 29 12 63q-68 29 -210 29q-262 0 -381 -111q-14 -12 -15 -16q0 -117 246 -184q444 -123 463 -131q248 -106 248 -324 q0 -199 -170 -303q-137 -84 -353 -84q-141 0 -321 35q-238 47 -275 125q-10 25 -10 51q0 66 45 115q43 47 113 47q27 0 164 -33q182 -47 434 -47q117 0 117 39q0 88 -248 151q-356 94 -459 144q-248 123 -248 346z" />
<glyph unicode="T" horiz-adv-x="1536" d="M29 1161q0 66 45 119t108 53q12 0 20.5 -2t18.5 -2q182 0 584 57q387 55 581 56q133 0 134 -103q0 -123 -121 -165q-37 -14 -121 -19q-39 0 -121 -4q-125 -8 -225 -25l-108.5 -16l-82 -12t-34.5 -4q-12 -231 -25 -684v-203q0 -242 -131 -242q-55 0 -78 72q-23 80 -22 244 q0 88 26 792q-158 -10 -291 -10q-157 0 -157 98z" />
<glyph unicode="U" horiz-adv-x="1441" d="M63 614q0 131 39 314q37 186 88 307l39 84q43 63 105 63q39 0 67.5 -28.5t28.5 -71.5q0 -45 -33 -160q-8 -29 -21.5 -71.5l-27.5 -89.5q-45 -168 -45 -277q0 -218 160 -332q135 -102 364 -102q175 0 240 153q43 100 43 306q0 115 -31 284q-33 182 -32 285q0 55 49 111 q51 57 104 57q70 0 127 -291q45 -244 45 -360q0 -352 -125 -566q-156 -260 -487 -260q-309 0 -498 168q-199 174 -199 477z" />
<glyph unicode="V" horiz-adv-x="1296" d="M43 1253q0 57 43 113q41 53 102 53q45 0 84 -59q53 -84 131 -293q123 -336 213 -653q129 258 281 612l86 201q66 141 109 178q35 31 69 31q43 0 74 -35q31 -33 31 -82q0 -25 -4 -37q-10 -39 -121 -278l-236 -512l-82 -205q-65 -157 -123 -240q-80 -115 -159 -115 q-76 0 -113 148q-6 29 -18 80q-37 147 -111 350l-133 340q-123 321 -123 403z" />
<glyph unicode="W" horiz-adv-x="1781" d="M57 1260q0 58 49 110q49 53 109 53q51 0 82 -61q31 -63 55 -150l37 -155l137 -520l189 510q68 170 80 194q68 133 141 133q80 0 131 -141l12.5 -39t30.5 -102.5l43 -143.5q68 -225 164 -475q51 272 96 541q6 43 13.5 84l10.5 57t3 19q16 86 47 155q45 106 127 107 q47 0 74 -33q29 -35 28 -80q0 -8 -4 -37q-57 -279 -153 -813l-29 -205q-27 -145 -70 -239q-55 -115 -141 -115q-78 0 -158 182q-31 72 -51 127q-133 338 -221 645q-74 -190 -178 -512q-63 -201 -82 -239q-72 -158 -170 -158q-59 0 -94 78q-10 33 -31 129q-14 61 -66 266 q-84 348 -207 809q-4 17 -4 19z" />
<glyph unicode="X" horiz-adv-x="1255" d="M61 74q0 106 388 631q-358 502 -359 569q0 55 41 112q41 55 96.5 55.5t132.5 -126.5q72 -113 267 -379l182 233q113 139 199 213q41 35 71 35q43 0 72 -35q27 -33 27 -79q0 -55 -62 -136l-11 -13l-37 -42l-54 -61q-49 -55 -250 -312q418 -600 418 -680q0 -55 -43 -104 t-94.5 -49t-116.5 96l-84 141q-59 96 -252 371q-164 -219 -260 -393q-89 -160 -166 -160q-45 0 -76 35q-29 31 -29 78z" />
<glyph unicode="Y" horiz-adv-x="1382" d="M61 1044q0 123 31 222q45 143 141 143q45 0 76 -33q33 -37 33 -82q0 -25 -10 -96.5t-10 -95.5q0 -154 77 -240q82 -92 226 -92q129 0 237 66q119 70 156 186q-10 150 -10 223.5t41 128.5q43 57 112 58q72 0 105 -101q25 -74 24 -160q0 -63 10 -237q8 -139 9 -240 q0 -324 -125 -510q-152 -219 -459 -219q-106 0 -268 35q-195 41 -234 98q-16 23 -16 58q0 63 41 116q43 55 102 56q12 0 25 -4q276 -78 391 -78q113 0 166 35q59 37 88 141q18 63 18 225q-199 -166 -456 -166q-246 0 -387 160q-134 151 -134 403z" />
<glyph unicode="Z" horiz-adv-x="1462" d="M80 1243q0 66 47 119q45 51 109 51q10 0 190 -10q127 -4 381 -14q309 -14 362 -15q133 0 134 -100q0 -88 -119 -250q-25 -37 -187 -225l-493 -559q150 10 403 34q252 25 408 25q94 0 94 -100q0 -113 -117 -162q-53 -23 -282 -39q-623 -39 -787 -39q-121 0 -121 109 q0 90 119 229l189 201q190 209 528 616q-432 23 -625 23q-96 0 -151 14q-82 20 -82 92z" />
<glyph unicode="[" horiz-adv-x="1122" d="M188 1249q0 66 39 113q41 51 101 51q53 0 211 10q125 8 213 9q113 0 112 -107q0 -121 -119 -164q-70 -27 -219 -31l25 -352q12 -209 12 -352q0 -86 -6 -180l94 4q39 2 94 2q160 0 160 -111q0 -72 -39 -118q-41 -49 -106 -62q-34 -6 -80 -6q-27 0 -47 2h-43q-49 0 -86 -2 t-84 -2q-154 0 -154 125q0 51 29 98q4 72 4 176q0 131 -12 391q-14 238 -15 390q-84 20 -84 116z" />
<glyph unicode="\" horiz-adv-x="901" d="M43 1440q0 55 47 114q45 57 100.5 57.5t94.5 -91.5q29 -76 49 -142q15 -46 135 -381l289 -831q92 -295 92 -383q0 -63 -39 -109q-41 -47 -100 -47q-55 0 -86 56q-16 25 -74 231q-20 70 -127 385l-207 592q-174 504 -174 549z" />
<glyph unicode="]" horiz-adv-x="1124" d="M217 1239q0 63 35 113q39 53 94 65q12 2 137 2h113q51 2 115 2q145 0 145 -118q0 -49 -29 -101q-4 -82 -4 -139q0 -90 15 -406q12 -270 12 -411q84 -23 84 -117q0 -63 -37 -113q-41 -55 -102 -55q-72 0 -213.5 -6t-210.5 -6q-113 0 -113 104q0 121 117 164q76 31 221 33 q-37 623 -37 713q0 74 6 167h-35.5t-32 -1t-27.5 -1h-23.5h-18.5h-13h-7h-7q-184 0 -184 111z" />
<glyph unicode="^" horiz-adv-x="1124" d="M125 399q0 49 137 437q141 401 170 446q74 121 150 121q74 0 159 -199q23 -55 95 -268l82 -234q63 -178 63 -219q0 -61 -45 -121q-49 -66 -107 -65q-121 0 -286 616q-72 -188 -111 -315q-55 -178 -61 -188q-55 -113 -144 -113q-43 0 -73 31q-29 28 -29 71z" />
<glyph unicode="_" horiz-adv-x="1456" d="M266 -35v205h922v-205h-922z" />
<glyph unicode="`" horiz-adv-x="681" d="M113 1890q0 57 47 115q45 55 108 55q55 0 92 -57l99 -186l65 -105q43 -68 43 -106q0 -59 -41 -113q-43 -59 -100 -59q-35 0 -74 32q-53 45 -143 207q-96 170 -96 217z" />
<glyph unicode="a" horiz-adv-x="1148" d="M35 53q0 66 162 484l206 526q57 152 58 158q33 76 78 145q53 76 116 76q66 0 105 -86q39 -84 69 -228l52 -237l65 -211l117 -377q39 -135 39 -174q0 -61 -45 -115q-45 -57 -107 -57q-66 0 -129 170q-23 -2 -82 -2q-6 0 -34.5 1t-49.5 1h-86h-270q-63 -182 -162 -182 q-45 0 -73.5 32.5t-28.5 75.5zM383 348h360q-70 215 -149 557q-31 -76 -211 -557z" />
<glyph unicode="b" horiz-adv-x="1320" d="M76 1157q0 84 84 141q82 53 303 91q190 29 323 28q197 0 316 -61q156 -80 155 -254q0 -219 -319 -404q262 -113 262 -327q0 -111 -72 -203q-65 -83 -172 -135q-154 -76 -424 -76q-240 0 -319 41q-98 2 -98 108v328q0 358 39 617q-78 12 -78 106zM356 238q147 -8 230 -9 q205 0 315 54q2 2 13.5 7t21.5 11l18 12q0 92 -143 140q-98 33 -219 32q-104 0 -227 -22q-5 -159 -9 -225zM375 737q639 188 639 328q0 90 -238 90q-190 0 -385 -45q-2 -33 -7 -157z" />
<glyph unicode="c" horiz-adv-x="1204" d="M51 551q0 274 213 561q227 311 492 311q129 0 243 -129q109 -125 109 -256q0 -61 -41 -114q-43 -59 -102 -60q-47 0 -86 76q-10 23 -68 137q-46 74 -111 74q-135 0 -274 -215q-131 -199 -131 -344q0 -154 114.5 -264.5t270.5 -110.5q100 0 174 55q25 23 102 109 q49 55 95 55q40 0 67 -30q29 -33 29 -70q0 -39 -17 -70q-66 -133 -208 -223q-139 -86 -291 -86q-242 0 -412 176q-168 174 -168 418z" />
<glyph unicode="d" horiz-adv-x="1406" d="M66 1212q0 123 129 160q55 16 227 17q344 0 608 -121q338 -158 338 -463q0 -291 -371 -545q-256 -172 -632 -303q-23 -8 -41 -8q-94 0 -95 157q0 129 15 324q14 168 18 324v262q0 66 8 104q-57 -4 -110 -4q-39 0 -68 29q-26 26 -26 67zM475 254q659 266 660 508 q0 176 -246 272q-158 63 -395 82l4 -375q0 -284 -23 -487z" />
<glyph unicode="e" horiz-adv-x="1165" d="M72 444q0 117 41 338q47 246 53 340q-33 25 -33 78q0 51 29 96q29 43 76 62q37 35 88 35q23 0 41 -13q286 43 608 43q96 0 96 -94q0 -109 -106 -141q-37 -12 -197 -23q-137 -8 -362 -35q-10 -86 -50 -286q129 20 371 20q127 0 127 -110q0 -98 -84 -133q-43 -16 -170 -27 q-106 -10 -281 -25q-2 -20 -2 -43q0 -291 181 -290q78 0 237.5 53t239.5 53q129 0 129 -98q0 -129 -148 -178l-251 -52l-60 -20l-59 -19q-61 -18 -123 -18q-209 0 -305 145q-86 127 -86 342z" />
<glyph unicode="f" horiz-adv-x="1191" d="M57 1190q0 127 162 176q63 20 268 41q334 35 586 35q49 0 76 -31q29 -33 29 -78q0 -121 -123 -162q-55 -18 -111 -18q-39 -2 -113 -2q-121 -4 -421 -35l5 -85l8 -127l9 -136q193 33 340 33q49 0 84 -35q33 -33 33 -84q0 -100 -78 -141q-49 -25 -166 -31q-139 -8 -205 -14 q0 -57 2 -131v-134q0 -279 -151 -278q-94 0 -94 110q0 72 2 127.5t2 122.5q0 246 -29 779h-16q-4 0 -7 -1q-36 0 -63 27q-29 29 -29 72z" />
<glyph unicode="g" horiz-adv-x="1411" d="M55 565q0 215 109 414q96 180 285 321q182 135 372 136q100 0 201 -54q98 -53 145 -139q18 -34 19 -61q0 -61 -39 -112.5t-96 -51.5q-23 0 -109 73.5t-164 73.5q-180 0 -327 -180q-141 -174 -142 -356q0 -166 104.5 -274.5t268.5 -108.5q125 0 248 67q-246 125 -246 230 q0 58 37 110q37 51 92 52q23 0 55 -21q88 -66 265 -164q55 -18 186 -84q51 -37 51 -84q0 -57 -39 -108q-41 -53 -94 -54q-23 0 -47 11q-219 -244 -541 -244q-256 0 -424 176q-170 180 -170 432z" />
<glyph unicode="h" horiz-adv-x="1269" d="M80 86q0 151 12 393q16 328 17 395v179q0 313 161 313q86 0 86 -131q0 -186 -28 -627h14q371 0 561 -65q12 102 41 481q12 219 17 233q31 150 143 150q90 0 90 -113q0 -141 -47 -665q0 -10 -37 -459q-23 -213 -149 -213q-86 0 -87 106q0 63 13 224q-22 -6 -49 -6 q-53 0 -125 14q-102 20 -127 24q-137 4 -275 19v-113q0 -252 -147 -252q-84 0 -84 113z" />
<glyph unicode="i" horiz-adv-x="434" d="M68 86q0 139 12 383q10 199 16 381v242q0 328 174 327q94 0 95 -166q0 -184 -14.5 -487t-14.5 -487q0 -317 -166 -318q-102 0 -102 125z" />
<glyph unicode="j" horiz-adv-x="1347" d="M16 399q0 143 119 263q102 98 254 153q23 8 45 8q92 0 92 -98q0 -80 -65 -135q-29 -25 -119 -72q-66 -35 -66 -61q0 -92 156 -162q137 -59 238 -59q362 0 362 452q0 156 -86 531q-4 14 -4 30q0 57 47 115q47 55 103 55q47 0 77 -59q43 -84 78 -299q31 -188 31 -318 q0 -322 -162 -540q-182 -246 -489 -246q-218 0 -400 111q-211 130 -211 331z" />
<glyph unicode="k" horiz-adv-x="1236" d="M82 63q0 162 14 392q10 205 17 389v264q0 301 161 301q88 0 88 -141q0 -182 -6 -369l406 293q31 25 117 106q78 76 125 99q20 12 51 12q45 0 71 -33q29 -35 29 -78q0 -109 -272 -313l-379 -262q205 -125 547 -440q111 -104 110 -164q0 -58 -43 -105q-45 -49 -98 -49 q-43 0 -127 74l-111 106q-209 199 -442 342q-12 -190 -18 -329q-10 -209 -146 -209q-94 -1 -94 114z" />
<glyph unicode="l" horiz-adv-x="1146" d="M72 453q0 133 49 397t49 399q0 61 39 117q37 51 102 51q100 0 101 -143q0 -178 -47 -461q-39 -227 -39 -307q0 -98 34 -174q43 -96 134 -96q88 0 266 53t266 53q46 0 80 -31q33 -31 33 -80q0 -115 -125 -163q-27 -12 -150 -35l-21 -5q-22 -5 -75 -19.5t-111 -28.5 q-123 -31 -211 -31q-186 0 -288 164q-86 137 -86 340z" />
<glyph unicode="m" horiz-adv-x="1679" d="M68 55q0 25 2 39q63 319 145 797q12 74 27 205q25 158 63 237q55 113 144 113q80 0 149 -180l45 -121q143 -399 201 -610q92 262 157 481q53 182 78 235q68 152 162 152q63 0 94 -76q12 -27 31 -127q33 -184 84 -377l102 -370l45 -158q23 -96 23 -164q0 -66 -45 -119 q-47 -55 -109 -55q-51 0 -84 63q-29 59 -49 144q-10 59 -30 149q-12 43 -123 486l-162 -480q-33 -92 -49 -126q-25 -61 -66 -117q-53 -72 -115 -72q-92 0 -202 412q-63 238 -133 442q-53 -283 -88 -506l-25 -155q-16 -90 -43 -152q-43 -100 -127 -100q-47 0 -74 32 q-28 35 -28 78z" />
<glyph unicode="n" horiz-adv-x="1228" d="M78 45q0 160 22 391q27 289 29 391v203q0 123 29 225q43 143 133 144q45 0 84 -56q41 -57 90 -151l86 -156l328 -518l8 516q4 170 20 234q37 145 150 145q90 0 90 -115q0 -182 -8.5 -446t-8.5 -449q0 -160 -24 -245q-18 -63 -57 -117q-49 -66 -105 -66q-33 0 -74 45 q-51 53 -192 281l-320 514q0 -6 -3 -60.5t-11 -183.5l-16 -270q-12 -166 -27 -223q-39 -141 -143 -141q-80 -1 -80 108z" />
<glyph unicode="o" horiz-adv-x="1443" d="M59 592q0 205 88 383q90 184 256 291q68 133 342 133q289 0 467 -217q168 -205 168 -498q0 -299 -172 -506q-180 -217 -477 -217q-283 0 -475 170q-197 178 -197 461zM303 664q0 -193 139 -314q131 -115 326 -114q168 0 264 112q92 106 92 277q0 225 -131 354 q-135 131 -356 131q-35 0 -123 -53q-211 -131 -211 -393z" />
<glyph unicode="p" horiz-adv-x="1327" d="M72 1260q0 61 41 104q43 45 102 45q113 0 248 -12q350 -27 541 -107q301 -127 301 -407q0 -260 -318 -426q-236 -123 -547 -166q0 -144 -18 -209q-37 -121 -143 -121q-94 0 -95 125q0 94 6 266q10 209 11 266v244q0 76 43 133.5t116 57.5q92 0 93 -158q0 -65 -7 -332 q598 104 598 285q0 215 -452 262q-135 8 -273 18q-203 23 -235 80q-12 21 -12 52z" />
<glyph unicode="q" horiz-adv-x="1433" d="M49 514q0 240 123 457q123 219 330 329q45 102 246 103q276 0 450 -193q166 -187 166 -467q0 -299 -186 -530q158 -154 157 -215q0 -55 -41 -102q-39 -45 -94 -46q-57 0 -223 189q-145 -82 -318 -82q-260 0 -430 149q-180 156 -180 408zM287 586q0 -164 119 -262 q114 -92 282 -93q59 0 125 17q-84 137 -84 176q0 45 37 88q35 41 82 41q55 0 174 -162q92 129 92 299q0 211 -133 324q-123 104 -342 108q-9 -6 -31 -18q-321 -199 -321 -518z" />
<glyph unicode="r" horiz-adv-x="1409" d="M74 1231q0 59 45 110.5t106 51.5q313 0 611 -76q231 -57 350 -146q166 -119 166 -321q0 -264 -344 -418q70 -92 204 -213q70 -63 70 -117q0 -55 -41 -108q-45 -57 -98 -57q-27 0 -56 20q-200 132 -350 387q-156 -41 -385 -68q-4 -307 -141 -307q-78 0 -78 99 q0 20 4 171.5t4 174.5q0 78 -2 141v141q0 221 21 441q-86 14 -86 94zM365 541q745 94 745 282q0 223 -733 293q-6 -106 -12 -575z" />
<glyph unicode="s" horiz-adv-x="1329" d="M57 932q0 231 248 362q199 102 459 103q166 0 272 -43q156 -61 156 -201q0 -78 -51 -162q-57 -96 -131 -96q-51 0 -76 37q-29 41 -29 88q0 29 13 63q-68 29 -211 29q-264 0 -383 -111q-12 -12 -13 -16q0 -117 246 -184q444 -123 463 -131q246 -109 246 -324 q0 -199 -168 -303q-135 -84 -353 -84q-125 0 -311 33q-223 39 -272 104q-23 29 -23 74q0 66 45 115q43 47 113 47q27 0 164 -33q182 -47 434 -47q115 0 115 39q0 86 -246 151q-356 94 -459 144q-248 123 -248 346z" />
<glyph unicode="t" horiz-adv-x="1540" d="M31 1161q0 66 45 119t108 53q12 0 20.5 -2t18.5 -2q184 0 582 57q383 55 584 56q133 0 133 -103q0 -123 -123 -165q-37 -14 -119 -19q-39 0 -121 -4q-125 -8 -225 -25l-109.5 -16l-81 -12t-34.5 -4q-10 -236 -25 -684v-203q0 -242 -133 -242q-53 0 -76 72q-23 70 -22 244 q0 88 26 792q-158 -10 -291 -10q-157 0 -157 98z" />
<glyph unicode="u" horiz-adv-x="1454" d="M72 614q0 131 39 314q37 176 90 307l39 84q43 63 102 63q41 0 70 -28q27 -27 26 -72q0 -55 -32 -160l-50 -161q-45 -156 -45 -277q0 -218 160 -332q139 -102 365 -102q174 0 241 153q43 100 43 306q0 102 -32.5 284.5t-32.5 284.5q0 55 49 111q51 57 106 57 q70 0 125 -291q45 -227 45 -360q0 -358 -125 -566q-154 -260 -487 -260q-309 0 -498 168q-198 174 -198 477z" />
<glyph unicode="v" horiz-adv-x="1298" d="M45 1253q0 57 43 113q41 53 100 53q47 0 86 -59q49 -76 129 -293q131 -360 215 -653q129 258 281 612l86 201q66 139 107 178q35 31 69 31q45 0 76 -35q31 -33 31 -82q0 -25 -4 -37q-10 -39 -121 -278l-236 -512l-82 -205q-65 -157 -123 -240q-84 -115 -159.5 -115 t-112.5 148q-6 29 -18 80q-33 129 -113 350l-131 340q-123 331 -123 403z" />
<glyph unicode="w" horiz-adv-x="1783" d="M59 1260q0 58 50 110q49 53 108 53q49 0 82 -61q29 -51 55 -150l37 -155l135 -520l191 510q68 170 80 194q68 133 141 133q77 0 129 -141q16 -43 88 -285q68 -225 164 -475q51 272 96 541q25 156 27 160q16 86 47 155q45 106 127 107q47 0 74 -33q29 -35 28 -80 q0 -8 -4 -37q-57 -279 -153 -813l-29 -205q-27 -145 -70 -239q-57 -115 -141 -115q-82 0 -158 182q-31 72 -51 127q-144 366 -221 645q-74 -190 -178 -512q-63 -201 -82 -239q-72 -158 -170 -158q-63 0 -94 78q-10 33 -31 129q-14 61 -66 266q-84 348 -207 809q-4 17 -4 19z " />
<glyph unicode="x" horiz-adv-x="1259" d="M63 74q0 106 388 631q-358 502 -359 569q0 55 41 112q39 55 96 56q55 0 133 -127q72 -113 267 -379l182 233q113 139 199 213q41 35 71 35q41 0 70 -34.5t29 -79.5q0 -55 -62 -136l-11 -13l-37 -42l-54 -61q-49 -55 -250 -312q418 -600 418 -680q0 -55 -43 -104 t-94.5 -49t-118.5 96l-82 141q-45 72 -254 371q-157 -209 -258 -393q-89 -160 -166 -160q-45 0 -76 35q-29 31 -29 78z" />
<glyph unicode="y" horiz-adv-x="1386" d="M63 1044q0 123 31 222q45 143 142 143q45 0 75 -35q31 -34 31 -80q0 -39 -8 -96q-10 -72 -10 -96q0 -154 77 -240q82 -92 226 -92q125 0 237 66q119 70 156 186q-10 150 -10 223.5t41 128.5q43 57 110 58q72 0 105 -101q27 -80 26 -160q0 -98 8 -237q10 -174 11 -240 q0 -322 -127 -510q-152 -219 -459 -219q-104 0 -266 35q-194 40 -234 98q-16 23 -16 58q0 63 41 116q43 55 102 56q12 0 25 -4q276 -78 391 -78q113 0 166 35q61 39 88 141q18 63 18 225q-201 -166 -456 -166q-246 0 -387 160q-134 155 -134 403z" />
<glyph unicode="z" horiz-adv-x="1462" d="M80 1243q0 66 47 119q45 51 109 51q10 0 190 -10q127 -4 381 -14q309 -14 362 -15q133 0 134 -100q0 -88 -119 -250q-25 -37 -187 -225l-493 -559q150 10 403 34q252 25 408 25q94 0 94 -100q0 -109 -117 -162q-53 -23 -282 -39q-641 -39 -787 -39q-121 0 -121 109 q0 90 119 229l189 201q190 209 528 616q-432 23 -625 23q-96 0 -151 14q-82 20 -82 92z" />
<glyph unicode="{" horiz-adv-x="1155" d="M45 614q0 156 207 193q57 6 164 31l-45 110q-23 68 -23 117q0 262 393 379q18 6 29 6q43 0 65.5 -33t22.5 -71q0 -86 -47 -127q-29 -23 -106 -48q-76 -25 -109 -53q0 -37 41 -125t41 -145q0 -70 -37 -131q72 -66 72 -166q0 -61 -27 -162q-25 -94 -29 -156q41 6 111 39 q76 33 113 33q43 0 73 -35q31 -34 31 -80q0 -98 -145 -176q-133 -70 -238 -69q-90 0 -149 69q-51 59 -52 158q0 57 25 154q23 98 33 153q-33 12 -64 13q-27 0 -47 -2.5t-49 -2.5q-80 0 -156 27q-98 34 -98 100z" />
<glyph unicode="|" horiz-adv-x="839" d="M250 -264q0 8 4 37q47 305 47 667q0 555 29 922q18 217 155 217q94 0 95 -115q0 -10 -1 -48t-3.5 -115.5t-4.5 -159.5q-2 -45 -4 -170t-6 -261.5l-8 -275.5q0 -20 -4 -82.5l-13.5 -207l-17.5 -273.5q-16 -229 -172 -229q-43 0 -69.5 26.5t-26.5 67.5z" />
<glyph unicode="}" horiz-adv-x="1153" d="M170 1210q0 84 92 146q150 100 289 100q92 0 149 -67q49 -66 50 -162q0 -53 -23 -154q-25 -102 -33 -153q25 -10 49 -11q4 0 23.5 1t34 1t33 1t22.5 1q80 0 156 -26q98 -35 98 -101q0 -57 -39 -108q-39 -53 -94 -70q-33 -10 -117 -20q-78 -8 -119 -25q61 -169 62 -227 q0 -147 -129 -252q-98 -80 -264 -127q-12 -4 -29 -4q-84 0 -84 102q0 92 49 131q25 18 109 45q70 20 100 52q0 43 -39 127q-41 88 -41 145q0 66 37 127q-74 63 -74 168q0 49 27 160q27 106 31 157q-41 -6 -113 -41q-76 -33 -113 -32q-43 0 -71.5 34.5t-28.5 81.5z" />
<glyph unicode="~" horiz-adv-x="1456" d="M125 631q0 45 37 100q55 82 147 129q96 49 189 49q101 0 245 -80q147 -82 189 -81q25 0 53 59q43 94 57 113q43 61 101 61q49 0 76 -33q29 -35 28 -80q0 -139 -114 -266q-119 -133 -256 -133q-90 0 -226 80q-139 82 -205 82q-51 0 -116.5 -59.5t-104.5 -59.5 q-46 0 -73 37q-27 35 -27 82z" />
<glyph unicode="&#xa1;" horiz-adv-x="616" d="M82 -96q0 96 37 237q53 195 59 234l25 157q18 109 51 162q47 76 127 76q88 0 88 -98q0 -49 -12 -113q-14 -96 -99 -473q-31 -150 -47 -186q-47 -109 -139 -109q-90 0 -90 113zM264 1010q0 76 39 145q47 84 115 84q39 0 67 -29q27 -27 27 -67q0 -2 -4 -39q0 -10 -4 -35 t-6 -41q-6 -55 -45 -94q-41 -41 -91 -41q-98 0 -98 117z" />
<glyph unicode="&#xa2;" horiz-adv-x="1337" d="M94 682q0 260 260 483q248 215 514 224q25 61 111 221q47 72 100 71q47 0 74 -32q31 -37 31 -78q0 -55 -92 -234q178 -95 178 -184q0 -55 -41 -102t-96 -47q-20 0 -160 88l-275 -578h158q100 0 156 -16q82 -20 82 -95q0 -55 -35 -106q-35 -49 -90 -66q-27 -8 -115 -8 q-182 0 -291 19l-121 -254q-35 -72 -106 -72q-43 0 -71.5 35t-28.5 78q0 53 114 278q-256 121 -256 375zM342 729q0 -92 131 -156l256 531q-217 -61 -336 -238q-51 -78 -51 -137z" />
<glyph unicode="&#xa3;" horiz-adv-x="1509" d="M193 82q0 133 131 182q8 2 26.5 7t28.5 8q39 10 47 24q2 6 2 25q0 55 -43 159q-109 0 -109 95q0 46 25 92q-55 141 -55 248q0 190 174 340q170 145 360 145q113 0 178 -66q63 -63 64 -178q0 -86 -35 -151q-41 -80 -119 -80q-43 0 -71.5 28.5t-28.5 73.5q0 20 4 37 q6 25 6 37q0 18 -28 18q-74 0 -152 -47q-88 -53 -88 -123q0 -57 70 -202q283 8 372 8q158 0 158 -107q0 -66 -45 -116q-47 -53 -113 -54q-12 0 -57 1t-80 1h-137q12 -66 12 -127q0 -45 -10 -84q41 2 119 3h311q123 0 190 -21q86 -25 86 -98q0 -131 -131 -174 q-66 -20 -172 -21q-43 0 -387 4t-385 4q-118 0 -118 109z" />
<glyph unicode="&#xa4;" horiz-adv-x="1419" d="M190 1006q0 59 43 114q41 53 103 54q31 0 70 -39l114 -113q111 96 197 96q74 0 164 -57q129 131 198 131q47 0 78 -35t31 -82q0 -63 -47 -117q-14 -16 -101 -81q35 -82 35 -172q0 -102 -49 -195q119 -115 119 -178q0 -61 -43 -112.5t-105 -51.5q-51 0 -200 156 q-45 -8 -68 -9q-63 0 -131 21q-182 -160 -231 -160q-45 0 -74 35q-31 37 -31 80q0 86 135 194q-55 77 -55 166q0 66 18 131q-170 146 -170 224zM596 733q0 -49 61 -94q57 -41 109 -41q53 0 53 51q0 104 -131 174q-92 -20 -92 -90z" />
<glyph unicode="&#xa5;" horiz-adv-x="1730" d="M174 410q0 131 141 168q53 14 248 18h29q-336 582 -336 639q0 55 45 106q41 47 102 48q47 0 91 -54q29 -35 124 -223q104 -209 222 -407q276 449 469 669q55 66 112 66q43 0 74 -31q33 -33 33 -74q0 -59 -170 -303l-279 -395q270 25 402 25q102 0 102 -105 q0 -115 -115 -154q-31 -8 -188 -18q-29 -2 -344 -33v-4q147 10 297 10q117 0 117 -98q0 -127 -123 -164q-55 -16 -230 -16q-31 0 -53 -2q-12 -59 -49 -96q-39 -39 -92 -39q-78 0 -98 106q-45 -8 -87.5 -17t-80.5 -18q-90 -18 -172 -18q-102 0 -103 96q0 133 156 187 q68 25 268 43v8q-322 -31 -399 -31q-113 0 -113 111z" />
<glyph unicode="&#xa6;" horiz-adv-x="677" d="M182 1454q0 66 39 121q37 53 103 53q68 0 92 -53q14 -35 14 -117v-106q0 -25 8 -226q6 -151 6 -227q0 -66 -45 -113t-108 -47q-74 0 -88 88q0 16 -2 85t-4 120l-7.5 223.5t-5.5 149.5t-2 49zM217 -270q0 18 8 161q6 109 6 162q0 68 -2 121q-4 106 -4 123q0 49 37 92 t86 43q53 0 74 -70q27 -94 27 -251v-189q0 -299 -148 -299q-84 1 -84 107z" />
<glyph unicode="&#xa8;" horiz-adv-x="1249" d="M229 1579q0 27 21 125q31 147 145 147q51 0 78 -38.5t27 -90.5q0 -23 -6 -53q-29 -131 -41 -151q-41 -84 -119 -84q-105 0 -105 145zM750 1591q0 84 45 168q53 102 123 103q47 0 71 -31q27 -33 27 -78q0 -25 -10.5 -82t-10.5 -80q0 -53 -43 -102t-98 -49q-49 0 -80 53 q-24 46 -24 98z" />
<glyph unicode="&#xa9;" horiz-adv-x="2211" d="M190 602q0 283 148 518q154 248 407 340q43 12 68 21q8 4 30.5 12t37.5 14q106 33 227 33q356 0 631 -225q295 -240 295 -588q0 -396 -332 -645q-305 -229 -715 -229q-346 0 -567 198q-230 205 -230 551zM446 655q0 -240 187 -381q164 -127 416 -127q344 0 555 183 q174 150 174 352q0 49 -15 94q-66 201 -256 340q-188 137 -403 137q-297 0 -471 -149q-187 -156 -187 -449zM741 618q0 170 121 314q123 147 295 147q70 0 125 -24q72 -31 72 -92q0 -57 -41 -110.5t-96 -53.5q-18 0 -45 8t-48 8q-59 0 -96 -41q-35 -37 -35 -100 q0 -90 117 -90q6 0 68 8q46 6 67 6q88 0 88 -100q0 -104 -96 -158q-76 -41 -188 -41q-139 0 -223.5 90t-84.5 229z" />
<glyph unicode="&#xab;" horiz-adv-x="1607" d="M135 375q0 71 74 141q47 45 254 186q219 145 254 146q41 0 65.5 -35t24.5 -80q0 -66 -59 -129q-47 -45 -121 -94l-129 -84q303 -197 303 -291q0 -57 -47 -115q-46 -55 -105 -55q-51 0 -266 156q-207 150 -238 211q-10 25 -10 43zM780 399q0 74 72 142q37 35 219 141 q193 111 223 111q47 0 78 -37t31 -82q0 -84 -94 -152l-166 -96q236 -184 235 -270q0 -63 -39 -117q-43 -59 -100 -59q-45 0 -197 126q-104 86 -186 168q-51 49 -57 64q-19 33 -19 61z" />
<glyph unicode="&#xad;" horiz-adv-x="1239" d="M231 690q0 115 101 156q66 25 194 24h371q125 0 125 -98q0 -57 -35 -104q-33 -45 -90 -62q-25 -6 -178 -12l-187 -10q-115 -6 -186 -6q-115 -1 -115 112z" />
<glyph unicode="&#xae;" horiz-adv-x="2189" d="M190 596q0 274 146 510q156 248 403 336l25 6q25 6 43 12q6 2 23.5 11.5t41.5 19.5q104 31 230 31q348 0 620 -224q289 -237 289 -577q0 -391 -328 -639q-299 -229 -702 -229q-347 0 -565 196q-226 203 -226 547zM446 649q0 -236 183 -377q164 -125 409 -125 q356 0 559 189q164 152 164 338q0 49 -14 92q-66 203 -254 336q-190 135 -401 135q-292 0 -461 -147q-185 -154 -185 -441zM618 948q0 94 89 146q70 39 213 69q137 29 227 29q135 0 231 -59q115 -72 115 -201q0 -168 -195 -316q90 -143 91 -210q0 -59 -39 -106.5t-97 -47.5 q-51 0 -90 51l-110 176q-41 -16 -66 -22q-10 -238 -147 -238q-90 0 -90 105q0 80 4 143q6 94 6 143q0 37 -6 117t-6 121q-23 -6 -35 -6q-45 0 -70 30.5t-25 75.5zM983 909q9 -83 12 -184q207 92 246 156q-33 37 -149 37q-54 -1 -109 -9z" />
<glyph unicode="&#xaf;" horiz-adv-x="1456" d="M266 1194v205h922v-205h-922z" />
<glyph unicode="&#xb0;" horiz-adv-x="1318" d="M250 922q0 178 92 262q29 86 158 151q113 57 217 58q143 0 248 -99q102 -96 102 -243q0 -187 -147 -332q-150 -145 -334 -146q-145 0 -242 103q-94 101 -94 246zM485 967q0 -121 150 -121q72 0 129 45t57 115q0 51 -51 84q-45 27 -98 26q-45 0 -168 -67q-19 -45 -19 -82z " />
<glyph unicode="&#xb1;" horiz-adv-x="1136" d="M150 690q0 63 43 118.5t102 55.5q12 0 139 -6q0 37 -2 72q-4 61 -4 71q0 59 49 112.5t109 53.5q100 0 100 -206q0 -68 -2 -103q168 6 213 6q135 0 135 -102q0 -129 -121 -160q-63 -18 -243 -14q-6 -111 -31 -174q-37 -94 -131 -95q-90 0 -90 105q0 37 10 164 q-18 0 -33 -2h-31q-95 0 -135 12q-77 24 -77 92zM164 98q0 113 102 156q68 25 201 25h362q127 0 127 -101q0 -131 -125 -164q-20 -6 -182 -12q-40 -3 -184 -12q-113 -6 -186 -6q-53 0 -84 32.5t-31 81.5z" />
<glyph unicode="&#xb4;" horiz-adv-x="636" d="M90 1524q0 51 39 110q57 96 195 299q55 74 114 74q41 0 70 -35t29 -78q0 -58 -99 -221q-94 -158 -141 -205q-51 -51 -107 -51q-43 0 -71 31q-29 33 -29 76z" />
<glyph unicode="&#xb6;" horiz-adv-x="2027" d="M127 705q0 246 217 432q330 281 846 280q309 0 610 -102q109 -37 109 -109q0 -63 -49 -114q-49 -53 -109 -54q-20 0 -35 4q-133 33 -379 80q27 -23 35 -71q8 -39 14 -164q23 -418 23 -522q0 -147 -8 -320q-8 -176 -35 -272q-49 -176 -164 -176q-86 0 -86 108 q0 141 21 379q23 260 22 375q0 86 -12 262t-12 260q0 49 32 90q34 43 80 62h-63q-416 0 -625 -140q-178 -117 -178 -245q0 -115 145 -205q117 -76 246 -99q16 285 16 453q0 221 144 221q100 0 100 -117q0 -240 -18 -579q41 -31 41 -86q0 -74 -56 -129q-2 -47 -7 -140.5 t-15 -236.5q-10 -217 -148 -217q-98 0 -98 117q0 86 25 432q-244 18 -426 153q-203 154 -203 390z" />
<glyph unicode="&#xb7;" horiz-adv-x="622" d="M176 692q0 72 45 135q49 72 119 72q49 0 76 -33q29 -35 28 -82q0 -70 -47 -133q-51 -66 -121 -65q-43 0 -71 30q-29 33 -29 76z" />
<glyph unicode="&#xbb;" horiz-adv-x="1521" d="M207 59q0 98 133 207l215 150l-156 84q-96 57 -141 106q-41 47 -41 94q0 66 39 119q43 61 104 62q31 0 101 -45l96 -70l217 -119q141 -89 141 -178q0 -51 -47 -115q-55 -68 -276 -231q-236 -174 -295 -174q-90 -1 -90 110zM741 782q0 57 45 115q41 53 101 53 q46 0 252 -166q203 -160 235 -213q25 -40 25 -73q0 -53 -45 -117q-49 -68 -226 -217q-193 -162 -241.5 -162t-75.5 39t-27 88q0 80 113 182l176 144l-166 123q-111 83 -141 135q-25 42 -25 69z" />
<glyph unicode="&#xbf;" horiz-adv-x="1331" d="M43 106q0 190 145 300q106 78 326 137q258 72 334 100q-8 23 -8 47q0 57 39 113q37 51 94 51q61 0 106 -70q41 -66 41 -125q0 -172 -221 -276q-57 -27 -319 -96q-229 -59 -285 -115q6 -111 276 -111q123 0 201 17q70 12 197 63q18 8 39 9q43 0 71 -35q31 -37 31 -80 q0 -70 -67.5 -125t-245.5 -92q-164 -31 -271 -31q-186 0 -317 66q-166 81 -166 253zM807 1049q0 20 29 84q23 49 47 79q39 49 94 50q40 0 67 -31q25 -27 25 -74q0 -72 -47 -139q-53 -76 -121 -76q-41 0 -67.5 33t-26.5 74z" />
<glyph unicode="&#xc0;" horiz-adv-x="1142" d="M43 53q0 66 162 484l207 526q57 152 57 158q29 66 80 145q53 76 115 76q65 0 104 -86q39 -84 70 -228q49 -233 51 -237l67 -211l113 -377q41 -141 41 -174q0 -57 -45 -115q-49 -57 -107 -57q-66 0 -129 170q-23 -2 -81 -2q-6 0 -35 1t-49 1h-84h-271q-63 -182 -164 -182 q-45 0 -73.5 32.5t-28.5 75.5zM340 1911q0 63 47 116.5t109 53.5q55 0 92 -60l98 -186l66 -100q43 -72 43 -109q0 -61 -41 -115q-43 -57 -101 -57q-39 0 -73 33q-49 43 -144 207q-96 168 -96 217zM391 348h363q-76 240 -152 557q-33 -82 -211 -557z" />
<glyph unicode="&#xc1;" horiz-adv-x="1148" d="M16 53q0 66 162 484l207 526q59 156 59 158q33 76 78 145q53 76 117 76q66 0 104 -86q35 -76 68 -228q43 -205 53 -237l66 -211l114 -377q39 -135 39 -174q0 -61 -45 -115q-45 -57 -104 -57q-66 0 -129 170q-23 -2 -82 -2q-6 0 -36 1t-50 1h-84h-270q-63 -182 -164 -182 q-45 0 -74 32.5t-29 75.5zM365 348h362q-70 215 -149 557zM535 1563q0 51 38 110l193 297q57 76 117 76q41 0 69.5 -35t28.5 -80q0 -58 -98 -221q-84 -145 -144 -205q-51 -51 -104 -51q-45 0 -72 31q-28 33 -28 78z" />
<glyph unicode="&#xc2;" horiz-adv-x="1159" d="M39 53q0 66 162 484l207 526q59 156 59 158q33 76 78 145q53 76 114 76q66 0 107 -86q39 -84 70 -228q49 -233 51 -237l65 -211q16 -49 115 -377q39 -135 39 -174q0 -59 -43 -115q-49 -57 -107 -57q-68 0 -131 170q-23 -2 -82 -2q-6 0 -34.5 1t-49.5 1h-84h-270 q-63 -182 -164 -182q-45 0 -73.5 32.5t-28.5 75.5zM240 1538q0 47 135 262q137 217 178 250q35 27 72 27q57 0 237 -205q182 -207 182 -266q0 -55 -38.5 -106.5t-94.5 -51.5q-57 0 -163 119q-27 31 -138 172l-71 -125q-49 -82 -82 -119q-52 -61 -111 -61q-45 0 -75.5 30.5 t-30.5 73.5zM387 348h363q-76 240 -152 557l-23.5 -58.5t-25.5 -69.5t-58.5 -156.5z" />
<glyph unicode="&#xc3;" horiz-adv-x="1232" d="M61 53q0 66 162 484l207 526q57 152 57 158q29 66 80 145q53 76 115 76q68 0 106 -86q35 -76 68 -228q49 -233 51 -237l68 -211l115 -377q39 -135 38 -174q0 -57 -45 -115q-49 -57 -104 -57q-68 0 -131 170q-23 -2 -82 -2q-6 0 -35 1t-49 1h-84h-270q-63 -182 -164 -182 q-45 0 -74 32.5t-29 75.5zM172 1561q0 100 131 180q115 68 225 67q76 0 186.5 -51t159.5 -51q27 0 78.5 55.5t102.5 55.5q43 0 73 -35q31 -33 31 -82q0 -33 -20 -72q-43 -82 -129 -137q-90 -57 -179 -57q-72 0 -182 51t-170 51q-45 0 -108.5 -43t-96.5 -43q-45 0 -73.5 33 t-28.5 78zM410 348h360q-70 215 -149 557q-33 -82 -211 -557z" />
<glyph unicode="&#xc4;" horiz-adv-x="1191" d="M51 53q0 66 162 484l207 526q57 152 57 158q33 76 78 145q53 76 117 76q66 0 106 -86q39 -84 70 -228l24.5 -119.5t17.5 -85t7 -32.5l68 -211q16 -49 114 -377q39 -135 39 -174q0 -61 -45 -115q-45 -57 -104 -57q-68 0 -131 170q-23 -2 -82 -2q-6 0 -35 1t-49 1h-84h-271 q-63 -182 -163 -182q-45 0 -74 32.5t-29 75.5zM281 1579q0 35 18 125q31 147 145 147q51 0 78 -39q29 -41 29 -90q0 -12 -8 -53q-27 -121 -41 -151q-41 -84 -119 -84q-102 0 -102 145zM399 348h363q-76 240 -152 557l-23.5 -58.5t-25.5 -69.5t-58.5 -156.5zM799 1591 q0 78 45 168q53 102 125 103q43 0 69 -31q27 -29 27 -78q0 -25 -10.5 -82t-10.5 -80q0 -53 -43 -102t-96 -49q-51 0 -82 53q-24 46 -24 98z" />
<glyph unicode="&#xc5;" horiz-adv-x="1206" d="M39 53q0 66 162 484l207 526q59 156 59 158q33 76 78 145q53 76 114 76q66 0 107 -86q39 -84 70 -228q49 -233 51 -237l65 -211q16 -49 115 -377q39 -135 39 -174q0 -59 -43 -115q-49 -57 -107 -57q-68 0 -131 170q-23 -2 -82 -2q-6 0 -34.5 1t-49.5 1h-84h-270 q-63 -182 -164 -182q-45 0 -73.5 32.5t-28.5 75.5zM315 1825q0 176 95 262q27 84 157 149q115 59 215 60q145 0 250 -98q102 -96 103 -244q0 -187 -148 -332q-150 -145 -336 -145q-145 0 -239 100q-97 103 -97 248zM387 348h363q-76 240 -152 557l-23.5 -58.5t-25.5 -69.5 t-58.5 -156.5zM553 1870q0 -121 147 -121q72 0 129.5 45t57.5 115q0 51 -51 84q-41 27 -99 26q-49 0 -168 -67q-16 -41 -16 -82z" />
<glyph unicode="&#xc6;" horiz-adv-x="1869" d="M51 49q0 31 37 129q14 37 28.5 71l26.5 62q117 338 334 901q31 76 76 150q49 78 118.5 78t104.5 -88q37 -98 82 -314q4 12 6 70q-33 25 -33 78t31 102q29 47 80 60q41 27 82 26q20 0 33 -6q51 8 452 35q43 2 83 5t57.5 4t19.5 1q100 0 100 -96q0 -145 -206 -160 q-195 -14 -459 -41q-8 -84 -49 -291q172 29 377 29q119 0 118 -111q0 -100 -84 -137q-37 -16 -174 -26l-274 -25q-2 -20 -2 -43q0 -287 180 -287q84 0 243.5 49.5t243.5 49.5q123 0 123 -95q0 -55 -34 -102q-33 -43 -89 -64q-27 -8 -104 -22q-94 -16 -174 -41 q-184 -57 -244 -57q-121 0 -211 57q-96 61 -135 164h-483q-80 -227 -180 -227q-47 0 -74 32.5t-27 79.5zM416 385h325q-66 195 -133 502z" />
<glyph unicode="&#xc8;" horiz-adv-x="1114" d="M55 444q0 117 41 338q45 231 51 340q-31 25 -30 78q0 55 26 96q29 43 76 62q37 35 90 35q23 0 41 -13q285 43 606 43q98 0 99 -94q0 -106 -109 -141q-37 -12 -194 -23q-137 -8 -363 -35q-10 -86 -49 -286q129 20 371 20q125 0 125 -110q0 -100 -82 -133q-43 -16 -170 -27 q-95 -9 -283 -25q-2 -20 -2 -43q0 -291 182 -290q78 0 238 53t237 53q131 0 131 -98q0 -132 -147 -178l-252 -52l-121 -39q-61 -18 -123 -18q-209 0 -305 145q-84 123 -84 342zM309 1888q0 57 47 115q45 53 109 53q53 0 90 -57l100 -187l66 -102q43 -72 43 -106 q0 -63 -39 -115q-43 -59 -102 -59q-39 0 -74 32q-49 43 -143 207q-97 168 -97 219z" />
<glyph unicode="&#xc9;" horiz-adv-x="1122" d="M39 444q0 117 41 338q47 246 53 340q-33 27 -33 78t29 96q29 43 76 62q37 35 90 35q23 0 41 -13q287 43 606 43q96 0 96 -94q0 -109 -106 -141q-37 -12 -197 -23q-131 -8 -360 -35q-6 -61 -51 -286q131 20 370 20q127 0 127 -110q0 -98 -84 -133q-39 -16 -170 -27 q-106 -10 -280 -25q-2 -20 -2 -43q0 -291 182 -290q80 0 235.5 53t239.5 53q129 0 129 -98q0 -133 -145 -178l-254 -52l-59.5 -20l-59.5 -19q-61 -18 -123 -18q-209 0 -305 145q-86 127 -86 342zM465 1524q0 51 39 110l192 299q55 74 115 74q43 0 72 -35q27 -33 26 -78 q0 -58 -98 -221q-88 -152 -141 -205q-51 -51 -105 -51q-45 0 -73 31q-27 29 -27 76z" />
<glyph unicode="&#xca;" horiz-adv-x="1134" d="M55 444q0 117 41 338q45 231 51 340q-31 25 -30 78q0 55 26 96q29 43 76 62q37 35 90 35q23 0 41 -13q285 43 606 43q98 0 99 -94q0 -106 -109 -141q-37 -12 -194 -23q-137 -8 -363 -35q-10 -86 -49 -286q129 20 371 20q125 0 125 -110q0 -100 -82 -133q-43 -16 -170 -27 q-95 -9 -283 -25q-2 -20 -2 -43q0 -291 182 -290q78 0 238 53t237 53q131 0 131 -98q0 -132 -147 -178l-252 -52l-121 -39q-61 -18 -123 -18q-209 0 -305 145q-84 123 -84 342zM205 1538q0 47 135 262q139 221 178 250q35 27 74 27q57 0 237.5 -205t180.5 -266 q0 -55 -39 -106.5t-94 -51.5q-57 0 -164 119q-31 37 -135 172l-72 -125q-49 -82 -82 -119q-51 -61 -113 -61q-45 0 -75.5 30.5t-30.5 73.5z" />
<glyph unicode="&#xcb;" horiz-adv-x="1155" d="M63 444q0 117 41 338q47 246 54 340q-33 27 -33 78t29 96q29 43 75 62q37 35 88 35q23 0 41 -13q285 43 609 43q96 0 96 -94q0 -109 -107 -141q-37 -12 -196 -23q-137 -8 -363 -35q-10 -86 -49 -286q131 20 371 20q127 0 127 -110q0 -98 -84 -133q-39 -16 -170 -27 q-106 -10 -281 -25q-2 -20 -2 -43q0 -291 180 -290q82 0 238 53t240 53q129 0 129 -98q0 -132 -148 -178l-252 -52l-59.5 -20l-58.5 -19q-61 -18 -123 -18q-211 0 -308 145q-84 123 -84 342zM236 1579q0 35 18 125q31 147 147 147q49 0 76 -39q29 -41 29 -90q0 -12 -8 -53 q-29 -131 -41 -151q-41 -84 -119 -84q-102 0 -102 145zM754 1591q0 84 45 168q53 102 125 103q43 0 71 -31q27 -29 27 -78q0 -12 -12 -82q-10 -57 -11 -80q0 -53 -43 -102t-96 -49q-49 0 -80 53q-26 49 -26 98z" />
<glyph unicode="&#xcc;" horiz-adv-x="815" d="M59 43q0 158 211 186q8 121 15 447q4 309 14 444h-57q-164 0 -164 121q0 66 37 111q41 51 98 51q8 0 47 1t65.5 1t65.5 1t47 1h154q195 0 194 -107q0 -131 -120 -167q-43 -14 -125 -13q0 -553 -29 -864q39 2 147 2q53 0 84 -31q29 -29 29 -86q0 -162 -201 -180 q-289 -25 -407 -24q-49 0 -76 30q-29 33 -29 76zM131 1890q0 61 47 115q49 55 109 55q55 0 92 -57l98 -186l66 -105q43 -68 43 -106q0 -61 -39 -113q-43 -59 -103 -59q-35 0 -73 32q-53 45 -144 207q-96 170 -96 217z" />
<glyph unicode="&#xcd;" horiz-adv-x="815" d="M25 43q0 158 208 186q10 168 17 447q4 309 14 444h-57q-166 0 -166 121q0 63 39 111q41 51 96 51q8 0 47 1t67.5 1t65.5 1t47 1h152q197 0 197 -107q0 -131 -121 -167q-43 -14 -125 -13q0 -530 -31 -864q39 2 148 2q53 0 83.5 -30.5t30.5 -86.5q0 -162 -200 -180 q-289 -25 -410 -24q-46 0 -74 30q-28 33 -28 76zM287 1524q0 51 39 110l192 299q55 74 117 74q41 0 70 -35q27 -33 26 -78q0 -61 -96 -221q-92 -154 -143.5 -205t-104.5 -51q-43 0 -72 31q-28 33 -28 76z" />
<glyph unicode="&#xce;" horiz-adv-x="901" d="M53 1538q0 47 135 262q137 217 179 250q35 27 71 27q57 0 238 -205q182 -207 182 -266q0 -55 -39 -106.5t-94 -51.5q-57 0 -164 119q-31 37 -135 172l-74 -125q-49 -82 -82 -119q-52 -61 -110 -61q-45 0 -76 30.5t-31 73.5zM72 43q0 158 211 186q8 121 14 447 q4 309 14 444h-57q-166 0 -166 121q0 63 39 111q41 51 98 51q8 0 47 1t66 1t65.5 1t47.5 1h153q195 0 195 -107q0 -131 -121 -167q-43 -14 -125 -13q0 -553 -29 -864q39 2 148 2q51 0 81.5 -30.5t30.5 -86.5q0 -162 -200 -180q-289 -25 -408 -24q-49 0 -76 30q-28 33 -28 76 z" />
<glyph unicode="&#xcf;" horiz-adv-x="921" d="M72 1579q0 35 18 125q31 147 148 147q49 0 75 -39q29 -41 29 -90q0 -23 -6 -53q-27 -121 -41 -151q-41 -84 -121 -84q-102 0 -102 145zM86 43q0 158 209 186q10 168 16 447q4 309 15 444h-58q-166 0 -166 121q0 63 39 111q41 51 99 51q8 0 46 1t66.5 1t66.5 1t46 1h153 q193 0 193 -107q0 -131 -121 -167q-43 -14 -123 -13q0 -553 -28 -864q39 2 145 2q53 0 84 -30.5t31 -86.5q0 -162 -201 -180q-289 -25 -410 -24q-46 0 -73 30q-29 33 -29 76zM592 1591q0 82 43 168q53 102 125 103q43 0 71 -31q25 -27 25 -78q0 -25 -10 -82t-10 -80 q0 -53 -43 -102t-97 -49q-49 0 -80 53q-24 46 -24 98z" />
<glyph unicode="&#xd1;" horiz-adv-x="1222" d="M72 45q0 139 24 391q27 289 29 391v203q0 131 27 225q43 143 133 144q43 0 84 -56q41 -57 90 -151l86 -156l329 -518l9 516q4 170 20 234q37 145 148 145q92 0 92 -114.5t-10 -446.5q-8 -264 -9 -449q0 -166 -22 -245q-18 -61 -60 -117q-49 -66 -104 -66q-33 0 -74 45 q-51 53 -192 281l-320 514q0 -4 -28 -514q-12 -166 -27 -223q-39 -141 -145 -141q-80 -1 -80 108zM156 1561q0 100 131 180q115 68 225 67q76 0 186.5 -51t157.5 -51q28 0 80 55q51 55 102 56q43 0 74 -35q31 -33 31 -82q0 -31 -23 -72q-43 -82 -129 -137q-90 -57 -178 -57 q-70 0 -180.5 51t-169.5 51q-45 0 -108.5 -43t-96.5 -43q-45 0 -73.5 33t-28.5 78z" />
<glyph unicode="&#xd2;" d="M47 592q0 199 90 383t256 291q68 133 340 133q289 0 467 -217q168 -205 168 -498q0 -299 -172 -506q-180 -217 -475 -217q-285 0 -477 170q-197 178 -197 461zM293 664q0 -195 137 -314q131 -115 326 -114q170 0 266 112q90 104 90 277q0 225 -131 354q-135 131 -356 131 q-35 0 -123 -53q-209 -129 -209 -393zM397 1890q0 55 49 115q45 55 107 55q55 0 92 -57l98 -186l66 -105q43 -68 43 -106q0 -59 -41 -113q-43 -59 -98 -59q-37 0 -76 32q-53 45 -143 207q-97 170 -97 217z" />
<glyph unicode="&#xd3;" d="M33 592q0 205 88 383q90 184 256 291q68 133 342 133q287 0 465 -217q170 -207 170 -498q0 -299 -172 -506q-184 -217 -477 -217q-283 0 -476 170q-196 178 -196 461zM276 664q0 -193 140 -314q131 -115 325 -114q168 0 265 112q92 106 92 277q0 225 -133 354 q-135 131 -357 131q-35 0 -123 -53q-209 -129 -209 -393zM588 1524q0 51 39 110l192 299q55 74 117 74q41 0 70 -35q27 -33 26 -78q0 -61 -96 -221q-84 -145 -143 -205q-51 -51 -105 -51q-46 0 -74 31q-26 29 -26 76z" />
<glyph unicode="&#xd4;" horiz-adv-x="1413" d="M43 592q0 199 90 383t256 291q68 133 340 133q289 0 467 -217q170 -207 170 -498q0 -299 -172 -506q-184 -217 -477 -217q-283 0 -475 170q-199 180 -199 461zM289 664q0 -195 137 -314q131 -115 328 -114q168 0 264 112q92 106 92 277q0 225 -133 354q-135 131 -356 131 q-35 0 -123 -53q-209 -129 -209 -393zM324 1538q0 47 135 262q135 213 180 250q35 27 72 27q57 0 237 -205q182 -207 182 -266q0 -53 -40 -107q-39 -51 -93 -51q-57 0 -163 119q-27 31 -138 172l-71 -125q-49 -82 -82 -119q-52 -61 -111 -61q-45 0 -76 30q-32 33 -32 74z " />
<glyph unicode="&#xd5;" horiz-adv-x="1439" d="M55 592q0 205 88 383q90 184 256 291q68 133 342 133q285 0 465 -217q170 -207 170 -498q0 -297 -174 -506q-180 -217 -475 -217q-283 0 -475 170q-197 178 -197 461zM270 1561q0 100 133 180q113 68 226 67q74 0 184.5 -51t159.5 -51q28 0 80 55q53 55 100 56 q45 0 76 -35q29 -31 28 -82q0 -33 -20 -72q-43 -82 -129 -137q-90 -57 -178 -57q-72 0 -182.5 51t-167.5 51q-46 0 -111 -43q-63 -43 -94 -43q-47 0 -76 33t-29 78zM299 664q0 -195 137 -314q131 -115 328 -114q166 0 262 112q94 111 94 277q0 225 -133 354 q-135 131 -356 131q-33 0 -121 -53q-211 -131 -211 -393z" />
<glyph unicode="&#xd6;" horiz-adv-x="1429" d="M51 592q0 205 88 383q90 184 256 291q68 133 342 133q287 0 465 -217q170 -207 170 -498q0 -299 -172 -506q-184 -217 -475 -217q-285 0 -477 170q-197 178 -197 461zM295 664q0 -195 137 -314q131 -115 328 -114q168 0 264 112q92 106 92 277q0 225 -133 354 q-135 131 -354 131q-35 0 -123 -53q-211 -131 -211 -393zM362 1579q0 35 19 125q31 147 145 147q51 0 78 -38.5t27 -90.5q0 -23 -6 -53q-27 -121 -41 -151q-41 -84 -119 -84q-103 0 -103 145zM881 1591q0 78 45 168q53 102 125 103q43 0 69 -31q27 -29 27 -78 q0 -25 -10.5 -82t-10.5 -80q0 -53 -43 -102t-98 -49q-49 0 -80 53q-24 46 -24 98z" />
<glyph unicode="&#xd7;" horiz-adv-x="1210" d="M203 410q0 65 86 153q20 20 137 125q-184 160 -184 234q0 59 47 116q45 53 106 54q47 0 135 -82l119 -121q240 221 289 221q43 0 69.5 -39t26.5 -86q0 -90 -194 -260q162 -131 161 -211q0 -57 -43 -112.5t-100 -55.5q-51 0 -242 172l-200 -186q-59 -49 -101 -49 q-47 0 -79.5 39t-32.5 88z" />
<glyph unicode="&#xd8;" d="M45 592q0 199 90 383t256 291q66 133 340 133q49 0 115 -10q49 193 162 192q49 0 75 -31q27 -29 27 -80q0 -53 -35 -176q141 -98 219 -268q72 -162 72 -342q0 -299 -172 -506q-184 -217 -475 -217q-45 0 -113 10l-67 -202q-58 -123 -154 -123q-47 0 -76 28q-31 31 -30 74 q0 40 92 295q-162 86 -242 225q-84 146 -84 324zM291 664q0 -225 182 -347l287 777q-70 16 -137 16q-35 0 -123 -53q-209 -129 -209 -393zM707 238q6 0 22 -1t25 -1q166 0 266 112q90 104 90 277q0 225 -129 354q-71 -213 -274 -741z" />
<glyph unicode="&#xd9;" d="M51 614q0 131 39 314q37 186 88 307l39 84q43 63 105 63q41 0 69 -28q27 -27 27 -72t-33 -160q-8 -29 -21.5 -71.5l-27.5 -89.5q-43 -160 -43 -277q0 -219 158 -332q139 -102 364 -102q176 0 242 153q43 100 43 306q0 102 -33 284.5t-33 284.5q0 55 49 111q51 57 107 57 q72 0 127 -291q43 -233 43 -360q0 -356 -123 -566q-156 -260 -489 -260q-307 0 -496 168q-201 176 -201 477zM414 1890q0 61 47 115q49 55 106 55q55 0 92 -57l101 -186l31.5 -53.5l31.5 -51.5q43 -68 43 -106q0 -61 -39 -113q-43 -59 -100 -59q-37 0 -76 32 q-49 41 -141 207q-96 170 -96 217z" />
<glyph unicode="&#xda;" d="M39 614q0 131 39 314q37 186 88 307l39 84q43 63 102 63q41 0 70 -28q27 -27 26 -72q0 -52 -30 -160l-49 -161q-45 -156 -45 -277q0 -219 157 -332q139 -102 367 -102q172 0 239 153q43 100 43 306q0 84 -32 284q-31 186 -31 285q0 55 49 111q51 57 105 57q72 0 127 -291 q45 -227 45 -360q0 -358 -125 -566q-154 -260 -490 -260q-307 0 -495 168q-199 174 -199 477zM582 1524q0 51 39 110l192 299q55 74 117 74q41 0 69 -35q27 -33 27 -78q0 -61 -96 -221q-88 -152 -142 -205q-51 -51 -106 -51q-43 0 -72 31q-28 33 -28 76z" />
<glyph unicode="&#xdb;" horiz-adv-x="1413" d="M49 614q0 131 39 314q37 186 88 307q8 18 41 84q43 63 102 63q41 0 70 -28q27 -27 27 -72q0 -52 -31 -160l-49 -161q-45 -156 -45 -277q0 -219 158 -332q139 -102 364 -102q174 0 242 153q43 100 43 306q0 84 -33 284.5t-33 284.5q0 53 51.5 110.5t104.5 57.5 q72 0 127 -291q45 -227 45 -360q0 -358 -125 -566q-154 -260 -490 -260q-307 0 -495 168q-201 176 -201 477zM319 1538q0 47 136 262q137 217 178 250q35 27 72 27q57 0 237 -205q182 -207 182 -266q0 -55 -38.5 -106.5t-94.5 -51.5q-57 0 -164 119q-27 31 -137 172 l-69 -125q-49 -82 -82 -119q-51 -61 -113 -61q-45 0 -76 30.5t-31 73.5z" />
<glyph unicode="&#xdc;" horiz-adv-x="1429" d="M55 614q0 121 41 314q37 186 88 307l39 84q43 63 103 63q41 0 69.5 -28.5t28.5 -71.5q0 -45 -33 -160q-8 -29 -21.5 -71.5l-27.5 -89.5q-45 -168 -45 -277q0 -218 160 -332q139 -102 364 -102q174 0 242 153q41 96 41 306q0 102 -33 284.5t-33 284.5q0 55 49 111 q51 57 107 57q72 0 127 -291q45 -244 45 -360q0 -352 -125 -566q-156 -260 -487 -260q-309 0 -498 168q-201 176 -201 477zM342 1579q0 27 20 125q31 147 148 147q49 0 75.5 -38.5t26.5 -90.5q0 -23 -6 -53q-29 -131 -41 -151q-41 -84 -121 -84q-102 0 -102 145zM862 1591 q0 82 43 168q53 102 125 103q43 0 72 -31q27 -29 26 -78q0 -25 -10 -82t-10 -80q0 -53 -43 -102t-96 -49q-51 0 -82 53q-25 46 -25 98z" />
<glyph unicode="&#xdd;" horiz-adv-x="1339" d="M35 1044q0 123 31 222q45 143 141 143q45 0 75.5 -33t30.5 -82q0 -25 -10 -96q-8 -57 -8 -96q0 -154 78 -240q82 -92 225 -92q125 0 238 66q117 70 153 186q-8 121 -8 223q0 74 41 129q43 57 111 58q72 0 104 -101q27 -80 27 -160q0 -98 8 -237q10 -174 10 -240 q0 -322 -127 -510q-152 -219 -459 -219q-104 0 -266 35q-194 40 -233 98q-18 25 -19 58q0 61 43 116.5t103 55.5q12 0 24 -4q276 -78 391 -78q113 0 166 35q58 37 86 141q20 70 21 225q-201 -166 -457 -166q-246 0 -387 160q-133 155 -133 403zM516 1524q0 51 39 110 q57 96 195 299q55 74 114 74q43 0 72 -35q27 -33 27 -78q0 -58 -99 -221q-88 -152 -141 -205q-51 -51 -105 -51q-46 0 -73 31q-29 33 -29 76z" />
<glyph unicode="&#xde;" horiz-adv-x="1349" d="M242 82q0 -9 12 197q-10 27 -10 45q0 6 14 61q6 18 6 133q0 129 12 342q-33 29 -32 78q0 66 45 121l6 104q8 72 16 107q41 137 158 137q88 0 88 -180q0 -90 -2 -123q291 -18 471 -78q305 -98 305 -297q0 -211 -321 -352q-203 -90 -506 -137q-6 -121 -31 -177 q-39 -94 -135 -94q-47 0 -72 33q-24 35 -24 80zM526 510q553 104 553 172q0 106 -532 139q-13 -205 -21 -311z" />
<glyph unicode="&#xdf;" horiz-adv-x="1531" d="M217 645q0 639 432 739q59 14 170 15q195 0 328 -78q160 -96 160 -277q0 -156 -140 -284q126 -49 203 -135q90 -96 90 -219q0 -31 -4 -56q-33 -193 -213 -295q-156 -90 -364 -90q-190 0 -266 31t-76 100q0 66 45 113q45 49 106 49q45 0 110.5 -8t108.5 -8q82 0 172 22 q121 31 121 88q0 58 -104 117q-127 70 -355 70q-49 0 -81.5 30.5t-32.5 79.5q0 109 106 166q117 43 201 78q119 51 119 108q0 119 -328 119q-113 0 -170 -53q-92 -86 -92 -432q0 -182 41 -492q43 -326 43 -493q0 -197 -131 -197q-45 0 -74 35q-27 33 -27 82q0 164 -32 395 q-43 311 -52 395q-14 142 -14 285z" />
<glyph unicode="&#xe0;" horiz-adv-x="1142" d="M43 53q0 66 162 484l207 526q57 152 57 158q29 66 80 145q53 76 115 76q65 0 104 -86q39 -84 70 -228q49 -233 51 -237l67 -211l113 -377q41 -141 41 -174q0 -57 -45 -115q-49 -57 -107 -57q-66 0 -129 170q-23 -2 -81 -2q-6 0 -35 1t-49 1h-84h-271q-63 -182 -164 -182 q-45 0 -73.5 32.5t-28.5 75.5zM340 1911q0 63 47 116.5t109 53.5q55 0 92 -60l98 -186l66 -100q43 -72 43 -109q0 -61 -41 -115q-43 -57 -101 -57q-39 0 -73 33q-49 43 -144 207q-96 168 -96 217zM391 348h363q-76 240 -152 557q-33 -82 -211 -557z" />
<glyph unicode="&#xe1;" horiz-adv-x="1148" d="M16 53q0 66 162 484l207 526q59 156 59 158q33 76 78 145q53 76 117 76q66 0 104 -86q35 -76 68 -228q43 -205 53 -237l66 -211l114 -377q39 -135 39 -174q0 -61 -45 -115q-45 -57 -104 -57q-66 0 -129 170q-23 -2 -82 -2q-6 0 -36 1t-50 1h-84h-270q-63 -182 -164 -182 q-45 0 -74 32.5t-29 75.5zM365 348h362q-70 215 -149 557zM535 1563q0 51 38 110l193 297q57 76 117 76q41 0 69.5 -35t28.5 -80q0 -58 -98 -221q-84 -145 -144 -205q-51 -51 -104 -51q-45 0 -72 31q-28 33 -28 78z" />
<glyph unicode="&#xe2;" horiz-adv-x="1159" d="M39 53q0 66 162 484l207 526q59 156 59 158q33 76 78 145q53 76 114 76q66 0 107 -86q39 -84 70 -228q49 -233 51 -237l65 -211q16 -49 115 -377q39 -135 39 -174q0 -59 -43 -115q-49 -57 -107 -57q-68 0 -131 170q-23 -2 -82 -2q-6 0 -34.5 1t-49.5 1h-84h-270 q-63 -182 -164 -182q-45 0 -73.5 32.5t-28.5 75.5zM240 1538q0 47 135 262q137 217 178 250q35 27 72 27q57 0 237 -205q182 -207 182 -266q0 -55 -38.5 -106.5t-94.5 -51.5q-57 0 -163 119q-27 31 -138 172l-71 -125q-49 -82 -82 -119q-52 -61 -111 -61q-45 0 -75.5 30.5 t-30.5 73.5zM387 348h363q-76 240 -152 557l-23.5 -58.5t-25.5 -69.5t-58.5 -156.5z" />
<glyph unicode="&#xe3;" horiz-adv-x="1232" d="M61 53q0 66 162 484l207 526q57 152 57 158q29 66 80 145q53 76 115 76q68 0 106 -86q35 -76 68 -228q49 -233 51 -237l68 -211l115 -377q39 -135 38 -174q0 -57 -45 -115q-49 -57 -104 -57q-68 0 -131 170q-23 -2 -82 -2q-6 0 -35 1t-49 1h-84h-270q-63 -182 -164 -182 q-45 0 -74 32.5t-29 75.5zM172 1561q0 100 131 180q115 68 225 67q76 0 186.5 -51t159.5 -51q27 0 78.5 55.5t102.5 55.5q43 0 73 -35q31 -33 31 -82q0 -33 -20 -72q-43 -82 -129 -137q-90 -57 -179 -57q-72 0 -182 51t-170 51q-45 0 -108.5 -43t-96.5 -43q-45 0 -73.5 33 t-28.5 78zM410 348h360q-70 215 -149 557q-33 -82 -211 -557z" />
<glyph unicode="&#xe4;" horiz-adv-x="1191" d="M51 53q0 66 162 484l207 526q57 152 57 158q33 76 78 145q53 76 117 76q66 0 106 -86q39 -84 70 -228l24.5 -119.5t17.5 -85t7 -32.5l68 -211q16 -49 114 -377q39 -135 39 -174q0 -61 -45 -115q-45 -57 -104 -57q-68 0 -131 170q-23 -2 -82 -2q-6 0 -35 1t-49 1h-84h-271 q-63 -182 -163 -182q-45 0 -74 32.5t-29 75.5zM281 1579q0 35 18 125q31 147 145 147q51 0 78 -39q29 -41 29 -90q0 -12 -8 -53q-27 -121 -41 -151q-41 -84 -119 -84q-102 0 -102 145zM399 348h363q-76 240 -152 557l-23.5 -58.5t-25.5 -69.5t-58.5 -156.5zM799 1591 q0 78 45 168q53 102 125 103q43 0 69 -31q27 -29 27 -78q0 -25 -10.5 -82t-10.5 -80q0 -53 -43 -102t-96 -49q-51 0 -82 53q-24 46 -24 98z" />
<glyph unicode="&#xe5;" horiz-adv-x="1206" d="M39 53q0 66 162 484l207 526q59 156 59 158q33 76 78 145q53 76 114 76q66 0 107 -86q39 -84 70 -228q49 -233 51 -237l65 -211q16 -49 115 -377q39 -135 39 -174q0 -59 -43 -115q-49 -57 -107 -57q-68 0 -131 170q-23 -2 -82 -2q-6 0 -34.5 1t-49.5 1h-84h-270 q-63 -182 -164 -182q-45 0 -73.5 32.5t-28.5 75.5zM315 1825q0 176 95 262q27 84 157 149q115 59 215 60q145 0 250 -98q102 -96 103 -244q0 -187 -148 -332q-150 -145 -336 -145q-145 0 -239 100q-97 103 -97 248zM387 348h363q-76 240 -152 557l-23.5 -58.5t-25.5 -69.5 t-58.5 -156.5zM553 1870q0 -121 147 -121q72 0 129.5 45t57.5 115q0 51 -51 84q-41 27 -99 26q-49 0 -168 -67q-16 -41 -16 -82z" />
<glyph unicode="&#xe6;" horiz-adv-x="1869" d="M51 49q0 31 37 129q14 37 28.5 71l26.5 62q117 338 334 901q31 76 76 150q49 78 118.5 78t104.5 -88q37 -98 82 -314q4 12 6 70q-33 25 -33 78t31 102q29 47 80 60q41 27 82 26q20 0 33 -6q51 8 452 35q43 2 83 5t57.5 4t19.5 1q100 0 100 -96q0 -145 -206 -160 q-195 -14 -459 -41q-8 -84 -49 -291q172 29 377 29q119 0 118 -111q0 -100 -84 -137q-37 -16 -174 -26l-274 -25q-2 -20 -2 -43q0 -287 180 -287q84 0 243.5 49.5t243.5 49.5q123 0 123 -95q0 -55 -34 -102q-33 -43 -89 -64q-27 -8 -104 -22q-94 -16 -174 -41 q-184 -57 -244 -57q-121 0 -211 57q-96 61 -135 164h-483q-80 -227 -180 -227q-47 0 -74 32.5t-27 79.5zM416 385h325q-66 195 -133 502z" />
<glyph unicode="&#xe8;" horiz-adv-x="1114" d="M55 444q0 117 41 338q45 231 51 340q-31 25 -30 78q0 55 26 96q29 43 76 62q37 35 90 35q23 0 41 -13q285 43 606 43q98 0 99 -94q0 -106 -109 -141q-37 -12 -194 -23q-137 -8 -363 -35q-10 -86 -49 -286q129 20 371 20q125 0 125 -110q0 -100 -82 -133q-43 -16 -170 -27 q-95 -9 -283 -25q-2 -20 -2 -43q0 -291 182 -290q78 0 238 53t237 53q131 0 131 -98q0 -132 -147 -178l-252 -52l-121 -39q-61 -18 -123 -18q-209 0 -305 145q-84 123 -84 342zM309 1888q0 57 47 115q45 53 109 53q53 0 90 -57l100 -187l66 -102q43 -72 43 -106 q0 -63 -39 -115q-43 -59 -102 -59q-39 0 -74 32q-49 43 -143 207q-97 168 -97 219z" />
<glyph unicode="&#xe9;" horiz-adv-x="1122" d="M39 444q0 117 41 338q47 246 53 340q-33 27 -33 78t29 96q29 43 76 62q37 35 90 35q23 0 41 -13q287 43 606 43q96 0 96 -94q0 -109 -106 -141q-37 -12 -197 -23q-131 -8 -360 -35q-6 -61 -51 -286q131 20 370 20q127 0 127 -110q0 -98 -84 -133q-39 -16 -170 -27 q-106 -10 -280 -25q-2 -20 -2 -43q0 -291 182 -290q80 0 235.5 53t239.5 53q129 0 129 -98q0 -133 -145 -178l-254 -52l-59.5 -20l-59.5 -19q-61 -18 -123 -18q-209 0 -305 145q-86 127 -86 342zM465 1524q0 51 39 110l192 299q55 74 115 74q43 0 72 -35q27 -33 26 -78 q0 -58 -98 -221q-88 -152 -141 -205q-51 -51 -105 -51q-45 0 -73 31q-27 29 -27 76z" />
<glyph unicode="&#xea;" horiz-adv-x="1134" d="M55 444q0 117 41 338q45 231 51 340q-31 25 -30 78q0 55 26 96q29 43 76 62q37 35 90 35q23 0 41 -13q285 43 606 43q98 0 99 -94q0 -106 -109 -141q-37 -12 -194 -23q-137 -8 -363 -35q-10 -86 -49 -286q129 20 371 20q125 0 125 -110q0 -100 -82 -133q-43 -16 -170 -27 q-95 -9 -283 -25q-2 -20 -2 -43q0 -291 182 -290q78 0 238 53t237 53q131 0 131 -98q0 -132 -147 -178l-252 -52l-121 -39q-61 -18 -123 -18q-209 0 -305 145q-84 123 -84 342zM205 1538q0 47 135 262q139 221 178 250q35 27 74 27q57 0 237.5 -205t180.5 -266 q0 -55 -39 -106.5t-94 -51.5q-57 0 -164 119q-31 37 -135 172l-72 -125q-49 -82 -82 -119q-51 -61 -113 -61q-45 0 -75.5 30.5t-30.5 73.5z" />
<glyph unicode="&#xeb;" horiz-adv-x="1155" d="M63 444q0 117 41 338q47 246 54 340q-33 27 -33 78t29 96q29 43 75 62q37 35 88 35q23 0 41 -13q285 43 609 43q96 0 96 -94q0 -109 -107 -141q-37 -12 -196 -23q-137 -8 -363 -35q-10 -86 -49 -286q131 20 371 20q127 0 127 -110q0 -98 -84 -133q-39 -16 -170 -27 q-106 -10 -281 -25q-2 -20 -2 -43q0 -291 180 -290q82 0 238 53t240 53q129 0 129 -98q0 -132 -148 -178l-252 -52l-59.5 -20l-58.5 -19q-61 -18 -123 -18q-211 0 -308 145q-84 123 -84 342zM236 1579q0 35 18 125q31 147 147 147q49 0 76 -39q29 -41 29 -90q0 -12 -8 -53 q-29 -131 -41 -151q-41 -84 -119 -84q-102 0 -102 145zM754 1591q0 84 45 168q53 102 125 103q43 0 71 -31q27 -29 27 -78q0 -12 -12 -82q-10 -57 -11 -80q0 -53 -43 -102t-96 -49q-49 0 -80 53q-26 49 -26 98z" />
<glyph unicode="&#xec;" horiz-adv-x="542" d="M43 1890q0 59 49 114.5t109 55.5q55 0 92 -57l98 -186l66 -105q41 -63 41 -106q0 -61 -39 -113q-43 -59 -101 -59q-37 0 -75 32q-49 41 -142 207q-98 174 -98 217zM150 86q0 139 12 383q10 199 16 381v242q0 328 174 327q96 0 97 -166q0 -184 -15 -487q-16 -348 -16 -487 q0 -317 -164 -318q-104 0 -104 125z" />
<glyph unicode="&#xed;" horiz-adv-x="552" d="M57 86q0 139 13 383q10 199 16 381v242q0 328 174 327q96 0 96 -166q0 -184 -14 -487q-16 -348 -16 -487q0 -317 -166 -318q-103 0 -103 125zM86 1524q0 51 39 110l192 299q55 74 115 74q43 0 72 -35q27 -33 26 -78q0 -58 -98 -221q-88 -152 -141 -205q-51 -51 -105 -51 q-47 0 -73 31q-27 29 -27 76z" />
<glyph unicode="&#xee;" horiz-adv-x="854" d="M27 1538q0 47 135 262q135 213 180 250q35 27 72 27q57 0 237 -205q182 -207 183 -266q0 -53 -41 -107q-39 -51 -93 -51q-57 0 -163 119q-27 31 -138 172l-71 -125q-49 -82 -82 -119q-52 -61 -111 -61q-45 0 -76 30q-32 33 -32 74zM276 86q0 139 13 383q16 291 16 381 v242q0 328 174 327q96 0 96 -166q0 -139 -16 -487q-14 -303 -14 -487q0 -317 -166 -318q-103 0 -103 125z" />
<glyph unicode="&#xef;" horiz-adv-x="862" d="M43 1579q0 35 18 125q31 147 148 147q49 0 75.5 -38.5t26.5 -90.5q0 -23 -6 -53q-27 -121 -41 -151q-41 -84 -119 -84q-102 0 -102 145zM268 86q0 139 13 383q10 199 16 381v242q0 328 174 327q96 0 96 -166q0 -139 -16 -487q-14 -303 -14 -487q0 -317 -166 -318 q-103 0 -103 125zM561 1591q0 84 45 168q53 102 123 103q45 0 72 -31q27 -29 26 -78q0 -25 -10 -82t-10 -80q0 -53 -43 -102t-96 -49q-49 0 -80 53q-27 49 -27 98z" />
<glyph unicode="&#xf1;" horiz-adv-x="1220" d="M72 45q0 139 24 391q27 289 29 391v203q0 131 27 225q43 143 133 144q43 0 84 -56q41 -57 90 -151l86 -156l329 -518l9 516q4 170 20 234q37 145 148 145q92 0 92 -114.5t-10 -446.5q-8 -264 -9 -449q0 -166 -22 -245q-18 -59 -60 -117q-49 -66 -104 -66q-33 0 -74 45 q-51 53 -192 281l-320 514q0 -4 -28 -514q-12 -166 -27 -223q-39 -141 -145 -141q-80 -1 -80 108zM156 1561q0 100 131 180q115 68 225 67q76 0 186.5 -51t157.5 -51q28 0 80 55q51 55 102 56q43 0 74 -35q31 -33 31 -82q0 -31 -23 -72q-43 -82 -129 -137q-90 -57 -178 -57 q-70 0 -180.5 51t-169.5 51q-45 0 -108.5 -43t-96.5 -43q-45 0 -73.5 33t-28.5 78z" />
<glyph unicode="&#xf2;" horiz-adv-x="1220" d="M72 45q0 139 24 391q27 289 29 391v203q0 131 27 225q43 143 133 144q43 0 84 -56q41 -57 90 -151l86 -156l329 -518l9 516q4 170 20 234q37 145 148 145q92 0 92 -114.5t-10 -446.5q-8 -264 -9 -449q0 -166 -22 -245q-18 -59 -60 -117q-49 -66 -104 -66q-33 0 -74 45 q-51 53 -192 281l-320 514q0 -4 -28 -514q-12 -166 -27 -223q-39 -141 -145 -141q-80 -1 -80 108zM156 1561q0 100 131 180q115 68 225 67q76 0 186.5 -51t157.5 -51q28 0 80 55q51 55 102 56q43 0 74 -35q31 -33 31 -82q0 -31 -23 -72q-43 -82 -129 -137q-90 -57 -178 -57 q-70 0 -180.5 51t-169.5 51q-45 0 -108.5 -43t-96.5 -43q-45 0 -73.5 33t-28.5 78z" />
<glyph unicode="&#xf3;" d="M47 592q0 199 90 383t256 291q68 133 340 133q289 0 467 -217q168 -205 168 -498q0 -299 -172 -506q-180 -217 -475 -217q-285 0 -477 170q-197 178 -197 461zM293 664q0 -195 137 -314q131 -115 326 -114q170 0 266 112q90 104 90 277q0 225 -131 354q-135 131 -356 131 q-35 0 -123 -53q-209 -129 -209 -393zM397 1890q0 55 49 115q45 55 107 55q55 0 92 -57l98 -186l66 -105q43 -68 43 -106q0 -59 -41 -113q-43 -59 -98 -59q-37 0 -76 32q-53 45 -143 207q-97 170 -97 217z" />
<glyph unicode="&#xf4;" d="M33 592q0 205 88 383q90 184 256 291q68 133 342 133q287 0 465 -217q170 -207 170 -498q0 -299 -172 -506q-184 -217 -477 -217q-283 0 -476 170q-196 178 -196 461zM276 664q0 -193 140 -314q131 -115 325 -114q168 0 265 112q92 106 92 277q0 225 -133 354 q-135 131 -357 131q-35 0 -123 -53q-209 -129 -209 -393zM588 1524q0 51 39 110l192 299q55 74 117 74q41 0 70 -35q27 -33 26 -78q0 -61 -96 -221q-84 -145 -143 -205q-51 -51 -105 -51q-46 0 -74 31q-26 29 -26 76z" />
<glyph unicode="&#xf5;" horiz-adv-x="1413" d="M43 592q0 199 90 383t256 291q68 133 340 133q289 0 467 -217q170 -207 170 -498q0 -299 -172 -506q-184 -217 -477 -217q-283 0 -475 170q-199 180 -199 461zM289 664q0 -195 137 -314q131 -115 328 -114q168 0 264 112q92 106 92 277q0 225 -133 354q-135 131 -356 131 q-35 0 -123 -53q-209 -129 -209 -393zM324 1538q0 47 135 262q135 213 180 250q35 27 72 27q57 0 237 -205q182 -207 182 -266q0 -53 -40 -107q-39 -51 -93 -51q-57 0 -163 119q-27 31 -138 172l-71 -125q-49 -82 -82 -119q-52 -61 -111 -61q-45 0 -76 30q-32 33 -32 74z " />
<glyph unicode="&#xf6;" horiz-adv-x="1439" d="M55 592q0 205 88 383q90 184 256 291q68 133 342 133q285 0 465 -217q170 -207 170 -498q0 -297 -174 -506q-180 -217 -475 -217q-283 0 -475 170q-197 178 -197 461zM270 1561q0 100 133 180q113 68 226 67q74 0 184.5 -51t159.5 -51q28 0 80 55q53 55 100 56 q45 0 76 -35q29 -31 28 -82q0 -33 -20 -72q-43 -82 -129 -137q-90 -57 -178 -57q-72 0 -182.5 51t-167.5 51q-46 0 -111 -43q-63 -43 -94 -43q-47 0 -76 33t-29 78zM299 664q0 -195 137 -314q131 -115 328 -114q166 0 262 112q94 111 94 277q0 225 -133 354 q-135 131 -356 131q-33 0 -121 -53q-211 -131 -211 -393z" />
<glyph unicode="&#xf7;" horiz-adv-x="931" d="M68 690q0 180 276 180h389q125 0 125 -98q0 -131 -125 -166q-45 -12 -143 -12q-84 0 -205 -8t-203 -8q-114 -1 -114 112zM297 307q0 76 45 146q51 78 123 77q51 0 77.5 -34.5t26.5 -87.5q0 -80 -43 -144q-49 -74 -125 -74q-43 0 -73 35q-31 33 -31 82zM371 1026 q0 72 45 135q49 72 119 72q45 0 75 -35q29 -31 29 -80q0 -74 -47 -133q-51 -68 -121 -67q-43 0 -71.5 32.5t-28.5 75.5z" />
<glyph unicode="&#xf8;" d="M45 592q0 199 90 383t256 291q66 133 340 133q49 0 115 -10q49 193 162 192q49 0 75 -31q27 -29 27 -80q0 -53 -35 -176q141 -98 219 -268q72 -162 72 -342q0 -299 -172 -506q-184 -217 -475 -217q-45 0 -113 10l-67 -202q-58 -123 -154 -123q-47 0 -76 28q-31 31 -30 74 q0 40 92 295q-162 86 -242 225q-84 146 -84 324zM291 664q0 -225 182 -347l287 777q-70 16 -137 16q-35 0 -123 -53q-209 -129 -209 -393zM707 238q6 0 22 -1t25 -1q170 0 266 112q90 104 90 277q0 225 -129 354q-71 -213 -274 -741z" />
<glyph unicode="&#xf9;" d="M51 614q0 131 39 314q37 186 88 307l39 84q43 63 105 63q41 0 69 -28q27 -27 27 -72t-33 -160q-8 -29 -21.5 -71.5l-27.5 -89.5q-43 -160 -43 -277q0 -219 158 -332q139 -102 364 -102q176 0 242 153q43 100 43 306q0 102 -33 284.5t-33 284.5q0 55 49 111q51 57 107 57 q72 0 127 -291q43 -233 43 -360q0 -356 -123 -566q-156 -260 -489 -260q-307 0 -496 168q-201 176 -201 477zM414 1890q0 61 47 115q49 55 106 55q55 0 92 -57l101 -186l31.5 -53.5l31.5 -51.5q43 -68 43 -106q0 -61 -39 -113q-43 -59 -100 -59q-37 0 -76 32 q-49 41 -141 207q-96 170 -96 217z" />
<glyph unicode="&#xfa;" d="M39 614q0 131 39 314q37 186 88 307l39 84q43 63 102 63q41 0 70 -28q27 -27 26 -72q0 -52 -30 -160l-49 -161q-45 -156 -45 -277q0 -219 157 -332q139 -102 367 -102q172 0 239 153q43 100 43 306q0 84 -32 284q-31 186 -31 285q0 55 49 111q51 57 105 57q72 0 127 -291 q45 -227 45 -360q0 -358 -125 -566q-154 -260 -490 -260q-307 0 -495 168q-199 174 -199 477zM582 1524q0 51 39 110l192 299q55 74 117 74q41 0 69 -35q27 -33 27 -78q0 -61 -96 -221q-88 -152 -142 -205q-51 -51 -106 -51q-43 0 -72 31q-28 33 -28 76z" />
<glyph unicode="&#xfb;" horiz-adv-x="1413" d="M49 614q0 131 39 314q37 186 88 307q8 18 41 84q43 63 102 63q41 0 70 -28q27 -27 27 -72q0 -52 -31 -160l-49 -161q-45 -156 -45 -277q0 -219 158 -332q139 -102 364 -102q174 0 242 153q43 100 43 306q0 84 -33 284.5t-33 284.5q0 53 51.5 110.5t104.5 57.5 q72 0 127 -291q45 -227 45 -360q0 -358 -125 -566q-154 -260 -490 -260q-307 0 -495 168q-201 176 -201 477zM319 1538q0 47 136 262q137 217 178 250q35 27 72 27q57 0 237 -205q182 -207 182 -266q0 -55 -38.5 -106.5t-94.5 -51.5q-57 0 -164 119q-27 31 -137 172 l-69 -125q-49 -82 -82 -119q-51 -61 -113 -61q-45 0 -76 30.5t-31 73.5z" />
<glyph unicode="&#xfc;" horiz-adv-x="1429" d="M55 614q0 121 41 314q37 186 88 307l39 84q43 63 103 63q41 0 69.5 -28.5t28.5 -71.5q0 -45 -33 -160q-8 -29 -21.5 -71.5l-27.5 -89.5q-45 -168 -45 -277q0 -218 160 -332q139 -102 364 -102q174 0 242 153q41 96 41 306q0 102 -33 284.5t-33 284.5q0 55 49 111 q51 57 107 57q72 0 127 -291q45 -244 45 -360q0 -352 -125 -566q-156 -260 -487 -260q-309 0 -498 168q-201 176 -201 477zM342 1579q0 27 20 125q31 147 148 147q49 0 75.5 -38.5t26.5 -90.5q0 -23 -6 -53q-29 -131 -41 -151q-41 -84 -121 -84q-102 0 -102 145zM862 1591 q0 82 43 168q53 102 125 103q43 0 72 -31q27 -29 26 -78q0 -25 -10 -82t-10 -80q0 -53 -43 -102t-96 -49q-51 0 -82 53q-25 46 -25 98z" />
<glyph unicode="&#xfd;" horiz-adv-x="1339" d="M35 1044q0 123 31 222q45 143 141 143q45 0 75.5 -33t30.5 -82q0 -25 -10 -96q-8 -57 -8 -96q0 -154 78 -240q82 -92 225 -92q125 0 238 66q117 70 153 186q-8 121 -8 223q0 74 41 129q43 57 111 58q72 0 104 -101q27 -80 27 -160q0 -98 8 -237q10 -174 10 -240 q0 -322 -127 -510q-152 -219 -459 -219q-104 0 -266 35q-194 40 -233 98q-18 25 -19 58q0 61 43 116.5t103 55.5q12 0 24 -4q276 -78 391 -78q113 0 166 35q58 37 86 141q20 70 21 225q-201 -166 -457 -166q-246 0 -387 160q-133 155 -133 403zM516 1524q0 51 39 110 q57 96 195 299q55 74 114 74q43 0 72 -35q27 -33 27 -78q0 -58 -99 -221q-88 -152 -141 -205q-51 -51 -105 -51q-46 0 -73 31q-29 33 -29 76z" />
<glyph unicode="&#xfe;" horiz-adv-x="1349" d="M242 82q0 -9 12 197q-10 27 -10 45q0 6 14 61q6 18 6 133q0 129 12 342q-33 29 -32 78q0 66 45 121l6 104q8 72 16 107q41 137 158 137q88 0 88 -180q0 -90 -2 -123q291 -18 471 -78q305 -98 305 -297q0 -211 -321 -352q-203 -90 -506 -137q-6 -121 -31 -177 q-39 -94 -135 -94q-47 0 -72 33q-24 35 -24 80zM526 510q553 104 553 172q0 106 -532 139q-13 -205 -21 -311z" />
<glyph unicode="&#xff;" horiz-adv-x="1368" d="M55 1044q0 123 31 222q45 143 141 143q45 0 76 -33q33 -37 33 -82q0 -10 -12 -96q-10 -72 -11 -96q0 -151 80 -240q82 -92 225 -92q127 0 236 66q123 72 156 186q-10 150 -11 223q0 71 43 129q43 57 111 58q72 0 104 -101q25 -74 25 -160q0 -63 10.5 -237t10.5 -240 q0 -322 -127 -510q-152 -219 -459 -219q-104 0 -266 35q-194 40 -234 98q-16 23 -16 58q0 63 41 116q43 55 100 56q14 0 27 -4q276 -78 391 -78q113 0 166 35q57 35 86 141q20 70 20 225q-203 -166 -457 -166q-246 0 -387 160q-133 155 -133 403zM295 1579q0 45 16 125 q31 147 148 147q51 0 77.5 -38.5t26.5 -90.5q0 -12 -8 -53q-29 -131 -41 -151q-41 -84 -119 -84q-100 0 -100 145zM811 1591q0 84 45 168q53 102 125 103q43 0 72 -31q27 -29 26 -78q0 -25 -10 -82t-10 -80q0 -51 -45 -102q-43 -49 -96 -49q-49 0 -80 53q-27 49 -27 98z" />
<glyph unicode="&#x152;" horiz-adv-x="2574" d="M244 614q0 193 88 373q94 186 252 289q18 51 75 84q82 49 265 49q258 0 434 -184q18 59 71.5 106t114.5 47q18 0 39 -10q43 8 442 35q37 2 79 5t58.5 4t22.5 1q98 0 99 -96q0 -144 -209 -160q-33 -4 -90 -6q-86 -4 -361 -35q-6 -82 -45 -282q137 23 371 22 q119 0 118 -108q0 -150 -196 -156h-74q-143 -20 -258 -33q-2 -10 -2 -41q0 -283 178 -282q84 0 235.5 51t233.5 51q133 0 133 -96q0 -129 -145 -174q-164 -37 -248 -54l-59.5 -20l-59.5 -19q-61 -18 -125 -18q-113 0 -200 51q-92 55 -138 152q-174 -176 -442 -176 q-287 0 -469 174q-188 175 -188 456zM485 678q0 -182 142 -303q135 -117 319 -117q162 0 262 113q90 102 90 270q0 221 -129 350t-352 129q-35 0 -123 -53q-209 -129 -209 -389z" />
<glyph unicode="&#x153;" horiz-adv-x="2574" d="M244 614q0 193 88 373q94 186 252 289q18 51 75 84q82 49 265 49q258 0 434 -184q18 59 71.5 106t114.5 47q18 0 39 -10q43 8 442 35q37 2 79 5t58.5 4t22.5 1q98 0 99 -96q0 -144 -209 -160q-33 -4 -90 -6q-86 -4 -361 -35q-6 -82 -45 -282q137 23 371 22 q119 0 118 -108q0 -150 -196 -156h-74q-143 -20 -258 -33q-2 -10 -2 -41q0 -283 178 -282q84 0 235.5 51t233.5 51q133 0 133 -96q0 -129 -145 -174q-164 -37 -248 -54l-59.5 -20l-59.5 -19q-61 -18 -125 -18q-113 0 -200 51q-92 55 -138 152q-174 -176 -442 -176 q-287 0 -469 174q-188 175 -188 456zM485 678q0 -182 142 -303q135 -117 319 -117q162 0 262 113q90 102 90 270q0 221 -129 350t-352 129q-35 0 -123 -53q-209 -129 -209 -389z" />
<glyph unicode="&#x160;" horiz-adv-x="1546" d="M139 932q0 231 248 362q199 102 459 103q166 0 272 -43q156 -61 156 -201q0 -78 -51 -162q-57 -96 -131 -96q-51 0 -76 37q-31 45 -31 88q0 33 14 63q-68 29 -211 29q-264 0 -382 -111q-12 -12 -13 -16q0 -117 246 -184q444 -123 463 -131q246 -109 246 -324 q0 -199 -168 -303q-135 -84 -353 -84q-125 0 -311 33q-223 39 -272 104q-23 29 -23 74q0 66 45 115q43 47 113 47q27 0 164 -33q182 -47 434 -47q115 0 115 39q0 86 -246 151q-356 94 -459 144q-248 123 -248 346zM453 1845q0 59 43 115q41 53 100 53q58 0 178 -172 q29 -41 80 -104q45 35 117 108q98 102 112 115q47 45 90.5 45t69.5 -37q25 -34 25 -80q0 -47 -29 -94q-55 -90 -201 -215q-168 -145 -241 -145q-33 0 -74 28q-43 31 -135 146q-90 115 -119 170q-16 30 -16 67z" />
<glyph unicode="&#x161;" horiz-adv-x="1546" d="M139 932q0 231 248 362q199 102 459 103q166 0 272 -43q156 -61 156 -201q0 -78 -51 -162q-57 -96 -131 -96q-51 0 -76 37q-31 45 -31 88q0 33 14 63q-68 29 -211 29q-264 0 -382 -111q-12 -12 -13 -16q0 -117 246 -184q444 -123 463 -131q246 -109 246 -324 q0 -199 -168 -303q-135 -84 -353 -84q-125 0 -311 33q-223 39 -272 104q-23 29 -23 74q0 66 45 115q43 47 113 47q27 0 164 -33q182 -47 434 -47q115 0 115 39q0 86 -246 151q-356 94 -459 144q-248 123 -248 346zM453 1845q0 59 43 115q41 53 100 53q58 0 178 -172 q29 -41 80 -104q45 35 117 108q98 102 112 115q47 45 90.5 45t69.5 -37q25 -34 25 -80q0 -47 -29 -94q-55 -90 -201 -215q-168 -145 -241 -145q-33 0 -74 28q-43 31 -135 146q-90 115 -119 170q-16 30 -16 67z" />
<glyph unicode="&#x178;" horiz-adv-x="1611" d="M164 1044q0 123 31 222q45 143 141 143q45 0 76 -33q33 -37 32 -82q0 -25 -10 -96.5t-10 -95.5q0 -154 78 -240q82 -92 225 -92q129 0 238 66q119 70 155 186q-10 113 -10 223q0 74 41 129q43 57 112.5 57.5t102.5 -100.5q27 -80 27 -160q0 -63 10 -237q8 -139 8 -240 q0 -322 -127 -510q-152 -219 -459 -219q-104 0 -266 35q-194 40 -233 98q-16 23 -17 58q0 63 41 116q43 55 103 56q12 0 24 -4q276 -78 391 -78q113 0 166 35q57 35 86 141q23 78 23 225q-203 -166 -459 -166q-246 0 -387 160q-133 155 -133 403zM403 1579q0 35 19 125 q31 147 145 147q51 0 78 -38.5t27 -90.5q0 -23 -6 -53q-27 -121 -41 -151q-41 -84 -119 -84q-103 0 -103 145zM922 1591q0 78 45 168q53 102 125 103q43 0 69 -31q27 -29 27 -78q0 -25 -10.5 -82t-10.5 -80q0 -53 -43 -102t-98 -49q-49 0 -80 53q-24 46 -24 98z" />
<glyph unicode="&#x17d;" horiz-adv-x="1648" d="M158 1243q0 68 45 119t108 51q12 0 193 -10q127 -4 381 -14q309 -14 360 -15q133 0 133 -100q0 -88 -118 -250q-35 -49 -185 -225l-495 -559q154 10 405.5 34.5t405.5 24.5q94 0 94 -100q0 -109 -117 -162q-53 -25 -283 -39q-637 -39 -786 -39q-121 0 -121 109 q0 86 121 229l186 201q168 178 529 616q-432 23 -623 23q-96 0 -151 14q-82 20 -82 92zM473 1845q0 59 43 115q41 53 100 53q58 0 179 -172q46 -65 79 -104q45 35 117 108q98 102 113 115q47 45 90 45t70 -37q25 -34 24 -80q0 -47 -28 -94q-55 -90 -201 -215 q-168 -145 -242 -145q-33 0 -74 28q-43 31 -135 146q-90 115 -119 170q-16 30 -16 67z" />
<glyph unicode="&#x17e;" horiz-adv-x="1648" d="M158 1243q0 68 45 119t108 51q12 0 193 -10q127 -4 381 -14q309 -14 360 -15q133 0 133 -100q0 -88 -118 -250q-35 -49 -185 -225l-495 -559q154 10 405.5 34.5t405.5 24.5q94 0 94 -100q0 -109 -117 -162q-53 -25 -283 -39q-637 -39 -786 -39q-121 0 -121 109 q0 86 121 229l186 201q164 178 529 616q-432 23 -623 23q-96 0 -151 14q-82 20 -82 92zM473 1845q0 59 43 115q41 53 100 53q58 0 179 -172q46 -65 79 -104q45 35 117 108q98 102 113 115q47 45 90 45t70 -37q25 -34 24 -80q0 -47 -28 -94q-55 -90 -201 -215 q-168 -145 -242 -145q-33 0 -74 28q-43 31 -135 146q-90 115 -119 170q-16 30 -16 67z" />
<glyph unicode="&#x2c6;" horiz-adv-x="1083" d="M141 1538q0 47 135 262q137 219 181 250q35 27 69 27q59 0 239.5 -205t180.5 -266q0 -55 -39 -106.5t-94 -51.5q-57 0 -164 119q-31 37 -135 172l-72 -125q-49 -82 -82 -119q-52 -61 -110 -61q-45 0 -76 30q-33 33 -33 74z" />
<glyph unicode="&#x2c7;" horiz-adv-x="1122" d="M170 1845q0 61 41 114.5t100 53.5q57 0 181 -172q45 -63 77 -104q53 39 119 108q98 102 113 115q47 45 90 45t70 -37q25 -34 24 -80q0 -47 -29 -94q-52 -86 -202 -215q-168 -145 -240 -145q-35 0 -76 28q-39 27 -133 146q-90 115 -119 170q-16 30 -16 67z" />
<glyph unicode="&#x2c9;" horiz-adv-x="1239" d="M231 1548q0 113 101 154q66 25 194 24h371q125 0 125 -96q0 -59 -35 -106q-33 -45 -90 -62q-25 -6 -178 -12q-10 0 -35 -2t-67 -4l-85 -4q-115 -6 -186 -6q-115 -1 -115 114z" />
<glyph unicode="&#x2da;" horiz-adv-x="1302" d="M240 1782q0 176 94 262q29 88 155 151q113 57 218 58q143 0 247.5 -98.5t104.5 -243.5q0 -187 -148 -332q-150 -145 -336 -145q-145 0 -241 102q-94 101 -94 246zM475 1827q0 -121 150 -121q72 0 129 45t57 115q0 53 -51 84q-41 27 -101 26q-46 0 -165 -67 q-19 -45 -19 -82z" />
<glyph unicode="&#x2dc;" horiz-adv-x="1396" d="M199 1561q0 100 131 180q113 68 225 67q76 0 186.5 -51t157.5 -51q28 0 80 55q53 55 100 56q45 0 76 -35q29 -31 29 -82q0 -33 -21 -72q-43 -82 -129 -137q-90 -57 -178 -57q-72 0 -182.5 51t-167.5 51q-43 0 -109 -43q-65 -43 -98 -43q-43 0 -71.5 33t-28.5 78z" />
<glyph unicode="&#x2000;" horiz-adv-x="1146" />
<glyph unicode="&#x2001;" horiz-adv-x="2293" />
<glyph unicode="&#x2002;" horiz-adv-x="1146" />
<glyph unicode="&#x2003;" horiz-adv-x="2293" />
<glyph unicode="&#x2004;" horiz-adv-x="763" />
<glyph unicode="&#x2005;" horiz-adv-x="571" />
<glyph unicode="&#x2006;" horiz-adv-x="380" />
<glyph unicode="&#x2007;" horiz-adv-x="380" />
<glyph unicode="&#x2008;" horiz-adv-x="284" />
<glyph unicode="&#x2009;" horiz-adv-x="458" />
<glyph unicode="&#x200a;" horiz-adv-x="126" />
<glyph unicode="&#x2010;" horiz-adv-x="1239" d="M231 690q0 115 101 156q66 25 194 24h371q125 0 125 -98q0 -57 -35 -104q-33 -45 -90 -62q-25 -6 -178 -12l-187 -10q-115 -6 -186 -6q-115 -1 -115 112z" />
<glyph unicode="&#x2011;" horiz-adv-x="1239" d="M231 690q0 115 101 156q66 25 194 24h371q125 0 125 -98q0 -57 -35 -104q-33 -45 -90 -62q-25 -6 -178 -12l-187 -10q-115 -6 -186 -6q-115 -1 -115 112z" />
<glyph unicode="&#x2012;" horiz-adv-x="1239" d="M231 690q0 115 101 156q66 25 194 24h371q125 0 125 -98q0 -57 -35 -104q-33 -45 -90 -62q-25 -6 -178 -12l-187 -10q-115 -6 -186 -6q-115 -1 -115 112z" />
<glyph unicode="&#x2013;" horiz-adv-x="1048" d="M221 690q0 117 115 158q66 25 211 24q47 0 84 -2h86q125 0 125 -98q0 -57 -35 -104q-33 -45 -90 -62q-12 -3 -178 -12q-4 0 -39 -3t-64 -7q-63 -6 -100 -6q-115 -1 -115 112z" />
<glyph unicode="&#x2014;" horiz-adv-x="1427" d="M240 690q0 115 92 152q53 23 186 24q160 4 174 4h383q125 0 125 -98q0 -133 -125 -166q-43 -12 -143 -12q-61 0 -280.5 -8t-299.5 -8q-112 -1 -112 112z" />
<glyph unicode="&#x2018;" horiz-adv-x="602" d="M170 1274q0 49 35 88q33 37 82 37t75 -43q3 -6 50 -197q47 -195 47 -203q0 -53 -39 -100t-90 -47q-45 0 -76 57.5t-57 196.5q-27 143 -27 211z" />
<glyph unicode="&#x2019;" horiz-adv-x="608" d="M147 913q0 65 31 191q29 121 60 190q49 104 127 105q43 0 71.5 -33t28.5 -78l-5 -21l-16.5 -73t-23.5 -111q-29 -129 -47 -168q-47 -96 -131 -96q-41 0 -68 26.5t-27 67.5z" />
<glyph unicode="&#x201a;" horiz-adv-x="604" d="M147 -217q0 76 29 192q29 115 60 189q45 106 129 106q45 0 71.5 -32.5t26.5 -77.5l-45 -205q-31 -133 -47 -170q-47 -96 -129 -96q-41 0 -68 26.5t-27 67.5z" />
<glyph unicode="&#x201c;" horiz-adv-x="1069" d="M209 1264q0 47 32.5 86t82 39t75.5 -43q3 -6 50 -197q47 -195 47 -205q0 -51 -41 -98t-88 -47q-43 0 -74 57q-33 63 -60 197q-24 131 -24 211zM532 1255q0 68 41 111q43 47 102.5 47t88.5 -53q23 -39 57 -205q31 -154 31 -213q0 -55 -43 -104.5t-100 -49.5q-59 0 -88 84 l-58 232q-31 120 -31 151z" />
<glyph unicode="&#x201d;" horiz-adv-x="1071" d="M211 913q0 70 29 191q29 125 59 190q49 104 129 105q43 0 72 -33q27 -29 26 -78q0 -6 -45 -205q-27 -121 -49 -168q-47 -96 -129 -96q-41 0 -67 27q-25 24 -25 67zM535 942q0 45 63 193q59 133 98 188q53 76 115 76q45 0 72 -31q27 -29 26 -76q0 -37 -20 -80 q-55 -125 -135 -274q-53 -100 -123 -100q-41 0 -70 30q-26 29 -26 74z" />
<glyph unicode="&#x201e;" horiz-adv-x="1069" d="M209 -213q0 70 29 190q29 125 59 191q47 104 129 104q45 0 71.5 -32.5t26.5 -77.5l-5 -22l-16 -73l-24 -110q-31 -133 -47 -170q-45 -94 -131 -94q-39 0 -65.5 26.5t-26.5 67.5zM532 -184q0 39 66 192q66 145 96 191q52 74 117 73q41 0 70 -30q27 -29 26 -76 q0 -37 -20 -80q-63 -145 -133 -274q-53 -100 -123 -101q-45 0 -72 31q-27 29 -27 74z" />
<glyph unicode="&#x2020;" horiz-adv-x="1015" d="M86 868q0 70 47 125q49 59 113 60q43 0 98 -9q-8 150 -8 187q0 66 47 121q49 57 115 57q70 0 90 -92q12 -61 16 -313l156 -23q92 -16 151 -39q78 -31 78 -98q0 -66 -47 -119t-111 -53q-98 0 -227 20q-3 -482 -31 -848q-18 -252 -155 -252q-96 0 -96 113q0 203 14 516 q10 289 14 516q-45 4 -176 29q-88 24 -88 102z" />
<glyph unicode="&#x2021;" horiz-adv-x="1056" d="M104 868q0 70 48 125q49 59 112 60q45 0 101 -9l-13 187q0 63 49.5 120.5t112.5 57.5q74 0 92 -92q12 -63 17 -313l77.5 -11.5l77.5 -11.5q78 -12 152 -39q80 -28 80 -98q0 -63 -49 -119q-47 -53 -111 -53q-98 0 -227 20q0 -53 -2 -149l149 -6q84 -6 152 -23 q84 -23 84 -94q0 -82 -51.5 -127t-131.5 -45q-106 0 -213 6l-6 -266q-6 -162 -26 -262q-29 -133 -142 -134q-96 0 -96 113q0 172 16 576q-207 18 -206 133q0 61 45 118.5t104 57.5q23 0 68 -10q2 29 2 157q-45 4 -176 29q-89 20 -89 102z" />
<glyph unicode="&#x2022;" horiz-adv-x="1562" d="M184 547q0 238 183 432q184 197 419 197q254 0 416 -138q174 -147 174 -397q0 -252 -213 -412q-195 -143 -454 -143q-217 0 -367 119q-158 127 -158 342z" />
<glyph unicode="&#x2026;" horiz-adv-x="1429" d="M242 135q0 68 41 121t108 53q49 0 78 -34.5t29 -86.5q0 -84 -31 -145q-41 -78 -119 -78q-106 0 -106 170zM578 74q0 74 45 143q53 80 120 80q51 0 78 -37q29 -39 29 -86q0 -80 -43 -143q-49 -74 -125 -74q-45 0 -76 35q-28 31 -28 82zM944 68q0 70 47 135q49 72 119 71 q49 0 76 -32q29 -35 28 -82q0 -74 -47 -133q-53 -66 -120 -66q-47 0 -74 31q-29 33 -29 76z" />
<glyph unicode="&#x202f;" horiz-adv-x="458" />
<glyph unicode="&#x2030;" horiz-adv-x="2353" d="M193 915q0 168 106 320q117 168 276 168q143 0 250 -119q109 -121 103 -262l125 225q74 135 84 150q66 96 127 96q43 0 71 -35q31 -37 31 -80q0 -106 -326 -649q49 41 150 41q147 0 240 -104q88 -106 88 -252q0 -182 -121 -320q-125 -137 -310 -137q-143 0 -229 106 q-78 100 -76 246l-164 -274q-80 -135 -155 -135q-45 0 -78 32.5t-33 77.5q0 27 23 76q74 141 321 553q-70 -31 -155 -31q-143 0 -242 80q-106 88 -106 227zM432 991q0 -51 47 -86q41 -29 96 -28q39 0 70 18q37 23 37 57q0 119 -166 181q-84 -62 -84 -142zM1022 356 q0 -53 39 -92t90 -39q47 0 86 45t39 97q0 129 -150 129l-36 -4q-8 -18 -41 -64q-27 -37 -27 -72zM1509 285q0 147 109 305q-2 8 -2 18q0 101 80 154q68 43 176 43q158 0 268 -113q113 -117 113 -272q0 -182 -142 -318q-143 -137 -321 -137q-129 0 -207 101q-74 90 -74 219z M1753 324q0 -82 92 -82q53 0 107 34q51 33 51 89q0 63 -49 112t-113 49h-14q-6 -31 -43 -100q-31 -61 -31 -102z" />
<glyph unicode="&#x2039;" horiz-adv-x="909" d="M68 399q0 74 69 142q41 37 221 143q188 109 224 109q47 0 77 -37q29 -35 29 -82q0 -84 -92 -152l-166 -96q236 -184 236 -270q0 -63 -39 -117q-43 -59 -101 -59q-45 0 -196 126q-121 102 -187 168q-51 49 -57 64q-18 33 -18 61z" />
<glyph unicode="&#x203a;" horiz-adv-x="1122" d="M211 59q0 100 131 207l217 150l-156 84q-100 59 -143 106q-41 47 -41 94q0 66 39 119q45 61 107 62q31 0 100 -45l96 -70l217 -119q141 -89 142 -178q0 -55 -48 -115q-53 -63 -278 -231q-236 -174 -295 -174q-88 -1 -88 110z" />
<glyph unicode="&#x205f;" horiz-adv-x="571" />
<glyph unicode="&#x20ac;" horiz-adv-x="1851" d="M98 721q0 123 117 162q51 16 217 20q123 205 350 348q242 152 467 152q113 0 213 -47q113 -51 162 -142q18 -31 18 -61q0 -49 -34.5 -96t-85.5 -47q-2 0 -117 69q-111 68 -188 68q-242 0 -482 -227q233 8 324 8q135 0 135 -103q0 -175 -209 -184q-315 -6 -405 -10 q4 -49 18 -84q8 0 317 24q193 18 310 66q8 4 24 4q37 0 58 -31q20 -33 20 -71q0 -100 -78 -142q-47 -27 -166 -45q-27 -4 -235 -33q131 -53 287 -53q117 0 338 70q18 6 28 6q88 0 88 -100q0 -94 -84 -156q-72 -51 -200 -78q-117 -25 -220 -24q-184 0 -348 67 q-180 76 -284 207q-150 -25 -211 -25q-94 0 -95 103q0 145 191 170q-4 25 -4 65q0 29 2 43q-82 -6 -131 -6t-78 31q-29 33 -29 82z" />
<glyph unicode="&#x2122;" horiz-adv-x="1304" d="M158 557q0 39 28 72q27 31 70 30q66 0 195 19q143 20 196 20q45 0 65.5 -16t16.5 -51q47 -117 59 -158q31 102 43 129q37 80 93 80q43 0 61 -55q4 -20 13.5 -50t19.5 -71l41 -154q23 -82 22 -155q0 -39 -28 -68q-33 -33 -68 -33q-37 0 -55 47l-21 78l-18 72 q-61 -178 -125 -178q-45 0 -66 59q-6 9 -12 25q-14 35 -22 63q-27 -166 -103 -166q-70 0 -69 72q0 45 57 352q-10 -2 -31.5 -4t-52.5 -6q2 -12 2 -41q0 -27 -10 -84q-10 -47 -15 -86v-49q0 -121 -79 -121q-63 0 -64 129q0 117 6 240q-27 -2 -65 -2q-84 0 -84 61z" />
<glyph unicode="&#xe000;" horiz-adv-x="1440" d="M0 1440h1440v-1440h-1440v1440z" />
</font>
</defs>
</svg>
