<?xml version="1.0" encoding="utf-8"?>
<!-- Generator: Adobe Illustrator 15.0.0, SVG Export Plug-In  -->
<!DOCTYPE svg [
	<!ENTITY ns_flows "http://ns.adobe.com/Flows/1.0/">
]>
<svg version="1.2" baseProfile="tiny"
	 xmlns="http://www.w3.org/2000/svg" xmlns:xlink="http://www.w3.org/1999/xlink" xmlns:a="http://ns.adobe.com/AdobeSVGViewerExtensions/3.0/"
	 x="0px" y="0px" width="96px" height="96px" viewBox="0 0 96 96" overflow="visible" xml:space="preserve">
<defs>
</defs>
<g id="XMLID_1_">
	<path fill="none" stroke="#000000" stroke-miterlimit="10" d="M0.8,63.9"/>
	<linearGradient id="SVGID_1_" gradientUnits="userSpaceOnUse" x1="38.2183" y1="69.75" x2="38.2183" y2="0.75">
		<stop  offset="0" style="stop-color:#B7B6B7"/>
		<stop  offset="1" style="stop-color:#D9D9DE"/>
		<a:midPointStop  offset="0" style="stop-color:#B7B6B7"/>
		<a:midPointStop  offset="0.4847" style="stop-color:#B7B6B7"/>
		<a:midPointStop  offset="1" style="stop-color:#D9D9DE"/>
	</linearGradient>
	<path fill="url(#SVGID_1_)" d="M75.7,17.1V12c0-1.2-1-2.3-2.3-2.3H30.7V3.8c0-1.7-1.3-3-3-3h-24c-1.7,0-3,1.3-3,3v60
		c0,3.3,1.1,6,2.8,6c1.7,0,2.7-2.7,3.2-6l5.7-44.4c0.2-1.2,1.3-2.2,2.6-2.2H75.7"/>
	<path fill="none" stroke="#000000" stroke-miterlimit="10" d="M0.8,63.9"/>
	<linearGradient id="SVGID_2_" gradientUnits="userSpaceOnUse" x1="45.7817" y1="69.7832" x2="45.7817" y2="17.0337">
		<stop  offset="0" style="stop-color:#ECECED"/>
		<stop  offset="1" style="stop-color:#FFFFFF"/>
		<a:midPointStop  offset="0" style="stop-color:#ECECED"/>
		<a:midPointStop  offset="0.4847" style="stop-color:#ECECED"/>
		<a:midPointStop  offset="1" style="stop-color:#FFFFFF"/>
	</linearGradient>
	<path fill="url(#SVGID_2_)" d="M3.5,69.7c1.7,0,2.7-2.7,3.2-6l5.8-44.4C12.6,18,13.8,17,15,17l71.1,0.1c1.2,0,2.1,1,1.9,2.2
		l-7.9,42.2c-0.2,1.2-0.8,3.2-1.2,4.3c0,0-1.5,3.9-3.2,3.9L4.3,69.7L3.5,69.7z"/>
	<linearGradient id="SVGID_3_" gradientUnits="userSpaceOnUse" x1="47.1133" y1="69.75" x2="47.1133" y2="19.7076">
		<stop  offset="0" style="stop-color:#C7C8CC"/>
		<stop  offset="4.531335e-03" style="stop-color:#C8C9CD"/>
		<stop  offset="0.1361" style="stop-color:#D5D5DA"/>
		<stop  offset="0.2577" style="stop-color:#D9D9DE"/>
		<stop  offset="1" style="stop-color:#E5E5E9"/>
		<a:midPointStop  offset="0" style="stop-color:#C7C8CC"/>
		<a:midPointStop  offset="0.3095" style="stop-color:#C7C8CC"/>
		<a:midPointStop  offset="0.2577" style="stop-color:#D9D9DE"/>
		<a:midPointStop  offset="0.4847" style="stop-color:#D9D9DE"/>
		<a:midPointStop  offset="1" style="stop-color:#E5E5E9"/>
	</linearGradient>
	<path fill="url(#SVGID_3_)" d="M6.2,69.8c1.6,0,2.6-2.5,3.1-5.7l5.5-42.2c0.2-1.2,1.3-2.1,2.5-2.1h68.9c1.2,0,2,1,1.8,2.1
		l-7.6,40.1c-0.2,1.2-0.8,3-1.2,4.1c0,0-1.5,3.7-3.1,3.7H6.9H6.2z"/>
	<g>
		<linearGradient id="SVGID_4_" gradientUnits="userSpaceOnUse" x1="3.6626" y1="43.4033" x2="75.8658" y2="43.4033">
			<stop  offset="0" style="stop-color:#828584"/>
			<stop  offset="6.628114e-03" style="stop-color:#878A89"/>
			<stop  offset="3.552453e-02" style="stop-color:#999C9C"/>
			<stop  offset="6.966200e-02" style="stop-color:#A6A9A9"/>
			<stop  offset="0.1136" style="stop-color:#AEB0B1"/>
			<stop  offset="0.2025" style="stop-color:#B0B2B3"/>
			<stop  offset="0.4962" style="stop-color:#ADAFB0"/>
			<stop  offset="0.6903" style="stop-color:#A5A7A7"/>
			<stop  offset="0.8549" style="stop-color:#969999"/>
			<stop  offset="1" style="stop-color:#828584"/>
			<a:midPointStop  offset="0" style="stop-color:#828584"/>
			<a:midPointStop  offset="0.1707" style="stop-color:#828584"/>
			<a:midPointStop  offset="0.2025" style="stop-color:#B0B2B3"/>
			<a:midPointStop  offset="0.7846" style="stop-color:#B0B2B3"/>
			<a:midPointStop  offset="1" style="stop-color:#828584"/>
		</linearGradient>
		<path fill="url(#SVGID_4_)" d="M3.7,69c0.7-0.3,1.7-1.9,2.3-5.4l5.7-44.4c0.2-1.6,1.7-2.9,3.3-2.9h60.8v1.5H15
			c-0.9,0-1.7,0.7-1.8,1.6L7.5,63.8c-0.7,4.3-2,6.5-3.7,6.6L3.7,69z"/>
	</g>
	<path fill="none" stroke="#828584" stroke-width="1.5" stroke-miterlimit="10" d="M75.7,17.1V12c0-1.2-1-2.3-2.3-2.3H30.7V3.8
		c0-1.7-1.3-3-3-3h-24c-1.7,0-3,1.3-3,3v60c0,3.3,1.1,6,2.8,6"/>
	<path fill="none" stroke="#828584" stroke-width="1.5" stroke-miterlimit="10" d="M75.8,17.1h10.3c1.2,0,2.1,1,1.9,2.2l-7.8,42.2
		c-0.2,1.2-0.8,3.2-1.2,4.3c0,0-1.5,3.9-3.2,3.9H3.5"/>
</g>
<linearGradient id="SVGID_5_" gradientUnits="userSpaceOnUse" x1="53.6504" y1="83.4883" x2="53.6504" y2="37.084">
	<stop  offset="0" style="stop-color:#D35F5F"/>
	<stop  offset="1" style="stop-color:#F66C6C"/>
	<a:midPointStop  offset="0" style="stop-color:#D35F5F"/>
	<a:midPointStop  offset="0.5" style="stop-color:#D35F5F"/>
	<a:midPointStop  offset="1" style="stop-color:#F66C6C"/>
</linearGradient>
<path fill="url(#SVGID_5_)" d="M59.2,41.6c-5.9,5-8.4,13.2-10.1,17.4c-2.3,5.7-3.7,8.7-6.5,12.2c-2.8,3.3-8.3,3.1-8.3,3.1v9.2
	c0,0,7.9,0.5,13.8-4.5c4.6-3.9,7.2-9.8,8.9-14.2h11.1v-9.2h-7.3c1.1-2.3,2.3-4.2,3.9-6.2c2.8-3.3,8.3-3.1,8.3-3.1v-9.2
	C73,37.1,65.1,36.6,59.2,41.6z"/>
<path fill="#C30101" d="M59.2,44.6c-4.4,5-7.4,13.2-9.1,17.4c-2.3,5.7-4,9.4-7.5,12.2c-2.9,2.3-8.3,2.1-8.3,2.1v7.2
	c0,0,7.9,0.5,13.8-4.5c4.6-3.9,7.2-9.8,8.9-14.2h11.1v-9.2h-7.3c1.1-2.3,2.3-4.2,3.9-6.2c2.8-3.3,8.3-3.1,8.3-3.1v-7.2
	C73,39.1,64.4,38.6,59.2,44.6z"/>
<linearGradient id="SVGID_6_" gradientUnits="userSpaceOnUse" x1="33.8525" y1="60.3037" x2="72.5508" y2="60.3037">
	<stop  offset="0" style="stop-color:#D80101"/>
	<stop  offset="1" style="stop-color:#F72121"/>
	<a:midPointStop  offset="0" style="stop-color:#D80101"/>
	<a:midPointStop  offset="0.5" style="stop-color:#D80101"/>
	<a:midPointStop  offset="1" style="stop-color:#F72121"/>
</linearGradient>
<path fill="url(#SVGID_6_)" d="M58.7,44.6c-4.4,5-7.4,13.2-9.1,17.4c-2.3,5.7-4,9.4-7.5,12.2c-2.9,2.3-8.3,2.1-8.3,2.1v5.2
	c0,0,8.2,0.8,13.8-4.5c4.2-4,6.2-9.8,7.9-14.2h12.1v-7.2l-9.3,1.6c0.7-2.6,2.6-6.7,4.4-8.7c4.1-4.5,9.8-4.2,9.8-4.2v-5.2
	C72.6,39.1,64,38.6,58.7,44.6z"/>
<linearGradient id="SVGID_7_" gradientUnits="userSpaceOnUse" x1="58.3408" y1="56.4512" x2="68.0664" y2="56.4512">
	<stop  offset="0" style="stop-color:#D35F5F"/>
	<stop  offset="1" style="stop-color:#F66C6C"/>
	<a:midPointStop  offset="0" style="stop-color:#D35F5F"/>
	<a:midPointStop  offset="0.5" style="stop-color:#D35F5F"/>
	<a:midPointStop  offset="1" style="stop-color:#F66C6C"/>
</linearGradient>
<polygon fill="url(#SVGID_7_)" points="68.1,57.2 58.3,57.2 60.8,55.7 68.1,55.7 "/>
<path fill="none" stroke="#7E0606" stroke-linejoin="round" stroke-miterlimit="10" d="M59.2,41.6c-5.9,5-8.4,13.2-10.1,17.4
	c-2.3,5.7-3.7,8.7-6.5,12.2c-2.8,3.3-8.3,3.1-8.3,3.1v9.2c0,0,7.9,0.5,13.8-4.5c4.6-3.9,7.2-9.8,8.9-14.2h11.1v-9.2h-7.3
	c1.1-2.3,2.3-4.2,3.9-6.2c2.8-3.3,8.3-3.1,8.3-3.1v-9.2C73,37.1,65.1,36.6,59.2,41.6z"/>
</svg>
