<?xml version="1.0" encoding="utf-8"?>
<!-- Generator: Adobe Illustrator 15.0.0, SVG Export Plug-In  -->
<!DOCTYPE svg [
	<!ENTITY ns_flows "http://ns.adobe.com/Flows/1.0/">
]>
<svg version="1.2" baseProfile="tiny"
	 xmlns="http://www.w3.org/2000/svg" xmlns:xlink="http://www.w3.org/1999/xlink" xmlns:a="http://ns.adobe.com/AdobeSVGViewerExtensions/3.0/"
	 x="0px" y="0px" width="96px" height="96px" viewBox="0 -8.898 96 96" overflow="visible" xml:space="preserve">
<defs>
</defs>
<g>
	<path fill="none" stroke="#000000" stroke-miterlimit="10" d="M0.75,63.903"/>
	<linearGradient id="SVGID_1_" gradientUnits="userSpaceOnUse" x1="38.2183" y1="69.7495" x2="38.2183" y2="0.7495">
		<stop  offset="0" style="stop-color:#B8B6B7"/>
		<stop  offset="1" style="stop-color:#D9D9DE"/>
	</linearGradient>
	<path fill="url(#SVGID_1_)" d="M75.687,17.069v-5.114c0-1.247-1.021-2.268-2.268-2.268h-42.67V3.75c0-1.657-1.343-3-3-3H3.75
		c-1.657,0-3,1.343-3,3v60c0,3.313,1.116,6,2.772,6c1.657,0,2.657-2.682,3.228-6l5.71-44.432c0.159-1.237,1.31-2.249,2.557-2.249
		H75.687"/>
	<path fill="none" stroke="#000000" stroke-miterlimit="10" d="M0.75,63.903"/>
	<linearGradient id="SVGID_2_" gradientUnits="userSpaceOnUse" x1="45.7817" y1="69.7837" x2="45.7817" y2="17.0342">
		<stop  offset="0" style="stop-color:#EBEBED"/>
		<stop  offset="1" style="stop-color:#FFFFFF"/>
	</linearGradient>
	<path fill="url(#SVGID_2_)" d="M3.493,69.703c1.657,0.001,2.66-2.679,3.235-5.997l5.76-44.425c0.161-1.237,1.312-2.248,2.559-2.246
		l71.136,0.08c1.246,0.001,2.079,1.006,1.851,2.232l-7.891,42.213c-0.229,1.226-0.789,3.18-1.244,4.341c0,0-1.522,3.886-3.18,3.884
		l-71.45-0.08L3.493,69.703z"/>
	<linearGradient id="SVGID_3_" gradientUnits="userSpaceOnUse" x1="47.1133" y1="69.7495" x2="47.1133" y2="19.7071">
		<stop  offset="0" style="stop-color:#C8C8CC"/>
		<stop  offset="0.0241" style="stop-color:#CBCBCF"/>
		<stop  offset="0.1455" style="stop-color:#D6D6DB"/>
		<stop  offset="0.2577" style="stop-color:#D9D9DE"/>
		<stop  offset="1" style="stop-color:#E5E5E9"/>
	</linearGradient>
	<path fill="url(#SVGID_3_)" d="M6.184,69.75c1.605,0,2.574-2.547,3.126-5.699l5.53-42.207c0.154-1.175,1.268-2.136,2.476-2.136
		h68.896c1.208,0,2.016,0.953,1.795,2.118l-7.596,40.108c-0.22,1.164-0.761,3.021-1.2,4.124c0,0-1.47,3.692-3.075,3.692H6.935H6.184
		z"/>
	<g>
		<linearGradient id="SVGID_4_" gradientUnits="userSpaceOnUse" x1="3.6626" y1="43.4028" x2="75.8658" y2="43.4028">
			<stop  offset="0" style="stop-color:#848685"/>
			<stop  offset="0.0053" style="stop-color:#888A89"/>
			<stop  offset="0.0344" style="stop-color:#9A9C9B"/>
			<stop  offset="0.0687" style="stop-color:#A7A9A9"/>
			<stop  offset="0.113" style="stop-color:#AFB0B1"/>
			<stop  offset="0.2025" style="stop-color:#B1B3B4"/>
			<stop  offset="0.4988" style="stop-color:#AFB0B1"/>
			<stop  offset="0.6946" style="stop-color:#A6A7A7"/>
			<stop  offset="0.8607" style="stop-color:#979898"/>
			<stop  offset="1" style="stop-color:#848685"/>
		</linearGradient>
		<path fill="url(#SVGID_4_)" d="M3.663,69.047c0.725-0.279,1.739-1.881,2.349-5.424l5.705-44.401
			c0.209-1.628,1.659-2.903,3.3-2.903h60.849v1.5H15.017c-0.871,0-1.701,0.73-1.813,1.594l-5.71,44.433
			c-0.735,4.274-1.954,6.455-3.722,6.642L3.663,69.047z"/>
	</g>
	<path fill="none" stroke="#848685" stroke-width="1.5" stroke-miterlimit="10" d="M75.687,17.069v-5.114
		c0-1.247-1.021-2.268-2.268-2.268h-42.67V3.75c0-1.657-1.343-3-3-3H3.75c-1.657,0-3,1.343-3,3v60c0,3.313,1.116,6,2.772,6"/>
	<path fill="none" stroke="#848685" stroke-width="1.5" stroke-miterlimit="10" d="M75.819,17.069h10.333
		c1.247,0,2.081,1.003,1.853,2.229l-7.842,42.223c-0.228,1.226-0.785,3.18-1.239,4.342c0,0-1.519,3.887-3.175,3.887H3.522"/>
</g>
<path fill="#FFFFFF" d="M51.009,33.506V45.86h0.013c0-1.979,1.604-3.582,3.581-3.582s3.581,1.604,3.581,3.582v3.582
	c0-1.979,1.604-3.582,3.582-3.582s3.582,1.604,3.582,3.582v2.703c0,0,0.441-2.619,2.903-3.127c3.55-0.732,4.493,3.908,4.591,5.666
	c0.097,1.758,0.159,11.922,0,14.109c-0.415,5.693-5.03,15.584-5.03,15.584H46.567c-0.098-3.42-3.651-12.588-5.372-15.629
	c-2.1-3.711-5.791-7.371-8.4-10.451c-3.027-3.574,2.198-6.984,5.274-4.688c2.53,1.887,5.812,5.762,5.812,5.762l-0.047-25.62
	c0-1.985,1.608-3.594,3.594-3.594c1.984,0,3.594,1.609,3.594,3.594"/>
<path fill="#E1E1E4" d="M72.842,68.793c0.068-0.939,0.096-3.35,0.097-5.934v-0.002c0,0-1.925,6.496-4.925,10.996s-4.25,4-11,4.5
	c-3.769,0.279-8.082,0.324-11.772,0.266c0.748,2.316,1.289,4.455,1.326,5.758h21.244C67.812,84.377,72.427,74.487,72.842,68.793z"/>
<line fill="none" stroke="#848685" stroke-width="2" stroke-miterlimit="10" x1="51.009" y1="33.506" x2="51.009" y2="54.723"/>
<path fill="none" stroke="#848685" stroke-width="2" stroke-miterlimit="10" d="M58.184,49.442c0-1.979,1.604-3.582,3.582-3.582
	s3.582,1.604,3.582,3.582"/>
<line fill="none" stroke="#848685" stroke-width="2" stroke-miterlimit="10" x1="65.348" y1="49.442" x2="65.348" y2="56.188"/>
<path fill="none" stroke="#848685" stroke-width="2" stroke-miterlimit="10" d="M65.348,52.145c0,0,0.441-2.619,2.903-3.127
	c3.55-0.732,4.493,3.908,4.591,5.666c0.097,1.758,0.159,11.922,0,14.109c-0.415,5.693-5.03,15.584-5.03,15.584H46.567
	c-0.098-3.42-3.651-12.588-5.372-15.629c-2.1-3.711-5.791-7.371-8.4-10.451c-3.027-3.574,2.198-6.984,5.274-4.688
	c2.53,1.887,5.812,5.762,5.812,5.762l-0.047-25.62c0-1.985,1.608-3.594,3.594-3.594c1.984,0,3.594,1.609,3.594,3.594"/>
<path fill="none" stroke="#848685" stroke-width="2" stroke-miterlimit="10" d="M51.021,45.86c0-1.979,1.604-3.582,3.581-3.582
	s3.581,1.604,3.581,3.582v8.863"/>
</svg>
