<?xml version="1.0" encoding="UTF-8" standalone="no"?>
<!-- Created with Inkscape (http://www.inkscape.org/) -->

<svg
   width="96"
   height="96"
   viewBox="0 0 96 96"
   version="1.1"
   id="SVGRoot"
   sodipodi:docname="loading.svg"
   inkscape:version="1.2 (1:1.2+202206011327+fc4e4096c5)"
   xml:space="preserve"
   xmlns:inkscape="http://www.inkscape.org/namespaces/inkscape"
   xmlns:sodipodi="http://sodipodi.sourceforge.net/DTD/sodipodi-0.dtd"
   xmlns:xlink="http://www.w3.org/1999/xlink"
   xmlns="http://www.w3.org/2000/svg"
   xmlns:svg="http://www.w3.org/2000/svg"
   xmlns:rdf="http://www.w3.org/1999/02/22-rdf-syntax-ns#"
   xmlns:cc="http://creativecommons.org/ns#"><sodipodi:namedview
     id="namedview1017"
     pagecolor="#ffffff"
     bordercolor="#666666"
     borderopacity="1.0"
     inkscape:pageshadow="2"
     inkscape:pageopacity="0"
     inkscape:pagecheckerboard="true"
     inkscape:document-units="px"
     showgrid="true"
     inkscape:zoom="5.6568542"
     inkscape:cx="-3.1819805"
     inkscape:cy="79.372737"
     inkscape:window-width="1920"
     inkscape:window-height="1007"
     inkscape:window-x="0"
     inkscape:window-y="0"
     inkscape:window-maximized="1"
     inkscape:current-layer="g6999"
     inkscape:snap-global="false"
     showborder="true"
     borderlayer="false"
     inkscape:showpageshadow="false"
     inkscape:deskcolor="#d1d1d1"><inkscape:grid
       type="xygrid"
       id="grid1080"
       originx="0"
       originy="0" /></sodipodi:namedview><defs
     id="defs1012"><linearGradient
       inkscape:collect="always"
       id="gradient"><stop
         style="stop-color:#e69b33;stop-opacity:1;"
         offset="0"
         id="stop19942" /><stop
         style="stop-color:#f0cb48;stop-opacity:1;"
         offset="1"
         id="stop19944" /></linearGradient><linearGradient
       inkscape:collect="always"
       xlink:href="#gradient"
       id="linearGradient6378"
       gradientUnits="userSpaceOnUse"
       gradientTransform="matrix(0.00488113,-0.57093694,0.57065876,-0.00488113,11.526893,22.573763)"
       x1="-20.500204"
       y1="26.537622"
       x2="23.6507"
       y2="7.5810461" /><linearGradient
       inkscape:collect="always"
       xlink:href="#gradient"
       id="linearGradient9316"
       gradientUnits="userSpaceOnUse"
       gradientTransform="matrix(0.00488113,-0.57093694,0.57065876,-0.00488113,11.526893,22.573763)"
       x1="-19.781536"
       y1="29.671541"
       x2="23.912985"
       y2="8.2844591" /></defs><g
     inkscape:label="icon"
     inkscape:groupmode="layer"
     id="layer1"
     transform="matrix(2.4389982,0,0,2.4182213,-4.0660654,-3.6210429)"><g
       id="g6999"
       inkscape:label="loading"
       transform="matrix(0.06709862,-1.002145,0.99390336,0.05908847,-1.1692612,40.342865)"
       style="opacity:1"><g
         id="g9303"
         inkscape:label="top"
         style="display:inline"><path
           id="path6370"
           style="fill:#e8d24c;fill-opacity:1;stroke:#734e1f;stroke-width:0.823523;stroke-linecap:square;stroke-dasharray:none;stroke-opacity:0.8;paint-order:markers stroke fill"
           inkscape:label="body"
           d="m 14.594364,8.9366194 6.822941,6.0252816 -0.188702,-3.2004 c 10.027792,-0.779578 11.686403,17.79324 -0.431483,18.584445 l 0.387624,6.574142 C 29.77187,36.340369 35.822833,28.210217 35.431998,20.26535 35.097242,13.460447 30.492197,6.7748236 20.844338,5.2443388 l -0.101872,-1.7277591 -0.05877,-0.996754 z"
           sodipodi:nodetypes="cccccscccc" /><path
           id="path6372"
           style="fill:url(#linearGradient6378);fill-opacity:1;stroke:none;stroke-width:0.823523;stroke-linecap:square;stroke-dasharray:none;stroke-opacity:0.8;paint-order:stroke markers fill"
           inkscape:label="gradient"
           d="m 15.870927,8.9221454 4.73069,4.1111856 C 20.456259,10.568028 20.354021,8.2615164 20.213993,6.4591904 L 20.092861,4.4047709 Z m 4.31884,-2.8738395 c 0.09452,1.5013555 0.216689,3.5734014 0.290719,4.9306051 6.435414,-0.239074 9.363675,4.706929 9.531188,9.630478 0.186166,5.471779 -3.480755,10.174506 -8.755095,10.530578 l 0.290718,4.930606 C 29.767416,35.515631 35.089881,27.079755 34.649107,20.315518 34.27291,14.542305 30.159764,6.7376764 20.189767,6.0483059 Z"
           sodipodi:nodetypes="cccccccsccsc" /><path
           style="opacity:0.6;color:#000000;fill:#ffffff;-inkscape-stroke:none;paint-order:markers stroke fill"
           d="m 4.609375,15.783203 c -1.4654619,4.011191 -1.2610423,7.934243 0.1523437,11.589844 l 0.00195,0.002 0,0.002 c 0.8580348,2.137529 2.2318064,3.810859 3.4121094,4.96875 1.1803029,1.157891 2.2081769,1.827527 2.2792969,1.875 2.298239,1.534081 5.027241,2.451558 7.749267,2.889137 l 0.156771,2.72881 0.709307,-0.737705 -0.217201,-2.784865 C 15.049654,35.966236 12.910922,35.047861 10.893503,33.671262 8.4254896,31.989075 6.5730705,29.485045 5.5539425,27.025628 3.8706026,22.958366 4.1287792,19.610319 5.3867187,16.056641 Z"
           id="path435"
           sodipodi:nodetypes="ccccsccccccccc"
           inkscape:label="glare"
           transform="rotate(180,19.523154,21.177607)" /></g><g
         id="g9314"
         transform="rotate(180,19.523154,21.177607)"
         inkscape:label="bottom"><path
           id="path9310"
           style="fill:#e8d24c;fill-opacity:1;stroke:#734e1f;stroke-width:0.823523;stroke-linecap:square;stroke-dasharray:none;stroke-opacity:0.8;paint-order:markers stroke fill"
           inkscape:label="body"
           d="m 14.594364,8.9366194 6.822941,6.0252816 -0.188702,-3.2004 c 10.027792,-0.779578 11.686403,17.79324 -0.431483,18.584445 l 0.387624,6.574142 C 29.77187,36.340369 35.822833,28.210217 35.431998,20.26535 35.097242,13.460447 30.492197,6.7748236 20.844338,5.2443388 L 20.683696,2.5198257 Z"
           sodipodi:nodetypes="cccccsccc" /><path
           id="path9312"
           style="fill:url(#linearGradient9316);fill-opacity:1;stroke:none;stroke-width:0.823523;stroke-linecap:square;stroke-dasharray:none;stroke-opacity:0.8;paint-order:stroke markers fill"
           inkscape:label="gradient"
           d="m 15.870927,8.9221454 4.73069,4.1111856 C 20.456259,10.568028 20.354021,8.2615164 20.213993,6.4591904 L 20.092861,4.4047709 Z m 4.31884,-2.8738395 c 0.09452,1.5013555 0.216689,3.5734014 0.290719,4.9306051 6.435414,-0.239074 9.363675,4.706929 9.531188,9.630478 0.186166,5.471779 -3.250856,10.159574 -8.525196,10.515646 l 0.292056,4.916254 C 29.998652,35.486347 34.967786,27.087649 34.649107,20.315518 34.339518,13.736573 30.159764,6.7376764 20.189767,6.0483059 Z"
           sodipodi:nodetypes="cccccccsccsc" /><path
           style="opacity:0.6;display:inline;color:#000000;fill:#ffffff;-inkscape-stroke:none;paint-order:markers stroke fill"
           d="m 20.767578,10.957031 -0.408203,0.02734 0.168309,3.186759 0.882867,0.787451 -0.185493,-3.19301 c 3.02334,-0.16366 4.791606,1.070518 6.058145,2.705126 1.330704,1.71742 1.939815,4.000385 2.048828,5.892578 0.106042,1.840633 -0.369986,4.269315 -1.693359,6.251953 -1.323374,1.982639 -3.559477,3.508102 -6.833703,3.734244 l 0.045,0.829748 c 3.80051,-0.170986 6.030819,-1.944463 7.474245,-4.10696 1.443426,-2.162497 1.808557,-4.783492 1.692178,-6.803546 -0.116804,-2.027426 -0.77678,-4.286066 -2.247206,-6.183813 -1.470427,-1.897747 -3.650126,-3.35515 -7.001613,-3.127876 z"
           id="path4174"
           sodipodi:nodetypes="cccccsssccssssc"
           inkscape:label="glare" /></g></g></g><metadata
     id="metadata1158"><rdf:RDF><cc:Work
         rdf:about=""><cc:license
           rdf:resource="http://creativecommons.org/publicdomain/zero/1.0/" /></cc:Work><cc:License
         rdf:about="http://creativecommons.org/publicdomain/zero/1.0/"><cc:permits
           rdf:resource="http://creativecommons.org/ns#Reproduction" /><cc:permits
           rdf:resource="http://creativecommons.org/ns#Distribution" /><cc:permits
           rdf:resource="http://creativecommons.org/ns#DerivativeWorks" /></cc:License></rdf:RDF></metadata></svg>
