<?xml version="1.0" encoding="UTF-8" standalone="no"?>
<!-- Created with Inkscape (http://www.inkscape.org/) -->

<svg
   width="96"
   height="96"
   viewBox="0 0 96 96"
   version="1.1"
   id="SVGRoot"
   sodipodi:docname="nonFound.svg"
   inkscape:version="1.2 (1:1.2+202206011327+fc4e4096c5)"
   xml:space="preserve"
   xmlns:inkscape="http://www.inkscape.org/namespaces/inkscape"
   xmlns:sodipodi="http://sodipodi.sourceforge.net/DTD/sodipodi-0.dtd"
   xmlns="http://www.w3.org/2000/svg"
   xmlns:svg="http://www.w3.org/2000/svg"
   xmlns:rdf="http://www.w3.org/1999/02/22-rdf-syntax-ns#"
   xmlns:cc="http://creativecommons.org/ns#"><sodipodi:namedview
     id="namedview1017"
     pagecolor="#ffffff"
     bordercolor="#666666"
     borderopacity="1.0"
     inkscape:pageshadow="2"
     inkscape:pageopacity="0"
     inkscape:pagecheckerboard="true"
     inkscape:document-units="px"
     showgrid="true"
     inkscape:zoom="5.6785715"
     inkscape:cx="73.08176"
     inkscape:cy="67.094339"
     inkscape:window-width="1920"
     inkscape:window-height="1007"
     inkscape:window-x="0"
     inkscape:window-y="0"
     inkscape:window-maximized="1"
     inkscape:current-layer="g6999"
     inkscape:snap-global="false"
     showborder="true"
     borderlayer="false"
     inkscape:showpageshadow="false"
     inkscape:deskcolor="#d1d1d1"><inkscape:grid
       type="xygrid"
       id="grid1080"
       originx="0"
       originy="0" /></sodipodi:namedview><defs
     id="defs1012" /><g
     inkscape:label="icon"
     inkscape:groupmode="layer"
     id="layer1"
     transform="matrix(2.4389982,0,0,2.4182213,-4.0660654,-3.6210429)"><g
       id="g6999"
       inkscape:label="nonFound"
       transform="matrix(0.06709862,-1.002145,0.99390336,0.05908847,-1.1692612,40.342865)"
       style="opacity:1"><path
         id="path514"
         style="fill:#b3b3b3;fill-opacity:1;stroke-width:0.376469;stroke-linecap:round;stroke-opacity:0.7"
         d="M 32.489246 9.5226922 A 16.400175 16.541082 4.07111e-13 0 0 21.440177 5.2056753 A 16.400175 16.541082 4.07111e-13 0 0 5.0402908 21.746526 A 16.400175 16.541082 4.07111e-13 0 0 21.440237 38.287318 A 16.400175 16.541082 4.07111e-13 0 0 37.840123 21.746466 A 16.400175 16.541082 4.07111e-13 0 0 32.489246 9.5226922 z M 30.229803 11.900259 A 13.13653 13.249396 5.0888875e-13 0 1 34.316192 19.166122 L 8.5626484 19.166518 A 13.13653 13.249396 5.0888875e-13 0 1 21.440042 8.4969214 A 13.13653 13.249396 5.0888875e-13 0 1 30.229803 11.900259 z M 34.469654 23.4144 A 13.13653 13.249396 5.0888875e-13 0 1 21.439779 34.995529 A 13.13653 13.249396 5.0888875e-13 0 1 8.4195716 23.413998 L 34.469654 23.4144 z "
         transform="rotate(44.184066,21.043875,19.581204)"
         inkscape:label="circle" /></g></g><metadata
     id="metadata1158"><rdf:RDF><cc:Work
         rdf:about=""><cc:license
           rdf:resource="http://creativecommons.org/publicdomain/zero/1.0/" /></cc:Work><cc:License
         rdf:about="http://creativecommons.org/publicdomain/zero/1.0/"><cc:permits
           rdf:resource="http://creativecommons.org/ns#Reproduction" /><cc:permits
           rdf:resource="http://creativecommons.org/ns#Distribution" /><cc:permits
           rdf:resource="http://creativecommons.org/ns#DerivativeWorks" /></cc:License></rdf:RDF></metadata></svg>
