<?xml version="1.0" encoding="UTF-8" standalone="no"?>
<!-- Generator: Adobe Illustrator 15.0.0, SVG Export Plug-In  -->

<svg
   xmlns:dc="http://purl.org/dc/elements/1.1/"
   xmlns:cc="http://creativecommons.org/ns#"
   xmlns:rdf="http://www.w3.org/1999/02/22-rdf-syntax-ns#"
   xmlns:svg="http://www.w3.org/2000/svg"
   xmlns="http://www.w3.org/2000/svg"
   xmlns:xlink="http://www.w3.org/1999/xlink"
   xmlns:sodipodi="http://sodipodi.sourceforge.net/DTD/sodipodi-0.dtd"
   xmlns:inkscape="http://www.inkscape.org/namespaces/inkscape"
   version="1.2"
   x="0px"
   y="0px"
   width="96px"
   height="96px"
   viewBox="0 -8.898 96 96"
   overflow="visible"
   xml:space="preserve"
   id="svg2"
   inkscape:version="0.48.1 r9760"
   sodipodi:docname="folder.svg"><metadata
   id="metadata70"><rdf:RDF><cc:Work
       rdf:about=""><dc:format>image/svg+xml</dc:format><dc:type
         rdf:resource="http://purl.org/dc/dcmitype/StillImage" /><dc:title></dc:title></cc:Work></rdf:RDF></metadata><sodipodi:namedview
   pagecolor="#ffffff"
   bordercolor="#666666"
   borderopacity="1"
   objecttolerance="10"
   gridtolerance="10"
   guidetolerance="10"
   inkscape:pageopacity="0"
   inkscape:pageshadow="2"
   inkscape:window-width="1280"
   inkscape:window-height="776"
   id="namedview68"
   showgrid="false"
   inkscape:zoom="3"
   inkscape:cx="-12.833333"
   inkscape:cy="48"
   inkscape:window-x="0"
   inkscape:window-y="24"
   inkscape:window-maximized="1"
   inkscape:current-layer="svg2" />
<defs
   id="defs4"><linearGradient
   id="linearGradient3819"><stop
     style="stop-color:#bcd8dc;stop-opacity:1;"
     offset="0"
     id="stop3821" /><stop
     style="stop-color:#7ecbdc;stop-opacity:0;"
     offset="1"
     id="stop3823" /></linearGradient>
<radialGradient
   inkscape:collect="always"
   xlink:href="#linearGradient3819"
   id="radialGradient3825"
   cx="71.333336"
   cy="70.5"
   fx="71.333336"
   fy="70.5"
   r="7.6666665"
   gradientTransform="matrix(1,0,0,0.97826089,0,1.5326073)"
   gradientUnits="userSpaceOnUse" /></defs>
<g
   id="g6">
	<path
   fill="none"
   stroke="#000000"
   stroke-miterlimit="10"
   d="M0.75,63.903"
   id="path8" />
	<linearGradient
   id="SVGID_1_"
   gradientUnits="userSpaceOnUse"
   x1="38.2183"
   y1="69.7495"
   x2="38.2183"
   y2="0.7495">
		<stop
   offset="0"
   style="stop-color:#B8B6B7"
   id="stop11" />
		<stop
   offset="1"
   style="stop-color:#D9D9DE"
   id="stop13" />
	</linearGradient>
	<path
   fill="url(#SVGID_1_)"
   d="M75.687,17.069v-5.114c0-1.247-1.021-2.268-2.268-2.268h-42.67V3.75c0-1.657-1.343-3-3-3H3.75   c-1.657,0-3,1.343-3,3v60c0,3.313,1.116,6,2.772,6c1.657,0,2.657-2.682,3.228-6l5.71-44.432c0.159-1.237,1.31-2.249,2.557-2.249   H75.687"
   id="path15" />
	<path
   fill="none"
   stroke="#000000"
   stroke-miterlimit="10"
   d="M0.75,63.903"
   id="path17" />
	<linearGradient
   id="SVGID_2_"
   gradientUnits="userSpaceOnUse"
   x1="45.7817"
   y1="69.7837"
   x2="45.7817"
   y2="17.0342">
		<stop
   offset="0"
   style="stop-color:#EBEBED"
   id="stop20" />
		<stop
   offset="1"
   style="stop-color:#FFFFFF"
   id="stop22" />
	</linearGradient>
	<path
   fill="url(#SVGID_2_)"
   d="M3.493,69.703c1.657,0.001,2.66-2.679,3.235-5.997l5.76-44.425c0.161-1.237,1.312-2.248,2.559-2.246   l71.136,0.08c1.246,0.001,2.079,1.006,1.851,2.232l-7.891,42.213c-0.229,1.226-0.789,3.18-1.244,4.341c0,0-1.522,3.886-3.18,3.884   l-71.45-0.08L3.493,69.703z"
   id="path24" />
	<linearGradient
   id="SVGID_3_"
   gradientUnits="userSpaceOnUse"
   x1="47.1133"
   y1="69.7495"
   x2="47.1133"
   y2="19.7071">
		<stop
   offset="0"
   style="stop-color:#C8C8CC"
   id="stop27" />
		<stop
   offset="0.0241"
   style="stop-color:#CBCBCF"
   id="stop29" />
		<stop
   offset="0.1455"
   style="stop-color:#D6D6DB"
   id="stop31" />
		<stop
   offset="0.2577"
   style="stop-color:#D9D9DE"
   id="stop33" />
		<stop
   offset="1"
   style="stop-color:#E5E5E9"
   id="stop35" />
	</linearGradient>
	<path
   fill="url(#SVGID_3_)"
   d="M6.184,69.75c1.605,0,2.574-2.547,3.126-5.699l5.53-42.207c0.154-1.175,1.268-2.136,2.476-2.136   h68.896c1.208,0,2.016,0.953,1.795,2.118l-7.596,40.108c-0.22,1.164-0.761,3.021-1.2,4.124c0,0-1.47,3.692-3.075,3.692H6.935H6.184   z"
   id="path37" />
	<g
   id="g39">
		<linearGradient
   id="SVGID_4_"
   gradientUnits="userSpaceOnUse"
   x1="3.6626"
   y1="43.4028"
   x2="75.8658"
   y2="43.4028">
			<stop
   offset="0"
   style="stop-color:#848685"
   id="stop42" />
			<stop
   offset="0.0053"
   style="stop-color:#888A89"
   id="stop44" />
			<stop
   offset="0.0344"
   style="stop-color:#9A9C9B"
   id="stop46" />
			<stop
   offset="0.0687"
   style="stop-color:#A7A9A9"
   id="stop48" />
			<stop
   offset="0.113"
   style="stop-color:#AFB0B1"
   id="stop50" />
			<stop
   offset="0.2025"
   style="stop-color:#B1B3B4"
   id="stop52" />
			<stop
   offset="0.4988"
   style="stop-color:#AFB0B1"
   id="stop54" />
			<stop
   offset="0.6946"
   style="stop-color:#A6A7A7"
   id="stop56" />
			<stop
   offset="0.8607"
   style="stop-color:#979898"
   id="stop58" />
			<stop
   offset="1"
   style="stop-color:#848685"
   id="stop60" />
		</linearGradient>
		<path
   fill="url(#SVGID_4_)"
   d="M3.663,69.047c0.725-0.279,1.739-1.881,2.349-5.424l5.705-44.401    c0.209-1.628,1.659-2.903,3.3-2.903h60.849v1.5H15.017c-0.871,0-1.701,0.73-1.813,1.594l-5.71,44.433    c-0.735,4.274-1.954,6.455-3.722,6.642L3.663,69.047z"
   id="path62" />
	</g>
	<path
   fill="none"
   stroke="#848685"
   stroke-width="1.5"
   stroke-miterlimit="10"
   d="M75.687,17.069v-5.114   c0-1.247-1.021-2.268-2.268-2.268h-42.67V3.75c0-1.657-1.343-3-3-3H3.75c-1.657,0-3,1.343-3,3v60c0,3.313,1.116,6,2.772,6"
   id="path64" />
	<path
   fill="none"
   stroke="#848685"
   stroke-width="1.5"
   stroke-miterlimit="10"
   d="M75.819,17.069h10.333   c1.247,0,2.081,1.003,1.853,2.229l-7.842,42.223c-0.228,1.226-0.785,3.18-1.239,4.342c0,0-1.519,3.887-3.175,3.887H3.522"
   id="path66" />
</g>
<path
   sodipodi:type="arc"
   style="opacity:1;fill:#00a9dc;fill-opacity:1;stroke:#0078c5;stroke-opacity:1;stroke-width:1.60000000000000009;stroke-miterlimit:4;stroke-dasharray:none"
   id="path3047"
   sodipodi:cx="70.833336"
   sodipodi:cy="71.5"
   sodipodi:rx="15.166667"
   sodipodi:ry="15.166667"
   d="m 86.000003,71.5 a 15.166667,15.166667 0 1 1 -30.333334,0 15.166667,15.166667 0 1 1 30.333334,0 z"
   transform="translate(2.3333333,-7.2313333)" /><path
   sodipodi:type="arc"
   style="fill:url(#radialGradient3825);fill-opacity:1.0;stroke:none"
   id="path3817"
   sodipodi:cx="71.333336"
   sodipodi:cy="70.5"
   sodipodi:rx="7.6666665"
   sodipodi:ry="7.5"
   d="m 79.000002,70.5 a 7.6666665,7.5 0 1 1 -15.333333,0 7.6666665,7.5 0 1 1 15.333333,0 z"
   transform="matrix(1.8043479,0,0,1.7111112,-55.876816,-57.031334)" /></svg>