<?xml version="1.0" encoding="UTF-8" standalone="no"?>
<!-- Generator: Adobe Illustrator 15.0.0, SVG Export Plug-In  -->

<svg
   version="1.2"
   x="0px"
   y="0px"
   width="96px"
   height="96px"
   viewBox="0 0 96 96"
   overflow="visible"
   xml:space="preserve"
   id="svg110"
   sodipodi:docname="WebSearchCategory.svg"
   inkscape:version="1.2 (dc2aedaf03, 2022-05-15)"
   xmlns:inkscape="http://www.inkscape.org/namespaces/inkscape"
   xmlns:sodipodi="http://sodipodi.sourceforge.net/DTD/sodipodi-0.dtd"
   xmlns:xlink="http://www.w3.org/1999/xlink"
   xmlns="http://www.w3.org/2000/svg"
   xmlns:svg="http://www.w3.org/2000/svg"
   xmlns:rdf="http://www.w3.org/1999/02/22-rdf-syntax-ns#"
   xmlns:cc="http://creativecommons.org/ns#"><sodipodi:namedview
   id="namedview112"
   pagecolor="#ffffff"
   bordercolor="#666666"
   borderopacity="1.0"
   inkscape:showpageshadow="2"
   inkscape:pageopacity="0.0"
   inkscape:pagecheckerboard="0"
   inkscape:deskcolor="#d1d1d1"
   showgrid="false"
   inkscape:zoom="4.9166667"
   inkscape:cx="52.983051"
   inkscape:cy="44.644068"
   inkscape:window-width="1366"
   inkscape:window-height="695"
   inkscape:window-x="0"
   inkscape:window-y="0"
   inkscape:window-maximized="1"
   inkscape:current-layer="svg110" />
<defs
   id="defs2"><linearGradient
   inkscape:collect="always"
   id="linearGradient2516"><stop
     style="stop-color:#047cbc;stop-opacity:1;"
     offset="0"
     id="stop2512" /><stop
     style="stop-color:#6eb3d9;stop-opacity:1;"
     offset="1"
     id="stop2514" /></linearGradient>
<linearGradient
   inkscape:collect="always"
   xlink:href="#linearGradient2516"
   id="linearGradient2518"
   x1="44.40173"
   y1="75.594719"
   x2="84.35276"
   y2="40.955788"
   gradientUnits="userSpaceOnUse" /></defs>
<g
   id="XMLID_2_"
   inkscape:label="folder">
	<path
   fill="none"
   stroke="#000000"
   stroke-miterlimit="10"
   d="M0.75,63.902"
   id="path4" />
	<linearGradient
   id="SVGID_1_"
   gradientUnits="userSpaceOnUse"
   x1="38.2183"
   y1="69.75"
   x2="38.2183"
   y2="0.75">
		<stop
   offset="0"
   style="stop-color:#B7B6B7"
   id="stop6" />
		<stop
   offset="1"
   style="stop-color:#D9D9DE"
   id="stop8" />
	</linearGradient>
	<path
   fill="url(#SVGID_1_)"
   d="M75.687,17.069v-5.114c0-1.247-1.021-2.268-2.268-2.268h-42.67V3.75c0-1.657-1.343-3-3-3H3.75   c-1.657,0-3,1.343-3,3v60c0,3.313,1.116,6,2.772,6c1.657,0,2.657-2.683,3.228-6l5.71-44.432c0.159-1.237,1.31-2.249,2.557-2.249   H75.687"
   id="path11" />
	<path
   fill="none"
   stroke="#000000"
   stroke-miterlimit="10"
   d="M0.75,63.902"
   id="path13" />
	<linearGradient
   id="SVGID_2_"
   gradientUnits="userSpaceOnUse"
   x1="45.7817"
   y1="69.7832"
   x2="45.7817"
   y2="17.0337">
		<stop
   offset="0"
   style="stop-color:#ECECED"
   id="stop15" />
		<stop
   offset="1"
   style="stop-color:#FFFFFF"
   id="stop17" />
	</linearGradient>
	<path
   fill="url(#SVGID_2_)"
   d="M3.493,69.702c1.657,0.002,2.66-2.679,3.235-5.996l5.76-44.426c0.161-1.237,1.312-2.248,2.559-2.246   l71.136,0.08c1.246,0.001,2.079,1.006,1.851,2.232L80.143,61.56c-0.229,1.226-0.789,3.179-1.244,4.341c0,0-1.522,3.886-3.18,3.883   l-71.45-0.08L3.493,69.702z"
   id="path20" />
	<linearGradient
   id="SVGID_3_"
   gradientUnits="userSpaceOnUse"
   x1="47.1133"
   y1="69.75"
   x2="47.1133"
   y2="19.7076">
		<stop
   offset="0"
   style="stop-color:#C7C8CC"
   id="stop22" />
		<stop
   offset="0.0045"
   style="stop-color:#C8C9CD"
   id="stop24" />
		<stop
   offset="0.1361"
   style="stop-color:#D5D5DA"
   id="stop26" />
		<stop
   offset="0.2577"
   style="stop-color:#D9D9DE"
   id="stop28" />
		<stop
   offset="1"
   style="stop-color:#E5E5E9"
   id="stop30" />
	</linearGradient>
	<path
   fill="url(#SVGID_3_)"
   d="M6.184,69.75c1.605,0,2.574-2.548,3.126-5.7l5.53-42.206c0.154-1.175,1.268-2.136,2.476-2.136   h68.896c1.208,0,2.016,0.953,1.795,2.118l-7.596,40.107c-0.22,1.165-0.761,3.021-1.2,4.125c0,0-1.47,3.692-3.075,3.692H6.935H6.184   z"
   id="path33" />
	<g
   id="g58">
		<linearGradient
   id="SVGID_4_"
   gradientUnits="userSpaceOnUse"
   x1="3.6626"
   y1="43.4033"
   x2="75.8658"
   y2="43.4033">
			<stop
   offset="0"
   style="stop-color:#828584"
   id="stop35" />
			<stop
   offset="0.0066"
   style="stop-color:#878A89"
   id="stop37" />
			<stop
   offset="0.0355"
   style="stop-color:#999C9C"
   id="stop39" />
			<stop
   offset="0.0697"
   style="stop-color:#A6A9A9"
   id="stop41" />
			<stop
   offset="0.1136"
   style="stop-color:#AEB0B1"
   id="stop43" />
			<stop
   offset="0.2025"
   style="stop-color:#B0B2B3"
   id="stop45" />
			<stop
   offset="0.4962"
   style="stop-color:#ADAFB0"
   id="stop47" />
			<stop
   offset="0.6903"
   style="stop-color:#A5A7A7"
   id="stop49" />
			<stop
   offset="0.8549"
   style="stop-color:#969999"
   id="stop51" />
			<stop
   offset="1"
   style="stop-color:#828584"
   id="stop53" />
		</linearGradient>
		<path
   fill="url(#SVGID_4_)"
   d="M3.663,69.048c0.725-0.279,1.739-1.881,2.349-5.425l5.705-44.401    c0.209-1.628,1.659-2.903,3.3-2.903h60.849v1.5H15.017c-0.871,0-1.701,0.73-1.813,1.594l-5.71,44.433    c-0.735,4.275-1.954,6.456-3.722,6.642L3.663,69.048z"
   id="path56" />
	</g>
	<path
   fill="none"
   stroke="#828584"
   stroke-width="1.5"
   stroke-miterlimit="10"
   d="M75.687,17.069v-5.114   c0-1.247-1.021-2.268-2.268-2.268h-42.67V3.75c0-1.657-1.343-3-3-3H3.75c-1.657,0-3,1.343-3,3v60c0,3.313,1.116,6,2.772,6"
   id="path60" />
	<path
   fill="none"
   stroke="#828584"
   stroke-width="1.5"
   stroke-miterlimit="10"
   d="M75.819,17.069h10.333   c1.247,0,2.081,1.003,1.853,2.229l-7.842,42.222c-0.228,1.226-0.785,3.18-1.239,4.342c0,0-1.519,3.888-3.175,3.888H3.522"
   id="path62" />
</g>

<linearGradient
   id="SVGID_5_"
   gradientUnits="userSpaceOnUse"
   x1="59.7959"
   y1="62.1309"
   x2="52.3985"
   y2="75.4069">
	<stop
   offset="0"
   style="stop-color:#FFFFFF"
   id="stop67" />
	<stop
   offset="1"
   style="stop-color:#84BEDF"
   id="stop69" />
</linearGradient>










<linearGradient
   id="SVGID_6_"
   gradientUnits="userSpaceOnUse"
   x1="52.4434"
   y1="44.7925"
   x2="39.0666"
   y2="60.3383">
	<stop
   offset="0"
   style="stop-color:#FFFFFF"
   id="stop92" />
	<stop
   offset="1"
   style="stop-color:#84BEDF"
   id="stop94" />
</linearGradient>


<linearGradient
   id="SVGID_7_"
   gradientUnits="userSpaceOnUse"
   x1="77.332"
   y1="50.8623"
   x2="84.0394"
   y2="71.3701">
	<stop
   offset="0"
   style="stop-color:#FFFFFF"
   id="stop101" />
	<stop
   offset="1"
   style="stop-color:#84BEDF"
   id="stop103" />
</linearGradient>

<g
   id="g1780"
   inkscape:label="earth"><circle
     fill="none"
     stroke="#047cbc"
     stroke-width="1.5"
     stroke-miterlimit="10"
     cx="63.480999"
     cy="57.07"
     r="27.379999"
     id="circle2510"
     style="display:inline;fill:url(#linearGradient2518);fill-opacity:1;stroke:none" /><path
     fill="url(#SVGID_5_)"
     d="m 61.514,68.906 c -1.242,-0.533 -3.252,-1.42 -4.14,-2.545 -0.651,-0.77 -0.592,-0.77 -1.598,-1.123 -0.828,-0.236 -1.361,-0.709 -2.309,-0.828 -0.709,-0.061 -3.549,-0.77 -3.371,0.236 l -0.06,-0.236 c -0.354,1.125 -0.888,2.07 -1.479,3.135 -0.413,0.77 -0.296,1.006 -0.06,1.834 0.414,1.539 0.592,1.656 1.834,2.307 3.55,1.953 -0.414,7.633 2.545,9.289 0.473,0.297 1.064,0.473 1.537,0.65 0.592,-0.828 0.888,-1.361 1.716,-1.893 0.532,-0.297 0.888,-0.414 1.243,-0.947 0.472,-0.59 0.295,-1.184 0.591,-1.773 0.414,-0.83 1.538,-0.594 2.189,-1.184 0.828,-0.77 0.887,-1.775 1.242,-2.662 0.414,-0.947 1.656,-1.42 2.012,-2.309 0.416,-1.181 -1.004,-1.595 -1.892,-1.951 z"
     id="path72"
     style="display:inline" /><path
     fill="#ffffff"
     d="m 72.99,46.129 c 0,0.592 -0.709,0.947 -0.412,1.479 0.592,-0.71 1.006,-1.065 1.953,-1.184 -0.238,-0.71 -1.007,-1.183 -1.185,-1.893 -0.177,-0.532 0,-1.243 -0.769,-1.065 l 0.176,0.178 c -0.887,-0.178 -0.473,0.947 -0.295,1.361 0.12,0.296 0.532,0.888 0.532,1.124 z"
     id="path74"
     style="display:inline" /><path
     fill="#ffffff"
     d="m 71.572,44.946 c 0.045,0.068 0.09,0.155 0.133,0.255 0.035,-0.08 0.07,-0.164 0.104,-0.255 z"
     id="path76"
     style="display:inline" /><path
     fill="#ffffff"
     d="m 71.705,45.201 c -0.227,0.5 -0.505,0.842 -0.606,1.403 1.032,0.516 0.893,-0.725 0.606,-1.403 z"
     id="path78"
     style="display:inline" /><path
     fill="#ffffff"
     d="m 68.258,39.563 0.119,-0.177 c -0.236,0.059 -0.65,0.059 -0.946,0.118 -0.415,1.301 0.946,1.479 1.716,0.887 1.3,-1.006 -0.06,-1.479 -0.889,-0.828 z"
     id="path80"
     style="display:inline" /><path
     fill="#ffffff"
     d="m 70.625,56.896 c -0.112,-0.057 -0.119,-0.059 -0.221,-0.111 -0.004,0.018 -0.075,0.053 -0.075,0.053 0.164,0.045 0.275,0.109 0.343,0.188 0.006,-0.004 0.01,-0.008 0.013,-0.01 z"
     id="path82"
     style="display:inline" /><path
     fill="#ffffff"
     d="m 76.669,33.606 c -0.095,-0.1 -0.195,-0.204 -0.306,-0.313 0.096,0.115 0.199,0.217 0.306,0.313 z"
     id="path84"
     style="display:inline" /><path
     fill="#ffffff"
     d="m 79.617,40.865 c 0.008,-0.042 0.016,-0.085 0.023,-0.127 -0.066,0.004 -0.133,0.009 -0.201,0.009 z"
     id="path86"
     style="display:inline" /><path
     fill="#ffffff"
     d="m 70.388,56.777 c 0.007,0.004 0.011,0.006 0.017,0.008 0,-0.004 -0.003,-0.008 -0.017,-0.008 z"
     id="path88"
     style="display:inline" /><path
     fill="#ffffff"
     d="m 70.617,57.076 c 0.031,0 0.062,0 0.094,0 -0.011,-0.02 -0.023,-0.035 -0.039,-0.051 -0.035,0.022 -0.124,0.059 -0.055,0.051 z"
     id="path90"
     style="display:inline" /><path
     fill="url(#SVGID_6_)"
     d="m 48.854,64.469 0.236,0.236 c 0.178,-0.176 -0.887,-0.709 -1.125,-1.006 -0.473,-0.709 -0.059,-1.242 0.061,-2.188 -0.533,0.059 -1.064,0.295 -1.657,0.295 0.179,-0.355 1.124,-1.42 0.77,-1.834 -0.474,-0.414 -1.715,1.125 -2.248,1.125 -0.296,-1.006 -0.591,-2.723 0.178,-3.551 0.473,-0.531 1.597,-0.887 2.247,-0.65 0.889,0.295 0.83,0.889 1.006,1.656 0.77,-0.828 0.414,-2.129 0.888,-3.018 0.297,-0.59 1.065,-0.65 1.124,-1.359 l -0.118,0.117 c 0.946,-0.945 1.774,-1.951 2.84,-2.779 0.888,-0.711 2.129,-1.42 2.722,-2.367 -0.77,-0.117 -1.479,-0.059 -0.828,-1.005 0.592,-0.947 2.07,-0.297 2.247,-1.184 0.179,-0.828 -1.183,-1.774 -1.419,-2.484 -0.236,-0.591 -0.474,-1.361 -0.593,-2.012 -0.294,0.296 -0.474,0.71 -0.769,1.006 -0.473,-0.828 -0.118,-1.184 -1.123,-1.006 -0.593,0.06 -1.184,0.474 -1.361,1.064 -0.236,0.711 0.236,1.48 0,2.189 -0.178,0.592 -0.828,1.479 -1.361,1.716 -0.176,-0.65 0.355,-1.302 0.178,-1.952 -1.006,0.059 -1.301,-0.473 -2.07,-0.946 l 0.236,-0.119 c -0.354,0.237 -0.887,-0.591 -1.301,-0.828 0.709,-0.946 1.715,-1.656 2.484,-2.544 0.592,1.125 1.539,-1.597 2.012,-2.071 0.354,-0.414 1.656,-0.828 2.012,-0.236 0.413,0.709 -0.592,1.479 -0.947,1.952 0.65,0 1.36,0.118 1.894,0.474 0.532,-0.415 1.242,-1.065 1.538,-1.716 -0.474,-0.295 -0.888,-0.591 -1.242,-1.005 0.354,-0.709 0.274,-1.633 -0.459,-1.478 0.117,-0.071 0.229,-0.154 0.34,-0.238 -1.36,-0.415 -1.834,0.473 -1.537,-1.184 0.117,-0.769 0.295,-1.243 0.946,-1.953 l -0.178,-0.059 c 0.354,-0.355 0.651,-0.828 0.888,-1.243 -0.06,0 -0.236,0 -0.296,0 0.06,-0.259 0.003,-0.471 -0.14,-0.645 -10.131,3.406 -17.558,12.696 -18.224,23.808 1.694,-0.535 2.721,2.424 3.278,3.812 -0.178,-0.65 -0.296,-1.359 -0.592,-1.951 0.828,0.947 1.774,1.479 1.893,2.781 0.119,0.828 -0.236,0.77 0.709,1.123 0.711,0.236 1.479,0.178 2.129,0.475 1.302,0.475 3.314,3.077 4.732,2.782 z"
     id="path97"
     style="display:inline" /><path
     fill="#ffffff"
     d="m 66.84,35.422 c 0.117,-0.237 1.063,-0.414 1.36,-0.474 -0.06,-0.946 -0.474,-1.952 -0.179,-2.78 0.143,-0.425 0.476,-0.976 0.859,-1.376 -0.453,-0.093 -0.91,-0.173 -1.373,-0.243 l -0.494,0.063 0.467,-0.066 c -1.305,-0.195 -2.64,-0.297 -3.999,-0.297 -1.8,0 -3.556,0.178 -5.257,0.516 -0.199,0.507 -0.496,1.167 -0.496,1.167 l 0.157,-0.023 c -0.574,0.972 -2.29,1.029 -2.346,2.212 0.887,0.117 1.834,-0.237 2.722,-0.059 0.709,1.124 1.004,2.011 0.354,3.253 0.414,0.474 0.946,0.06 1.42,0.118 -0.119,1.006 -1.064,1.775 -0.65,2.898 0.118,0.415 0.414,1.36 0.592,1.716 0.355,0.533 0.533,0.414 1.184,0.65 0.65,-1.242 0.531,-2.838 1.893,-3.548 0.888,-0.415 1.951,-0.474 2.721,-0.947 0.532,-0.354 1.479,-1.064 1.479,-1.775 -0.001,-0.413 -0.594,-0.532 -0.414,-1.005 z"
     id="path99"
     style="display:inline" /><path
     fill="url(#SVGID_7_)"
     d="m 77.287,34.069 c 0.029,0.037 0.056,0.074 0.082,0.11 -0.096,-0.08 -0.193,-0.156 -0.288,-0.232 -0.073,-0.043 -0.146,-0.087 -0.219,-0.129 0.625,0.71 0.861,1.28 0.861,2.432 -0.354,-0.118 -0.65,-0.236 -0.946,-0.414 -0.355,1.242 -0.531,2.189 0.119,3.372 -0.174,0.578 -0.684,1.325 -0.542,1.964 -0.337,0.67 -0.69,1.749 -0.523,2.413 1.42,-1.183 1.302,0.06 2.248,0.828 0.296,-0.531 0.532,-1.124 0.888,-1.656 0.178,-0.236 0.531,-0.06 0.592,-0.591 0,-0.414 -0.533,-0.475 -0.592,-0.77 -0.119,-0.592 0.296,-3.077 1.006,-3.254 -0.113,0.845 -0.174,1.744 -0.332,2.594 0.215,-0.018 0.43,-0.058 0.645,-0.101 0.002,0.364 -0.27,0.915 0.086,1.306 0.623,0.684 1.567,-0.127 2.212,0.517 -0.316,0.521 -0.483,0.26 -0.941,0.355 -0.509,0.106 -0.566,0.334 -0.767,0.876 -0.225,-0.535 -0.754,-1.125 -1.141,-0.344 -0.276,0.557 0.074,1.482 -0.486,1.883 -0.473,0.338 -1.741,0.473 -2.104,-0.049 -0.344,-0.494 -0.041,-1.249 -0.473,-1.708 -0.09,0.483 -0.381,0.929 -0.323,1.413 0.053,0.451 0.428,0.794 0.243,1.236 -0.387,0 -0.873,0.027 -1.16,0.262 -0.236,0.191 -0.24,0.553 -0.604,0.695 -0.32,0.127 -0.822,-0.062 -1.085,0.231 -0.128,0.144 -0.153,0.679 -0.229,0.88 -0.328,0.041 -0.734,0.08 -1.029,0.201 0.135,0.716 1.165,0.933 1.1,1.761 -0.041,0.508 -0.238,0.492 -0.711,0.418 -0.512,-0.082 -1.082,-0.115 -1.588,-0.219 -0.017,1.055 0.602,1.738 0.059,2.803 0.186,0.086 0.35,-0.055 0.51,0.014 0.125,0.053 0.229,0.207 0.309,0.24 0.32,0.127 0.572,0.193 0.947,0.129 0.396,-0.068 0.559,-0.184 0.772,-0.482 0.077,-0.107 -0.022,-0.303 0.099,-0.434 0.111,-0.123 0.3,-0.107 0.431,-0.209 0.517,-0.4 0.489,-1.371 1.019,-1.715 0.086,-0.057 0.655,-0.035 0.875,-0.117 0.311,-0.117 0.475,-0.076 0.699,-0.303 0.176,0.672 0.564,1.217 1.073,1.711 0.508,0.492 1.156,1.008 0.067,1.193 0.348,0.467 0.454,0.633 0.865,0.094 0.304,-0.398 0.48,-0.797 0.852,-1.111 -0.677,-0.637 -1.271,-1.422 -1.759,-2.236 0.709,-0.697 2.312,1.578 2.343,2.178 0.035,0.654 -0.328,0.934 0.34,1.24 0.906,0.414 0.584,-0.639 0.615,-1.297 0.545,0.299 1.09,-0.248 1.592,-0.064 0.255,0.092 0.301,0.398 0.471,0.58 0.272,0.291 0.176,0.227 0.473,0.311 0.6,0.172 0.881,0.004 1.066,0.768 0.113,0.465 0.271,1.076 0.074,1.539 -0.289,0.682 -1.224,1.582 -1.898,1.822 -0.698,0.25 -1.33,-0.322 -1.955,-0.584 -1.002,-0.418 -2.009,-0.785 -2.988,-1.314 -0.957,-0.518 -0.762,-0.154 -1.47,0.207 -0.751,0.383 -1.493,0.965 -2.297,1.23 -1.076,0.357 -2.591,0.535 -3.757,0.533 0.271,0.438 -0.555,1.221 -0.796,1.654 -0.946,1.479 -1.478,2.307 -1.007,4.082 0.238,0.887 0.534,1.656 1.007,2.426 0.237,0.354 0.414,0.887 0.828,1.123 0.532,0.414 0.474,0.178 1.184,-0.059 0.769,-0.236 2.07,-0.414 2.899,-0.178 0.295,0.061 0.414,0.355 0.709,0.414 0.118,0.059 0.946,0.119 1.006,0.178 0,0 0,0 0.06,0 0.177,0.77 -0.237,1.361 -0.237,2.07 -0.059,0.77 0.118,0.65 0.414,1.361 0.533,1.242 0.119,2.781 -0.296,3.963 -0.474,1.361 -0.118,2.307 0,3.729 0.067,0.797 0.487,1.539 0.751,2.277 3.225,-1.93 6.01,-4.514 8.172,-7.572 -0.365,-0.902 -0.639,-1.793 -0.227,-2.516 0.889,-1.596 2.84,-2.307 3.254,-4.199 0.119,-0.65 0.061,-1.301 0.296,-1.895 0.156,-0.52 0.495,-0.775 0.927,-0.941 0.428,-1.904 0.656,-3.885 0.656,-5.918 C 90.311,47.309 85.09,38.761 77.287,34.069 Z m 2.922,6.322 c 0.032,0.037 0.052,0.079 0.062,0.126 z"
     id="path106"
     style="display:inline" /><circle
     fill="none"
     stroke="#047cbc"
     stroke-width="1.5"
     stroke-miterlimit="10"
     cx="63.480999"
     cy="57.07"
     r="27.379999"
     id="circle108"
     style="display:inline"
     inkscape:label="circle108" /></g>
<metadata
   id="metadata1338"><rdf:RDF><cc:License
       rdf:about="http://creativecommons.org/publicdomain/zero/1.0/"><cc:permits
         rdf:resource="http://creativecommons.org/ns#Reproduction" /><cc:permits
         rdf:resource="http://creativecommons.org/ns#Distribution" /><cc:permits
         rdf:resource="http://creativecommons.org/ns#DerivativeWorks" /></cc:License><cc:Work
       rdf:about=""><cc:license
         rdf:resource="http://creativecommons.org/publicdomain/zero/1.0/" /></cc:Work></rdf:RDF></metadata></svg>
