<?xml version="1.0" encoding="utf-8"?>
<!-- Generator: Adobe Illustrator 15.1.0, SVG Export Plug-In  -->
<!DOCTYPE svg [
	<!ENTITY ns_flows "http://ns.adobe.com/Flows/1.0/">
]>
<svg version="1.2" baseProfile="tiny"
	 xmlns="http://www.w3.org/2000/svg" xmlns:xlink="http://www.w3.org/1999/xlink" xmlns:a="http://ns.adobe.com/AdobeSVGViewerExtensions/3.0/"
	 x="0px" y="0px" width="107px" height="107px" viewBox="0 0 107 107" overflow="visible" xml:space="preserve">
<defs>
</defs>
<g>
	<linearGradient id="SVGID_1_" gradientUnits="userSpaceOnUse" x1="53.666" y1="0" x2="53.666" y2="107.3335">
		<stop  offset="0" style="stop-color:#727270"/>
		<stop  offset="1" style="stop-color:#41413F"/>
		<a:midPointStop  offset="0" style="stop-color:#727270"/>
		<a:midPointStop  offset="0.5" style="stop-color:#727270"/>
		<a:midPointStop  offset="1" style="stop-color:#41413F"/>
	</linearGradient>
	<path fill="url(#SVGID_1_)" d="M107.3,99.3c0,4.4-3.6,8-8,8H8c-4.4,0-8-3.6-8-8V8c0-4.4,3.6-8,8-8h91.3c4.4,0,8,3.6,8,8V99.3z"/>
</g>
<linearGradient id="SVGID_2_" gradientUnits="userSpaceOnUse" x1="11.042" y1="53.667" x2="53.1597" y2="53.667">
	<stop  offset="0" style="stop-color:#000000"/>
	<stop  offset="1" style="stop-color:#000000"/>
	<a:midPointStop  offset="0" style="stop-color:#000000"/>
	<a:midPointStop  offset="0.5" style="stop-color:#000000"/>
	<a:midPointStop  offset="1" style="stop-color:#000000"/>
</linearGradient>
<path fill="url(#SVGID_2_)" d="M53.2,11.7H16c-2.8,0-5,2.2-5,5v73.9c0,2.8,2.2,5,5,5h37.1V11.7z"/>
<path fill="#FDEA13" d="M90.3,11.7H53.2v83.9h37.1c2.8,0,5-2.2,5-5V16.7C95.3,13.9,93,11.7,90.3,11.7z"/>
<path fill="#FDEA13" d="M25.2,26.5c0.3-0.7,0.7-1.4,1.2-1.9s1.1-1,1.9-1.3c0.7-0.3,1.5-0.5,2.4-0.5c1.2,0,2.1,0.2,2.9,0.5
	c0.8,0.3,1.4,0.7,1.9,1.2c0.5,0.5,0.8,1,1,1.5s0.3,1.1,0.3,1.5c0,0.8-0.1,1.4-0.3,1.9c-0.2,0.5-0.5,0.9-0.8,1.3
	c-0.3,0.4-0.6,0.7-1,0.9c-0.4,0.3-0.7,0.5-1,0.8c-0.3,0.3-0.6,0.5-0.9,0.9c-0.3,0.3-0.4,0.7-0.5,1.2v0.9H29v-1.1
	c0-0.7,0.2-1.3,0.4-1.8c0.2-0.5,0.5-0.9,0.8-1.2s0.6-0.6,0.9-0.9c0.3-0.2,0.6-0.5,0.9-0.7c0.3-0.2,0.5-0.5,0.7-0.8
	c0.2-0.3,0.2-0.7,0.2-1.1c0-0.7-0.2-1.3-0.5-1.7c-0.4-0.4-0.9-0.5-1.5-0.5c-0.4,0-0.8,0.1-1.1,0.3s-0.6,0.4-0.8,0.7s-0.4,0.6-0.5,1
	s-0.1,0.8-0.1,1.2h-3.6C24.7,28.1,24.9,27.3,25.2,26.5z M32.5,37v3.8h-3.8V37H32.5z"/>
<linearGradient id="SVGID_3_" gradientUnits="userSpaceOnUse" x1="59.8755" y1="78.8154" x2="73.9673" y2="78.8154">
	<stop  offset="0" style="stop-color:#000000"/>
	<stop  offset="1" style="stop-color:#000000"/>
	<a:midPointStop  offset="0" style="stop-color:#000000"/>
	<a:midPointStop  offset="0.5" style="stop-color:#000000"/>
	<a:midPointStop  offset="1" style="stop-color:#000000"/>
</linearGradient>
<path fill="url(#SVGID_3_)" d="M68.6,71.6L74,86h-3.3l-1.1-3.2h-5.4L63.1,86h-3.2l5.5-14.4H68.6z M68.8,80.5l-1.8-5.3h0L65,80.5
	H68.8z"/>
<linearGradient id="SVGID_4_" gradientUnits="userSpaceOnUse" x1="76.4858" y1="78.8154" x2="88.5601" y2="78.8154">
	<stop  offset="0" style="stop-color:#000000"/>
	<stop  offset="1" style="stop-color:#000000"/>
	<a:midPointStop  offset="0" style="stop-color:#000000"/>
	<a:midPointStop  offset="0.5" style="stop-color:#000000"/>
	<a:midPointStop  offset="1" style="stop-color:#000000"/>
</linearGradient>
<path fill="url(#SVGID_4_)" d="M83.3,71.6c0.7,0,1.3,0.1,1.9,0.2c0.6,0.1,1,0.3,1.5,0.6c0.4,0.3,0.7,0.6,0.9,1.1
	c0.2,0.5,0.3,1,0.3,1.7c0,0.7-0.2,1.3-0.5,1.8c-0.3,0.5-0.8,0.9-1.5,1.2c0.9,0.3,1.6,0.7,2,1.3c0.4,0.6,0.7,1.4,0.7,2.3
	c0,0.7-0.1,1.4-0.4,1.9s-0.7,1-1.1,1.3c-0.5,0.3-1,0.6-1.6,0.7c-0.6,0.2-1.2,0.2-1.9,0.2h-7V71.6H83.3z M82.9,77.4
	c0.6,0,1-0.1,1.4-0.4c0.4-0.3,0.5-0.7,0.5-1.3c0-0.3-0.1-0.6-0.2-0.8c-0.1-0.2-0.3-0.4-0.5-0.5c-0.2-0.1-0.4-0.2-0.7-0.3
	c-0.3,0-0.5-0.1-0.8-0.1h-3v3.4H82.9z M83,83.6c0.3,0,0.6,0,0.9-0.1s0.5-0.2,0.7-0.3c0.2-0.1,0.4-0.3,0.5-0.6
	c0.1-0.2,0.2-0.6,0.2-0.9c0-0.7-0.2-1.3-0.6-1.6c-0.4-0.3-1-0.5-1.7-0.5h-3.5v4H83z"/>
<path fill="#8B8131" d="M53.2,60.7l0.2,0.2l-0.2,0.3v4.3c8.2,2.4,13.4,4.3,13.4,4.3c-3-8.5-6.9-16.1-6.9-16.1L56.8,57l-3.6-2.6V60.7
	z"/>
<path fill="#67C8F0" d="M68.5,66.8c-3-8.5-6.9-16.1-6.9-16.1L58.8,54L38.5,39.2l-0.7,0.9L55.4,58l-3.1,3.7
	C62.1,64.5,68.5,66.8,68.5,66.8z"/>
</svg>
