<?xml version="1.0" encoding="UTF-8" standalone="no"?>
<!-- Generator: Adobe Illustrator 14.0.0, SVG Export Plug-In . SVG Version: 6.00 Build 43363)  -->

<svg
   xmlns:dc="http://purl.org/dc/elements/1.1/"
   xmlns:cc="http://creativecommons.org/ns#"
   xmlns:rdf="http://www.w3.org/1999/02/22-rdf-syntax-ns#"
   xmlns:svg="http://www.w3.org/2000/svg"
   xmlns="http://www.w3.org/2000/svg"
   xmlns:sodipodi="http://sodipodi.sourceforge.net/DTD/sodipodi-0.dtd"
   xmlns:inkscape="http://www.inkscape.org/namespaces/inkscape"
   version="1.1"
   id="svg2"
   inkscape:version="0.48.4 r9939"
   sodipodi:docname="align-left.svg"
   sodipodi:version="0.32"
   inkscape:output_extension="org.inkscape.output.svg.inkscape"
   x="0px"
   y="0px"
   width="26px"
   height="26px"
   viewBox="0 0 26 26"
   enable-background="new 0 0 26 26"
   xml:space="preserve"><metadata
   id="metadata10"><rdf:RDF><cc:Work
       rdf:about=""><dc:format>image/svg+xml</dc:format><dc:type
         rdf:resource="http://purl.org/dc/dcmitype/StillImage" /><dc:title /></cc:Work></rdf:RDF></metadata>
<defs
   id="defs3">
	
	
		<inkscape:perspective
   inkscape:vp_z="744.09448 : 526.18109 : 1"
   inkscape:persp3d-origin="372.04724 : 350.78739 : 1"
   inkscape:vp_y="0 : 1000 : 0"
   sodipodi:type="inkscape:persp3d"
   inkscape:vp_x="0 : 526.18109 : 1"
   id="perspective17">
		</inkscape:perspective>
</defs>
<sodipodi:namedview
   inkscape:pageshadow="2"
   guidetolerance="10.0"
   inkscape:window-height="848"
   inkscape:pageopacity="0.0"
   objecttolerance="10.0"
   inkscape:window-y="22"
   gridtolerance="10.0"
   inkscape:cy="10.138482"
   inkscape:cx="20.752639"
   inkscape:current-layer="g3992"
   showgrid="true"
   borderopacity="1.0"
   bordercolor="#666666"
   inkscape:zoom="19.867431"
   inkscape:window-width="1440"
   pagecolor="#ffffff"
   inkscape:window-x="-8"
   id="base"
   showguides="true"
   inkscape:guide-bbox="true"
   inkscape:window-maximized="1">
	<inkscape:grid
   type="xygrid"
   id="grid3779" /><sodipodi:guide
   orientation="1,0"
   position="13,13"
   id="guide3781" /><sodipodi:guide
   orientation="0,1"
   position="13,13"
   id="guide3783" /><sodipodi:guide
   orientation="0,1"
   position="13,21"
   id="guide4204" /><sodipodi:guide
   orientation="0,1"
   position="13,5"
   id="guide4206" /><sodipodi:guide
   orientation="1,0"
   position="5,13"
   id="guide4208" /><sodipodi:guide
   orientation="1,0"
   position="21,13"
   id="guide4210" /></sodipodi:namedview>
<circle
   id="circle4"
   sodipodi:cx="0"
   sodipodi:ry="12"
   sodipodi:cy="0"
   sodipodi:rx="12"
   fill="#808080"
   stroke="#C0C0C0"
   stroke-width="2"
   cx="13"
   cy="13"
   r="12"
   style="stroke-width:2;stroke-miterlimit:4;stroke-dasharray:none;opacity:1">
</circle>

<g
   id="g3992"
   transform="matrix(0.11193738,0,0,0.11193738,0.89683993,4.8461331)">
	
	
<g
   id="g4183"
   transform="matrix(0.97562053,0,0,0.97562053,2.8583077,1.699073)"
   style="fill:#ffffff;fill-opacity:1">
	<path
   id="path4185"
   d="m 40.214,67.787 h 125.144 c 1.412,0 2.634,-0.517 3.666,-1.549 1.031,-1.031 1.547,-2.254 1.547,-3.666 V 52.143 c 0,-1.413 -0.516,-2.634 -1.547,-3.666 -1.032,-1.032 -2.254,-1.548 -3.666,-1.548 H 40.214 c -1.413,0 -2.635,0.516 -3.667,1.548 -1.032,1.032 -1.548,2.254 -1.548,3.666 v 10.429 c 0,1.412 0.516,2.635 1.548,3.666 1.033,1.032 2.255,1.549 3.667,1.549 z"
   inkscape:connector-curvature="0"
   style="fill:#ffffff;fill-opacity:1" />
	<path
   id="path4187"
   d="m 40.214,36.5 h 93.856 c 1.412,0 2.635,-0.516 3.668,-1.548 1.031,-1.032 1.547,-2.254 1.547,-3.666 V 20.857 c 0,-1.412 -0.516,-2.634 -1.547,-3.667 -1.033,-1.031 -2.256,-1.548 -3.668,-1.548 H 40.214 c -1.413,0 -2.635,0.517 -3.667,1.548 -1.032,1.032 -1.548,2.255 -1.548,3.667 v 10.429 c 0,1.412 0.516,2.634 1.548,3.666 1.033,1.032 2.255,1.548 3.667,1.548 z"
   inkscape:connector-curvature="0"
   style="fill:#ffffff;fill-opacity:1" />
	<path
   id="path4189"
   d="m 179.452,111.048 c -1.032,-1.032 -2.255,-1.548 -3.667,-1.548 H 40.214 c -1.413,0 -2.635,0.516 -3.667,1.548 -1.032,1.032 -1.548,2.254 -1.548,3.666 v 10.429 c 0,1.412 0.516,2.635 1.548,3.668 1.033,1.03 2.255,1.547 3.667,1.547 h 135.571 c 1.412,0 2.635,-0.517 3.667,-1.547 1.032,-1.033 1.548,-2.256 1.548,-3.668 v -10.429 c 0,-1.412 -0.516,-2.634 -1.548,-3.666 z"
   inkscape:connector-curvature="0"
   style="fill:#ffffff;fill-opacity:1" />
	<path
   id="path4191"
   d="M 40.214,99.072 H 144.5 c 1.412,0 2.635,-0.517 3.666,-1.549 1.032,-1.031 1.549,-2.254 1.549,-3.666 V 83.429 c 0,-1.411 -0.517,-2.635 -1.549,-3.666 -1.031,-1.032 -2.254,-1.549 -3.666,-1.549 H 40.214 c -1.413,0 -2.635,0.517 -3.667,1.549 -1.032,1.031 -1.548,2.255 -1.548,3.666 v 10.429 c 0,1.412 0.516,2.635 1.548,3.666 1.033,1.032 2.255,1.548 3.667,1.548 z"
   inkscape:connector-curvature="0"
   style="fill:#ffffff;fill-opacity:1" />
</g></g></svg>