<?xml version="1.0" encoding="UTF-8" standalone="no"?>
<!-- Generator: Adobe Illustrator 14.0.0, SVG Export Plug-In . SVG Version: 6.00 Build 43363)  -->

<svg
   xmlns:dc="http://purl.org/dc/elements/1.1/"
   xmlns:cc="http://creativecommons.org/ns#"
   xmlns:rdf="http://www.w3.org/1999/02/22-rdf-syntax-ns#"
   xmlns:svg="http://www.w3.org/2000/svg"
   xmlns="http://www.w3.org/2000/svg"
   xmlns:sodipodi="http://sodipodi.sourceforge.net/DTD/sodipodi-0.dtd"
   xmlns:inkscape="http://www.inkscape.org/namespaces/inkscape"
   version="1.1"
   id="svg2"
   inkscape:version="0.48.4 r9939"
   sodipodi:docname="bold.svg"
   sodipodi:version="0.32"
   inkscape:output_extension="org.inkscape.output.svg.inkscape"
   x="0px"
   y="0px"
   width="26px"
   height="26px"
   viewBox="0 0 26 26"
   enable-background="new 0 0 26 26"
   xml:space="preserve"><metadata
   id="metadata10"><rdf:RDF><cc:Work
       rdf:about=""><dc:format>image/svg+xml</dc:format><dc:type
         rdf:resource="http://purl.org/dc/dcmitype/StillImage" /><dc:title></dc:title></cc:Work></rdf:RDF></metadata>
<defs
   id="defs3">
	
	
		<inkscape:perspective
   inkscape:vp_z="744.09448 : 526.18109 : 1"
   inkscape:persp3d-origin="372.04724 : 350.78739 : 1"
   inkscape:vp_y="0 : 1000 : 0"
   sodipodi:type="inkscape:persp3d"
   inkscape:vp_x="0 : 526.18109 : 1"
   id="perspective17">
		</inkscape:perspective>
</defs>
<sodipodi:namedview
   inkscape:pageshadow="2"
   guidetolerance="10.0"
   inkscape:window-height="848"
   inkscape:pageopacity="0.0"
   objecttolerance="10.0"
   inkscape:window-y="22"
   gridtolerance="10.0"
   inkscape:cy="13.549739"
   inkscape:cx="22.863399"
   inkscape:current-layer="svg2"
   showgrid="false"
   borderopacity="1.0"
   bordercolor="#666666"
   inkscape:zoom="19.867431"
   inkscape:window-width="1440"
   pagecolor="#ffffff"
   inkscape:window-x="-8"
   id="base"
   showguides="false"
   inkscape:guide-bbox="true"
   inkscape:window-maximized="1">
	<inkscape:grid
   type="xygrid"
   id="grid3779" /><sodipodi:guide
   orientation="1,0"
   position="13,15"
   id="guide3781" /><sodipodi:guide
   orientation="0,1"
   position="13,13"
   id="guide3783" /></sodipodi:namedview>
<circle
   id="circle4"
   sodipodi:cx="0"
   sodipodi:ry="12"
   sodipodi:cy="0"
   sodipodi:rx="12"
   fill="#808080"
   stroke="#C0C0C0"
   stroke-width="2"
   cx="13"
   cy="13"
   r="12"
   style="stroke-width:2;stroke-miterlimit:4;stroke-dasharray:none;opacity:1">
</circle>

<path
   id="path3886"
   d="m 19.503897,13.131337 c -0.578687,-0.675154 -1.436833,-1.144353 -2.574913,-1.407952 0.797543,-0.366458 1.279644,-0.61396 1.446776,-0.742504 0.405045,-0.302186 0.710427,-0.639763 0.915908,-1.0126125 0.205719,-0.3729685 0.308578,-0.7844054 0.308578,-1.2344293 0,-0.4178287 -0.06747,-0.8099721 -0.202523,-1.1764303 C 19.262669,7.1908324 19.053755,6.8565695 18.770981,6.5543835 18.481578,6.2523159 18.153707,6.0078921 17.787249,5.8214672 17.446476,5.6543357 17.137898,5.5289871 16.861397,5.4454214 16.199263,5.2717799 15.585185,5.1850183 15.019519,5.1850183 h -0.713623 c -0.128545,0 -0.258865,-0.00166 -0.390723,-0.00485 -0.131622,-0.00308 -0.200747,-0.00473 -0.207139,-0.00473 -0.03208,0 -0.07717,0.00166 -0.135173,0.00473 -0.05788,0.0032 -0.102977,0.00485 -0.135054,0.00485 l -0.434045,0.00971 -3.6644637,0.1253486 -2.5073268,0.05788 0.038587,0.8003845 c 0.5399814,0.070782 0.9065579,0.1126835 1.0993746,0.1254669 0.3278712,0.019293 0.5496873,0.067586 0.6654483,0.1446421 0.070782,0.051489 0.1093693,0.090076 0.115761,0.115761 0.064272,0.1414463 0.099545,0.4918068 0.1060551,1.0512 0.025685,0.9515366 0.054685,2.2502381 0.086762,3.8959856 l 0.019293,4.792837 c 0,0.822874 -0.028881,1.446658 -0.086762,1.870878 -0.025685,0.15423 -0.093272,0.318284 -0.2025226,0.491807 -0.2957943,0.122153 -0.6911335,0.221816 -1.1861362,0.29899 -0.1478379,0.01918 -0.3664581,0.05776 -0.6557423,0.115761 l -0.019293,0.90644 C 8.3492931,19.93662 9.2236557,19.90135 9.4360026,19.882055 10.81176,19.798375 11.769806,19.763098 12.309788,19.776 l 1.899759,0.03835 c 0.745936,0.02568 1.382385,-0.0097 1.909465,-0.106055 0.835775,-0.154348 1.488203,-0.347402 1.957639,-0.578805 0.475709,-0.231404 0.925733,-0.578687 1.349954,-1.041494 0.321716,-0.353438 0.549687,-0.729602 0.684741,-1.128374 0.186425,-0.546255 0.279579,-1.063747 0.279579,-1.552476 2.36e-4,-0.835658 -0.29544,-1.594259 -0.887028,-2.275805 z M 11.953035,6.2943355 c 0.501395,-0.083566 0.919342,-0.1253486 1.253605,-0.1253486 1.099374,0 1.919171,0.2411096 2.459152,0.7232105 0.546255,0.4821008 0.819559,1.0832769 0.819559,1.8032915 0,1.0223186 -0.285969,1.7423331 -0.858146,2.1601621 -0.572177,0.417828 -1.420854,0.626861 -2.545914,0.626861 -0.424339,0 -0.774699,-0.02249 -1.051082,-0.06747 -0.0065,-0.21862 -0.0097,-0.466122 -0.0097,-0.742623 l 0.0097,-0.9450255 c 0.0064,-1.0092989 -0.0129,-1.9061509 -0.05788,-2.690556 -0.0129,-0.2121102 -0.01929,-0.4594931 -0.01929,-0.742504 z m 4.821837,11.1381505 c -0.237913,0.462807 -0.630175,0.82607 -1.17643,1.089787 -0.54661,0.263599 -1.240939,0.395339 -2.083106,0.395339 -0.411437,0 -0.861461,-0.102741 -1.350072,-0.308459 -0.07717,-0.186425 -0.115761,-0.32799 -0.115879,-0.424457 l -0.02888,-2.603794 0.0097,-1.668356 v -1.388659 c 0.173642,-0.06427 0.498317,-0.09635 0.974026,-0.09635 1.07369,0 1.867564,0.10286 2.381979,0.308578 0.533589,0.205837 0.986927,0.610882 1.359777,1.215136 0.263599,0.424457 0.39534,1.003025 0.39534,1.735941 -1.19e-4,0.713505 -0.12239,1.295269 -0.366459,1.745293 z"
   inkscape:connector-curvature="0"
   style="fill:#ffffff;fill-opacity:1" /></svg>