<?xml version="1.0" encoding="UTF-8" standalone="no"?>
<!-- Generator: Adobe Illustrator 14.0.0, SVG Export Plug-In . SVG Version: 6.00 Build 43363)  -->

<svg
   xmlns:dc="http://purl.org/dc/elements/1.1/"
   xmlns:cc="http://creativecommons.org/ns#"
   xmlns:rdf="http://www.w3.org/1999/02/22-rdf-syntax-ns#"
   xmlns:svg="http://www.w3.org/2000/svg"
   xmlns="http://www.w3.org/2000/svg"
   xmlns:sodipodi="http://sodipodi.sourceforge.net/DTD/sodipodi-0.dtd"
   xmlns:inkscape="http://www.inkscape.org/namespaces/inkscape"
   version="1.1"
   id="svg2"
   inkscape:version="0.48.4 r9939"
   sodipodi:docname="bucket.svg"
   sodipodi:version="0.32"
   inkscape:output_extension="org.inkscape.output.svg.inkscape"
   x="0px"
   y="0px"
   width="26px"
   height="26px"
   viewBox="0 0 26 26"
   enable-background="new 0 0 26 26"
   xml:space="preserve"><metadata
   id="metadata10"><rdf:RDF><cc:Work
       rdf:about=""><dc:format>image/svg+xml</dc:format><dc:type
         rdf:resource="http://purl.org/dc/dcmitype/StillImage" /><dc:title></dc:title></cc:Work></rdf:RDF></metadata>
<defs
   id="defs3">
	
	
		<inkscape:perspective
   inkscape:vp_z="744.09448 : 526.18109 : 1"
   inkscape:persp3d-origin="372.04724 : 350.78739 : 1"
   inkscape:vp_y="0 : 1000 : 0"
   sodipodi:type="inkscape:persp3d"
   inkscape:vp_x="0 : 526.18109 : 1"
   id="perspective17">
		</inkscape:perspective>
</defs>
<sodipodi:namedview
   inkscape:pageshadow="2"
   guidetolerance="10.0"
   inkscape:window-height="848"
   inkscape:pageopacity="0.0"
   objecttolerance="10.0"
   inkscape:window-y="22"
   gridtolerance="10.0"
   inkscape:cy="13.127236"
   inkscape:cx="15.456753"
   inkscape:current-layer="svg2"
   showgrid="false"
   borderopacity="1.0"
   bordercolor="#666666"
   inkscape:zoom="19.867431"
   inkscape:window-width="1440"
   pagecolor="#ffffff"
   inkscape:window-x="-8"
   id="base"
   showguides="false"
   inkscape:guide-bbox="true"
   inkscape:window-maximized="1">
	<inkscape:grid
   type="xygrid"
   id="grid3779" /><sodipodi:guide
   orientation="1,0"
   position="13,15"
   id="guide3781" /><sodipodi:guide
   orientation="0,1"
   position="13,13"
   id="guide3783" /><sodipodi:guide
   orientation="0,1"
   position="13,21"
   id="guide6268" /><sodipodi:guide
   orientation="0,1"
   position="13,5"
   id="guide6270" /><sodipodi:guide
   orientation="1,0"
   position="5,13"
   id="guide6272" /><sodipodi:guide
   orientation="1,0"
   position="21,13"
   id="guide6274" /></sodipodi:namedview>
<circle
   id="circle4"
   sodipodi:cx="0"
   sodipodi:ry="12"
   sodipodi:cy="0"
   sodipodi:rx="12"
   fill="#808080"
   stroke="#C0C0C0"
   stroke-width="2"
   cx="13"
   cy="13"
   r="12"
   style="stroke-width:2;stroke-miterlimit:4;stroke-dasharray:none;opacity:1">
</circle>

<g
   id="g5277"
   transform="matrix(0.70488817,0.70931845,-0.70931845,0.70488817,13.057306,-5.206099)"
   style="stroke:#000000;stroke-opacity:1"><g
     transform="matrix(0.08712508,0,0,0.08712508,3.5424571,8.4813187)"
     id="g3007"
     style="fill:#ffffff;fill-opacity:1;stroke:#ffffff;stroke-opacity:1">
	<path
   inkscape:connector-curvature="0"
   d="m 149.286,99.823 c -12.166,8.038 -25.95,12.058 -41.348,12.058 -15.398,0 -29.154,-4.02 -41.266,-12.058 l -1.467,0.733 -0.489,1.304 c 1.738,10.645 3.286,18.575 4.644,23.79 1.087,1.9 2.499,3.572 4.237,5.011 1.738,1.438 3.72,2.62 5.947,3.544 2.227,0.923 4.305,1.656 6.233,2.199 1.928,0.543 4.141,1.031 6.64,1.467 5.594,0.924 11.066,1.426 16.416,1.507 5.351,0.082 10.836,-0.516 16.458,-1.792 5.622,-1.275 10.768,-3.218 15.439,-5.824 1.955,-1.088 3.53,-2.623 4.726,-4.604 1.194,-1.982 1.968,-3.884 2.321,-5.703 0.353,-1.819 0.734,-4.101 1.141,-6.844 0.409,-2.743 0.829,-4.82 1.264,-6.232 0,-0.489 0.219,-1.495 0.652,-3.015 0.433,-1.52 0.57,-2.743 0.407,-3.666 -0.162,-0.925 -0.814,-1.549 -1.955,-1.875 z"
   id="path3009"
   style="fill:#ffffff;fill-opacity:1;stroke:#ffffff;stroke-opacity:1" />
	<path
   sodipodi:nodetypes="cccccscscssscscccccccsccccsccccscsscccscs"
   inkscape:connector-curvature="0"
   d="M 164.034,21.527 C 160.775,17.4 154.935,14.087 146.517,11.588 130.384,6.862 112.025,5.504 91.44,7.514 c -10.21,0.977 -18.71,2.715 -25.5,5.214 -1.63,0.597 -2.933,1.099 -3.911,1.507 -0.978,0.407 -2.227,1.018 -3.748,1.833 -1.521,0.815 -2.744,1.629 -3.667,2.444 -0.923,0.814 -1.778,1.833 -2.566,3.055 -0.788,1.222 -1.263,2.539 -1.426,3.951 0.488,3.911 1.085,8.202 1.792,12.873 0.707,4.671 1.345,8.677 1.915,12.017 0.57,3.34 1.33,7.726 2.281,13.158 0.951,5.432 1.67,9.506 2.159,12.221 0.109,0.49 0.258,1.439 0.448,2.852 0.19,1.413 0.353,2.486 0.489,3.219 0.136,0.734 0.38,1.658 0.733,2.771 0.353,1.115 0.815,2.065 1.385,2.853 0.571,0.787 1.263,1.508 2.078,2.158 7.93,6.084 18.63,9.858 32.1,11.325 19.445,2.063 36.012,-0.325 49.699,-7.17 1.792,-0.922 3.271,-1.764 4.439,-2.524 1.168,-0.762 2.351,-1.848 3.545,-3.26 1.194,-1.412 1.928,-2.933 2.199,-4.562 4.617,-26.507 7.631,-44.295 9.043,-53.366 0.326,-1.249 0.475,-2.716 0.451,-4.4 -0.026,-1.684 -0.476,-3.07 -1.344,-4.156 z m -24.608,6.315 c -2.499,0.95 -4.468,1.534 -5.906,1.751 -1.439,0.217 -3.869,0.543 -7.291,0.979 -11.951,1.52 -24.117,1.493 -36.5,-0.082 C 86.47,30.11 84.094,29.797 82.6,29.552 81.107,29.308 79.111,28.711 76.612,27.76 74.113,26.809 72.049,25.574 70.42,24.053 c 0.978,-1.412 2.336,-2.58 4.074,-3.503 1.738,-0.923 3.232,-1.52 4.481,-1.792 1.249,-0.272 3.042,-0.598 5.377,-0.978 14.937,-2.662 30.308,-2.716 46.114,-0.163 2.662,0.435 4.59,0.774 5.785,1.019 1.195,0.244 2.77,0.842 4.725,1.792 1.955,0.95 3.477,2.159 4.562,3.625 -1.575,1.575 -3.613,2.839 -6.112,3.789 z"
   id="path3011"
   style="fill:#ffffff;fill-opacity:1;stroke:#ffffff;stroke-opacity:1" />
	
</g><path
     transform="matrix(0.78866112,0,0,0.76090626,-27.255396,3.3889857)"
     d="m 57,9 c 0,3.313708 -2.686292,6 -6,6 -3.313708,0 -6,-2.686292 -6,-6 0,-3.3137085 2.686292,-6 6,-6 3.313708,0 6,2.6862915 6,6 z"
     sodipodi:ry="6"
     sodipodi:rx="6"
     sodipodi:cy="9"
     sodipodi:cx="51"
     id="path3033"
     style="fill:none;stroke:#ffffff;stroke-width:0.83639145;stroke-miterlimit:4;stroke-opacity:1;stroke-dasharray:none"
     sodipodi:type="arc" /></g></svg>