<?xml version="1.0" encoding="UTF-8" standalone="no"?>
<!-- Generator: Adobe Illustrator 14.0.0, SVG Export Plug-In . SVG Version: 6.00 Build 43363)  -->

<svg
   xmlns:dc="http://purl.org/dc/elements/1.1/"
   xmlns:cc="http://creativecommons.org/ns#"
   xmlns:rdf="http://www.w3.org/1999/02/22-rdf-syntax-ns#"
   xmlns:svg="http://www.w3.org/2000/svg"
   xmlns="http://www.w3.org/2000/svg"
   xmlns:sodipodi="http://sodipodi.sourceforge.net/DTD/sodipodi-0.dtd"
   xmlns:inkscape="http://www.inkscape.org/namespaces/inkscape"
   version="1.1"
   id="svg2"
   inkscape:version="0.48.4 r9939"
   sodipodi:docname="font.svg"
   sodipodi:version="0.32"
   inkscape:output_extension="org.inkscape.output.svg.inkscape"
   x="0px"
   y="0px"
   width="26px"
   height="26px"
   viewBox="0 0 26 26"
   enable-background="new 0 0 26 26"
   xml:space="preserve"><metadata
   id="metadata10"><rdf:RDF><cc:Work
       rdf:about=""><dc:format>image/svg+xml</dc:format><dc:type
         rdf:resource="http://purl.org/dc/dcmitype/StillImage" /><dc:title></dc:title></cc:Work></rdf:RDF></metadata>
<defs
   id="defs3">
	
	
		<inkscape:perspective
   inkscape:vp_z="744.09448 : 526.18109 : 1"
   inkscape:persp3d-origin="372.04724 : 350.78739 : 1"
   inkscape:vp_y="0 : 1000 : 0"
   sodipodi:type="inkscape:persp3d"
   inkscape:vp_x="0 : 526.18109 : 1"
   id="perspective17">
		</inkscape:perspective>
</defs>
<sodipodi:namedview
   inkscape:pageshadow="2"
   guidetolerance="10.0"
   inkscape:window-height="848"
   inkscape:pageopacity="0.0"
   objecttolerance="10.0"
   inkscape:window-y="22"
   gridtolerance="10.0"
   inkscape:cy="12.062165"
   inkscape:cx="15.64099"
   inkscape:current-layer="svg2"
   showgrid="true"
   borderopacity="1.0"
   bordercolor="#666666"
   inkscape:zoom="14.048395"
   inkscape:window-width="1440"
   pagecolor="#ffffff"
   inkscape:window-x="-8"
   id="base"
   showguides="true"
   inkscape:guide-bbox="true"
   inkscape:window-maximized="1">
	<inkscape:grid
   type="xygrid"
   id="grid3779" /><sodipodi:guide
   orientation="1,0"
   position="13,15"
   id="guide3781" /><sodipodi:guide
   orientation="0,1"
   position="13,13"
   id="guide3783" /><sodipodi:guide
   orientation="0,1"
   position="13,21"
   id="guide6268" /><sodipodi:guide
   orientation="0,1"
   position="13,5"
   id="guide6270" /><sodipodi:guide
   orientation="1,0"
   position="5,13"
   id="guide6272" /><sodipodi:guide
   orientation="1,0"
   position="21,13"
   id="guide6274" /></sodipodi:namedview>
<circle
   id="circle4"
   sodipodi:cx="0"
   sodipodi:ry="12"
   sodipodi:cy="0"
   sodipodi:rx="12"
   fill="#808080"
   stroke="#C0C0C0"
   stroke-width="2"
   cx="13"
   cy="13"
   r="12"
   style="stroke-width:2;stroke-miterlimit:4;stroke-dasharray:none;opacity:1">
</circle>

<g
   id="g3007"
   transform="matrix(0.12019796,0,0,0.12019796,0.02008035,4.2142768)"
   style="fill:#ffffff">
	<path
   id="path3009"
   d="m 126.413,18.575 -5.052,-1.385 c -0.651,-0.217 -1.291,-0.149 -1.914,0.204 -0.625,0.353 -1.047,0.883 -1.264,1.589 l -30.39,105.182 c -0.217,0.706 -0.149,1.372 0.204,1.996 0.353,0.625 0.882,1.046 1.589,1.263 l 5.051,1.385 c 0.652,0.219 1.29,0.151 1.915,-0.203 0.625,-0.354 1.046,-0.883 1.263,-1.588 l 30.39,-105.183 c 0.217,-0.706 0.149,-1.372 -0.204,-1.997 -0.353,-0.625 -0.882,-1.046 -1.588,-1.263 z"
   inkscape:connector-curvature="0"
   style="fill:#ffffff" />
	<path
   id="path3011"
   d="m 80.87,39.108 c 0,-0.706 -0.272,-1.331 -0.815,-1.874 L 75.981,33.16 c -0.543,-0.543 -1.168,-0.815 -1.874,-0.815 -0.706,0 -1.331,0.272 -1.874,0.815 L 34.267,71.126 c -0.544,0.543 -0.815,1.168 -0.815,1.874 0,0.706 0.272,1.331 0.815,1.874 l 37.966,37.966 c 0.543,0.544 1.167,0.814 1.874,0.814 0.707,0 1.331,-0.271 1.874,-0.814 l 4.074,-4.072 c 0.543,-0.543 0.815,-1.168 0.815,-1.875 0,-0.705 -0.272,-1.33 -0.815,-1.873 L 48.036,73 80.055,40.982 c 0.544,-0.543 0.815,-1.168 0.815,-1.874 z"
   inkscape:connector-curvature="0"
   style="fill:#ffffff" />
	<path
   id="path3013"
   d="M 181.732,71.125 143.765,33.159 c -0.543,-0.543 -1.168,-0.815 -1.873,-0.815 -0.707,0 -1.33,0.272 -1.875,0.815 l -4.072,4.074 c -0.543,0.543 -0.814,1.167 -0.814,1.874 0,0.707 0.271,1.331 0.814,1.874 L 167.964,73 135.945,105.02 c -0.543,0.543 -0.814,1.168 -0.814,1.873 0,0.707 0.271,1.332 0.814,1.875 l 4.072,4.072 c 0.545,0.544 1.168,0.814 1.875,0.814 0.705,0 1.33,-0.271 1.873,-0.814 l 37.967,-37.966 c 0.543,-0.543 0.814,-1.169 0.814,-1.875 0,-0.706 -0.271,-1.331 -0.814,-1.874 z"
   inkscape:connector-curvature="0"
   style="fill:#ffffff" />
</g></svg>