<?xml version="1.0" encoding="UTF-8" standalone="no"?>
<!-- Generator: Adobe Illustrator 14.0.0, SVG Export Plug-In . SVG Version: 6.00 Build 43363)  -->

<svg
   xmlns:dc="http://purl.org/dc/elements/1.1/"
   xmlns:cc="http://creativecommons.org/ns#"
   xmlns:rdf="http://www.w3.org/1999/02/22-rdf-syntax-ns#"
   xmlns:svg="http://www.w3.org/2000/svg"
   xmlns="http://www.w3.org/2000/svg"
   xmlns:sodipodi="http://sodipodi.sourceforge.net/DTD/sodipodi-0.dtd"
   xmlns:inkscape="http://www.inkscape.org/namespaces/inkscape"
   version="1.1"
   id="svg2"
   inkscape:version="0.48.4 r9939"
   sodipodi:docname="font.svg"
   sodipodi:version="0.32"
   inkscape:output_extension="org.inkscape.output.svg.inkscape"
   x="0px"
   y="0px"
   width="26px"
   height="26px"
   viewBox="0 0 26 26"
   enable-background="new 0 0 26 26"
   xml:space="preserve"><metadata
   id="metadata10"><rdf:RDF><cc:Work
       rdf:about=""><dc:format>image/svg+xml</dc:format><dc:type
         rdf:resource="http://purl.org/dc/dcmitype/StillImage" /></cc:Work></rdf:RDF></metadata>
<defs
   id="defs3">
	
	
		<inkscape:perspective
   inkscape:vp_z="744.09448 : 526.18109 : 1"
   inkscape:persp3d-origin="372.04724 : 350.78739 : 1"
   inkscape:vp_y="0 : 1000 : 0"
   sodipodi:type="inkscape:persp3d"
   inkscape:vp_x="0 : 526.18109 : 1"
   id="perspective17">
		</inkscape:perspective>
</defs>
<sodipodi:namedview
   inkscape:pageshadow="2"
   guidetolerance="10.0"
   inkscape:window-height="848"
   inkscape:pageopacity="0.0"
   objecttolerance="10.0"
   inkscape:window-y="22"
   gridtolerance="10.0"
   inkscape:cy="13.740639"
   inkscape:cx="18.111643"
   inkscape:current-layer="svg2"
   showgrid="true"
   borderopacity="1.0"
   bordercolor="#666666"
   inkscape:zoom="28.09679"
   inkscape:window-width="1440"
   pagecolor="#ffffff"
   inkscape:window-x="-8"
   id="base"
   showguides="true"
   inkscape:guide-bbox="true"
   inkscape:window-maximized="1">
	<inkscape:grid
   type="xygrid"
   id="grid3779" /><sodipodi:guide
   orientation="1,0"
   position="13,15"
   id="guide3781" /><sodipodi:guide
   orientation="0,1"
   position="13,13"
   id="guide3783" /><sodipodi:guide
   orientation="0,1"
   position="13,21"
   id="guide6268" /><sodipodi:guide
   orientation="0,1"
   position="13,5"
   id="guide6270" /><sodipodi:guide
   orientation="1,0"
   position="5,13"
   id="guide6272" /><sodipodi:guide
   orientation="1,0"
   position="21,13"
   id="guide6274" /></sodipodi:namedview>
<circle
   id="circle4"
   sodipodi:cx="0"
   sodipodi:ry="12"
   sodipodi:cy="0"
   sodipodi:rx="12"
   fill="#808080"
   stroke="#C0C0C0"
   stroke-width="2"
   cx="13"
   cy="13"
   r="12"
   style="stroke-width:2;stroke-miterlimit:4;stroke-dasharray:none;opacity:1">
</circle>

<path
   id="path3867"
   d="m 20.896641,18.908754 c -0.357553,-0.134156 -0.686415,-0.220223 -0.986591,-0.258553 -0.300174,-0.02575 -0.520632,-0.099 -0.661136,-0.22034 -0.08301,-0.05127 -0.194826,-0.233155 -0.33533,-0.546147 -0.261962,-0.523688 -0.469368,-0.999523 -0.622572,-1.427387 -0.249147,-0.67701 -0.456905,-1.200699 -0.622924,-1.571067 -0.363901,-0.849379 -0.670425,-1.599755 -0.919338,-2.251134 -0.134272,-0.351203 -0.530038,-1.299582 -1.188,-2.8451348 L 13.597093,5.1910149 13.491744,4.9898403 H 12.984045 12.26553 L 9.5833577,11.925253 7.3130592,17.82622 c -0.1788353,0.332038 -0.332156,0.549321 -0.4598448,0.651496 -0.1340385,0.0956 -0.4853594,0.194707 -1.0537275,0.296764 -0.3704857,0.07043 -0.6258637,0.127807 -0.7663689,0.172487 l -0.019163,0.756962 h 0.2011747 c 0.5492034,0 1.0825341,-0.04468 1.5997564,-0.134039 l 0.4598448,-0.07654 c 1.8073971,0.12769 2.9217931,0.191534 3.3431911,0.191534 0.01282,-0.06385 0.01917,-0.150028 0.01917,-0.258552 0,-0.191651 -0.0032,-0.376836 -0.0096,-0.55567 -0.134039,-0.01917 -0.263373,-0.03833 -0.387888,-0.0575 -0.124514,-0.01917 -0.220339,-0.03515 -0.2873585,-0.04785 -0.067019,-0.01258 -0.11017,-0.01905 -0.1293356,-0.01905 C 9.331038,18.67595 9.0021744,18.57378 8.836155,18.439741 8.7276324,18.3632 8.6733108,18.225868 8.6733108,18.027751 c 0,-0.127689 0.073488,-0.395766 0.22034,-0.804699 0.4790101,-1.33462 0.8110478,-2.209629 0.9962318,-2.624559 l 4.3108524,0.01905 0.881359,2.184115 0.450085,1.091942 c 0.03833,0.108641 0.05738,0.210814 0.05738,0.306522 0,0.09571 -0.03821,0.18201 -0.114874,0.258553 -0.07666,0.06397 -0.293708,0.137329 -0.651495,0.220222 l -1.25502,0.268194 c -0.02564,0.210816 -0.0381,0.459845 -0.0381,0.747204 l 0.555553,-0.01917 1.915921,-0.105349 c 0.357552,-0.0127 0.788825,-0.01929 1.29335,-0.01929 0.612813,0 1.216336,0.02563 1.810455,0.07666 0.715103,0.05103 1.328269,0.07654 1.83926,0.07654 0.0064,-0.07654 0.0094,-0.159552 0.0094,-0.249028 0,-0.114873 -0.01905,-0.296766 -0.05738,-0.545911 z m -7.45287,-5.441241 c -0.08936,0 -0.257023,-0.0017 -0.502876,-0.0048 -0.245855,-0.0029 -0.625748,-0.0077 -1.139913,-0.01423 -0.514047,-0.0064 -1.004226,-0.0127 -1.47042,-0.01917 l 1.628445,-4.3107353 c 0.249146,0.5045241 0.542854,1.1782423 0.881241,2.0212713 0.383302,0.932387 0.67701,1.701931 0.881478,2.308628 l -0.277955,0.01905 z"
   inkscape:connector-curvature="0"
   style="fill:#ffffff;fill-opacity:1" /></svg>