<?xml version="1.0" encoding="UTF-8" standalone="no"?>
<!-- Generator: Adobe Illustrator 14.0.0, SVG Export Plug-In . SVG Version: 6.00 Build 43363)  -->

<svg
   xmlns:dc="http://purl.org/dc/elements/1.1/"
   xmlns:cc="http://creativecommons.org/ns#"
   xmlns:rdf="http://www.w3.org/1999/02/22-rdf-syntax-ns#"
   xmlns:svg="http://www.w3.org/2000/svg"
   xmlns="http://www.w3.org/2000/svg"
   xmlns:sodipodi="http://sodipodi.sourceforge.net/DTD/sodipodi-0.dtd"
   xmlns:inkscape="http://www.inkscape.org/namespaces/inkscape"
   version="1.1"
   id="svg2"
   inkscape:version="0.48.4 r9939"
   sodipodi:docname="indent.svg"
   sodipodi:version="0.32"
   inkscape:output_extension="org.inkscape.output.svg.inkscape"
   x="0px"
   y="0px"
   width="26px"
   height="26px"
   viewBox="0 0 26 26"
   enable-background="new 0 0 26 26"
   xml:space="preserve"><metadata
   id="metadata10"><rdf:RDF><cc:Work
       rdf:about=""><dc:format>image/svg+xml</dc:format><dc:type
         rdf:resource="http://purl.org/dc/dcmitype/StillImage" /><dc:title></dc:title></cc:Work></rdf:RDF></metadata>
<defs
   id="defs3">
	
	
		<inkscape:perspective
   inkscape:vp_z="744.09448 : 526.18109 : 1"
   inkscape:persp3d-origin="372.04724 : 350.78739 : 1"
   inkscape:vp_y="0 : 1000 : 0"
   sodipodi:type="inkscape:persp3d"
   inkscape:vp_x="0 : 526.18109 : 1"
   id="perspective17">
		</inkscape:perspective>
</defs>
<sodipodi:namedview
   inkscape:pageshadow="2"
   guidetolerance="10.0"
   inkscape:window-height="848"
   inkscape:pageopacity="0.0"
   objecttolerance="10.0"
   inkscape:window-y="22"
   gridtolerance="10.0"
   inkscape:cy="8.7693338"
   inkscape:cx="18.651843"
   inkscape:current-layer="g3992"
   showgrid="true"
   borderopacity="1.0"
   bordercolor="#666666"
   inkscape:zoom="19.867431"
   inkscape:window-width="1440"
   pagecolor="#ffffff"
   inkscape:window-x="-8"
   id="base"
   showguides="true"
   inkscape:guide-bbox="true"
   inkscape:window-maximized="1"
   inkscape:snap-grids="true"
   inkscape:snap-to-guides="true">
	<inkscape:grid
   type="xygrid"
   id="grid3779" /><sodipodi:guide
   orientation="1,0"
   position="13,13"
   id="guide3781" /><sodipodi:guide
   orientation="0,1"
   position="13,13"
   id="guide3783" /><sodipodi:guide
   orientation="0,1"
   position="13,21"
   id="guide4204" /><sodipodi:guide
   orientation="0,1"
   position="13,5"
   id="guide4206" /><sodipodi:guide
   orientation="1,0"
   position="5,13"
   id="guide4208" /><sodipodi:guide
   orientation="1,0"
   position="21,13"
   id="guide4210" /></sodipodi:namedview>
<circle
   id="circle4"
   sodipodi:cx="0"
   sodipodi:ry="12"
   sodipodi:cy="0"
   sodipodi:rx="12"
   fill="#808080"
   stroke="#C0C0C0"
   stroke-width="2"
   cx="13"
   cy="13"
   r="12"
   style="stroke-width:2;stroke-miterlimit:4;stroke-dasharray:none;opacity:1">
</circle>

<g
   id="g3992"
   transform="matrix(0.11193738,0,0,0.11193738,0.89683993,4.8461331)">
	
	
<g
   id="g5958"
   transform="matrix(0.93329062,0,0,0.93329062,7.3965888,4.5756097)"
   style="fill:#ffffff">
	<path
   id="path5960"
   d="m 37.608,99.071 c 0.761,0 1.385,-0.244 1.874,-0.733 L 62.946,74.874 c 0.488,-0.489 0.733,-1.113 0.733,-1.874 0,-0.761 -0.245,-1.385 -0.733,-1.874 L 39.482,47.662 c -0.489,-0.489 -1.113,-0.733 -1.874,-0.733 -0.706,0 -1.317,0.257 -1.833,0.773 -0.516,0.517 -0.774,1.128 -0.774,1.834 v 46.928 c 0,0.707 0.258,1.317 0.774,1.834 0.516,0.514 1.127,0.773 1.833,0.773 z"
   inkscape:connector-curvature="0"
   style="fill:#ffffff" />
	<path
   id="path5962"
   d="M 178.393,109.5 H 37.607 c -0.706,0 -1.317,0.257 -1.833,0.773 C 35.258,110.789 35,111.4 35,112.107 v 15.643 c 0,0.706 0.258,1.316 0.774,1.833 0.516,0.517 1.127,0.774 1.833,0.774 h 140.786 c 0.707,0 1.317,-0.258 1.834,-0.774 0.516,-0.517 0.773,-1.127 0.773,-1.833 v -15.643 c 0,-0.707 -0.258,-1.317 -0.773,-1.834 -0.517,-0.515 -1.127,-0.773 -1.834,-0.773 z"
   inkscape:connector-curvature="0"
   style="fill:#ffffff" />
	<path
   id="path5964"
   d="M 178.393,78.214 H 89.75 c -0.706,0 -1.317,0.259 -1.833,0.774 -0.516,0.515 -0.774,1.127 -0.774,1.833 v 15.643 c 0,0.707 0.258,1.317 0.774,1.834 0.516,0.515 1.127,0.772 1.833,0.772 h 88.643 c 0.707,0 1.317,-0.256 1.834,-0.772 C 180.743,97.781 181,97.171 181,96.464 V 80.821 c 0,-0.706 -0.258,-1.317 -0.773,-1.833 -0.517,-0.515 -1.127,-0.774 -1.834,-0.774 z"
   inkscape:connector-curvature="0"
   style="fill:#ffffff" />
	<path
   id="path5966"
   d="M 178.393,46.929 H 89.75 c -0.706,0 -1.317,0.257 -1.833,0.773 -0.516,0.517 -0.774,1.128 -0.774,1.834 v 15.643 c 0,0.706 0.258,1.317 0.774,1.833 0.516,0.515 1.127,0.774 1.833,0.774 h 88.643 c 0.707,0 1.317,-0.258 1.834,-0.774 C 180.743,66.496 181,65.885 181,65.179 V 49.536 c 0,-0.706 -0.258,-1.317 -0.773,-1.834 -0.517,-0.515 -1.127,-0.773 -1.834,-0.773 z"
   inkscape:connector-curvature="0"
   style="fill:#ffffff" />
	<path
   id="path5968"
   d="M 180.227,16.417 C 179.71,15.902 179.1,15.643 178.393,15.643 H 37.607 c -0.706,0 -1.317,0.258 -1.833,0.774 C 35.258,16.933 35,17.544 35,18.25 v 15.643 c 0,0.706 0.258,1.317 0.774,1.833 0.516,0.516 1.127,0.774 1.833,0.774 h 140.786 c 0.707,0 1.317,-0.257 1.834,-0.774 C 180.743,35.21 181,34.599 181,33.893 V 18.25 c 0,-0.706 -0.258,-1.317 -0.773,-1.833 z"
   inkscape:connector-curvature="0"
   style="fill:#ffffff" />
</g></g></svg>