<?xml version="1.0" encoding="UTF-8" standalone="no"?>
<!-- Generator: Adobe Illustrator 14.0.0, SVG Export Plug-In . SVG Version: 6.00 Build 43363)  -->

<svg
   xmlns:dc="http://purl.org/dc/elements/1.1/"
   xmlns:cc="http://creativecommons.org/ns#"
   xmlns:rdf="http://www.w3.org/1999/02/22-rdf-syntax-ns#"
   xmlns:svg="http://www.w3.org/2000/svg"
   xmlns="http://www.w3.org/2000/svg"
   xmlns:sodipodi="http://sodipodi.sourceforge.net/DTD/sodipodi-0.dtd"
   xmlns:inkscape="http://www.inkscape.org/namespaces/inkscape"
   version="1.1"
   id="svg2"
   inkscape:version="0.48.4 r9939"
   sodipodi:docname="italic.svg"
   sodipodi:version="0.32"
   inkscape:output_extension="org.inkscape.output.svg.inkscape"
   x="0px"
   y="0px"
   width="26px"
   height="26px"
   viewBox="0 0 26 26"
   enable-background="new 0 0 26 26"
   xml:space="preserve"><metadata
   id="metadata10"><rdf:RDF><cc:Work
       rdf:about=""><dc:format>image/svg+xml</dc:format><dc:type
         rdf:resource="http://purl.org/dc/dcmitype/StillImage" /><dc:title /></cc:Work></rdf:RDF></metadata>
<defs
   id="defs3">
	
	
		<inkscape:perspective
   inkscape:vp_z="744.09448 : 526.18109 : 1"
   inkscape:persp3d-origin="372.04724 : 350.78739 : 1"
   inkscape:vp_y="0 : 1000 : 0"
   sodipodi:type="inkscape:persp3d"
   inkscape:vp_x="0 : 526.18109 : 1"
   id="perspective17">
		</inkscape:perspective>
</defs>
<sodipodi:namedview
   inkscape:pageshadow="2"
   guidetolerance="10.0"
   inkscape:window-height="848"
   inkscape:pageopacity="0.0"
   objecttolerance="10.0"
   inkscape:window-y="22"
   gridtolerance="10.0"
   inkscape:cy="10.196784"
   inkscape:cx="-5.4929748"
   inkscape:current-layer="svg2"
   showgrid="true"
   borderopacity="1.0"
   bordercolor="#666666"
   inkscape:zoom="14.048395"
   inkscape:window-width="1440"
   pagecolor="#ffffff"
   inkscape:window-x="-8"
   id="base"
   showguides="true"
   inkscape:guide-bbox="true"
   inkscape:window-maximized="1">
	<inkscape:grid
   type="xygrid"
   id="grid3779" /><sodipodi:guide
   orientation="1,0"
   position="13,13"
   id="guide3781" /><sodipodi:guide
   orientation="0,1"
   position="13,13"
   id="guide3783" /><sodipodi:guide
   orientation="1,0"
   position="5,13"
   id="guide2987" /><sodipodi:guide
   orientation="1,0"
   position="21,13"
   id="guide2989" /><sodipodi:guide
   orientation="0,1"
   position="13,21"
   id="guide2991" /><sodipodi:guide
   orientation="0,1"
   position="13,5"
   id="guide2993" /></sodipodi:namedview>
<circle
   id="circle4"
   sodipodi:cx="0"
   sodipodi:ry="12"
   sodipodi:cy="0"
   sodipodi:rx="12"
   fill="#808080"
   stroke="#C0C0C0"
   stroke-width="2"
   cx="13"
   cy="13"
   r="12"
   style="stroke-width:2;stroke-miterlimit:4;stroke-dasharray:none;opacity:1">
</circle>

<path
   id="path3969"
   d="m 17.903689,5.0763151 c -0.241988,0.017321 -0.477351,0.032987 -0.705709,0.046741 -1.02386,0.062152 -1.764084,0.093355 -2.220548,0.093355 -0.235236,0 -0.487794,-0.00701 -0.757418,-0.020761 L 10.930651,5.0503327 10.733494,6.1191499 c 0.06915,0.013754 0.200596,0.027637 0.394313,0.041519 0.712459,0.041392 1.21057,0.1383146 1.494203,0.2905115 v 0.394311 l -0.08305,0.5187432 -0.228232,1.4008482 -0.166079,0.6537465 -0.300954,1.6290797 c 0,0.007 -0.01209,0.04687 -0.03629,0.119465 -0.02419,0.07259 -0.0554,0.178052 -0.09336,0.316365 -0.03808,0.138443 -0.08126,0.2993 -0.129781,0.482575 -0.04852,0.183272 -0.103793,0.415069 -0.166079,0.695265 -0.06228,0.280068 -0.121127,0.572362 -0.176395,0.876756 l -0.124561,0.664191 -0.581023,2.780936 -0.280194,1.442114 c -0.08305,0.442962 -0.224795,0.792314 -0.425389,1.048058 -0.2767564,0.138442 -0.6779449,0.273317 -1.2036931,0.404881 -0.5049879,0.13131 -0.7713006,0.200467 -0.798938,0.207471 l -0.1763957,0.882106 c 0.165952,-0.01376 0.5048608,-0.04483 1.0168537,-0.09349 0.920059,-0.08304 1.5218431,-0.121114 1.8054781,-0.11412 l 2.054593,0.02064 c 0.871534,0.09005 1.373083,0.148757 1.504393,0.17665 0.131438,0.02064 0.228359,0.03107 0.290512,0.03107 0.124688,0 0.269752,-0.0069 0.435832,-0.02077 0.03451,-0.0068 0.114118,-0.01025 0.238674,-0.01025 0.01376,-0.06915 0.04496,-0.21104 0.09336,-0.425643 0.04126,-0.200595 0.0656,-0.401189 0.07259,-0.60191 -0.207727,-0.03453 -0.435831,-0.06915 -0.685077,-0.103553 -0.380173,-0.04152 -0.791933,-0.114247 -1.234641,-0.217916 -0.02064,-0.138314 -0.02407,-0.231669 -0.01025,-0.280195 l 0.12469,-0.466906 0.446273,-2.438463 0.394311,-1.639523 0.632988,-3.227085 c 0.152068,-0.740224 0.380427,-1.7984695 0.684949,-3.1752466 0.02765,-0.262874 0.07259,-0.546508 0.134876,-0.8509018 0.08305,-0.394311 0.166206,-0.6985775 0.24899,-0.9131814 0.255997,-0.1036718 0.605478,-0.2109107 1.048058,-0.3215877 0.373806,-0.082913 0.750668,-0.1901505 1.131097,-0.3215876 0.04164,-0.1521969 0.08673,-0.3285926 0.135003,-0.5291869 0.02788,-0.1315643 0.04852,-0.2628739 0.06228,-0.394311 -0.0069,-1.272e-4 -0.131691,0.00841 -0.373677,0.025728 z"
   inkscape:connector-curvature="0"
   style="fill:#ffffff;fill-opacity:1" /></svg>