<?xml version="1.0" encoding="UTF-8" standalone="no"?>
<!-- Generator: Adobe Illustrator 14.0.0, SVG Export Plug-In . SVG Version: 6.00 Build 43363)  -->

<svg
   xmlns:dc="http://purl.org/dc/elements/1.1/"
   xmlns:cc="http://creativecommons.org/ns#"
   xmlns:rdf="http://www.w3.org/1999/02/22-rdf-syntax-ns#"
   xmlns:svg="http://www.w3.org/2000/svg"
   xmlns="http://www.w3.org/2000/svg"
   xmlns:sodipodi="http://sodipodi.sourceforge.net/DTD/sodipodi-0.dtd"
   xmlns:inkscape="http://www.inkscape.org/namespaces/inkscape"
   version="1.1"
   id="svg2"
   inkscape:version="0.48.4 r9939"
   sodipodi:docname="link.svg"
   sodipodi:version="0.32"
   inkscape:output_extension="org.inkscape.output.svg.inkscape"
   x="0px"
   y="0px"
   width="26px"
   height="26px"
   viewBox="0 0 26 26"
   enable-background="new 0 0 26 26"
   xml:space="preserve"><metadata
   id="metadata10"><rdf:RDF><cc:Work
       rdf:about=""><dc:format>image/svg+xml</dc:format><dc:type
         rdf:resource="http://purl.org/dc/dcmitype/StillImage" /><dc:title></dc:title></cc:Work></rdf:RDF></metadata>
<defs
   id="defs3">
	
	
		<inkscape:perspective
   inkscape:vp_z="744.09448 : 526.18109 : 1"
   inkscape:persp3d-origin="372.04724 : 350.78739 : 1"
   inkscape:vp_y="0 : 1000 : 0"
   sodipodi:type="inkscape:persp3d"
   inkscape:vp_x="0 : 526.18109 : 1"
   id="perspective17">
		</inkscape:perspective>
</defs>
<sodipodi:namedview
   inkscape:pageshadow="2"
   guidetolerance="10.0"
   inkscape:window-height="848"
   inkscape:pageopacity="0.0"
   objecttolerance="10.0"
   inkscape:window-y="22"
   gridtolerance="10.0"
   inkscape:cy="14.486633"
   inkscape:cx="6.0013665"
   inkscape:current-layer="svg2"
   showgrid="true"
   borderopacity="1.0"
   bordercolor="#666666"
   inkscape:zoom="9.9337154"
   inkscape:window-width="1440"
   pagecolor="#ffffff"
   inkscape:window-x="-8"
   id="base"
   showguides="true"
   inkscape:guide-bbox="true"
   inkscape:window-maximized="1">
	<inkscape:grid
   type="xygrid"
   id="grid3779" /><sodipodi:guide
   orientation="1,0"
   position="13,15"
   id="guide3781" /><sodipodi:guide
   orientation="0,1"
   position="13,13"
   id="guide3783" /><sodipodi:guide
   orientation="0,1"
   position="13,21"
   id="guide6268" /><sodipodi:guide
   orientation="0,1"
   position="13,5"
   id="guide6270" /><sodipodi:guide
   orientation="1,0"
   position="5,13"
   id="guide6272" /><sodipodi:guide
   orientation="1,0"
   position="21,13"
   id="guide6274" /></sodipodi:namedview>
<circle
   id="circle4"
   sodipodi:cx="0"
   sodipodi:ry="12"
   sodipodi:cy="0"
   sodipodi:rx="12"
   fill="#808080"
   stroke="#C0C0C0"
   stroke-width="2"
   cx="13"
   cy="13"
   r="12"
   style="stroke-width:2;stroke-miterlimit:4;stroke-dasharray:none;opacity:1">
</circle>

<path
   id="path3873"
   d="m 20.172134,14.8107 -2.040709,-2.040587 c -0.549343,-0.549344 -1.216333,-0.824137 -2.001211,-0.824137 -0.798004,0 -1.478,0.287798 -2.040589,0.863391 l -0.863389,-0.863391 c 0.575593,-0.562468 0.863389,-1.245834 0.863389,-2.0504609 0,-0.7848786 -0.27142,-1.4486176 -0.81438,-1.9915783 L 11.254164,5.873223 C 10.711324,5.3172573 10.044213,5.0392142 9.2528319,5.0392142 c -0.7848787,0 -1.448738,0.2715405 -1.9915783,0.8143808 L 5.8190181,7.2859563 C 5.2630523,7.828917 4.9851297,8.492656 4.9851297,9.2775346 c 0,0.7848784 0.2747918,1.4521094 0.8241346,2.0014524 l 2.0405881,2.040588 c 0.5494632,0.549343 1.2165738,0.824134 2.0014525,0.824134 0.7978841,0 1.4781201,-0.287796 2.0405891,-0.86339 l 0.863389,0.86339 c -0.575593,0.562468 -0.863389,1.245836 -0.863389,2.050463 0,0.784879 0.271419,1.448497 0.81426,1.991579 l 2.0212,2.030593 c 0.542961,0.555965 1.209831,0.834009 2.001212,0.834009 0.784999,0 1.448618,-0.271421 1.991578,-0.814382 L 20.1625,18.80361 c 0.555845,-0.542961 0.834009,-1.2067 0.834009,-1.991578 -1.2e-4,-0.784758 -0.274792,-1.451749 -0.824375,-2.001332 z m -8.28012,-4.198704 c -0.01963,-0.01963 -0.0802,-0.08176 -0.181468,-0.186405 -0.101276,-0.104642 -0.171595,-0.174966 -0.210851,-0.210971 -0.03925,-0.036 -0.101396,-0.08501 -0.186406,-0.14727 -0.08514,-0.06213 -0.168463,-0.1046424 -0.250227,-0.1275214 -0.08176,-0.022879 -0.171714,-0.034319 -0.269854,-0.034319 -0.261546,0 -0.483957,0.091637 -0.667111,0.2746715 -0.1831548,0.183034 -0.2746718,0.405444 -0.2746718,0.66711 0,0.09802 0.01144,0.187971 0.034319,0.269735 0.022879,0.08189 0.065387,0.165211 0.1275217,0.250227 0.06213,0.08502 0.111265,0.147149 0.14715,0.186405 0.03588,0.03925 0.106206,0.10958 0.210849,0.21097 0.10464,0.101386 0.166778,0.161841 0.186407,0.181469 -0.19628,0.202662 -0.431695,0.304053 -0.7063669,0.304053 -0.2681689,0 -0.4905793,-0.08827 -0.6671107,-0.264797 L 7.1434856,9.9447657 C 6.9604517,9.7616113 6.8688142,9.539201 6.8688142,9.2775346 c 0,-0.2550434 0.091517,-0.4740821 0.2746714,-0.6572365 L 8.5857212,7.1878164 C 8.7754985,7.0111645 8.9977884,6.9230192 9.2529523,6.9230192 c 0.2615459,0 0.4839563,0.091517 0.6671107,0.2746714 l 2.02096,2.0307138 c 0.183155,0.1831545 0.274671,0.4055647 0.274671,0.6671107 0,0.2746709 -0.107893,0.5134589 -0.32368,0.7164809 z m 6.94638,6.857152 -1.442356,1.432481 c -0.183154,0.17003 -0.405444,0.255044 -0.667231,0.255044 -0.268289,0 -0.490338,-0.08814 -0.66699,-0.264797 l -2.020961,-2.030834 c -0.183153,-0.183155 -0.27455,-0.405444 -0.27455,-0.666991 0,-0.27467 0.107771,-0.513458 0.323681,-0.71624 0.01974,0.01962 0.0802,0.08188 0.181589,0.186405 0.101385,0.104639 0.171714,0.174966 0.21097,0.210971 0.03926,0.036 0.101386,0.08502 0.186286,0.14727 0.08514,0.06225 0.168343,0.104761 0.250227,0.127642 0.08188,0.02288 0.171715,0.0342 0.269734,0.0342 0.261787,0 0.484076,-0.09151 0.667231,-0.27455 0.183034,-0.183155 0.274671,-0.405446 0.274671,-0.667111 0,-0.09802 -0.01156,-0.187972 -0.03431,-0.269735 -0.023,-0.08176 -0.06538,-0.165212 -0.127763,-0.250227 -0.06225,-0.0849 -0.111025,-0.147149 -0.147149,-0.186405 -0.036,-0.03913 -0.106327,-0.109459 -0.210971,-0.210971 -0.104639,-0.101385 -0.166778,-0.16184 -0.186526,-0.181468 0.1964,-0.209285 0.431816,-0.313928 0.706367,-0.313928 0.261666,0 0.484076,0.09151 0.66699,0.274672 l 2.040708,2.040587 c 0.183154,0.183155 0.274672,0.405566 0.274672,0.667232 1.2e-4,0.254802 -0.09139,0.474082 -0.27431,0.656754 z"
   inkscape:connector-curvature="0"
   style="fill:#ffffff" /></svg>