<?xml version="1.0" encoding="UTF-8" standalone="no"?>
<!-- Generator: Adobe Illustrator 14.0.0, SVG Export Plug-In . SVG Version: 6.00 Build 43363)  -->

<svg
   xmlns:dc="http://purl.org/dc/elements/1.1/"
   xmlns:cc="http://creativecommons.org/ns#"
   xmlns:rdf="http://www.w3.org/1999/02/22-rdf-syntax-ns#"
   xmlns:svg="http://www.w3.org/2000/svg"
   xmlns="http://www.w3.org/2000/svg"
   xmlns:sodipodi="http://sodipodi.sourceforge.net/DTD/sodipodi-0.dtd"
   xmlns:inkscape="http://www.inkscape.org/namespaces/inkscape"
   version="1.1"
   id="svg2"
   inkscape:version="0.48.4 r9939"
   sodipodi:docname="ordered-list.svg"
   sodipodi:version="0.32"
   inkscape:output_extension="org.inkscape.output.svg.inkscape"
   x="0px"
   y="0px"
   width="26px"
   height="26px"
   viewBox="0 0 26 26"
   enable-background="new 0 0 26 26"
   xml:space="preserve"><metadata
   id="metadata10"><rdf:RDF><cc:Work
       rdf:about=""><dc:format>image/svg+xml</dc:format><dc:type
         rdf:resource="http://purl.org/dc/dcmitype/StillImage" /><dc:title></dc:title></cc:Work></rdf:RDF></metadata>
<defs
   id="defs3">
	
	
		<inkscape:perspective
   inkscape:vp_z="744.09448 : 526.18109 : 1"
   inkscape:persp3d-origin="372.04724 : 350.78739 : 1"
   inkscape:vp_y="0 : 1000 : 0"
   sodipodi:type="inkscape:persp3d"
   inkscape:vp_x="0 : 526.18109 : 1"
   id="perspective17">
		</inkscape:perspective>
</defs>
<sodipodi:namedview
   inkscape:pageshadow="2"
   guidetolerance="10.0"
   inkscape:window-height="848"
   inkscape:pageopacity="0.0"
   objecttolerance="10.0"
   inkscape:window-y="22"
   gridtolerance="10.0"
   inkscape:cy="9.7353223"
   inkscape:cx="15.010757"
   inkscape:current-layer="g3992"
   showgrid="true"
   borderopacity="1.0"
   bordercolor="#666666"
   inkscape:zoom="19.867431"
   inkscape:window-width="1440"
   pagecolor="#ffffff"
   inkscape:window-x="-8"
   id="base"
   showguides="true"
   inkscape:guide-bbox="true"
   inkscape:window-maximized="1"
   inkscape:snap-grids="true"
   inkscape:snap-to-guides="true">
	<inkscape:grid
   type="xygrid"
   id="grid3779" /><sodipodi:guide
   orientation="1,0"
   position="13,13"
   id="guide3781" /><sodipodi:guide
   orientation="0,1"
   position="13,13"
   id="guide3783" /><sodipodi:guide
   orientation="0,1"
   position="13,21"
   id="guide4204" /><sodipodi:guide
   orientation="0,1"
   position="13,5"
   id="guide4206" /><sodipodi:guide
   orientation="1,0"
   position="5,13"
   id="guide4208" /><sodipodi:guide
   orientation="1,0"
   position="21,13"
   id="guide4210" /></sodipodi:namedview>
<circle
   id="circle4"
   sodipodi:cx="0"
   sodipodi:ry="12"
   sodipodi:cy="0"
   sodipodi:rx="12"
   fill="#808080"
   stroke="#C0C0C0"
   stroke-width="2"
   cx="13"
   cy="13"
   r="12"
   style="stroke-width:2;stroke-miterlimit:4;stroke-dasharray:none;opacity:1">
</circle>

<g
   id="g3992"
   transform="matrix(0.11193738,0,0,0.11193738,0.89683993,4.8461331)">
	
	
<g
   id="g5841"
   transform="matrix(0.88548195,0,0,0.88548195,14.062966,8.6998178)"
   style="fill:#ffffff">
	<path
   id="path5843"
   d="M 56.877,0.367 H 48.24 l -11.08,10.347 5.784,6.192 c 2.281,-2.009 3.639,-3.477 4.074,-4.399 h 0.163 v 0.978 c 0,2.172 -0.014,5.458 -0.041,9.858 -0.027,4.399 -0.041,7.712 -0.041,9.939 h -8.718 v 8.066 H 65.675 V 33.282 H 56.877 V 0.367 z"
   inkscape:connector-curvature="0"
   style="fill:#ffffff" />
	<path
   id="path5845"
   d="m 179.615,21.265 c -0.518,-0.516 -1.127,-0.774 -1.834,-0.774 H 78.71 c -0.706,0 -1.316,0.258 -1.833,0.774 -0.515,0.516 -0.773,1.127 -0.773,1.833 v 15.643 c 0,0.706 0.257,1.317 0.773,1.833 0.517,0.516 1.127,0.774 1.833,0.774 h 99.072 c 0.707,0 1.317,-0.258 1.834,-0.774 0.515,-0.516 0.772,-1.127 0.772,-1.833 V 23.098 c 0.001,-0.706 -0.257,-1.317 -0.773,-1.833 z"
   inkscape:connector-curvature="0"
   style="fill:#ffffff" />
	<path
   id="path5847"
   d="m 56.388,120.458 7.74,-9.369 v -7.17 H 36.997 v 12.384 h 8.636 v -4.318 c 0.869,0 2.186,-0.025 3.952,-0.08 1.764,-0.055 3.082,-0.082 3.951,-0.082 v 0.082 c -1.033,0.978 -2.037,2.023 -3.015,3.137 -0.978,1.114 -2.132,2.58 -3.463,4.398 -1.33,1.82 -2.212,3.002 -2.647,3.545 l 2.118,4.562 c 5.703,-0.436 8.555,1.085 8.555,4.562 0,1.521 -0.584,2.675 -1.752,3.461 -1.167,0.789 -2.539,1.183 -4.114,1.183 -3.096,0 -5.975,-1.222 -8.636,-3.667 l -4.645,7.17 c 3.585,3.585 8.256,5.377 14.014,5.377 4.399,0 8.079,-1.248 11.04,-3.747 2.96,-2.499 4.44,-5.921 4.44,-10.266 0,-2.771 -0.816,-5.16 -2.443,-7.171 -1.63,-2.008 -3.829,-3.34 -6.6,-3.991 z"
   inkscape:connector-curvature="0"
   style="fill:#ffffff" />
	<path
   id="path5849"
   d="M 57.038,85.425 H 46.691 c 0.055,-1.358 1.019,-2.784 2.893,-4.276 1.874,-1.494 3.923,-2.865 6.151,-4.115 2.226,-1.25 4.263,-3 6.11,-5.254 1.847,-2.254 2.77,-4.739 2.77,-7.455 0,-3.856 -1.357,-6.912 -4.073,-9.166 -2.715,-2.254 -6.056,-3.381 -10.021,-3.381 -3.151,0 -6.016,0.774 -8.596,2.322 -2.58,1.548 -4.521,3.707 -5.825,6.478 l 6.926,4.807 c 1.901,-3.151 4.101,-4.726 6.599,-4.726 1.359,0 2.431,0.367 3.219,1.1 0.787,0.734 1.182,1.779 1.182,3.137 0,1.249 -0.639,2.471 -1.915,3.666 -1.277,1.195 -2.811,2.376 -4.604,3.544 -1.792,1.168 -3.585,2.458 -5.377,3.87 -1.792,1.413 -3.328,3.259 -4.604,5.54 -1.276,2.281 -1.914,4.807 -1.914,7.577 0,0.978 0.163,2.444 0.488,4.399 H 65.593 V 80.536 80.535 h -8.555 v 4.89 z"
   inkscape:connector-curvature="0"
   style="fill:#ffffff" />
	<path
   id="path5851"
   d="M 177.781,103.919 H 78.71 c -0.76,0 -1.385,0.245 -1.873,0.733 -0.489,0.488 -0.733,1.113 -0.733,1.873 v 15.644 c 0,0.706 0.257,1.317 0.773,1.833 0.517,0.516 1.127,0.773 1.833,0.773 h 99.072 c 0.707,0 1.317,-0.256 1.834,-0.773 0.515,-0.516 0.772,-1.127 0.772,-1.833 v -15.644 c 0,-0.705 -0.258,-1.316 -0.773,-1.832 -0.517,-0.515 -1.127,-0.774 -1.834,-0.774 z"
   inkscape:connector-curvature="0"
   style="fill:#ffffff" />
	<path
   id="path5853"
   d="M 177.781,62.205 H 78.71 c -0.76,0 -1.385,0.244 -1.873,0.733 -0.489,0.489 -0.733,1.114 -0.733,1.874 v 15.643 c 0,0.706 0.257,1.316 0.773,1.833 0.517,0.516 1.127,0.774 1.833,0.774 h 99.072 c 0.707,0 1.317,-0.258 1.834,-0.774 0.515,-0.517 0.772,-1.127 0.772,-1.833 V 64.812 c 0,-0.706 -0.258,-1.317 -0.773,-1.833 -0.517,-0.516 -1.127,-0.774 -1.834,-0.774 z"
   inkscape:connector-curvature="0"
   style="fill:#ffffff" />
</g></g></svg>