<?xml version="1.0" encoding="UTF-8" standalone="no"?>
<!-- Generator: Adobe Illustrator 14.0.0, SVG Export Plug-In . SVG Version: 6.00 Build 43363)  -->

<svg
   xmlns:dc="http://purl.org/dc/elements/1.1/"
   xmlns:cc="http://creativecommons.org/ns#"
   xmlns:rdf="http://www.w3.org/1999/02/22-rdf-syntax-ns#"
   xmlns:svg="http://www.w3.org/2000/svg"
   xmlns="http://www.w3.org/2000/svg"
   xmlns:xlink="http://www.w3.org/1999/xlink"
   xmlns:sodipodi="http://sodipodi.sourceforge.net/DTD/sodipodi-0.dtd"
   xmlns:inkscape="http://www.inkscape.org/namespaces/inkscape"
   version="1.1"
   id="svg2"
   inkscape:version="0.48.4 r9939"
   sodipodi:docname="table.svg"
   sodipodi:version="0.32"
   inkscape:output_extension="org.inkscape.output.svg.inkscape"
   x="0px"
   y="0px"
   width="26px"
   height="26px"
   viewBox="0 0 26 26"
   enable-background="new 0 0 26 26"
   xml:space="preserve"><metadata
   id="metadata10"><rdf:RDF><cc:Work
       rdf:about=""><dc:format>image/svg+xml</dc:format><dc:type
         rdf:resource="http://purl.org/dc/dcmitype/StillImage" /><dc:title /></cc:Work></rdf:RDF></metadata>
<defs
   id="defs3"><linearGradient
   id="linearGradient4436"><stop
     style="stop-color:#242424;stop-opacity:1;"
     offset="0"
     id="stop4438" /><stop
     style="stop-color:#434343;stop-opacity:1;"
     offset="1"
     id="stop4440" /></linearGradient>
	
	
		<inkscape:perspective
   inkscape:vp_z="744.09448 : 526.18109 : 1"
   inkscape:persp3d-origin="372.04724 : 350.78739 : 1"
   inkscape:vp_y="0 : 1000 : 0"
   sodipodi:type="inkscape:persp3d"
   inkscape:vp_x="0 : 526.18109 : 1"
   id="perspective17">
		</inkscape:perspective>
<linearGradient
   inkscape:collect="always"
   xlink:href="#linearGradient4436"
   id="linearGradient4462"
   x1="17"
   y1="21"
   x2="17"
   y2="24"
   gradientUnits="userSpaceOnUse"
   gradientTransform="matrix(8.9335662,0,0,8.9335662,9.8652691,-34.250201)" /></defs>
<sodipodi:namedview
   inkscape:pageshadow="2"
   guidetolerance="10.0"
   inkscape:window-height="848"
   inkscape:pageopacity="0.0"
   objecttolerance="10.0"
   inkscape:window-y="22"
   gridtolerance="10.0"
   inkscape:cy="13.098222"
   inkscape:cx="10.324209"
   inkscape:current-layer="g3992"
   showgrid="true"
   borderopacity="1.0"
   bordercolor="#666666"
   inkscape:zoom="14.048396"
   inkscape:window-width="1440"
   pagecolor="#ffffff"
   inkscape:window-x="-8"
   id="base"
   showguides="true"
   inkscape:guide-bbox="true"
   inkscape:window-maximized="1"
   inkscape:snap-grids="true"
   inkscape:snap-to-guides="true"
   inkscape:snap-from-guide="true"
   inkscape:snap-global="true">
	<inkscape:grid
   type="xygrid"
   id="grid3779"
   empspacing="5"
   visible="true"
   enabled="true"
   snapvisiblegridlinesonly="true" /><sodipodi:guide
   orientation="1,0"
   position="13,13"
   id="guide3781" /><sodipodi:guide
   orientation="0,1"
   position="13,13"
   id="guide3783" /><sodipodi:guide
   orientation="0,1"
   position="13,21"
   id="guide4204" /><sodipodi:guide
   orientation="0,1"
   position="13,5"
   id="guide4206" /><sodipodi:guide
   orientation="1,0"
   position="5,13"
   id="guide4208" /><sodipodi:guide
   orientation="1,0"
   position="21,13"
   id="guide4210" /></sodipodi:namedview>
<circle
   id="circle4"
   sodipodi:cx="0"
   sodipodi:ry="12"
   sodipodi:cy="0"
   sodipodi:rx="12"
   fill="#808080"
   stroke="#C0C0C0"
   stroke-width="2"
   cx="13"
   cy="13"
   r="12"
   style="stroke-width:2;stroke-miterlimit:4;stroke-dasharray:none;opacity:1">
</circle>

<g
   id="g3992"
   transform="matrix(0.11193738,0,0,0.11193738,0.89683993,4.8461331)">
	
	
<path
   id="path6239"
   d="m 175.44558,16.964342 c -2.6842,-2.684201 -5.90987,-4.025775 -9.68016,-4.025775 H 50.638115 c -3.769236,0 -6.995955,1.341574 -9.680156,4.025775 -2.684201,2.685252 -4.025776,5.910919 -4.025776,9.680156 v 93.199482 c 0,3.76925 1.341575,6.99281 4.025776,9.67911 2.684201,2.68525 5.91092,4.02472 9.680156,4.02472 H 165.76542 c 3.77029,0 6.99596,-1.33947 9.68016,-4.02472 2.68421,-2.6863 4.02473,-5.91092 4.02473,-9.67911 V 26.644498 c 0,-3.769237 -1.34052,-6.995954 -4.02473,-9.680156 z M 80.790953,119.84082 c 0,0.80117 -0.25759,1.45725 -0.77172,1.97137 -0.51413,0.51309 -1.170199,0.76857 -1.970307,0.76857 H 50.638115 c -0.799058,0 -1.456177,-0.25548 -1.970307,-0.76857 -0.514129,-0.51412 -0.770669,-1.1702 -0.770669,-1.97137 v -16.44795 c 0,-0.80011 0.25654,-1.45618 0.770669,-1.96821 0.51413,-0.51518 1.171249,-0.77172 1.970307,-0.77172 h 27.411862 c 0.800109,0 1.457229,0.25654 1.970308,0.77172 0.513078,0.51203 0.770668,1.1681 0.770668,1.96821 v 16.44795 z m 0,-32.891697 c 0,0.799058 -0.25759,1.456177 -0.77172,1.969255 -0.51413,0.514131 -1.170199,0.77067 -1.970307,0.77067 H 50.638115 c -0.799058,0 -1.456177,-0.256539 -1.970307,-0.77067 C 48.153679,88.4053 47.897139,87.748181 47.897139,86.949123 V 70.501164 c 0,-0.799056 0.25654,-1.456175 0.770669,-1.970306 0.51413,-0.513078 1.171249,-0.769617 1.970307,-0.769617 h 27.411862 c 0.800109,0 1.456176,0.256539 1.970308,0.769617 0.513078,0.514131 0.770668,1.17125 0.770668,1.970306 v 16.447959 z m 0,-32.893814 c 0,0.800108 -0.25759,1.456176 -0.77172,1.970306 -0.51413,0.513079 -1.170199,0.77067 -1.970307,0.77067 H 50.638115 c -0.799058,0 -1.456177,-0.257591 -1.970307,-0.77067 -0.514129,-0.51413 -0.770669,-1.170198 -0.770669,-1.970306 V 37.608401 c 0,-0.800108 0.25654,-1.457227 0.770669,-1.970306 0.51413,-0.51413 1.171249,-0.770669 1.970307,-0.770669 h 27.411862 c 0.800109,0 1.456176,0.256539 1.970308,0.770669 0.513078,0.513079 0.770668,1.170198 0.770668,1.970306 v 16.446908 z m 43.857737,65.785511 c 0,0.80117 -0.25654,1.45725 -0.76859,1.97137 -0.51307,0.51309 -1.17019,0.76857 -1.97134,0.76857 H 94.495834 c -0.799057,0 -1.456177,-0.25548 -1.970307,-0.76857 -0.51413,-0.51412 -0.77067,-1.1702 -0.77067,-1.97137 v -16.44795 c 0,-0.80011 0.25654,-1.45618 0.77067,-1.96821 0.51413,-0.51518 1.17125,-0.77172 1.970307,-0.77172 h 27.411856 c 0.80117,0 1.45829,0.25654 1.97137,0.77172 0.51202,0.51203 0.76857,1.1681 0.76857,1.96821 v 16.44795 z m 0,-32.891697 c 0,0.799058 -0.25654,1.456177 -0.76859,1.969255 -0.51307,0.514131 -1.17019,0.77067 -1.97134,0.77067 H 94.495834 c -0.799057,0 -1.456177,-0.256539 -1.970307,-0.77067 -0.51413,-0.513078 -0.77067,-1.170197 -0.77067,-1.969255 V 70.501164 c 0,-0.799056 0.25654,-1.456175 0.77067,-1.970306 0.51413,-0.513078 1.17125,-0.769617 1.970307,-0.769617 h 27.411856 c 0.80117,0 1.45829,0.256539 1.97137,0.769617 0.51202,0.514131 0.76857,1.17125 0.76857,1.970306 v 16.447959 z m 0,-32.893814 c 0,0.800108 -0.25654,1.456176 -0.76859,1.970306 -0.51307,0.513079 -1.17019,0.77067 -1.97134,0.77067 H 94.495834 c -0.799057,0 -1.456177,-0.257591 -1.970307,-0.77067 -0.51413,-0.51413 -0.77067,-1.170198 -0.77067,-1.970306 V 37.608401 c 0,-0.800108 0.25654,-1.457227 0.77067,-1.970306 0.51413,-0.51413 1.17125,-0.770669 1.970307,-0.770669 h 27.411856 c 0.80117,0 1.45829,0.256539 1.97137,0.770669 0.51202,0.513079 0.76857,1.170198 0.76857,1.970306 v 16.446908 z m 43.8577,65.785511 c 0,0.80117 -0.25654,1.45725 -0.76961,1.97137 -0.51518,0.51309 -1.17231,0.76857 -1.97136,0.76857 h -27.40976 c -0.80116,0 -1.45828,-0.25548 -1.97136,-0.76857 -0.51309,-0.51412 -0.76752,-1.1702 -0.76752,-1.97137 v -16.44795 c 0,-0.80011 0.25443,-1.45618 0.76752,-1.96821 0.51308,-0.51518 1.1702,-0.77172 1.97136,-0.77172 h 27.40976 c 0.79905,0 1.45618,0.25654 1.97136,0.77172 0.51307,0.51203 0.76961,1.1681 0.76961,1.96821 v 16.44795 z m 0,-32.891697 c 0,0.799058 -0.25654,1.456177 -0.76961,1.969255 -0.51518,0.514131 -1.17231,0.77067 -1.97136,0.77067 h -27.40976 c -0.80116,0 -1.45828,-0.256539 -1.97136,-0.77067 -0.51309,-0.513078 -0.76752,-1.170197 -0.76752,-1.969255 V 70.501164 c 0,-0.799056 0.25443,-1.456175 0.76752,-1.970306 0.51308,-0.513078 1.1702,-0.769617 1.97136,-0.769617 h 27.40976 c 0.79905,0 1.45618,0.256539 1.97136,0.769617 0.51307,0.514131 0.76961,1.17125 0.76961,1.970306 v 16.447959 z m 0,-32.893814 c 0,0.800108 -0.25654,1.456176 -0.76961,1.970306 -0.51518,0.513079 -1.17231,0.77067 -1.97136,0.77067 h -27.40976 c -0.80116,0 -1.45828,-0.257591 -1.97136,-0.77067 -0.51309,-0.51413 -0.76752,-1.170198 -0.76752,-1.970306 V 37.608401 c 0,-0.800108 0.25443,-1.457227 0.76752,-1.970306 0.51308,-0.51413 1.1702,-0.770669 1.97136,-0.770669 h 27.40976 c 0.79905,0 1.45618,0.256539 1.97136,0.770669 0.51307,0.513079 0.76961,1.170198 0.76961,1.970306 v 16.446908 z"
   inkscape:connector-curvature="0"
   style="fill:#ffffff" /><path
   style="fill:url(#linearGradient4462);fill-opacity:1;fill-rule:nonzero;stroke:none"
   d="m 126.00163,153.35469 71.46853,0 -35.73426,26.8007 z"
   id="path3926"
   inkscape:connector-curvature="0" /></g></svg>