<?xml version="1.0" encoding="UTF-8" standalone="no"?>
<!-- Generator: Adobe Illustrator 14.0.0, SVG Export Plug-In . SVG Version: 6.00 Build 43363)  -->

<svg
   xmlns:dc="http://purl.org/dc/elements/1.1/"
   xmlns:cc="http://creativecommons.org/ns#"
   xmlns:rdf="http://www.w3.org/1999/02/22-rdf-syntax-ns#"
   xmlns:svg="http://www.w3.org/2000/svg"
   xmlns="http://www.w3.org/2000/svg"
   xmlns:sodipodi="http://sodipodi.sourceforge.net/DTD/sodipodi-0.dtd"
   xmlns:inkscape="http://www.inkscape.org/namespaces/inkscape"
   version="1.1"
   id="svg2"
   inkscape:version="0.48.4 r9939"
   sodipodi:docname="underline.svg"
   sodipodi:version="0.32"
   inkscape:output_extension="org.inkscape.output.svg.inkscape"
   x="0px"
   y="0px"
   width="26px"
   height="26px"
   viewBox="0 0 26 26"
   enable-background="new 0 0 26 26"
   xml:space="preserve"><metadata
   id="metadata10"><rdf:RDF><cc:Work
       rdf:about=""><dc:format>image/svg+xml</dc:format><dc:type
         rdf:resource="http://purl.org/dc/dcmitype/StillImage" /><dc:title /></cc:Work></rdf:RDF></metadata>
<defs
   id="defs3">
	
	
		<inkscape:perspective
   inkscape:vp_z="744.09448 : 526.18109 : 1"
   inkscape:persp3d-origin="372.04724 : 350.78739 : 1"
   inkscape:vp_y="0 : 1000 : 0"
   sodipodi:type="inkscape:persp3d"
   inkscape:vp_x="0 : 526.18109 : 1"
   id="perspective17">
		</inkscape:perspective>
</defs>
<sodipodi:namedview
   inkscape:pageshadow="2"
   guidetolerance="10.0"
   inkscape:window-height="848"
   inkscape:pageopacity="0.0"
   objecttolerance="10.0"
   inkscape:window-y="22"
   gridtolerance="10.0"
   inkscape:cy="15.891393"
   inkscape:cx="19.284212"
   inkscape:current-layer="g3992"
   showgrid="true"
   borderopacity="1.0"
   bordercolor="#666666"
   inkscape:zoom="19.867431"
   inkscape:window-width="1440"
   pagecolor="#ffffff"
   inkscape:window-x="-8"
   id="base"
   showguides="true"
   inkscape:guide-bbox="true"
   inkscape:window-maximized="1">
	<inkscape:grid
   type="xygrid"
   id="grid3779" /><sodipodi:guide
   orientation="1,0"
   position="13,13"
   id="guide3781" /><sodipodi:guide
   orientation="0,1"
   position="13,13"
   id="guide3783" /><sodipodi:guide
   orientation="1,0"
   position="5,13"
   id="guide2990" /><sodipodi:guide
   orientation="1,0"
   position="21,13"
   id="guide2992" /><sodipodi:guide
   orientation="0,1"
   position="13,21"
   id="guide2994" /><sodipodi:guide
   orientation="0,1"
   position="13,5"
   id="guide2996" /></sodipodi:namedview>
<circle
   id="circle4"
   sodipodi:cx="0"
   sodipodi:ry="12"
   sodipodi:cy="0"
   sodipodi:rx="12"
   fill="#808080"
   stroke="#C0C0C0"
   stroke-width="2"
   cx="13"
   cy="13"
   r="12"
   style="stroke-width:2;stroke-miterlimit:4;stroke-dasharray:none;opacity:1">
</circle>

<g
   id="g3992"
   transform="matrix(0.11193738,0,0,0.11193738,0.89683993,4.8461331)">
	
	<g
   id="g4007"
   style="fill:#ffffff;fill-opacity:1"
   transform="matrix(0.99491822,0,0,0.99491822,0.86676795,0.37093932)"><path
     style="fill:#ffffff;fill-opacity:1"
     inkscape:connector-curvature="0"
     d="m 49.339,18.168 c 6.627,0.163 10.619,1.223 11.976,3.174 0.923,1.359 1.385,7.143 1.385,17.354 v 27.131 c 0,8.528 0.434,14.964 1.303,19.31 1.196,6.463 3.45,11.76 6.763,15.887 3.258,4.074 8.12,7.388 14.583,9.94 6.355,2.498 14.068,3.747 23.138,3.747 7.93,0 14.856,-0.895 20.777,-2.688 5.811,-1.738 10.754,-4.156 14.827,-7.252 4.021,-3.149 7.062,-6.49 9.125,-10.021 1.412,-2.498 2.526,-5.812 3.341,-9.938 1.141,-5.92 1.549,-14.178 1.223,-24.769 -0.76,-20.478 -1.357,-31.232 -1.793,-32.264 0,-0.597 -0.041,-1.439 -0.121,-2.525 -0.082,-1.087 -0.123,-1.819 -0.123,-2.2 0,-1.412 0.408,-2.526 1.223,-3.34 0.327,-0.326 2.471,-0.788 6.436,-1.386 2.119,-0.054 4.401,-0.408 6.845,-1.059 0.218,-1.303 0.325,-2.145 0.325,-2.526 0,-0.706 -0.161,-2.091 -0.487,-4.154 l -1.467,-0.163 c -6.519,0.706 -11.841,0.977 -15.97,0.814 l -16.701,-0.814 h -6.844 l -0.164,7.007 1.142,0.244 8.147,-0.163 c 2.334,-0.054 4.426,0.87 6.272,2.771 1.032,1.141 1.685,3.53 1.956,7.169 l 0.324,4.808 c 0.328,4.671 0.693,9.002 1.102,12.994 0.407,3.992 0.706,7.319 0.896,9.98 0.189,2.662 0.285,6.138 0.285,10.429 0,8.473 -0.57,14.691 -1.711,18.656 -0.922,3.15 -2.363,6.248 -4.317,9.289 -0.925,1.521 -2.69,3.258 -5.298,5.215 -2.334,1.791 -5.022,3.176 -8.064,4.154 -4.727,1.521 -9.914,2.281 -15.561,2.281 -4.836,0 -9.641,-1.275 -14.421,-3.83 C 96.378,99.638 93.771,97.14 91.87,93.936 89.426,89.7 88.041,84.212 87.715,77.477 L 86.574,54.665 86.491,36.01 c 0,-0.325 -0.014,-1.018 -0.041,-2.077 -0.027,-1.059 -0.041,-1.94 -0.041,-2.647 0,-6.409 0.353,-9.993 1.059,-10.754 1.033,-1.358 3.178,-2.037 6.437,-2.037 3.477,0 6.844,-0.244 10.103,-0.733 v -0.733 l -0.163,-5.214 0.081,-1.141 c -1.629,0.108 -3.964,0.163 -7.006,0.163 -1.629,0.054 -5.595,0.19 -11.895,0.407 -4.455,0.163 -9.017,0.244 -13.688,0.244 -1.847,0 -6.355,-0.189 -13.525,-0.57 -2.824,-0.217 -5.866,-0.325 -9.125,-0.325 -1.467,0 -2.553,0.026 -3.259,0.081 l 0.245,7.17 c 0.434,0.107 1.656,0.216 3.666,0.324 z"
     id="path3994" /><path
     style="fill:#ffffff;fill-opacity:1"
     inkscape:connector-curvature="0"
     d="M 167.964,125.143 H 48.036 c -0.76,0 -1.385,0.244 -1.874,0.733 -0.489,0.489 -0.733,1.113 -0.733,1.874 v 5.214 c 0,0.761 0.245,1.386 0.733,1.874 0.489,0.489 1.113,0.733 1.874,0.733 h 119.928 c 0.761,0 1.386,-0.244 1.875,-0.733 0.488,-0.488 0.731,-1.113 0.731,-1.874 v -5.214 c 0,-0.761 -0.243,-1.385 -0.731,-1.874 -0.489,-0.489 -1.114,-0.733 -1.875,-0.733 z"
     id="path3996" /></g>
</g></svg>