<?xml version="1.0" encoding="UTF-8" standalone="no"?>
<!-- Generator: Adobe Illustrator 14.0.0, SVG Export Plug-In . SVG Version: 6.00 Build 43363)  -->

<svg
   xmlns:dc="http://purl.org/dc/elements/1.1/"
   xmlns:cc="http://creativecommons.org/ns#"
   xmlns:rdf="http://www.w3.org/1999/02/22-rdf-syntax-ns#"
   xmlns:svg="http://www.w3.org/2000/svg"
   xmlns="http://www.w3.org/2000/svg"
   xmlns:sodipodi="http://sodipodi.sourceforge.net/DTD/sodipodi-0.dtd"
   xmlns:inkscape="http://www.inkscape.org/namespaces/inkscape"
   version="1.1"
   id="svg2"
   inkscape:version="0.48.4 r9939"
   sodipodi:docname="unordered-list.svg"
   sodipodi:version="0.32"
   inkscape:output_extension="org.inkscape.output.svg.inkscape"
   x="0px"
   y="0px"
   width="26px"
   height="26px"
   viewBox="0 0 26 26"
   enable-background="new 0 0 26 26"
   xml:space="preserve"><metadata
   id="metadata10"><rdf:RDF><cc:Work
       rdf:about=""><dc:format>image/svg+xml</dc:format><dc:type
         rdf:resource="http://purl.org/dc/dcmitype/StillImage" /><dc:title></dc:title></cc:Work></rdf:RDF></metadata>
<defs
   id="defs3">
	
	
		<inkscape:perspective
   inkscape:vp_z="744.09448 : 526.18109 : 1"
   inkscape:persp3d-origin="372.04724 : 350.78739 : 1"
   inkscape:vp_y="0 : 1000 : 0"
   sodipodi:type="inkscape:persp3d"
   inkscape:vp_x="0 : 526.18109 : 1"
   id="perspective17">
		</inkscape:perspective>
</defs>
<sodipodi:namedview
   inkscape:pageshadow="2"
   guidetolerance="10.0"
   inkscape:window-height="848"
   inkscape:pageopacity="0.0"
   objecttolerance="10.0"
   inkscape:window-y="22"
   gridtolerance="10.0"
   inkscape:cy="15.572165"
   inkscape:cx="17.408126"
   inkscape:current-layer="g3992"
   showgrid="true"
   borderopacity="1.0"
   bordercolor="#666666"
   inkscape:zoom="19.867431"
   inkscape:window-width="1440"
   pagecolor="#ffffff"
   inkscape:window-x="-8"
   id="base"
   showguides="true"
   inkscape:guide-bbox="true"
   inkscape:window-maximized="1"
   inkscape:snap-grids="true"
   inkscape:snap-to-guides="true">
	<inkscape:grid
   type="xygrid"
   id="grid3779" /><sodipodi:guide
   orientation="1,0"
   position="13,13"
   id="guide3781" /><sodipodi:guide
   orientation="0,1"
   position="13,13"
   id="guide3783" /><sodipodi:guide
   orientation="0,1"
   position="13,21"
   id="guide4204" /><sodipodi:guide
   orientation="0,1"
   position="13,5"
   id="guide4206" /><sodipodi:guide
   orientation="1,0"
   position="5,13"
   id="guide4208" /><sodipodi:guide
   orientation="1,0"
   position="21,13"
   id="guide4210" /></sodipodi:namedview>
<circle
   id="circle4"
   sodipodi:cx="0"
   sodipodi:ry="12"
   sodipodi:cy="0"
   sodipodi:rx="12"
   fill="#808080"
   stroke="#C0C0C0"
   stroke-width="2"
   cx="13"
   cy="13"
   r="12"
   style="stroke-width:2;stroke-miterlimit:4;stroke-dasharray:none;opacity:1">
</circle>

<g
   id="g3992"
   transform="matrix(0.11193738,0,0,0.11193738,0.89683993,4.8461331)">
	
	
<g
   id="g5911"
   transform="matrix(0.8841783,0,0,0.8841783,13.709334,8.6966299)"
   style="fill:#ffffff">
	<path
   id="path5913"
   d="m 50.643,57.358 c -4.346,0 -8.039,1.52 -11.081,4.562 C 36.521,64.961 35,68.654 35,73 c 0,4.345 1.521,8.039 4.563,11.08 3.042,3.041 6.736,4.562 11.081,4.562 4.345,0 8.038,-1.521 11.08,-4.562 3.041,-3.041 4.562,-6.735 4.562,-11.08 0,-4.346 -1.521,-8.039 -4.563,-11.08 -3.041,-3.041 -6.734,-4.562 -11.08,-4.562 z"
   inkscape:connector-curvature="0"
   style="fill:#ffffff" />
	<path
   id="path5915"
   d="m 50.644,15.643 c -4.346,0 -8.039,1.521 -11.081,4.562 -3.041,3.042 -4.562,6.735 -4.562,11.08 0,4.346 1.52,8.039 4.562,11.081 3.042,3.041 6.736,4.562 11.081,4.562 4.345,0 8.038,-1.521 11.08,-4.562 3.041,-3.042 4.562,-6.735 4.562,-11.081 0,-4.345 -1.521,-8.038 -4.562,-11.08 -3.041,-3.041 -6.734,-4.562 -11.08,-4.562 z"
   inkscape:connector-curvature="0"
   style="fill:#ffffff" />
	<path
   id="path5917"
   d="m 50.644,99.072 c -4.346,0 -8.04,1.52 -11.081,4.562 -3.041,3.042 -4.562,6.735 -4.562,11.08 0,4.347 1.52,8.039 4.562,11.081 3.042,3.041 6.736,4.562 11.081,4.562 4.345,0 8.038,-1.521 11.08,-4.562 3.041,-3.042 4.562,-6.734 4.562,-11.081 0,-4.345 -1.521,-8.039 -4.562,-11.08 -3.041,-3.041 -6.734,-4.562 -11.08,-4.562 z"
   inkscape:connector-curvature="0"
   style="fill:#ffffff" />
	<path
   id="path5919"
   d="m 180.227,21.631 c -0.518,-0.515 -1.127,-0.773 -1.834,-0.773 H 79.321 c -0.706,0 -1.317,0.257 -1.833,0.773 -0.516,0.517 -0.774,1.127 -0.774,1.833 v 15.644 c 0,0.706 0.258,1.316 0.774,1.833 0.516,0.515 1.127,0.773 1.833,0.773 h 99.072 c 0.707,0 1.317,-0.257 1.834,-0.773 C 180.743,40.424 181,39.814 181,39.108 V 23.464 c 0,-0.706 -0.258,-1.317 -0.773,-1.833 z"
   inkscape:connector-curvature="0"
   style="fill:#ffffff" />
	<path
   id="path5921"
   d="M 178.393,62.572 H 79.321 c -0.706,0 -1.317,0.257 -1.833,0.774 -0.516,0.516 -0.774,1.127 -0.774,1.833 v 15.644 c 0,0.705 0.258,1.316 0.774,1.832 0.516,0.517 1.127,0.774 1.833,0.774 h 99.072 c 0.707,0 1.317,-0.257 1.834,-0.774 C 180.743,82.139 181,81.528 181,80.823 V 65.179 c 0,-0.706 -0.258,-1.318 -0.773,-1.833 -0.518,-0.516 -1.127,-0.774 -1.834,-0.774 z"
   inkscape:connector-curvature="0"
   style="fill:#ffffff" />
	<path
   id="path5923"
   d="M 178.393,104.286 H 79.321 c -0.706,0 -1.317,0.258 -1.833,0.774 -0.516,0.516 -0.774,1.127 -0.774,1.832 v 15.644 c 0,0.707 0.258,1.317 0.774,1.834 0.516,0.515 1.127,0.772 1.833,0.772 h 99.072 c 0.707,0 1.317,-0.257 1.834,-0.772 0.516,-0.517 0.773,-1.127 0.773,-1.834 v -15.644 c 0,-0.705 -0.258,-1.317 -0.773,-1.832 -0.518,-0.515 -1.127,-0.774 -1.834,-0.774 z"
   inkscape:connector-curvature="0"
   style="fill:#ffffff" />
</g></g></svg>