<?xml version="1.0" encoding="utf-8"?>
<!-- Generator: Adobe Illustrator 16.0.0, SVG Export Plug-In . SVG Version: 6.00 Build 0)  -->
<!DOCTYPE svg PUBLIC "-//W3C//DTD SVG 1.1//EN" "http://www.w3.org/Graphics/SVG/1.1/DTD/svg11.dtd">
<svg version="1.1" xmlns="http://www.w3.org/2000/svg" xmlns:xlink="http://www.w3.org/1999/xlink" x="0px" y="0px" width="24px"
	 height="24px" viewBox="0 0 24 24" enable-background="new 0 0 24 24" xml:space="preserve">
<g id="Layer_1">
</g>
<g id="Layer_2">
	<g>
		<path fill="#9FC23B" d="M9.808,5.383L5.454,9.122H2.271c-0.563,0-1.023,0.459-1.023,1.022v4.902c0,0.562,0.46,1.022,1.023,1.022
			h2.858l4.68,4.02c0.298,0.257,0.543,0.145,0.543-0.248V5.632C10.352,5.238,10.106,5.126,9.808,5.383z"/>
		
			<linearGradient id="SVGID_1_" gradientUnits="userSpaceOnUse" x1="5.6592" y1="-66.8374" x2="5.6592" y2="-51.856" gradientTransform="matrix(1 0 0 -1 0.1401 -46.6113)">
			<stop  offset="0" style="stop-color:#C8C8CB"/>
			<stop  offset="0.0241" style="stop-color:#CBCBCF"/>
			<stop  offset="0.1455" style="stop-color:#D6D6DB"/>
			<stop  offset="0.2577" style="stop-color:#D9D9DE"/>
			<stop  offset="1" style="stop-color:#E6E5E9"/>
		</linearGradient>
		<path fill="url(#SVGID_1_)" d="M9.808,5.383L5.454,9.122H2.271c-0.563,0-1.023,0.459-1.023,1.022v4.902
			c0,0.562,0.46,1.022,1.023,1.022h2.858l4.68,4.02c0.298,0.257,0.543,0.145,0.543-0.248V5.632
			C10.352,5.238,10.106,5.126,9.808,5.383z"/>
		
			<linearGradient id="SVGID_2_" gradientUnits="userSpaceOnUse" x1="16.5405" y1="-59.1802" x2="22.687" y2="-59.1802" gradientTransform="matrix(1 0 0 -1 0.1401 -46.6113)">
			<stop  offset="0" style="stop-color:#C8C8CB"/>
			<stop  offset="0.0241" style="stop-color:#CBCBCF"/>
			<stop  offset="0.1455" style="stop-color:#D6D6DB"/>
			<stop  offset="0.2577" style="stop-color:#D9D9DE"/>
			<stop  offset="1" style="stop-color:#E6E5E9"/>
		</linearGradient>
		<path fill="url(#SVGID_2_)" d="M18.72,2.449c-0.076-0.076-0.177-0.121-0.285-0.121c-0.124-0.008-0.208,0.04-0.284,0.116
			l-1.139,1.127c-0.157,0.156-0.159,0.408-0.004,0.565c2.202,2.23,3.414,5.185,3.414,8.316c0,3.239-1.286,6.264-3.62,8.516
			c-0.158,0.154-0.164,0.407-0.01,0.567l1.113,1.152c0.074,0.078,0.176,0.122,0.282,0.122c0.003,0,0.005,0,0.007,0
			c0.104,0,0.205-0.04,0.278-0.112c2.81-2.709,4.355-6.349,4.355-10.245C22.828,8.684,21.369,5.13,18.72,2.449z"/>
		
			<linearGradient id="SVGID_3_" gradientUnits="userSpaceOnUse" x1="13.7134" y1="-59.147" x2="18.6138" y2="-59.147" gradientTransform="matrix(1 0 0 -1 0.1401 -46.6113)">
			<stop  offset="0" style="stop-color:#C8C8CB"/>
			<stop  offset="0.0241" style="stop-color:#CBCBCF"/>
			<stop  offset="0.1455" style="stop-color:#D6D6DB"/>
			<stop  offset="0.2577" style="stop-color:#D9D9DE"/>
			<stop  offset="1" style="stop-color:#E6E5E9"/>
		</linearGradient>
		<path fill="url(#SVGID_3_)" d="M15.821,5.311c-0.074-0.076-0.176-0.12-0.283-0.12c-0.09-0.004-0.208,0.04-0.284,0.116l-1.14,1.126
			c-0.158,0.154-0.16,0.409-0.004,0.565c1.444,1.463,2.24,3.401,2.24,5.455c0,2.125-0.844,4.108-2.375,5.584
			c-0.077,0.074-0.121,0.177-0.123,0.282c-0.003,0.106,0.039,0.209,0.112,0.285l1.112,1.152c0.073,0.078,0.174,0.12,0.281,0.124
			c0.002,0,0.004,0,0.007,0c0.105,0,0.204-0.04,0.279-0.112c2.005-1.936,3.109-4.533,3.109-7.315
			C18.755,9.76,17.712,7.225,15.821,5.311z"/>
		<linearGradient id="SVGID_4_" gradientUnits="userSpaceOnUse" x1="1.457" y1="10.8066" x2="10.4771" y2="10.8066">
			<stop  offset="0" style="stop-color:#EBEBEC"/>
			<stop  offset="1" style="stop-color:#FFFFFF"/>
		</linearGradient>
		<path fill="url(#SVGID_4_)" d="M2.231,15.893V10.99c0-0.561,0.477-1.021,1.06-1.021h2.947l4.147-3.432l0.058-0.625
			c0-0.393,0.205-0.64-0.395-0.383L5.532,9.269H2.518c-0.584,0-1.061,0.461-1.061,1.022v4.904c0,0.48,0.355,0.89,0.826,0.994
			C2.252,16.093,2.231,15.997,2.231,15.893z"/>
		<linearGradient id="SVGID_5_" gradientUnits="userSpaceOnUse" x1="13.8989" y1="6.3721" x2="16.4521" y2="6.3721">
			<stop  offset="0" style="stop-color:#EBEBEC"/>
			<stop  offset="1" style="stop-color:#FFFFFF"/>
		</linearGradient>
		<polygon fill="url(#SVGID_5_)" points="14.678,7.68 16.452,6.012 15.55,5.064 13.899,6.607 		"/>
		<linearGradient id="SVGID_6_" gradientUnits="userSpaceOnUse" x1="16.9121" y1="3.4658" x2="19.4644" y2="3.4658">
			<stop  offset="0" style="stop-color:#EBEBEC"/>
			<stop  offset="1" style="stop-color:#FFFFFF"/>
		</linearGradient>
		<polygon fill="url(#SVGID_6_)" points="17.69,4.773 19.464,3.106 18.562,2.158 16.912,3.703 		"/>
		
			<linearGradient id="SVGID_7_" gradientUnits="userSpaceOnUse" x1="0.5869" y1="-60.4321" x2="2.4624" y2="-62.3076" gradientTransform="matrix(1 0 0 -1 0.1401 -46.6113)">
			<stop  offset="0" style="stop-color:#B9B7B8"/>
			<stop  offset="1" style="stop-color:#D9D9DE"/>
		</linearGradient>
		<path fill="url(#SVGID_7_)" d="M1.328,13.889v-0.59h-0.08v1.748c0,0.549,0.44,0.996,0.984,1.019v-1.167
			C1.725,14.839,1.328,14.409,1.328,13.889z"/>
		<path fill="#B7B7B7" d="M9.888,18.931L5.207,14.91H2.35c-0.041,0-0.078-0.008-0.118-0.012v1.167c0.014,0,0.024,0.004,0.039,0.004
			h2.858l4.68,4.02c0.298,0.257,0.543,0.145,0.543-0.248v-0.859C10.255,19.107,10.084,19.1,9.888,18.931z"/>
		<polyline fill="#B7B7B7" points="14.54,17.492 16.224,19.031 15.367,19.881 13.68,18.277 14.54,17.492 		"/>
		<polyline fill="#B7B7B7" points="17.369,20.428 19.052,21.967 18.196,22.817 16.51,21.216 17.369,20.428 		"/>
		<path fill="none" stroke="#848685" stroke-width="0.75" stroke-miterlimit="10" d="M9.808,5.383L5.454,9.122H2.271
			c-0.563,0-1.023,0.459-1.023,1.022v4.902c0,0.562,0.46,1.022,1.023,1.022h2.858l4.68,4.02c0.298,0.257,0.543,0.145,0.543-0.248
			V5.632C10.352,5.238,10.106,5.126,9.808,5.383z"/>
		<path fill="none" stroke="#848685" stroke-width="0.75" stroke-miterlimit="10" d="M18.72,2.449
			c-0.076-0.076-0.177-0.121-0.285-0.121c-0.124-0.008-0.208,0.04-0.284,0.116l-1.139,1.127c-0.157,0.156-0.159,0.408-0.004,0.565
			c2.202,2.23,3.414,5.185,3.414,8.316c0,3.239-1.286,6.264-3.62,8.516c-0.158,0.154-0.164,0.407-0.01,0.567l1.113,1.152
			c0.074,0.078,0.176,0.122,0.282,0.122c0.003,0,0.005,0,0.007,0c0.104,0,0.205-0.04,0.278-0.112
			c2.81-2.709,4.355-6.349,4.355-10.245C22.828,8.684,21.369,5.13,18.72,2.449z"/>
		<path fill="none" stroke="#848685" stroke-width="0.75" stroke-miterlimit="10" d="M15.821,5.311
			c-0.074-0.076-0.176-0.12-0.283-0.12c-0.09-0.004-0.208,0.04-0.284,0.116l-1.14,1.126c-0.158,0.154-0.16,0.409-0.004,0.565
			c1.444,1.463,2.24,3.401,2.24,5.455c0,2.125-0.844,4.108-2.375,5.584c-0.077,0.074-0.121,0.177-0.123,0.282
			c-0.003,0.106,0.039,0.209,0.112,0.285l1.112,1.152c0.073,0.078,0.174,0.12,0.281,0.124c0.002,0,0.004,0,0.007,0
			c0.105,0,0.204-0.04,0.279-0.112c2.005-1.936,3.109-4.533,3.109-7.315C18.755,9.76,17.712,7.225,15.821,5.311z"/>
	</g>
</g>
</svg>
