<?xml version="1.0" encoding="utf-8"?>
<!-- Generator: Adobe Illustrator 16.0.0, SVG Export Plug-In . SVG Version: 6.00 Build 0)  -->
<!DOCTYPE svg PUBLIC "-//W3C//DTD SVG 1.1//EN" "http://www.w3.org/Graphics/SVG/1.1/DTD/svg11.dtd">
<svg version="1.1" xmlns="http://www.w3.org/2000/svg" xmlns:xlink="http://www.w3.org/1999/xlink" x="0px" y="0px" width="24px"
	 height="24px" viewBox="0 0 24 24" enable-background="new 0 0 24 24" xml:space="preserve">
<g id="Layer_1">
</g>
<g id="Layer_2">
	<g>
		<path opacity="0.8" fill="#EDEDED" d="M14.326,3.343c-2.708,2.294-3.856,6.059-4.636,7.986c-1.056,2.616-1.699,3.993-2.983,5.6
			c-1.287,1.517-3.811,1.424-3.811,1.424v4.224c0,0,3.627,0.229,6.335-2.065c2.111-1.791,3.305-4.5,4.085-6.52h5.095V9.77h-3.35
			c0.505-1.057,1.057-1.93,1.79-2.848c1.286-1.515,3.81-1.422,3.81-1.422V1.275C20.662,1.275,17.036,1.046,14.326,3.343z"/>
		<path fill="#A3A2A2" d="M14.184,4.97c-2.02,2.295-3.398,6.057-4.178,7.986c-1.056,2.615-1.837,4.315-3.443,5.602
			c-1.331,1.054-3.81,0.964-3.81,0.964v3.305c0,0,3.626,0.228,6.335-2.067c2.112-1.789,3.304-4.498,4.086-6.518h5.096v-4.223h-3.352
			c0.505-1.058,1.056-1.929,1.791-2.847c1.286-1.514,3.81-1.424,3.81-1.424V2.445C20.519,2.445,16.616,2.216,14.184,4.97z"/>
		<linearGradient id="SVGID_1_" gradientUnits="userSpaceOnUse" x1="2.5698" y1="12.1602" x2="20.3354" y2="12.1602">
			<stop  offset="0" style="stop-color:#C8C8CB"/>
			<stop  offset="0.0241" style="stop-color:#CBCBCF"/>
			<stop  offset="0.1455" style="stop-color:#D6D6DB"/>
			<stop  offset="0.2577" style="stop-color:#D9D9DE"/>
			<stop  offset="1" style="stop-color:#E6E5E9"/>
		</linearGradient>
		<path fill="url(#SVGID_1_)" d="M14,4.97c-2.02,2.295-3.396,6.057-4.178,7.986c-1.055,2.615-1.835,4.315-3.442,5.602
			c-1.378,0.964-3.81,0.918-3.81,0.918v2.386c0,0,3.765,0.368,6.335-2.065c1.927-1.836,2.845-4.5,3.626-6.518h5.554V9.973
			l-4.268,0.779c0.321-1.192,1.193-3.074,2.02-3.994c1.882-2.064,4.499-1.928,4.499-1.928V2.445C20.335,2.445,16.388,2.216,14,4.97z
			"/>
		<path fill="none" stroke="#848685" stroke-width="0.75" stroke-linejoin="round" stroke-miterlimit="10" d="M14.184,3.593
			c-2.708,2.295-3.857,6.059-4.637,7.986c-1.056,2.615-1.698,3.992-2.984,5.6c-1.285,1.515-3.81,1.425-3.81,1.425v4.223
			c0,0,3.626,0.228,6.335-2.067c2.112-1.789,3.304-4.498,4.086-6.518h5.096v-4.223h-3.352c0.505-1.058,1.056-1.929,1.791-2.847
			c1.286-1.514,3.81-1.424,3.81-1.424V1.525C20.519,1.525,16.893,1.298,14.184,3.593z"/>
	</g>
</g>
</svg>
