<?xml version="1.0" encoding="utf-8"?>
<!-- Generator: Adobe Illustrator 16.0.0, SVG Export Plug-In . SVG Version: 6.00 Build 0)  -->
<!DOCTYPE svg PUBLIC "-//W3C//DTD SVG 1.1//EN" "http://www.w3.org/Graphics/SVG/1.1/DTD/svg11.dtd">
<svg version="1.1" xmlns="http://www.w3.org/2000/svg" xmlns:xlink="http://www.w3.org/1999/xlink" x="0px" y="0px" width="24px"
	 height="24px" viewBox="0 0 24 24" enable-background="new 0 0 24 24" xml:space="preserve">
<g id="Layer_1">
</g>
<g id="Layer_2">
	<g>
		<g>
			
				<rect x="5.598" y="5.608" transform="matrix(0.9609 0.2769 -0.2769 0.9609 3.4789 -3.244)" fill="#DEDDDD" width="15.259" height="10.18"/>
			<path fill="#CCCCCC" d="M20.64,12.147c-0.281-0.151-0.581-0.274-0.89-0.408c-0.37-0.159-0.757-0.385-1.17-0.483
				c-0.29-0.069-0.604-0.093-0.938-0.217c-0.27-0.102-0.542-0.254-0.837-0.376c-0.576-0.235-1.17-0.47-1.757-0.696
				c-0.306-0.116-0.637-0.196-0.903-0.33c-0.13-0.064-0.249-0.17-0.38-0.247c-0.678-0.4-1.468-0.687-2.325-0.979
				c-0.312-0.108-0.708-0.357-0.995-0.357C10.281,8.05,10.073,8.371,9.93,8.581C9.762,8.826,9.633,9.113,9.562,9.293
				C9.282,8.874,8.478,8.621,7.98,8.815C7.842,8.871,7.754,8.987,7.635,9.051C7.007,8.82,6.567,8.309,5.833,8.263
				c-0.163,0.578-0.326,1.16-0.489,1.743c0.345,0.205,0.76,0.235,1.143,0.381c0.444,0.168,0.827,0.624,1.458,0.611
				c0.018-0.031,0.015-0.109,0.046-0.113c-0.217-0.141-0.821-0.227-0.683-0.52c0.072-0.15,0.307-0.08,0.5-0.031
				c0.595,0.151,1.315,0.35,1.83,0.497c0.096-0.363,0.632-0.11,0.993,0.012c1.262,0.427,2.492,0.783,3.891,1.106
				c1.136,0.261,2.261,0.681,3.279,0.979c-0.123,0.13-0.245,0.342-0.413,0.419c-0.201,0.096-0.555,0.011-0.833-0.029
				c-0.631-0.096-1.17-0.111-1.745-0.192c-0.225-0.032-0.451-0.047-0.646-0.056c-0.06-0.004-0.151-0.032-0.202,0.021
				c-0.122,0.26,0.132,0.318,0.312,0.385c0.735,0.273,1.534,0.551,2.274,0.763c-0.014,0.339,0.429,0.444,0.783,0.565
				c0.805,0.27,1.644,0.49,2.355,0.742L20.64,12.147z"/>
			<path fill="#FFFFFF" d="M19.735,18.654L3.646,14.147L6.819,2.829l16.087,4.506L19.735,18.654z M4.98,13.396l14.005,3.927
				l2.588-9.239L7.569,4.162L4.98,13.396z"/>
			
				<rect x="4.62" y="4.605" transform="matrix(-0.9629 -0.2698 0.2698 -0.9629 22.9006 24.6079)" fill="none" stroke="#848685" stroke-width="0.75" stroke-miterlimit="10" width="17.043" height="12.249"/>
			
				<linearGradient id="SVGID_1_" gradientUnits="userSpaceOnUse" x1="28.1626" y1="-219.4263" x2="28.1626" y2="-209.5347" gradientTransform="matrix(0.9606 0.2779 0.2995 -1.0351 47.399 -220.3408)">
				<stop  offset="0" style="stop-color:#FFFFFF;stop-opacity:0.4"/>
				<stop  offset="0.8587" style="stop-color:#FFFFFF;stop-opacity:0.6576"/>
				<stop  offset="1" style="stop-color:#FFFFFF;stop-opacity:0.7"/>
			</linearGradient>
			<path opacity="0.8" fill="url(#SVGID_1_)" d="M16.364,5.729L7.029,3.025L4.066,13.264l2.464,0.713
				C8.191,9.364,12.098,6.222,16.364,5.729z"/>
		</g>
		<rect x="1.684" y="7.821" fill="#DEDDDD" width="15.732" height="11.498"/>
		<path fill="#CCCCCC" d="M17.249,12.925c-0.311-0.073-0.632-0.111-0.966-0.159c-0.399-0.055-0.833-0.172-1.258-0.156
			c-0.298,0.012-0.606,0.076-0.96,0.047c-0.288-0.024-0.59-0.101-0.907-0.138c-0.618-0.075-1.256-0.145-1.879-0.203
			c-0.327-0.031-0.667-0.024-0.96-0.078c-0.14-0.027-0.282-0.099-0.433-0.138c-0.759-0.214-1.598-0.276-2.502-0.329
			c-0.329-0.019-0.777-0.157-1.056-0.077c-0.156,0.044-0.27,0.42-0.352,0.666c-0.096,0.293-0.144,0.613-0.162,0.811
			c-0.381-0.338-1.224-0.362-1.65-0.032c-0.119,0.095-0.172,0.234-0.271,0.327c-0.666-0.055-1.228-0.44-1.947-0.281
			c0,0.625,0,1.245,0,1.867c0.39,0.11,0.797,0.026,1.205,0.062c0.473,0.044,0.962,0.392,1.569,0.2
			c0.007-0.034-0.017-0.11,0.013-0.124c-0.248-0.078-0.852,0-0.798-0.325c0.028-0.171,0.273-0.166,0.474-0.171
			c0.612-0.019,1.359-0.021,1.893-0.016c-0.004-0.384,0.581-0.288,0.961-0.265c1.331,0.073,2.611,0.087,4.043,0.016
			c1.167-0.056,2.361,0.048,3.423,0.062c-0.082,0.163-0.145,0.405-0.284,0.527c-0.17,0.15-0.533,0.168-0.812,0.205
			C13,15.303,12.476,15.441,11.9,15.517c-0.224,0.03-0.446,0.08-0.637,0.127c-0.058,0.012-0.153,0.007-0.188,0.074
			c-0.046,0.293,0.215,0.281,0.406,0.298c0.779,0.062,1.623,0.119,2.394,0.126c0.08,0.337,0.535,0.318,0.908,0.339
			c0.847,0.046,1.716,0.033,2.466,0.084V12.925L17.249,12.925z"/>
		<path fill="#B2B3B3" d="M2.311,15.023c0,0.008,0,0.012,0,0.021c0.893,0.021,1.784,0.159,2.681,0.259
			c0.432,0.046,0.865,0.036,1.294,0.08c0.841,0.084,1.667,0.159,2.478,0.3c0.396,0.067,0.798,0.178,1.184,0.22
			c0.331,0.034,0.659,0.007,0.979,0.039c0.904,0.09,1.825,0.267,2.737,0.359c1.219,0.12,2.411,0.286,3.54,0.659
			c0,0.563,0,1.128,0,1.695c-0.068,0.016-0.173-0.026-0.218,0.021c-5.196,0-9.845,0-15.043,0c0-1.221,0-2.436,0-3.653
			C2.066,15.023,2.188,15.023,2.311,15.023z"/>
		<path fill="#A3A2A2" d="M14.121,15.884c0.082,0.073,0.145,0.165,0.24,0.22c-0.279,0.375-0.836,0.679-0.674,1.315
			c-0.15,0.247-0.667,0.259-0.637,0.606c0.206,0.084,0.489,0.08,0.646,0.222c-0.217,0.151-0.432,0.307-0.622,0.478h3.065
			c0.327-0.2,0.688-0.372,1.078-0.515v-0.695c-0.18-0.062-0.325-0.163-0.42-0.34c0.105-0.071,0.269-0.062,0.42-0.066v-0.694
			c-0.252-0.028-0.513-0.028-0.732-0.139c-0.214-0.545,0.381-0.88,0.644-1.233c-0.054-0.04-0.1-0.081-0.124-0.157
			c-0.619-0.243-1.242-0.481-1.686-0.93c0.18-0.115,0.235-0.336,0.234-0.558c0.138,0.033,0.372,0.067,0.439-0.075
			c-0.253-0.09-0.411-0.291-0.544-0.526c-0.117-0.021-0.19-0.081-0.324-0.138c-0.069-0.028-0.321-0.072-0.326-0.14
			c-0.006-0.084,0.173-0.091,0.249-0.113c0.068-0.021,0.134-0.097,0.214-0.13c0.171-0.067,0.385-0.084,0.465-0.205
			c-0.227-0.111-0.313-0.349-0.469-0.531c-0.097-0.118-0.231-0.208-0.339-0.323c-0.333-0.359-0.595-0.756-0.821-1.244
			c-0.003-0.013-0.005-0.021-0.021-0.019c-0.135,0.077-0.113,0.203-0.122,0.324c-0.036,0.436-0.329,0.879-0.398,1.309
			c0.214,0.08,0.379,0.011,0.496,0.161c-0.044,0.214-0.088,0.431-0.115,0.658c-0.232,0.26-0.409,0.567-0.598,0.863
			c0.317,0.046,0.603,0.12,0.801,0.301c-0.169,0.163-0.261,0.396-0.398,0.589c-0.05,0.006-0.039-0.027-0.073,0.006
			c-0.283,0.336-0.869,0.562-0.676,1.056c0.367-0.031,0.671-0.208,1.022-0.196c-0.415,0.271-0.884,0.493-1.231,0.825
			C13.262,15.804,13.649,16.003,14.121,15.884z"/>
		<path fill="#FFFFFF" d="M17.928,19.663H1.22V7.538h16.708V19.663L17.928,19.663z M2.302,18.549h14.544V8.656H2.302V18.549z"/>
		
			<linearGradient id="SVGID_2_" gradientUnits="userSpaceOnUse" x1="7.0205" y1="-140.0913" x2="7.0205" y2="-130.2026" gradientTransform="matrix(1 0 0 -1 0.1401 -121.5469)">
			<stop  offset="0" style="stop-color:#FFFFFF;stop-opacity:0.4"/>
			<stop  offset="0.8587" style="stop-color:#FFFFFF;stop-opacity:0.6576"/>
			<stop  offset="1" style="stop-color:#FFFFFF;stop-opacity:0.7"/>
		</linearGradient>
		<path opacity="0.8" fill="url(#SVGID_2_)" d="M12.019,8.656H2.302v9.889h2.562C5.18,14.005,8.06,10.197,12.019,8.656z"/>
		
			<rect x="1.03" y="7.35" fill="none" stroke="#848685" stroke-width="0.75" stroke-miterlimit="10" width="17.066" height="12.561"/>
	</g>
</g>
</svg>
