<?xml version="1.0" encoding="utf-8"?>
<!-- Generator: Adobe Illustrator 16.0.0, SVG Export Plug-In . SVG Version: 6.00 Build 0)  -->
<!DOCTYPE svg PUBLIC "-//W3C//DTD SVG 1.1//EN" "http://www.w3.org/Graphics/SVG/1.1/DTD/svg11.dtd">
<svg version="1.1" xmlns="http://www.w3.org/2000/svg" xmlns:xlink="http://www.w3.org/1999/xlink" x="0px" y="0px" width="24px"
	 height="24px" viewBox="0 0 24 24" enable-background="new 0 0 24 24" xml:space="preserve">
<g id="Layer_1">
</g>
<g id="Layer_2">
	<g>
		
			<linearGradient id="SVGID_1_" gradientUnits="userSpaceOnUse" x1="273.0679" y1="-528.8062" x2="293.4702" y2="-528.8062" gradientTransform="matrix(0.4316 -0.9021 0.9021 0.4316 366.9186 496.0778)">
			<stop  offset="0" style="stop-color:#77787B"/>
			<stop  offset="0.4811" style="stop-color:#C7C8CA"/>
			<stop  offset="1" style="stop-color:#EFEFF0"/>
		</linearGradient>
		<circle fill="url(#SVGID_1_)" cx="12.161" cy="12.317" r="10.201"/>
		<linearGradient id="SVGID_2_" gradientUnits="userSpaceOnUse" x1="8.6484" y1="19.3447" x2="12.994" y2="1.8487">
			<stop  offset="0" style="stop-color:#77787B"/>
			<stop  offset="0.508" style="stop-color:#C7C8CA"/>
			<stop  offset="0.6057" style="stop-color:#C7C9CA"/>
			<stop  offset="0.7601" style="stop-color:#C9CACC"/>
			<stop  offset="0.7699" style="stop-color:#D0D1D3"/>
			<stop  offset="0.7963" style="stop-color:#DEDFE0"/>
			<stop  offset="0.829" style="stop-color:#E8E8E9"/>
			<stop  offset="0.8748" style="stop-color:#EDEEEF"/>
			<stop  offset="1" style="stop-color:#EFEFF0"/>
		</linearGradient>
		<path fill="url(#SVGID_2_)" d="M11.387,16.715c-0.47-0.202-1.232-0.539-1.569-0.965c-0.247-0.293-0.225-0.293-0.606-0.426
			c-0.314-0.09-0.516-0.27-0.875-0.314c-0.269-0.023-1.346-0.291-1.278,0.09l-0.023-0.09c-0.134,0.426-0.336,0.785-0.561,1.188
			c-0.156,0.293-0.111,0.382-0.023,0.696c0.157,0.583,0.225,0.628,0.696,0.875c1.345,0.739-0.158,2.893,0.964,3.521
			c0.18,0.113,0.403,0.181,0.583,0.247c0.224-0.313,0.336-0.517,0.65-0.718c0.202-0.112,0.336-0.157,0.471-0.358
			c0.179-0.226,0.112-0.449,0.224-0.673c0.157-0.315,0.583-0.225,0.83-0.448c0.314-0.292,0.336-0.675,0.471-1.01
			c0.157-0.36,0.627-0.538,0.763-0.875C12.263,17.006,11.725,16.849,11.387,16.715z"/>
		<linearGradient id="SVGID_3_" gradientUnits="userSpaceOnUse" x1="15.8818" y1="8.6055" x2="15.8818" y2="5.5281">
			<stop  offset="0" style="stop-color:#77787B"/>
			<stop  offset="0.3804" style="stop-color:#C7C8CA"/>
			<stop  offset="0.4911" style="stop-color:#C9CACC"/>
			<stop  offset="0.512" style="stop-color:#D0D1D3"/>
			<stop  offset="0.5679" style="stop-color:#DEDFE0"/>
			<stop  offset="0.6374" style="stop-color:#E8E8E9"/>
			<stop  offset="0.7345" style="stop-color:#EDEEEF"/>
			<stop  offset="1" style="stop-color:#EFEFF0"/>
		</linearGradient>
		<path fill="url(#SVGID_3_)" d="M15.738,8.079c0,0.225-0.268,0.358-0.155,0.562c0.224-0.271,0.381-0.404,0.74-0.45
			c-0.09-0.269-0.382-0.447-0.449-0.718c-0.067-0.2,0-0.47-0.292-0.402l0.067,0.067c-0.337-0.067-0.18,0.357-0.112,0.515
			C15.583,7.766,15.738,7.989,15.738,8.079z"/>
		<linearGradient id="SVGID_4_" gradientUnits="userSpaceOnUse" x1="15.1758" y1="8.9072" x2="15.1758" y2="5.8291">
			<stop  offset="0" style="stop-color:#77787B"/>
			<stop  offset="0.3804" style="stop-color:#C7C8CA"/>
			<stop  offset="0.4911" style="stop-color:#C9CACC"/>
			<stop  offset="0.512" style="stop-color:#D0D1D3"/>
			<stop  offset="0.5679" style="stop-color:#DEDFE0"/>
			<stop  offset="0.6374" style="stop-color:#E8E8E9"/>
			<stop  offset="0.7345" style="stop-color:#EDEEEF"/>
			<stop  offset="1" style="stop-color:#EFEFF0"/>
		</linearGradient>
		<path fill="url(#SVGID_4_)" d="M15.251,7.728c-0.085,0.189-0.191,0.318-0.229,0.531C15.413,8.455,15.36,7.983,15.251,7.728z"/>
		<linearGradient id="SVGID_5_" gradientUnits="userSpaceOnUse" x1="14.0439" y1="6.876" x2="14.0439" y2="3.7988">
			<stop  offset="0" style="stop-color:#77787B"/>
			<stop  offset="0.3804" style="stop-color:#C7C8CA"/>
			<stop  offset="0.4911" style="stop-color:#C9CACC"/>
			<stop  offset="0.512" style="stop-color:#D0D1D3"/>
			<stop  offset="0.5679" style="stop-color:#DEDFE0"/>
			<stop  offset="0.6374" style="stop-color:#E8E8E9"/>
			<stop  offset="0.7345" style="stop-color:#EDEEEF"/>
			<stop  offset="1" style="stop-color:#EFEFF0"/>
		</linearGradient>
		<path fill="url(#SVGID_5_)" d="M13.944,5.59l0.045-0.066c-0.089,0.021-0.246,0.021-0.358,0.044
			c-0.157,0.492,0.358,0.562,0.65,0.336C14.774,5.523,14.259,5.343,13.944,5.59z"/>
		<path fill="#FFFFFF" d="M14.842,12.161c-0.042-0.022-0.045-0.022-0.083-0.043c-0.002,0.007-0.029,0.021-0.029,0.021
			c0.062,0.018,0.104,0.042,0.13,0.072c0.002-0.002,0.003-0.005,0.005-0.005L14.842,12.161z"/>
		<path fill="#FFFFFF" d="M17.133,3.332c-0.036-0.038-0.073-0.077-0.116-0.119C17.054,3.257,17.092,3.295,17.133,3.332z"/>
		<path fill="#FFFFFF" d="M18.251,6.084c0.002-0.018,0.006-0.032,0.009-0.049c-0.025,0.001-0.051,0.004-0.076,0.004L18.251,6.084z"
			/>
		<path fill="#FFFFFF" d="M14.752,12.116c0.002,0.001,0.003,0.002,0.006,0.002C14.758,12.117,14.757,12.116,14.752,12.116z"/>
		<path fill="#FFFFFF" d="M14.839,12.229c0.012,0,0.023,0,0.035,0c-0.004-0.006-0.008-0.013-0.014-0.018
			C14.847,12.219,14.812,12.232,14.839,12.229z"/>
		<linearGradient id="SVGID_6_" gradientUnits="userSpaceOnUse" x1="3.9849" y1="13.3643" x2="11.0251" y2="-2.2097">
			<stop  offset="0" style="stop-color:#77787B"/>
			<stop  offset="0.5185" style="stop-color:#C7C8CA"/>
			<stop  offset="0.9002" style="stop-color:#C9CACC"/>
			<stop  offset="0.9043" style="stop-color:#D0D1D3"/>
			<stop  offset="0.9153" style="stop-color:#DEDFE0"/>
			<stop  offset="0.9289" style="stop-color:#E8E8E9"/>
			<stop  offset="0.9479" style="stop-color:#EDEEEF"/>
			<stop  offset="1" style="stop-color:#EFEFF0"/>
		</linearGradient>
		<path fill="url(#SVGID_6_)" d="M6.588,15.032l0.09,0.09c0.067-0.067-0.336-0.27-0.427-0.382c-0.179-0.27-0.022-0.472,0.023-0.831
			c-0.202,0.025-0.403,0.114-0.628,0.114c0.067-0.136,0.426-0.539,0.292-0.695c-0.18-0.158-0.651,0.425-0.852,0.425
			c-0.112-0.38-0.225-1.032,0.067-1.347c0.18-0.2,0.605-0.335,0.852-0.245c0.337,0.111,0.315,0.338,0.382,0.628
			c0.292-0.313,0.156-0.809,0.336-1.146c0.112-0.223,0.403-0.246,0.426-0.515l-0.045,0.045c0.359-0.357,0.673-0.74,1.077-1.053
			c0.337-0.271,0.807-0.54,1.032-0.898C8.921,9.18,8.653,9.199,8.899,8.843c0.225-0.359,0.785-0.113,0.853-0.45
			c0.068-0.313-0.449-0.671-0.538-0.94C9.124,7.228,9.034,6.936,8.989,6.688C8.876,6.8,8.809,6.958,8.697,7.07
			C8.519,6.755,8.652,6.621,8.271,6.688C8.046,6.712,7.823,6.869,7.755,7.092c-0.089,0.27,0.09,0.561,0,0.83
			c-0.067,0.224-0.313,0.562-0.516,0.65C7.172,8.326,7.375,8.079,7.307,7.833c-0.381,0.021-0.493-0.181-0.785-0.36l0.09-0.044
			c-0.135,0.09-0.337-0.224-0.494-0.314c0.269-0.359,0.65-0.627,0.942-0.963c0.224,0.425,0.583-0.606,0.763-0.786
			C7.957,5.208,8.45,5.051,8.586,5.276c0.156,0.269-0.225,0.561-0.359,0.739c0.246,0,0.516,0.044,0.718,0.181
			c0.201-0.157,0.47-0.405,0.583-0.651c-0.18-0.111-0.337-0.224-0.471-0.381c0.134-0.269,0.104-0.619-0.175-0.56
			c0.045-0.028,0.087-0.06,0.129-0.091C8.497,4.355,8.316,4.692,8.429,4.064c0.044-0.293,0.112-0.471,0.359-0.74L8.72,3.302
			C8.854,3.168,8.967,2.988,9.057,2.83c-0.023,0-0.089,0-0.112,0c0.023-0.097,0.001-0.179-0.053-0.245
			C5.05,3.877,2.235,7.4,1.982,11.612c0.643-0.203,1.032,0.918,1.243,1.443c-0.067-0.244-0.112-0.514-0.224-0.738
			c0.313,0.358,0.672,0.561,0.717,1.055c0.045,0.313-0.089,0.291,0.269,0.425c0.27,0.089,0.561,0.068,0.807,0.18
			C5.288,14.157,6.051,15.145,6.588,15.032z"/>
		<linearGradient id="SVGID_7_" gradientUnits="userSpaceOnUse" x1="11.1875" y1="6.168" x2="12.4674" y2="-2.8603">
			<stop  offset="0" style="stop-color:#77787B"/>
			<stop  offset="0.3804" style="stop-color:#C7C8CA"/>
			<stop  offset="0.4911" style="stop-color:#C9CACC"/>
			<stop  offset="0.512" style="stop-color:#D0D1D3"/>
			<stop  offset="0.5679" style="stop-color:#DEDFE0"/>
			<stop  offset="0.6374" style="stop-color:#E8E8E9"/>
			<stop  offset="0.7345" style="stop-color:#EDEEEF"/>
			<stop  offset="1" style="stop-color:#EFEFF0"/>
		</linearGradient>
		<path fill="url(#SVGID_7_)" d="M13.407,4.021c0.045-0.09,0.403-0.157,0.516-0.18c-0.022-0.359-0.179-0.74-0.068-1.055
			c0.054-0.161,0.18-0.37,0.326-0.521c-0.172-0.035-0.345-0.065-0.521-0.092l-0.188,0.023l0.177-0.024
			c-0.496-0.074-1.001-0.113-1.517-0.113c-0.682,0-1.348,0.067-1.992,0.195c-0.076,0.192-0.188,0.443-0.188,0.443l0.06-0.01
			c-0.218,0.37-0.868,0.392-0.89,0.839c0.336,0.045,0.695-0.089,1.033-0.022c0.268,0.427,0.38,0.763,0.134,1.234
			c0.157,0.18,0.358,0.022,0.538,0.045c-0.045,0.381-0.404,0.672-0.246,1.097c0.044,0.159,0.157,0.517,0.224,0.652
			c0.135,0.202,0.203,0.156,0.449,0.245c0.246-0.47,0.202-1.074,0.718-1.344c0.336-0.157,0.739-0.18,1.032-0.36
			c0.201-0.134,0.561-0.401,0.561-0.673C13.563,4.244,13.338,4.199,13.407,4.021z"/>
		<linearGradient id="SVGID_8_" gradientUnits="userSpaceOnUse" x1="18.8745" y1="17.7041" x2="16.3146" y2="-1.3523">
			<stop  offset="0" style="stop-color:#77787B"/>
			<stop  offset="0.4865" style="stop-color:#C7C8CA"/>
			<stop  offset="0.7121" style="stop-color:#C9CACC"/>
			<stop  offset="0.7239" style="stop-color:#D0D1D3"/>
			<stop  offset="0.7555" style="stop-color:#DEDFE0"/>
			<stop  offset="0.7948" style="stop-color:#E8E8E9"/>
			<stop  offset="0.8498" style="stop-color:#EDEEEF"/>
			<stop  offset="1" style="stop-color:#EFEFF0"/>
		</linearGradient>
		<path fill="url(#SVGID_8_)" d="M17.368,3.506c0.011,0.016,0.021,0.03,0.031,0.043C17.362,3.52,17.325,3.49,17.29,3.461
			c-0.028-0.016-0.055-0.033-0.083-0.049c0.237,0.27,0.327,0.485,0.327,0.922c-0.134-0.046-0.247-0.09-0.359-0.157
			c-0.134,0.471-0.201,0.831,0.045,1.278c-0.066,0.22-0.26,0.503-0.206,0.744c-0.127,0.255-0.261,0.664-0.199,0.915
			c0.539-0.448,0.494,0.023,0.853,0.314C17.78,7.228,17.87,7.003,18.004,6.8c0.067-0.088,0.201-0.022,0.224-0.224
			c0-0.156-0.203-0.18-0.224-0.291c-0.045-0.226,0.113-1.167,0.381-1.234c-0.042,0.32-0.066,0.661-0.126,0.984
			c0.081-0.007,0.163-0.022,0.245-0.039c0,0.138-0.103,0.347,0.032,0.496c0.236,0.258,0.594-0.048,0.838,0.195
			c-0.119,0.197-0.183,0.099-0.356,0.135c-0.192,0.04-0.214,0.127-0.291,0.332c-0.085-0.203-0.286-0.426-0.433-0.13
			c-0.104,0.211,0.028,0.561-0.184,0.714c-0.18,0.128-0.66,0.179-0.798-0.02c-0.13-0.187-0.015-0.473-0.178-0.647
			c-0.034,0.185-0.145,0.354-0.123,0.535c0.02,0.172,0.162,0.302,0.091,0.469c-0.146,0-0.33,0.011-0.439,0.1
			c-0.089,0.072-0.091,0.211-0.229,0.263c-0.122,0.049-0.312-0.021-0.412,0.09c-0.049,0.055-0.058,0.256-0.087,0.333
			c-0.124,0.015-0.278,0.029-0.39,0.076c0.051,0.271,0.442,0.353,0.417,0.667c-0.015,0.192-0.09,0.187-0.27,0.158
			C15.5,9.73,15.284,9.719,15.092,9.68c-0.006,0.399,0.229,0.658,0.023,1.062c0.071,0.033,0.132-0.02,0.193,0.005
			c0.047,0.021,0.086,0.079,0.117,0.093c0.122,0.047,0.217,0.072,0.359,0.049c0.15-0.026,0.212-0.069,0.292-0.183
			c0.029-0.041-0.008-0.116,0.038-0.164c0.042-0.048,0.114-0.042,0.163-0.081c0.195-0.15,0.186-0.52,0.386-0.649
			c0.033-0.021,0.249-0.015,0.332-0.044c0.118-0.045,0.18-0.029,0.265-0.116c0.067,0.255,0.214,0.462,0.407,0.649
			c0.192,0.187,0.438,0.382,0.025,0.452c0.132,0.178,0.172,0.241,0.328,0.035c0.115-0.151,0.182-0.302,0.323-0.42
			c-0.257-0.242-0.482-0.539-0.667-0.85c0.269-0.264,0.877,0.6,0.889,0.827c0.013,0.248-0.125,0.354,0.128,0.469
			c0.344,0.158,0.222-0.241,0.233-0.491c0.207,0.114,0.413-0.094,0.603-0.023c0.097,0.034,0.114,0.15,0.179,0.22
			c0.102,0.11,0.066,0.085,0.178,0.117c0.228,0.064,0.335,0.003,0.405,0.293c0.043,0.176,0.103,0.407,0.028,0.582
			c-0.109,0.259-0.464,0.601-0.72,0.691c-0.264,0.094-0.504-0.123-0.741-0.223c-0.38-0.157-0.762-0.297-1.133-0.497
			c-0.362-0.197-0.288-0.059-0.556,0.078c-0.285,0.146-0.567,0.366-0.871,0.466c-0.408,0.136-0.983,0.202-1.424,0.202
			c0.103,0.166-0.21,0.463-0.302,0.628c-0.359,0.56-0.56,0.873-0.381,1.547c0.09,0.336,0.201,0.628,0.381,0.919
			c0.09,0.135,0.157,0.338,0.314,0.427c0.201,0.157,0.179,0.067,0.449-0.022c0.29-0.089,0.784-0.156,1.099-0.066
			c0.112,0.021,0.157,0.135,0.269,0.156c0.044,0.021,0.358,0.045,0.381,0.067c0,0,0,0,0.022,0c0.067,0.292-0.09,0.515-0.09,0.785
			c-0.022,0.291,0.045,0.245,0.157,0.517c0.202,0.47,0.044,1.053-0.112,1.501c-0.179,0.516-0.045,0.874,0,1.413
			c0.026,0.303,0.185,0.584,0.285,0.863c1.223-0.73,2.279-1.71,3.098-2.869c-0.138-0.342-0.243-0.681-0.086-0.955
			c0.337-0.604,1.077-0.874,1.233-1.592c0.046-0.246,0.024-0.492,0.113-0.719c0.059-0.196,0.188-0.293,0.351-0.355
			c0.163-0.723,0.249-1.474,0.249-2.244C22.305,8.527,20.325,5.287,17.368,3.506z M18.475,5.903c0.013,0.016,0.021,0.029,0.024,0.05
			L18.475,5.903z"/>
		<circle fill="none" stroke="#838585" stroke-miterlimit="10" cx="12.133" cy="12.227" r="10.38"/>
		<radialGradient id="SVGID_9_" cx="12.7031" cy="11.0762" r="4.9285" gradientUnits="userSpaceOnUse">
			<stop  offset="0" style="stop-color:#FFFFFF;stop-opacity:0.5"/>
			<stop  offset="1" style="stop-color:#EFEFF0;stop-opacity:0"/>
		</radialGradient>
		<circle fill="url(#SVGID_9_)" cx="12.703" cy="11.076" r="4.928"/>
	</g>
</g>
</svg>
