<?xml version="1.0" encoding="utf-8"?>
<!-- Generator: Adobe Illustrator 16.0.0, SVG Export Plug-In . SVG Version: 6.00 Build 0)  -->
<!DOCTYPE svg PUBLIC "-//W3C//DTD SVG 1.1//EN" "http://www.w3.org/Graphics/SVG/1.1/DTD/svg11.dtd">
<svg version="1.1" xmlns="http://www.w3.org/2000/svg" xmlns:xlink="http://www.w3.org/1999/xlink" x="0px" y="0px" width="24px"
	 height="24px" viewBox="0 0 24 24" enable-background="new 0 0 24 24" xml:space="preserve">
<g id="Layer_1">
</g>
<g id="Layer_2">
	<g>
		<linearGradient id="SVGID_1_" gradientUnits="userSpaceOnUse" x1="6.0464" y1="11.2217" x2="17.2651" y2="11.2217">
			<stop  offset="0" style="stop-color:#C8C8CB"/>
			<stop  offset="0.0241" style="stop-color:#CBCBCF"/>
			<stop  offset="0.1455" style="stop-color:#D6D6DB"/>
			<stop  offset="0.2577" style="stop-color:#D9D9DE"/>
			<stop  offset="1" style="stop-color:#E6E5E9"/>
		</linearGradient>
		<rect x="6.046" y="1.012" fill="url(#SVGID_1_)" width="11.219" height="20.42"/>
		<path fill="#848685" d="M1.897,0.608v22.197h19.769V0.608H1.897z M5.358,21.376H3.327v-2.03h2.031V21.376z M5.358,17.915H3.327
			v-2.033h2.031V17.915z M5.358,14.454H3.327v-2.032h2.031V14.454z M5.358,10.993H3.327V8.96h2.031V10.993z M5.358,7.532H3.327
			V5.498h2.031V7.532z M5.358,4.069H3.327V2.034h2.031V4.069z M16.749,21.376H6.801v-8.954h9.948V21.376z M16.749,10.993H6.801
			V2.034h9.948V10.993z M20.223,21.376h-2.031v-2.03h2.031V21.376z M20.223,17.915h-2.031v-2.033h2.031V17.915z M20.223,14.454
			h-2.031v-2.032h2.031V14.454z M20.223,10.993h-2.031V8.96h2.031V10.993z M20.223,7.532h-2.031V5.498h2.031V7.532z M20.223,4.069
			h-2.031V2.034h2.031V4.069z"/>
		
			<linearGradient id="SVGID_2_" gradientUnits="userSpaceOnUse" x1="11.6348" y1="-55.4155" x2="11.6348" y2="-48.645" gradientTransform="matrix(1 0 0 -1 0.1401 -46.6113)">
			<stop  offset="0" style="stop-color:#F6F5F7;stop-opacity:0.3"/>
			<stop  offset="1" style="stop-color:#F6F5F7;stop-opacity:0.7"/>
		</linearGradient>
		<path fill="url(#SVGID_2_)" d="M16.186,3.572c0.188,0,0.376,0.006,0.563,0.016V2.034H6.801v6.771
			C8.746,5.666,12.222,3.572,16.186,3.572z"/>
		
			<linearGradient id="SVGID_3_" gradientUnits="userSpaceOnUse" x1="11.6348" y1="-66.0249" x2="11.6348" y2="-59.2573" gradientTransform="matrix(1 0 0 -1 0.1401 -46.6113)">
			<stop  offset="0" style="stop-color:#F6F5F7;stop-opacity:0.3"/>
			<stop  offset="1" style="stop-color:#F6F5F7;stop-opacity:0.7"/>
		</linearGradient>
		<path fill="url(#SVGID_3_)" d="M16.186,14.187c0.188,0,0.376,0.002,0.563,0.012v-1.552H6.801v6.768
			C8.746,16.277,12.222,14.187,16.186,14.187z"/>
	</g>
</g>
</svg>
