<?xml version="1.0" encoding="utf-8"?>
<!-- Generator: Adobe Illustrator 16.0.0, SVG Export Plug-In . SVG Version: 6.00 Build 0)  -->
<!DOCTYPE svg PUBLIC "-//W3C//DTD SVG 1.1//EN" "http://www.w3.org/Graphics/SVG/1.1/DTD/svg11.dtd">
<svg version="1.1" xmlns="http://www.w3.org/2000/svg" xmlns:xlink="http://www.w3.org/1999/xlink" x="0px" y="0px" width="43.5px"
	 height="42px" viewBox="0 0 43.5 42" enable-background="new 0 0 43.5 42" xml:space="preserve">
<g id="Layer_1">
	<g>
		<polygon fill="#FEDBB8" points="13.961,35.194 3.228,39.065 7.028,28.349 9.419,25.986 16.538,33.188 		"/>
		<path fill="#F7AB8D" d="M29.881,5.562L29.881,5.562c3.443-3.402,4.943-4.111,5.964-3.079c0.826,0.836,3.428,3.468,4.255,4.304
			c1.021,1.033-0.035,2.71-3.219,5.857l0,0L29.881,5.562z"/>
		
			<linearGradient id="SVGID_1_" gradientUnits="userSpaceOnUse" x1="35.5254" y1="-103.0986" x2="12.9276" y2="-102.126" gradientTransform="matrix(0.574 0.5807 -0.7662 0.7573 -73.1595 82.9721)">
			<stop  offset="0" style="stop-color:#F6CB59"/>
			<stop  offset="0.5178" style="stop-color:#EFEA59"/>
			<stop  offset="0.532" style="stop-color:#F1EC6C"/>
			<stop  offset="0.5607" style="stop-color:#F5F088"/>
			<stop  offset="0.5932" style="stop-color:#F8F39D"/>
			<stop  offset="0.6298" style="stop-color:#FBF5AE"/>
			<stop  offset="0.6724" style="stop-color:#FEF7BC"/>
			<stop  offset="0.7251" style="stop-color:#FFF9C5"/>
			<stop  offset="0.7987" style="stop-color:#FFFACA"/>
			<stop  offset="1" style="stop-color:#FFFBCC"/>
		</linearGradient>
		<path fill="url(#SVGID_1_)" d="M14.505,35.048c0,0,1.091-1.469,0.202-2.42c-0.901-0.969-2.367-0.047-2.367-0.047
			s0.776-1.717-0.08-2.582c-0.881-0.893-2.396-0.055-2.396-0.055s0.847-1.328,0.096-2.088c-0.763-0.772-1.844-0.476-2.578,0.25
			L7.359,28L28.4,7.203l7.097,7.179L14.455,35.179L14.505,35.048z"/>
		
			<rect x="18.271" y="3.63" transform="matrix(0.703 0.7112 -0.7112 0.703 18.0232 -8.2049)" fill="#FFFFFF" width="1.128" height="27.692"/>
		<path fill="#ECD616" d="M32.919,11.917l-20.741,20.5c0,0,1.678-0.664,2.348,0.09c0.669,0.756,0.023,1.902,0.023,1.902
			L35.158,14.04L32.919,11.917z"/>
		
			<line fill="none" stroke="#DAB228" stroke-width="1.5" stroke-linecap="round" stroke-linejoin="round" stroke-miterlimit="10" x1="28.16" y1="11.837" x2="14.104" y2="25.731"/>
		
			<line fill="none" stroke="#DAB228" stroke-width="1.5" stroke-linecap="round" stroke-linejoin="round" stroke-miterlimit="10" x1="30.535" y1="14.241" x2="16.479" y2="28.135"/>
		<path fill="#E8BE9C" d="M12.46,32.478l-9.065,6.33l11.176-3.959c0,0,0.488-1.588,0.071-2.035
			C13.894,32.009,12.46,32.478,12.46,32.478z"/>
		<polygon fill="#FFF3EA" points="9.106,27.868 4.137,38.312 3.696,37.999 7.306,27.924 		"/>
		
			<polyline fill="none" stroke="#D3A76C" stroke-width="1.5" stroke-linecap="round" stroke-linejoin="round" stroke-miterlimit="10" points="
			6.888,28.565 3.085,39.282 13.819,35.411 		"/>
		
			<path fill="none" stroke="#BE942E" stroke-width="1.5" stroke-linecap="round" stroke-linejoin="round" stroke-miterlimit="10" d="
			M14.31,35.04c0,0,1.09-1.469,0.202-2.422c-0.902-0.967-2.368-0.045-2.368-0.045s0.776-1.717-0.079-2.584
			c-0.881-0.891-2.396-0.053-2.396-0.053s0.846-1.328,0.095-2.088C9,27.076,7.919,27.372,7.186,28.098l-0.022-0.106L28.204,7.195
			l7.096,7.179L14.259,35.171L14.31,35.04z"/>
		<path fill="#FDDBCF" d="M30.146,5.564l0.864,0.861c0.329-0.289,1.351-1.265,2.108-1.744c0.761-0.481,1.4-0.81,2.012-0.624
			c0.859,0.264,2.844,2.077,4.223,3.216c0.221,0.181-0.541-0.715-0.353-0.538c0,0-3.06-3.487-3.854-4.137
			c-0.795-0.649-2.911,0.938-3.674,1.616C30.708,4.892,30.146,5.564,30.146,5.564z"/>
		<path fill="#EF9073" d="M39.828,7.605c-0.272,0.424-1.103,1.46-1.842,2.096c-0.68,0.582-1.251,0.626-1.694,0.417
			c-0.355-0.167-1.75-1.202-2.48-1.747c-0.181-0.137-1.221-1.046-1.221-1.046l4.291,4.877l2.674-3.018L39.828,7.605z"/>
		
			<path fill="none" stroke="#DD7652" stroke-width="1.5" stroke-linecap="round" stroke-linejoin="round" stroke-miterlimit="10" d="
			M29.853,5.625L29.853,5.625c3.443-3.403,4.944-4.112,5.964-3.08c0.827,0.836,3.429,3.468,4.254,4.304
			c1.021,1.032-0.033,2.709-3.217,5.857l0,0L29.853,5.625z"/>
		<polygon fill="#666766" stroke="#4C4C4D" stroke-linecap="round" stroke-linejoin="round" stroke-miterlimit="10" points="
			3.835,36.403 2.714,39.628 5.843,38.505 		"/>
	</g>
</g>
<g id="Layer_2">
</g>
</svg>
