<?xml version="1.0" encoding="utf-8"?>
<!-- Generator: Adobe Illustrator 16.0.0, SVG Export Plug-In . SVG Version: 6.00 Build 0)  -->
<!DOCTYPE svg PUBLIC "-//W3C//DTD SVG 1.1//EN" "http://www.w3.org/Graphics/SVG/1.1/DTD/svg11.dtd">
<svg version="1.1" xmlns="http://www.w3.org/2000/svg" xmlns:xlink="http://www.w3.org/1999/xlink" x="0px" y="0px" width="24px"
	 height="24px" viewBox="0 0 24 24" enable-background="new 0 0 24 24" xml:space="preserve">
<g id="Layer_1">
</g>
<g id="Layer_2">
	<g>
		<g>
			
				<linearGradient id="SVGID_1_" gradientUnits="userSpaceOnUse" x1="9.9834" y1="-219.9985" x2="2.5369" y2="-212.552" gradientTransform="matrix(1 0 0 -1 0.1401 -198.4941)">
				<stop  offset="0" style="stop-color:#77787B"/>
				<stop  offset="0.3804" style="stop-color:#C7C8CA"/>
				<stop  offset="0.4911" style="stop-color:#C9CACC"/>
				<stop  offset="0.512" style="stop-color:#D0D1D3"/>
				<stop  offset="0.5679" style="stop-color:#DEDFE0"/>
				<stop  offset="0.6374" style="stop-color:#E8E8E9"/>
				<stop  offset="0.7345" style="stop-color:#EDEEEF"/>
				<stop  offset="1" style="stop-color:#EFEFF0"/>
			</linearGradient>
			<path fill="url(#SVGID_1_)" d="M10.779,19.928c0,1.229-1.005,2.232-2.234,2.232h-4.29c-1.23,0-2.235-1.003-2.235-2.232v-4.29
				c0-1.229,1.005-2.236,2.235-2.236h4.29c1.229,0,2.234,1.007,2.234,2.236V19.928z"/>
			<path fill="#C6C6C5" d="M9.903,19.499c0,0.981-0.805,1.785-1.787,1.785H4.684c-0.983,0-1.788-0.804-1.788-1.785v-3.433
				c0-0.985,0.805-1.789,1.788-1.789h3.433c0.982,0,1.787,0.804,1.787,1.789V19.499z"/>
		</g>
		<g>
			
				<linearGradient id="SVGID_2_" gradientUnits="userSpaceOnUse" x1="9.9829" y1="-208.3926" x2="2.5364" y2="-200.946" gradientTransform="matrix(1 0 0 -1 0.1401 -198.4941)">
				<stop  offset="0" style="stop-color:#77787B"/>
				<stop  offset="0.3804" style="stop-color:#C7C8CA"/>
				<stop  offset="0.4911" style="stop-color:#C9CACC"/>
				<stop  offset="0.512" style="stop-color:#D0D1D3"/>
				<stop  offset="0.5679" style="stop-color:#DEDFE0"/>
				<stop  offset="0.6374" style="stop-color:#E8E8E9"/>
				<stop  offset="0.7345" style="stop-color:#EDEEEF"/>
				<stop  offset="1" style="stop-color:#EFEFF0"/>
			</linearGradient>
			<path fill="url(#SVGID_2_)" d="M10.779,8.321c0,1.229-1.005,2.232-2.234,2.232h-4.29c-1.23,0-2.235-1.003-2.235-2.232v-4.29
				c0-1.229,1.005-2.236,2.235-2.236h4.29c1.229,0,2.234,1.007,2.234,2.236V8.321z"/>
			<path fill="#C6C6C5" d="M9.903,7.893c0,0.981-0.805,1.785-1.787,1.785H4.684c-0.983,0-1.788-0.804-1.788-1.785V4.46
				c0-0.983,0.805-1.789,1.788-1.789h3.433c0.982,0,1.787,0.806,1.787,1.789V7.893z"/>
		</g>
		<g>
			
				<linearGradient id="SVGID_3_" gradientUnits="userSpaceOnUse" x1="21.2266" y1="-219.9995" x2="13.7793" y2="-212.5523" gradientTransform="matrix(1 0 0 -1 0.1401 -198.4941)">
				<stop  offset="0" style="stop-color:#77787B"/>
				<stop  offset="0.3804" style="stop-color:#C7C8CA"/>
				<stop  offset="0.4911" style="stop-color:#C9CACC"/>
				<stop  offset="0.512" style="stop-color:#D0D1D3"/>
				<stop  offset="0.5679" style="stop-color:#DEDFE0"/>
				<stop  offset="0.6374" style="stop-color:#E8E8E9"/>
				<stop  offset="0.7345" style="stop-color:#EDEEEF"/>
				<stop  offset="1" style="stop-color:#EFEFF0"/>
			</linearGradient>
			<path fill="url(#SVGID_3_)" d="M22.022,19.928c0,1.229-1.005,2.232-2.235,2.232h-4.291c-1.229,0-2.235-1.003-2.235-2.232v-4.29
				c0-1.229,1.006-2.236,2.235-2.236h4.291c1.23,0,2.235,1.007,2.235,2.236V19.928z"/>
			<path fill="#5DB7DF" d="M21.146,19.499c0,0.981-0.805,1.785-1.788,1.785h-3.433c-0.983,0-1.787-0.804-1.787-1.785v-3.433
				c0-0.985,0.804-1.789,1.787-1.789h3.433c0.983,0,1.788,0.804,1.788,1.789V19.499z"/>
		</g>
		<g>
			
				<linearGradient id="SVGID_4_" gradientUnits="userSpaceOnUse" x1="21.2266" y1="-208.3931" x2="13.7793" y2="-200.9458" gradientTransform="matrix(1 0 0 -1 0.1401 -198.4941)">
				<stop  offset="0" style="stop-color:#77787B"/>
				<stop  offset="0.3804" style="stop-color:#C7C8CA"/>
				<stop  offset="0.4911" style="stop-color:#C9CACC"/>
				<stop  offset="0.512" style="stop-color:#D0D1D3"/>
				<stop  offset="0.5679" style="stop-color:#DEDFE0"/>
				<stop  offset="0.6374" style="stop-color:#E8E8E9"/>
				<stop  offset="0.7345" style="stop-color:#EDEEEF"/>
				<stop  offset="1" style="stop-color:#EFEFF0"/>
			</linearGradient>
			<path fill="url(#SVGID_4_)" d="M22.022,8.321c0,1.229-1.005,2.232-2.235,2.232h-4.291c-1.229,0-2.235-1.003-2.235-2.232v-4.29
				c0-1.229,1.006-2.236,2.235-2.236h4.291c1.23,0,2.235,1.007,2.235,2.236V8.321z"/>
			<path fill="#C6C6C5" d="M21.146,7.893c0,0.981-0.805,1.785-1.788,1.785h-3.433c-0.983,0-1.787-0.804-1.787-1.785V4.46
				c0-0.983,0.804-1.789,1.787-1.789h3.433c0.983,0,1.788,0.806,1.788,1.789V7.893z"/>
		</g>
		<circle fill="#CFCECE" stroke="#848484" stroke-width="0.75" stroke-miterlimit="10" cx="6.347" cy="6.222" r="1.856"/>
		
			<rect x="6.037" y="3.667" fill="#838585" stroke="#838585" stroke-width="0.75" stroke-linejoin="round" stroke-miterlimit="10" width="0.619" height="0.698"/>
		
			<line fill="none" stroke="#838585" stroke-width="0.75" stroke-linecap="round" stroke-miterlimit="10" x1="6.347" y1="6.22" x2="7.164" y2="5.867"/>
		<path fill="none" stroke="#838585" stroke-width="0.75" stroke-linecap="round" stroke-miterlimit="10" d="M8.553,17.782
			c0-0.832-0.493-1.509-1.104-1.509c-0.609,0-1.103,0.677-1.103,1.509c0,0.833-0.495,1.506-1.105,1.506
			c-0.608,0-1.103-0.673-1.103-1.506"/>
		<path fill="none" stroke="#838585" stroke-width="0.75" stroke-miterlimit="10" d="M10.779,8.321c0,1.229-1.005,2.232-2.234,2.232
			h-4.29c-1.23,0-2.235-1.003-2.235-2.232v-4.29c0-1.229,1.005-2.236,2.235-2.236h4.29c1.229,0,2.234,1.007,2.234,2.236V8.321z"/>
		<path fill="none" stroke="#838585" stroke-width="0.75" stroke-miterlimit="10" d="M22.022,8.321c0,1.229-1.005,2.232-2.235,2.232
			h-4.291c-1.229,0-2.235-1.003-2.235-2.232v-4.29c0-1.229,1.006-2.236,2.235-2.236h4.291c1.23,0,2.235,1.007,2.235,2.236V8.321z"/>
		<path fill="none" stroke="#838585" stroke-width="0.75" stroke-miterlimit="10" d="M10.779,19.928
			c0,1.229-1.005,2.232-2.234,2.232h-4.29c-1.23,0-2.235-1.003-2.235-2.232v-4.29c0-1.229,1.005-2.236,2.235-2.236h4.29
			c1.229,0,2.234,1.007,2.234,2.236V19.928z"/>
		<g>
			<path fill="#C6C6C5" d="M21.146,19.499c0,0.981-0.805,1.785-1.788,1.785h-3.433c-0.983,0-1.787-0.804-1.787-1.785v-3.433
				c0-0.985,0.804-1.789,1.787-1.789h3.433c0.983,0,1.788,0.804,1.788,1.789V19.499z"/>
			<path fill="none" stroke="#838585" stroke-width="0.75" stroke-miterlimit="10" d="M22.022,19.928
				c0,1.229-1.005,2.232-2.235,2.232h-4.291c-1.229,0-2.235-1.003-2.235-2.232v-4.29c0-1.229,1.006-2.236,2.235-2.236h4.291
				c1.23,0,2.235,1.007,2.235,2.236V19.928z"/>
		</g>
		
			<line fill="none" stroke="#838585" stroke-width="0.75" stroke-linecap="round" stroke-miterlimit="10" x1="15.622" y1="16.765" x2="15.622" y2="18.569"/>
		
			<line fill="none" stroke="#838585" stroke-width="0.75" stroke-linecap="round" stroke-miterlimit="10" x1="16.969" y1="17.452" x2="16.969" y2="18.569"/>
		
			<line fill="none" stroke="#838585" stroke-width="0.75" stroke-linecap="round" stroke-miterlimit="10" x1="18.314" y1="16.765" x2="18.314" y2="18.569"/>
		
			<line fill="none" stroke="#838585" stroke-width="0.75" stroke-linecap="round" stroke-miterlimit="10" x1="19.661" y1="17.452" x2="19.661" y2="18.569"/>
		
			<rect x="16.071" y="4.19" fill="#CFCECE" stroke="#848484" stroke-width="0.75" stroke-linecap="round" stroke-linejoin="round" stroke-miterlimit="10" width="3.216" height="3.888"/>
	</g>
</g>
</svg>
