<?xml version="1.0" encoding="UTF-8" standalone="no"?>
<svg
   width="42"
   height="42"
   viewBox="0 0 42 42"
   version="1.1"
   id="svg38508"
   inkscape:version="1.2 (dc2aedaf03, 2022-05-15)"
   sodipodi:docname="addInteractiveToLibrary.svg"
   inkscape:export-filename="/home/dmitry/git/OpenBoard/resources/images/stylusPalette/arrow_svg.png"
   inkscape:export-xdpi="96"
   inkscape:export-ydpi="96"
   xml:space="preserve"
   xmlns:inkscape="http://www.inkscape.org/namespaces/inkscape"
   xmlns:sodipodi="http://sodipodi.sourceforge.net/DTD/sodipodi-0.dtd"
   xmlns:xlink="http://www.w3.org/1999/xlink"
   xmlns="http://www.w3.org/2000/svg"
   xmlns:svg="http://www.w3.org/2000/svg"
   xmlns:rdf="http://www.w3.org/1999/02/22-rdf-syntax-ns#"
   xmlns:cc="http://creativecommons.org/ns#"
   xmlns:dc="http://purl.org/dc/elements/1.1/"><sodipodi:namedview
     id="namedview38510"
     pagecolor="#ffffff"
     bordercolor="#eeeeee"
     borderopacity="1"
     inkscape:pageshadow="0"
     inkscape:pageopacity="0"
     inkscape:pagecheckerboard="true"
     inkscape:document-units="px"
     showgrid="true"
     fit-margin-top="0"
     fit-margin-left="0"
     fit-margin-right="0"
     fit-margin-bottom="0"
     units="px"
     inkscape:zoom="8"
     inkscape:cx="33.125"
     inkscape:cy="25.0625"
     inkscape:window-width="1366"
     inkscape:window-height="695"
     inkscape:window-x="0"
     inkscape:window-y="0"
     inkscape:window-maximized="1"
     inkscape:current-layer="g965"
     inkscape:document-rotation="0"
     inkscape:snap-others="true"
     inkscape:snap-global="false"
     showguides="false"
     inkscape:guide-bbox="true"
     inkscape:showpageshadow="2"
     inkscape:deskcolor="#d1d1d1"
     inkscape:snap-bbox="true"
     inkscape:bbox-paths="true"
     inkscape:bbox-nodes="true"
     borderlayer="true"><inkscape:grid
       type="xygrid"
       id="grid7387"
       dotted="false" /></sodipodi:namedview><defs
     id="defs38505"><linearGradient
       inkscape:collect="always"
       id="linearGradient27001"><stop
         style="stop-color:#8ab442;stop-opacity:1"
         offset="0"
         id="stop26997" /><stop
         style="stop-color:#3d701d;stop-opacity:1"
         offset="1"
         id="stop26999" /></linearGradient><linearGradient
       inkscape:collect="always"
       id="linearGradient10628"><stop
         style="stop-color:#d9912f;stop-opacity:1;"
         offset="0"
         id="stop10624" /><stop
         style="stop-color:#ecc425;stop-opacity:1"
         offset="1"
         id="stop10626" /></linearGradient><linearGradient
       inkscape:collect="always"
       xlink:href="#linearGradient10628"
       id="linearGradient10630"
       x1="170.18895"
       y1="200.10382"
       x2="170.18895"
       y2="221.10382"
       gradientUnits="userSpaceOnUse"
       gradientTransform="translate(1.6585248,-0.8282953)" /><linearGradient
       inkscape:collect="always"
       xlink:href="#linearGradient27001"
       id="linearGradient20880"
       gradientUnits="userSpaceOnUse"
       gradientTransform="matrix(1.0909326,0,0,0.66716997,-13.816992,73.842569)"
       x1="170.18895"
       y1="208.1833"
       x2="170.18895"
       y2="221.10382" /></defs><g
     inkscape:label="icon"
     inkscape:groupmode="layer"
     id="layer1"
     transform="translate(-152.84748,-194.2822)"><g
       id="g965"
       inkscape:label="addToLibrary"
       style="display:inline;stroke:none"
       transform="translate(1.6585236,-0.82162285)"><g
         id="g1323"
         inkscape:label="background"
         transform="matrix(0,1.5347339,-1.4555392,0,538.97787,-93.430584)"
         style="display:inline"><rect
           style="fill:#808491;fill-opacity:0.964706;stroke:none;stroke-width:2.31911;stroke-linecap:round;stroke-linejoin:round;stroke-dasharray:none;stroke-dashoffset:0.2826;stroke-opacity:0.8;paint-order:stroke markers fill"
           id="rect13296"
           width="21.989235"
           height="22.124155"
           x="241.00061"
           y="-211.09285"
           ry="0.90068662"
           transform="rotate(90)" /><rect
           style="fill:#ffffff;fill-opacity:1;stroke:none;stroke-width:2.19987;stroke-linecap:round;stroke-linejoin:round;stroke-dasharray:none;stroke-dashoffset:0.2826;stroke-opacity:0.8;paint-order:stroke markers fill"
           id="rect13298"
           width="20.602842"
           height="20.806326"
           x="241.69444"
           y="-210.4382"
           ry="0.68334544"
           transform="rotate(90)" /><rect
           style="fill:#dedede;fill-opacity:0.996078;stroke:none;stroke-width:2.06042;stroke-linecap:round;stroke-linejoin:round;stroke-dasharray:none;stroke-dashoffset:0.2826;stroke-opacity:0.8;paint-order:stroke markers fill"
           id="rect5182"
           width="19.23617"
           height="19.548527"
           x="242.38147"
           y="-209.832"
           ry="0.64203525"
           transform="rotate(90)" /></g><g
         id="g31224"
         transform="translate(0.34084239,2.3138601)"><rect
           style="opacity:1;fill:url(#linearGradient10630);fill-opacity:1;stroke-width:0.93018"
           id="rect5520"
           width="23.999987"
           height="21.006681"
           x="159.84747"
           y="199.27551"
           ry="1.0066873" /><rect
           style="opacity:1;fill:#ffffff;fill-opacity:0.438204;stroke-width:1.3917"
           id="rect19780"
           width="22.000639"
           height="19.015541"
           x="160.84747"
           y="200.2822"
           ry="1.0000039" /><path
           id="rect20878"
           style="opacity:1;fill:url(#linearGradient20880);stroke-width:0.793568"
           d="m 183.84793,208.01745 0.002,11.23299 c 1.4e-4,0.61305 -0.53596,1.02938 -1.09309,1.03234 l -21.82871,-0.002 c -0.75505,-7e-5 -1.07476,-0.70149 -1.07493,-1.07359 l -0.005,-11.86058 c 3.2728,-3.90586 9.54509,4.93648 14.99973,4.93617 5.45461,-3.1e-4 4.63677,-5.671 9,-5 z"
           sodipodi:nodetypes="cscsscccc" /></g><g
         id="g1320"
         inkscape:label="circle"
         transform="translate(-9.0063179,-11.499901)"
         style="display:inline;stroke:none"><ellipse
           style="fill:#dfbd53;fill-opacity:1;stroke:#a49062;stroke-width:1.15772;stroke-miterlimit:4;stroke-dasharray:none;stroke-opacity:1"
           id="path7993"
           cx="183.18895"
           cy="219.10382"
           rx="7.4211421"
           ry="7.4211402" /><path
           id="ellipse42286"
           style="fill:#ffffff;fill-opacity:0.19;stroke:none;stroke-width:1.06659;stroke-miterlimit:4;stroke-dasharray:none;stroke-opacity:1"
           d="m 183.18896,212.26593 a 6.8370152,6.8370132 0 0 0 -6.83789,6.83789 6.8370152,6.8370132 0 0 0 0.0312,0.42188 6.8370152,6.8370132 0 0 1 6.80664,-6.41602 6.8370152,6.8370132 0 0 1 6.81445,6.3125 6.8370152,6.8370132 0 0 0 0.0234,-0.31836 6.8370152,6.8370132 0 0 0 -6.83789,-6.83789 z" /></g><g
         id="g1316"
         inkscape:label="green"
         transform="matrix(0.71318904,0,0,0.71318904,42.803272,64.475985)"
         style="display:inline;stroke:none"><rect
           style="fill:#9fab5a;fill-opacity:1;stroke:none;stroke-width:1.97303;stroke-linecap:round;stroke-linejoin:round;stroke-dasharray:none;stroke-dashoffset:0.2826;stroke-opacity:0.8;paint-order:stroke markers fill"
           id="rect24284"
           width="16.010756"
           height="21.993116"
           x="201.09477"
           y="-181.18896"
           ry="0.89535207"
           transform="rotate(90)" /><rect
           style="fill:#b1dc3b;fill-opacity:1;stroke:none;stroke-width:1.77805;stroke-linecap:round;stroke-linejoin:round;stroke-dasharray:none;stroke-dashoffset:0.2826;stroke-opacity:0.8;paint-order:stroke markers fill"
           id="rect24286"
           width="14.001705"
           height="20"
           x="202.10382"
           y="-180.18896"
           ry="0.65686321"
           transform="rotate(90)" /><path
           id="rect41356"
           style="fill:#ffffff;fill-opacity:0.194573;stroke-width:5.75629"
           d="m 160.85263,202.10383 h 18.67265 c 0.36768,0 0.66368,0.24886 0.66368,0.55798 v 0.44202 c -1,0 -19,0 -20,0 v -0.44202 c 0,-0.30912 0.296,-0.55798 0.66367,-0.55798 z"
           sodipodi:nodetypes="sssccss" /></g><g
         id="g1311"
         inkscape:label="hellow"
         transform="translate(-1.4897231,-1.7015193)"><path
           id="rect1186"
           style="fill:#73a3e5;fill-opacity:1;stroke:#5370a7;stroke-width:0.96676;stroke-miterlimit:4;stroke-dasharray:none;stroke-opacity:1"
           d="m 155.09592,214.59115 c -0.51301,0 -0.92575,0.40893 -0.92575,0.91717 v 9.68844 c 0,0.50826 0.41274,0.91716 0.92575,0.91716 l 5.09302,-0.008 5.00006,4.99827 v -4.99827 l 3.5901,0.008 c 0.51301,0.001 0.92577,-0.4089 0.92577,-0.91716 v -9.68844 c 0,-0.50824 -0.41276,-0.91717 -0.92577,-0.91717 z"
           sodipodi:nodetypes="sssscccsssss" /><path
           id="rect38425"
           style="fill:#ffffff;fill-opacity:0.194573;stroke-width:1.11545"
           d="m 155.09184,215.07838 h 13.69553 c 0.24072,0 0.43451,0.1938 0.43451,0.43451 v 0.15612 c 0,0.24071 -0.003,0.4359 -0.003,0.4359 l -14.56453,-0.006 c -4.7e-4,-0.17768 0.003,-0.34947 0.003,-0.42945 v -0.15612 c 0,-0.24071 0.19379,-0.43451 0.43451,-0.43451 z"
           sodipodi:nodetypes="ssssccssss" /></g><g
         id="g8180"
         transform="matrix(0.34684384,0,0,0.38103799,182.48257,219.06194)"
         inkscape:label="plus"><path
           id="rect3994"
           style="opacity:1;fill:#b9d31e;stroke:#758f1c;stroke-width:3;stroke-linecap:square;stroke-dasharray:none;stroke-opacity:1;paint-order:normal"
           d="M 0.10200004,-58.5 H 18.602 V -40 h 15 v -18.5 h 18.5 v -15 h -18.5 V -92 h -15 v 18.5 H 0.10200004 Z"
           inkscape:label="body"
           transform="matrix(0,0.7614145,-0.83766069,0,-48.396088,5.6484102)" /><path
           id="path4826"
           style="color:#000000;opacity:0.6;fill:#ffffff;stroke-linecap:square"
           d="M 1.8619177,6.8756319 V 20.134952 l 0.00164,0.819412 1.6180594,-0.0089 V 20.134974 8.496634 H 11.104002 11.91385 V 6.8756319 h -0.809848 z m 0.00164,14.0787321 H 0.97190325 -13.615172 v 8.400841 0.737621 h 1.783301 V 29.355205 22.428118 H 0.97190325 1.8635538 Z"
           inkscape:label="glare60" /><path
           id="path7109"
           style="color:#000000;opacity:0.5;fill:#ffffff;stroke-linecap:square;-inkscape-stroke:none"
           d="m 11.933479,20.960313 v 1.469292 h 0.890014 13.695425 0.890015 V 20.960313 H 26.518918 12.823493 Z m -10.0699252,9.134 v 0.807515 12.450317 0.807516 H 3.4783411 V 43.352145 30.901828 30.094313 Z"
           inkscape:label="glare50" /></g></g></g><metadata
     id="metadata854"><rdf:RDF><cc:Work
         rdf:about=""><cc:license
           rdf:resource="http://creativecommons.org/publicdomain/zero/1.0/" /><dc:format>image/svg+xml</dc:format><dc:type
           rdf:resource="http://purl.org/dc/dcmitype/StillImage" /></cc:Work><cc:License
         rdf:about="http://creativecommons.org/publicdomain/zero/1.0/"><cc:permits
           rdf:resource="http://creativecommons.org/ns#Reproduction" /><cc:permits
           rdf:resource="http://creativecommons.org/ns#Distribution" /><cc:permits
           rdf:resource="http://creativecommons.org/ns#DerivativeWorks" /></cc:License></rdf:RDF></metadata></svg>
