<?xml version="1.0" encoding="UTF-8" standalone="no"?>
<!-- Generator: Adobe Illustrator 13.0.2, SVG Export Plug-In . SVG Version: 6.00 Build 14948)  -->

<svg
   version="1.2"
   x="0px"
   y="0px"
   width="128px"
   height="128px"
   viewBox="0 0 128 128"
   xml:space="preserve"
   id="svg31"
   sodipodi:docname="addToolToLibrary.svg"
   inkscape:version="1.2 (dc2aedaf03, 2022-05-15)"
   xmlns:inkscape="http://www.inkscape.org/namespaces/inkscape"
   xmlns:sodipodi="http://sodipodi.sourceforge.net/DTD/sodipodi-0.dtd"
   xmlns:xlink="http://www.w3.org/1999/xlink"
   xmlns="http://www.w3.org/2000/svg"
   xmlns:svg="http://www.w3.org/2000/svg"
   xmlns:rdf="http://www.w3.org/1999/02/22-rdf-syntax-ns#"
   xmlns:cc="http://creativecommons.org/ns#"
   xmlns:a="http://ns.adobe.com/AdobeSVGViewerExtensions/3.0/"
   xmlns:ns0="&amp;#38;#38;#38;#38;#38;#38;#38;#38;#38;ns_sfw;"><defs
   id="defs35"><linearGradient
     id="linearGradient2163"><stop
       style="stop-color:#dbdbdb;stop-opacity:1;"
       offset="0"
       id="stop2159" /><stop
       style="stop-color:#767676;stop-opacity:1;"
       offset="1"
       id="stop2161" /></linearGradient><radialGradient
     id="SVGID_2_-3"
     cx="65.513702"
     cy="73.336899"
     r="91.522102"
     gradientUnits="userSpaceOnUse"
     gradientTransform="translate(-1.3194998,-5.4596779)"
     fx="65.513702"
     fy="73.336899"
     fr="0"
     spreadMethod="pad">
			<stop
   offset="0"
   style="stop-color:#F8DC00"
   id="stop16" />
			<stop
   offset="1"
   style="stop-color:#E76E34"
   id="stop18" />
			<a:midPointStop
   offset="0"
   style="stop-color:#F8DC00" />
			<a:midPointStop
   offset="0.5"
   style="stop-color:#F8DC00" />
			<a:midPointStop
   offset="1"
   style="stop-color:#E76E34" />
		</radialGradient><linearGradient
     id="linearGradient6732"><stop
       style="stop-color:#ffffff;stop-opacity:1;"
       offset="0"
       id="stop6734" /><stop
       style="stop-color:#efefef;stop-opacity:1;"
       offset="1"
       id="stop6736" /></linearGradient><linearGradient
     id="linearGradient5586"><stop
       style="stop-color:#bfbcb3;stop-opacity:1;"
       offset="0"
       id="stop5588" /><stop
       style="stop-color:#9c988a;stop-opacity:1;"
       offset="1"
       id="stop5590" /></linearGradient><linearGradient
     id="linearGradient5772"><stop
       id="stop5774"
       offset="0"
       style="stop-color:#e2b369;stop-opacity:1" /><stop
       id="stop5776"
       offset="1"
       style="stop-color:#c79b55;stop-opacity:1" /></linearGradient><linearGradient
     inkscape:collect="always"
     xlink:href="#linearGradient2163"
     id="linearGradient1305"
     gradientUnits="userSpaceOnUse"
     gradientTransform="matrix(0.97157202,0,0,1.2833342,-51.57898,-7.1929423)"
     x1="37.926636"
     y1="37.668934"
     x2="5.4959755"
     y2="10.982666" /><linearGradient
     inkscape:collect="always"
     xlink:href="#linearGradient2163"
     id="linearGradient784"
     gradientUnits="userSpaceOnUse"
     gradientTransform="matrix(0.97157202,0,0,1.2833342,-51.57898,-7.1929423)"
     x1="37.926636"
     y1="37.668934"
     x2="5.4959755"
     y2="10.982666" /><linearGradient
     inkscape:collect="always"
     xlink:href="#linearGradient6732"
     id="linearGradient1385"
     x1="10.277197"
     y1="5.666996"
     x2="16.01726"
     y2="5.666996"
     gradientUnits="userSpaceOnUse" /><linearGradient
     inkscape:collect="always"
     xlink:href="#linearGradient6732"
     id="linearGradient1387"
     x1="12.737224"
     y1="10.801759"
     x2="13.557232"
     y2="10.801759"
     gradientUnits="userSpaceOnUse" /><linearGradient
     inkscape:collect="always"
     xlink:href="#linearGradient6732"
     id="linearGradient1389"
     x1="11.917214"
     y1="14.730266"
     x2="14.377242"
     y2="14.730266"
     gradientUnits="userSpaceOnUse" /></defs><sodipodi:namedview
   id="namedview33"
   pagecolor="#505050"
   bordercolor="#eeeeee"
   borderopacity="1"
   inkscape:pageshadow="0"
   inkscape:pageopacity="0"
   inkscape:pagecheckerboard="0"
   showgrid="false"
   inkscape:zoom="5.0468751"
   inkscape:cx="114.72446"
   inkscape:cy="117.59752"
   inkscape:window-width="1366"
   inkscape:window-height="695"
   inkscape:window-x="0"
   inkscape:window-y="0"
   inkscape:window-maximized="1"
   inkscape:current-layer="g1293"
   inkscape:showpageshadow="2"
   inkscape:deskcolor="#505050" />
<metadata
   id="metadata2">
	<ns0:sfw>
		<ns0:slices />
		<ns0:sliceSourceBounds
   x="8.255"
   y="22.924"
   width="110.488"
   height="82.884"
   bottomLeftOrigin="true" />
	</ns0:sfw>
<rdf:RDF><cc:License
     rdf:about="http://creativecommons.org/publicdomain/zero/1.0/"><cc:permits
       rdf:resource="http://creativecommons.org/ns#Reproduction" /><cc:permits
       rdf:resource="http://creativecommons.org/ns#Distribution" /><cc:permits
       rdf:resource="http://creativecommons.org/ns#DerivativeWorks" /></cc:License><cc:Work
     rdf:about=""><cc:license
       rdf:resource="http://creativecommons.org/publicdomain/zero/1.0/" /></cc:Work></rdf:RDF></metadata>


<g
   transform="matrix(1.7356034,0,0,1.7355455,93.184546,18.847185)"
   id="g1293"
   inkscape:label="color"><g
     id="g780"
     inkscape:label="library"
     transform="translate(-2.1591352,-5.7014673)"><path
       id="path776"
       style="display:inline;overflow:visible;fill:url(#linearGradient784);fill-rule:evenodd;stroke:#939393;stroke-width:1.8333;marker:none;marker-start:none;marker-mid:none;marker-end:none;fill-opacity:1.0"
       d="m -45.068484,4.3570585 h 56.296882 c 1.453795,0 2.624179,1.1704306 2.624179,2.6242838 V 44.842299 c 0,1.453854 -1.170384,2.624284 -2.624179,2.624284 h -56.296882 c -1.453795,0 -2.624179,-1.17043 -2.624179,-2.624284 V 6.9813423 c 0,-1.4538532 1.170384,-2.6242838 2.624179,-2.6242838 z"
       sodipodi:nodetypes="sssssssss" /><path
       id="path778"
       style="display:inline;overflow:visible;fill:none;fill-rule:evenodd;stroke:#ffffff;stroke-width:1.84377;marker:none;marker-start:none;marker-mid:none;marker-end:none"
       d="m -44.797968,6.1956257 h 55.965506 c 0.585093,0 1.056125,0.4710485 1.056125,1.0561625 V 44.781207 c 0,0.585114 -0.471032,1.056162 -1.056125,1.056162 h -55.965506 c -0.585094,0 -1.056126,-0.471048 -1.056126,-1.056162 V 7.2517882 c 0,-0.585114 0.471032,-1.0561625 1.056126,-1.0561625 z"
       sodipodi:nodetypes="sssssssss" /></g><g
     id="g774"
     inkscape:label="library"
     transform="translate(2.304674,1.1523754)"><path
       id="rect1287"
       style="display:inline;overflow:visible;fill:url(#linearGradient1305);fill-rule:evenodd;stroke:#939393;stroke-width:1.8333;marker:none;marker-start:none;marker-mid:none;marker-end:none"
       d="m -45.068484,4.3570585 h 56.296882 c 1.453795,0 2.624179,1.1704306 2.624179,2.6242838 V 44.842299 c 0,1.453854 -1.170384,2.624284 -2.624179,2.624284 h -56.296882 c -1.453795,0 -2.624179,-1.17043 -2.624179,-2.624284 V 6.9813423 c 0,-1.4538532 1.170384,-2.6242838 2.624179,-2.6242838 z"
       sodipodi:nodetypes="sssssssss" /><path
       id="rect1289"
       style="display:inline;overflow:visible;fill:none;fill-rule:evenodd;stroke:#ffffff;stroke-width:1.84377;marker:none;marker-start:none;marker-mid:none;marker-end:none"
       d="m -44.797968,6.1956257 h 55.965506 c 0.585093,0 1.056125,0.4710485 1.056125,1.0561625 V 44.781207 c 0,0.585114 -0.471032,1.056162 -1.056125,1.056162 h -55.965506 c -0.585094,0 -1.056126,-0.471048 -1.056126,-1.056162 V 7.2517882 c 0,-0.585114 0.471032,-1.0561625 1.056126,-1.0561625 z"
       sodipodi:nodetypes="sssssssss" /></g><g
     id="g14046"
     inkscape:label="wrench"
     transform="matrix(0,2.7811734,-2.7573896,0,11.275606,-10.652901)"><rect
       style="opacity:1;fill:#565656;fill-opacity:1;stroke:none;stroke-width:1.22763;stroke-linecap:round;stroke-linejoin:round;stroke-dashoffset:0.2826;stroke-opacity:1;paint-order:stroke markers fill"
       id="rect33692"
       width="4.1000438"
       height="7.4434876"
       x="11.097206"
       y="11.008522"
       ry="1.6541085" /><path
       id="path37731"
       style="opacity:1;fill:#565656;fill-opacity:1;stroke:none;stroke-width:0.826228;stroke-linecap:round;stroke-linejoin:round;stroke-dashoffset:0.2826;stroke-opacity:1;paint-order:stroke markers fill"
       d="M 13.967237,1.9989624 V 4.805616 c -0.221925,0.1138502 -0.820009,0.4135271 -0.820009,0.4135271 0,0 -0.55793,-0.2744003 -0.820009,-0.4135271 V 1.9997701 c -1.678601,0.3644383 -2.8695627,1.7861648 -2.8700306,3.4261365 1e-7,1.9412699 1.6520866,3.51498 3.6900396,3.5149802 2.037953,1e-7 3.69004,-1.5737102 3.69004,-3.5149802 -7.2e-5,-1.6402741 -1.191121,-3.0624388 -2.870031,-3.4269442 z"
       sodipodi:nodetypes="ccccccscc" /><rect
       style="opacity:1;fill:#565656;fill-opacity:1;stroke:none;stroke-width:0.672403;stroke-linecap:round;stroke-linejoin:round;stroke-dashoffset:0.2826;stroke-opacity:1;paint-order:stroke markers fill"
       id="rect36847"
       width="2.4600263"
       height="3.7217438"
       x="11.917214"
       y="8.1138325"
       ry="0" /><rect
       style="opacity:1;fill:#c1c1c1;fill-opacity:1;stroke:none;stroke-width:1.03523;stroke-linecap:round;stroke-linejoin:round;stroke-dashoffset:0.2826;stroke-opacity:1;paint-order:stroke markers fill"
       id="rect35922"
       width="3.2800345"
       height="6.6164346"
       x="11.507211"
       y="11.422049"
       ry="1.240582" /><rect
       style="opacity:1;fill:#c1c1c1;fill-opacity:1;stroke:none;stroke-width:0.578711;stroke-linecap:round;stroke-linejoin:round;stroke-dashoffset:0.2826;stroke-opacity:1;paint-order:stroke markers fill"
       id="rect36849"
       width="1.6400174"
       height="4.1352725"
       x="12.327219"
       y="8.1138315"
       ry="3.5373756e-07" /><rect
       style="opacity:1;fill:url(#linearGradient1389);fill-opacity:1.0;stroke:none;stroke-width:0.838632;stroke-linecap:round;stroke-linejoin:round;stroke-dashoffset:0.2826;stroke-opacity:1;paint-order:stroke markers fill"
       id="rect36686"
       width="2.4600272"
       height="5.7893801"
       x="11.917214"
       y="11.835576"
       ry="0.8270545" /><path
       id="ellipse37871"
       style="opacity:1;fill:#c1c1c1;fill-opacity:1;stroke:none;stroke-width:0.73172;stroke-linecap:round;stroke-linejoin:round;stroke-dashoffset:0.2826;stroke-opacity:1;paint-order:stroke markers fill"
       d="m 14.377241,2.5506011 v 2.668542 c -0.474,0.201413 -1.228279,0.5079291 -1.228279,0.5079291 0,0 -0.848535,-0.3327734 -1.231747,-0.5079291 V 2.5538318 c -1.237944,0.4735076 -2.048709,1.6093868 -2.0500222,2.8720748 0,1.7128852 1.4685222,3.101453 3.2800352,3.1014531 1.811513,-2e-7 3.280035,-1.388568 3.280035,-3.1014531 7.8e-5,-1.2638656 -0.810924,-2.4013559 -2.050022,-2.8753055 z"
       sodipodi:nodetypes="ccccccscc" /><path
       id="ellipse38011"
       style="opacity:1;fill:url(#linearGradient1385);fill-opacity:1.0;stroke:none;stroke-width:0.637199;stroke-linecap:round;stroke-linejoin:round;stroke-dashoffset:0.2826;stroke-opacity:1;paint-order:stroke markers fill"
       d="M 14.787246,3.2201596 V 5.380677 c -0.420274,0.2300448 -1.640018,0.8012087 -1.640018,0.8012087 0,0 -1.265384,-0.5759728 -1.640018,-0.7430564 v -2.215439 c -0.769598,0.5018765 -1.228849,1.324232 -1.230013,2.2025163 0,1.4845006 1.284957,2.6879261 2.870031,2.687926 1.585074,10e-8 2.870031,-1.2034254 2.870031,-2.687926 -3.6e-5,-0.8794263 -0.459416,-1.7032176 -1.230013,-2.205747 z"
       sodipodi:nodetypes="ccccccscc" /><rect
       style="opacity:1;fill:url(#linearGradient1387);fill-opacity:1.0;stroke:none;stroke-width:0.501178;stroke-linecap:round;stroke-linejoin:round;stroke-dashoffset:0.2826;stroke-opacity:1;paint-order:stroke markers fill"
       id="rect36851"
       width="0.82000881"
       height="6.2029071"
       x="12.737224"
       y="7.7003055"
       ry="1.1920928e-06" /><ellipse
       style="fill:#c1c1c1;fill-opacity:1;stroke-width:0.80117;stroke-linecap:round;stroke-linejoin:round;stroke-dashoffset:0.2826;paint-order:stroke markers fill"
       id="ellipse8639"
       cx="13.147228"
       cy="16.645424"
       rx="0.41000441"
       ry="0.41352707" /><ellipse
       style="fill:#565656;fill-opacity:1;stroke-width:0.80117;stroke-linecap:round;stroke-linejoin:round;stroke-dashoffset:0.2826;paint-order:stroke markers fill"
       id="path6881"
       cx="13.147228"
       cy="16.797901"
       rx="0.41000441"
       ry="0.41352707" /></g><g
     id="g853"
     transform="matrix(1.9073448,0,0,1.9074084,-341.0016,-381.89486)"><g
       id="g8180"
       transform="matrix(0.34684384,0,0,0.38103799,178.77273,215.38016)"
       inkscape:label="plus"
       style="display:inline;stroke:none"><path
         id="rect3994"
         style="opacity:1;fill:#b9d31e;stroke:#758f1c;stroke-width:3;stroke-linecap:square;stroke-dasharray:none;stroke-opacity:1;paint-order:normal"
         d="M 0.10200004,-58.5 H 18.602 V -40 h 15 v -18.5 h 18.5 v -15 h -18.5 V -92 h -15 v 18.5 H 0.10200004 Z"
         inkscape:label="body"
         transform="matrix(0,0.7614145,-0.83766069,0,-48.396088,5.6484102)" /><path
         id="path4826"
         style="color:#000000;opacity:0.6;fill:#ffffff;stroke-linecap:square"
         d="M 1.8619177,6.8756319 V 20.134952 l 0.00164,0.819412 1.6180594,-0.0089 V 20.134974 8.496634 H 11.104002 11.91385 V 6.8756319 h -0.809848 z m 0.00164,14.0787321 H 0.97190325 -13.615172 v 8.400841 0.737621 h 1.783301 V 29.355205 22.428118 H 0.97190325 1.8635538 Z"
         inkscape:label="glare60" /><path
         id="path7109"
         style="color:#000000;opacity:0.5;fill:#ffffff;stroke-linecap:square;-inkscape-stroke:none"
         d="m 11.933479,20.960313 v 1.469292 h 0.890014 13.695425 0.890015 V 20.960313 H 26.518918 12.823493 Z m -10.0699252,9.134 v 0.807515 12.450317 0.807516 H 3.4783411 V 43.352145 30.901828 30.094313 Z"
         inkscape:label="glare50" /></g></g></g></svg>
