<?xml version="1.0" encoding="UTF-8" standalone="no"?>
<!-- Created with Inkscape (http://www.inkscape.org/) -->

<svg
   width="42"
   height="42"
   viewBox="0 0 42 42"
   version="1.1"
   id="SVGRoot"
   sodipodi:docname="addToDocument.svg"
   inkscape:version="1.2 (dc2aedaf03, 2022-05-15)"
   xml:space="preserve"
   xmlns:inkscape="http://www.inkscape.org/namespaces/inkscape"
   xmlns:sodipodi="http://sodipodi.sourceforge.net/DTD/sodipodi-0.dtd"
   xmlns:xlink="http://www.w3.org/1999/xlink"
   xmlns="http://www.w3.org/2000/svg"
   xmlns:svg="http://www.w3.org/2000/svg"
   xmlns:rdf="http://www.w3.org/1999/02/22-rdf-syntax-ns#"
   xmlns:cc="http://creativecommons.org/ns#"><sodipodi:namedview
     id="namedview1017"
     pagecolor="#ffffff"
     bordercolor="#666666"
     borderopacity="1.0"
     inkscape:pageshadow="2"
     inkscape:pageopacity="0"
     inkscape:pagecheckerboard="true"
     inkscape:document-units="px"
     showgrid="true"
     inkscape:zoom="32"
     inkscape:cx="33.78125"
     inkscape:cy="34.984375"
     inkscape:window-width="1366"
     inkscape:window-height="695"
     inkscape:window-x="0"
     inkscape:window-y="0"
     inkscape:window-maximized="1"
     inkscape:current-layer="g906"
     inkscape:snap-global="true"
     showborder="true"
     borderlayer="false"
     inkscape:showpageshadow="false"
     inkscape:deskcolor="#d1d1d1"
     width="42px"><inkscape:grid
       type="xygrid"
       id="grid1080"
       originx="0"
       originy="0" /></sodipodi:namedview><defs
     id="defs1012"><linearGradient
       inkscape:collect="always"
       id="linearGradient8740"><stop
         style="stop-color:#e3f0f2;stop-opacity:1;"
         offset="0"
         id="stop8736" /><stop
         style="stop-color:#dcdddd;stop-opacity:1;"
         offset="1"
         id="stop8738" /></linearGradient><linearGradient
       inkscape:collect="always"
       xlink:href="#linearGradient8740"
       id="linearGradient8742"
       x1="24.217346"
       y1="17.211428"
       x2="24.217346"
       y2="2.3244536"
       gradientUnits="userSpaceOnUse"
       gradientTransform="matrix(0.9285712,0,0,0.9444445,-12.210332,0.54266321)" /></defs><g
     inkscape:label="icon"
     inkscape:groupmode="layer"
     id="layer1"
     transform="matrix(2.4389982,0,0,2.4182213,-4.0660654,-3.6210429)"><g
       id="g906"
       inkscape:label="pdf"><path
         id="rect355"
         style="fill:#8b8b8b;stroke-width:0.408814;stroke-linecap:round;stroke-linejoin:round;stroke-dashoffset:0.2826;paint-order:markers fill stroke"
         d="m 4.1271345,1.9109269 h 8.2083685 l 4.09176,3.723922 V 17.624952 c 0,2e-6 -2e-6,4e-6 -4e-6,4e-6 H 4.1271345 c -2e-6,0 -3e-6,-2e-6 -3e-6,-4e-6 V 1.9109304 c 0,-2e-6 1e-6,-3.5e-6 3e-6,-3.5e-6 z"
         sodipodi:nodetypes="sccssssss"
         inkscape:label="border" /><path
         id="rect5535"
         style="display:inline;fill:#eff2f3;stroke-width:0.384418;stroke-linecap:round;stroke-linejoin:round;stroke-dashoffset:0.2826;paint-order:markers fill stroke"
         d="m 4.5371405,2.3244541 7.6042965,-3e-7 3.875824,3.5397969 V 17.211425 c 0,2e-6 -2e-6,3e-6 -3e-6,3e-6 H 4.5371405 c -2e-6,0 -4e-6,-1e-6 -4e-6,-3e-6 V 2.3244574 c 0,-1.8e-6 2e-6,-3.3e-6 4e-6,-3.3e-6 z"
         sodipodi:nodetypes="sccssssss"
         inkscape:label="glare" /><path
         id="rect7469"
         style="display:inline;fill:url(#linearGradient8742);stroke-width:0.359997;stroke-linecap:round;stroke-linejoin:round;stroke-dashoffset:0.2826;paint-order:markers fill stroke"
         d="m 4.9471455,2.7379809 h 6.9700695 l 3.69004,3.3082166 V 16.797899 c 0,2e-6 -1e-6,3e-6 -3e-6,3e-6 H 4.9471455 c -2e-6,0 -3e-6,-1e-6 -3e-6,-3e-6 V 2.7379839 c 0,-1.7e-6 1e-6,-3e-6 3e-6,-3e-6 z"
         sodipodi:nodetypes="sccssssss"
         inkscape:label="body" /><path
         style="fill:#eff2f3;fill-opacity:1;stroke:none;stroke-width:0.411762px;stroke-linecap:butt;stroke-linejoin:miter;stroke-opacity:1"
         d="M 11.917215,2.3244538 V 6.0461975 H 16.01726 Z"
         id="path18165"
         inkscape:label="triangle" /><path
         id="rect18219"
         style="display:inline;opacity:1;fill:#8b8b8b;fill-opacity:1;stroke:none;stroke-width:0.434035;stroke-linecap:round;stroke-linejoin:round;stroke-dashoffset:0.2826;stroke-opacity:1;paint-order:markers fill stroke"
         d="m 11.507211,2.3244538 v 3.7217437 0.4135271 h 0.410004 4.100044 V 6.0461975 H 11.917215 V 2.3244538 Z"
         inkscape:label="borderTriangle" /><g
         id="g853"
         transform="matrix(0.44508205,0,0,0.4489061,-65.315611,-85.785729)"><g
           id="g8180"
           transform="matrix(0.34684384,0,0,0.38103799,178.77273,215.38016)"
           inkscape:label="plus"
           style="display:inline;stroke:none"><path
             id="rect3994"
             style="opacity:1;fill:#b9d31e;stroke:#758f1c;stroke-width:3;stroke-linecap:square;stroke-dasharray:none;stroke-opacity:1;paint-order:normal"
             d="M 0.10200004,-58.5 H 18.602 V -40 h 15 v -18.5 h 18.5 v -15 h -18.5 V -92 h -15 v 18.5 H 0.10200004 Z"
             inkscape:label="body"
             transform="matrix(0,0.7614145,-0.83766069,0,-48.396088,5.6484102)" /><path
             id="path4826"
             style="color:#000000;opacity:0.6;fill:#ffffff;stroke-linecap:square"
             d="M 1.8619177,6.8756319 V 20.134952 l 0.00164,0.819412 1.6180594,-0.0089 V 20.134974 8.496634 H 11.104002 11.91385 V 6.8756319 h -0.809848 z m 0.00164,14.0787321 H 0.97190325 -13.615172 v 8.400841 0.737621 h 1.783301 V 29.355205 22.428118 H 0.97190325 1.8635538 Z"
             inkscape:label="glare60" /><path
             id="path7109"
             style="color:#000000;opacity:0.5;fill:#ffffff;stroke-linecap:square;-inkscape-stroke:none"
             d="m 11.933479,20.960313 v 1.469292 h 0.890014 13.695425 0.890015 V 20.960313 H 26.518918 12.823493 Z m -10.0699252,9.134 v 0.807515 12.450317 0.807516 H 3.4783411 V 43.352145 30.901828 30.094313 Z"
             inkscape:label="glare50" /></g></g></g></g><metadata
     id="metadata1158"><rdf:RDF><cc:Work
         rdf:about=""><cc:license
           rdf:resource="http://creativecommons.org/publicdomain/zero/1.0/" /></cc:Work><cc:License
         rdf:about="http://creativecommons.org/publicdomain/zero/1.0/"><cc:permits
           rdf:resource="http://creativecommons.org/ns#Reproduction" /><cc:permits
           rdf:resource="http://creativecommons.org/ns#Distribution" /><cc:permits
           rdf:resource="http://creativecommons.org/ns#DerivativeWorks" /></cc:License></rdf:RDF></metadata></svg>
