<?xml version="1.0" encoding="UTF-8" standalone="no"?>
<!-- Generator: Adobe Illustrator 13.0.2, SVG Export Plug-In . SVG Version: 6.00 Build 14948)  -->

<svg
   version="1.2"
   x="0px"
   y="0px"
   width="128px"
   height="128px"
   viewBox="0 0 128 128"
   xml:space="preserve"
   id="svg31"
   sodipodi:docname="bookmarks.svg"
   inkscape:version="1.2 (dc2aedaf03, 2022-05-15)"
   xmlns:inkscape="http://www.inkscape.org/namespaces/inkscape"
   xmlns:sodipodi="http://sodipodi.sourceforge.net/DTD/sodipodi-0.dtd"
   xmlns:xlink="http://www.w3.org/1999/xlink"
   xmlns="http://www.w3.org/2000/svg"
   xmlns:svg="http://www.w3.org/2000/svg"
   xmlns:rdf="http://www.w3.org/1999/02/22-rdf-syntax-ns#"
   xmlns:cc="http://creativecommons.org/ns#"
   xmlns:ns0="&amp;#38;#38;#38;#38;#38;#38;#38;ns_sfw;"><defs
   id="defs35"><linearGradient
     inkscape:collect="always"
     id="linearGradient45548"><stop
       style="stop-color:#fe881d;stop-opacity:1;"
       offset="0"
       id="stop45544" /><stop
       style="stop-color:#fcac62;stop-opacity:1;"
       offset="1"
       id="stop45546" /></linearGradient><linearGradient
     inkscape:collect="always"
     id="linearGradient33858"><stop
       style="stop-color:#5887ca;stop-opacity:1;"
       offset="0"
       id="stop33854" /><stop
       style="stop-color:#80aff3;stop-opacity:1;"
       offset="1"
       id="stop33856" /></linearGradient><linearGradient
     inkscape:collect="always"
     id="linearGradient28254"><stop
       style="stop-color:#4c4c4c;stop-opacity:1;"
       offset="0"
       id="stop28250" /><stop
       style="stop-color:#8b8b8b;stop-opacity:1;"
       offset="1"
       id="stop28252" /></linearGradient><linearGradient
     inkscape:collect="always"
     xlink:href="#linearGradient28254"
     id="linearGradient28256"
     x1="-42.16663"
     y1="55.402069"
     x2="-42.16663"
     y2="12.187992"
     gradientUnits="userSpaceOnUse" /><linearGradient
     inkscape:collect="always"
     xlink:href="#linearGradient33858"
     id="linearGradient33860"
     x1="-72.345924"
     y1="52.461426"
     x2="-72.345924"
     y2="-5.1573458"
     gradientUnits="userSpaceOnUse" /><linearGradient
     inkscape:collect="always"
     xlink:href="#linearGradient45548"
     id="linearGradient39777"
     gradientUnits="userSpaceOnUse"
     x1="-42.13369"
     y1="54.382118"
     x2="-42.16663"
     y2="12.187992"
     gradientTransform="matrix(0.74999657,0,0,0.67499696,-11.185674,-3.1709295)" /></defs><sodipodi:namedview
   id="namedview33"
   pagecolor="#505050"
   bordercolor="#eeeeee"
   borderopacity="1"
   inkscape:pageshadow="0"
   inkscape:pageopacity="0"
   inkscape:pagecheckerboard="0"
   showgrid="true"
   inkscape:zoom="2.8284271"
   inkscape:cx="100.76272"
   inkscape:cy="75.837202"
   inkscape:window-width="1366"
   inkscape:window-height="695"
   inkscape:window-x="0"
   inkscape:window-y="0"
   inkscape:window-maximized="1"
   inkscape:current-layer="g1293"
   inkscape:showpageshadow="2"
   inkscape:deskcolor="#505050"><inkscape:grid
     type="xygrid"
     id="grid12952" /></sodipodi:namedview>
<metadata
   id="metadata2">
	<ns0:sfw>
		<ns0:slices />
		<ns0:sliceSourceBounds
   x="8.255"
   y="22.924"
   width="110.488"
   height="82.884"
   bottomLeftOrigin="true" />
	</ns0:sfw>
<rdf:RDF><cc:Work
     rdf:about=""><cc:license
       rdf:resource="http://creativecommons.org/publicdomain/zero/1.0/" /></cc:Work><cc:License
     rdf:about="http://creativecommons.org/publicdomain/zero/1.0/"><cc:permits
       rdf:resource="http://creativecommons.org/ns#Reproduction" /><cc:permits
       rdf:resource="http://creativecommons.org/ns#Distribution" /><cc:permits
       rdf:resource="http://creativecommons.org/ns#DerivativeWorks" /></cc:License></rdf:RDF></metadata>


<g
   transform="matrix(1.7356034,0,0,1.7355455,93.184546,18.847185)"
   id="g1293"
   inkscape:label="color"><g
     id="g23133"
     transform="translate(61.86856,2.9406449)"
     inkscape:label="g23133"><path
       id="rect23127"
       style="fill:#56699e;fill-opacity:0.9959;stroke-width:1.44138;stroke-linecap:round;stroke-linejoin:round;stroke-dashoffset:0.2826;paint-order:markers fill stroke"
       d="m -94.408423,-9.7668476 h 41.244159 c 0.545269,0 0.984239,0.4389706 0.984239,0.984239 V 56.08669 c 0,0.545268 -0.43897,0.984239 -0.984239,0.984239 h -41.244159 c -0.545268,0 -0.984239,-0.438971 -0.984239,-0.984239 V -8.7826086 c 0,-0.5452684 0.438971,-0.984239 0.984239,-0.984239 z"
       sodipodi:nodetypes="sssssssss" /><path
       id="rect23129"
       style="fill:#b2ccec;stroke-width:1.16282;stroke-linecap:round;stroke-linejoin:round;stroke-dashoffset:0.2826;paint-order:markers fill stroke"
       d="m -91.541119,-7.0053215 h 35.5791 c 0.499237,0 0.901149,0.4019126 0.901149,0.9011493 V 53.288842 c 0,0.499236 -0.401912,0.901149 -0.901149,0.901149 h -35.5791 c -0.499237,0 -0.901149,-0.401913 -0.901149,-0.901149 V -6.1041722 c 0,-0.4992367 0.401912,-0.9011493 0.901149,-0.9011493 z"
       sodipodi:nodetypes="sssssssss" /><path
       id="rect23131"
       style="fill:url(#linearGradient33860);stroke-width:0.876116;stroke-linecap:round;stroke-linejoin:round;stroke-dashoffset:0.2826;paint-order:markers fill stroke;fill-opacity:1"
       d="m -88.7825,-5.1573462 h 29.992305 c 0.470059,0 0.848482,0.3784229 0.848482,0.8484818 V 51.612942 c 0,0.470059 -0.378423,0.848482 -0.848482,0.848482 H -88.7825 c -0.470059,0 -0.848481,-0.378423 -0.848481,-0.848482 V -4.3088644 c 0,-0.4700589 0.378422,-0.8484818 0.848481,-0.8484818 z"
       sodipodi:nodetypes="sssssssss" /></g><g
     id="g23119"><path
       id="rect21376"
       style="fill:#434444;stroke-width:1.44138;stroke-linecap:round;stroke-linejoin:round;stroke-dashoffset:0.2826;paint-order:markers fill stroke"
       d="m -51.265338,-6.8262029 h 18.19742 c 0.545268,0 0.984239,0.4389706 0.984239,0.984239 V 59.027334 c 0,0.545269 -0.438971,0.984239 -0.984239,0.984239 h -18.19742 c -0.545268,0 -0.984239,-0.43897 -0.984239,-0.984239 V -5.8419639 c 0,-0.5452684 0.438971,-0.984239 0.984239,-0.984239 z" /><path
       id="rect12586"
       style="fill:#a6a9ad;stroke-width:1.16282;stroke-linecap:round;stroke-linejoin:round;stroke-dashoffset:0.2826;paint-order:markers fill stroke"
       d="m -48.398034,-4.0646768 h 12.53236 c 0.499237,0 0.90115,0.4019126 0.90115,0.9011493 V 56.229486 c 0,0.499237 -0.401913,0.90115 -0.90115,0.90115 h -12.53236 c -0.499236,0 -0.901149,-0.401913 -0.901149,-0.90115 V -3.1635275 c 0,-0.4992367 0.401913,-0.9011493 0.901149,-0.9011493 z" /><path
       id="rect17258"
       style="fill:url(#linearGradient28256);stroke-width:0.876116;stroke-linecap:round;stroke-linejoin:round;stroke-dashoffset:0.2826;paint-order:markers fill stroke;fill-opacity:1"
       d="m -45.63941,-2.2167013 h 6.945564 c 0.470059,0 0.848482,0.378423 0.848482,0.8484819 V 54.553587 c 0,0.470059 -0.378423,0.848482 -0.848482,0.848482 h -6.945564 c -0.470059,0 -0.848482,-0.378423 -0.848482,-0.848482 V -1.3682194 c 0,-0.4700589 0.378423,-0.8484819 0.848482,-0.8484819 z" /></g><g
     id="g39775"
     transform="translate(27.368001)"><path
       id="path39769"
       style="fill:#bc5e28;fill-opacity:1;stroke-width:1.23104;stroke-linecap:round;stroke-linejoin:round;stroke-dashoffset:0.2826;paint-order:markers fill stroke"
       d="m -49.030594,-8.5564458 h 12.361942 c 0.525791,0 0.948731,0.3320649 0.949082,0.7445395 l 0.03912,45.9283453 h -5.185488 l -1.944559,-3.889249 -1.944561,3.889249 h -5.185499 l -0.03913,-45.9283453 c -3.51e-4,-0.4124747 0.423292,-0.7445395 0.949083,-0.7445395 z"
       sodipodi:nodetypes="ssscccccsss" /><path
       id="path39771"
       style="fill:#fcc46f;fill-opacity:1;stroke-width:0.935604;stroke-linecap:round;stroke-linejoin:round;stroke-dashoffset:0.2826;paint-order:markers fill stroke"
       d="m -47.146825,-6.6099308 h 8.672648 c 0.448766,0 0.809723,0.2894529 0.810047,0.6489973 L -37.625,36.171815 h -2.592745 l -2.592747,-4.523056 -2.592746,4.523056 h -2.592747 l 0.03912,-42.1327485 c 3.34e-4,-0.3595444 0.361281,-0.6489973 0.810047,-0.6489973 z"
       sodipodi:nodetypes="ssscccccss" /><path
       id="path39773"
       style="fill:url(#linearGradient39777);fill-opacity:1;stroke-width:0.623365;stroke-linecap:round;stroke-linejoin:round;stroke-dashoffset:0.2826;paint-order:markers fill stroke"
       d="m -45.415075,-4.6671963 h 5.209148 c 0.352543,0 0.636359,0.2554344 0.636359,0.5727227 V 34.22719 c 0,0 -0.283816,-0.0019 -0.636359,-0.0019 l -2.604573,-5.183754 -2.592747,5.185666 h -0.648187 V -4.0944736 c 0,-0.3172883 0.283816,-0.5727227 0.636359,-0.5727227 z"
       sodipodi:nodetypes="ssscscccss" /></g></g></svg>
