<?xml version="1.0" encoding="UTF-8" standalone="no"?>
<svg
   width="42"
   height="42"
   viewBox="0 0 42 42"
   version="1.1"
   id="svg38508"
   inkscape:version="1.2 (dc2aedaf03, 2022-05-15)"
   sodipodi:docname="captureScreen.svg"
   inkscape:export-filename="/home/dmitry/git/OpenBoard/resources/images/stylusPalette/arrow_svg.png"
   inkscape:export-xdpi="96"
   inkscape:export-ydpi="96"
   xml:space="preserve"
   xmlns:inkscape="http://www.inkscape.org/namespaces/inkscape"
   xmlns:sodipodi="http://sodipodi.sourceforge.net/DTD/sodipodi-0.dtd"
   xmlns:xlink="http://www.w3.org/1999/xlink"
   xmlns="http://www.w3.org/2000/svg"
   xmlns:svg="http://www.w3.org/2000/svg"
   xmlns:rdf="http://www.w3.org/1999/02/22-rdf-syntax-ns#"
   xmlns:cc="http://creativecommons.org/ns#"
   xmlns:dc="http://purl.org/dc/elements/1.1/"><sodipodi:namedview
     id="namedview38510"
     pagecolor="#ffffff"
     bordercolor="#eeeeee"
     borderopacity="1"
     inkscape:pageshadow="0"
     inkscape:pageopacity="0"
     inkscape:pagecheckerboard="false"
     inkscape:document-units="px"
     showgrid="true"
     fit-margin-top="0"
     fit-margin-left="0"
     fit-margin-right="0"
     fit-margin-bottom="0"
     units="px"
     inkscape:zoom="32"
     inkscape:cx="9.1875"
     inkscape:cy="40.046875"
     inkscape:window-width="1366"
     inkscape:window-height="695"
     inkscape:window-x="0"
     inkscape:window-y="0"
     inkscape:window-maximized="1"
     inkscape:current-layer="g965"
     inkscape:document-rotation="0"
     inkscape:snap-others="true"
     inkscape:snap-global="false"
     showguides="false"
     inkscape:guide-bbox="true"
     inkscape:showpageshadow="2"
     inkscape:deskcolor="#d1d1d1"><inkscape:grid
       type="xygrid"
       id="grid7387"
       dotted="false" /></sodipodi:namedview><defs
     id="defs38505"><filter
       inkscape:collect="always"
       style="color-interpolation-filters:sRGB"
       id="filter30280"
       x="-0.015261765"
       y="-0.024631228"
       width="1.0305235"
       height="1.0492625"><feGaussianBlur
         inkscape:collect="always"
         stdDeviation="0.022278464"
         id="feGaussianBlur30282" /></filter><linearGradient
       inkscape:collect="always"
       xlink:href="#linearGradient6732"
       id="linearGradient1305"
       gradientUnits="userSpaceOnUse"
       gradientTransform="matrix(0.91593848,0,0,1.0598934,150.39833,192.97888)"
       x1="37.926636"
       y1="37.668934"
       x2="5.4959755"
       y2="10.982666" /><linearGradient
       id="linearGradient6732"><stop
         style="stop-color:#3962b4;stop-opacity:1;"
         offset="0"
         id="stop6734" /><stop
         style="stop-color:#729ef6;stop-opacity:1;"
         offset="1"
         id="stop6736" /></linearGradient></defs><g
     inkscape:label="icon"
     inkscape:groupmode="layer"
     id="layer1"
     transform="translate(-152.84748,-194.2822)"><g
       id="g965"
       inkscape:label="window"
       style="display:inline;stroke:none"
       transform="translate(1.6585236,-0.82162285)"><rect
         style="color:#000000;display:inline;overflow:visible;visibility:visible;fill:url(#linearGradient1305);fill-opacity:1;fill-rule:evenodd;stroke:#939393;stroke-width:1.61768;stroke-linecap:butt;stroke-linejoin:miter;stroke-miterlimit:4;stroke-dasharray:none;stroke-dashoffset:0;stroke-opacity:1;marker:none;marker-start:none;marker-mid:none;marker-end:none"
         id="rect1287"
         width="36.294022"
         height="31.796799"
         x="154.06209"
         y="202.51793"
         rx="2.4739153"
         ry="2.1673708"
         inkscape:r_cx="true"
         inkscape:r_cy="true" /><rect
         inkscape:r_cy="true"
         inkscape:r_cx="true"
         ry="0.87227446"
         rx="0.99565035"
         y="203.94994"
         x="155.69656"
         height="28.932791"
         width="33.025089"
         id="rect1289"
         style="color:#000000;display:inline;overflow:visible;visibility:visible;fill:none;fill-opacity:1;fill-rule:evenodd;stroke:#ffffff;stroke-width:1.62691;stroke-linecap:butt;stroke-linejoin:miter;stroke-miterlimit:4;stroke-dasharray:none;stroke-dashoffset:0;stroke-opacity:1;marker:none;marker-start:none;marker-mid:none;marker-end:none" /><rect
         style="fill:#f3f3f3;fill-opacity:1;stroke-width:0.984079;stroke-linecap:round;stroke-linejoin:round;stroke-dashoffset:0.2826;paint-order:markers fill stroke"
         id="rect7498"
         width="13.68878"
         height="15.61339"
         x="168.50017"
         y="212.29713"
         rx="0.99999321"
         ry="0.80668843" /><rect
         style="fill:#d0d0d0;fill-opacity:1;stroke-linecap:round;stroke-linejoin:round;stroke-dashoffset:0.2826;paint-order:markers fill stroke"
         id="rect310"
         width="9"
         height="1"
         x="169.20503"
         y="215.59261"
         rx="8.4437497e-06"
         ry="1" /><rect
         style="fill:#d0d0d0;fill-opacity:1;stroke-linecap:round;stroke-linejoin:round;stroke-dashoffset:0.2826;paint-order:markers fill stroke"
         id="rect312"
         width="9"
         height="1"
         x="169.18895"
         y="217.60382"
         rx="8.4437497e-06"
         ry="1" /><rect
         style="fill:#d0d0d0;fill-opacity:1;stroke-linecap:round;stroke-linejoin:round;stroke-dashoffset:0.2826;paint-order:markers fill stroke"
         id="rect314"
         width="9"
         height="1"
         x="169.1826"
         y="219.58049"
         rx="8.4437497e-06"
         ry="1" /><rect
         style="fill:#f3f3f3;fill-opacity:1;stroke-width:0.989657;stroke-linecap:round;stroke-linejoin:round;stroke-dashoffset:0.2826;paint-order:markers fill stroke"
         id="rect4901"
         width="13.844398"
         height="15.61339"
         x="161.34456"
         y="208.10382"
         rx="0.85398328"
         ry="1.000002" /><path
         id="rect7552"
         style="fill:#d0d0d0;fill-opacity:1;stroke-width:0.991572;stroke-linecap:round;stroke-linejoin:round;stroke-dashoffset:0.2826;paint-order:markers fill stroke"
         d="M 175.187 212.30499 L 175.187 223.10382 L 168.49364 223.10382 L 168.49364 223.60382 L 168.49364 224.10382 L 175.187 224.10382 L 176.187 224.10382 L 176.187 223.60382 L 176.187 223.10382 L 176.187 212.30499 C 176.187 212.30499 175.964 212.30499 175.687 212.30499 C 175.41 212.30499 175.187 212.30499 175.187 212.30499 z " /><path
         style="display:inline;fill:#e7e7e7;fill-opacity:1;stroke:#9a9892;stroke-width:0.133684;stroke-linecap:butt;stroke-linejoin:miter;stroke-miterlimit:4;stroke-dasharray:none;stroke-opacity:1"
         d="m 171.34221,229.56302 c 0,0 11.98272,5.20317 13.40363,5.29578 1.4209,0.0927 3.01776,-0.006 3.525,-1.31957 -6.19355,-2.61843 -10.34641,-4.45545 -17.11085,-7.333 l -2.1638,-0.26248 -0.45286,1.02739 z"
         id="path20527"
         sodipodi:nodetypes="czccccc"
         inkscape:label="bladeBottom" /><path
         style="display:inline;mix-blend-mode:normal;fill:#000000;fill-opacity:0.328119;stroke:none;stroke-width:1px;stroke-linecap:butt;stroke-linejoin:miter;stroke-opacity:1;filter:url(#filter30280)"
         d="m 24.928731,29.761245 c 0,0 -1.673244,0.73415 -2.639419,1.156773 -0.285122,-0.289073 -0.576926,-0.550008 -0.863997,-0.839691 0.256783,-0.23296 1.415003,-1.331062 1.415003,-1.331062 z"
         id="path23923"
         sodipodi:nodetypes="ccccc"
         transform="matrix(1.4423909,0,0,1.4175109,139.38123,185.66989)"
         inkscape:label="bladeShadow" /><path
         id="path25284"
         style="display:inline;fill:#414e81;stroke-width:0.332093;stroke-linecap:round;stroke-opacity:0.931825;paint-order:markers stroke fill"
         d="m 157.05081,218.17951 c -0.12194,0.001 -0.24166,0.007 -0.36119,0.0154 -2.58188,0.18418 -4.565,2.01844 -4.5096,3.52443 0.0708,1.92479 1.17275,2.19012 4.51757,2.87243 2.2028,0.44935 3.46722,0.56392 5.17887,0.6058 3.26502,0.32686 5.97646,2.2299 6.43242,2.22556 0.47884,-0.005 1.28263,-2.12442 0.93751,-2.13058 -0.34278,-0.006 -3.98754,-1.12564 -5.84814,-3.19843 -1.17358,-1.55686 -2.93535,-3.40892 -5.22136,-3.81964 -0.38268,-0.0688 -0.76025,-0.0991 -1.12608,-0.095 z m -0.53647,1.25268 c 0.5142,-1.6e-4 1.06629,0.0761 1.61474,0.22846 1.95004,0.54175 3.21802,2.54606 3.00375,3.19843 -0.29701,0.90424 -2.27641,1.00423 -4.23605,0.65201 -1.99481,-0.35853 -3.15828,-0.88444 -2.92408,-2.49509 0.15622,-1.07428 1.22756,-1.5834 2.54164,-1.58381 z"
         inkscape:label="handleBottom" /><path
         style="display:inline;fill:#eeeeee;fill-opacity:1;stroke:#9a9892;stroke-width:0.133684;stroke-linecap:butt;stroke-linejoin:miter;stroke-miterlimit:4;stroke-dasharray:none;stroke-opacity:1"
         d="m 171.34504,225.90145 c 0,0 11.99489,-5.17691 13.41601,-5.2664 1.42111,-0.0895 3.01774,0.0122 3.52189,1.32729 -6.19967,2.60486 -10.35683,4.43277 -17.128,7.29549 l -2.16441,0.25777 -0.45046,-1.02838 z"
         id="path26744"
         sodipodi:nodetypes="czccccc"
         inkscape:label="bladeTop" /><path
         id="path26592"
         style="display:inline;fill:#414e81;stroke-width:0.332093;stroke-linecap:round;stroke-opacity:0.931825;paint-order:markers stroke fill"
         d="m 168.45796,227.78251 c -0.45589,-0.002 -3.22625,1.91326 -6.50147,2.25379 -1.71313,0.0491 -3.04199,0.12926 -5.25855,0.58783 -3.36571,0.69633 -4.41556,1.00638 -4.54413,2.93147 -0.1006,1.50623 1.82935,3.33311 4.40603,3.50647 0.47716,0.0321 0.9742,0.006 1.48726,-0.0873 2.29863,-0.4203 4.11777,-2.28096 5.33822,-3.84274 1.92305,-2.08059 5.6034,-3.21403 5.94641,-3.22154 0.34535,-0.008 -0.395,-2.12546 -0.87377,-2.12801 z m -9.84251,3.71182 c 1.24186,-0.0238 2.24183,0.21774 2.44602,0.8394 0.21428,0.65237 -1.05636,2.65411 -3.0064,3.19586 -1.95004,0.54176 -3.93904,0.14188 -4.15638,-1.35278 -0.2342,-1.61065 0.92927,-2.13912 2.92408,-2.49766 0.61238,-0.11007 1.2282,-0.17401 1.79268,-0.18482 z"
         inkscape:label="handleTop" /><ellipse
         style="fill:#241f31;fill-opacity:0.328119;stroke:none;stroke-width:0.402559;stroke-linecap:round;stroke-opacity:0.931825;paint-order:markers stroke fill"
         id="path30306"
         cx="171.7867"
         cy="227.56427"
         inkscape:label="riveting"
         rx="0.67989278"
         ry="0.65714163" /><rect
         style="fill:#d0d0d0;fill-opacity:1;stroke-linecap:round;stroke-linejoin:round;stroke-dashoffset:0.2826;paint-order:markers fill stroke"
         id="rect10592"
         width="9"
         height="1"
         x="163.18896"
         y="212.10382"
         rx="8.4437497e-06"
         ry="1" /><rect
         style="fill:#d0d0d0;fill-opacity:1;stroke-linecap:round;stroke-linejoin:round;stroke-dashoffset:0.2826;paint-order:markers fill stroke"
         id="rect10594"
         width="9"
         height="1"
         x="163.17288"
         y="214.11504"
         rx="8.4437497e-06"
         ry="1" /><rect
         style="fill:#d0d0d0;fill-opacity:1;stroke-linecap:round;stroke-linejoin:round;stroke-dashoffset:0.2826;paint-order:markers fill stroke"
         id="rect10596"
         width="9"
         height="1"
         x="163.16653"
         y="216.09171"
         rx="8.4437497e-06"
         ry="1" /></g></g><metadata
     id="metadata854"><rdf:RDF><cc:Work
         rdf:about=""><cc:license
           rdf:resource="http://creativecommons.org/publicdomain/zero/1.0/" /><dc:format>image/svg+xml</dc:format><dc:type
           rdf:resource="http://purl.org/dc/dcmitype/StillImage" /></cc:Work><cc:License
         rdf:about="http://creativecommons.org/publicdomain/zero/1.0/"><cc:permits
           rdf:resource="http://creativecommons.org/ns#Reproduction" /><cc:permits
           rdf:resource="http://creativecommons.org/ns#Distribution" /><cc:permits
           rdf:resource="http://creativecommons.org/ns#DerivativeWorks" /></cc:License></rdf:RDF></metadata></svg>
