<?xml version="1.0" encoding="UTF-8" standalone="no"?>
<svg
   width="42"
   height="42"
   viewBox="0 0 42 42"
   version="1.1"
   id="svg38508"
   inkscape:version="1.2 (dc2aedaf03, 2022-05-15)"
   sodipodi:docname="captureWindow.svg"
   inkscape:export-filename="/home/dmitry/git/OpenBoard/resources/images/stylusPalette/arrow_svg.png"
   inkscape:export-xdpi="96"
   inkscape:export-ydpi="96"
   xml:space="preserve"
   xmlns:inkscape="http://www.inkscape.org/namespaces/inkscape"
   xmlns:sodipodi="http://sodipodi.sourceforge.net/DTD/sodipodi-0.dtd"
   xmlns:xlink="http://www.w3.org/1999/xlink"
   xmlns="http://www.w3.org/2000/svg"
   xmlns:svg="http://www.w3.org/2000/svg"
   xmlns:rdf="http://www.w3.org/1999/02/22-rdf-syntax-ns#"
   xmlns:cc="http://creativecommons.org/ns#"
   xmlns:dc="http://purl.org/dc/elements/1.1/"><sodipodi:namedview
     id="namedview38510"
     pagecolor="#ffffff"
     bordercolor="#eeeeee"
     borderopacity="1"
     inkscape:pageshadow="0"
     inkscape:pageopacity="0"
     inkscape:pagecheckerboard="false"
     inkscape:document-units="px"
     showgrid="true"
     fit-margin-top="0"
     fit-margin-left="0"
     fit-margin-right="0"
     fit-margin-bottom="0"
     units="px"
     inkscape:zoom="11.313708"
     inkscape:cx="24.837126"
     inkscape:cy="22.936776"
     inkscape:window-width="1366"
     inkscape:window-height="695"
     inkscape:window-x="0"
     inkscape:window-y="0"
     inkscape:window-maximized="1"
     inkscape:current-layer="g965"
     inkscape:document-rotation="0"
     inkscape:snap-others="true"
     inkscape:snap-global="false"
     showguides="false"
     inkscape:guide-bbox="true"
     inkscape:showpageshadow="2"
     inkscape:deskcolor="#d1d1d1"><inkscape:grid
       type="xygrid"
       id="grid7387"
       dotted="false" /></sodipodi:namedview><defs
     id="defs38505"><filter
       inkscape:collect="always"
       style="color-interpolation-filters:sRGB"
       id="filter22809"
       x="-0.0071787896"
       y="-0.0073728117"
       width="1.0143576"
       height="1.0147456"><feGaussianBlur
         inkscape:collect="always"
         stdDeviation="0.11366418"
         id="feGaussianBlur22811" /></filter><filter
       inkscape:collect="always"
       style="color-interpolation-filters:sRGB"
       id="filter30280"
       x="-0.015261765"
       y="-0.024631228"
       width="1.0305235"
       height="1.0492625"><feGaussianBlur
         inkscape:collect="always"
         stdDeviation="0.022278464"
         id="feGaussianBlur30282" /></filter><linearGradient
       inkscape:collect="always"
       xlink:href="#linearGradient47870"
       id="linearGradient2282"
       gradientUnits="userSpaceOnUse"
       gradientTransform="matrix(0.9788196,0,0,0.7154223,-8.5008021,52.112719)"
       x1="32.084972"
       y1="-14.402173"
       x2="32.084972"
       y2="-5.5633383" /><linearGradient
       id="linearGradient47870"><stop
         id="stop47872"
         offset="0"
         style="stop-color:#000000;stop-opacity:0" /><stop
         id="stop47878"
         offset="0.5"
         style="stop-color:#000000;stop-opacity:1" /><stop
         id="stop47874"
         offset="1"
         style="stop-color:#000000;stop-opacity:0" /></linearGradient><radialGradient
       inkscape:collect="always"
       xlink:href="#linearGradient51765"
       id="radialGradient2284"
       gradientUnits="userSpaceOnUse"
       gradientTransform="matrix(1.9576392,-8.146468e-7,6.6614241e-7,1.4565793,-59.017557,62.738067)"
       cx="51.4375"
       cy="-12.203125"
       fx="51.4375"
       fy="-12.203125"
       r="2.171875" /><linearGradient
       id="linearGradient51765"><stop
         id="stop51767"
         offset="0"
         style="stop-color:#000000;stop-opacity:1" /><stop
         id="stop51769"
         offset="1"
         style="stop-color:#000000;stop-opacity:0" /></linearGradient><radialGradient
       inkscape:collect="always"
       xlink:href="#linearGradient51765"
       id="radialGradient2286"
       gradientUnits="userSpaceOnUse"
       gradientTransform="matrix(-1.9576392,-9.2540676e-8,-1.2888861e-7,1.4565793,110.01781,62.73803)"
       cx="51.4375"
       cy="-12.203125"
       fx="51.4375"
       fy="-12.203125"
       r="2.171875" /><linearGradient
       inkscape:collect="always"
       xlink:href="#linearGradient2781"
       id="linearGradient2295"
       gradientUnits="userSpaceOnUse"
       gradientTransform="matrix(1.2446306,0,0,1.1767765,-7.0741541,-3.982654)"
       x1="24.925514"
       y1="40.000107"
       x2="24.925514"
       y2="19.53867" /><linearGradient
       id="linearGradient2781"><stop
         id="stop2783"
         offset="0"
         style="stop-color:#e2e7df;stop-opacity:1;" /><stop
         id="stop2785"
         offset="1"
         style="stop-color:#ffffff;stop-opacity:1;" /></linearGradient><linearGradient
       inkscape:collect="always"
       xlink:href="#linearGradient3674"
       id="linearGradient2292"
       gradientUnits="userSpaceOnUse"
       gradientTransform="matrix(1.2446306,0,0,1.2707947,-7.0741541,-5.3017616)"
       x1="23.069359"
       y1="6.7993021"
       x2="23.069359"
       y2="12.403291" /><linearGradient
       id="linearGradient3674"><stop
         id="stop3676"
         offset="0"
         style="stop-color:#3465a4;stop-opacity:1" /><stop
         id="stop3678"
         offset="1"
         style="stop-color:#729fcf;stop-opacity:1;" /></linearGradient><linearGradient
       inkscape:collect="always"
       xlink:href="#linearGradient3690"
       id="linearGradient2289"
       gradientUnits="userSpaceOnUse"
       gradientTransform="matrix(1.2605424,0,0,1.2058553,-7.4733927,-4.9459439)"
       x1="9.5"
       y1="16.26436"
       x2="9.5"
       y2="13.408723" /><linearGradient
       id="linearGradient3690"><stop
         id="stop3692"
         offset="0"
         style="stop-color:white;stop-opacity:1;" /><stop
         id="stop3694"
         offset="1"
         style="stop-color:white;stop-opacity:0.46875" /></linearGradient></defs><g
     inkscape:label="icon"
     inkscape:groupmode="layer"
     id="layer1"
     transform="translate(-152.84748,-194.2822)"><g
       id="g965"
       inkscape:label="window"
       style="display:inline;stroke:none"
       transform="translate(1.6585236,-0.82162285)"><rect
         style="opacity:0.299995;fill:#000000;fill-opacity:1;stroke:none;stroke-width:4.16504;stroke-linecap:round;stroke-linejoin:round;stroke-dashoffset:0.2826;stroke-opacity:0.986659;paint-order:markers stroke fill;filter:url(#filter22809)"
         id="rect18373"
         width="38.000004"
         height="37"
         x="154.18021"
         y="198.11687"
         ry="2.0780928"
         transform="matrix(1,0,0,0.95056445,0,11.40553)" /><g
         id="g199"
         inkscape:label="window"
         transform="matrix(0.92922455,0,0,0.92922455,150.28803,194.10262)"><g
           transform="matrix(1.0842065,0,0,1.3618401,-3.702941,-19.378566)"
           id="g54724"
           inkscape:label="shadow"
           style="display:inline"><rect
             width="32.357079"
             height="6.3234997"
             x="9.3215466"
             y="41.809082"
             style="opacity:0.3;fill:url(#linearGradient2282);fill-opacity:1;fill-rule:evenodd;stroke:none;stroke-width:1.024;stroke-linecap:butt;stroke-linejoin:miter;stroke-miterlimit:4;stroke-dasharray:none;stroke-dashoffset:0;stroke-opacity:1"
             id="rect46899" /><path
             d="m 41.6785,41.799698 v 6.327016 c 2.343798,-0.02389 4.251748,-1.421401 4.251748,-3.152329 0,-1.730927 -1.907949,-3.150801 -4.251748,-3.174687 z"
             style="opacity:0.3;fill:url(#radialGradient2284);fill-opacity:1;fill-rule:evenodd;stroke:none;stroke-width:1.024;stroke-linecap:butt;stroke-linejoin:miter;stroke-miterlimit:4;stroke-dasharray:none;stroke-dashoffset:0;stroke-opacity:1"
             id="path48849" /><path
             d="m 9.3217476,41.799698 v 6.327016 C 6.9779494,48.102828 5.07,46.705313 5.07,44.974385 c 0,-1.730927 1.9079484,-3.150801 4.2517476,-3.174687 z"
             style="opacity:0.3;fill:url(#radialGradient2286);fill-opacity:1;fill-rule:evenodd;stroke:none;stroke-width:1.024;stroke-linecap:butt;stroke-linejoin:miter;stroke-miterlimit:4;stroke-dasharray:none;stroke-dashoffset:0;stroke-opacity:1"
             id="path52742" /></g><rect
           style="fill:url(#linearGradient2295);fill-opacity:1;stroke:#888a85;stroke-width:1;stroke-miterlimit:4;stroke-dasharray:none;stroke-opacity:1"
           id="rect1915"
           width="41.072853"
           height="35.891666"
           x="3.5052049"
           y="6.6083345"
           rx="1.9999999"
           ry="2" /><path
           style="fill:url(#linearGradient2292);fill-opacity:1;stroke:#204a87;stroke-width:1;stroke-miterlimit:4;stroke-opacity:1"
           d="M 3.505204,12.527912 V 8.0415897 c 0,-1.4080405 1.1102103,-2.5415895 2.489261,-2.5415895 H 42.08875 c 1.37905,0 2.489261,1.133549 2.489261,2.5415895 v 4.4863223"
           id="path1917"
           sodipodi:nodetypes="cccccc" /><rect
           style="opacity:0.8;fill:none;fill-opacity:1;stroke:url(#linearGradient2289);stroke-width:1;stroke-miterlimit:4;stroke-dasharray:none;stroke-opacity:1"
           id="rect1919"
           width="39.076817"
           height="34.969814"
           x="4.5017591"
           y="6.5096912"
           rx="1.5110159"
           ry="1.5110158" /><g
           style="display:inline"
           inkscape:label="Base"
           id="g2721"
           transform="translate(-11.172678,-40.076333)" /></g><path
         style="display:inline;fill:#e7e7e7;fill-opacity:1;stroke:#9a9892;stroke-width:0.133684;stroke-linecap:butt;stroke-linejoin:miter;stroke-miterlimit:4;stroke-dasharray:none;stroke-opacity:1"
         d="m 171.40471,228.59427 c 0,0 11.98272,5.20317 13.40363,5.29578 1.4209,0.0927 3.01776,-0.006 3.525,-1.31957 -6.19355,-2.61843 -10.34641,-4.45545 -17.11085,-7.333 l -2.1638,-0.26248 -0.45286,1.02739 z"
         id="path20527"
         sodipodi:nodetypes="czccccc"
         inkscape:label="bladeBottom" /><path
         style="display:inline;mix-blend-mode:normal;fill:#000000;fill-opacity:0.328119;stroke:none;stroke-width:1px;stroke-linecap:butt;stroke-linejoin:miter;stroke-opacity:1;filter:url(#filter30280)"
         d="m 24.928731,29.761245 c 0,0 -1.673244,0.73415 -2.639419,1.156773 -0.285122,-0.289073 -0.576926,-0.550008 -0.863997,-0.839691 0.256783,-0.23296 1.415003,-1.331062 1.415003,-1.331062 z"
         id="path23923"
         sodipodi:nodetypes="ccccc"
         transform="matrix(1.4423909,0,0,1.4175109,139.44373,184.70114)"
         inkscape:label="bladeShadow" /><path
         id="path25284"
         style="display:inline;fill:#414e81;stroke-width:0.332093;stroke-linecap:round;stroke-opacity:0.931825;paint-order:markers stroke fill"
         d="m 157.11331,217.21076 c -0.12194,0.001 -0.24166,0.007 -0.36119,0.0154 -2.58188,0.18418 -4.565,2.01844 -4.5096,3.52443 0.0708,1.92479 1.17275,2.19012 4.51757,2.87243 2.2028,0.44935 3.46722,0.56392 5.17887,0.6058 3.26502,0.32686 5.97646,2.2299 6.43242,2.22556 0.47884,-0.005 1.28263,-2.12442 0.93751,-2.13058 -0.34278,-0.006 -3.98754,-1.12564 -5.84814,-3.19843 -1.17358,-1.55686 -2.93535,-3.40892 -5.22136,-3.81964 -0.38268,-0.0688 -0.76025,-0.0991 -1.12608,-0.095 z m -0.53647,1.25268 c 0.5142,-1.6e-4 1.06629,0.0761 1.61474,0.22846 1.95004,0.54175 3.21802,2.54606 3.00375,3.19843 -0.29701,0.90424 -2.27641,1.00423 -4.23605,0.65201 -1.99481,-0.35853 -3.15828,-0.88444 -2.92408,-2.49509 0.15622,-1.07428 1.22756,-1.5834 2.54164,-1.58381 z"
         inkscape:label="handleBottom" /><path
         style="display:inline;fill:#eeeeee;fill-opacity:1;stroke:#9a9892;stroke-width:0.133684;stroke-linecap:butt;stroke-linejoin:miter;stroke-miterlimit:4;stroke-dasharray:none;stroke-opacity:1"
         d="m 171.40754,224.9327 c 0,0 11.99489,-5.17691 13.41601,-5.2664 1.42111,-0.0895 3.01774,0.0122 3.52189,1.32729 -6.19967,2.60486 -10.35683,4.43277 -17.128,7.29549 l -2.16441,0.25777 -0.45046,-1.02838 z"
         id="path26744"
         sodipodi:nodetypes="czccccc"
         inkscape:label="bladeTop" /><path
         id="path26592"
         style="display:inline;fill:#414e81;stroke-width:0.332093;stroke-linecap:round;stroke-opacity:0.931825;paint-order:markers stroke fill"
         d="m 168.52046,226.81376 c -0.45589,-0.002 -3.22625,1.91326 -6.50147,2.25379 -1.71313,0.0491 -3.04199,0.12926 -5.25855,0.58783 -3.36571,0.69633 -4.41556,1.00638 -4.54413,2.93147 -0.1006,1.50623 1.82935,3.33311 4.40603,3.50647 0.47716,0.0321 0.9742,0.006 1.48726,-0.0873 2.29863,-0.4203 4.11777,-2.28096 5.33822,-3.84274 1.92305,-2.08059 5.6034,-3.21403 5.94641,-3.22154 0.34535,-0.008 -0.395,-2.12546 -0.87377,-2.12801 z m -9.84251,3.71182 c 1.24186,-0.0238 2.24183,0.21774 2.44602,0.8394 0.21428,0.65237 -1.05636,2.65411 -3.0064,3.19586 -1.95004,0.54176 -3.93904,0.14188 -4.15638,-1.35278 -0.2342,-1.61065 0.92927,-2.13912 2.92408,-2.49766 0.61238,-0.11007 1.2282,-0.17401 1.79268,-0.18482 z"
         inkscape:label="handleTop" /><ellipse
         style="fill:#241f31;fill-opacity:0.328119;stroke:none;stroke-width:0.402559;stroke-linecap:round;stroke-opacity:0.931825;paint-order:markers stroke fill"
         id="path30306"
         cx="171.8492"
         cy="226.59552"
         inkscape:label="riveting"
         rx="0.67989278"
         ry="0.65714163" /></g></g><metadata
     id="metadata854"><rdf:RDF><cc:Work
         rdf:about=""><cc:license
           rdf:resource="http://creativecommons.org/publicdomain/zero/1.0/" /><dc:format>image/svg+xml</dc:format><dc:type
           rdf:resource="http://purl.org/dc/dcmitype/StillImage" /></cc:Work><cc:License
         rdf:about="http://creativecommons.org/publicdomain/zero/1.0/"><cc:permits
           rdf:resource="http://creativecommons.org/ns#Reproduction" /><cc:permits
           rdf:resource="http://creativecommons.org/ns#Distribution" /><cc:permits
           rdf:resource="http://creativecommons.org/ns#DerivativeWorks" /></cc:License></rdf:RDF></metadata></svg>
