<?xml version="1.0" encoding="UTF-8" standalone="no"?>
<!-- Generator: Adobe Illustrator 13.0.2, SVG Export Plug-In . SVG Version: 6.00 Build 14948)  -->

<svg
   version="1.2"
   x="0px"
   y="0px"
   width="128px"
   height="128px"
   viewBox="0 0 128 128"
   xml:space="preserve"
   id="svg31"
   sodipodi:docname="duplicate.svg"
   inkscape:version="1.2 (dc2aedaf03, 2022-05-15)"
   xmlns:inkscape="http://www.inkscape.org/namespaces/inkscape"
   xmlns:sodipodi="http://sodipodi.sourceforge.net/DTD/sodipodi-0.dtd"
   xmlns:xlink="http://www.w3.org/1999/xlink"
   xmlns="http://www.w3.org/2000/svg"
   xmlns:svg="http://www.w3.org/2000/svg"
   xmlns:rdf="http://www.w3.org/1999/02/22-rdf-syntax-ns#"
   xmlns:cc="http://creativecommons.org/ns#"
   xmlns:a="http://ns.adobe.com/AdobeSVGViewerExtensions/3.0/"
   xmlns:ns0="&amp;#38;#38;ns_sfw;"><defs
   id="defs35"><linearGradient
     inkscape:collect="always"
     xlink:href="#SVGID_1_"
     id="linearGradient13031"
     gradientUnits="userSpaceOnUse"
     x1="63.4995"
     y1="24.5024"
     x2="63.4995"
     y2="101.9506" /><linearGradient
     inkscape:collect="always"
     xlink:href="#SVGID_1_"
     id="linearGradient13033"
     gradientUnits="userSpaceOnUse"
     x1="63.4995"
     y1="24.5024"
     x2="63.4995"
     y2="101.9506" /><linearGradient
     inkscape:collect="always"
     xlink:href="#linearGradient19946"
     id="linearGradient19948"
     x1="15.375657"
     y1="23.266758"
     x2="31.404888"
     y2="22.184622"
     gradientUnits="userSpaceOnUse"
     gradientTransform="matrix(0.0745594,-1.1040886,1.1044167,0.06509927,47.817157,74.49216)" /><linearGradient
     inkscape:collect="always"
     id="linearGradient19946"><stop
       style="stop-color:#e69b33;stop-opacity:1;"
       offset="0"
       id="stop19942" /><stop
       style="stop-color:#f0cb48;stop-opacity:1;"
       offset="1"
       id="stop19944" /></linearGradient></defs><sodipodi:namedview
   id="namedview33"
   pagecolor="#505050"
   bordercolor="#eeeeee"
   borderopacity="1"
   inkscape:pageshadow="0"
   inkscape:pageopacity="0"
   inkscape:pagecheckerboard="0"
   showgrid="false"
   inkscape:zoom="3.5686795"
   inkscape:cx="67.111659"
   inkscape:cy="34.046207"
   inkscape:window-width="1366"
   inkscape:window-height="695"
   inkscape:window-x="0"
   inkscape:window-y="0"
   inkscape:window-maximized="1"
   inkscape:current-layer="svg31"
   inkscape:showpageshadow="2"
   inkscape:deskcolor="#505050" />
<metadata
   id="metadata2">
	<ns0:sfw>
		<ns0:slices />
		<ns0:sliceSourceBounds
   x="8.255"
   y="22.924"
   width="110.488"
   height="82.884"
   bottomLeftOrigin="true" />
	</ns0:sfw>
<rdf:RDF><cc:License
     rdf:about="http://creativecommons.org/publicdomain/zero/1.0/"><cc:permits
       rdf:resource="http://creativecommons.org/ns#Reproduction" /><cc:permits
       rdf:resource="http://creativecommons.org/ns#Distribution" /><cc:permits
       rdf:resource="http://creativecommons.org/ns#DerivativeWorks" /></cc:License><cc:Work
     rdf:about=""><cc:license
       rdf:resource="http://creativecommons.org/publicdomain/zero/1.0/" /></cc:Work></rdf:RDF></metadata>
<g
   id="g13029"
   transform="translate(-4,-14)">
	<linearGradient
   id="linearGradient13015"
   gradientUnits="userSpaceOnUse"
   x1="63.4995"
   y1="24.502399"
   x2="63.4995"
   y2="101.9506">
		<stop
   offset="0"
   style="stop-color:#FCFCFC"
   id="stop13011" />
		<stop
   offset="1"
   style="stop-color:#E6E6E6"
   id="stop13013" />
		<a:midPointStop
   offset="0"
   style="stop-color:#FCFCFC" />
		<a:midPointStop
   offset="0.5"
   style="stop-color:#FCFCFC" />
		<a:midPointStop
   offset="1"
   style="stop-color:#E6E6E6" />
	</linearGradient>
	<path
   fill="url(#SVGID_1_)"
   d="M 104.906,102.468 H 22.091 c -6.19,0 -11.227,-5.038 -11.227,-11.231 V 36.028 c 0,-6.191 5.036,-11.227 11.227,-11.227 h 82.815 c 6.19,0 11.229,5.036 11.229,11.227 v 55.208 c 0,6.194 -5.038,11.232 -11.229,11.232 z"
   id="path13017"
   style="fill:url(#linearGradient13031)" />
	<linearGradient
   id="linearGradient13023"
   gradientUnits="userSpaceOnUse"
   x1="66.128899"
   y1="104.8428"
   x2="66.128899"
   y2="77.002197">
		<stop
   offset="0"
   style="stop-color:#E0E0E0"
   id="stop13019" />
		<stop
   offset="1"
   style="stop-color:#999999"
   id="stop13021" />
		<a:midPointStop
   offset="0"
   style="stop-color:#E0E0E0" />
		<a:midPointStop
   offset="0.5"
   style="stop-color:#E0E0E0" />
		<a:midPointStop
   offset="1"
   style="stop-color:#999999" />
	</linearGradient>
	
	<path
   fill="#ffffff"
   d="m 104.906,22.192 c 7.629,0 13.837,6.207 13.837,13.836 v 55.208 c 0,7.633 -6.208,13.84 -13.837,13.84 H 22.091 c -7.629,0 -13.836,-6.207 -13.836,-13.84 V 36.028 c 0,-7.629 6.207,-13.836 13.836,-13.836 h 82.815 m 0,5.22 H 22.091 c -4.751,0 -8.616,3.865 -8.616,8.616 v 55.208 c 0,4.753 3.865,8.619 8.616,8.619 h 82.815 c 4.751,0 8.617,-3.866 8.617,-8.619 V 36.028 c 0,-4.751 -3.866,-8.616 -8.617,-8.616 z"
   id="path13025" />
	<path
   fill="#b0b9c4"
   d="m 104.906,22.192 c 7.629,0 13.837,6.207 13.837,13.836 v 55.208 c 0,7.633 -6.208,13.84 -13.837,13.84 H 22.091 c -7.629,0 -13.836,-6.207 -13.836,-13.84 V 36.028 c 0,-7.629 6.207,-13.836 13.836,-13.836 h 82.815 m 0,3.48 H 22.091 c -5.71,0 -10.356,4.646 -10.356,10.356 v 55.208 c 0,5.713 4.646,10.359 10.356,10.359 h 82.815 c 5.711,0 10.357,-4.646 10.357,-10.359 V 36.028 c 10e-4,-5.71 -4.646,-10.356 -10.357,-10.356 z"
   id="path13027" />
</g><g
   id="Layer_2"
   transform="translate(4,4)">
	<linearGradient
   id="SVGID_1_"
   gradientUnits="userSpaceOnUse"
   x1="63.4995"
   y1="24.502399"
   x2="63.4995"
   y2="101.9506">
		<stop
   offset="0"
   style="stop-color:#FCFCFC"
   id="stop4" />
		<stop
   offset="1"
   style="stop-color:#E6E6E6"
   id="stop6" />
		<a:midPointStop
   offset="0"
   style="stop-color:#FCFCFC" />
		<a:midPointStop
   offset="0.5"
   style="stop-color:#FCFCFC" />
		<a:midPointStop
   offset="1"
   style="stop-color:#E6E6E6" />
	</linearGradient>
	<path
   fill="url(#SVGID_1_)"
   d="M 104.906,102.468 H 22.091 c -6.19,0 -11.227,-5.038 -11.227,-11.231 V 36.028 c 0,-6.191 5.036,-11.227 11.227,-11.227 h 82.815 c 6.19,0 11.229,5.036 11.229,11.227 v 55.208 c 0,6.194 -5.038,11.232 -11.229,11.232 z"
   id="path9"
   style="fill:url(#linearGradient13033)" />
	<linearGradient
   id="SVGID_2_"
   gradientUnits="userSpaceOnUse"
   x1="66.128899"
   y1="104.8428"
   x2="66.128899"
   y2="77.002197">
		<stop
   offset="0"
   style="stop-color:#E0E0E0"
   id="stop11" />
		<stop
   offset="1"
   style="stop-color:#999999"
   id="stop13" />
		<a:midPointStop
   offset="0"
   style="stop-color:#E0E0E0" />
		<a:midPointStop
   offset="0.5"
   style="stop-color:#E0E0E0" />
		<a:midPointStop
   offset="1"
   style="stop-color:#999999" />
	</linearGradient>
	
	<path
   fill="#ffffff"
   d="m 104.906,22.192 c 7.629,0 13.837,6.207 13.837,13.836 v 55.208 c 0,7.633 -6.208,13.84 -13.837,13.84 H 22.091 c -7.629,0 -13.836,-6.207 -13.836,-13.84 V 36.028 c 0,-7.629 6.207,-13.836 13.836,-13.836 h 82.815 m 0,5.22 H 22.091 c -4.751,0 -8.616,3.865 -8.616,8.616 v 55.208 c 0,4.753 3.865,8.619 8.616,8.619 h 82.815 c 4.751,0 8.617,-3.866 8.617,-8.619 V 36.028 c 0,-4.751 -3.866,-8.616 -8.617,-8.616 z"
   id="path18" />
	<path
   fill="#b0b9c4"
   d="m 104.906,22.192 c 7.629,0 13.837,6.207 13.837,13.836 v 55.208 c 0,7.633 -6.208,13.84 -13.837,13.84 H 22.091 c -7.629,0 -13.836,-6.207 -13.836,-13.84 V 36.028 c 0,-7.629 6.207,-13.836 13.836,-13.836 h 82.815 m 0,3.48 H 22.091 c -5.71,0 -10.356,4.646 -10.356,10.356 v 55.208 c 0,5.713 4.646,10.359 10.356,10.359 h 82.815 c 5.711,0 10.357,-4.646 10.357,-10.359 V 36.028 c 10e-4,-5.71 -4.646,-10.356 -10.357,-10.356 z"
   id="path20" />
</g>

<g
   id="g6159"
   transform="matrix(0,-1.8825211,-1.8825211,0,159.31055,181.50142)"><path
     id="path875"
     style="fill:#e8d24c;fill-opacity:1;stroke:#734e1f;stroke-width:0.964557;stroke-linecap:square;stroke-opacity:0.8"
     d="M 67.816955,36.885509 55.305936,48.505804 67.816955,61.055977 v -7.026101 c 3.012522,0.02891 6.396325,-0.02519 8.209576,0.444908 6.309808,1.994533 7.671731,8.500085 7.729227,13.61768 10.254314,-6.984137 3.814452,-22.941117 -7.729225,-23.640735 -2.029388,-0.123027 -6.39561,-0.05432 -8.209578,-0.01868 z"
     sodipodi:nodetypes="ccccccccc"
     inkscape:label="body" /><path
     id="path18540"
     style="display:inline;fill:url(#linearGradient19948);fill-opacity:1;stroke:none;stroke-width:0.669409;stroke-linecap:square;stroke-opacity:0.8"
     d="m 66.459073,40.58049 -8.682707,8.064545 8.682708,8.709877 v -4.702499 c 2.090706,0.02005 4.555933,-1.4e-5 5.922713,-1e-5 12.367536,0.522912 12.003249,9.895486 12.139802,13.656601 5.486887,-6.062125 2.782889,-15.136492 -3.29544,-18.637313 -2.483234,-1.430222 -5.842602,-1.775757 -7.933178,-1.853185 -1.366777,-6e-6 -5.574993,-0.02474 -6.833896,-2e-6 z"
     sodipodi:nodetypes="ccccccsccc"
     inkscape:label="gradient" /></g></svg>
