<?xml version="1.0" encoding="UTF-8" standalone="no"?>
<svg
   width="42"
   height="42"
   viewBox="0 0 42 42"
   version="1.1"
   id="svg38508"
   inkscape:version="1.2 (dc2aedaf03, 2022-05-15)"
   sodipodi:docname="menu.svg"
   inkscape:export-filename="/home/dmitry/git/OpenBoard/resources/images/stylusPalette/arrow_svg.png"
   inkscape:export-xdpi="96"
   inkscape:export-ydpi="96"
   xml:space="preserve"
   xmlns:inkscape="http://www.inkscape.org/namespaces/inkscape"
   xmlns:sodipodi="http://sodipodi.sourceforge.net/DTD/sodipodi-0.dtd"
   xmlns:xlink="http://www.w3.org/1999/xlink"
   xmlns="http://www.w3.org/2000/svg"
   xmlns:svg="http://www.w3.org/2000/svg"
   xmlns:rdf="http://www.w3.org/1999/02/22-rdf-syntax-ns#"
   xmlns:cc="http://creativecommons.org/ns#"
   xmlns:dc="http://purl.org/dc/elements/1.1/"><sodipodi:namedview
     id="namedview38510"
     pagecolor="#ffffff"
     bordercolor="#eeeeee"
     borderopacity="1"
     inkscape:pageshadow="0"
     inkscape:pageopacity="0"
     inkscape:pagecheckerboard="true"
     inkscape:document-units="px"
     showgrid="true"
     fit-margin-top="0"
     fit-margin-left="0"
     fit-margin-right="0"
     fit-margin-bottom="0"
     units="px"
     inkscape:zoom="32"
     inkscape:cx="27.171875"
     inkscape:cy="22.671875"
     inkscape:window-width="1366"
     inkscape:window-height="695"
     inkscape:window-x="0"
     inkscape:window-y="0"
     inkscape:window-maximized="1"
     inkscape:current-layer="g20530"
     inkscape:document-rotation="0"
     inkscape:snap-others="true"
     inkscape:snap-global="true"
     showguides="false"
     inkscape:guide-bbox="true"
     inkscape:showpageshadow="2"
     inkscape:deskcolor="#d1d1d1"
     inkscape:snap-bbox="true"
     inkscape:bbox-paths="true"
     inkscape:bbox-nodes="true"
     borderlayer="true"><inkscape:grid
       type="xygrid"
       id="grid7387"
       dotted="false" /></sodipodi:namedview><defs
     id="defs38505"><linearGradient
       inkscape:collect="always"
       id="linearGradient4059"><stop
         style="stop-color:#f3f4f5;stop-opacity:1"
         offset="0"
         id="stop4055" /><stop
         style="stop-color:#ccced0;stop-opacity:1"
         offset="1"
         id="stop4057" /></linearGradient><linearGradient
       inkscape:collect="always"
       xlink:href="#linearGradient4059"
       id="linearGradient4061"
       x1="181.18895"
       y1="201.10382"
       x2="181.18895"
       y2="222.10382"
       gradientUnits="userSpaceOnUse"
       gradientTransform="matrix(1.466776,0,0,1.4155378,-94.224978,-81.255314)" /></defs><g
     inkscape:label="icon"
     inkscape:groupmode="layer"
     id="layer1"
     transform="translate(-152.84748,-194.2822)"><g
       id="g965"
       inkscape:label="tutorial"
       style="display:inline;stroke:none"
       transform="translate(1.6585236,-0.82162285)"><g
         id="g20530"
         inkscape:label="play"><path
           id="rect2873"
           style="fill:#666b75;fill-opacity:1;stroke:none;stroke-width:1.86022;stroke-miterlimit:4;stroke-dasharray:none"
           d="m 154.77717,196.33704 c -0.81256,-0.008 -1.46678,0.63133 -1.46678,1.41554 v 25.47968 c 0,0.87156 0.65418,1.41553 1.46678,1.41553 h 9.42762 l -0.0158,11.45603 12.35737,-11.45603 13.17583,0.35124 c 0.8123,0.0217 1.46677,-0.63133 1.46677,-1.41553 v -25.47968 c 0,-0.78421 -0.65422,-1.40737 -1.46677,-1.41554 z"
           sodipodi:nodetypes="sssscccsssss" /><path
           id="path24659"
           style="color:#000000;display:inline;fill:url(#linearGradient4061);fill-opacity:1;stroke-width:2.88186;paint-order:stroke fill markers"
           d="m 156.09783,197.75258 c -0.73128,-0.008 -1.32066,0.56875 -1.32066,1.27453 v 22.93061 c 0,0.70579 0.58933,1.27454 1.32066,1.27454 h 9.57373 v 9.90876 l 10.26744,-9.90876 12.46248,0.35124 c 0.73106,0.0206 1.32068,-0.56875 1.32068,-1.27454 v -22.93061 c 0,-0.70578 -0.58937,-1.26658 -1.32068,-1.27453 z"
           sodipodi:nodetypes="sssscccsssss" /><path
           d="m 182.19528,212.73952 v -3.20372 l -2.34345,-0.39043 c -0.1828,-0.70352 -0.46318,-1.37694 -0.83576,-2.00932 l 1.38242,-1.93286 -2.2687,-2.26515 -1.93542,1.38064 c -0.63301,-0.37252 -1.30753,-0.65229 -2.01179,-0.83489 l -0.39051,-2.34037 h -3.20834 l -0.39051,2.34037 c -0.70425,0.1826 -1.37878,0.46237 -2.01178,0.83489 l -1.93543,-1.38064 -2.26873,2.26515 1.38246,1.93286 c -0.37261,0.63238 -0.65294,1.3058 -0.83578,2.00932 l -2.34344,0.39043 v 3.20372 l 2.34344,0.39038 c 0.18284,0.70353 0.46317,1.37697 0.83578,2.00935 l -1.38246,1.93288 2.26873,2.26512 1.93543,-1.38065 c 0.633,0.37252 1.30753,0.65232 2.01178,0.83491 l 0.39051,2.34034 h 3.20834 l 0.39051,-2.34034 c 0.70426,-0.18259 1.37878,-0.46239 2.01179,-0.83491 l 1.93542,1.38065 2.2687,-2.26512 -1.38242,-1.93288 c 0.37258,-0.63238 0.65296,-1.30582 0.83576,-2.00935 z"
           id="path72945"
           style="fill:#666b75;fill-opacity:1;stroke-width:0.0406932"
           sodipodi:nodetypes="ccccccccccccccccccccccccccccccccc" /><ellipse
           style="fill:#eff0f1;fill-opacity:1;stroke:none;stroke-width:1.42868;stroke-linecap:round;stroke-linejoin:round;stroke-dashoffset:0.2826;paint-order:markers fill stroke"
           id="path78015"
           cx="172.18784"
           cy="211.13768"
           rx="2.8592465"
           ry="2.8554933" /><path
           id="path83503"
           style="color:#000000;display:inline;fill:#f9f9f9;fill-opacity:1;stroke-width:2.88186;paint-order:stroke fill markers"
           d="m 156.09783,197.75258 c -0.73128,-0.008 -1.32066,0.56875 -1.32066,1.27453 v 1.05034 c 1.41179,0.0264 33.41179,-0.001 34.94499,0.0313 l 0,-0.65469 c 0,-0.70578 -0.58937,-1.34227 -1.32068,-1.35022 z"
           sodipodi:nodetypes="ssccsss" /></g></g></g><metadata
     id="metadata854"><rdf:RDF><cc:Work
         rdf:about=""><cc:license
           rdf:resource="http://creativecommons.org/publicdomain/zero/1.0/" /><dc:format>image/svg+xml</dc:format><dc:type
           rdf:resource="http://purl.org/dc/dcmitype/StillImage" /></cc:Work><cc:License
         rdf:about="http://creativecommons.org/publicdomain/zero/1.0/"><cc:permits
           rdf:resource="http://creativecommons.org/ns#Reproduction" /><cc:permits
           rdf:resource="http://creativecommons.org/ns#Distribution" /><cc:permits
           rdf:resource="http://creativecommons.org/ns#DerivativeWorks" /></cc:License></rdf:RDF></metadata></svg>
