<?xml version="1.0" encoding="UTF-8" standalone="no"?>
<!-- Generator: Adobe Illustrator 13.0.2, SVG Export Plug-In . SVG Version: 6.00 Build 14948)  -->

<svg
   version="1.2"
   x="0px"
   y="0px"
   width="128px"
   height="128px"
   viewBox="0 0 128 128"
   xml:space="preserve"
   id="svg31"
   sodipodi:docname="pageSize.svg"
   inkscape:version="1.2 (dc2aedaf03, 2022-05-15)"
   xmlns:inkscape="http://www.inkscape.org/namespaces/inkscape"
   xmlns:sodipodi="http://sodipodi.sourceforge.net/DTD/sodipodi-0.dtd"
   xmlns="http://www.w3.org/2000/svg"
   xmlns:svg="http://www.w3.org/2000/svg"
   xmlns:rdf="http://www.w3.org/1999/02/22-rdf-syntax-ns#"
   xmlns:cc="http://creativecommons.org/ns#"
   xmlns:ns="&amp;#38;#38;#38;#38;ns_sfw;"
   xmlns:a="http://ns.adobe.com/AdobeSVGViewerExtensions/3.0/"><defs
   id="defs35" /><sodipodi:namedview
   id="namedview33"
   pagecolor="#505050"
   bordercolor="#eeeeee"
   borderopacity="1"
   inkscape:pageshadow="0"
   inkscape:pageopacity="0"
   inkscape:pagecheckerboard="0"
   showgrid="true"
   inkscape:zoom="3.5686795"
   inkscape:cx="92.050855"
   inkscape:cy="62.908423"
   inkscape:window-width="1366"
   inkscape:window-height="695"
   inkscape:window-x="0"
   inkscape:window-y="0"
   inkscape:window-maximized="1"
   inkscape:current-layer="svg31"
   inkscape:showpageshadow="2"
   inkscape:deskcolor="#505050"><inkscape:grid
     type="xygrid"
     id="grid6730" /></sodipodi:namedview>
<metadata
   id="metadata2">
	<ns:sfw>
		<ns:slices />
		<ns:sliceSourceBounds
   x="8.255"
   y="22.924"
   width="110.488"
   height="82.884"
   bottomLeftOrigin="true" />
	</ns:sfw>
<rdf:RDF><cc:Work
     rdf:about=""><cc:license
       rdf:resource="http://creativecommons.org/publicdomain/zero/1.0/" /></cc:Work><cc:License
     rdf:about="http://creativecommons.org/publicdomain/zero/1.0/"><cc:permits
       rdf:resource="http://creativecommons.org/ns#Reproduction" /><cc:permits
       rdf:resource="http://creativecommons.org/ns#Distribution" /><cc:permits
       rdf:resource="http://creativecommons.org/ns#DerivativeWorks" /></cc:License></rdf:RDF></metadata>
<g
   id="Layer_2"
   transform="matrix(0.76367568,0,0,0.76367568,-2.4280543,4.9410856)">
	<linearGradient
   id="SVGID_1_"
   gradientUnits="userSpaceOnUse"
   x1="63.4995"
   y1="24.502399"
   x2="63.4995"
   y2="101.9506">
		<stop
   offset="0"
   style="stop-color:#FCFCFC"
   id="stop4" />
		<stop
   offset="1"
   style="stop-color:#E6E6E6"
   id="stop6" />
		<a:midPointStop
   offset="0"
   style="stop-color:#FCFCFC" />
		<a:midPointStop
   offset="0.5"
   style="stop-color:#FCFCFC" />
		<a:midPointStop
   offset="1"
   style="stop-color:#E6E6E6" />
	</linearGradient>
	<path
   fill="url(#SVGID_1_)"
   d="M 104.906,102.468 H 22.091 c -6.19,0 -11.227,-5.038 -11.227,-11.231 V 36.028 c 0,-6.191 5.036,-11.227 11.227,-11.227 h 82.815 c 6.19,0 11.229,5.036 11.229,11.227 v 55.208 c 0,6.194 -5.038,11.232 -11.229,11.232 z"
   id="path9"
   style="fill:url(#SVGID_1_)" />
	<linearGradient
   id="SVGID_2_"
   gradientUnits="userSpaceOnUse"
   x1="66.128899"
   y1="104.8428"
   x2="66.128899"
   y2="77.002197">
		<stop
   offset="0"
   style="stop-color:#E0E0E0"
   id="stop11" />
		<stop
   offset="1"
   style="stop-color:#999999"
   id="stop13" />
		<a:midPointStop
   offset="0"
   style="stop-color:#E0E0E0" />
		<a:midPointStop
   offset="0.5"
   style="stop-color:#E0E0E0" />
		<a:midPointStop
   offset="1"
   style="stop-color:#999999" />
	</linearGradient>
	<path
   fill="url(#SVGID_2_)"
   d="m 113.525,71.782 c 0,0 0.02,-0.042 0.052,-0.114 -0.018,0.041 -0.034,0.074 -0.052,0.114 z m 0,0 c -5.221,11.31 -14.791,12.181 -14.791,12.181 l -81.273,13.92 -3.946,4.193 c 2.36,1.872 5.337,3 8.577,3 h 82.815 c 7.629,0 13.837,-6.207 13.837,-13.84 V 71.782 Z"
   id="path16"
   style="fill:url(#SVGID_2_)" />
	<path
   fill="#ffffff"
   d="m 104.906,22.192 c 7.629,0 13.837,6.207 13.837,13.836 v 55.208 c 0,7.633 -6.208,13.84 -13.837,13.84 H 22.091 c -7.629,0 -13.836,-6.207 -13.836,-13.84 V 36.028 c 0,-7.629 6.207,-13.836 13.836,-13.836 h 82.815 m 0,5.22 H 22.091 c -4.751,0 -8.616,3.865 -8.616,8.616 v 55.208 c 0,4.753 3.865,8.619 8.616,8.619 h 82.815 c 4.751,0 8.617,-3.866 8.617,-8.619 V 36.028 c 0,-4.751 -3.866,-8.616 -8.617,-8.616 z"
   id="path18" />
	<path
   fill="#b0b9c4"
   d="m 104.906,22.192 c 7.629,0 13.837,6.207 13.837,13.836 v 55.208 c 0,7.633 -6.208,13.84 -13.837,13.84 H 22.091 c -7.629,0 -13.836,-6.207 -13.836,-13.84 V 36.028 c 0,-7.629 6.207,-13.836 13.836,-13.836 h 82.815 m 0,3.48 H 22.091 c -5.71,0 -10.356,4.646 -10.356,10.356 v 55.208 c 0,5.713 4.646,10.359 10.356,10.359 h 82.815 c 5.711,0 10.357,-4.646 10.357,-10.359 V 36.028 c 10e-4,-5.71 -4.646,-10.356 -10.357,-10.356 z"
   id="path20" />
</g>
<g
   id="Layer_1"
   transform="matrix(0.76367568,0,0,0.76367568,-2.4280543,4.9410856)">
	<linearGradient
   id="SVGID_3_"
   gradientUnits="userSpaceOnUse"
   x1="68.681602"
   y1="92.851601"
   x2="63.4618"
   y2="78.9319">
		<stop
   offset="0"
   style="stop-color:#657180"
   id="stop23" />
		<stop
   offset="1"
   style="stop-color:#AFB9C5"
   id="stop25" />
		<a:midPointStop
   offset="0"
   style="stop-color:#657180" />
		<a:midPointStop
   offset="0.5"
   style="stop-color:#657180" />
		<a:midPointStop
   offset="1"
   style="stop-color:#AFB9C5" />
	</linearGradient>
	<path
   fill="url(#SVGID_3_)"
   d="M 96.125,87.346 C 79.1,91.045 17.461,97.883 17.461,97.883 L 88.003,71.217 c 0,0 20.494,17.185 25.521,-0.401 0.001,-0.001 -0.376,12.83 -17.399,16.53 z"
   id="path28"
   style="fill:url(#SVGID_3_)" />
</g>
<g
   id="g9718"
   inkscape:label="ruler"
   style="opacity:1"><rect
     style="display:inline;fill:#a26f2c;fill-opacity:1;stroke:none;stroke-width:4.93232;stroke-linecap:round;stroke-linejoin:round;stroke-opacity:0.713725;paint-order:stroke fill markers;opacity:1"
     id="rect975"
     width="88"
     height="26.055737"
     x="2"
     y="93.187325"
     ry="1.3713603"
     inkscape:label="border" /><rect
     style="display:inline;fill:#f5dd50;fill-opacity:1;stroke:none;stroke-width:4.23047;stroke-linecap:round;stroke-linejoin:round;stroke-opacity:0.713725;paint-order:stroke fill markers;opacity:1"
     id="rect9058"
     width="82"
     height="20.570328"
     x="5"
     y="95.930031"
     ry="1.3713603"
     inkscape:label="body" /><g
     id="g12917"
     inkscape:label="scale"
     transform="matrix(3.0370371,0,0,1.2721542,-486.61331,-194.75433)"
     style="display:inline;opacity:1;stroke:none"><rect
       style="opacity:1;fill:#a26f2c;fill-opacity:1;stroke:none;stroke-width:2.51672;stroke-linecap:round;stroke-linejoin:round;stroke-opacity:0.713725;paint-order:stroke fill markers"
       id="rect12716"
       width="1"
       height="7.9173112"
       x="165.7995"
       y="228.52443"
       ry="6.2627173e-06"
       inkscape:label="division" /><rect
       style="opacity:1;fill:#a26f2c;fill-opacity:1;stroke:none;stroke-width:2.51671;stroke-linecap:round;stroke-linejoin:round;stroke-opacity:0.713725;paint-order:stroke fill markers"
       id="rect12722"
       width="1"
       height="7.9173112"
       x="171.73853"
       y="228.52443"
       ry="6.2627173e-06"
       inkscape:label="division" /><rect
       style="opacity:1;fill:#a26f2c;fill-opacity:1;stroke:none;stroke-width:2.51672;stroke-linecap:round;stroke-linejoin:round;stroke-opacity:0.713725;paint-order:stroke fill markers"
       id="rect12728"
       width="1"
       height="7.917304"
       x="177.32388"
       y="228.52444"
       ry="6.2627114e-06"
       inkscape:label="division" /><rect
       style="opacity:1;fill:#a26f2c;fill-opacity:1;stroke:none;stroke-width:2.51672;stroke-linecap:round;stroke-linejoin:round;stroke-opacity:0.713725;paint-order:stroke fill markers"
       id="rect12734"
       width="1"
       height="7.9173112"
       x="182.92145"
       y="228.52443"
       ry="6.2627173e-06"
       inkscape:label="division" /></g></g><g
   id="g10546"
   inkscape:label="ruler"
   style="opacity:1"
   transform="matrix(0,-0.79545455,0.99786088,0,4.0120183,89.827431)"><rect
     style="display:inline;opacity:1;fill:#a26f2c;fill-opacity:1;stroke:none;stroke-width:4.95915;stroke-linecap:round;stroke-linejoin:round;stroke-opacity:0.713725;paint-order:stroke fill markers"
     id="rect10532"
     width="88.959801"
     height="26.055737"
     x="1.0401989"
     y="93.187325"
     ry="1.3713603"
     inkscape:label="border" /><rect
     style="display:inline;opacity:1;fill:#f5dd50;fill-opacity:1;stroke:none;stroke-width:4.16859;stroke-linecap:round;stroke-linejoin:round;stroke-opacity:0.713725;paint-order:stroke fill markers"
     id="rect10534"
     width="81.714287"
     height="20.042873"
     x="4.8116274"
     y="96.193748"
     ry="1.3361965"
     inkscape:label="body" /><g
     id="g10544"
     inkscape:label="scale"
     transform="matrix(3.0370371,0,0,1.2657639,-486.61331,-193.06422)"
     style="display:inline;opacity:1;stroke:none"><rect
       style="opacity:1;fill:#a26f2c;fill-opacity:1;stroke:none;stroke-width:2.51672;stroke-linecap:round;stroke-linejoin:round;stroke-opacity:0.713725;paint-order:stroke fill markers"
       id="rect10536"
       width="1"
       height="7.9173112"
       x="165.7995"
       y="228.52443"
       ry="6.2627173e-06"
       inkscape:label="division" /><rect
       style="opacity:1;fill:#a26f2c;fill-opacity:1;stroke:none;stroke-width:2.51671;stroke-linecap:round;stroke-linejoin:round;stroke-opacity:0.713725;paint-order:stroke fill markers"
       id="rect10538"
       width="1"
       height="7.9173112"
       x="171.73853"
       y="228.52443"
       ry="6.2627173e-06"
       inkscape:label="division" /><rect
       style="opacity:1;fill:#a26f2c;fill-opacity:1;stroke:none;stroke-width:2.51672;stroke-linecap:round;stroke-linejoin:round;stroke-opacity:0.713725;paint-order:stroke fill markers"
       id="rect10540"
       width="1"
       height="7.917304"
       x="177.32388"
       y="228.52444"
       ry="6.2627114e-06"
       inkscape:label="division" /><rect
       style="opacity:1;fill:#a26f2c;fill-opacity:1;stroke:none;stroke-width:2.51672;stroke-linecap:round;stroke-linejoin:round;stroke-opacity:0.713725;paint-order:stroke fill markers"
       id="rect10542"
       width="1"
       height="7.9173112"
       x="182.92145"
       y="228.52443"
       ry="6.2627173e-06"
       inkscape:label="division" /></g></g></svg>
