<?xml version="1.0" encoding="UTF-8" standalone="no"?>
<!-- Created with Inkscape (http://www.inkscape.org/) -->

<svg
   width="42"
   height="42"
   viewBox="0 0 42 42"
   version="1.1"
   id="SVGRoot"
   sodipodi:docname="pdf.svg"
   inkscape:version="1.2 (dc2aedaf03, 2022-05-15)"
   xml:space="preserve"
   xmlns:inkscape="http://www.inkscape.org/namespaces/inkscape"
   xmlns:sodipodi="http://sodipodi.sourceforge.net/DTD/sodipodi-0.dtd"
   xmlns:xlink="http://www.w3.org/1999/xlink"
   xmlns="http://www.w3.org/2000/svg"
   xmlns:svg="http://www.w3.org/2000/svg"
   xmlns:rdf="http://www.w3.org/1999/02/22-rdf-syntax-ns#"
   xmlns:cc="http://creativecommons.org/ns#"><sodipodi:namedview
     id="namedview1017"
     pagecolor="#ffffff"
     bordercolor="#666666"
     borderopacity="1.0"
     inkscape:pageshadow="2"
     inkscape:pageopacity="0"
     inkscape:pagecheckerboard="true"
     inkscape:document-units="px"
     showgrid="true"
     inkscape:zoom="8"
     inkscape:cx="22.625"
     inkscape:cy="19.3125"
     inkscape:window-width="1366"
     inkscape:window-height="695"
     inkscape:window-x="0"
     inkscape:window-y="0"
     inkscape:window-maximized="1"
     inkscape:current-layer="g906"
     inkscape:snap-global="true"
     showborder="true"
     borderlayer="false"
     inkscape:showpageshadow="false"
     inkscape:deskcolor="#d1d1d1"
     width="42px"><inkscape:grid
       type="xygrid"
       id="grid1080"
       originx="0"
       originy="0" /></sodipodi:namedview><defs
     id="defs1012"><linearGradient
       inkscape:collect="always"
       id="linearGradient8740"><stop
         style="stop-color:#e3f0f2;stop-opacity:1;"
         offset="0"
         id="stop8736" /><stop
         style="stop-color:#dcdddd;stop-opacity:1;"
         offset="1"
         id="stop8738" /></linearGradient><linearGradient
       inkscape:collect="always"
       xlink:href="#linearGradient8740"
       id="linearGradient8742"
       x1="24.217346"
       y1="17.211428"
       x2="24.217346"
       y2="2.3244536"
       gradientUnits="userSpaceOnUse"
       gradientTransform="matrix(0.9285712,0,0,0.9444445,-12.210332,0.54266321)" /></defs><g
     inkscape:label="icon"
     inkscape:groupmode="layer"
     id="layer1"
     transform="matrix(2.4389982,0,0,2.4182213,-4.0660654,-3.6210429)"><g
       id="g906"
       inkscape:label="pdf"><path
         id="rect355"
         style="fill:#8b8b8b;stroke-width:0.408814;stroke-linecap:round;stroke-linejoin:round;stroke-dashoffset:0.2826;paint-order:markers fill stroke"
         d="m 4.1271345,1.9109269 h 8.2083685 l 4.09176,3.723922 V 17.624952 c 0,2e-6 -2e-6,4e-6 -4e-6,4e-6 H 4.1271345 c -2e-6,0 -3e-6,-2e-6 -3e-6,-4e-6 V 1.9109304 c 0,-2e-6 1e-6,-3.5e-6 3e-6,-3.5e-6 z"
         sodipodi:nodetypes="sccssssss"
         inkscape:label="border" /><path
         id="rect5535"
         style="display:inline;fill:#eff2f3;stroke-width:0.384418;stroke-linecap:round;stroke-linejoin:round;stroke-dashoffset:0.2826;paint-order:markers fill stroke"
         d="m 4.5371405,2.3244541 7.6042965,-3e-7 3.875824,3.5397969 V 17.211425 c 0,2e-6 -2e-6,3e-6 -3e-6,3e-6 H 4.5371405 c -2e-6,0 -4e-6,-1e-6 -4e-6,-3e-6 V 2.3244574 c 0,-1.8e-6 2e-6,-3.3e-6 4e-6,-3.3e-6 z"
         sodipodi:nodetypes="sccssssss"
         inkscape:label="glare" /><path
         id="rect7469"
         style="display:inline;fill:url(#linearGradient8742);stroke-width:0.359997;stroke-linecap:round;stroke-linejoin:round;stroke-dashoffset:0.2826;paint-order:markers fill stroke"
         d="m 4.9471455,2.7379809 h 6.9700695 l 3.69004,3.3082166 V 16.797899 c 0,2e-6 -1e-6,3e-6 -3e-6,3e-6 H 4.9471455 c -2e-6,0 -3e-6,-1e-6 -3e-6,-3e-6 V 2.7379839 c 0,-1.7e-6 1e-6,-3e-6 3e-6,-3e-6 z"
         sodipodi:nodetypes="sccssssss"
         inkscape:label="body" /><rect
         style="opacity:1;fill:#6c869c;fill-opacity:1;stroke-width:0.411653;stroke-linecap:round;stroke-linejoin:round;stroke-dashoffset:0.2826;paint-order:markers fill stroke"
         id="rect12091"
         width="8.2000875"
         height="4.1352706"
         x="6.1771536"
         y="11.835576"
         rx="0.76264644"
         ry="0.8202433"
         inkscape:label="pdfBorder" /><text
         xml:space="preserve"
         style="font-size:3.62584px;line-height:1.25;font-family:'Noto Sans';-inkscape-font-specification:'Noto Sans';fill:#f3f5f7;fill-opacity:1;stroke-width:0.271938"
         x="6.3544035"
         y="15.80105"
         id="text12768"
         transform="scale(1.0434011,0.95840418)"
         inkscape:label="text"><tspan
           sodipodi:role="line"
           id="tspan12766"
           style="fill:#f3f5f7;fill-opacity:1;stroke-width:0.271938"
           x="6.3544035"
           y="15.80105">PDF</tspan></text><path
         style="fill:#eff2f3;fill-opacity:1;stroke:none;stroke-width:0.411762px;stroke-linecap:butt;stroke-linejoin:miter;stroke-opacity:1"
         d="M 11.917215,2.3244538 V 6.0461975 H 16.01726 Z"
         id="path18165"
         inkscape:label="triangle" /><path
         id="rect18219"
         style="display:inline;opacity:1;fill:#8b8b8b;fill-opacity:1;stroke:none;stroke-width:0.434035;stroke-linecap:round;stroke-linejoin:round;stroke-dashoffset:0.2826;stroke-opacity:1;paint-order:markers fill stroke"
         d="m 11.507211,2.3244538 v 3.7217437 0.4135271 h 0.410004 4.100044 V 6.0461975 H 11.917215 V 2.3244538 Z"
         inkscape:label="borderTriangle" /></g></g><metadata
     id="metadata1158"><rdf:RDF><cc:Work
         rdf:about=""><cc:license
           rdf:resource="http://creativecommons.org/publicdomain/zero/1.0/" /></cc:Work><cc:License
         rdf:about="http://creativecommons.org/publicdomain/zero/1.0/"><cc:permits
           rdf:resource="http://creativecommons.org/ns#Reproduction" /><cc:permits
           rdf:resource="http://creativecommons.org/ns#Distribution" /><cc:permits
           rdf:resource="http://creativecommons.org/ns#DerivativeWorks" /></cc:License></rdf:RDF></metadata></svg>
