<?xml version="1.0" encoding="UTF-8" standalone="no"?>
<!-- Created with Inkscape (http://www.inkscape.org/) -->

<svg
   width="42"
   height="42"
   viewBox="0 0 42 42"
   version="1.1"
   id="SVGRoot"
   sodipodi:docname="plusBlack.svg"
   inkscape:version="1.2 (dc2aedaf03, 2022-05-15)"
   xml:space="preserve"
   xmlns:inkscape="http://www.inkscape.org/namespaces/inkscape"
   xmlns:sodipodi="http://sodipodi.sourceforge.net/DTD/sodipodi-0.dtd"
   xmlns="http://www.w3.org/2000/svg"
   xmlns:svg="http://www.w3.org/2000/svg"
   xmlns:rdf="http://www.w3.org/1999/02/22-rdf-syntax-ns#"
   xmlns:cc="http://creativecommons.org/ns#"><sodipodi:namedview
     id="namedview1017"
     pagecolor="#ffffff"
     bordercolor="#666666"
     borderopacity="1.0"
     inkscape:pageshadow="2"
     inkscape:pageopacity="0"
     inkscape:pagecheckerboard="true"
     inkscape:document-units="px"
     showgrid="true"
     inkscape:zoom="11.357143"
     inkscape:cx="14.748427"
     inkscape:cy="23.289308"
     inkscape:window-width="1366"
     inkscape:window-height="695"
     inkscape:window-x="0"
     inkscape:window-y="0"
     inkscape:window-maximized="1"
     inkscape:current-layer="g906"
     inkscape:snap-global="true"
     showborder="true"
     borderlayer="false"
     inkscape:showpageshadow="false"
     inkscape:deskcolor="#d1d1d1"
     width="42px"><inkscape:grid
       type="xygrid"
       id="grid1080"
       originx="0"
       originy="0" /></sodipodi:namedview><defs
     id="defs1012" /><g
     inkscape:label="icon"
     inkscape:groupmode="layer"
     id="layer1"
     transform="matrix(2.4389982,0,0,2.4182213,-4.0660654,-3.6210429)"><g
       id="g906"
       inkscape:label="smallPen"><path
         id="rect1007"
         style="display:inline;fill:#000000;stroke-width:0.041682;stroke-linecap:round;stroke-linejoin:round;stroke-dashoffset:0.2826;paint-order:markers stroke fill;fill-opacity:1"
         d="M 9.389922 4.9679577 C 9.2894135 4.9679577 9.2081427 5.0491749 9.2081427 5.1496834 L 9.2081427 9.767941 L 4.6324295 9.767941 C 4.5310575 9.767941 4.4498494 9.8499101 4.4498494 9.9512821 L 4.4498494 11.652235 C 4.4498494 11.753607 4.5310575 11.835576 4.6324295 11.835576 L 9.2081427 11.835576 L 9.2081427 16.453834 C 9.2081427 16.554342 9.2894135 16.63556 9.389922 16.63556 L 11.077186 16.63556 C 11.177695 16.63556 11.258165 16.554342 11.258165 16.453834 L 11.258165 11.835576 L 15.833878 11.835576 C 15.93525 11.835576 16.017259 11.753607 16.017259 11.652235 L 16.017259 9.9512821 C 16.017259 9.8499101 15.93525 9.767941 15.833878 9.767941 L 11.258165 9.767941 L 11.258165 5.1496834 C 11.258165 5.0491749 11.177695 4.9679577 11.077186 4.9679577 L 9.389922 4.9679577 z " /></g></g><metadata
     id="metadata1158"><rdf:RDF><cc:Work
         rdf:about=""><cc:license
           rdf:resource="http://creativecommons.org/publicdomain/zero/1.0/" /></cc:Work><cc:License
         rdf:about="http://creativecommons.org/publicdomain/zero/1.0/"><cc:permits
           rdf:resource="http://creativecommons.org/ns#Reproduction" /><cc:permits
           rdf:resource="http://creativecommons.org/ns#Distribution" /><cc:permits
           rdf:resource="http://creativecommons.org/ns#DerivativeWorks" /></cc:License></rdf:RDF></metadata></svg>
