<?xml version="1.0" encoding="UTF-8" standalone="no"?>
<svg
   inkscape:export-ydpi="96"
   inkscape:export-xdpi="96"
   inkscape:export-filename="/home/dmitry/git/OpenBoard/resources/images/stylusPalette/arrow_svg.png"
   sodipodi:docname="proto.svg"
   inkscape:version="1.2 (dc2aedaf03, 2022-05-15)"
   id="svg38508"
   version="1.1"
   viewBox="0 0 42 42"
   height="42"
   width="42"
   xml:space="preserve"
   xmlns:inkscape="http://www.inkscape.org/namespaces/inkscape"
   xmlns:sodipodi="http://sodipodi.sourceforge.net/DTD/sodipodi-0.dtd"
   xmlns:xlink="http://www.w3.org/1999/xlink"
   xmlns="http://www.w3.org/2000/svg"
   xmlns:svg="http://www.w3.org/2000/svg"
   xmlns:rdf="http://www.w3.org/1999/02/22-rdf-syntax-ns#"
   xmlns:cc="http://creativecommons.org/ns#"
   xmlns:dc="http://purl.org/dc/elements/1.1/"><sodipodi:namedview
     id="namedview38510"
     pagecolor="#313131"
     bordercolor="#eeeeee"
     borderopacity="1"
     inkscape:pageshadow="0"
     inkscape:pageopacity="0"
     inkscape:pagecheckerboard="false"
     inkscape:document-units="px"
     showgrid="true"
     fit-margin-top="0"
     fit-margin-left="0"
     fit-margin-right="0"
     fit-margin-bottom="0"
     units="px"
     inkscape:zoom="10.398629"
     inkscape:cx="23.320383"
     inkscape:cy="12.549732"
     inkscape:window-width="1366"
     inkscape:window-height="695"
     inkscape:window-x="0"
     inkscape:window-y="0"
     inkscape:window-maximized="1"
     inkscape:current-layer="g2643"
     inkscape:document-rotation="0"
     inkscape:snap-others="true"
     inkscape:snap-global="true"
     showguides="true"
     inkscape:guide-bbox="true"
     inkscape:showpageshadow="2"
     inkscape:deskcolor="#313131"><inkscape:grid
       type="xygrid"
       id="grid7387"
       dotted="false" /></sodipodi:namedview><defs
     id="defs38505"><linearGradient
       inkscape:collect="always"
       id="linearGradient4493"><stop
         style="stop-color:#e91829;stop-opacity:1;"
         offset="0"
         id="stop4489" /><stop
         style="stop-color:#cc060c;stop-opacity:0.95294118;"
         offset="1"
         id="stop4491" /></linearGradient><linearGradient
       inkscape:collect="always"
       xlink:href="#linearGradient4493"
       id="linearGradient4495"
       x1="195.84747"
       y1="201.2822"
       x2="194.84747"
       y2="236.2822"
       gradientUnits="userSpaceOnUse"
       gradientTransform="matrix(0.93929406,0,0,0.94437536,-9.7364928,11.049362)" /></defs><g
     inkscape:label="icon"
     id="layer1"
     transform="translate(-152.84748,-194.2822)"><g
       id="g2643"
       inkscape:label="proto"><path
         id="path2918"
         style="fill:url(#linearGradient4495);fill-opacity:1;stroke-width:2.60982;stroke-linecap:round;stroke-linejoin:round;stroke-dashoffset:0.2826;paint-order:stroke markers fill"
         d="m 184.14333,232.3605 c -2.15285,1.25742 -4.15707,-3.9053 -6.57506,-3.3086 -2.41799,0.59669 -1.95358,6.2959 -4.44082,6.18352 -2.48724,-0.11239 -1.39716,-5.54499 -3.75216,-6.35735 -2.355,-0.81237 -5.02895,4.23456 -7.06093,2.78804 -2.03198,-1.44654 1.80636,-5.42418 0.26203,-7.38769 -1.54432,-1.9635 -6.50767,0.82876 -7.43925,-1.49263 -0.93157,-2.32141 4.43635,-3.58125 4.19302,-6.07248 -0.24334,-2.49124 -5.92026,-2.84016 -5.45566,-5.29941 0.46463,-2.45925 5.65786,-0.6013 6.79276,-2.82932 1.13492,-2.22802 -3.4532,-5.60733 -1.73992,-7.42364 1.71328,-1.81631 5.08301,2.56958 7.23584,1.31214 2.15284,-1.25745 0.11024,-6.59424 2.52823,-7.19093 2.41796,-0.59671 2.89434,4.9246 5.38159,5.03699 2.48725,0.11238 3.63866,-5.48751 5.99365,-4.67516 2.355,0.81237 -0.21322,5.71614 1.81876,7.16265 2.03195,1.44654 6.01182,-2.63853 7.55616,-0.67504 1.54431,1.9635 -3.25313,4.6928 -2.32156,7.0142 0.93156,2.32142 6.47631,1.04816 6.71963,3.5394 0.24334,2.49124 -5.26018,2.17955 -5.72479,4.63882 -0.46462,2.45924 4.88461,4.40204 3.74968,6.63008 -1.13491,2.22803 -5.59714,-1.0257 -7.31041,0.7906 -1.71328,1.81632 1.74204,6.35836 -0.41079,7.61581 z"
         sodipodi:nodetypes="zzzzzzzzzzzzzzzzzzzzzzz" /><text
         xml:space="preserve"
         style="font-size:10.0483px;line-height:1.25;font-family:'Noto Sans';-inkscape-font-specification:'Noto Sans';fill:#ffffff;fill-opacity:1;stroke-width:0.75362"
         x="168.15543"
         y="213.62917"
         id="text8234"
         transform="scale(0.97467849,1.0259793)"><tspan
           sodipodi:role="line"
           id="tspan8232"
           x="168.15543"
           y="213.62917"
           style="fill:#ffffff;fill-opacity:1;stroke-width:0.75362">HOT</tspan></text><path
         style="opacity:1;fill:none;stroke:#f05d67;stroke-width:1px;stroke-linecap:round;stroke-linejoin:miter;stroke-opacity:0.99607801"
         d="m 172.36005,199.95352 c 0.91532,1.21502 2.78702,1.06438 3.61792,-0.0235"
         id="path12735"
         sodipodi:nodetypes="cc" /><path
         style="opacity:1;fill:none;stroke:#f05d67;stroke-width:1px;stroke-linecap:round;stroke-linejoin:miter;stroke-opacity:0.99607801"
         d="m 180.73903,202.02189 c 0.51575,1.50449 1.91871,1.93172 3.65657,1.34225"
         id="path15811"
         sodipodi:nodetypes="cc" /><path
         style="opacity:1;fill:none;stroke:#f05d67;stroke-width:1px;stroke-linecap:round;stroke-linejoin:miter;stroke-opacity:0.99607801"
         d="m 164.02639,202.9598 c 1.76564,0.65217 3.04332,-0.0254 3.50065,-1.58846"
         id="path15813"
         sodipodi:nodetypes="cc" /></g></g><metadata
     id="metadata854"><rdf:RDF><cc:Work
         rdf:about=""><cc:license
           rdf:resource="http://creativecommons.org/publicdomain/zero/1.0/" /><dc:format>image/svg+xml</dc:format><dc:type
           rdf:resource="http://purl.org/dc/dcmitype/StillImage" /></cc:Work><cc:License
         rdf:about="http://creativecommons.org/publicdomain/zero/1.0/"><cc:permits
           rdf:resource="http://creativecommons.org/ns#Reproduction" /><cc:permits
           rdf:resource="http://creativecommons.org/ns#Distribution" /><cc:permits
           rdf:resource="http://creativecommons.org/ns#DerivativeWorks" /></cc:License></rdf:RDF></metadata></svg>
