<?xml version="1.0" encoding="UTF-8" standalone="no"?>
<!-- Created with Inkscape (http://www.inkscape.org/) -->

<svg
   width="42"
   height="42"
   viewBox="0 0 42 42"
   version="1.1"
   id="SVGRoot"
   sodipodi:docname="remove.svg"
   inkscape:version="1.2 (dc2aedaf03, 2022-05-15)"
   xml:space="preserve"
   xmlns:inkscape="http://www.inkscape.org/namespaces/inkscape"
   xmlns:sodipodi="http://sodipodi.sourceforge.net/DTD/sodipodi-0.dtd"
   xmlns:xlink="http://www.w3.org/1999/xlink"
   xmlns="http://www.w3.org/2000/svg"
   xmlns:svg="http://www.w3.org/2000/svg"
   xmlns:rdf="http://www.w3.org/1999/02/22-rdf-syntax-ns#"
   xmlns:cc="http://creativecommons.org/ns#"><sodipodi:namedview
     id="namedview1017"
     pagecolor="#ffffff"
     bordercolor="#666666"
     borderopacity="1.0"
     inkscape:pageshadow="2"
     inkscape:pageopacity="0"
     inkscape:pagecheckerboard="true"
     inkscape:document-units="px"
     showgrid="true"
     inkscape:zoom="2.8392857"
     inkscape:cx="21.660377"
     inkscape:cy="107.94968"
     inkscape:window-width="1366"
     inkscape:window-height="695"
     inkscape:window-x="0"
     inkscape:window-y="0"
     inkscape:window-maximized="1"
     inkscape:current-layer="g6999"
     inkscape:snap-global="false"
     showborder="true"
     borderlayer="false"
     inkscape:showpageshadow="false"
     inkscape:deskcolor="#d1d1d1"
     width="42px"><inkscape:grid
       type="xygrid"
       id="grid1080"
       originx="0"
       originy="0" /></sodipodi:namedview><defs
     id="defs1012"><linearGradient
       inkscape:collect="always"
       id="linearGradient19946"><stop
         style="stop-color:#e69b33;stop-opacity:1;"
         offset="0"
         id="stop19942" /><stop
         style="stop-color:#f0cb48;stop-opacity:1;"
         offset="1"
         id="stop19944" /></linearGradient><linearGradient
       inkscape:collect="always"
       xlink:href="#linearGradient19946"
       id="linearGradient4147"
       x1="-11.696791"
       y1="29.587009"
       x2="-7.9124699"
       y2="32.872356"
       gradientUnits="userSpaceOnUse"
       gradientTransform="matrix(0.66462007,-0.75341743,0.86077478,0.75805162,12.54903,-21.766077)" /></defs><g
     inkscape:label="icon"
     inkscape:groupmode="layer"
     id="layer1"
     transform="matrix(2.4389982,0,0,2.4182213,-4.0660654,-3.6210429)"><g
       id="g6999"
       inkscape:label="undoOn"
       transform="matrix(0.06709862,-1.002145,0.99390336,0.05908847,-1.3858672,40.292474)"
       style="opacity:1"><path
         id="rect2367"
         style="fill:#744d1e;fill-opacity:1;stroke-width:0.481335;stroke-linecap:round;stroke-linejoin:round;stroke-dashoffset:0.2826;paint-order:markers stroke fill"
         d="m 37.550647,13.095239 c 0.210693,-0.238843 0.189912,-0.599007 -0.04688,-0.807543 l -3.26512,-2.8754643 2.902792,-3.2906226 c 0.210517,-0.2386436 0.18918,-0.5985754 -0.04742,-0.8069365 L 33.9485,2.5445299 C 33.711904,2.3361688 33.351842,2.3602171 33.141325,2.5988607 L 30.238533,5.8894833 26.973416,3.0140188 C 26.736622,2.8054834 26.3764,2.8301115 26.165706,3.0689546 l -2.7954,3.1688826 c -0.210693,0.2388431 -0.189911,0.5990069 0.04688,0.8075423 l 3.265118,2.8754645 -2.902792,3.290623 c -0.210517,0.238643 -0.18918,0.598576 0.04742,0.806937 l 3.145523,2.770142 c 0.236596,0.208361 0.596658,0.184313 0.807175,-0.05433 l 2.902792,-3.290623 3.265116,2.875466 c 0.236794,0.208535 0.597017,0.183907 0.80771,-0.05494 z" /><path
         id="rect3654"
         style="fill:#e8d24c;fill-opacity:1;stroke-width:0.430632;stroke-linecap:round;stroke-linejoin:round;stroke-dashoffset:0.2826;paint-order:markers stroke fill"
         d="m 36.990227,13.110742 c 0.199304,-0.225933 0.179112,-0.566546 -0.04488,-0.763809 L 33.657391,9.4513561 36.580485,6.1377179 c 0.199138,-0.225744 0.179526,-0.566182 -0.04428,-0.7632807 L 33.959207,3.1049741 C 33.7354,2.907876 33.394911,2.9311862 33.195773,3.1569302 L 30.272678,6.4705684 26.984724,3.5749918 C 26.76073,3.3777287 26.419993,3.4004858 26.220688,3.6264184 l -2.289962,2.5959152 c -0.199304,0.2259326 -0.179112,0.5665468 0.04488,0.7638099 l 3.287955,2.8955765 -2.923095,3.313638 c -0.199137,0.225744 -0.179525,0.566182 0.04428,0.76328 l 2.576996,2.269463 c 0.223808,0.197099 0.564297,0.173789 0.763435,-0.05195 l 2.923095,-3.313638 3.287954,2.895576 c 0.223994,0.197263 0.56473,0.174506 0.764034,-0.05143 z" /><path
         id="rect4139"
         style="fill:url(#linearGradient4147);fill-opacity:1;stroke-width:0.378228;stroke-linecap:round;stroke-linejoin:round;stroke-dashoffset:0.2826;paint-order:markers stroke fill"
         d="m 36.429273,13.12685 c 0.187915,-0.213022 0.169448,-0.534161 -0.04175,-0.720153 L 33.076133,9.4904798 36.020065,6.1532203 C 36.207824,5.940376 36.188802,5.6195091 35.977784,5.4336735 L 33.970515,3.6659478 C 33.759497,3.4801122 33.438514,3.5015503 33.250756,3.7143946 L 30.306824,7.0516541 26.995431,4.135436 C 26.784236,3.9494452 26.463053,3.971466 26.275137,4.184489 l -1.783456,2.0217369 c -0.187916,0.213022 -0.169448,0.5341615 0.04175,0.7201523 l 3.311392,2.9162188 -2.943931,3.337258 c -0.187759,0.212845 -0.168738,0.533712 0.04228,0.719548 l 2.00727,1.767725 c 0.211018,0.185836 0.532,0.164398 0.719759,-0.04845 l 2.943932,-3.33726 3.311393,2.916218 c 0.211194,0.185991 0.532378,0.16397 0.720294,-0.04905 z" /></g></g><metadata
     id="metadata1158"><rdf:RDF><cc:Work
         rdf:about=""><cc:license
           rdf:resource="http://creativecommons.org/publicdomain/zero/1.0/" /></cc:Work><cc:License
         rdf:about="http://creativecommons.org/publicdomain/zero/1.0/"><cc:permits
           rdf:resource="http://creativecommons.org/ns#Reproduction" /><cc:permits
           rdf:resource="http://creativecommons.org/ns#Distribution" /><cc:permits
           rdf:resource="http://creativecommons.org/ns#DerivativeWorks" /></cc:License></rdf:RDF></metadata></svg>
