<?xml version="1.0" encoding="UTF-8" standalone="no"?>
<!-- Generator: Adobe Illustrator 13.0.2, SVG Export Plug-In . SVG Version: 6.00 Build 14948)  -->

<svg
   version="1.2"
   x="0px"
   y="0px"
   width="128px"
   height="128px"
   viewBox="0 0 128 128"
   xml:space="preserve"
   id="svg31"
   sodipodi:docname="rename.svg"
   inkscape:version="1.2 (dc2aedaf03, 2022-05-15)"
   xmlns:inkscape="http://www.inkscape.org/namespaces/inkscape"
   xmlns:sodipodi="http://sodipodi.sourceforge.net/DTD/sodipodi-0.dtd"
   xmlns:xlink="http://www.w3.org/1999/xlink"
   xmlns="http://www.w3.org/2000/svg"
   xmlns:svg="http://www.w3.org/2000/svg"
   xmlns:rdf="http://www.w3.org/1999/02/22-rdf-syntax-ns#"
   xmlns:cc="http://creativecommons.org/ns#"
   xmlns:ns="&amp;#38;#38;#38;#38;ns_sfw;"
   xmlns:a="http://ns.adobe.com/AdobeSVGViewerExtensions/3.0/"><defs
   id="defs35"><linearGradient
     inkscape:collect="always"
     xlink:href="#gradientStylusHolder"
     id="linearGradient11809"
     x1="110.36134"
     y1="192.05977"
     x2="117.9259"
     y2="192.05977"
     gradientUnits="userSpaceOnUse"
     gradientTransform="matrix(0.3077232,0,0,0.3077232,117.91101,143.49538)" /><linearGradient
     inkscape:collect="always"
     id="gradientStylusHolder"><stop
       style="stop-color:#a7a7a7;stop-opacity:1;"
       offset="0"
       id="stop9704" /><stop
       style="stop-color:#212121;stop-opacity:1"
       offset="1"
       id="stop9706" /></linearGradient><filter
     inkscape:collect="always"
     style="color-interpolation-filters:sRGB"
     id="filter12705-7"
     x="-0.12427052"
     y="-0.099978448"
     width="1.248541"
     height="1.1999569"
     inkscape:label="filterBottomGlare"><feGaussianBlur
       inkscape:collect="always"
       stdDeviation="0.27371099"
       id="feGaussianBlur12707-6" /></filter><linearGradient
     inkscape:collect="always"
     xlink:href="#gradientBody"
     id="linearGradient12481"
     x1="113.45532"
     y1="190.96683"
     x2="118.70955"
     y2="190.96683"
     gradientUnits="userSpaceOnUse"
     gradientTransform="matrix(0.3077232,0,0,0.3077232,117.91101,143.49538)" /><linearGradient
     inkscape:collect="always"
     id="gradientBody"><stop
       style="stop-color:#ff0000;stop-opacity:1"
       offset="0"
       id="stop6588" /><stop
       style="stop-color:#2b0000;stop-opacity:1"
       offset="1"
       id="stop6590" /></linearGradient><linearGradient
     inkscape:collect="always"
     xlink:href="#gradientButtonAndPin"
     id="linearGradient8002"
     gradientUnits="userSpaceOnUse"
     gradientTransform="matrix(0.22058068,0,0,0.22058068,223.49931,2.2556328)"
     x1="115.95115"
     y1="174.19702"
     x2="121.0631"
     y2="174.19702" /><linearGradient
     inkscape:collect="always"
     id="gradientButtonAndPin"><stop
       style="stop-color:#ffffff;stop-opacity:1"
       offset="0"
       id="stop6886" /><stop
       style="stop-color:#767676;stop-opacity:1"
       offset="1"
       id="stop6888" /></linearGradient><linearGradient
     inkscape:collect="always"
     xlink:href="#gradientBody"
     id="linearGradient6594-9"
     x1="106.14433"
     y1="128.42783"
     x2="108.69588"
     y2="130.97939"
     gradientUnits="userSpaceOnUse"
     gradientTransform="matrix(0.3077232,0,0,0.3077232,123.58467,159.8585)" /><filter
     inkscape:collect="always"
     style="color-interpolation-filters:sRGB"
     id="filter20166"
     x="-0.015434977"
     y="-0.042526065"
     width="1.03087"
     height="1.0850521"><feGaussianBlur
       inkscape:collect="always"
       stdDeviation="0.5721604"
       id="feGaussianBlur20168" /></filter></defs><sodipodi:namedview
   id="namedview33"
   pagecolor="#505050"
   bordercolor="#eeeeee"
   borderopacity="1"
   inkscape:pageshadow="0"
   inkscape:pageopacity="0"
   inkscape:pagecheckerboard="true"
   showgrid="true"
   inkscape:zoom="5.0468749"
   inkscape:cx="66.278639"
   inkscape:cy="79.752324"
   inkscape:window-width="1366"
   inkscape:window-height="695"
   inkscape:window-x="0"
   inkscape:window-y="0"
   inkscape:window-maximized="1"
   inkscape:current-layer="g1275"
   inkscape:showpageshadow="2"
   inkscape:deskcolor="#505050"><inkscape:grid
     type="xygrid"
     id="grid4559" /></sodipodi:namedview>
<metadata
   id="metadata2">
	<ns:sfw>
		<ns:slices />
		<ns:sliceSourceBounds
   x="8.255"
   y="22.924"
   width="110.488"
   height="82.884"
   bottomLeftOrigin="true" />
	</ns:sfw>
<rdf:RDF><cc:Work
     rdf:about=""><cc:license
       rdf:resource="http://creativecommons.org/publicdomain/zero/1.0/" /></cc:Work><cc:License
     rdf:about="http://creativecommons.org/publicdomain/zero/1.0/"><cc:permits
       rdf:resource="http://creativecommons.org/ns#Reproduction" /><cc:permits
       rdf:resource="http://creativecommons.org/ns#Distribution" /><cc:permits
       rdf:resource="http://creativecommons.org/ns#DerivativeWorks" /></cc:License></rdf:RDF></metadata>
<g
   id="Layer_2">
	<linearGradient
   id="SVGID_1_"
   gradientUnits="userSpaceOnUse"
   x1="63.4995"
   y1="24.5024"
   x2="63.4995"
   y2="101.9506">
		<stop
   offset="0"
   style="stop-color:#FCFCFC"
   id="stop4" />
		<stop
   offset="1"
   style="stop-color:#E6E6E6"
   id="stop6" />
		<a:midPointStop
   offset="0"
   style="stop-color:#FCFCFC" />
		<a:midPointStop
   offset="0.5"
   style="stop-color:#FCFCFC" />
		<a:midPointStop
   offset="1"
   style="stop-color:#E6E6E6" />
	</linearGradient>
	<path
   fill="url(#SVGID_1_)"
   d="M104.906,102.468H22.091c-6.19,0-11.227-5.038-11.227-11.231V36.028   c0-6.191,5.036-11.227,11.227-11.227h82.815c6.19,0,11.229,5.036,11.229,11.227v55.208   C116.135,97.43,111.097,102.468,104.906,102.468L104.906,102.468z"
   id="path9" />
	<linearGradient
   id="SVGID_2_"
   gradientUnits="userSpaceOnUse"
   x1="66.1289"
   y1="104.8428"
   x2="66.1289"
   y2="77.0022">
		<stop
   offset="0"
   style="stop-color:#E0E0E0"
   id="stop11" />
		<stop
   offset="1"
   style="stop-color:#999999"
   id="stop13" />
		<a:midPointStop
   offset="0"
   style="stop-color:#E0E0E0" />
		<a:midPointStop
   offset="0.5"
   style="stop-color:#E0E0E0" />
		<a:midPointStop
   offset="1"
   style="stop-color:#999999" />
	</linearGradient>
	
	<path
   fill="#FFFFFF"
   d="M104.906,22.192c7.629,0,13.837,6.207,13.837,13.836v55.208c0,7.633-6.208,13.84-13.837,13.84H22.091   c-7.629,0-13.836-6.207-13.836-13.84V36.028c0-7.629,6.207-13.836,13.836-13.836H104.906 M104.906,27.412H22.091   c-4.751,0-8.616,3.865-8.616,8.616v55.208c0,4.753,3.865,8.619,8.616,8.619h82.815c4.751,0,8.617-3.866,8.617-8.619V36.028   C113.523,31.277,109.657,27.412,104.906,27.412L104.906,27.412z"
   id="path18" />
	<path
   fill="#B0B9C4"
   d="M104.906,22.192c7.629,0,13.837,6.207,13.837,13.836v55.208c0,7.633-6.208,13.84-13.837,13.84H22.091   c-7.629,0-13.836-6.207-13.836-13.84V36.028c0-7.629,6.207-13.836,13.836-13.836H104.906 M104.906,25.672H22.091   c-5.71,0-10.356,4.646-10.356,10.356v55.208c0,5.713,4.646,10.359,10.356,10.359h82.815c5.711,0,10.357-4.646,10.357-10.359V36.028   C115.264,30.318,110.617,25.672,104.906,25.672L104.906,25.672z"
   id="path20" />
</g><rect
   style="mix-blend-mode:normal;fill:#000000;fill-opacity:0.21598727;stroke:none;stroke-width:2.02914;stroke-linecap:round;stroke-linejoin:round;stroke-dashoffset:0.2826;stroke-opacity:1;paint-order:stroke markers fill;filter:url(#filter20166)"
   id="rect20163"
   width="88.965797"
   height="32.290432"
   x="19.017099"
   y="50.695"
   ry="1.8518901" />

<rect
   style="fill:#ffffff;fill-opacity:1;stroke:#6d7691;stroke-width:2.02914;stroke-linecap:round;stroke-linejoin:round;stroke-dashoffset:0.2826;stroke-opacity:1;paint-order:stroke markers fill"
   id="rect3465"
   width="88.965797"
   height="32.290432"
   x="19.017099"
   y="46.695"
   ry="1.8518901" /><text
   xml:space="preserve"
   style="font-style:normal;font-weight:normal;font-size:30.2813px;line-height:1.25;font-family:sans-serif;fill:#4b4b4b;fill-opacity:1;stroke:none;stroke-width:0.757031"
   x="26.804951"
   y="69.646942"
   id="text10178"
   transform="scale(0.93266345,1.0721981)"><tspan
     sodipodi:role="line"
     id="tspan10176"
     x="26.804951"
     y="69.646942"
     style="fill:#4b4b4b;fill-opacity:1;stroke-width:0.757031">Abc</tspan></text><g
   id="g1275"
   inkscape:label="penArrow"
   transform="matrix(7.3590291,-1.6777986,1.6627639,7.5559103,-1386.9835,-1188.3598)"><path
     style="fill:url(#linearGradient11809);fill-opacity:1;stroke:none;stroke-width:0.0888376px;stroke-linecap:butt;stroke-linejoin:miter;stroke-opacity:1"
     d="m 151.88736,203.91449 c 0,0 -0.22694,-0.98201 1.05103,-2.26009 1.27797,-1.27805 1.26115,1.08663 1.26115,1.08663 0,0 -1.03653,1.24925 -2.31218,1.17346 z"
     id="path9606"
     sodipodi:nodetypes="cccc"
     inkscape:label="blackBlur" /><path
     style="fill:#ffffff;fill-opacity:1;stroke:none;stroke-width:0.264583px;stroke-linecap:butt;stroke-linejoin:miter;stroke-opacity:1;filter:url(#filter12705-7)"
     d="m 109.86907,196.12316 3.79766,-6.57048 1.4884,1.10567 -5.2861,5.46481 z"
     id="path12389-5"
     transform="matrix(0.33413223,0,0,0.3133411,115.10805,142.47313)"
     inkscape:label="bottomGlare" /><path
     style="fill:#302300;fill-opacity:1;stroke:none;stroke-width:0.0814186px;stroke-linecap:butt;stroke-linejoin:miter;stroke-opacity:1"
     d="m 151.87787,203.74351 c 0,0 0.146,0.0454 0.17015,0.16699 -0.2233,0.14945 -0.26019,0.099 -0.26019,0.099 z"
     id="path38159-5"
     sodipodi:nodetypes="cccc"
     inkscape:label="stylus" /><path
     style="fill:url(#linearGradient12481);fill-opacity:1;stroke:none;stroke-width:0.0814186px;stroke-linecap:butt;stroke-linejoin:miter;stroke-opacity:1"
     d="m 152.90294,201.52853 -0.0792,0.24657 c 0,0 0.66256,0.27659 1.25844,1.09421 0.50207,0.68885 0,0 0,0 l 0.19489,-0.0953 -0.0789,-0.99598 -0.9422,-0.23881 z"
     id="path12399"
     sodipodi:nodetypes="ccsccccc"
     inkscape:label="bevel" /><rect
     style="fill:url(#linearGradient8002);fill-opacity:1;stroke:none;stroke-width:0.0363957;stroke-linecap:round;stroke-linejoin:round"
     id="rect7697"
     width="1.3199494"
     height="1.0281007"
     x="248.98965"
     y="40.248985"
     ry="0.19898757"
     transform="rotate(41.902436)"
     rx="0.65997469"
     inkscape:label="button" /><path
     style="fill:url(#linearGradient6594-9);fill-opacity:1;stroke:none;stroke-width:0.0814186px;stroke-linecap:butt;stroke-linejoin:miter;stroke-opacity:1"
     d="m 152.90294,201.52853 4.67085,-4.59053 c 0.24894,-0.13422 0.42256,-0.0237 0.79178,0.21994 0.32682,0.21559 0.49851,0.5392 0.50119,0.76853 l -4.58955,4.84759 c -0.15837,-0.52073 -0.80391,-1.05701 -1.37427,-1.24553 z"
     id="path55-2-5"
     sodipodi:nodetypes="ccsccc"
     inkscape:label="body" /></g></svg>
