<?xml version="1.0" encoding="UTF-8" standalone="no"?>
<!-- Created with Inkscape (http://www.inkscape.org/) -->

<svg
   width="42"
   height="42"
   viewBox="0 0 42 42"
   version="1.1"
   id="SVGRoot"
   sodipodi:docname="settings.svg"
   inkscape:version="1.2 (dc2aedaf03, 2022-05-15)"
   xml:space="preserve"
   xmlns:inkscape="http://www.inkscape.org/namespaces/inkscape"
   xmlns:sodipodi="http://sodipodi.sourceforge.net/DTD/sodipodi-0.dtd"
   xmlns:xlink="http://www.w3.org/1999/xlink"
   xmlns="http://www.w3.org/2000/svg"
   xmlns:svg="http://www.w3.org/2000/svg"
   xmlns:rdf="http://www.w3.org/1999/02/22-rdf-syntax-ns#"
   xmlns:cc="http://creativecommons.org/ns#"><sodipodi:namedview
     id="namedview1017"
     pagecolor="#ffffff"
     bordercolor="#666666"
     borderopacity="1.0"
     inkscape:pageshadow="2"
     inkscape:pageopacity="0"
     inkscape:pagecheckerboard="true"
     inkscape:document-units="px"
     showgrid="true"
     inkscape:zoom="10.24"
     inkscape:cx="31.00586"
     inkscape:cy="23.486328"
     inkscape:window-width="1366"
     inkscape:window-height="695"
     inkscape:window-x="0"
     inkscape:window-y="0"
     inkscape:window-maximized="1"
     inkscape:current-layer="g906"
     inkscape:snap-global="true"
     showborder="true"
     borderlayer="false"
     inkscape:showpageshadow="false"
     inkscape:deskcolor="#d1d1d1"
     width="42px"><inkscape:grid
       type="xygrid"
       id="grid1080"
       originx="0"
       originy="0" /></sodipodi:namedview><defs
     id="defs1012"><linearGradient
       gradientTransform="matrix(19.746755,0,0,-23.646815,3611.9884,14821.827)"
       gradientUnits="userSpaceOnUse"
       id="gears"
       x1="-184.1609"
       x2="-184.1609"
       y1="627.5"
       y2="626.00049"><stop
         offset="0"
         style="stop-color:#f3f3f3;stop-opacity:1;"
         id="stop64594" /><stop
         offset="1"
         style="stop-color:#707376;stop-opacity:1;"
         id="stop64596" /></linearGradient><linearGradient
       gradientTransform="matrix(19.746755,0,0,-23.646815,3611.9884,14821.827)"
       gradientUnits="userSpaceOnUse"
       id="SVGID_1_"
       x1="-184.1609"
       x2="-184.1609"
       y1="627.5"
       y2="626.00049"><stop
         offset="0"
         style="stop-color:#eeefef;stop-opacity:1;"
         id="stop54913" /><stop
         offset="1"
         style="stop-color:#75787a;stop-opacity:1;"
         id="stop54915" /></linearGradient><linearGradient
       inkscape:collect="always"
       xlink:href="#SVGID_1_"
       id="linearGradient56216"
       x1="13.835302"
       y1="4.9281974"
       x2="12.980304"
       y2="7.7697129"
       gradientUnits="userSpaceOnUse" /><linearGradient
       inkscape:collect="always"
       xlink:href="#gears"
       id="linearGradient56218"
       x1="10.261981"
       y1="9.2775879"
       x2="10.12348"
       y2="17.298353"
       gradientUnits="userSpaceOnUse"
       gradientTransform="translate(0,-0.14386623)" /><linearGradient
       inkscape:collect="always"
       xlink:href="#gears"
       id="linearGradient67567"
       gradientUnits="userSpaceOnUse"
       x1="12.600852"
       y1="7.465486"
       x2="14.336324"
       y2="3.2372797" /></defs><g
     inkscape:label="icon"
     inkscape:groupmode="layer"
     id="layer1"
     transform="matrix(2.4389982,0,0,2.4182213,-4.0660654,-3.6210429)"><g
       id="g906"
       inkscape:label="stop"
       transform="matrix(1,0,0,0.84210527,0,1.6076001)"><rect
         style="display:inline;fill:#818486;stroke-width:0.133358;stroke-linecap:round;stroke-linejoin:round;stroke-dashoffset:0.2826;paint-order:markers stroke fill;fill-opacity:1"
         id="rect1007"
         width="15.580166"
         height="15.714028"
         x="2.4871135"
         y="2.3244536"
         ry="0.55525041" /><rect
         style="fill:#dfdfdf;fill-opacity:1;stroke-width:0.126339;stroke-linecap:round;stroke-linejoin:round;stroke-dashoffset:0.2826;paint-order:markers stroke fill"
         id="rect2371"
         width="14.760157"
         height="14.886974"
         x="2.8971179"
         y="2.7379806"
         ry="0.52602673" /><rect
         style="fill:#444444;fill-opacity:1;stroke-width:0.117997;stroke-linecap:round;stroke-linejoin:round;stroke-dashoffset:0.2826;paint-order:markers stroke fill"
         id="rect28817"
         width="13.940149"
         height="13.749776"
         x="3.3071222"
         y="3.3065803"
         ry="0.48584414" /><path
         id="rect27346"
         style="display:inline;fill:url(#linearGradient56218);fill-opacity:1;stroke:#c1c1c1;stroke-width:0.00897414;stroke-linecap:round;stroke-linejoin:round;stroke-dasharray:none;stroke-dashoffset:0.2826;stroke-opacity:1;paint-order:markers fill stroke"
         d="M 9.3570896,6.6001581 9.1336693,8.1903595 C 8.7298449,8.3144202 8.342695,8.5040975 7.9797311,8.7571924 L 6.8698364,7.8191846 5.5693536,9.3585533 6.3621356,10.671574 c -0.2136452,0.429655 -0.3748351,0.887763 -0.4796731,1.36577 l -1.3437254,0.264714 v 2.177175 l 1.3437254,0.264714 c 0.104838,0.478008 0.2660279,0.936118 0.4796731,1.36577 l -0.5781703,0.958149 h 8.9864637 l -0.57817,-0.958149 c 0.213644,-0.429652 0.374835,-0.887762 0.479673,-1.36577 l 0.671863,-0.132357 0.671862,-0.132357 v -2.177175 l -1.343725,-0.264714 c -0.06893,-0.314303 -0.16225,-0.620487 -0.278675,-0.91499 -0.06064,-0.153391 -0.12783,-0.303635 -0.200998,-0.45078 L 14.985041,9.3585533 13.684558,7.8191846 12.574663,8.7571924 C 12.211702,8.5040975 11.824549,8.3144202 11.420725,8.1903595 l -0.22342,-1.5902014 z m 0.9201074,3.9611179 c 1.318414,0 2.391159,1.269355 2.391159,2.829369 0,1.560014 -1.072745,2.82937 -2.391159,2.82937 -1.3184128,0 -2.3911583,-1.269356 -2.3911583,-2.82937 0,-1.560014 1.0727455,-2.829369 2.3911583,-2.829369 z" /><path
         id="path50112"
         style="display:inline;fill:url(#linearGradient56216);fill-opacity:1;stroke:#c1c1c1;stroke-width:0.0083691;stroke-linecap:round;stroke-linejoin:round;stroke-dasharray:none;stroke-dashoffset:0.2826;stroke-opacity:1;paint-order:markers fill stroke"
         d="M 9.6069361 3.3065804 L 8.9999374 3.7420155 L 9.6357645 5.5950126 L 10.892204 5.2554883 C 11.123719 5.6181976 11.39853 5.9397936 11.711412 6.2155556 L 11.399104 7.6666864 L 12.989472 8.4301365 L 13.690164 7.1641137 C 14.082544 7.2267556 14.477551 7.2256103 14.868125 7.1612363 L 15.527976 8.4205454 L 17.143169 7.645586 L 16.874905 6.1982917 C 17.00485 6.0857469 17.129004 5.9652009 17.247272 5.8367079 L 17.247272 3.7928483 C 17.247272 3.5236909 17.03035 3.3065804 16.761193 3.3065804 L 16.395232 3.3065804 C 16.159491 3.8974362 15.738499 4.3937529 15.179633 4.6618003 C 14.036416 5.2101176 12.742621 4.6021373 12.272765 3.3065804 L 9.6069361 3.3065804 z " /><path
         id="path66818"
         style="display:inline;fill:url(#linearGradient67567);fill-opacity:1;stroke:#c1c1c1;stroke-width:0.0083691;stroke-linecap:round;stroke-linejoin:round;stroke-dasharray:none;stroke-dashoffset:0.2826;stroke-opacity:1;paint-order:markers fill stroke"
         d="M 9.6069361 3.3065804 L 8.9999374 3.7420155 L 9.6357645 5.5950126 L 10.892204 5.2554883 C 11.123719 5.6181976 11.39853 5.9397936 11.711412 6.2155556 L 11.399104 7.6666864 L 12.989472 8.4301365 L 13.690164 7.1641137 C 14.082544 7.2267556 14.477551 7.2256103 14.868125 7.1612363 L 15.527976 8.4205454 L 17.143169 7.645586 L 16.874905 6.1982917 C 17.00485 6.0857469 17.129004 5.9652009 17.247272 5.8367079 L 17.247272 3.7928483 C 17.247272 3.5236909 17.03035 3.3065804 16.761193 3.3065804 L 16.395232 3.3065804 C 16.159491 3.8974362 15.738499 4.3937529 15.179633 4.6618003 C 14.036416 5.2101176 12.742621 4.6021373 12.272765 3.3065804 L 9.6069361 3.3065804 z " /></g></g><metadata
     id="metadata1158"><rdf:RDF><cc:Work
         rdf:about=""><cc:license
           rdf:resource="http://creativecommons.org/publicdomain/zero/1.0/" /></cc:Work><cc:License
         rdf:about="http://creativecommons.org/publicdomain/zero/1.0/"><cc:permits
           rdf:resource="http://creativecommons.org/ns#Reproduction" /><cc:permits
           rdf:resource="http://creativecommons.org/ns#Distribution" /><cc:permits
           rdf:resource="http://creativecommons.org/ns#DerivativeWorks" /></cc:License></rdf:RDF></metadata></svg>
