<?xml version="1.0" encoding="UTF-8" standalone="no"?>
<!-- Created with Inkscape (http://www.inkscape.org/) -->

<svg
   width="42"
   height="42"
   id="svg3440"
   sodipodi:version="0.32"
   inkscape:version="1.2 (dc2aedaf03, 2022-05-15)"
   sodipodi:docname="softwareUpdate.svg"
   version="1.1"
   xml:space="preserve"
   xmlns:inkscape="http://www.inkscape.org/namespaces/inkscape"
   xmlns:sodipodi="http://sodipodi.sourceforge.net/DTD/sodipodi-0.dtd"
   xmlns:xlink="http://www.w3.org/1999/xlink"
   xmlns="http://www.w3.org/2000/svg"
   xmlns:svg="http://www.w3.org/2000/svg"
   xmlns:rdf="http://www.w3.org/1999/02/22-rdf-syntax-ns#"
   xmlns:cc="http://creativecommons.org/ns#"
   xmlns:dc="http://purl.org/dc/elements/1.1/"><defs
     id="defs3"><linearGradient
       id="linearGradient6527"><stop
         style="stop-color:#346604;stop-opacity:1;"
         offset="0"
         id="stop6529" /><stop
         style="stop-color:#4e9a06;stop-opacity:1;"
         offset="1"
         id="stop6531" /></linearGradient><linearGradient
       inkscape:collect="always"
       id="linearGradient6001"><stop
         style="stop-color:#ffffff;stop-opacity:1;"
         offset="0"
         id="stop6003" /><stop
         style="stop-color:#ffffff;stop-opacity:0;"
         offset="1"
         id="stop6005" /></linearGradient><linearGradient
       inkscape:collect="always"
       id="linearGradient4825"><stop
         style="stop-color:#ffffff;stop-opacity:1;"
         offset="0"
         id="stop4827" /><stop
         style="stop-color:#ffffff;stop-opacity:0;"
         offset="1"
         id="stop4829" /></linearGradient><linearGradient
       id="linearGradient4126"><stop
         style="stop-color:#ffffff;stop-opacity:1.0000000;"
         offset="0.0000000"
         id="stop4128" /><stop
         style="stop-color:#ffffff;stop-opacity:0.16494845;"
         offset="1.0000000"
         id="stop4130" /></linearGradient><linearGradient
       inkscape:collect="always"
       id="linearGradient4114"><stop
         style="stop-color:#000000;stop-opacity:1;"
         offset="0"
         id="stop4116" /><stop
         style="stop-color:#000000;stop-opacity:0;"
         offset="1"
         id="stop4118" /></linearGradient><linearGradient
       id="linearGradient3962"><stop
         style="stop-color:#d3e9ff;stop-opacity:1.0000000;"
         offset="0.0000000"
         id="stop3964" /><stop
         style="stop-color:#d3e9ff;stop-opacity:1.0000000;"
         offset="0.15517241"
         id="stop4134" /><stop
         style="stop-color:#4074ae;stop-opacity:1.0000000;"
         offset="0.75000000"
         id="stop4346" /><stop
         style="stop-color:#36486c;stop-opacity:1.0000000;"
         offset="1.0000000"
         id="stop3966" /></linearGradient><radialGradient
       inkscape:collect="always"
       xlink:href="#linearGradient4114"
       id="radialGradient4120"
       gradientTransform="scale(1.64399,0.608276)"
       cx="15.115514"
       cy="63.965389"
       fx="15.115514"
       fy="63.965389"
       r="12.289036"
       gradientUnits="userSpaceOnUse" /><radialGradient
       inkscape:collect="always"
       xlink:href="#linearGradient4825"
       id="radialGradient5983"
       gradientUnits="userSpaceOnUse"
       cx="12.071323"
       cy="12.493138"
       fx="12.071323"
       fy="12.493138"
       r="6.7175145" /><radialGradient
       inkscape:collect="always"
       xlink:href="#linearGradient4825"
       id="radialGradient5985"
       gradientUnits="userSpaceOnUse"
       cx="12.071323"
       cy="12.493138"
       fx="12.071323"
       fy="12.493138"
       r="6.7175145" /><radialGradient
       inkscape:collect="always"
       xlink:href="#linearGradient4825"
       id="radialGradient5987"
       gradientUnits="userSpaceOnUse"
       cx="12.071323"
       cy="12.493138"
       fx="12.071323"
       fy="12.493138"
       r="6.7175145" /><radialGradient
       inkscape:collect="always"
       xlink:href="#linearGradient4825"
       id="radialGradient5989"
       gradientUnits="userSpaceOnUse"
       cx="12.071323"
       cy="12.493138"
       fx="12.071323"
       fy="12.493138"
       r="6.7175145" /><linearGradient
       inkscape:collect="always"
       xlink:href="#linearGradient6001"
       id="linearGradient6007"
       x1="-25.176178"
       y1="30.057165"
       x2="-22.252472"
       y2="21.041553"
       gradientUnits="userSpaceOnUse" /><linearGradient
       inkscape:collect="always"
       xlink:href="#linearGradient6001"
       id="linearGradient6011"
       gradientUnits="userSpaceOnUse"
       x1="-25.176178"
       y1="30.057165"
       x2="-22.113543"
       y2="22.661524" /><linearGradient
       inkscape:collect="always"
       xlink:href="#linearGradient6001"
       id="linearGradient6015"
       gradientUnits="userSpaceOnUse"
       x1="-22.822565"
       y1="28.337734"
       x2="-22.113543"
       y2="22.661524" /><linearGradient
       inkscape:collect="always"
       xlink:href="#linearGradient6001"
       id="linearGradient6019"
       gradientUnits="userSpaceOnUse"
       x1="-21.658581"
       y1="15.649428"
       x2="-21.962101"
       y2="21.336346" /><radialGradient
       inkscape:collect="always"
       xlink:href="#linearGradient4126-4"
       id="radialGradient3976"
       gradientUnits="userSpaceOnUse"
       gradientTransform="matrix(1,0,0,0.5,0,20)"
       cx="23.857143"
       cy="40"
       fx="23.857143"
       fy="40"
       r="17.142857" /><linearGradient
       id="linearGradient4126-4"
       inkscape:collect="always"><stop
         id="stop4128-3"
         offset="0"
         style="stop-color:#000000;stop-opacity:1;" /><stop
         id="stop4130-7"
         offset="1"
         style="stop-color:#000000;stop-opacity:0;" /></linearGradient><linearGradient
       inkscape:collect="always"
       xlink:href="#linearGradient2516"
       id="linearGradient2518"
       x1="44.40173"
       y1="75.594719"
       x2="84.35276"
       y2="40.955788"
       gradientUnits="userSpaceOnUse"
       gradientTransform="matrix(1.0226443,0,0,1.0226443,-1.5674814,-1.4223122)" /><linearGradient
       inkscape:collect="always"
       id="linearGradient2516"><stop
         style="stop-color:#047cbc;stop-opacity:1;"
         offset="0"
         id="stop2512" /><stop
         style="stop-color:#479fd1;stop-opacity:1;"
         offset="1"
         id="stop2514" /></linearGradient><linearGradient
       id="SVGID_5_"
       gradientUnits="userSpaceOnUse"
       x1="59.795898"
       y1="62.130901"
       x2="52.398499"
       y2="75.406898">
	<stop
   offset="0"
   style="stop-color:#FFFFFF"
   id="stop67" />
	<stop
   offset="1"
   style="stop-color:#84BEDF"
   id="stop69" />
</linearGradient><linearGradient
       id="SVGID_6_"
       gradientUnits="userSpaceOnUse"
       x1="52.443401"
       y1="44.7925"
       x2="39.066601"
       y2="60.338299">
	<stop
   offset="0"
   style="stop-color:#FFFFFF"
   id="stop92" />
	<stop
   offset="1"
   style="stop-color:#84BEDF"
   id="stop94" />
</linearGradient><linearGradient
       id="SVGID_7_"
       gradientUnits="userSpaceOnUse"
       x1="77.332001"
       y1="50.862301"
       x2="84.039398"
       y2="71.370102">
	<stop
   offset="0"
   style="stop-color:#FFFFFF"
   id="stop101" />
	<stop
   offset="1"
   style="stop-color:#84BEDF"
   id="stop103" />
</linearGradient></defs><sodipodi:namedview
     id="base"
     pagecolor="#ffffff"
     bordercolor="#666666"
     borderopacity="0.17254902"
     inkscape:pageopacity="0"
     inkscape:pageshadow="2"
     inkscape:zoom="11.313708"
     inkscape:cx="22.185476"
     inkscape:cy="23.025166"
     inkscape:current-layer="g5173"
     showgrid="true"
     inkscape:grid-bbox="true"
     inkscape:document-units="px"
     inkscape:window-width="1366"
     inkscape:window-height="695"
     inkscape:window-x="0"
     inkscape:window-y="0"
     inkscape:showpageshadow="false"
     inkscape:window-maximized="1"
     inkscape:pagecheckerboard="0"
     inkscape:deskcolor="#d1d1d1"><inkscape:grid
       type="xygrid"
       id="grid6369"
       originx="0"
       originy="0" /></sodipodi:namedview><metadata
     id="metadata4"><rdf:RDF><cc:Work
         rdf:about=""><dc:format>image/svg+xml</dc:format><dc:type
           rdf:resource="http://purl.org/dc/dcmitype/StillImage" /><cc:license
           rdf:resource="http://creativecommons.org/publicdomain/zero/1.0/" /></cc:Work><cc:License
         rdf:about="http://creativecommons.org/publicdomain/zero/1.0/"><cc:permits
           rdf:resource="http://creativecommons.org/ns#Reproduction" /><cc:permits
           rdf:resource="http://creativecommons.org/ns#Distribution" /><cc:permits
           rdf:resource="http://creativecommons.org/ns#DerivativeWorks" /></cc:License></rdf:RDF></metadata><g
     id="g5173"
     inkscape:label="icon"
     transform="matrix(1.0023722,0,0,1.0023722,-2.1591143,-3.0965282)"><g
       id="g1780"
       inkscape:label="earth"
       transform="matrix(0.45948521,0,0,0.45948524,-6.0286209,-6.9335703)"><circle
         fill="none"
         stroke="#047cbc"
         stroke-width="1.53397"
         stroke-miterlimit="10"
         cx="63.350998"
         cy="56.939999"
         id="circle2510"
         style="display:inline;fill:url(#linearGradient2518);fill-opacity:1;stroke:none"
         r="28" /><path
         fill="url(#SVGID_5_)"
         d="m 61.514,68.906 c -1.242,-0.533 -3.252,-1.42 -4.14,-2.545 -0.651,-0.77 -0.592,-0.77 -1.598,-1.123 -0.828,-0.236 -1.361,-0.709 -2.309,-0.828 -0.709,-0.061 -3.549,-0.77 -3.371,0.236 l -0.06,-0.236 c -0.354,1.125 -0.888,2.07 -1.479,3.135 -0.413,0.77 -0.296,1.006 -0.06,1.834 0.414,1.539 0.592,1.656 1.834,2.307 3.55,1.953 -0.414,7.633 2.545,9.289 0.473,0.297 1.064,0.473 1.537,0.65 0.592,-0.828 0.888,-1.361 1.716,-1.893 0.532,-0.297 0.888,-0.414 1.243,-0.947 0.472,-0.59 0.295,-1.184 0.591,-1.773 0.414,-0.83 1.538,-0.594 2.189,-1.184 0.828,-0.77 0.887,-1.775 1.242,-2.662 0.414,-0.947 1.656,-1.42 2.012,-2.309 0.416,-1.181 -1.004,-1.595 -1.892,-1.951 z"
         id="path72"
         style="display:inline;fill:url(#SVGID_5_)" /><path
         fill="#ffffff"
         d="m 72.99,46.129 c 0,0.592 -0.709,0.947 -0.412,1.479 0.592,-0.71 1.006,-1.065 1.953,-1.184 -0.238,-0.71 -1.007,-1.183 -1.185,-1.893 -0.177,-0.532 0,-1.243 -0.769,-1.065 l 0.176,0.178 c -0.887,-0.178 -0.473,0.947 -0.295,1.361 0.12,0.296 0.532,0.888 0.532,1.124 z"
         id="path74"
         style="display:inline" /><path
         fill="#ffffff"
         d="m 71.705,45.201 c -0.227,0.5 -0.505,0.842 -0.606,1.403 1.032,0.516 0.893,-0.725 0.606,-1.403 z"
         id="path78"
         style="display:inline" /><path
         fill="#ffffff"
         d="m 68.258,39.563 0.119,-0.177 c -0.236,0.059 -0.65,0.059 -0.946,0.118 -0.415,1.301 0.946,1.479 1.716,0.887 1.3,-1.006 -0.06,-1.479 -0.889,-0.828 z"
         id="path80"
         style="display:inline" /><path
         fill="#ffffff"
         d="m 76.669,33.606 c -0.095,-0.1 -0.195,-0.204 -0.306,-0.313 0.096,0.115 0.199,0.217 0.306,0.313 z"
         id="path84"
         style="display:inline" /><path
         fill="url(#SVGID_6_)"
         d="m 48.854,64.469 0.236,0.236 c 0.178,-0.176 -0.887,-0.709 -1.125,-1.006 -0.473,-0.709 -0.059,-1.242 0.061,-2.188 -0.533,0.059 -1.064,0.295 -1.657,0.295 0.179,-0.355 1.124,-1.42 0.77,-1.834 -0.474,-0.414 -1.715,1.125 -2.248,1.125 -0.296,-1.006 -0.591,-2.723 0.178,-3.551 0.473,-0.531 1.597,-0.887 2.247,-0.65 0.889,0.295 0.83,0.889 1.006,1.656 0.77,-0.828 0.414,-2.129 0.888,-3.018 0.297,-0.59 1.065,-0.65 1.124,-1.359 l -0.118,0.117 c 0.946,-0.945 1.774,-1.951 2.84,-2.779 0.888,-0.711 2.129,-1.42 2.722,-2.367 -0.77,-0.117 -1.479,-0.059 -0.828,-1.005 0.592,-0.947 2.07,-0.297 2.247,-1.184 0.179,-0.828 -1.183,-1.774 -1.419,-2.484 -0.236,-0.591 -0.474,-1.361 -0.593,-2.012 -0.294,0.296 -0.474,0.71 -0.769,1.006 -0.473,-0.828 -0.118,-1.184 -1.123,-1.006 -0.593,0.06 -1.184,0.474 -1.361,1.064 -0.236,0.711 0.236,1.48 0,2.189 -0.178,0.592 -0.828,1.479 -1.361,1.716 -0.176,-0.65 0.355,-1.302 0.178,-1.952 -1.006,0.059 -1.301,-0.473 -2.07,-0.946 l 0.236,-0.119 c -0.354,0.237 -0.887,-0.591 -1.301,-0.828 0.709,-0.946 1.715,-1.656 2.484,-2.544 0.592,1.125 1.539,-1.597 2.012,-2.071 0.354,-0.414 1.656,-0.828 2.012,-0.236 0.413,0.709 -0.592,1.479 -0.947,1.952 0.65,0 1.36,0.118 1.894,0.474 0.532,-0.415 1.242,-1.065 1.538,-1.716 -0.474,-0.295 -0.888,-0.591 -1.242,-1.005 0.354,-0.709 0.274,-1.633 -0.459,-1.478 0.117,-0.071 0.229,-0.154 0.34,-0.238 -1.36,-0.415 -1.834,0.473 -1.537,-1.184 0.117,-0.769 0.295,-1.243 0.946,-1.953 l -0.178,-0.059 c 0.354,-0.355 0.651,-0.828 0.888,-1.243 -0.06,0 -0.236,0 -0.296,0 0.06,-0.259 0.003,-0.471 -0.14,-0.645 -10.131,3.406 -17.558,12.696 -18.224,23.808 1.694,-0.535 2.721,2.424 3.278,3.812 -0.178,-0.65 -0.296,-1.359 -0.592,-1.951 0.828,0.947 1.774,1.479 1.893,2.781 0.119,0.828 -0.236,0.77 0.709,1.123 0.711,0.236 1.479,0.178 2.129,0.475 1.302,0.475 3.314,3.077 4.732,2.782 z"
         id="path97"
         style="display:inline;fill:url(#SVGID_6_)" /><path
         fill="#ffffff"
         d="m 66.84,35.422 c 0.117,-0.237 1.063,-0.414 1.36,-0.474 -0.06,-0.946 -0.474,-1.952 -0.179,-2.78 0.143,-0.425 0.476,-0.976 0.859,-1.376 -0.453,-0.093 -0.91,-0.173 -1.373,-0.243 l -0.494,0.063 0.467,-0.066 c -1.305,-0.195 -2.64,-0.297 -3.999,-0.297 -1.8,0 -3.556,0.178 -5.257,0.516 -0.199,0.507 -0.496,1.167 -0.496,1.167 l 0.157,-0.023 c -0.574,0.972 -2.29,1.029 -2.346,2.212 0.887,0.117 1.834,-0.237 2.722,-0.059 0.709,1.124 1.004,2.011 0.354,3.253 0.414,0.474 0.946,0.06 1.42,0.118 -0.119,1.006 -1.064,1.775 -0.65,2.898 0.118,0.415 0.414,1.36 0.592,1.716 0.355,0.533 0.533,0.414 1.184,0.65 0.65,-1.242 0.531,-2.838 1.893,-3.548 0.888,-0.415 1.951,-0.474 2.721,-0.947 0.532,-0.354 1.479,-1.064 1.479,-1.775 -0.001,-0.413 -0.594,-0.532 -0.414,-1.005 z"
         id="path99"
         style="display:inline" /><path
         fill="url(#SVGID_7_)"
         d="m 77.287,34.069 c 0.029,0.037 0.056,0.074 0.082,0.11 -0.096,-0.08 -0.193,-0.156 -0.288,-0.232 -0.073,-0.043 -0.146,-0.087 -0.219,-0.129 0.625,0.71 0.861,1.28 0.861,2.432 -0.354,-0.118 -0.65,-0.236 -0.946,-0.414 -0.355,1.242 -0.531,2.189 0.119,3.372 -0.174,0.578 -0.684,1.325 -0.542,1.964 -0.337,0.67 -0.69,1.749 -0.523,2.413 1.42,-1.183 1.302,0.06 2.248,0.828 0.296,-0.531 0.532,-1.124 0.888,-1.656 0.178,-0.236 0.531,-0.06 0.592,-0.591 0,-0.414 -0.533,-0.475 -0.592,-0.77 -0.119,-0.592 0.296,-3.077 1.006,-3.254 -0.113,0.845 -0.174,1.744 -0.332,2.594 0.215,-0.018 0.43,-0.058 0.645,-0.101 0.002,0.364 -0.27,0.915 0.086,1.306 0.623,0.684 1.567,-0.127 2.212,0.517 -0.316,0.521 -0.483,0.26 -0.941,0.355 -0.509,0.106 -0.566,0.334 -0.767,0.876 -0.225,-0.535 -0.754,-1.125 -1.141,-0.344 -0.276,0.557 0.074,1.482 -0.486,1.883 -0.473,0.338 -1.741,0.473 -2.104,-0.049 -0.344,-0.494 -0.041,-1.249 -0.473,-1.708 -0.09,0.483 -0.381,0.929 -0.323,1.413 0.053,0.451 0.428,0.794 0.243,1.236 -0.387,0 -0.873,0.027 -1.16,0.262 -0.236,0.191 -0.24,0.553 -0.604,0.695 -0.32,0.127 -0.822,-0.062 -1.085,0.231 -0.128,0.144 -0.153,0.679 -0.229,0.88 -0.328,0.041 -0.734,0.08 -1.029,0.201 0.135,0.716 1.165,0.933 1.1,1.761 -0.041,0.508 -0.238,0.492 -0.711,0.418 -0.512,-0.082 -1.082,-0.115 -1.588,-0.219 -0.017,1.055 0.602,1.738 0.059,2.803 0.186,0.086 0.35,-0.055 0.51,0.014 0.125,0.053 0.229,0.207 0.309,0.24 0.32,0.127 0.572,0.193 0.947,0.129 0.396,-0.068 0.559,-0.184 0.772,-0.482 0.077,-0.107 -0.022,-0.303 0.099,-0.434 0.111,-0.123 0.3,-0.107 0.431,-0.209 0.517,-0.4 0.489,-1.371 1.019,-1.715 0.086,-0.057 0.655,-0.035 0.875,-0.117 0.311,-0.117 0.475,-0.076 0.699,-0.303 0.176,0.672 0.564,1.217 1.073,1.711 0.508,0.492 1.156,1.008 0.067,1.193 0.348,0.467 0.454,0.633 0.865,0.094 0.304,-0.398 0.48,-0.797 0.852,-1.111 -0.677,-0.637 -1.271,-1.422 -1.759,-2.236 0.709,-0.697 2.312,1.578 2.343,2.178 0.035,0.654 -0.328,0.934 0.34,1.24 0.906,0.414 0.584,-0.639 0.615,-1.297 0.545,0.299 1.09,-0.248 1.592,-0.064 0.255,0.092 0.301,0.398 0.471,0.58 0.272,0.291 0.176,0.227 0.473,0.311 0.6,0.172 0.881,0.004 1.066,0.768 0.113,0.465 0.271,1.076 0.074,1.539 -0.289,0.682 -1.224,1.582 -1.898,1.822 -0.698,0.25 -1.33,-0.322 -1.955,-0.584 -1.002,-0.418 -2.009,-0.785 -2.988,-1.314 -0.957,-0.518 -0.762,-0.154 -1.47,0.207 -0.751,0.383 -1.493,0.965 -2.297,1.23 -1.076,0.357 -2.591,0.535 -3.757,0.533 0.271,0.438 -0.555,1.221 -0.796,1.654 -0.946,1.479 -1.478,2.307 -1.007,4.082 0.238,0.887 0.534,1.656 1.007,2.426 0.237,0.354 0.414,0.887 0.828,1.123 0.532,0.414 0.474,0.178 1.184,-0.059 0.769,-0.236 2.07,-0.414 2.899,-0.178 0.295,0.061 0.414,0.355 0.709,0.414 0.118,0.059 0.946,0.119 1.006,0.178 0,0 0,0 0.06,0 0.177,0.77 -0.237,1.361 -0.237,2.07 -0.059,0.77 0.118,0.65 0.414,1.361 0.533,1.242 0.119,2.781 -0.296,3.963 -0.474,1.361 -0.118,2.307 0,3.729 0.067,0.797 0.487,1.539 0.751,2.277 3.225,-1.93 6.01,-4.514 8.172,-7.572 -0.365,-0.902 -0.639,-1.793 -0.227,-2.516 0.889,-1.596 2.84,-2.307 3.254,-4.199 0.119,-0.65 0.061,-1.301 0.296,-1.895 0.156,-0.52 0.495,-0.775 0.927,-0.941 0.428,-1.904 0.656,-3.885 0.656,-5.918 C 90.311,47.309 85.09,38.761 77.287,34.069 Z m 2.922,6.322 c 0.032,0.037 0.052,0.079 0.062,0.126 z"
         id="path106"
         style="display:inline;fill:url(#SVGID_7_)" /><ellipse
         fill="none"
         stroke="#047cbc"
         stroke-width="1.49307"
         stroke-miterlimit="10"
         cx="63.351002"
         cy="56.939999"
         id="circle108"
         style="display:inline"
         inkscape:label="circle108"
         rx="27.253468"
         ry="27.253466" /></g><path
       style="fill:#133b67;fill-opacity:0.95686275;stroke:none;stroke-width:0.997633px;stroke-linecap:butt;stroke-linejoin:miter;stroke-opacity:1"
       d="M 12.130339,29.027669 C 9.9994442,26.896774 7.5392514,22.269762 8.1398051,18.053701 8.6639103,14.37433 11.132705,10.072634 15.123239,7.0797336 10.135072,8.0773671 7.1421716,9.0750005 3.151638,10.072634 5.3026808,11.552005 9.1374385,11.070267 9.1374385,11.070267 6.770047,13.09946 6.2267324,15.461006 6.1445382,18.053701 5.9842723,23.109048 8.8331656,28.368234 12.130339,29.027669 Z"
       id="path2428"
       sodipodi:nodetypes="cscccsc" /><path
       style="fill:#e02a2a;fill-opacity:0.92156863;stroke:none;stroke-width:0.997633px;stroke-linecap:butt;stroke-linejoin:miter;stroke-opacity:1"
       d="m 35.075907,10.072633 c 2.130895,2.130895 4.591088,6.757907 3.990534,10.973968 -0.524105,3.679371 -2.9929,7.981067 -6.983434,10.973967 4.988167,-0.997634 7.981067,-1.995267 11.971601,-2.9929 -2.151043,-1.479371 -5.985801,-0.997633 -5.985801,-0.997633 2.367392,-2.029193 2.910707,-4.390739 2.992901,-6.983434 0.160266,-5.055347 -2.688628,-10.314533 -5.985801,-10.973968 z"
       id="path5631"
       sodipodi:nodetypes="cscccsc" /></g></svg>
