<?xml version="1.0" encoding="UTF-8" standalone="no"?>
<!-- Created with Inkscape (http://www.inkscape.org/) -->

<svg
   width="42"
   height="42"
   viewBox="0 0 42 42"
   version="1.1"
   id="SVGRoot"
   sodipodi:docname="tools.svg"
   inkscape:version="1.2 (dc2aedaf03, 2022-05-15)"
   xml:space="preserve"
   xmlns:inkscape="http://www.inkscape.org/namespaces/inkscape"
   xmlns:sodipodi="http://sodipodi.sourceforge.net/DTD/sodipodi-0.dtd"
   xmlns="http://www.w3.org/2000/svg"
   xmlns:svg="http://www.w3.org/2000/svg"
   xmlns:rdf="http://www.w3.org/1999/02/22-rdf-syntax-ns#"
   xmlns:cc="http://creativecommons.org/ns#"><sodipodi:namedview
     id="namedview1017"
     pagecolor="#ffffff"
     bordercolor="#666666"
     borderopacity="1.0"
     inkscape:pageshadow="2"
     inkscape:pageopacity="0"
     inkscape:pagecheckerboard="true"
     inkscape:document-units="px"
     showgrid="true"
     inkscape:zoom="11.313709"
     inkscape:cx="20.506097"
     inkscape:cy="16.30765"
     inkscape:window-width="1366"
     inkscape:window-height="695"
     inkscape:window-x="0"
     inkscape:window-y="0"
     inkscape:window-maximized="1"
     inkscape:current-layer="layer1"
     inkscape:snap-global="true"
     showborder="true"
     borderlayer="false"
     inkscape:showpageshadow="false"
     inkscape:deskcolor="#d1d1d1"
     width="42px"><inkscape:grid
       type="xygrid"
       id="grid1080"
       originx="0"
       originy="0" /></sodipodi:namedview><defs
     id="defs1012" /><g
     inkscape:label="icon"
     inkscape:groupmode="layer"
     id="layer1"
     transform="matrix(2.4389982,0,0,2.4182213,-4.0660654,-3.6210429)"><g
       id="g15511"
       inkscape:label="wrench"><g
         id="g30715"
         inkscape:label="head"
         sodipodi:insensitive="true"><path
           id="rect28081"
           style="opacity:1;fill:#565656;fill-opacity:1;stroke:none;stroke-width:0.860143;stroke-linecap:round;stroke-linejoin:round;stroke-dashoffset:0.2826;stroke-opacity:1;paint-order:stroke markers fill"
           d="m 4.5371353,2.3244535 v 3.7217437 c 0,0.5418888 0.5820128,1.1201541 0.8200088,1.2405813 v 3.7217435 h 1.640018 l -1e-6,-3.7217435 C 7.2351571,7.1663513 7.8171701,6.588086 7.8171701,6.0461972 V 2.3244535 Z"
           sodipodi:nodetypes="csccccscc" /><path
           id="rect29242"
           style="opacity:1;fill:#e4e4e4;fill-opacity:1;stroke:none;stroke-width:0.680003;stroke-linecap:round;stroke-linejoin:round;stroke-dashoffset:0.2826;stroke-opacity:1;paint-order:stroke markers fill"
           d="m 4.9471401,2.7379806 v 3.1014531 c 0,0.4997073 0.820008,1.0338177 0.820008,1.0338177 v 4.1352706 h 0.820009 V 6.8732514 c 0.234954,-0.048817 0.820009,-0.5341103 0.820009,-1.0338176 V 2.7379806 Z"
           sodipodi:nodetypes="csccccscc" /><path
           id="rect29254"
           style="opacity:1;fill:#a2a2a2;fill-opacity:1;stroke:none;stroke-width:0.496604;stroke-linecap:round;stroke-linejoin:round;stroke-dashoffset:0.2826;stroke-opacity:1;paint-order:stroke markers fill"
           d="m 5.3571441,3.1515076 v 2.4811625 c 0,0.3073992 0.16447,0.5746378 0.410004,0.7172111 v 4.6586408 h 0.410005 V 6.4597243 c 0.454284,0 0.820008,-0.3688665 0.820008,-0.8270542 V 3.1515076 Z"
           sodipodi:nodetypes="csccccscc" /></g><g
         id="g29251"
         inkscape:label="hand"
         transform="translate(0.00331618,0.18488075)"
         sodipodi:insensitive="true"><path
           id="rect17721"
           style="opacity:1;fill:#904f22;fill-opacity:0.952941;stroke:none;stroke-width:1.14916;stroke-linecap:round;stroke-linejoin:round;stroke-dashoffset:0.2826;stroke-opacity:1;paint-order:stroke markers fill"
           d="m 3.7203333,10.824373 c -0.2290941,0 -0.4132076,0.184433 -0.4132076,0.413527 v 1.240581 c 0,0.229095 0.1841135,0.413528 0.4132076,0.413528 h 0.4068012 v 3.721743 c 0,0.916376 0.7380563,1.654109 1.6544323,1.654109 h 0.79118 c 0.916375,0 1.654432,-0.737733 1.654432,-1.654109 v -3.721743 h 0.406801 c 0.229094,0 0.413208,-0.184433 0.413208,-0.413528 V 11.2379 c 0,-0.229094 -0.184114,-0.413527 -0.413208,-0.413527 h -2.061233 -0.79118 z" /><path
           id="rect17723"
           style="opacity:1;fill:#e68030;fill-opacity:1;stroke:none;stroke-width:0.824105;stroke-linecap:round;stroke-linejoin:round;stroke-dashoffset:0.2826;stroke-opacity:1;paint-order:stroke markers fill"
           d="m 4.1303377,11.2379 c -0.2290939,0 -0.4132076,0.184433 -0.4132076,0.413527 v 0.413527 c 0,0.229094 0.1841137,0.413527 0.4132076,0.413527 h 0.4244181 c -0.01161,0.07472 -0.01762,0.151302 -0.01762,0.229379 v 3.676514 c 0,0.814556 0.655694,1.46996 1.47025,1.46996 h 0.339535 c 0.6562288,0 1.2093506,-0.42538 1.3995809,-1.016661 0.045897,-0.142657 0.070669,-0.294972 0.070669,-0.453299 V 12.70786 c 0,-0.07808 -0.006,-0.154657 -0.01762,-0.229379 h 0.424419 c 0.229093,0 0.413207,-0.184433 0.413207,-0.413527 v -0.413527 c 0,-0.229094 -0.184114,-0.413527 -0.413207,-0.413527 h -1.877052 -0.339535 z"
           sodipodi:nodetypes="sssscssssssscssssccs" /><path
           id="rect20602"
           style="opacity:1;fill:#dc6626;fill-opacity:1;stroke:none;stroke-width:0.823524;stroke-linecap:round;stroke-linejoin:round;stroke-dashoffset:0.2826;stroke-opacity:1;paint-order:stroke markers fill"
           d="m 4.1271346,11.651427 v 0.413527 h 0.8200092 v 0.223725 0.189802 4.325074 c 0,0.123896 0.09143,0.223724 0.205002,0.223724 h 0.205002 v -4.548798 h 0.411606 c -6.47e-4,0.01025 -0.0016,0.02026 -0.0016,0.03069 v 4.487415 c 0,0.246071 0.182863,0.444218 0.410005,0.444218 0.227142,0 0.410004,-0.198147 0.410004,-0.444218 v -4.487415 c 0,-0.01044 -9.54e-4,-0.02044 -0.0016,-0.03069 h 0.411606 l -3e-6,4.548798 h 0.205005 c 0.113571,0 0.205002,-0.09983 0.205002,-0.223724 v -4.325074 -0.189802 -0.223725 h 0.820009 v -0.413527 z"
           sodipodi:nodetypes="cccccsscccssssscccsscccccc" /><rect
           style="opacity:1;fill:#915328;fill-opacity:1;stroke:none;stroke-width:0.823524;stroke-linecap:round;stroke-linejoin:round;stroke-dashoffset:0.2826;stroke-opacity:1;paint-order:stroke markers fill"
           id="rect22924"
           width="2.4600265"
           height="0.41352707"
           x="4.9471431"
           y="12.478482"
           ry="0" /><rect
           style="opacity:1;fill:#e48c4a;fill-opacity:1;stroke:none;stroke-width:0.823524;stroke-linecap:round;stroke-linejoin:round;stroke-dashoffset:0.2826;stroke-opacity:1;paint-order:stroke markers fill"
           id="rect23956"
           width="0.41000441"
           height="4.1352706"
           x="5.3571477"
           y="12.892009" /><rect
           style="opacity:1;fill:#e48c4a;fill-opacity:1;stroke:none;stroke-width:0.823524;stroke-linecap:round;stroke-linejoin:round;stroke-dashoffset:0.2826;stroke-opacity:1;paint-order:stroke markers fill"
           id="rect25873"
           width="0.41000441"
           height="4.1352706"
           x="6.5871606"
           y="12.892009" /></g></g><g
       id="g14046"
       inkscape:label="wrench"><rect
         style="opacity:1;fill:#565656;fill-opacity:1;stroke:none;stroke-width:1.22763;stroke-linecap:round;stroke-linejoin:round;stroke-dashoffset:0.2826;stroke-opacity:1;paint-order:stroke markers fill"
         id="rect33692"
         width="4.1000438"
         height="7.4434876"
         x="11.097206"
         y="11.008522"
         ry="1.6541085" /><path
         id="path37731"
         style="opacity:1;fill:#565656;fill-opacity:1;stroke:none;stroke-width:0.826228;stroke-linecap:round;stroke-linejoin:round;stroke-dashoffset:0.2826;stroke-opacity:1;paint-order:stroke markers fill"
         d="m 13.967237,1.9989624 0,2.8066536 c -0.221925,0.1138502 -0.820009,0.4135271 -0.820009,0.4135271 0,0 -0.55793,-0.2744003 -0.820009,-0.4135271 l 0,-2.8058459 c -1.678601,0.3644383 -2.8695627,1.7861648 -2.8700306,3.4261365 1e-7,1.9412699 1.6520866,3.51498 3.6900396,3.5149802 2.037953,1e-7 3.69004,-1.5737102 3.69004,-3.5149802 -7.2e-5,-1.6402741 -1.191121,-3.0624388 -2.870031,-3.4269442 z"
         sodipodi:nodetypes="ccccccscc" /><rect
         style="opacity:1;fill:#565656;fill-opacity:1;stroke:none;stroke-width:0.672403;stroke-linecap:round;stroke-linejoin:round;stroke-dashoffset:0.2826;stroke-opacity:1;paint-order:stroke markers fill"
         id="rect36847"
         width="2.4600263"
         height="3.7217438"
         x="11.917214"
         y="8.1138325"
         ry="0" /><rect
         style="opacity:1;fill:#c1c1c1;fill-opacity:1;stroke:none;stroke-width:1.03523;stroke-linecap:round;stroke-linejoin:round;stroke-dashoffset:0.2826;stroke-opacity:1;paint-order:stroke markers fill"
         id="rect35922"
         width="3.2800345"
         height="6.6164346"
         x="11.507211"
         y="11.422049"
         ry="1.240582" /><rect
         style="opacity:1;fill:#c1c1c1;fill-opacity:1;stroke:none;stroke-width:0.578711;stroke-linecap:round;stroke-linejoin:round;stroke-dashoffset:0.2826;stroke-opacity:1;paint-order:stroke markers fill"
         id="rect36849"
         width="1.6400174"
         height="4.1352725"
         x="12.327219"
         y="8.1138315"
         ry="3.5373756e-07" /><rect
         style="opacity:1;fill:#a2a2a2;fill-opacity:1;stroke:none;stroke-width:0.838632;stroke-linecap:round;stroke-linejoin:round;stroke-dashoffset:0.2826;stroke-opacity:1;paint-order:stroke markers fill"
         id="rect36686"
         width="2.4600272"
         height="5.7893801"
         x="11.917214"
         y="11.835576"
         ry="0.8270545" /><path
         id="ellipse37871"
         style="opacity:1;fill:#c1c1c1;fill-opacity:1;stroke:none;stroke-width:0.73172;stroke-linecap:round;stroke-linejoin:round;stroke-dashoffset:0.2826;stroke-opacity:1;paint-order:stroke markers fill"
         d="m 14.377241,2.5506011 v 2.668542 c -0.474,0.201413 -1.228279,0.5079291 -1.228279,0.5079291 0,0 -0.848535,-0.3327734 -1.231747,-0.5079291 V 2.5538318 c -1.237944,0.4735076 -2.048709,1.6093868 -2.0500222,2.8720748 0,1.7128852 1.4685222,3.101453 3.2800352,3.1014531 1.811513,-2e-7 3.280035,-1.388568 3.280035,-3.1014531 7.8e-5,-1.2638656 -0.810924,-2.4013559 -2.050022,-2.8753055 z"
         sodipodi:nodetypes="ccccccscc" /><path
         id="ellipse38011"
         style="opacity:1;fill:#a2a2a2;fill-opacity:1;stroke:none;stroke-width:0.637199;stroke-linecap:round;stroke-linejoin:round;stroke-dashoffset:0.2826;stroke-opacity:1;paint-order:stroke markers fill"
         d="M 14.787246,3.2201596 V 5.380677 c -0.420274,0.2300448 -1.640018,0.8012087 -1.640018,0.8012087 0,0 -1.265384,-0.5759728 -1.640018,-0.7430564 v -2.215439 c -0.769598,0.5018765 -1.228849,1.324232 -1.230013,2.2025163 0,1.4845006 1.284957,2.6879261 2.870031,2.687926 1.585074,10e-8 2.870031,-1.2034254 2.870031,-2.687926 -3.6e-5,-0.8794263 -0.459416,-1.7032176 -1.230013,-2.205747 z"
         sodipodi:nodetypes="ccccccscc" /><rect
         style="opacity:1;fill:#a2a2a2;fill-opacity:1;stroke:none;stroke-width:0.501178;stroke-linecap:round;stroke-linejoin:round;stroke-dashoffset:0.2826;stroke-opacity:1;paint-order:stroke markers fill"
         id="rect36851"
         width="0.82000881"
         height="6.2029071"
         x="12.737224"
         y="7.7003055"
         ry="1.1920928e-06" /><ellipse
         style="fill:#c1c1c1;fill-opacity:1;stroke-width:0.80117;stroke-linecap:round;stroke-linejoin:round;stroke-dashoffset:0.2826;paint-order:stroke markers fill"
         id="ellipse8639"
         cx="13.147228"
         cy="16.645424"
         rx="0.41000441"
         ry="0.41352707" /><ellipse
         style="fill:#565656;stroke-width:0.80117;stroke-linecap:round;stroke-linejoin:round;stroke-dashoffset:0.2826;paint-order:stroke markers fill;fill-opacity:1"
         id="path6881"
         cx="13.147228"
         cy="16.797901"
         rx="0.41000441"
         ry="0.41352707" /></g></g><metadata
     id="metadata1158"><rdf:RDF><cc:Work
         rdf:about=""><cc:license
           rdf:resource="http://creativecommons.org/publicdomain/zero/1.0/" /></cc:Work><cc:License
         rdf:about="http://creativecommons.org/publicdomain/zero/1.0/"><cc:permits
           rdf:resource="http://creativecommons.org/ns#Reproduction" /><cc:permits
           rdf:resource="http://creativecommons.org/ns#Distribution" /><cc:permits
           rdf:resource="http://creativecommons.org/ns#DerivativeWorks" /></cc:License></rdf:RDF></metadata></svg>
