<?xml version="1.0" encoding="UTF-8" standalone="no"?>
<svg
   width="42"
   height="42"
   viewBox="0 0 42 42"
   version="1.1"
   id="svg38508"
   inkscape:version="1.2 (dc2aedaf03, 2022-05-15)"
   sodipodi:docname="tutorial.svg"
   inkscape:export-filename="/home/dmitry/git/OpenBoard/resources/images/stylusPalette/arrow_svg.png"
   inkscape:export-xdpi="96"
   inkscape:export-ydpi="96"
   xml:space="preserve"
   xmlns:inkscape="http://www.inkscape.org/namespaces/inkscape"
   xmlns:sodipodi="http://sodipodi.sourceforge.net/DTD/sodipodi-0.dtd"
   xmlns:xlink="http://www.w3.org/1999/xlink"
   xmlns="http://www.w3.org/2000/svg"
   xmlns:svg="http://www.w3.org/2000/svg"
   xmlns:rdf="http://www.w3.org/1999/02/22-rdf-syntax-ns#"
   xmlns:cc="http://creativecommons.org/ns#"
   xmlns:dc="http://purl.org/dc/elements/1.1/"><sodipodi:namedview
     id="namedview38510"
     pagecolor="#ffffff"
     bordercolor="#eeeeee"
     borderopacity="1"
     inkscape:pageshadow="0"
     inkscape:pageopacity="0"
     inkscape:pagecheckerboard="true"
     inkscape:document-units="px"
     showgrid="true"
     fit-margin-top="0"
     fit-margin-left="0"
     fit-margin-right="0"
     fit-margin-bottom="0"
     units="px"
     inkscape:zoom="16"
     inkscape:cx="24.125"
     inkscape:cy="12.90625"
     inkscape:window-width="1366"
     inkscape:window-height="695"
     inkscape:window-x="0"
     inkscape:window-y="0"
     inkscape:window-maximized="1"
     inkscape:current-layer="g20530"
     inkscape:document-rotation="0"
     inkscape:snap-others="true"
     inkscape:snap-global="true"
     showguides="false"
     inkscape:guide-bbox="true"
     inkscape:showpageshadow="2"
     inkscape:deskcolor="#d1d1d1"
     inkscape:snap-bbox="true"
     inkscape:bbox-paths="true"
     inkscape:bbox-nodes="true"
     borderlayer="true"><inkscape:grid
       type="xygrid"
       id="grid7387"
       dotted="false" /></sodipodi:namedview><defs
     id="defs38505"><linearGradient
       inkscape:collect="always"
       id="linearGradient4059"><stop
         style="stop-color:#f3f4f5;stop-opacity:1"
         offset="0"
         id="stop4055" /><stop
         style="stop-color:#ccced0;stop-opacity:1"
         offset="1"
         id="stop4057" /></linearGradient><linearGradient
       inkscape:collect="always"
       xlink:href="#linearGradient4059"
       id="linearGradient4061"
       x1="181.18895"
       y1="201.10382"
       x2="181.18895"
       y2="222.10382"
       gradientUnits="userSpaceOnUse" /><linearGradient
       inkscape:collect="always"
       xlink:href="#linearGradient4059"
       id="linearGradient16884"
       gradientUnits="userSpaceOnUse"
       x1="181.18895"
       y1="201.10382"
       x2="181.18895"
       y2="222.10382" /></defs><g
     inkscape:label="icon"
     inkscape:groupmode="layer"
     id="layer1"
     transform="translate(-152.84748,-194.2822)"><g
       id="g965"
       inkscape:label="tutorial"
       style="display:inline;stroke:none"
       transform="translate(1.6585236,-0.82162285)"><g
         id="g20530"
         inkscape:label="play"><path
           id="rect2873"
           style="fill:#666b75;fill-opacity:1;stroke:none;stroke-width:1.29099;stroke-miterlimit:4;stroke-dasharray:none"
           d="m 171.18896,196.10382 c -0.554,0 -1,0.446 -1,1 v 18 c 0,0.554 0.446,1 1,1 h 5 v 8.41406 l 8.41406,-8.41406 h 7.58594 c 0.554,0 1,-0.446 1,-1 v -18 c 0,-0.554 -0.446,-1 -1,-1 z"
           sodipodi:nodetypes="sssscccsssss" /><path
           id="path24659"
           style="color:#000000;display:inline;fill:url(#linearGradient4061);fill-opacity:1;stroke-width:2;-inkscape-stroke:none;paint-order:stroke fill markers"
           d="m 172.08935,197.10382 c -0.4986,0 -0.90039,0.40179 -0.90039,0.90039 v 16.19922 c 0,0.4986 0.40179,0.90039 0.90039,0.90039 h 5.09961 v 7 l 7,-7 h 7.09961 c 0.4986,0 0.90039,-0.40179 0.90039,-0.90039 v -16.19922 c 0,-0.4986 -0.40179,-0.90039 -0.90039,-0.90039 z" /><path
           id="rect3352"
           style="fill:#ffffff;stroke-width:1.17028"
           d="m 172.18897,197.10384 h 19 c 0.55399,0 0.99999,0.44599 0.99999,0.99999 v 1 c -1.00001,-10e-6 -20.00001,-10e-6 -20.99998,0 v -1 c 0,-0.554 0.446,-0.99999 0.99999,-0.99999 z"
           sodipodi:nodetypes="sssccss" /><path
           style="fill:#626365;fill-opacity:1;stroke:none;stroke-width:0.836661px;stroke-linecap:butt;stroke-linejoin:miter;stroke-opacity:1"
           d="m 178.18896,202.10382 v 8 l 7,-4 z"
           id="path17963" /></g><g
         id="g16882"
         inkscape:label="qw"
         transform="rotate(-23.955784,185.32968,246.38527)"><path
           id="path16870"
           style="fill:#666b75;fill-opacity:1;stroke:none;stroke-width:1.29099;stroke-miterlimit:4;stroke-dasharray:none"
           d="m 171.18896,196.10382 c -0.554,0 -1,0.446 -1,1 v 18 c 0,0.554 0.446,1 1,1 h 5 v 8.41406 l 8.41406,-8.41406 h 7.58594 c 0.554,0 1,-0.446 1,-1 v -18 c 0,-0.554 -0.446,-1 -1,-1 z"
           sodipodi:nodetypes="sssscccsssss" /><path
           id="path16872"
           style="color:#000000;display:inline;fill:url(#linearGradient16884);fill-opacity:1;stroke-width:2;-inkscape-stroke:none;paint-order:stroke fill markers"
           d="m 172.08935,197.10382 c -0.4986,0 -0.90039,0.40179 -0.90039,0.90039 v 16.19922 c 0,0.4986 0.40179,0.90039 0.90039,0.90039 h 5.09961 v 7 l 7,-7 h 7.09961 c 0.4986,0 0.90039,-0.40179 0.90039,-0.90039 v -16.19922 c 0,-0.4986 -0.40179,-0.90039 -0.90039,-0.90039 z" /><path
           id="path16874"
           style="fill:#ffffff;stroke-width:1.17028"
           d="m 172.18897,197.10384 h 19 c 0.55399,0 0.99999,0.44599 0.99999,0.99999 v 1 c -1.00001,-10e-6 -20.00001,-10e-6 -20.99998,0 v -1 c 0,-0.554 0.446,-0.99999 0.99999,-0.99999 z"
           sodipodi:nodetypes="sssccss" /><text
           xml:space="preserve"
           style="font-style:normal;font-weight:normal;font-size:17.0537px;line-height:1.25;font-family:sans-serif;display:inline;fill:#626365;fill-opacity:1;stroke:none;stroke-width:0.426344"
           x="168.46562"
           y="224.02914"
           id="text16880"
           transform="matrix(1.0547472,0.00416183,-0.00374095,0.94807972,0,0)"><tspan
             sodipodi:role="line"
             id="tspan16878"
             x="168.46562"
             y="224.02914"
             style="fill:#626365;fill-opacity:1;stroke-width:0.426344">?</tspan></text></g></g></g><metadata
     id="metadata854"><rdf:RDF><cc:Work
         rdf:about=""><cc:license
           rdf:resource="http://creativecommons.org/publicdomain/zero/1.0/" /><dc:format>image/svg+xml</dc:format><dc:type
           rdf:resource="http://purl.org/dc/dcmitype/StillImage" /></cc:Work><cc:License
         rdf:about="http://creativecommons.org/publicdomain/zero/1.0/"><cc:permits
           rdf:resource="http://creativecommons.org/ns#Reproduction" /><cc:permits
           rdf:resource="http://creativecommons.org/ns#Distribution" /><cc:permits
           rdf:resource="http://creativecommons.org/ns#DerivativeWorks" /></cc:License></rdf:RDF></metadata></svg>
