<?xml version="1.0" encoding="UTF-8" standalone="no"?>
<svg
   width="18"
   height="12"
   viewBox="0 0 18 12"
   version="1.1"
   id="svg38508"
   inkscape:version="1.1.2 (0a00cf5339, 2022-02-04)"
   sodipodi:docname="ar.svg"
   inkscape:export-filename="/home/dmitry/git/OpenBoard/resources/images/stylusPalette/arrow_svg.png"
   inkscape:export-xdpi="96"
   inkscape:export-ydpi="96"
   xmlns:inkscape="http://www.inkscape.org/namespaces/inkscape"
   xmlns:sodipodi="http://sodipodi.sourceforge.net/DTD/sodipodi-0.dtd"
   xmlns="http://www.w3.org/2000/svg"
   xmlns:svg="http://www.w3.org/2000/svg"
   xmlns:rdf="http://www.w3.org/1999/02/22-rdf-syntax-ns#"
   xmlns:cc="http://creativecommons.org/ns#"
   xmlns:dc="http://purl.org/dc/elements/1.1/">
  <sodipodi:namedview
     id="namedview38510"
     pagecolor="#ffffff"
     bordercolor="#858585"
     borderopacity="1"
     inkscape:pageshadow="0"
     inkscape:pageopacity="0"
     inkscape:pagecheckerboard="false"
     inkscape:document-units="px"
     showgrid="true"
     fit-margin-top="0"
     fit-margin-left="0"
     fit-margin-right="0"
     fit-margin-bottom="0"
     units="px"
     inkscape:zoom="32.000001"
     inkscape:cx="1.7656249"
     inkscape:cy="3.2968749"
     inkscape:window-width="1920"
     inkscape:window-height="1003"
     inkscape:window-x="0"
     inkscape:window-y="0"
     inkscape:window-maximized="1"
     inkscape:current-layer="g965"
     inkscape:document-rotation="0"
     inkscape:snap-others="true"
     inkscape:snap-global="false"
     showguides="false"
     inkscape:guide-bbox="true"
     width="18px"
     borderlayer="false"
     inkscape:snap-bbox="true"
     inkscape:snap-bbox-edge-midpoints="true">
    <inkscape:grid
       type="xygrid"
       id="grid7387"
       dotted="false" />
  </sodipodi:namedview>
  <defs
     id="defs38505" />
  <g
     inkscape:label="icon"
     inkscape:groupmode="layer"
     id="layer1"
     transform="translate(-152.84748,-194.2822)">
    <g
       id="g965"
       inkscape:label="flag"
       style="display:inline;stroke:none">
      <rect
         style="fill:#003399;fill-opacity:1;stroke-width:4;stroke-linecap:round;stroke-linejoin:round;stroke-dashoffset:0.2826;paint-order:markers stroke fill"
         id="rect967"
         width="18"
         height="12"
         x="152.84747"
         y="194.2822"
         ry="1.0000039"
         inkscape:label="background" />
      <path
         style="color:#000000;fill:#fbffff;fill-opacity:1;-inkscape-stroke:none"
         d="m 162.19336,195.73437 c 0,0 -0.76124,-0.11777 -1.57617,0.008 -0.40747,0.0628 -0.84291,0.18335 -1.22071,0.45508 -0.37779,0.27173 -0.67519,0.73122 -0.71289,1.29687 -0.0657,0.9861 0.33905,1.64717 0.79297,1.95508 0.45393,0.30791 0.9336,0.31055 0.9336,0.31055 l 0.0645,0.002 0.0625,-0.0156 c 0,0 0.0836,-0.0277 0.0898,-0.0293 -4.29146,3.66426 1.44934,6.65882 4.37673,4.8247 0.34362,-0.5207 -0.32165,-1.04761 -0.75973,-1.00275 0.65526,0.80137 -1.59685,0.6332 -2.60306,0.3118 -1.63079,-0.47045 -1.96023,-1.6067 -0.30184,-3.45001 1.15501,-0.76906 1.97167,-0.76341 2.88836,-1.92502 0.3286,-0.54198 -0.16683,-0.92983 -0.16683,-0.92983 l -0.57286,0.56202 c -1.19241,0.82025 -2.45011,1.0168 -3.45063,0.51338 -0.7507,-0.37772 -0.62315,-1.32144 -0.0566,-1.61132 0.66829,-0.34197 1.31684,-0.2952 2.06836,-0.2873 0,0 0.83424,-0.27315 0.82123,-0.62118 -0.013,-0.34803 -0.67669,-0.36717 -0.67669,-0.36717 z"
         id="path4022"
         sodipodi:nodetypes="ccccccccccccccccsscccc"
         inkscape:label="text" />
    </g>
  </g>
  <metadata
     id="metadata854">
    <rdf:RDF>
      <cc:Work
         rdf:about="">
        <cc:license
           rdf:resource="http://creativecommons.org/publicdomain/zero/1.0/" />
        <dc:format>image/svg+xml</dc:format>
        <dc:type
           rdf:resource="http://purl.org/dc/dcmitype/StillImage" />
      </cc:Work>
      <cc:License
         rdf:about="http://creativecommons.org/publicdomain/zero/1.0/">
        <cc:permits
           rdf:resource="http://creativecommons.org/ns#Reproduction" />
        <cc:permits
           rdf:resource="http://creativecommons.org/ns#Distribution" />
        <cc:permits
           rdf:resource="http://creativecommons.org/ns#DerivativeWorks" />
      </cc:License>
    </rdf:RDF>
  </metadata>
</svg>
