<?xml version="1.0" encoding="UTF-8" standalone="no"?>
<svg
   width="18"
   height="12"
   viewBox="0 0 18 12"
   version="1.1"
   id="svg38508"
   inkscape:version="1.1.2 (0a00cf5339, 2022-02-04)"
   sodipodi:docname="gl.svg"
   inkscape:export-filename="/home/dmitry/git/OpenBoard/resources/images/stylusPalette/arrow_svg.png"
   inkscape:export-xdpi="96"
   inkscape:export-ydpi="96"
   xmlns:inkscape="http://www.inkscape.org/namespaces/inkscape"
   xmlns:sodipodi="http://sodipodi.sourceforge.net/DTD/sodipodi-0.dtd"
   xmlns="http://www.w3.org/2000/svg"
   xmlns:svg="http://www.w3.org/2000/svg"
   xmlns:rdf="http://www.w3.org/1999/02/22-rdf-syntax-ns#"
   xmlns:cc="http://creativecommons.org/ns#"
   xmlns:dc="http://purl.org/dc/elements/1.1/">
  <sodipodi:namedview
     id="namedview38510"
     pagecolor="#ffffff"
     bordercolor="#858585"
     borderopacity="1"
     inkscape:pageshadow="0"
     inkscape:pageopacity="0"
     inkscape:pagecheckerboard="false"
     inkscape:document-units="px"
     showgrid="true"
     fit-margin-top="0"
     fit-margin-left="0"
     fit-margin-right="0"
     fit-margin-bottom="0"
     units="px"
     inkscape:zoom="16"
     inkscape:cx="2.28125"
     inkscape:cy="1.84375"
     inkscape:window-width="1920"
     inkscape:window-height="1003"
     inkscape:window-x="0"
     inkscape:window-y="0"
     inkscape:window-maximized="1"
     inkscape:current-layer="g965"
     inkscape:document-rotation="0"
     inkscape:snap-others="true"
     inkscape:snap-global="true"
     showguides="true"
     inkscape:guide-bbox="true"
     width="18px"
     borderlayer="false"
     inkscape:snap-bbox="true"
     inkscape:snap-bbox-edge-midpoints="true">
    <inkscape:grid
       type="xygrid"
       id="grid7387"
       dotted="false" />
  </sodipodi:namedview>
  <defs
     id="defs38505" />
  <g
     inkscape:label="icon"
     inkscape:groupmode="layer"
     id="layer1"
     transform="translate(-152.84748,-194.2822)">
    <g
       id="g965"
       inkscape:label="flag"
       style="display:inline;stroke:none">
      <rect
         style="fill:#ffffff;fill-opacity:1;stroke-width:4;stroke-linecap:round;stroke-linejoin:round;stroke-dashoffset:0.2826;paint-order:markers stroke fill"
         id="rect967"
         width="18"
         height="12"
         x="152.84747"
         y="194.2822"
         ry="1.0000039"
         inkscape:label="background" />
      <path
         id="rect967-3"
         style="display:inline;fill:#0099cc;fill-opacity:1;stroke:none;stroke-width:4;stroke-linecap:round;stroke-linejoin:round;stroke-dashoffset:0.2826;paint-order:markers stroke fill"
         inkscape:label="background"
         d="m 153.85061,194.27663 c -0.554,0 -1.00781,0.43819 -1.00781,0.99219 v 0.20117 c 0.005,-0.18779 16.20715,10.81699 16.20508,10.81836 h 0.80273 c 0.554,0 1,-0.446 1,-1 v -0.20117 c -5.67588,-3.78934 -10.45955,-6.97554 -16.19727,-10.81055 z"
         sodipodi:nodetypes="ssccssccs" />
      <g
         id="g4979"
         transform="matrix(0.03318331,0,0,0.03328902,151.96797,190.90876)">
        <path
           id="path558"
           d="m 296.64841,401.23465 c -60.13404,0 -58.18121,-56.57472 -58.18121,-56.57472 v -86.83278 h 116.36002 v 86.83278 c 0,0 2.03689,56.57472 -58.17881,56.57472"
           style="font-size:12px;fill:#005bbf;fill-opacity:1" />
        <path
           id="path559"
           d="m 296.64841,401.23465 c -60.13404,0 -58.18121,-56.57472 -58.18121,-56.57472 v -86.83278 h 116.36002 v 86.83278 c 0,0 2.03689,56.57472 -58.17881,56.57472 z"
           style="font-size:12px;fill:none;stroke:#000000;stroke-width:1.0064" />
        <path
           id="path560"
           d="m 296.13678,203.17868 c 0,0 -12.40632,-6.03575 -24.14249,2.85096 0,0 -21.11837,-3.0479 -22.67247,17.18017 -0.0625,0.81902 -0.18975,2.32736 0.18736,2.76689 0.37712,0.43954 0.75423,1.25855 0.75423,1.82058 0,0.56683 0.37712,0.88146 0.50443,1.13125 0.12489,0.25219 0.43955,0.62928 0.50201,1.69808 0.0625,1.06882 -0.12491,1.57079 0.88154,2.6396 1.00403,1.0688 1.06648,4.15033 1.06648,5.0294 0,0.87906 0.62933,3.33131 1.06888,3.8357 0.43957,0.50197 1.1938,1.75812 1.1938,2.82693 0,1.0688 0.43957,4.02304 0.24981,4.7748 -0.18735,0.75417 1.13134,1.69808 2.32753,2.07517 1.1938,0.37709 16.03095,5.21674 37.65614,4.83965 21.62759,-0.37708 29.41488,-1.52755 38.35031,-4.7772 1.38115,-0.50199 1.63336,-1.63324 1.50846,-2.26252 -0.12731,-0.62686 0,-2.63718 0.37711,-3.14157 0.37711,-0.50197 2.89201,-4.52501 2.38759,-5.27918 -0.50202,-0.75417 -0.50202,-2.3898 0,-3.01668 0.50442,-0.62928 2.07773,-3.65316 2.38759,-4.9045 0.31226,-1.25374 0.35309,-2.73086 0.92957,-3.168 0.57888,-0.43713 0.77344,-1.85419 0.88394,-2.14962 0.11288,-0.29782 0.53324,-1.22012 1.11933,-1.64044 0,0 1.09051,-5.11105 0.41794,-7.62335 -0.66775,-2.5147 -4.44129,-13.32767 -19.78046,-11.06276 0,0 -11.39988,-8.63452 -28.16343,-4.44336"
           style="font-size:12px;fill:#d81126;fill-opacity:1" />
        <path
           id="path561"
           d="m 296.13678,203.17868 c 0,0 -12.40632,-6.03575 -24.14249,2.85096 0,0 -21.11837,-3.0479 -22.67247,17.18017 -0.0625,0.81902 -0.18975,2.32736 0.18736,2.76689 0.37712,0.43954 0.75423,1.25855 0.75423,1.82058 0,0.56683 0.37712,0.88146 0.50443,1.13125 0.12489,0.25219 0.43955,0.62928 0.50201,1.69808 0.0625,1.06882 -0.12491,1.57079 0.88154,2.6396 1.00403,1.0688 1.06648,4.15033 1.06648,5.0294 0,0.87906 0.62933,3.33131 1.06888,3.8357 0.43957,0.50197 1.1938,1.75812 1.1938,2.82693 0,1.0688 0.43957,4.02304 0.24981,4.7748 -0.18735,0.75417 1.13134,1.69808 2.32753,2.07517 1.1938,0.37709 16.03095,5.21674 37.65614,4.83965 21.62759,-0.37708 29.41488,-1.52755 38.35031,-4.7772 1.38115,-0.50199 1.63336,-1.63324 1.50846,-2.26252 -0.12731,-0.62686 0,-2.63718 0.37711,-3.14157 0.37711,-0.50197 2.89201,-4.52501 2.38759,-5.27918 -0.50202,-0.75417 -0.50202,-2.3898 0,-3.01668 0.50442,-0.62928 2.07773,-3.65316 2.38759,-4.9045 0.31226,-1.25374 0.35309,-2.73086 0.92957,-3.168 0.57888,-0.43713 0.77344,-1.85419 0.88394,-2.14962 0.11288,-0.29782 0.53324,-1.22012 1.11933,-1.64044 0,0 1.09051,-5.11105 0.41794,-7.62335 -0.66775,-2.5147 -4.44129,-13.32767 -19.78046,-11.06276 0,0 -11.39988,-8.63452 -28.16343,-4.44336 z"
           style="font-size:12px;fill:none;stroke:#000000;stroke-width:1.5084" />
        <path
           id="path562"
           d="m 337.64332,240.83432 c -47.108,-14.92006 -83.4142,-0.73976 -83.4142,-0.73976 0,0 0.33627,1.64525 0.75422,2.14722 0.42035,0.50198 1.00644,1.67647 1.00644,2.55794 0,0.87906 0.0841,2.13761 0.0841,2.80772 0,0.6677 -0.51403,3.67477 2.1738,3.63875 0,0 32.74165,-12.8425 75.37713,0.6605 0,0 1.16737,-1.04719 1.21061,-2.55554 0.0408,-1.50834 0.29064,-3.10074 0.87912,-3.93897 0.58609,-0.83823 1.92641,-3.45621 1.92641,-4.57786"
           style="font-size:12px;fill:#bcac0b;fill-opacity:1" />
        <path
           id="path563"
           d="m 293.96778,319.34721 h -20.45302 c 0,0 -2.01288,18.2706 13.74664,23.80438 v 1.67647 h 3.35319 v 2.17844 c 0,0 -5.78401,5.19512 -0.75663,11.14682 v 1.8446 h 0.8407 v 2.93261 h 0.91996 v 4.7748 c 0,0 -0.75423,17.05769 -17.47694,25.22866 v 1.00635 h 44.65076 v -1.00635 C 302.07212,384.76302 301.3155,367.70533 301.3155,367.70533 v -4.7748 h 0.91996 v -2.93261 h 0.8383 v -1.8446 c 5.02978,-5.9517 -0.75423,-11.14682 -0.75423,-11.14682 v -2.17844 h 3.35318 v -1.67647 c 15.75952,-5.53378 13.74664,-23.80438 13.74664,-23.80438 h -25.45397"
           style="font-size:12px;fill:#c8b100;fill-opacity:0.941176" />
        <path
           id="path564"
           d="m 293.96778,319.34721 h -20.45302 c 0,0 -2.01288,18.2706 13.74664,23.80438 v 1.67647 h 3.35319 v 2.17844 c 0,0 -5.78401,5.19512 -0.75663,11.14682 v 1.8446 h 0.8407 v 2.93261 h 0.91996 v 4.7748 c 0,0 -0.75423,17.05769 -17.47694,25.22866 v 1.00635 h 44.65076 v -1.00635 C 302.07212,384.76302 301.3155,367.70533 301.3155,367.70533 v -4.7748 h 0.91996 v -2.93261 h 0.8383 v -1.8446 c 5.02978,-5.9517 -0.75423,-11.14682 -0.75423,-11.14682 v -2.17844 h 3.35318 v -1.67647 c 15.75952,-5.53378 13.74664,-23.80438 13.74664,-23.80438 h -25.45397 z"
           style="font-size:12px;fill:none;stroke:#000000;stroke-width:1.0064" />
        <path
           id="path565"
           d="m 286.58884,342.8994 h 19.74203 m -19.06947,1.50834 h 18.39931 m -15.04612,2.5147 h 11.56802 m -12.32465,11.43984 h 13.20378 m -12.32225,1.40506 h 11.52719 m -11.52719,2.85095 h 11.48396 m -18.52421,23.15349 h 25.52363 m -32.73203,5.90846 h 39.98367 m -41.49213,0.87906 h 43.04142"
           style="font-size:12px;fill:none;stroke:#000000;stroke-width:0.2522" />
        <path
           id="path566"
           d="m 296.6388,318.2688 c 7.20119,0 13.04045,-5.83881 13.04045,-13.03944 0,-7.20065 -5.83926,-13.03945 -13.04045,-13.03945 -7.2012,0 -13.04045,5.8388 -13.04045,13.03945 0,7.20063 5.83925,13.03944 13.04045,13.03944"
           style="font-size:12px;fill:#cccccc;fill-opacity:1" />
        <path
           id="path567"
           d="m 296.6388,318.2688 c 7.20119,0 13.04045,-5.83881 13.04045,-13.03944 0,-7.20065 -5.83926,-13.03945 -13.04045,-13.03945 -7.2012,0 -13.04045,5.8388 -13.04045,13.03945 0,7.20063 5.83925,13.03944 13.04045,13.03944 z"
           style="font-size:12px;fill:none;stroke:#000000;stroke-width:1.0064" />
        <path
           id="path568"
           d="m 266.29435,279.95507 h -8.13076 v -8.13255 h -7.20841 v 8.13255 h -8.13076 v 7.20543 h 8.13076 v 8.13015 h 7.20841 v -8.13015 h 8.13076 v -7.20543"
           style="font-size:12px;fill:#cccccc;fill-opacity:1" />
        <path
           id="path569"
           d="m 266.29435,279.95507 h -8.13076 v -8.13255 h -7.20841 v 8.13255 h -8.13076 v 7.20543 h 8.13076 v 8.13015 h 7.20841 v -8.13015 h 8.13076 v -7.20543"
           style="font-size:12px;fill:none;stroke:#000000;stroke-width:1.0064" />
        <path
           id="path570"
           d="m 350.79906,279.95507 h -8.13076 v -8.13255 h -7.2108 v 8.13255 h -8.12836 v 7.20543 h 8.12836 v 8.13015 h 7.2108 v -8.13015 h 8.13076 v -7.20543"
           style="font-size:12px;fill:#cccccc;fill-opacity:1" />
        <path
           id="path571"
           d="m 350.79906,279.95507 h -8.13076 v -8.13255 h -7.2108 v 8.13255 h -8.12836 v 7.20543 h 8.12836 v 8.13015 h 7.2108 v -8.13015 h 8.13076 v -7.20543"
           style="font-size:12px;fill:none;stroke:#000000;stroke-width:1.0064" />
        <path
           id="path572"
           d="m 307.97624,269.73775 h -8.13077 v -8.13014 h -7.20839 v 8.13014 h -8.13077 v 7.20785 h 8.13077 v 8.13013 h 7.20839 v -8.13013 h 8.13077 v -7.20785"
           style="font-size:12px;fill:#cccccc;fill-opacity:1" />
        <path
           id="path573"
           d="m 307.97624,269.73775 h -8.13077 v -8.13014 h -7.20839 v 8.13014 h -8.13077 v 7.20785 h 8.13077 v 8.13013 h 7.20839 v -8.13013 h 8.13077 v -7.20785"
           style="font-size:12px;fill:none;stroke:#000000;stroke-width:1.0064" />
        <path
           id="path574"
           d="m 266.29435,315.15605 h -8.13076 v -8.13014 h -7.20841 v 8.13014 h -8.13076 v 7.20784 h 8.13076 v 8.13014 h 7.20841 v -8.13014 h 8.13076 v -7.20784"
           style="font-size:12px;fill:#cccccc;fill-opacity:1" />
        <path
           id="path575"
           d="m 266.29435,315.15605 h -8.13076 v -8.13014 h -7.20841 v 8.13014 h -8.13076 v 7.20784 h 8.13076 v 8.13014 h 7.20841 v -8.13014 h 8.13076 v -7.20784"
           style="font-size:12px;fill:none;stroke:#000000;stroke-width:1.0064" />
        <path
           id="path576"
           d="m 350.79906,315.15605 h -8.13076 v -8.13014 h -7.2108 v 8.13014 h -8.12836 v 7.20784 h 8.12836 v 8.13014 h 7.2108 v -8.13014 h 8.13076 v -7.20784"
           style="font-size:12px;fill:#cccccc;fill-opacity:1" />
        <path
           id="path577"
           d="m 350.79906,315.15605 h -8.13076 v -8.13014 h -7.2108 v 8.13014 h -8.12836 v 7.20784 h 8.12836 v 8.13014 h 7.2108 v -8.13014 h 8.13076 v -7.20784"
           style="font-size:12px;fill:none;stroke:#000000;stroke-width:1.0064" />
        <path
           id="path578"
           d="m 266.29435,350.70529 h -8.13076 v -8.13254 h -7.20841 v 8.13254 h -8.13076 v 7.20785 h 8.13076 v 8.12773 h 7.20841 v -8.12773 h 8.13076 v -7.20785"
           style="font-size:12px;fill:#cccccc;fill-opacity:1" />
        <path
           id="path579"
           d="m 266.29435,350.70529 h -8.13076 v -8.13254 h -7.20841 v 8.13254 h -8.13076 v 7.20785 h 8.13076 v 8.12773 h 7.20841 v -8.12773 h 8.13076 v -7.20785"
           style="font-size:12px;fill:none;stroke:#000000;stroke-width:1.0064" />
        <path
           id="path580"
           d="m 350.79906,350.70529 h -8.13076 v -8.13254 h -7.2108 v 8.13254 h -8.12836 v 7.20785 h 8.12836 v 8.12773 h 7.2108 v -8.12773 h 8.13076 v -7.20785"
           style="font-size:12px;fill:#cccccc;fill-opacity:1" />
        <path
           id="path581"
           d="m 350.79906,350.70529 h -8.13076 v -8.13254 h -7.2108 v 8.13254 h -8.12836 v 7.20785 h 8.12836 v 8.12773 h 7.2108 v -8.12773 h 8.13076 v -7.20785"
           style="font-size:12px;fill:none;stroke:#000000;stroke-width:1.0064" />
        <path
           id="path582"
           d="m 296.53311,185.77274 c 4.3212,0 7.82571,-3.50184 7.82571,-7.82271 0,-4.32086 -3.50451,-7.82271 -7.82571,-7.82271 -4.32119,0 -7.82331,3.50185 -7.82331,7.82271 0,4.32087 3.50212,7.82271 7.82331,7.82271"
           style="font-size:12px;fill:#005bbf;fill-opacity:1" />
        <path
           id="path583"
           d="m 296.53311,185.77274 c 4.3212,0 7.82571,-3.50184 7.82571,-7.82271 0,-4.32086 -3.50451,-7.82271 -7.82571,-7.82271 -4.32119,0 -7.82331,3.50185 -7.82331,7.82271 0,4.32087 3.50212,7.82271 7.82331,7.82271 z"
           style="font-size:12px;fill:none;stroke:#000000;stroke-width:1.0064" />
        <path
           id="path584"
           d="m 303.82798,176.56659 h -6.41333 v -10.37103 h 2.45003 v -2.07517 h -2.45003 v -2.45226 h -2.07533 v 2.45226 h -2.45245 v 2.07517 h 2.45245 v 10.37103 h -6.09868 v 1.38344 h 6.09868 v 0.0625 h 2.07533 v -0.0625 h 6.41333 v -1.38344"
           style="font-size:12px;fill:#ffcc00;fill-opacity:1" />
        <path
           id="path585"
           d="m 303.82798,176.56659 h -6.41333 v -10.37103 h 2.45003 v -2.07517 h -2.45003 v -2.45226 h -2.07533 v 2.45226 h -2.45245 v 2.07517 h 2.45245 v 10.37103 h -6.09868 v 1.38344 h 6.09868 v 0.0625 h 2.07533 v -0.0625 h 6.41333 v -1.38344"
           style="font-size:12px;fill:#bcac0b;fill-opacity:1;stroke:#000000;stroke-width:0.501998" />
        <path
           id="path586"
           d="m 265.20625,195.13261 c 0,0 5.78401,-0.6701 9.1348,0.67011 0,0 -3.8408,4.36889 -3.01691,10.14046 0.42034,2.93501 1.00643,4.44335 1.84473,5.86763 0.8383,1.42668 1.75826,4.35929 1.25624,6.70585 h 1.09051 c 0,0 1.09051,-4.7772 -0.75423,-7.46003 -1.84473,-2.68042 -2.7671,-6.36961 -0.92236,-10.22452 1.84234,-3.85491 4.52537,-5.36325 4.52537,-5.36325 3.10097,1.25615 9.64162,0.0817 11.48395,-1.25854 1.84233,-1.34262 2.7647,-3.18481 -0.67015,-3.35294 -3.43486,-0.16812 -9.30295,-0.0841 -13.3263,2.93502 0,0 -2.09694,-2.43304 -12.57446,-1.25855 -10.47751,1.17448 -18.05102,5.64907 -20.36895,15.08819 -1.17217,4.77721 3.26912,14.8336 7.37654,17.26424 0,0 -0.12491,-1.63324 0.29305,-2.80772 0,0 -6.99943,-7.83712 -4.90249,-15.12903 2.09455,-7.2919 10.47752,-12.06911 19.53066,-11.81692"
           style="font-size:12px;fill:#ffcc00;fill-opacity:1" />
        <path
           id="path587"
           d="m 265.20625,195.13261 c 0,0 5.78401,-0.6701 9.1348,0.67011 0,0 -3.8408,4.36889 -3.01691,10.14046 0.42034,2.93501 1.00643,4.44335 1.84473,5.86763 0.8383,1.42668 1.75826,4.35929 1.25624,6.70585 h 1.09051 c 0,0 1.09051,-4.7772 -0.75423,-7.46003 -1.84473,-2.68042 -2.7671,-6.36961 -0.92236,-10.22452 1.84234,-3.85491 4.52537,-5.36325 4.52537,-5.36325 3.10097,1.25615 9.64162,0.0817 11.48395,-1.25854 1.84233,-1.34262 2.7647,-3.18481 -0.67015,-3.35294 -3.43486,-0.16812 -9.30295,-0.0841 -13.3263,2.93502 0,0 -2.09694,-2.43304 -12.57446,-1.25855 -10.47751,1.17448 -18.05102,5.64907 -20.36895,15.08819 -1.17217,4.77721 3.26912,14.8336 7.37654,17.26424 0,0 -0.12491,-1.63324 0.29305,-2.80772 0,0 -6.99943,-7.83712 -4.90249,-15.12903 2.09455,-7.2919 10.47752,-12.06911 19.53066,-11.81692 z"
           style="font-size:12px;fill:#bcac0b;fill-opacity:1;stroke:#000000;stroke-width:0.653319" />
        <path
           id="path588"
           d="m 284.89783,193.68912 c 1.81111,-0.14651 3.26192,-0.46114 3.2427,-0.70853 -0.0192,-0.24259 -1.50365,-0.32425 -3.31476,-0.17774 -1.81111,0.14651 -3.26191,0.46355 -3.2427,0.70854 0.0192,0.24498 1.50365,0.32424 3.31476,0.17773"
           style="font-size:12px;fill:#ffffff" />
        <path
           id="path589"
           d="m 278.30195,195.42563 c 0,0 -2.07293,1.94787 0,0 2.07532,-1.94787 6.41333,-3.26887 8.86577,-2.70204 2.45004,0.56443 -0.44197,0.87906 -1.25865,0.94151 -0.81668,0.0625 -2.45244,0.37709 -4.84003,0"
           style="font-size:12px;fill:none;stroke:#000000;stroke-width:0.653319" />
        <path
           id="path590"
           d="m 327.73508,195.75948 c 0,0 -5.78162,-0.6677 -9.1348,0.67251 0,0 3.8432,4.3665 3.01691,10.14046 -0.41795,2.93501 -1.00404,4.44335 -1.84233,5.86763 -0.84071,1.42187 -1.76067,4.35929 -1.25866,6.70586 h -1.0905 c 0,0 -1.08811,-4.7772 0.75422,-7.46003 1.84475,-2.68282 2.76711,-6.36961 0.92237,-10.22452 -1.84233,-3.85731 -4.52536,-5.36565 -4.52536,-5.36565 -3.10099,1.25855 -9.63923,0.0841 -11.48396,-1.25615 -1.83993,-1.34261 -2.7647,-3.18481 0.67016,-3.35293 3.43726,-0.16813 9.30534,-0.0841 13.32869,2.93261 0,0 2.09455,-2.43063 12.57206,-1.25614 10.47992,1.17208 18.05102,5.64906 20.36895,15.08579 1.17458,4.7772 -3.26912,14.836 -7.37653,17.26664 0,0 0.12729,-1.63324 -0.29305,-2.80772 0,0 6.99942,-7.83712 4.90488,-15.12903 -2.09695,-7.29191 -10.47751,-12.06911 -19.53305,-11.81933"
           style="font-size:12px;fill:#ffcc00;fill-opacity:1" />
        <path
           id="path591"
           d="m 327.73508,195.75948 c 0,0 -5.78162,-0.6677 -9.1348,0.67251 0,0 3.8432,4.3665 3.01691,10.14046 -0.41795,2.93501 -1.00404,4.44335 -1.84233,5.86763 -0.84071,1.42187 -1.76067,4.35929 -1.25866,6.70586 h -1.0905 c 0,0 -1.08811,-4.7772 0.75422,-7.46003 1.84475,-2.68282 2.76711,-6.36961 0.92237,-10.22452 -1.84233,-3.85731 -4.52536,-5.36565 -4.52536,-5.36565 -3.10099,1.25855 -9.63923,0.0841 -11.48396,-1.25615 -1.83993,-1.34261 -2.7647,-3.18481 0.67016,-3.35293 3.43726,-0.16813 9.30534,-0.0841 13.32869,2.93261 0,0 2.09455,-2.43063 12.57206,-1.25614 10.47992,1.17208 18.05102,5.64906 20.36895,15.08579 1.17458,4.7772 -3.26912,14.836 -7.37653,17.26664 0,0 0.12729,-1.63324 -0.29305,-2.80772 0,0 6.99942,-7.83712 4.90488,-15.12903 -2.09695,-7.29191 -10.47751,-12.06911 -19.53305,-11.81933 z"
           style="font-size:12px;fill:#bcac0b;fill-opacity:1;stroke:#000000;stroke-width:0.653319" />
        <path
           id="path592"
           d="m 308.04349,194.31839 c -1.8087,-0.14651 -3.26191,-0.46355 -3.2427,-0.70853 0.0216,-0.24498 1.50365,-0.32425 3.31476,-0.17773 1.81111,0.14651 3.26432,0.46355 3.2451,0.70854 -0.0216,0.24497 -1.50605,0.32424 -3.31716,0.17772"
           style="font-size:12px;fill:#ffffff" />
        <path
           id="path593"
           d="m 314.63938,196.05491 c 0,0 2.07533,1.94787 0,0 -2.07293,-1.95028 -6.41093,-3.26887 -8.86338,-2.70445 -2.45244,0.56683 0.43957,0.88147 1.25625,0.94392 0.81908,0.0625 2.45244,0.37708 4.84243,0"
           style="font-size:12px;fill:none;stroke:#000000;stroke-width:0.653319" />
        <path
           id="path594"
           d="m 291.107,189.34904 v 22.29604 c -0.25221,2.17845 2.68063,5.27919 4.77757,6.20148 0,0 4.94572,-1.67646 5.27959,-6.20148 v -23.55459 h -1.67658 v 20.36738 c -0.0817,2.09678 -1.42439,5.86763 -3.26913,6.45608 0,0 -3.603,-0.58845 -3.77113,-6.37202 v -19.86059 l -1.34032,0.6677"
           style="font-size:12px;fill:#ffcc00;fill-opacity:1" />
        <path
           id="path595"
           d="m 291.107,189.34904 v 22.29604 c -0.25221,2.17845 2.68063,5.27919 4.77757,6.20148 0,0 4.94572,-1.67646 5.27959,-6.20148 v -23.55459 h -1.67658 v 20.36738 c -0.0817,2.09678 -1.42439,5.86763 -3.26913,6.45608 0,0 -3.603,-0.58845 -3.77113,-6.37202 v -19.86059 l -1.34032,0.6677"
           style="font-size:12px;fill:#bcac0b;fill-opacity:1;stroke:#000000;stroke-width:0.653319" />
        <path
           id="path596"
           d="m 241.77715,219.84247 c 1.47242,0 2.66622,-1.1937 2.66622,-2.66601 0,-1.46992 -1.1938,-2.66602 -2.66622,-2.66602 -1.47243,0 -2.66622,1.1937 -2.66622,2.66602 0,1.47231 1.19379,2.66601 2.66622,2.66601"
           style="font-size:12px;fill:#ffffff" />
        <path
           id="path597"
           d="m 241.77715,219.84247 c 1.47242,0 2.66622,-1.1937 2.66622,-2.66601 0,-1.46992 -1.1938,-2.66602 -2.66622,-2.66602 -1.47243,0 -2.66622,1.1937 -2.66622,2.66602 0,1.47231 1.19379,2.66601 2.66622,2.66601 z"
           style="font-size:12px;fill:none;stroke:#000000;stroke-width:1.0064" />
        <path
           id="path598"
           d="m 240.11016,213.71304 c 1.47483,0 2.66862,-1.19369 2.66862,-2.66601 0,-1.46992 -1.19379,-2.66602 -2.66862,-2.66602 -1.47242,0 -2.66622,1.1937 -2.66622,2.66602 0,1.47232 1.1938,2.66601 2.66622,2.66601"
           style="font-size:12px;fill:#ffffff" />
        <path
           id="path599"
           d="m 240.11016,213.71304 c 1.47483,0 2.66862,-1.19369 2.66862,-2.66601 0,-1.46992 -1.19379,-2.66602 -2.66862,-2.66602 -1.47242,0 -2.66622,1.1937 -2.66622,2.66602 0,1.47232 1.1938,2.66601 2.66622,2.66601 z"
           style="font-size:12px;fill:none;stroke:#000000;stroke-width:1.0064" />
        <path
           id="path600"
           d="m 240.9917,206.29624 c 1.47242,0 2.66622,-1.1937 2.66622,-2.66842 0,-1.4723 -1.1938,-2.66601 -2.66622,-2.66601 -1.47243,0 -2.66622,1.19371 -2.66622,2.66601 0,1.47472 1.19379,2.66842 2.66622,2.66842"
           style="font-size:12px;fill:#ffffff" />
        <path
           id="path601"
           d="m 240.9917,206.29624 c 1.47242,0 2.66622,-1.1937 2.66622,-2.66842 0,-1.4723 -1.1938,-2.66601 -2.66622,-2.66601 -1.47243,0 -2.66622,1.19371 -2.66622,2.66601 0,1.47472 1.19379,2.66842 2.66622,2.66842 z"
           style="font-size:12px;fill:none;stroke:#000000;stroke-width:1.0064" />
        <path
           id="path602"
           d="m 245.13995,200.13559 c 1.47483,0 2.66862,-1.19371 2.66862,-2.66601 0,-1.47472 -1.19379,-2.66842 -2.66862,-2.66842 -1.47242,0 -2.66622,1.1937 -2.66622,2.66842 0,1.4723 1.1938,2.66601 2.66622,2.66601"
           style="font-size:12px;fill:#ffffff" />
        <path
           id="path603"
           d="m 245.13995,200.13559 c 1.47483,0 2.66862,-1.19371 2.66862,-2.66601 0,-1.47472 -1.19379,-2.66842 -2.66862,-2.66842 -1.47242,0 -2.66622,1.1937 -2.66622,2.66842 0,1.4723 1.1938,2.66601 2.66622,2.66601 z"
           style="font-size:12px;fill:none;stroke:#000000;stroke-width:1.0064" />
        <path
           id="path604"
           d="m 250.04483,195.6418 c 1.47242,0 2.66622,-1.19371 2.66622,-2.66842 0,-1.47231 -1.1938,-2.66601 -2.66622,-2.66601 -1.47242,0 -2.66862,1.1937 -2.66862,2.66601 0,1.47471 1.1962,2.66842 2.66862,2.66842"
           style="font-size:12px;fill:#ffffff" />
        <path
           id="path605"
           d="m 250.04483,195.6418 c 1.47242,0 2.66622,-1.19371 2.66622,-2.66842 0,-1.47231 -1.1938,-2.66601 -2.66622,-2.66601 -1.47242,0 -2.66862,1.1937 -2.66862,2.66601 0,1.47471 1.1962,2.66842 2.66862,2.66842 z"
           style="font-size:12px;fill:none;stroke:#000000;stroke-width:1.0064" />
        <path
           id="path606"
           d="m 256.36208,193.1271 c 1.47243,0 2.66622,-1.1937 2.66622,-2.66842 0,-1.47231 -1.19379,-2.66602 -2.66622,-2.66602 -1.47242,0 -2.66622,1.19371 -2.66622,2.66602 0,1.47472 1.1938,2.66842 2.66622,2.66842"
           style="font-size:12px;fill:#ffffff" />
        <path
           id="path607"
           d="m 256.36208,193.1271 c 1.47243,0 2.66622,-1.1937 2.66622,-2.66842 0,-1.47231 -1.19379,-2.66602 -2.66622,-2.66602 -1.47242,0 -2.66622,1.19371 -2.66622,2.66602 0,1.47472 1.1938,2.66842 2.66622,2.66842 z"
           style="font-size:12px;fill:none;stroke:#000000;stroke-width:1.0064" />
        <path
           id="path608"
           d="m 262.96278,191.9334 c 1.47242,0 2.66621,-1.19611 2.66621,-2.66842 0,-1.47232 -1.19379,-2.66601 -2.66621,-2.66601 -1.47243,0 -2.66622,1.19369 -2.66622,2.66601 0,1.47231 1.19379,2.66842 2.66622,2.66842"
           style="font-size:12px;fill:#ffffff" />
        <path
           id="path609"
           d="m 262.96278,191.9334 c 1.47242,0 2.66621,-1.19611 2.66621,-2.66842 0,-1.47232 -1.19379,-2.66601 -2.66621,-2.66601 -1.47243,0 -2.66622,1.19369 -2.66622,2.66601 0,1.47231 1.19379,2.66842 2.66622,2.66842 z"
           style="font-size:12px;fill:none;stroke:#000000;stroke-width:1.0064" />
        <path
           id="path610"
           d="m 269.25121,191.55631 c 1.47243,0 2.66622,-1.1961 2.66622,-2.66842 0,-1.47231 -1.19379,-2.66601 -2.66622,-2.66601 -1.47483,0 -2.66862,1.1937 -2.66862,2.66601 0,1.47232 1.19379,2.66842 2.66862,2.66842"
           style="font-size:12px;fill:#ffffff" />
        <path
           id="path611"
           d="m 269.25121,191.55631 c 1.47243,0 2.66622,-1.1961 2.66622,-2.66842 0,-1.47231 -1.19379,-2.66601 -2.66622,-2.66601 -1.47483,0 -2.66862,1.1937 -2.66862,2.66601 0,1.47232 1.19379,2.66842 2.66862,2.66842 z"
           style="font-size:12px;fill:none;stroke:#000000;stroke-width:1.0064" />
        <path
           id="path612"
           d="m 274.90792,192.05829 c 1.47242,0 2.66622,-1.19371 2.66622,-2.66601 0,-1.47472 -1.1938,-2.66842 -2.66622,-2.66842 -1.47243,0 -2.66622,1.1937 -2.66622,2.66842 0,1.4723 1.19379,2.66601 2.66622,2.66601"
           style="font-size:12px;fill:#ffffff" />
        <path
           id="path613"
           d="m 274.90792,192.05829 c 1.47242,0 2.66622,-1.19371 2.66622,-2.66601 0,-1.47472 -1.1938,-2.66842 -2.66622,-2.66842 -1.47243,0 -2.66622,1.1937 -2.66622,2.66842 0,1.4723 1.19379,2.66601 2.66622,2.66601 z"
           style="font-size:12px;fill:none;stroke:#000000;stroke-width:1.0064" />
        <path
           id="path614"
           d="m 291.03734,190.04557 c 1.47243,0 2.66862,-1.19371 2.66862,-2.66601 0,-1.46992 -1.19619,-2.66602 -2.66862,-2.66602 -1.47243,0 -2.66622,1.1937 -2.66622,2.66602 0,1.4723 1.19379,2.66601 2.66622,2.66601"
           style="font-size:12px;fill:#ffffff" />
        <path
           id="path615"
           d="m 291.03734,190.04557 c 1.47243,0 2.66862,-1.19371 2.66862,-2.66601 0,-1.46992 -1.19619,-2.66602 -2.66862,-2.66602 -1.47243,0 -2.66622,1.1937 -2.66622,2.66602 0,1.4723 1.19379,2.66601 2.66622,2.66601 z"
           style="font-size:12px;fill:none;stroke:#000000;stroke-width:1.0064" />
        <path
           id="path616"
           d="m 296.19203,191.42901 c 1.47243,0 2.66862,-1.1937 2.66862,-2.66601 0,-1.47231 -1.19619,-2.66602 -2.66862,-2.66602 -1.47243,0 -2.66622,1.19371 -2.66622,2.66602 0,1.47231 1.19379,2.66601 2.66622,2.66601"
           style="font-size:12px;fill:#ffffff" />
        <path
           id="path617"
           d="m 296.19203,191.42901 c 1.47243,0 2.66862,-1.1937 2.66862,-2.66601 0,-1.47231 -1.19619,-2.66602 -2.66862,-2.66602 -1.47243,0 -2.66622,1.19371 -2.66622,2.66602 0,1.47231 1.19379,2.66601 2.66622,2.66601 z"
           style="font-size:12px;fill:none;stroke:#000000;stroke-width:1.0064" />
        <path
           id="path618"
           d="m 296.19203,211.16712 c 1.47243,0 2.66862,-1.19371 2.66862,-2.66601 0,-1.47232 -1.19619,-2.66602 -2.66862,-2.66602 -1.47243,0 -2.66622,1.1937 -2.66622,2.66602 0,1.4723 1.19379,2.66601 2.66622,2.66601"
           style="font-size:12px;fill:#ffffff" />
        <path
           id="path619"
           d="m 296.19203,211.16712 c 1.47243,0 2.66862,-1.19371 2.66862,-2.66601 0,-1.47232 -1.19619,-2.66602 -2.66862,-2.66602 -1.47243,0 -2.66622,1.1937 -2.66622,2.66602 0,1.4723 1.19379,2.66601 2.66622,2.66601 z"
           style="font-size:12px;fill:none;stroke:#000000;stroke-width:1.0064" />
        <path
           id="path620"
           d="m 351.32751,221.54055 c 1.47242,0 2.66621,-1.19369 2.66621,-2.66841 0,-1.47232 -1.19379,-2.66602 -2.66621,-2.66602 -1.47483,0 -2.66862,1.1937 -2.66862,2.66602 0,1.47472 1.19379,2.66841 2.66862,2.66841"
           style="font-size:12px;fill:#ffffff" />
        <path
           id="path621"
           d="m 351.32751,221.54055 c 1.47242,0 2.66621,-1.19369 2.66621,-2.66841 0,-1.47232 -1.19379,-2.66602 -2.66621,-2.66602 -1.47483,0 -2.66862,1.1937 -2.66862,2.66602 0,1.47472 1.19379,2.66841 2.66862,2.66841 z"
           style="font-size:12px;fill:none;stroke:#000000;stroke-width:1.0064" />
        <path
           id="path622"
           d="m 352.70866,214.90674 c 1.47482,0 2.66862,-1.1937 2.66862,-2.66601 0,-1.47231 -1.1938,-2.66602 -2.66862,-2.66602 -1.47243,0 -2.66622,1.19371 -2.66622,2.66602 0,1.47231 1.19379,2.66601 2.66622,2.66601"
           style="font-size:12px;fill:#ffffff" />
        <path
           id="path623"
           d="m 352.70866,214.90674 c 1.47482,0 2.66862,-1.1937 2.66862,-2.66601 0,-1.47231 -1.1938,-2.66602 -2.66862,-2.66602 -1.47243,0 -2.66622,1.19371 -2.66622,2.66602 0,1.47231 1.19379,2.66601 2.66622,2.66601 z"
           style="font-size:12px;fill:none;stroke:#000000;stroke-width:1.0064" />
        <path
           id="path624"
           d="m 351.57731,207.99432 c 1.47483,0 2.66862,-1.1937 2.66862,-2.66841 0,-1.47231 -1.19379,-2.66602 -2.66862,-2.66602 -1.47242,0 -2.66622,1.19371 -2.66622,2.66602 0,1.47471 1.1938,2.66841 2.66622,2.66841"
           style="font-size:12px;fill:#ffffff" />
        <path
           id="path625"
           d="m 351.57731,207.99432 c 1.47483,0 2.66862,-1.1937 2.66862,-2.66841 0,-1.47231 -1.19379,-2.66602 -2.66862,-2.66602 -1.47242,0 -2.66622,1.19371 -2.66622,2.66602 0,1.47471 1.1938,2.66841 2.66622,2.66841 z"
           style="font-size:12px;fill:none;stroke:#000000;stroke-width:1.0064" />
        <path
           id="path626"
           d="m 348.68531,201.45659 c 1.47483,0 2.66862,-1.19611 2.66862,-2.66842 0,-1.46991 -1.19379,-2.66601 -2.66862,-2.66601 -1.47243,0 -2.66622,1.1937 -2.66622,2.66601 0,1.47231 1.19379,2.66842 2.66622,2.66842"
           style="font-size:12px;fill:#ffffff" />
        <path
           id="path627"
           d="m 348.68531,201.45659 c 1.47483,0 2.66862,-1.19611 2.66862,-2.66842 0,-1.46991 -1.19379,-2.66601 -2.66862,-2.66601 -1.47243,0 -2.66622,1.1937 -2.66622,2.66601 0,1.47231 1.19379,2.66842 2.66622,2.66842 z"
           style="font-size:12px;fill:none;stroke:#000000;stroke-width:1.0064" />
        <path
           id="path628"
           d="m 343.78283,196.92916 c 1.47242,0 2.66622,-1.1937 2.66622,-2.66601 0,-1.47231 -1.1938,-2.66601 -2.66622,-2.66601 -1.47243,0 -2.66862,1.1937 -2.66862,2.66601 0,1.47231 1.19619,2.66601 2.66862,2.66601"
           style="font-size:12px;fill:#ffffff" />
        <path
           id="path629"
           d="m 343.78283,196.92916 c 1.47242,0 2.66622,-1.1937 2.66622,-2.66601 0,-1.47231 -1.1938,-2.66601 -2.66622,-2.66601 -1.47243,0 -2.66862,1.1937 -2.66862,2.66601 0,1.47231 1.19619,2.66601 2.66862,2.66601 z"
           style="font-size:12px;fill:none;stroke:#000000;stroke-width:1.0064" />
        <path
           id="path630"
           d="m 337.87391,194.03738 c 1.47243,0 2.66622,-1.1937 2.66622,-2.66601 0,-1.47231 -1.19379,-2.66602 -2.66622,-2.66602 -1.47482,0 -2.66862,1.19371 -2.66862,2.66602 0,1.47231 1.1938,2.66601 2.66862,2.66601"
           style="font-size:12px;fill:#ffffff" />
        <path
           id="path631"
           d="m 337.87391,194.03738 c 1.47243,0 2.66622,-1.1937 2.66622,-2.66601 0,-1.47231 -1.19379,-2.66602 -2.66622,-2.66602 -1.47482,0 -2.66862,1.19371 -2.66862,2.66602 0,1.47231 1.1938,2.66601 2.66862,2.66601 z"
           style="font-size:12px;fill:none;stroke:#000000;stroke-width:1.0064" />
        <path
           id="path632"
           d="m 331.14591,192.49782 c 1.47483,0 2.66863,-1.1937 2.66863,-2.66602 0,-1.4699 -1.1938,-2.666 -2.66863,-2.666 -1.47243,0 -2.66622,1.1937 -2.66622,2.666 0,1.47232 1.19379,2.66602 2.66622,2.66602"
           style="font-size:12px;fill:#ffffff" />
        <path
           id="path633"
           d="m 331.14591,192.49782 c 1.47483,0 2.66863,-1.1937 2.66863,-2.66602 0,-1.4699 -1.1938,-2.666 -2.66863,-2.666 -1.47243,0 -2.66622,1.1937 -2.66622,2.666 0,1.47232 1.19379,2.66602 2.66622,2.66602 z"
           style="font-size:12px;fill:none;stroke:#000000;stroke-width:1.0064" />
        <path
           id="path634"
           d="m 324.98479,191.99584 c 1.47482,0 2.66861,-1.1937 2.66861,-2.66841 0,-1.46992 -1.19379,-2.66602 -2.66861,-2.66602 -1.47243,0 -2.66622,1.1937 -2.66622,2.66602 0,1.47471 1.19379,2.66841 2.66622,2.66841"
           style="font-size:12px;fill:#ffffff" />
        <path
           id="path635"
           d="m 324.98479,191.99584 c 1.47482,0 2.66861,-1.1937 2.66861,-2.66841 0,-1.46992 -1.19379,-2.66602 -2.66861,-2.66602 -1.47243,0 -2.66622,1.1937 -2.66622,2.66602 0,1.47471 1.19379,2.66841 2.66622,2.66841 z"
           style="font-size:12px;fill:none;stroke:#000000;stroke-width:1.0064" />
        <path
           id="path636"
           d="m 319.40014,191.26088 c 1.47483,0 2.66862,-1.1937 2.66862,-2.666 0,-1.47232 -1.19379,-2.66602 -2.66862,-2.66602 -1.47243,0 -2.66622,1.1937 -2.66622,2.66602 0,1.4723 1.19379,2.666 2.66622,2.666"
           style="font-size:12px;fill:#ffffff" />
        <path
           id="path637"
           d="m 319.40014,191.26088 c 1.47483,0 2.66862,-1.1937 2.66862,-2.666 0,-1.47232 -1.19379,-2.66602 -2.66862,-2.66602 -1.47243,0 -2.66622,1.1937 -2.66622,2.66602 0,1.4723 1.19379,2.666 2.66622,2.666 z"
           style="font-size:12px;fill:none;stroke:#000000;stroke-width:1.0064" />
        <path
           id="path638"
           d="m 323.00554,213.08617 c 1.47243,0 2.66622,-1.1961 2.66622,-2.66842 0,-1.4699 -1.19379,-2.66601 -2.66622,-2.66601 -1.47242,0 -2.66622,1.1937 -2.66622,2.66601 0,1.47232 1.1938,2.66842 2.66622,2.66842"
           style="font-size:12px;fill:#ffffff" />
        <path
           id="path639"
           d="m 323.00554,213.08617 c 1.47243,0 2.66622,-1.1961 2.66622,-2.66842 0,-1.4699 -1.19379,-2.66601 -2.66622,-2.66601 -1.47242,0 -2.66622,1.1937 -2.66622,2.66601 0,1.47232 1.1938,2.66842 2.66622,2.66842 z"
           style="font-size:12px;fill:none;stroke:#000000;stroke-width:1.0064" />
        <path
           id="path640"
           d="m 324.38909,207.92947 c 1.47243,0 2.66622,-1.1937 2.66622,-2.66601 0,-1.47231 -1.19379,-2.66602 -2.66622,-2.66602 -1.47482,0 -2.66861,1.19371 -2.66861,2.66602 0,1.47231 1.19379,2.66601 2.66861,2.66601"
           style="font-size:12px;fill:#ffffff" />
        <path
           id="path641"
           d="m 324.38909,207.92947 c 1.47243,0 2.66622,-1.1937 2.66622,-2.66601 0,-1.47231 -1.19379,-2.66602 -2.66622,-2.66602 -1.47482,0 -2.66861,1.19371 -2.66861,2.66602 0,1.47231 1.19379,2.66601 2.66861,2.66601 z"
           style="font-size:12px;fill:none;stroke:#000000;stroke-width:1.0064" />
        <path
           id="path642"
           d="m 301.97604,190.86458 c 1.47483,0 2.66863,-1.1961 2.66863,-2.66841 0,-1.47231 -1.1938,-2.66601 -2.66863,-2.66601 -1.47243,0 -2.66622,1.1937 -2.66622,2.66601 0,1.47231 1.19379,2.66841 2.66622,2.66841"
           style="font-size:12px;fill:#ffffff" />
        <path
           id="path643"
           d="m 301.97604,190.86458 c 1.47483,0 2.66863,-1.1961 2.66863,-2.66841 0,-1.47231 -1.1938,-2.66601 -2.66863,-2.66601 -1.47243,0 -2.66622,1.1937 -2.66622,2.66601 0,1.47231 1.19379,2.66841 2.66622,2.66841 z"
           style="font-size:12px;fill:none;stroke:#000000;stroke-width:1.0064" />
        <path
           id="path644"
           d="m 288.92599,190.14164 c 1.47482,0 2.66862,-1.1937 2.66862,-2.66842 0,-1.4699 -1.1938,-2.66361 -2.66862,-2.66361 -1.47243,0 -2.66622,1.19131 -2.66622,2.66361 0,1.47472 1.19379,2.66842 2.66622,2.66842"
           style="font-size:12px;fill:#ffffff" />
        <path
           id="path645"
           d="m 288.92599,190.14164 c 1.47482,0 2.66862,-1.1937 2.66862,-2.66842 0,-1.4699 -1.1938,-2.66361 -2.66862,-2.66361 -1.47243,0 -2.66622,1.19131 -2.66622,2.66361 0,1.47472 1.19379,2.66842 2.66622,2.66842 z"
           style="font-size:12px;fill:none;stroke:#000000;stroke-width:1.0064" />
        <path
           id="path646"
           d="m 285.78416,190.01434 c 1.47243,0 2.66622,-1.1937 2.66622,-2.66601 0,-1.47231 -1.19379,-2.66601 -2.66622,-2.66601 -1.47242,0 -2.66621,1.1937 -2.66621,2.66601 0,1.47231 1.19379,2.66601 2.66621,2.66601"
           style="font-size:12px;fill:#ffffff" />
        <path
           id="path647"
           d="m 285.78416,190.01434 c 1.47243,0 2.66622,-1.1937 2.66622,-2.66601 0,-1.47231 -1.19379,-2.66601 -2.66622,-2.66601 -1.47242,0 -2.66621,1.1937 -2.66621,2.66601 0,1.47231 1.19379,2.66601 2.66621,2.66601 z"
           style="font-size:12px;fill:none;stroke:#000000;stroke-width:1.0064" />
        <path
           id="path648"
           d="m 268.84047,213.14861 c 1.47242,0 2.66862,-1.19369 2.66862,-2.66841 0,-1.47231 -1.1962,-2.66602 -2.66862,-2.66602 -1.47243,0 -2.66622,1.19371 -2.66622,2.66602 0,1.47472 1.19379,2.66841 2.66622,2.66841"
           style="font-size:12px;fill:#ffffff" />
        <path
           id="path649"
           d="m 268.84047,213.14861 c 1.47242,0 2.66862,-1.19369 2.66862,-2.66841 0,-1.47231 -1.1962,-2.66602 -2.66862,-2.66602 -1.47243,0 -2.66622,1.19371 -2.66622,2.66602 0,1.47472 1.19379,2.66841 2.66622,2.66841 z"
           style="font-size:12px;fill:none;stroke:#000000;stroke-width:1.0064" />
        <path
           id="path650"
           d="m 268.05502,206.76699 c 1.47242,0 2.66862,-1.19369 2.66862,-2.66601 0,-1.47231 -1.1962,-2.66602 -2.66862,-2.66602 -1.47243,0 -2.66622,1.19371 -2.66622,2.66602 0,1.47232 1.19379,2.66601 2.66622,2.66601"
           style="font-size:12px;fill:#ffffff" />
        <path
           id="path651"
           d="m 268.05502,206.76699 c 1.47242,0 2.66862,-1.19369 2.66862,-2.66601 0,-1.47231 -1.1962,-2.66602 -2.66862,-2.66602 -1.47243,0 -2.66622,1.19371 -2.66622,2.66602 0,1.47232 1.19379,2.66601 2.66622,2.66601 z"
           style="font-size:12px;fill:none;stroke:#000000;stroke-width:1.0064" />
        <path
           id="path652"
           d="m 269.94059,200.60635 c 1.47482,0 2.66861,-1.19371 2.66861,-2.66602 0,-1.47231 -1.19379,-2.66601 -2.66861,-2.66601 -1.47243,0 -2.66622,1.1937 -2.66622,2.66601 0,1.47231 1.19379,2.66602 2.66622,2.66602"
           style="font-size:12px;fill:#ffffff" />
        <path
           id="path653"
           d="m 269.94059,200.60635 c 1.47482,0 2.66861,-1.19371 2.66861,-2.66602 0,-1.47231 -1.19379,-2.66601 -2.66861,-2.66601 -1.47243,0 -2.66622,1.1937 -2.66622,2.66601 0,1.47231 1.19379,2.66602 2.66622,2.66602 z"
           style="font-size:12px;fill:none;stroke:#000000;stroke-width:1.0064" />
        <path
           id="path654"
           d="m 281.66474,190.61239 c 1.47483,0 2.66862,-1.1937 2.66862,-2.666 0,-1.47472 -1.19379,-2.66842 -2.66862,-2.66842 -1.47242,0 -2.66622,1.1937 -2.66622,2.66842 0,1.4723 1.1938,2.666 2.66622,2.666"
           style="font-size:12px;fill:#ffffff" />
        <path
           id="path655"
           d="m 281.66474,190.61239 c 1.47483,0 2.66862,-1.1937 2.66862,-2.666 0,-1.47472 -1.19379,-2.66842 -2.66862,-2.66842 -1.47242,0 -2.66622,1.1937 -2.66622,2.66842 0,1.4723 1.1938,2.666 2.66622,2.666 z"
           style="font-size:12px;fill:none;stroke:#000000;stroke-width:1.0064" />
        <path
           id="path656"
           d="m 277.23305,192.43537 c 1.47483,0 2.66862,-1.1937 2.66862,-2.66601 0,-1.47471 -1.19379,-2.66841 -2.66862,-2.66841 -1.47242,0 -2.66622,1.1937 -2.66622,2.66841 0,1.47231 1.1938,2.66601 2.66622,2.66601"
           style="font-size:12px;fill:#ffffff" />
        <path
           id="path657"
           d="m 277.23305,192.43537 c 1.47483,0 2.66862,-1.1937 2.66862,-2.66601 0,-1.47471 -1.19379,-2.66841 -2.66862,-2.66841 -1.47242,0 -2.66622,1.1937 -2.66622,2.66841 0,1.47231 1.1938,2.66601 2.66622,2.66601 z"
           style="font-size:12px;fill:none;stroke:#000000;stroke-width:1.0064" />
        <path
           id="path658"
           d="m 272.99112,196.01888 c 1.47243,0 2.66622,-1.1961 2.66622,-2.66842 0,-1.47231 -1.19379,-2.666 -2.66622,-2.666 -1.47482,0 -2.66862,1.19369 -2.66862,2.666 0,1.47232 1.1938,2.66842 2.66862,2.66842"
           style="font-size:12px;fill:#ffffff" />
        <path
           id="path659"
           d="m 272.99112,196.01888 c 1.47243,0 2.66622,-1.1961 2.66622,-2.66842 0,-1.47231 -1.19379,-2.666 -2.66622,-2.666 -1.47482,0 -2.66862,1.19369 -2.66862,2.666 0,1.47232 1.1938,2.66842 2.66862,2.66842 z"
           style="font-size:12px;fill:none;stroke:#000000;stroke-width:1.0064" />
        <path
           id="path660"
           d="m 296.19203,194.44809 c 1.47243,0 2.66862,-1.1961 2.66862,-2.66842 0,-1.4699 -1.19619,-2.66601 -2.66862,-2.66601 -1.47243,0 -2.66622,1.19371 -2.66622,2.66601 0,1.47232 1.19379,2.66842 2.66622,2.66842"
           style="font-size:12px;fill:#ffffff" />
        <path
           id="path661"
           d="m 296.19203,194.44809 c 1.47243,0 2.66862,-1.1961 2.66862,-2.66842 0,-1.4699 -1.19619,-2.66601 -2.66862,-2.66601 -1.47243,0 -2.66622,1.19371 -2.66622,2.66601 0,1.47232 1.19379,2.66842 2.66622,2.66842 z"
           style="font-size:12px;fill:none;stroke:#000000;stroke-width:1.0064" />
        <path
           id="path662"
           d="m 296.19203,199.47509 c 1.47243,0 2.66862,-1.1937 2.66862,-2.66601 0,-1.47232 -1.19619,-2.66601 -2.66862,-2.66601 -1.47243,0 -2.66622,1.19369 -2.66622,2.66601 0,1.47231 1.19379,2.66601 2.66622,2.66601"
           style="font-size:12px;fill:#ffffff" />
        <path
           id="path663"
           d="m 296.19203,199.47509 c 1.47243,0 2.66862,-1.1937 2.66862,-2.66601 0,-1.47232 -1.19619,-2.66601 -2.66862,-2.66601 -1.47243,0 -2.66622,1.19369 -2.66622,2.66601 0,1.47231 1.19379,2.66601 2.66622,2.66601 z"
           style="font-size:12px;fill:none;stroke:#000000;stroke-width:1.0064" />
        <path
           id="path664"
           d="m 296.19203,204.88157 c 1.47243,0 2.66862,-1.1937 2.66862,-2.66602 0,-1.4699 -1.19619,-2.666 -2.66862,-2.666 -1.47243,0 -2.66622,1.1937 -2.66622,2.666 0,1.47232 1.19379,2.66602 2.66622,2.66602"
           style="font-size:12px;fill:#ffffff" />
        <path
           id="path665"
           d="m 296.19203,204.88157 c 1.47243,0 2.66862,-1.1937 2.66862,-2.66602 0,-1.4699 -1.19619,-2.666 -2.66862,-2.666 -1.47243,0 -2.66622,1.1937 -2.66622,2.666 0,1.47232 1.19379,2.66602 2.66622,2.66602 z"
           style="font-size:12px;fill:none;stroke:#000000;stroke-width:1.0064" />
        <path
           id="path666"
           d="m 305.43492,190.17287 c 1.47242,0 2.66622,-1.19611 2.66622,-2.66842 0,-1.46991 -1.1938,-2.66601 -2.66622,-2.66601 -1.47483,0 -2.66862,1.1937 -2.66862,2.66601 0,1.47231 1.19379,2.66842 2.66862,2.66842"
           style="font-size:12px;fill:#ffffff" />
        <path
           id="path667"
           d="m 305.43492,190.17287 c 1.47242,0 2.66622,-1.19611 2.66622,-2.66842 0,-1.46991 -1.1938,-2.66601 -2.66622,-2.66601 -1.47483,0 -2.66862,1.1937 -2.66862,2.66601 0,1.47231 1.19379,2.66842 2.66862,2.66842 z"
           style="font-size:12px;fill:none;stroke:#000000;stroke-width:1.0064" />
        <path
           id="path668"
           d="m 309.08116,189.41869 c 1.47242,0 2.66622,-1.1961 2.66622,-2.66841 0,-1.46991 -1.1938,-2.66602 -2.66622,-2.66602 -1.47483,0 -2.66862,1.19371 -2.66862,2.66602 0,1.47231 1.19379,2.66841 2.66862,2.66841"
           style="font-size:12px;fill:#ffffff" />
        <path
           id="path669"
           d="m 309.08116,189.41869 c 1.47242,0 2.66622,-1.1961 2.66622,-2.66841 0,-1.46991 -1.1938,-2.66602 -2.66622,-2.66602 -1.47483,0 -2.66862,1.19371 -2.66862,2.66602 0,1.47231 1.19379,2.66841 2.66862,2.66841 z"
           style="font-size:12px;fill:none;stroke:#000000;stroke-width:1.0064" />
        <path
           id="path670"
           d="m 313.19818,190.07919 c 1.47242,0 2.66622,-1.1961 2.66622,-2.66841 0,-1.47231 -1.1938,-2.66602 -2.66622,-2.66602 -1.47243,0 -2.66622,1.19371 -2.66622,2.66602 0,1.47231 1.19379,2.66841 2.66622,2.66841"
           style="font-size:12px;fill:#ffffff" />
        <path
           id="path671"
           d="m 313.19818,190.07919 c 1.47242,0 2.66622,-1.1961 2.66622,-2.66841 0,-1.47231 -1.1938,-2.66602 -2.66622,-2.66602 -1.47243,0 -2.66622,1.19371 -2.66622,2.66602 0,1.47231 1.19379,2.66841 2.66622,2.66841 z"
           style="font-size:12px;fill:none;stroke:#000000;stroke-width:1.0064" />
        <path
           id="path672"
           d="m 323.50756,201.39174 c 1.47242,0 2.66862,-1.1937 2.66862,-2.66602 0,-1.47231 -1.1962,-2.66601 -2.66862,-2.66601 -1.47243,0 -2.66622,1.1937 -2.66622,2.66601 0,1.47232 1.19379,2.66602 2.66622,2.66602"
           style="font-size:12px;fill:#ffffff" />
        <path
           id="path673"
           d="m 323.50756,201.39174 c 1.47242,0 2.66862,-1.1937 2.66862,-2.66602 0,-1.47231 -1.1962,-2.66601 -2.66862,-2.66601 -1.47243,0 -2.66622,1.1937 -2.66622,2.66601 0,1.47232 1.19379,2.66602 2.66622,2.66602 z"
           style="font-size:12px;fill:none;stroke:#000000;stroke-width:1.0064" />
        <path
           id="path674"
           d="m 317.34643,192.4666 c 1.47483,0 2.66862,-1.1937 2.66862,-2.66602 0,-1.47471 -1.19379,-2.66841 -2.66862,-2.66841 -1.47242,0 -2.66621,1.1937 -2.66621,2.66841 0,1.47232 1.19379,2.66602 2.66621,2.66602"
           style="font-size:12px;fill:#ffffff" />
        <path
           id="path675"
           d="m 317.34643,192.4666 c 1.47483,0 2.66862,-1.1937 2.66862,-2.66602 0,-1.47471 -1.19379,-2.66841 -2.66862,-2.66841 -1.47242,0 -2.66621,1.1937 -2.66621,2.66841 0,1.47232 1.19379,2.66602 2.66621,2.66602 z"
           style="font-size:12px;fill:none;stroke:#000000;stroke-width:1.0064" />
        <path
           id="path676"
           d="m 321.11997,196.11255 c 1.47243,0 2.66622,-1.1937 2.66622,-2.66841 0,-1.47232 -1.19379,-2.66602 -2.66622,-2.66602 -1.47482,0 -2.66862,1.1937 -2.66862,2.66602 0,1.47471 1.1938,2.66841 2.66862,2.66841"
           style="font-size:12px;fill:#ffffff" />
        <path
           id="path677"
           d="m 321.11997,196.11255 c 1.47243,0 2.66622,-1.1937 2.66622,-2.66841 0,-1.47232 -1.19379,-2.66602 -2.66622,-2.66602 -1.47482,0 -2.66862,1.1937 -2.66862,2.66602 0,1.47471 1.1938,2.66841 2.66862,2.66841 z"
           style="font-size:12px;fill:none;stroke:#000000;stroke-width:1.0064" />
        <path
           id="path678"
           d="m 296.02148,236.04991 -7.04026,3.52105 6.33648,3.98943 7.51105,-3.75404 -6.80727,-3.75644"
           style="font-size:12px;fill:#ffffff" />
        <path
           id="path679"
           d="m 296.02148,236.04991 -7.04026,3.52105 6.33648,3.98943 7.51105,-3.75404 -6.80727,-3.75644"
           style="font-size:12px;fill:none;stroke:#000000;stroke-width:0.501998" />
        <path
           id="path680"
           d="m 280.62948,236.78967 -10.56159,1.63323 c 0,0 -0.1273,5.65868 0.37711,7.04212 l 10.8114,-1.51074 c 0,0 0.50442,-5.27918 -0.62692,-7.16461"
           style="font-size:12px;fill:#ffffff" />
        <path
           id="path681"
           d="m 280.62948,236.78967 -10.56159,1.63323 c 0,0 -0.1273,5.65868 0.37711,7.04212 l 10.8114,-1.51074 c 0,0 0.50442,-5.27918 -0.62692,-7.16461 z"
           style="font-size:12px;fill:none;stroke:#000000;stroke-width:0.501998" />
        <path
           id="path682"
           d="m 279.4549,238.79999 c 0,0 -6.3701,0.58604 -7.96263,1.17449 l 0.0841,3.85491 c 0,0 4.19149,-0.75418 8.04669,-1.09043 l -0.16814,-3.93897"
           style="font-size:12px;fill:#058e6e;fill-opacity:0.941176" />
        <path
           id="path683"
           d="m 279.4549,238.79999 c 0,0 -6.3701,0.58604 -7.96263,1.17449 l 0.0841,3.85491 c 0,0 4.19149,-0.75418 8.04669,-1.09043 l -0.16814,-3.93897"
           style="font-size:12px;fill:none;stroke:#000000;stroke-width:0.501998" />
        <path
           id="path684"
           d="m 310.74334,237.09229 10.55918,1.63565 c 0,0 0.12731,5.65626 -0.37711,7.03971 l -10.81139,-1.50834 c 0,0 -0.50442,-5.28159 0.62932,-7.16702"
           style="font-size:12px;fill:#ffffff" />
        <path
           id="path685"
           d="m 310.74334,237.09229 10.55918,1.63565 c 0,0 0.12731,5.65626 -0.37711,7.03971 l -10.81139,-1.50834 c 0,0 -0.50442,-5.28159 0.62932,-7.16702 z"
           style="font-size:12px;fill:none;stroke:#000000;stroke-width:0.501998" />
        <path
           id="path686"
           d="m 311.91551,239.10501 c 0,0 6.3701,0.58605 7.96263,1.17209 l -0.0841,3.85491 c 0,0 -4.19149,-0.75416 -8.04669,-1.08802 l 0.16813,-3.93898"
           style="font-size:12px;fill:#058e6e;fill-opacity:0.941176" />
        <path
           id="path687"
           d="m 311.91551,239.10501 c 0,0 6.3701,0.58605 7.96263,1.17209 l -0.0841,3.85491 c 0,0 -4.19149,-0.75416 -8.04669,-1.08802 l 0.16813,-3.93898"
           style="font-size:12px;fill:none;stroke:#000000;stroke-width:0.501998" />
        <path
           id="path688"
           d="m 254.22431,241.81907 c 0,0 37.04843,-13.75759 84.15883,1.16248 m -82.65037,6.75629 c 0,0 35.83541,-13.40211 80.02979,0.59566 m -79.86166,-9.01882 7.2084,2.09438 -5.02978,5.36566"
           style="font-size:12px;fill:none;stroke:#000000;stroke-width:0.501998" />
        <path
           id="path689"
           d="m 256.06904,247.76836 4.10742,-3.437 -4.6935,-0.9223 c 0,0 0.63893,0.72535 0.50682,1.39066 -0.12971,0.6653 0.0384,2.38259 0.0793,2.96864"
           style="font-size:12px;fill:#ff0000" />
        <path
           id="path690"
           d="m 256.06904,247.76836 4.10742,-3.437 -4.6935,-0.9223 c 0,0 0.63893,0.72535 0.50682,1.39066 -0.12971,0.6653 0.0384,2.38259 0.0793,2.96864 z"
           style="font-size:12px;fill:none;stroke:#000000;stroke-width:0.501998" />
        <path
           id="path691"
           d="m 337.58567,242.69813 -7.66958,1.38345 5.15469,6.03335"
           style="font-size:12px;fill:none;stroke:#000000;stroke-width:0.501998" />
        <path
           id="path692"
           d="m 335.32299,247.97971 -2.892,-3.01907 4.14824,-0.37709 c 0,0 -1.13134,0.75417 -1.13134,1.38345 0,0.62927 0.12731,1.50834 -0.1249,2.01271"
           style="font-size:12px;fill:#ff0000" />
        <path
           id="path693"
           d="m 335.32299,247.97971 -2.892,-3.01907 4.14824,-0.37709 c 0,0 -1.13134,0.75417 -1.13134,1.38345 0,0.62927 0.12731,1.50834 -0.1249,2.01271 z"
           style="font-size:12px;fill:none;stroke:#000000;stroke-width:0.501998" />
        <path
           id="path694"
           d="m 265.29031,241.84548 c 0.65335,0 1.18419,-0.42511 1.18419,-0.95111 0,-0.52119 -0.53084,-0.94632 -1.18419,-0.94632 -0.65574,0 -1.18658,0.42513 -1.18658,0.94632 0,0.526 0.53084,0.95111 1.18658,0.95111 z m 20.60675,-2.34897 c 0.65575,0 1.18659,-0.42512 1.18659,-0.94631 0,-0.526 -0.53084,-0.94872 -1.18659,-0.94872 -0.65334,0 -1.18418,0.42272 -1.18418,0.94872 0,0.52119 0.53084,0.94631 1.18418,0.94631 z m 0,3.35294 c 0.65575,0 1.18659,-0.42513 1.18659,-0.94872 0,-0.5236 -0.53084,-0.94631 -1.18659,-0.94631 -0.65334,0 -1.18418,0.42271 -1.18418,0.94631 0,0.52359 0.53084,0.94872 1.18418,0.94872 z m 20.28488,-3.18481 c 0.65574,0 1.18658,-0.42272 1.18658,-0.94872 0,-0.52119 -0.53084,-0.94631 -1.18658,-0.94631 -0.65334,0 -1.18418,0.42271 -1.18418,0.94631 0,0.526 0.53084,0.94872 1.18418,0.94872 z m 20.11674,3.68918 c 0.65575,0 1.18659,-0.42511 1.18659,-0.95111 0,-0.5212 -0.53084,-0.94632 -1.18659,-0.94632 -0.65334,0 -1.18418,0.42512 -1.18418,0.94632 0,0.526 0.53084,0.95111 1.18418,0.95111 z m -0.33387,2.68043 c 0.65574,0 1.18658,-0.42512 1.18658,-0.94632 0,-0.52119 -0.53084,-0.95112 -1.18658,-0.95112 -0.65575,0 -1.1866,0.42753 -1.1866,0.95112 0,0.5212 0.53085,0.94632 1.1866,0.94632 z m -19.78287,-3.01668 c 0.65574,0 1.18658,-0.42512 1.18658,-0.94871 0,-0.5212 -0.53084,-0.94632 -1.18658,-0.94632 -0.65334,0 -1.18418,0.42272 -1.18418,0.94632 0,0.52359 0.53084,0.94871 1.18418,0.94871 z m -39.8972,3.01668 c 0.65334,0 1.18419,-0.42512 1.18419,-0.94632 0,-0.52119 -0.53085,-0.95112 -1.18419,-0.95112 -0.65575,0 -1.18659,0.42753 -1.18659,0.95112 0,0.5212 0.53084,0.94632 1.18659,0.94632 z"
           style="font-size:12px;fill:none;stroke:#000000;stroke-width:0.501998" />
        <path
           id="path695"
           d="m 253.55415,231.0061 c 0,0 0.16814,7.20785 4.86165,6.20148 4.6935,-1.00635 4.19148,-6.87398 4.52776,-7.20784 0.33388,-0.33626 0.8359,-0.33626 0.8359,-0.33626 0,0 0.67015,5.69951 5.02738,5.02941 4.35963,-0.67011 4.19149,-7.70983 3.68947,-8.88432 l 1.00644,-0.33625 c 0,0 1.67419,8.2142 6.70398,7.04212 5.02978,-1.17449 4.52776,-6.36961 4.52776,-6.36961 h 0.38672 c 0,0 1.12175,5.53137 5.14509,5.19512 4.02095,-0.33385 4.86165,-1.67647 4.35722,-7.20784 l 2.68303,-0.50198 c 0,0 -1.00643,8.04607 3.85281,7.87795 4.86405,-0.16813 5.02978,-4.02304 5.36607,-4.69314 h 0.73261 c 0,0 0.27383,5.6995 4.29718,5.6995 4.02334,0 4.85923,-4.86127 4.85923,-6.70587 l 3.92967,0.17534 c 0,0 -4.0954,7.53689 1.94082,8.54325 6.03382,1.00395 6.20196,-4.86368 6.20196,-4.86368 h 1.17217 c 0,0 -0.16813,7.5441 3.18506,7.71223 3.35078,0.16812 5.36366,-1.00636 5.69753,-6.53774 l 1.84475,0.67011 c 0,0 -1.59974,8.94195 -7.87856,7.37357 -3.35319,-0.83583 -4.35963,-4.69074 -4.19149,-5.69711 0,0 -2.34435,4.18877 -6.87212,2.84856 -4.52536,-1.34021 -4.02334,-4.52502 -4.02334,-5.53138 0,0 -2.72147,4.99817 -6.53825,3.85251 -3.35078,-1.00396 -4.69351,-2.17845 -4.69351,-4.52502 0,0 -1.67658,3.85491 -5.02978,3.68919 -3.35319,-0.16813 -5.02738,-2.18085 -5.19552,-4.02304 0,0 -0.66536,3.60272 -5.19792,3.85491 -3.01691,0.16813 -4.69351,-1.3378 -5.36367,-3.35293 0,0 -0.86712,3.65076 -5.19552,4.19117 -2.68063,0.33625 -5.36366,-1.17209 -6.03623,-3.68679 0,0 -0.66775,4.85887 -5.02738,5.53138 -4.35963,0.6701 -5.36606,-2.34658 -5.36606,-2.34658 0,0 -0.8359,3.85731 -4.35723,4.69315 -3.52133,0.83823 -5.86808,-0.6677 -6.70638,-4.18876 -0.83829,-3.52106 -0.50201,-5.0294 -0.50201,-5.0294 l 1.34031,1.84219"
           style="font-size:12px;fill:#ffcc00;fill-opacity:1" />
        <path
           id="path696"
           d="m 253.55415,231.0061 c 0,0 0.16814,7.20785 4.86165,6.20148 4.6935,-1.00635 4.19148,-6.87398 4.52776,-7.20784 0.33388,-0.33626 0.8359,-0.33626 0.8359,-0.33626 0,0 0.67015,5.69951 5.02738,5.02941 4.35963,-0.67011 4.19149,-7.70983 3.68947,-8.88432 l 1.00644,-0.33625 c 0,0 1.67419,8.2142 6.70398,7.04212 5.02978,-1.17449 4.52776,-6.36961 4.52776,-6.36961 h 0.38672 c 0,0 1.12175,5.53137 5.14509,5.19512 4.02095,-0.33385 4.86165,-1.67647 4.35722,-7.20784 l 2.68303,-0.50198 c 0,0 -1.00643,8.04607 3.85281,7.87795 4.86405,-0.16813 5.02978,-4.02304 5.36607,-4.69314 h 0.73261 c 0,0 0.27383,5.6995 4.29718,5.6995 4.02334,0 4.85923,-4.86127 4.85923,-6.70587 l 3.92967,0.17534 c 0,0 -4.0954,7.53689 1.94082,8.54325 6.03382,1.00395 6.20196,-4.86368 6.20196,-4.86368 h 1.17217 c 0,0 -0.16813,7.5441 3.18506,7.71223 3.35078,0.16812 5.36366,-1.00636 5.69753,-6.53774 l 1.84475,0.67011 c 0,0 -1.59974,8.94195 -7.87856,7.37357 -3.35319,-0.83583 -4.35963,-4.69074 -4.19149,-5.69711 0,0 -2.34435,4.18877 -6.87212,2.84856 -4.52536,-1.34021 -4.02334,-4.52502 -4.02334,-5.53138 0,0 -2.72147,4.99817 -6.53825,3.85251 -3.35078,-1.00396 -4.69351,-2.17845 -4.69351,-4.52502 0,0 -1.67658,3.85491 -5.02978,3.68919 -3.35319,-0.16813 -5.02738,-2.18085 -5.19552,-4.02304 0,0 -0.66536,3.60272 -5.19792,3.85491 -3.01691,0.16813 -4.69351,-1.3378 -5.36367,-3.35293 0,0 -0.86712,3.65076 -5.19552,4.19117 -2.68063,0.33625 -5.36366,-1.17209 -6.03623,-3.68679 0,0 -0.66775,4.85887 -5.02738,5.53138 -4.35963,0.6701 -5.36606,-2.34658 -5.36606,-2.34658 0,0 -0.8359,3.85731 -4.35723,4.69315 -3.52133,0.83823 -5.86808,-0.6677 -6.70638,-4.18876 -0.83829,-3.52106 -0.50201,-5.0294 -0.50201,-5.0294 l 1.34031,1.84219 z"
           style="font-size:12px;fill:#bcac0b;fill-opacity:1;stroke:#000000;stroke-width:0.653319" />
        <path
           id="path697"
           d="m 263.27744,231.32314 c 0.91756,0 1.65978,-0.74216 1.65978,-1.65966 0,-0.91509 -0.74222,-1.65965 -1.65978,-1.65965 -0.91757,0 -1.65978,0.74456 -1.65978,1.65965 0,0.9175 0.74221,1.65966 1.65978,1.65966"
           style="font-size:12px;fill:#ffcc00;fill-opacity:1" />
        <path
           id="path698"
           d="m 263.27744,231.32314 c 0.91756,0 1.65978,-0.74216 1.65978,-1.65966 0,-0.91509 -0.74222,-1.65965 -1.65978,-1.65965 -0.91757,0 -1.65978,0.74456 -1.65978,1.65965 0,0.9175 0.74221,1.65966 1.65978,1.65966 z"
           style="font-size:12px;fill:#bcac0b;fill-opacity:1;stroke:#000000;stroke-width:0.653319" />
        <path
           id="path699"
           d="m 285.12362,227.8261 c 0.91756,0 1.65978,-0.74456 1.65978,-1.65965 0,-0.91749 -0.74222,-1.65966 -1.65978,-1.65966 -0.91757,0 -1.65978,0.74217 -1.65978,1.65966 0,0.91509 0.74221,1.65965 1.65978,1.65965"
           style="font-size:12px;fill:#ffcc00;fill-opacity:1" />
        <path
           id="path700"
           d="m 285.12362,227.8261 c 0.91756,0 1.65978,-0.74456 1.65978,-1.65965 0,-0.91749 -0.74222,-1.65966 -1.65978,-1.65966 -0.91757,0 -1.65978,0.74217 -1.65978,1.65966 0,0.91509 0.74221,1.65965 1.65978,1.65965 z"
           style="font-size:12px;fill:#bcac0b;fill-opacity:1;stroke:#000000;stroke-width:0.653319" />
        <path
           id="path701"
           d="m 307.26284,228.47459 c 0.91757,0 1.65978,-0.74456 1.65978,-1.65965 0,-0.91749 -0.74221,-1.65966 -1.65978,-1.65966 -0.91756,0 -1.65978,0.74217 -1.65978,1.65966 0,0.91509 0.74222,1.65965 1.65978,1.65965"
           style="font-size:12px;fill:#ffcc00;fill-opacity:1" />
        <path
           id="path702"
           d="m 307.26284,228.47459 c 0.91757,0 1.65978,-0.74456 1.65978,-1.65965 0,-0.91749 -0.74221,-1.65966 -1.65978,-1.65966 -0.91756,0 -1.65978,0.74217 -1.65978,1.65966 0,0.91509 0.74222,1.65965 1.65978,1.65965 z"
           style="font-size:12px;fill:#bcac0b;fill-opacity:1;stroke:#000000;stroke-width:0.653319" />
        <path
           id="path703"
           d="m 329.23393,232.00525 c 0.91756,0 1.65977,-0.74456 1.65977,-1.65965 0,-0.91749 -0.74221,-1.65966 -1.65977,-1.65966 -0.91517,0 -1.65739,0.74217 -1.65739,1.65966 0,0.91509 0.74222,1.65965 1.65739,1.65965"
           style="font-size:12px;fill:#ffcc00;fill-opacity:1" />
        <path
           id="path704"
           d="m 329.23393,232.00525 c 0.91756,0 1.65977,-0.74456 1.65977,-1.65965 0,-0.91749 -0.74221,-1.65966 -1.65977,-1.65966 -0.91517,0 -1.65739,0.74217 -1.65739,1.65966 0,0.91509 0.74222,1.65965 1.65739,1.65965 z"
           style="font-size:12px;fill:#bcac0b;fill-opacity:1;stroke:#000000;stroke-width:0.653319" />
        <path
           id="path705"
           d="m 295.21441,225.9767 h -1.50845 c -0.37712,1.50834 -3.58378,2.45226 -3.58378,2.45226 -0.37712,-1.19371 0.43957,-2.89179 0.43957,-2.89179 -3.70869,-0.94391 -3.70869,-2.26491 -3.70869,-2.26491 0.56447,-1.25615 3.9609,-1.44349 3.9609,-1.44349 -0.88154,-1.13125 -0.69178,-2.95423 -0.69178,-2.95423 2.26268,0.1273 4.14825,2.38741 4.14825,2.38741 0,0 -2.26268,-1.12886 -2.01047,-5.1543 0,0 1.25624,-0.06 2.01047,0.75417 0,0 0,-4.33527 1.82312,-4.83725 h 0.18735 c 1.82312,0.50198 1.82312,4.83725 1.82312,4.83725 0.75423,-0.81421 2.01047,-0.75417 2.01047,-0.75417 0.25221,4.02304 -2.01047,5.1543 -2.01047,5.1543 0,0 1.88557,-2.26011 4.14825,-2.38741 0,0 0.18976,1.82058 -0.69178,2.95423 0,0 3.39643,0.18734 3.9609,1.44349 0,0 0,1.321 -3.70869,2.26491 0,0 0.81669,1.69808 0.43957,2.89179 0,0 -3.20666,-0.94392 -3.58378,-2.45226 h -3.45648"
           style="font-size:12px;fill:#ffcc00;fill-opacity:1" />
        <path
           id="path706"
           d="m 295.21441,225.9767 h -1.50845 c -0.37712,1.50834 -3.58378,2.45226 -3.58378,2.45226 -0.37712,-1.19371 0.43957,-2.89179 0.43957,-2.89179 -3.70869,-0.94391 -3.70869,-2.26491 -3.70869,-2.26491 0.56447,-1.25615 3.9609,-1.44349 3.9609,-1.44349 -0.88154,-1.13125 -0.69178,-2.95423 -0.69178,-2.95423 2.26268,0.1273 4.14825,2.38741 4.14825,2.38741 0,0 -2.26268,-1.12886 -2.01047,-5.1543 0,0 1.25624,-0.06 2.01047,0.75417 0,0 0,-4.33527 1.82312,-4.83725 h 0.18735 c 1.82312,0.50198 1.82312,4.83725 1.82312,4.83725 0.75423,-0.81421 2.01047,-0.75417 2.01047,-0.75417 0.25221,4.02304 -2.01047,5.1543 -2.01047,5.1543 0,0 1.88557,-2.26011 4.14825,-2.38741 0,0 0.18976,1.82058 -0.69178,2.95423 0,0 3.39643,0.18734 3.9609,1.44349 0,0 0,1.321 -3.70869,2.26491 0,0 0.81669,1.69808 0.43957,2.89179 0,0 -3.20666,-0.94392 -3.58378,-2.45226 h -3.45648 z"
           style="font-size:12px;fill:#bcac0b;fill-opacity:1;stroke:#000000;stroke-width:0.653319" />
        <path
           id="path707"
           d="m 296.07193,226.83415 c 1.679,0 3.03853,-1.35943 3.03853,-3.0383 0,-1.67646 -1.35953,-3.03589 -3.03853,-3.03589 -1.67659,0 -3.03612,1.35943 -3.03612,3.03589 0,1.67887 1.35953,3.0383 3.03612,3.0383"
           style="font-size:12px;fill:#ffffff" />
        <path
           id="path708"
           d="m 296.07193,226.83415 c 1.679,0 3.03853,-1.35943 3.03853,-3.0383 0,-1.67646 -1.35953,-3.03589 -3.03853,-3.03589 -1.67659,0 -3.03612,1.35943 -3.03612,3.03589 0,1.67887 1.35953,3.0383 3.03612,3.0383 z"
           style="font-size:12px;fill:none;stroke:#000000;stroke-width:0.40352" />
        <path
           id="path709"
           d="m 296.07193,225.45551 c 0.91756,0 1.66219,-0.74216 1.66219,-1.65966 0,-0.91509 -0.74463,-1.65725 -1.66219,-1.65725 -0.91516,0 -1.65738,0.74216 -1.65738,1.65725 0,0.9175 0.74222,1.65966 1.65738,1.65966"
           style="font-size:12px;fill:#ffffff" />
        <path
           id="path710"
           d="m 296.07193,225.45551 c 0.91756,0 1.66219,-0.74216 1.66219,-1.65966 0,-0.91509 -0.74463,-1.65725 -1.66219,-1.65725 -0.91516,0 -1.65738,0.74216 -1.65738,1.65725 0,0.9175 0.74222,1.65966 1.65738,1.65966 z"
           style="font-size:12px;fill:none;stroke:#000000;stroke-width:0.2522" />
        <path
           id="path711"
           d="m 319.10709,227.94379 1.47483,0.31944 c 0.0456,1.55397 2.98569,3.15118 2.98569,3.15118 0.61731,-1.08802 0.17775,-2.9182 0.17775,-2.9182 3.82398,-0.13931 4.1002,-1.42908 4.1002,-1.42908 -0.28583,-1.34982 -3.56456,-2.2505 -3.56456,-2.2505 1.09772,-0.9199 1.29949,-2.74288 1.29949,-2.74288 -2.23867,-0.35306 -4.5614,1.4603 -4.5614,1.4603 0,0 2.45243,-0.62686 3.05534,-4.61387 0,0 -1.21781,-0.32425 -2.12337,0.31222 0,0 0.91276,-4.2392 -0.76143,-5.11345 l -0.18495,-0.0408 c -1.88797,0.10809 -2.80313,4.34729 -2.80313,4.34729 -0.56448,-0.95833 -1.80631,-1.16248 -1.80631,-1.16248 -1.09531,3.87893 0.87913,5.46413 0.87913,5.46413 0,0 -1.36674,-2.61077 -3.55255,-3.21122 0,0 -0.56928,1.74131 0.0528,3.03348 0,0 -3.358,-0.5308 -4.17707,0.57884 0,0 -0.27624,1.28978 3.14902,2.99506 0,0 -1.15777,1.48673 -1.04007,2.73327 0,0 3.33397,-0.24499 4.02095,-1.64044 l 1.47242,0.31704 1.90718,0.41071"
           style="font-size:12px;fill:#ffcc00;fill-opacity:1" />
        <path
           id="path712"
           d="m 319.10709,227.94379 1.47483,0.31944 c 0.0456,1.55397 2.98569,3.15118 2.98569,3.15118 0.61731,-1.08802 0.17775,-2.9182 0.17775,-2.9182 3.82398,-0.13931 4.1002,-1.42908 4.1002,-1.42908 -0.28583,-1.34982 -3.56456,-2.2505 -3.56456,-2.2505 1.09772,-0.9199 1.29949,-2.74288 1.29949,-2.74288 -2.23867,-0.35306 -4.5614,1.4603 -4.5614,1.4603 0,0 2.45243,-0.62686 3.05534,-4.61387 0,0 -1.21781,-0.32425 -2.12337,0.31222 0,0 0.91276,-4.2392 -0.76143,-5.11345 l -0.18495,-0.0408 c -1.88797,0.10809 -2.80313,4.34729 -2.80313,4.34729 -0.56448,-0.95833 -1.80631,-1.16248 -1.80631,-1.16248 -1.09531,3.87893 0.87913,5.46413 0.87913,5.46413 0,0 -1.36674,-2.61077 -3.55255,-3.21122 0,0 -0.56928,1.74131 0.0528,3.03348 0,0 -3.358,-0.5308 -4.17707,0.57884 0,0 -0.27624,1.28978 3.14902,2.99506 0,0 -1.15777,1.48673 -1.04007,2.73327 0,0 3.33397,-0.24499 4.02095,-1.64044 l 1.47242,0.31704 1.90718,0.41071"
           style="font-size:12px;fill:#bcac0b;fill-opacity:1;stroke:#000000;stroke-width:0.653319" />
        <path
           id="path713"
           d="m 318.08385,228.60188 c -1.63816,-0.35306 -2.68063,-1.96948 -2.32754,-3.60992 0.35309,-1.63803 1.96963,-2.68282 3.6102,-2.32736 1.64057,0.35307 2.68304,1.96949 2.32994,3.60992 -0.35549,1.63805 -1.97204,2.68284 -3.6126,2.32736"
           style="font-size:12px;fill:#ffffff" />
        <path
           id="path714"
           d="m 318.08385,228.60188 c -1.63816,-0.35306 -2.68063,-1.96948 -2.32754,-3.60992 0.35309,-1.63803 1.96963,-2.68282 3.6102,-2.32736 1.64057,0.35307 2.68304,1.96949 2.32994,3.60992 -0.35549,1.63805 -1.97204,2.68284 -3.6126,2.32736 z"
           style="font-size:12px;fill:none;stroke:#000000;stroke-width:0.40352" />
        <path
           id="path715"
           d="m 318.37689,227.25447 c -0.89835,-0.19214 -1.46762,-1.07602 -1.27306,-1.97189 0.19216,-0.89347 1.07609,-1.46511 1.97204,-1.27056 0.89595,0.19215 1.46522,1.07841 1.27306,1.97189 -0.19456,0.89588 -1.0785,1.46511 -1.97204,1.27056"
           style="font-size:12px;fill:#ffffff" />
        <path
           id="path716"
           d="m 318.37689,227.25447 c -0.89835,-0.19214 -1.46762,-1.07602 -1.27306,-1.97189 0.19216,-0.89347 1.07609,-1.46511 1.97204,-1.27056 0.89595,0.19215 1.46522,1.07841 1.27306,1.97189 -0.19456,0.89588 -1.0785,1.46511 -1.97204,1.27056 z"
           style="font-size:12px;fill:none;stroke:#000000;stroke-width:0.2522" />
        <path
           id="path717"
           d="m 272.26572,227.64837 -1.49645,0.19695 c -0.17534,1.54676 -3.23068,2.90379 -3.23068,2.90379 -0.53084,-1.13366 0.0553,-2.92301 0.0553,-2.92301 -3.79997,-0.44674 -3.97531,-1.75573 -3.97531,-1.75573 0.39633,-1.31859 3.7351,-1.95508 3.7351,-1.95508 -1.02085,-1.00395 -1.07369,-2.83653 -1.07369,-2.83653 2.26028,-0.17054 4.42928,1.82057 4.42928,1.82057 0,0 -2.39238,-0.82382 -2.67342,-4.84446 0,0 1.23943,-0.22817 2.09454,0.48277 0,0 -0.57167,-4.29925 1.16497,-5.03901 l 0.18736,-0.0216 c 1.87356,0.25459 2.44524,4.55624 2.44524,4.55624 0.64133,-0.90788 1.89517,-1.01356 1.89517,-1.01356 0.78065,3.95578 -1.31389,5.37286 -1.31389,5.37286 0,0 1.57091,-2.48828 3.79756,-2.911 0,0 0.42755,1.77975 -0.29545,3.01668 0,0 3.38922,-0.2618 4.11702,0.91029 0,0 0.17295,1.30899 -3.3796,2.73326 0,0 1.03525,1.57319 0.81907,2.80772 0,0 -3.30274,-0.51158 -3.87682,-1.95748 l -1.49644,0.19935 -1.92881,0.257"
           style="font-size:12px;fill:#ffcc00;fill-opacity:1" />
        <path
           id="path718"
           d="m 272.26572,227.64837 -1.49645,0.19695 c -0.17534,1.54676 -3.23068,2.90379 -3.23068,2.90379 -0.53084,-1.13366 0.0553,-2.92301 0.0553,-2.92301 -3.79997,-0.44674 -3.97531,-1.75573 -3.97531,-1.75573 0.39633,-1.31859 3.7351,-1.95508 3.7351,-1.95508 -1.02085,-1.00395 -1.07369,-2.83653 -1.07369,-2.83653 2.26028,-0.17054 4.42928,1.82057 4.42928,1.82057 0,0 -2.39238,-0.82382 -2.67342,-4.84446 0,0 1.23943,-0.22817 2.09454,0.48277 0,0 -0.57167,-4.29925 1.16497,-5.03901 l 0.18736,-0.0216 c 1.87356,0.25459 2.44524,4.55624 2.44524,4.55624 0.64133,-0.90788 1.89517,-1.01356 1.89517,-1.01356 0.78065,3.95578 -1.31389,5.37286 -1.31389,5.37286 0,0 1.57091,-2.48828 3.79756,-2.911 0,0 0.42755,1.77975 -0.29545,3.01668 0,0 3.38922,-0.2618 4.11702,0.91029 0,0 0.17295,1.30899 -3.3796,2.73326 0,0 1.03525,1.57319 0.81907,2.80772 0,0 -3.30274,-0.51158 -3.87682,-1.95748 l -1.49644,0.19935 -1.92881,0.257"
           style="font-size:12px;fill:#bcac0b;fill-opacity:1;stroke:#000000;stroke-width:0.653319" />
        <path
           id="path719"
           d="m 273.22892,228.38572 c 1.66458,-0.22097 2.83436,-1.74852 2.61097,-3.41297 -0.22098,-1.66206 -1.74865,-2.83174 -3.41083,-2.60837 -1.66459,0.22096 -2.83196,1.74851 -2.61097,3.41057 0.22098,1.66205 1.74864,2.83174 3.41083,2.61077"
           style="font-size:12px;fill:#ffffff" />
        <path
           id="path720"
           d="m 273.22892,228.38572 c 1.66458,-0.22097 2.83436,-1.74852 2.61097,-3.41297 -0.22098,-1.66206 -1.74865,-2.83174 -3.41083,-2.60837 -1.66459,0.22096 -2.83196,1.74851 -2.61097,3.41057 0.22098,1.66205 1.74864,2.83174 3.41083,2.61077 z"
           style="font-size:12px;fill:none;stroke:#000000;stroke-width:0.40352" />
        <path
           id="path721"
           d="m 273.04877,227.01909 c 0.90796,-0.12009 1.54689,-0.95352 1.42439,-1.86381 -0.12011,-0.90789 -0.9536,-1.54436 -1.86156,-1.42668 -0.91035,0.12249 -1.54928,0.95593 -1.42678,1.86381 0.1201,0.91029 0.95599,1.54677 1.86395,1.42668"
           style="font-size:12px;fill:#ffffff" />
        <path
           id="path722"
           d="m 273.04877,227.01909 c 0.90796,-0.12009 1.54689,-0.95352 1.42439,-1.86381 -0.12011,-0.90789 -0.9536,-1.54436 -1.86156,-1.42668 -0.91035,0.12249 -1.54928,0.95593 -1.42678,1.86381 0.1201,0.91029 0.95599,1.54677 1.86395,1.42668 z"
           style="font-size:12px;fill:none;stroke:#000000;stroke-width:0.2522" />
        <path
           id="path723"
           d="m 340.16061,234.10444 c 0,0 -0.76142,-1.99831 -2.44283,-1.28017 -1.6814,0.71815 -1.50845,0.97994 -3.0121,0.88868 0,0 -0.58609,-1.79656 0.15372,-2.57235 0,0 -2.402,-0.89828 -2.90642,-3.00707 0,0 1.28748,-1.49393 4.33802,-0.9367 0,0 -0.0961,-1.51555 0.32186,-2.18326 0,0 3.27633,1.01357 3.29314,2.84135 0,0 -0.98242,-3.5859 0.74703,-6.18947 0,0 1.53487,0.6581 1.43639,2.29133 0,0 0.70619,-3.36014 5.24836,-2.45706 0,0 -2.46204,2.18325 -2.58454,3.1824 -0.1225,0.99916 -2.17622,2.70205 -2.21224,3.26887 -0.0312,0.56443 -0.28104,1.55638 -0.88394,2.14963 -0.6029,0.59324 -0.66295,1.59961 -0.61491,1.91425 0.0408,0.31943 -0.10329,1.69568 -0.88154,2.08957"
           style="font-size:12px;fill:#ffcc00;fill-opacity:1" />
        <path
           id="path724"
           d="m 340.16061,234.10444 c 0,0 -0.76142,-1.99831 -2.44283,-1.28017 -1.6814,0.71815 -1.50845,0.97994 -3.0121,0.88868 0,0 -0.58609,-1.79656 0.15372,-2.57235 0,0 -2.402,-0.89828 -2.90642,-3.00707 0,0 1.28748,-1.49393 4.33802,-0.9367 0,0 -0.0961,-1.51555 0.32186,-2.18326 0,0 3.27633,1.01357 3.29314,2.84135 0,0 -0.98242,-3.5859 0.74703,-6.18947 0,0 1.53487,0.6581 1.43639,2.29133 0,0 0.70619,-3.36014 5.24836,-2.45706 0,0 -2.46204,2.18325 -2.58454,3.1824 -0.1225,0.99916 -2.17622,2.70205 -2.21224,3.26887 -0.0312,0.56443 -0.28104,1.55638 -0.88394,2.14963 -0.6029,0.59324 -0.66295,1.59961 -0.61491,1.91425 0.0408,0.31943 -0.10329,1.69568 -0.88154,2.08957 z"
           style="font-size:12px;fill:#bcac0b;fill-opacity:1;stroke:#000000;stroke-width:0.653319" />
        <path
           id="path725"
           d="m 337.70097,230.11743 c 0.32186,-1.64524 1.91679,-2.72125 3.56216,-2.39941 0.46839,0.0889 0.88634,0.28581 1.24183,0.55482 -0.0913,0.56923 -0.34588,1.33541 -0.8455,1.82778 -0.6029,0.59324 -0.66295,1.59961 -0.61731,1.91425 0.0336,0.24978 -0.0553,1.14806 -0.46839,1.71729 -0.15613,-0.007 -0.31466,-0.0216 -0.4708,-0.0528 -1.64296,-0.31944 -2.71905,-1.91424 -2.40199,-3.56189"
           style="font-size:12px;fill:#ffffff" />
        <path
           id="path726"
           d="m 337.70097,230.11743 c 0.32186,-1.64524 1.91679,-2.72125 3.56216,-2.39941 0.46839,0.0889 0.88634,0.28581 1.24183,0.55482 -0.0913,0.56923 -0.34588,1.33541 -0.8455,1.82778 -0.6029,0.59324 -0.66295,1.59961 -0.61731,1.91425 0.0336,0.24978 -0.0553,1.14806 -0.46839,1.71729 -0.15613,-0.007 -0.31466,-0.0216 -0.4708,-0.0528 -1.64296,-0.31944 -2.71905,-1.91424 -2.40199,-3.56189 z"
           style="font-size:12px;fill:none;stroke:#000000;stroke-width:0.40352" />
        <path
           id="path727"
           d="m 339.05569,230.38162 c 0.17295,-0.89827 1.04487,-1.48671 1.94562,-1.31138 0.40834,0.0793 0.74703,0.30743 0.98722,0.61487 -0.0961,0.1489 -0.20417,0.29301 -0.32907,0.41551 -0.6029,0.59324 -0.66295,1.59961 -0.61731,1.91425 0.007,0.0649 0.007,0.17532 -0.005,0.30502 -0.21379,0.0456 -0.44197,0.0528 -0.67017,0.007 -0.90074,-0.17533 -1.48683,-1.04479 -1.31149,-1.94548"
           style="font-size:12px;fill:#ffffff" />
        <path
           id="path728"
           d="m 339.05569,230.38162 c 0.17295,-0.89827 1.04487,-1.48671 1.94562,-1.31138 0.40834,0.0793 0.74703,0.30743 0.98722,0.61487 -0.0961,0.1489 -0.20417,0.29301 -0.32907,0.41551 -0.6029,0.59324 -0.66295,1.59961 -0.61731,1.91425 0.007,0.0649 0.007,0.17532 -0.005,0.30502 -0.21379,0.0456 -0.44197,0.0528 -0.67017,0.007 -0.90074,-0.17533 -1.48683,-1.04479 -1.31149,-1.94548 z"
           style="font-size:12px;fill:none;stroke:#000000;stroke-width:0.2522" />
        <path
           id="path729"
           d="m 252.15139,233.26861 c 0,0 0.87912,-1.94787 2.51248,-1.13126 1.63576,0.81662 1.446,1.06881 2.95687,1.06881 0,0 0.68937,-1.76053 0,-2.57715 0,0 2.45003,-0.75416 3.07936,-2.82933 0,0 -1.19379,-1.57078 -4.27556,-1.1937 0,0 0.18975,-1.51075 -0.18736,-2.20006 0,0 -3.33157,0.81661 -3.45888,2.63959 0,0 1.1962,-3.52106 -0.37711,-6.2231 0,0 -1.57091,0.56443 -1.57091,2.20007 0,0 -0.50201,-3.39617 -5.09224,-2.7669 0,0 2.32514,2.32736 2.38999,3.33132 0.0625,1.00636 2.01048,2.82934 2.01048,3.39616 0,0.56443 0.18976,1.57078 0.75422,2.20006 0.56688,0.62928 0.56688,1.63324 0.50202,1.94788 -0.0624,0.31223 0,1.69568 0.75664,2.13761"
           style="font-size:12px;fill:#ffcc00;fill-opacity:1" />
        <path
           id="path730"
           d="m 252.15139,233.26861 c 0,0 0.87912,-1.94787 2.51248,-1.13126 1.63576,0.81662 1.446,1.06881 2.95687,1.06881 0,0 0.68937,-1.76053 0,-2.57715 0,0 2.45003,-0.75416 3.07936,-2.82933 0,0 -1.19379,-1.57078 -4.27556,-1.1937 0,0 0.18975,-1.51075 -0.18736,-2.20006 0,0 -3.33157,0.81661 -3.45888,2.63959 0,0 1.1962,-3.52106 -0.37711,-6.2231 0,0 -1.57091,0.56443 -1.57091,2.20007 0,0 -0.50201,-3.39617 -5.09224,-2.7669 0,0 2.32514,2.32736 2.38999,3.33132 0.0625,1.00636 2.01048,2.82934 2.01048,3.39616 0,0.56443 0.18976,1.57078 0.75422,2.20006 0.56688,0.62928 0.56688,1.63324 0.50202,1.94788 -0.0624,0.31223 0,1.69568 0.75664,2.13761 z"
           style="font-size:12px;fill:#bcac0b;fill-opacity:1;stroke:#000000;stroke-width:0.653319" />
        <path
           id="path731"
           d="m 254.84162,229.43772 c -0.22098,-1.66447 -1.74625,-2.83174 -3.41083,-2.61077 -0.4708,0.0624 -0.90076,0.23298 -1.27307,0.48035 0.0576,0.57404 0.26422,1.35223 0.73501,1.87582 0.56688,0.62928 0.56688,1.63324 0.50202,1.94788 -0.048,0.24498 -0.0144,1.14807 0.36751,1.73891 0.15373,0.002 0.31226,0 0.47079,-0.0216 1.66218,-0.22096 2.83195,-1.74851 2.60857,-3.41057"
           style="font-size:12px;fill:#ffffff" />
        <path
           id="path732"
           d="m 254.84162,229.43772 c -0.22098,-1.66447 -1.74625,-2.83174 -3.41083,-2.61077 -0.4708,0.0624 -0.90076,0.23298 -1.27307,0.48035 0.0576,0.57404 0.26422,1.35223 0.73501,1.87582 0.56688,0.62928 0.56688,1.63324 0.50202,1.94788 -0.048,0.24498 -0.0144,1.14807 0.36751,1.73891 0.15373,0.002 0.31226,0 0.47079,-0.0216 1.66218,-0.22096 2.83195,-1.74851 2.60857,-3.41057 z"
           style="font-size:12px;fill:none;stroke:#000000;stroke-width:0.40352" />
        <path
           id="path733"
           d="m 253.47729,229.61785 c -0.12011,-0.90788 -0.956,-1.54677 -1.86396,-1.42667 -0.41554,0.0576 -0.76623,0.2642 -1.02324,0.55481 0.0889,0.15612 0.18495,0.30503 0.30264,0.43713 0.56688,0.62928 0.56688,1.63324 0.50202,1.94788 -0.012,0.0624 -0.0168,0.17053 -0.0144,0.30263 0.21138,0.06 0.43957,0.0793 0.67016,0.0504 0.90795,-0.12249 1.54689,-0.95592 1.42679,-1.86621"
           style="font-size:12px;fill:#ffffff" />
        <path
           id="path734"
           d="m 253.47729,229.61785 c -0.12011,-0.90788 -0.956,-1.54677 -1.86396,-1.42667 -0.41554,0.0576 -0.76623,0.2642 -1.02324,0.55481 0.0889,0.15612 0.18495,0.30503 0.30264,0.43713 0.56688,0.62928 0.56688,1.63324 0.50202,1.94788 -0.012,0.0624 -0.0168,0.17053 -0.0144,0.30263 0.21138,0.06 0.43957,0.0793 0.67016,0.0504 0.90795,-0.12249 1.54689,-0.95592 1.42679,-1.86621 z"
           style="font-size:12px;fill:none;stroke:#000000;stroke-width:0.2522" />
        <path
           id="path735"
           d="m 257.24122,251.62327 c 0,0 33.74808,-13.21958 76.38356,0.28342"
           style="font-size:12px;fill:none;stroke:#000000;stroke-width:1.5084" />
        <path
           id="path736"
           d="m 338.38314,241.09612 c -47.1104,-14.92007 -84.66085,-0.83823 -84.66085,-0.83823"
           style="font-size:12px;fill:none;stroke:#000000;stroke-width:0.501998" />
        <path
           id="path737"
           d="m 295.96865,237.79603 -3.77354,1.88542 3.39642,2.13762 4.02335,-2.01272 -3.64623,-2.01032"
           style="font-size:12px;fill:#ff0000" />
        <path
           id="path738"
           d="m 295.96865,237.79603 -3.77354,1.88542 3.39642,2.13762 4.02335,-2.01272 -3.64623,-2.01032"
           style="font-size:12px;fill:none;stroke:#000000;stroke-width:0.501998" />
      </g>
    </g>
  </g>
  <metadata
     id="metadata854">
    <rdf:RDF>
      <cc:Work
         rdf:about="">
        <cc:license
           rdf:resource="http://creativecommons.org/publicdomain/zero/1.0/" />
        <dc:format>image/svg+xml</dc:format>
        <dc:type
           rdf:resource="http://purl.org/dc/dcmitype/StillImage" />
      </cc:Work>
      <cc:License
         rdf:about="http://creativecommons.org/publicdomain/zero/1.0/">
        <cc:permits
           rdf:resource="http://creativecommons.org/ns#Reproduction" />
        <cc:permits
           rdf:resource="http://creativecommons.org/ns#Distribution" />
        <cc:permits
           rdf:resource="http://creativecommons.org/ns#DerivativeWorks" />
      </cc:License>
    </rdf:RDF>
  </metadata>
</svg>
