<?xml version="1.0" encoding="UTF-8" standalone="no"?>
<svg
   width="18"
   height="12"
   viewBox="0 0 18 12"
   version="1.1"
   id="svg38508"
   inkscape:version="1.1.2 (0a00cf5339, 2022-02-04)"
   sodipodi:docname="sk.svg"
   inkscape:export-filename="/home/dmitry/git/OpenBoard/resources/images/stylusPalette/arrow_svg.png"
   inkscape:export-xdpi="96"
   inkscape:export-ydpi="96"
   xmlns:inkscape="http://www.inkscape.org/namespaces/inkscape"
   xmlns:sodipodi="http://sodipodi.sourceforge.net/DTD/sodipodi-0.dtd"
   xmlns="http://www.w3.org/2000/svg"
   xmlns:svg="http://www.w3.org/2000/svg"
   xmlns:rdf="http://www.w3.org/1999/02/22-rdf-syntax-ns#"
   xmlns:cc="http://creativecommons.org/ns#"
   xmlns:dc="http://purl.org/dc/elements/1.1/">
  <sodipodi:namedview
     id="namedview38510"
     pagecolor="#ffffff"
     bordercolor="#858585"
     borderopacity="1"
     inkscape:pageshadow="0"
     inkscape:pageopacity="0"
     inkscape:pagecheckerboard="false"
     inkscape:document-units="px"
     showgrid="true"
     fit-margin-top="0"
     fit-margin-left="0"
     fit-margin-right="0"
     fit-margin-bottom="0"
     units="px"
     inkscape:zoom="45.254834"
     inkscape:cx="8.3637474"
     inkscape:cy="5.7562911"
     inkscape:window-width="1920"
     inkscape:window-height="1003"
     inkscape:window-x="0"
     inkscape:window-y="0"
     inkscape:window-maximized="1"
     inkscape:current-layer="g965"
     inkscape:document-rotation="0"
     inkscape:snap-others="true"
     inkscape:snap-global="false"
     showguides="true"
     inkscape:guide-bbox="true"
     width="18px"
     borderlayer="false"
     inkscape:snap-bbox="true"
     inkscape:snap-bbox-edge-midpoints="true">
    <inkscape:grid
       type="xygrid"
       id="grid7387"
       dotted="false" />
  </sodipodi:namedview>
  <defs
     id="defs38505" />
  <g
     inkscape:label="icon"
     id="layer1"
     transform="translate(-152.84748,-194.2822)"
     inkscape:groupmode="layer">
    <g
       id="g965"
       inkscape:label="flag"
       style="display:inline;stroke:none">
      <rect
         style="display:inline;fill:#ff0000;fill-opacity:1;stroke-width:4;stroke-linecap:round;stroke-linejoin:round;stroke-dashoffset:0.2826;paint-order:markers stroke fill"
         id="rect967"
         width="18"
         height="12"
         x="152.84747"
         y="194.2822"
         ry="1.0000039"
         inkscape:label="yellow" />
      <path
         id="rect1039"
         style="fill:#ffffff;fill-opacity:1;stroke-width:4;stroke-linecap:round;stroke-linejoin:round;stroke-dashoffset:0.2826;paint-order:markers stroke fill"
         inkscape:label="blue"
         d="m 153.84748,194.2822 h 15.99999 c 0.60295,0 1,0.4101 1,1 l 1e-5,5 h -18 l -1e-5,-5 c 0,-0.60434 0.40371,-1 1.00001,-1 z"
         sodipodi:nodetypes="sssccss" />
      <rect
         style="display:inline;fill:#0000ff;fill-opacity:1;stroke-width:0.8;stroke-miterlimit:4;stroke-dasharray:none"
         id="rect4711"
         width="18"
         height="3.952352"
         x="152.84747"
         y="198.28876"
         inkscape:label="white" />
      <path
         id="Shield_1_"
         class="st0"
         d="m 153.9558,199.97573 c 0.009,-1.85837 0.0889,-2.70353 0.0889,-2.70353 h 2.30093 2.30097 c 0,0 0.0805,0.84517 0.0889,2.70353 0.009,1.93415 -1.57952,2.89464 -2.38896,3.27927 -0.93714,-0.4802 -2.39962,-1.3843 -2.39074,-3.27927 z"
         style="display:inline;fill:#ee1c25;stroke:#ffffff;stroke-width:0.3;stroke-miterlimit:4;stroke-dasharray:none;stroke-opacity:1;paint-order:stroke markers fill"
         sodipodi:nodetypes="scccscs"
         inkscape:label="Shield" />
      <path
         id="Cross"
         class="st1"
         d="m 156.5558,200.95014 v -1.02643 c 0.29982,-0.004 0.82341,-8.7e-4 1.24741,0.14104 0,0 -0.0122,-0.16541 -0.0122,-0.35813 0,-0.19269 0.0122,-0.35809 0.0122,-0.35809 -0.46224,0.15467 -0.98135,0.14425 -1.24741,0.13996 v -0.64463 c 0.2425,-0.002 0.59196,0.009 0.98707,0.14166 0,0 -0.0121,-0.16542 -0.0121,-0.35813 0,-0.19269 0.0121,-0.3581 0.0121,-0.3581 -0.39454,0.13202 -0.74355,0.14377 -0.986,0.14167 0.0125,-0.40818 0.13138,-0.92268 0.13138,-0.92268 0,0 -0.24475,0.0191 -0.34258,0.0191 -0.0979,0 -0.34258,-0.0191 -0.34258,-0.0191 0,0 0.11893,0.5145 0.13137,0.92268 -0.24243,0.002 -0.59146,-0.01 -0.986,-0.14167 0,0 0.0123,0.16541 0.0123,0.3581 0,0.19272 -0.0123,0.35814 -0.0123,0.35814 0.39512,-0.13222 0.74458,-0.14381 0.98708,-0.14166 v 0.64462 c -0.26607,0.004 -0.78517,0.0148 -1.24741,-0.13996 0,0 0.0123,0.1654 0.0123,0.35809 0,0.19273 -0.0123,0.35813 -0.0123,0.35813 0.424,-0.14188 0.94759,-0.14484 1.24741,-0.14103 v 1.02642 z"
         style="fill:#ffffff;stroke-width:0.00995778" />
      <path
         id="Peaks"
         class="st2"
         d="m 158.20718,201.74153 c -0.12418,-0.21861 -0.32819,-0.48952 -0.59367,-0.48952 -0.39182,0 -0.53484,0.31591 -0.53484,0.31591 0,0 -0.25727,-0.66592 -0.73751,-0.66592 -0.48026,0 -0.73752,0.66594 -0.73752,0.66594 0,0 -0.14301,-0.31593 -0.53485,-0.31593 -0.26547,0 -0.46223,0.27422 -0.58641,0.49284 0.48269,0.76679 1.26811,1.21991 1.87313,1.5111 0.60506,-0.29119 1.36897,-0.74762 1.85167,-1.51442 z"
         style="display:inline;fill:#0b4ea2;stroke-width:0.00966318"
         sodipodi:nodetypes="cscscsccc" />
    </g>
  </g>
  <metadata
     id="metadata854">
    <rdf:RDF>
      <cc:Work
         rdf:about="">
        <cc:license
           rdf:resource="http://creativecommons.org/publicdomain/zero/1.0/" />
        <dc:format>image/svg+xml</dc:format>
        <dc:type
           rdf:resource="http://purl.org/dc/dcmitype/StillImage" />
      </cc:Work>
      <cc:License
         rdf:about="http://creativecommons.org/publicdomain/zero/1.0/">
        <cc:permits
           rdf:resource="http://creativecommons.org/ns#Reproduction" />
        <cc:permits
           rdf:resource="http://creativecommons.org/ns#Distribution" />
        <cc:permits
           rdf:resource="http://creativecommons.org/ns#DerivativeWorks" />
      </cc:License>
    </rdf:RDF>
  </metadata>
</svg>
