<?xml version="1.0" encoding="UTF-8" standalone="no"?>
<svg
   width="18"
   height="12"
   viewBox="0 0 18 12"
   version="1.1"
   id="svg38508"
   inkscape:version="1.1.2 (0a00cf5339, 2022-02-04)"
   sodipodi:docname="sq.svg"
   inkscape:export-filename="/home/dmitry/git/OpenBoard/resources/images/stylusPalette/arrow_svg.png"
   inkscape:export-xdpi="96"
   inkscape:export-ydpi="96"
   xmlns:inkscape="http://www.inkscape.org/namespaces/inkscape"
   xmlns:sodipodi="http://sodipodi.sourceforge.net/DTD/sodipodi-0.dtd"
   xmlns="http://www.w3.org/2000/svg"
   xmlns:svg="http://www.w3.org/2000/svg"
   xmlns:rdf="http://www.w3.org/1999/02/22-rdf-syntax-ns#"
   xmlns:cc="http://creativecommons.org/ns#"
   xmlns:dc="http://purl.org/dc/elements/1.1/">
  <sodipodi:namedview
     id="namedview38510"
     pagecolor="#ffffff"
     bordercolor="#858585"
     borderopacity="1"
     inkscape:pageshadow="0"
     inkscape:pageopacity="0"
     inkscape:pagecheckerboard="false"
     inkscape:document-units="px"
     showgrid="true"
     fit-margin-top="0"
     fit-margin-left="0"
     fit-margin-right="0"
     fit-margin-bottom="0"
     units="px"
     inkscape:zoom="45.254834"
     inkscape:cx="5.4469319"
     inkscape:cy="4.2094951"
     inkscape:window-width="1920"
     inkscape:window-height="1003"
     inkscape:window-x="0"
     inkscape:window-y="0"
     inkscape:window-maximized="1"
     inkscape:current-layer="g965"
     inkscape:document-rotation="0"
     inkscape:snap-others="true"
     inkscape:snap-global="true"
     showguides="true"
     inkscape:guide-bbox="true"
     width="18px"
     borderlayer="false"
     inkscape:snap-bbox="true"
     inkscape:snap-bbox-edge-midpoints="true">
    <inkscape:grid
       type="xygrid"
       id="grid7387"
       dotted="false" />
  </sodipodi:namedview>
  <defs
     id="defs38505" />
  <g
     inkscape:label="icon"
     inkscape:groupmode="layer"
     id="layer1"
     transform="translate(-152.84748,-194.2822)">
    <g
       id="g965"
       inkscape:label="flag"
       style="display:inline;stroke:none">
      <rect
         style="fill:#ff0000;fill-opacity:1;stroke-width:4;stroke-linecap:round;stroke-linejoin:round;stroke-dashoffset:0.2826;paint-order:markers stroke fill"
         id="rect967"
         width="18"
         height="12"
         x="152.84747"
         y="194.2822"
         ry="1.0000039"
         inkscape:label="background"
         sodipodi:insensitive="true" />
      <path
         d="m 162.29439,203.09561 c -0.10662,-0.0854 -0.23588,-0.25838 -0.23406,-0.4251 0.01,-0.12432 0.10182,-0.19655 0.16145,-0.0448 0.0843,0.16749 0.26509,0.44449 0.51422,0.282 0.10886,-0.0738 0.10715,-0.18249 -0.0421,-0.17003 -0.1843,-0.0116 -0.29751,-0.10534 -0.37998,-0.34657 -0.015,-0.13267 0.0448,-0.12935 0.12806,-0.044 0.10715,0.11357 0.32037,0.28523 0.5556,0.19323 0.13073,-0.0506 0.16762,-0.15506 -0.0298,-0.18077 -0.18697,0.003 -0.3396,-0.10948 -0.49152,-0.28029 -0.0833,-0.0945 0.0396,-0.18991 0.11333,-0.10947 0.0658,0.0522 0.15795,0.14843 0.23692,0.16169 0.0913,0.0165 0.20451,0.008 0.32993,-0.053 0.13519,-0.10455 0.0913,-0.17999 -0.0728,-0.19735 -0.12723,0.006 -0.19652,0.0505 -0.36063,-0.0506 -0.29498,-0.18422 -0.52948,-0.43034 -0.56612,-0.72639 -0.0241,-0.19472 0.0892,-0.25369 0.18347,-0.23128 0.25624,0.0609 0.42388,0.50333 0.60117,0.74638 0.058,0.07 0.11138,0.0712 0.14911,0.0497 0.0711,-0.0564 0.12792,-0.10264 0.19904,-0.16563 0,0 0.52159,0.0866 0.80562,0.17214 l -0.31626,0.10385 c -0.11975,-0.0611 -0.26427,0.005 -0.26427,0.11076 -0.11332,0.0724 -0.10417,0.15729 -0.0553,0.23921 0.0149,-0.057 0.0276,-0.13113 0.11715,-0.14098 0.12776,0.0489 0.27662,-0.0209 0.27662,-0.11304 l 0.37309,-0.13549 0.37691,0.19716 c 0,0.13327 0.13668,0.1755 0.27888,0.13952 0.067,0.0384 0.11008,0.10514 0.13278,0.17647 0.0419,-0.10286 0.0332,-0.1755 -0.0325,-0.22597 0.0378,-0.133 -0.16401,-0.26089 -0.32017,-0.17572 l -0.27115,-0.14384 0.46411,-0.012 c 0.0539,0.0881 0.24857,0.093 0.30538,0 0.0485,-0.0123 0.0896,-0.0201 0.1842,0.0449 -0.0298,-0.10518 -0.0879,-0.15014 -0.17493,-0.15014 -0.0661,-0.1083 -0.30558,-0.10781 -0.34016,0.0141 l -0.48338,0.0124 0.2868,-0.18867 c 0.10707,0.0584 0.25729,-0.007 0.28738,-0.11261 0.0427,-0.0469 0.0953,-0.069 0.19892,-0.0371 -0.0534,-0.0874 -0.12865,-0.11346 -0.26454,-0.0542 -0.12396,-0.0868 -0.28734,0.0184 -0.26255,0.10585 l -0.38159,0.23989 c -0.27699,-0.0763 -0.77863,-0.19527 -0.77863,-0.19527 0.0597,-0.058 0.12032,-0.11199 0.17994,-0.17084 0.0215,-0.0345 -0.0114,-0.0746 -0.057,-0.0829 -0.44759,-0.0853 -0.70385,-0.25205 -0.85913,-0.67576 -0.0649,-0.17745 0.0755,-0.23047 0.12373,-0.12194 0.0667,0.15097 0.1404,0.31595 0.34137,0.44373 0.0693,0.0448 0.27565,0.008 0.15361,-0.0987 -0.12639,-0.0962 -0.18079,-0.13757 -0.24307,-0.37147 0,-0.1185 0.13073,-0.17164 0.20365,-0.058 0.078,0.233 0.0861,0.33332 0.22723,0.48344 0.10703,0.11362 0.2466,0.18993 0.31589,0.18823 0.1247,-9.9e-4 0.25022,-0.12608 0.0835,-0.21643 -0.2449,-0.0903 -0.3344,-0.21391 -0.37044,-0.33172 -0.0393,-0.20556 0.003,-0.30508 0.13786,-0.20395 0.19038,0.19984 0.55377,0.57213 0.74413,0.74547 0.21334,0.15096 0.45811,0.15585 0.65293,0.003 0.11152,-0.1186 0.072,-0.24623 -0.10268,-0.21893 -0.39401,0.0307 -0.69237,-0.15004 -1.01973,-0.63852 -0.0641,-0.11028 -0.0817,-0.26865 0.0597,-0.15083 0.16313,0.20396 0.40101,0.37729 0.62224,0.4519 0.22201,0.0737 0.40534,0.033 0.47645,-0.0315 0.0857,-0.0792 0.0632,-0.2786 -0.0851,-0.2305 -0.12202,0.0398 -0.29399,0.0497 -0.47297,-0.0141 -0.17911,-0.0647 -0.36513,-0.20397 -0.56261,-0.44028 -0.0676,-0.13346 -0.0456,-0.24624 0.0913,-0.17748 0.32387,0.25381 0.74161,0.45937 0.9548,0.33586 0.15712,-0.0904 0.15978,-0.32258 -0.0393,-0.30762 -0.40113,0.0505 -0.55291,-0.0315 -0.93822,-0.34576 -0.0876,-0.0606 -0.0816,-0.21403 0.0579,-0.1161 0.32387,0.19323 0.76614,0.26862 0.93993,0.16752 0.15626,-0.0904 0.1334,-0.36659 -0.12987,-0.26876 -0.21067,0.1186 -0.44323,0.11529 -0.90921,-0.19232 -0.11755,-0.0903 -0.0299,-0.20819 0.0666,-0.15758 0.37478,0.19736 0.92069,0.2819 1.06278,-0.11939 0.0553,-0.15337 -0.0448,-0.24294 -0.19131,-0.13681 -0.32206,0.27528 -0.68718,0.14011 -0.89155,9.9e-4 -0.0585,-0.0318 -0.16592,-0.19321 0.0227,-0.16327 0.48801,0.10283 0.97067,0.0133 1.05846,-0.30601 0.051,-0.10363 -0.0493,-0.28692 -0.22734,-0.13346 -0.23427,0.21391 -0.48268,0.22132 -0.79505,0.21973 -0.15892,-0.0307 -0.1606,-0.19242 -0.0272,-0.21641 0.2466,0.005 0.48968,-0.0947 0.68453,-0.19575 0.19045,-0.10112 0.3484,-0.24294 0.39847,-0.43947 0.0307,-0.17575 -0.15273,-0.36234 -0.26329,-0.17575 -0.16326,0.27277 -0.52485,0.52985 -0.92685,0.57626 -0.0209,-0.0324 -0.0737,-0.1153 -0.1386,-0.092 -0.11803,0.0423 -0.25867,0.0989 -0.40348,0.1624 -0.31214,0.13695 -0.44222,0.20295 -0.40474,0.43956 0.0391,0.24689 -0.16688,0.40291 -0.33704,0.35982 -0.14841,-0.0369 -0.23027,-0.16076 -0.20367,-0.37558 0.0213,-0.17118 0.20729,-0.37823 0.41689,-0.48681 0.13568,-0.0701 0.34054,-0.10854 0.58713,-0.15916 0.15008,-0.0273 0.22652,-0.0813 0.23524,-0.13769 0,0 -0.10257,0.0694 -0.26679,0.0589 -0.0776,-0.005 -0.12965,-0.0366 -0.14924,-0.0689 0.057,-0.0107 0.16061,0.002 0.25361,0.002 0.1237,-6.4e-4 0.41093,-0.0265 0.48712,-0.18741 0.0237,-0.10614 -0.0518,-0.12522 -0.12201,-0.0572 -0.0755,0.0735 -0.10652,0.13952 -0.25798,0.1642 -0.0921,0.015 -0.18429,0.0324 -0.30281,0.006 0.0667,-0.0733 0.17282,-0.14821 0.26328,-0.1344 0.0297,0.005 0.0693,0.03 0.10097,0.0756 0.0193,-0.1161 -0.0149,-0.24717 -0.35107,-0.19243 0.005,-0.0879 -0.19486,-0.12604 -0.31503,-0.12433 -0.0685,9.8e-4 -0.20802,0.039 -0.30889,0.0836 -0.15975,0.0457 -0.31769,0.0788 -0.50383,0.0913 0.10802,0.0853 0.12822,0.0903 0.23608,0.16248 -0.16316,0.0564 -0.28954,0.17244 -0.3466,0.24876 0,0 0.19047,-0.005 0.23874,0.015 -0.19931,0.0538 -0.28883,0.0862 -0.39413,0.18568 0.0369,0.006 0.0921,0.0158 0.11584,0.0241 0.0247,0.008 0.0182,0.0232 -0.001,0.0372 -0.0429,0.0303 -0.22033,0.22064 -0.2721,0.26623 -0.0518,-0.0456 -0.22916,-0.23595 -0.27209,-0.26623 -0.0199,-0.0141 -0.0264,-0.029 -0.001,-0.0372 0.0237,-0.008 0.079,-0.0182 0.11585,-0.0241 -0.10534,-0.0995 -0.19482,-0.13186 -0.39413,-0.18568 0.0483,-0.0199 0.23874,-0.015 0.23874,-0.015 -0.0571,-0.0763 -0.18348,-0.19243 -0.34661,-0.24876 0.10787,-0.0721 0.12806,-0.0771 0.23606,-0.1625 -0.18612,-0.0124 -0.34407,-0.0456 -0.50383,-0.0913 -0.10086,-0.0446 -0.24041,-0.0821 -0.30886,-0.0836 -0.12021,-0.002 -0.32037,0.0365 -0.31503,0.12431 -0.33608,-0.0548 -0.37042,0.0763 -0.35108,0.19245 0.0317,-0.0456 0.0712,-0.0709 0.10097,-0.0756 0.0905,-0.0138 0.19652,0.0611 0.26329,0.13439 -0.11852,0.0265 -0.21069,0.009 -0.30283,-0.006 -0.15141,-0.0246 -0.18249,-0.0907 -0.25798,-0.1642 -0.0703,-0.068 -0.14571,-0.049 -0.12201,0.0572 0.0762,0.1609 0.36339,0.18649 0.48714,0.1874 0.093,0 0.19652,-0.0125 0.25361,-0.002 -0.0196,0.0322 -0.0717,0.0637 -0.14925,0.0689 -0.16421,0.0104 -0.26678,-0.0589 -0.26678,-0.0589 0.009,0.0565 0.0851,0.11038 0.23523,0.1377 0.24659,0.0506 0.45145,0.0891 0.58713,0.15918 0.2096,0.10856 0.39559,0.31561 0.41689,0.48678 0.0265,0.21481 -0.0553,0.33868 -0.20367,0.37559 -0.17015,0.0431 -0.37617,-0.11293 -0.33705,-0.35982 0.0375,-0.23661 -0.0925,-0.30261 -0.40473,-0.43955 -0.14481,-0.0635 -0.28544,-0.12014 -0.40348,-0.16243 -0.0649,-0.0232 -0.11767,0.0597 -0.1386,0.092 -0.402,-0.0464 -0.7636,-0.3035 -0.92686,-0.57627 -0.11054,-0.18658 -0.29398,0 -0.26328,0.17576 0.0501,0.19654 0.20801,0.33835 0.39848,0.43947 0.19484,0.10112 0.43793,0.20065 0.68453,0.19574 0.13337,0.0239 0.13168,0.18569 -0.0272,0.21642 -0.3124,9.8e-4 -0.56078,-0.006 -0.79505,-0.21973 -0.17812,-0.15346 -0.27826,0.0299 -0.22734,0.13346 0.0877,0.31926 0.57045,0.40884 1.05842,0.30601 0.18864,-0.0299 0.0812,0.13141 0.0227,0.16329 -0.20437,0.13848 -0.56947,0.27365 -0.89154,-9.9e-4 -0.14657,-0.10615 -0.2466,-0.0166 -0.19131,0.13679 0.1421,0.4013 0.688,0.31675 1.06279,0.1194 0.0965,-0.0506 0.18419,0.0672 0.0666,0.15757 -0.46598,0.30761 -0.69854,0.31093 -0.90921,0.19232 -0.26327,-0.0978 -0.28614,0.17838 -0.12988,0.26876 0.17378,0.10113 0.61606,0.0257 0.93992,-0.16752 0.13957,-0.0979 0.14559,0.0556 0.0579,0.11611 -0.38529,0.31423 -0.53707,0.39626 -0.9382,0.34576 -0.19921,-0.015 -0.19654,0.21721 -0.0394,0.30761 0.21319,0.1235 0.63091,-0.0821 0.95477,-0.33584 0.13691,-0.0688 0.15891,0.044 0.0913,0.17746 -0.19746,0.23631 -0.3835,0.3756 -0.56259,0.44028 -0.17898,0.0638 -0.35095,0.054 -0.47298,0.0142 -0.14828,-0.0481 -0.17082,0.15133 -0.0851,0.23049 0.0711,0.0645 0.25444,0.10524 0.47648,0.0315 0.22119,-0.0746 0.45908,-0.24797 0.62223,-0.45191 0.14137,-0.11782 0.12382,0.0406 0.0597,0.15083 -0.32736,0.48848 -0.6257,0.66925 -1.01973,0.63852 -0.17462,-0.0273 -0.21417,0.10033 -0.10268,0.21893 0.19485,0.15335 0.43962,0.14845 0.65294,-0.003 0.19036,-0.17334 0.55376,-0.54563 0.74412,-0.74548 0.13424,-0.10112 0.17731,-9.9e-4 0.13789,0.20396 -0.0361,0.11781 -0.12553,0.24134 -0.37043,0.33171 -0.16679,0.0904 -0.0413,0.21481 0.0835,0.21642 0.0693,0.002 0.20887,-0.0746 0.31588,-0.18819 0.14126,-0.15014 0.14925,-0.25046 0.22725,-0.48346 0.0729,-0.11358 0.20364,-0.0605 0.20364,0.058 -0.0623,0.23392 -0.11669,0.27528 -0.24306,0.37148 -0.12206,0.10696 0.0843,0.14352 0.15359,0.0987 0.20099,-0.12777 0.27462,-0.29276 0.34138,-0.44372 0.0483,-0.10854 0.18868,-0.0556 0.12372,0.12193 -0.15526,0.4237 -0.41152,0.59042 -0.85911,0.67579 -0.0457,0.008 -0.0786,0.0485 -0.0572,0.0829 0.0597,0.0588 0.12023,0.11278 0.17995,0.17084 0,0 -0.50165,0.11891 -0.77864,0.19527 l -0.3816,-0.23989 c 0.0247,-0.0874 -0.13857,-0.19263 -0.26255,-0.10588 -0.13591,-0.0593 -0.21114,-0.0332 -0.26453,0.0542 0.10363,-0.0318 0.15624,-0.01 0.19892,0.037 0.0302,0.10611 0.18031,0.17103 0.28737,0.11261 l 0.28682,0.1887 -0.48337,-0.0124 c -0.0346,-0.12192 -0.27401,-0.12243 -0.3402,-0.0141 -0.087,0 -0.14511,0.045 -0.17493,0.15014 0.0947,-0.065 0.1357,-0.0572 0.18422,-0.0449 0.0568,0.093 0.2515,0.0881 0.30536,0 l 0.46413,0.012 -0.27116,0.14384 c -0.15615,-0.0852 -0.35788,0.0428 -0.32016,0.17573 -0.0657,0.0504 -0.0745,0.1231 -0.0325,0.22597 0.0226,-0.0713 0.0658,-0.13803 0.13282,-0.17649 0.14216,0.0361 0.27884,-0.007 0.27884,-0.13952 l 0.37692,-0.19714 0.37311,0.13549 c 0,0.0922 0.14884,0.16186 0.2766,0.11303 0.0896,0.01 0.10225,0.0839 0.11714,0.14097 0.0489,-0.0819 0.058,-0.16679 -0.0553,-0.23919 0,-0.106 -0.14451,-0.17188 -0.26427,-0.11077 l -0.31627,-0.10385 c 0.28404,-0.0855 0.80566,-0.17212 0.80566,-0.17212 0.0711,0.063 0.1279,0.10928 0.19903,0.16564 0.0377,0.0216 0.091,0.0204 0.14911,-0.0497 0.17729,-0.24306 0.3449,-0.68549 0.60116,-0.74639 0.0943,-0.0225 0.20753,0.0366 0.18347,0.23128 -0.0367,0.29605 -0.27116,0.54219 -0.5661,0.72639 -0.16411,0.10113 -0.23342,0.0564 -0.36064,0.0506 -0.16411,0.0173 -0.20802,0.0928 -0.0728,0.19735 0.12542,0.0614 0.23861,0.0696 0.32993,0.0531 0.079,-0.0133 0.17112,-0.10948 0.23691,-0.1617 0.0738,-0.0805 0.19665,0.015 0.11332,0.10947 -0.15191,0.17082 -0.30453,0.28281 -0.49151,0.2803 -0.19748,0.0257 -0.16059,0.13014 -0.0299,0.18076 0.23523,0.092 0.44843,-0.0796 0.5556,-0.19322 0.0834,-0.0853 0.14306,-0.0887 0.12806,0.044 -0.0825,0.24122 -0.19568,0.33492 -0.37998,0.34657 -0.14924,-0.0125 -0.15094,0.0962 -0.0421,0.17003 0.24913,0.16249 0.42993,-0.11451 0.51422,-0.28201 0.0596,-0.15174 0.15188,-0.0795 0.16145,0.0448 0.002,0.16672 -0.12742,0.33968 -0.23406,0.42509 -0.10662,0.0854 0.45959,0.62851 0.45959,0.62851 0,0 0.56618,-0.54309 0.4596,-0.62852 z m 0.75874,-6.15016 c -0.0882,0 -0.14256,0.0286 -0.14256,0.0631 0,0.0352 0.0545,0.0637 0.14256,0.0637 0.0876,0 0.14324,-0.0313 0.14324,-0.0664 0,-0.0346 -0.0557,-0.0605 -0.14324,-0.0605 z m -2.43667,0 c 0.0882,0 0.14256,0.0286 0.14256,0.0631 0,0.0352 -0.0545,0.0637 -0.14256,0.0637 -0.0877,0 -0.14325,-0.0313 -0.14325,-0.0664 0,-0.0346 0.0557,-0.0605 0.14325,-0.0605 z"
         fill-rule="evenodd"
         id="path4"
         style="stroke-width:0.016665"
         inkscape:label="bird" />
    </g>
  </g>
  <metadata
     id="metadata854">
    <rdf:RDF>
      <cc:Work
         rdf:about="">
        <cc:license
           rdf:resource="http://creativecommons.org/publicdomain/zero/1.0/" />
        <dc:format>image/svg+xml</dc:format>
        <dc:type
           rdf:resource="http://purl.org/dc/dcmitype/StillImage" />
      </cc:Work>
      <cc:License
         rdf:about="http://creativecommons.org/publicdomain/zero/1.0/">
        <cc:permits
           rdf:resource="http://creativecommons.org/ns#Reproduction" />
        <cc:permits
           rdf:resource="http://creativecommons.org/ns#Distribution" />
        <cc:permits
           rdf:resource="http://creativecommons.org/ns#DerivativeWorks" />
      </cc:License>
    </rdf:RDF>
  </metadata>
</svg>
