<?xml version="1.0" encoding="UTF-8" standalone="no"?>
<svg
   width="18"
   height="12"
   viewBox="0 0 18 12"
   version="1.1"
   id="svg38508"
   inkscape:version="1.1.2 (0a00cf5339, 2022-02-04)"
   sodipodi:docname="tl.svg"
   inkscape:export-filename="/home/dmitry/git/OpenBoard/resources/images/stylusPalette/arrow_svg.png"
   inkscape:export-xdpi="96"
   inkscape:export-ydpi="96"
   xmlns:inkscape="http://www.inkscape.org/namespaces/inkscape"
   xmlns:sodipodi="http://sodipodi.sourceforge.net/DTD/sodipodi-0.dtd"
   xmlns="http://www.w3.org/2000/svg"
   xmlns:svg="http://www.w3.org/2000/svg"
   xmlns:rdf="http://www.w3.org/1999/02/22-rdf-syntax-ns#"
   xmlns:cc="http://creativecommons.org/ns#"
   xmlns:dc="http://purl.org/dc/elements/1.1/">
  <sodipodi:namedview
     id="namedview38510"
     pagecolor="#ffffff"
     bordercolor="#858585"
     borderopacity="1"
     inkscape:pageshadow="0"
     inkscape:pageopacity="0"
     inkscape:pagecheckerboard="false"
     inkscape:document-units="px"
     showgrid="true"
     fit-margin-top="0"
     fit-margin-left="0"
     fit-margin-right="0"
     fit-margin-bottom="0"
     units="px"
     inkscape:zoom="256"
     inkscape:cx="0.60351562"
     inkscape:cy="11.087891"
     inkscape:window-width="1920"
     inkscape:window-height="1003"
     inkscape:window-x="0"
     inkscape:window-y="0"
     inkscape:window-maximized="1"
     inkscape:current-layer="g965"
     inkscape:document-rotation="0"
     inkscape:snap-others="true"
     inkscape:snap-global="false"
     showguides="true"
     inkscape:guide-bbox="true"
     width="18px"
     borderlayer="false"
     inkscape:snap-bbox="true"
     inkscape:snap-bbox-edge-midpoints="true">
    <inkscape:grid
       type="xygrid"
       id="grid7387"
       dotted="false" />
    <sodipodi:guide
       position="0.234375,8.46875"
       orientation="1,0"
       id="guide1937" />
  </sodipodi:namedview>
  <defs
     id="defs38505" />
  <g
     inkscape:label="icon"
     inkscape:groupmode="layer"
     id="layer1"
     transform="translate(-152.84748,-194.2822)">
    <g
       id="g965"
       inkscape:label="flag"
       style="display:inline;stroke:none">
      <rect
         style="display:inline;fill:#ce1126;fill-opacity:1;stroke-width:4;stroke-linecap:round;stroke-linejoin:round;stroke-dashoffset:0.2826;paint-order:markers stroke fill"
         id="rect967"
         width="18"
         height="12"
         x="152.84747"
         y="194.2822"
         ry="1.0000039"
         inkscape:label="red" />
      <path
         id="rect5821"
         style="display:inline;fill:#0038a8;fill-opacity:1;stroke-width:4;stroke-linecap:round;stroke-linejoin:round;stroke-dashoffset:0.2826;paint-order:markers stroke fill"
         inkscape:label="blue"
         d="m 153.84748,194.2822 h 15.99999 c 0.554,0 1,0.446 1,1 l 1e-5,5 c -0.99999,1e-5 -16.99999,1e-5 -18,0 l -1e-5,-5 c 0,-0.554 0.446,-1 1.00001,-1 z"
         sodipodi:nodetypes="sssccss" />
      <path
         id="rect827"
         style="fill:#ffffff;stroke-width:4;stroke-linecap:round;stroke-linejoin:round;stroke-dashoffset:0.2826;paint-order:markers stroke fill"
         inkscape:label="white"
         d="m 153.84748,194.2822 c 1,1 9,6 9,6 0,0 -8,5 -9,6 -0.58044,-0.001 -1.00001,-0.39707 -1.00001,-1.00001 v -9.99999 c 0,-0.57127 0.36039,-1.00031 1.00001,-1 z"
         sodipodi:nodetypes="cccssc" />
      <path
         sodipodi:type="star"
         style="display:inline;fill:#fcd116;fill-opacity:1;stroke:none;stroke-width:0.1;stroke-linecap:round;stroke-linejoin:round;stroke-dashoffset:0.2826;paint-order:markers stroke fill"
         id="path1116"
         inkscape:flatsided="false"
         sodipodi:sides="5"
         sodipodi:cx="2"
         sodipodi:cy="2"
         sodipodi:r1="1"
         sodipodi:r2="0.34825301"
         sodipodi:arg1="1.5707963"
         sodipodi:arg2="2.1991149"
         inkscape:rounded="0"
         inkscape:randomized="0"
         transform="matrix(0.90477835,0.51059304,0.54353294,-0.93967074,157.91477,201.19756)"
         inkscape:transform-center-y="-0.1984607"
         inkscape:transform-center-x="1.0206815"
         inkscape:label="star"
         d="M 2,3 1.795302,2.2817426 1.0489435,2.309017 1.6687917,1.8923839 1.4122147,1.190983 2,1.651747 2.5877852,1.190983 2.3312083,1.8923839 2.9510565,2.309017 2.204698,2.2817426 Z" />
      <path
         sodipodi:type="star"
         style="display:inline;fill:#fcd116;fill-opacity:1;stroke:none;stroke-width:0.1;stroke-linecap:round;stroke-linejoin:round;stroke-dashoffset:0.2826;paint-order:markers stroke fill"
         id="path1116-3"
         inkscape:flatsided="false"
         sodipodi:sides="5"
         sodipodi:cx="2"
         sodipodi:cy="2"
         sodipodi:r1="1"
         sodipodi:r2="0.34825301"
         sodipodi:arg1="1.5707963"
         sodipodi:arg2="2.1991149"
         inkscape:rounded="0"
         inkscape:randomized="0"
         transform="matrix(1.0872086,-0.08768736,-0.13665757,-1.0579684,152.24256,206.30885)"
         inkscape:transform-center-y="-0.075266084"
         inkscape:transform-center-x="0.042243803"
         inkscape:label="star"
         d="M 2,3 1.795302,2.2817426 1.0489435,2.309017 1.6687917,1.8923839 1.4122147,1.190983 2,1.651747 2.5877852,1.190983 2.3312083,1.8923839 2.9510565,2.309017 2.204698,2.2817426 Z" />
      <path
         sodipodi:type="star"
         style="display:inline;fill:#fcd116;fill-opacity:1;stroke:none;stroke-width:0.1;stroke-linecap:round;stroke-linejoin:round;stroke-dashoffset:0.2826;paint-order:markers stroke fill"
         id="path1116-3-6"
         inkscape:flatsided="false"
         sodipodi:sides="5"
         sodipodi:cx="2"
         sodipodi:cy="2"
         sodipodi:r1="1"
         sodipodi:r2="0.34825301"
         sodipodi:arg1="1.5707963"
         sodipodi:arg2="2.1991149"
         inkscape:rounded="0"
         inkscape:randomized="0"
         transform="matrix(1.0514628,-0.29006464,-0.33268089,-1.013556,152.77738,198.96644)"
         inkscape:transform-center-y="-0.011547647"
         inkscape:transform-center-x="0.10281658"
         inkscape:label="star"
         d="M 2,3 1.795302,2.2817426 1.0489435,2.309017 1.6687917,1.8923839 1.4122147,1.190983 2,1.651747 2.5877852,1.190983 2.3312083,1.8923839 2.9510565,2.309017 2.204698,2.2817426 Z" />
      <path
         id="path3979"
         style="opacity:1;fill:#fcd116;stroke-width:1.19185"
         d="m 3.765625,3.4726562 -0.1269531,0.099609 0.033203,1.2070313 a 1.2127497,1.2127497 0 0 0 -0.1054688,0.00781 L 3.5019531,3.7167969 3.3574219,3.8222656 3.4882812,4.8046875 A 1.2127497,1.2127497 0 0 0 3.0898438,4.9648438 L 2.5097656,4.1777344 2.3320312,4.203125 3.0253906,5.0117188 a 1.2127497,1.2127497 0 0 0 -0.083984,0.064453 L 2.134766,4.1953124 1.9746098,4.2109374 1.9609378,4.361328 2.8144534,5.205078 A 1.2127497,1.2127497 0 0 0 2.7539064,5.287109 L 1.9765625,4.578125 1.9472656,4.7539062 2.7089844,5.3554688 A 1.2127497,1.2127497 0 0 0 2.5527344,5.75 L 1.5722656,5.6191406 1.4667969,5.7636719 2.5390625,5.828125 A 1.2127497,1.2127497 0 0 0 2.53125,5.9335938 L 1.3222656,5.9003906 1.2226562,6.0273438 1.3222656,6.140625 2.5351562,6.1132812 a 1.2127497,1.2127497 0 0 0 0.015625,0.099609 l -1.0625,0.066406 L 1.59375,6.4238281 2.5683594,6.2929688 A 1.2127497,1.2127497 0 0 0 2.71875,6.6425781 L 1.9433594,7.2539062 1.9746094,7.4296875 2.765625,6.7050781 a 1.2127497,1.2127497 0 0 0 0.0625,0.082031 L 1.9570312,7.6464844 1.9707031,7.796875 2.1308594,7.8125 2.9550781,6.9121094 a 1.2127497,1.2127497 0 0 0 0.085937,0.064453 L 2.3300781,7.8046875 2.5058594,7.828125 3.1054688,7.0195312 A 1.2127497,1.2127497 0 0 0 3.4863281,7.171875 L 3.3535156,8.1640625 3.4980469,8.2695312 3.5625,7.1875 A 1.2127497,1.2127497 0 0 0 3.6679688,7.19531 L 3.6347658,8.41406 3.761719,8.513669 3.875,8.4140625 3.8476562,7.1953125 a 1.2127497,1.2127497 0 0 0 0.099609,-0.013672 L 4.0136719,8.2480469 4.1582031,8.1425781 4.0273438,7.1660156 A 1.2127497,1.2127497 0 0 0 4.3867188,7.0136719 L 4.9804688,7.8164062 5.1582031,7.7910156 4.453125,6.96875 A 1.2127497,1.2127497 0 0 0 4.535156,6.904297 L 5.3574219,7.8007812 5.5175781,7.7832031 5.5292969,7.6328125 4.6621094,6.7753906 a 1.2127497,1.2127497 0 0 0 0.0625,-0.078125 L 5.5136719,7.4179688 5.5449219,7.2402344 4.7695312,6.6289062 A 1.2127497,1.2127497 0 0 0 4.9160156,6.28125 L 5.8769531,6.4101562 5.9824219,6.265625 4.9335938,6.2011719 A 1.2127497,1.2127497 0 0 0 4.9472656,6.0996094 L 6.1484375,6.1269531 6.2480469,6.0136719 6.1484375,5.8867188 4.9511719,5.9199219 A 1.2127497,1.2127497 0 0 0 4.9394531,5.8144531 L 6.0039062,5.75 5.8984375,5.6054688 4.9257812,5.734375 A 1.2127497,1.2127497 0 0 0 4.7851562,5.3710938 L 5.5625,4.7558594 5.5332031,4.578125 4.7402344,5.3027344 A 1.2127497,1.2127497 0 0 0 4.6796875,5.2226562 L 5.5488281,4.3632812 5.5351562,4.2128906 5.375,4.1953125 4.5546875,5.0898438 A 1.2127497,1.2127497 0 0 0 4.4746094,5.0234375 L 5.1777344,4.2050781 5,4.1796875 4.4101562,4.9785156 A 1.2127497,1.2127497 0 0 0 4.03125,4.8125 L 4.1621094,3.84375 4.0175781,3.7382812 3.953125,4.7949219 A 1.2127497,1.2127497 0 0 0 3.8515625,4.78125 l 0.027344,-1.2089844 z"
         transform="translate(152.84748,194.2822)"
         inkscape:label="sun" />
    </g>
  </g>
  <metadata
     id="metadata854">
    <rdf:RDF>
      <cc:Work
         rdf:about="">
        <cc:license
           rdf:resource="http://creativecommons.org/publicdomain/zero/1.0/" />
        <dc:format>image/svg+xml</dc:format>
        <dc:type
           rdf:resource="http://purl.org/dc/dcmitype/StillImage" />
      </cc:Work>
      <cc:License
         rdf:about="http://creativecommons.org/publicdomain/zero/1.0/">
        <cc:permits
           rdf:resource="http://creativecommons.org/ns#Reproduction" />
        <cc:permits
           rdf:resource="http://creativecommons.org/ns#Distribution" />
        <cc:permits
           rdf:resource="http://creativecommons.org/ns#DerivativeWorks" />
      </cc:License>
    </rdf:RDF>
  </metadata>
</svg>
