<?xml version="1.0" encoding="UTF-8" standalone="no"?>
<svg
   width="18"
   height="12"
   viewBox="0 0 18 12"
   version="1.1"
   id="svg38508"
   inkscape:version="1.1.2 (0a00cf5339, 2022-02-04, custom)"
   sodipodi:docname="zh-hant.svg"
   inkscape:export-filename="/home/dmitry/git/OpenBoard/resources/images/stylusPalette/arrow_svg.png"
   inkscape:export-xdpi="96"
   inkscape:export-ydpi="96"
   xmlns:inkscape="http://www.inkscape.org/namespaces/inkscape"
   xmlns:sodipodi="http://sodipodi.sourceforge.net/DTD/sodipodi-0.dtd"
   xmlns="http://www.w3.org/2000/svg"
   xmlns:svg="http://www.w3.org/2000/svg"
   xmlns:rdf="http://www.w3.org/1999/02/22-rdf-syntax-ns#"
   xmlns:cc="http://creativecommons.org/ns#"
   xmlns:dc="http://purl.org/dc/elements/1.1/">
  <sodipodi:namedview
     id="namedview38510"
     pagecolor="#ffffff"
     bordercolor="#858585"
     borderopacity="1"
     inkscape:pageshadow="0"
     inkscape:pageopacity="0"
     inkscape:pagecheckerboard="false"
     inkscape:document-units="px"
     showgrid="true"
     fit-margin-top="0"
     fit-margin-left="0"
     fit-margin-right="0"
     fit-margin-bottom="0"
     units="px"
     inkscape:zoom="64"
     inkscape:cx="5.6328125"
     inkscape:cy="4.6953125"
     inkscape:window-width="1366"
     inkscape:window-height="695"
     inkscape:window-x="0"
     inkscape:window-y="0"
     inkscape:window-maximized="1"
     inkscape:current-layer="g965"
     inkscape:document-rotation="0"
     inkscape:snap-others="true"
     inkscape:snap-global="true"
     showguides="true"
     inkscape:guide-bbox="true"
     width="18px"
     borderlayer="false">
    <inkscape:grid
       type="xygrid"
       id="grid7387"
       dotted="false" />
  </sodipodi:namedview>
  <defs
     id="defs38505" />
  <g
     inkscape:label="icon"
     inkscape:groupmode="layer"
     id="layer1"
     transform="translate(-152.84748,-194.2822)"
     sodipodi:insensitive="true">
    <g
       id="g965"
       inkscape:label="flag"
       style="display:inline;stroke:none">
      <rect
         style="fill:#ff0000;fill-opacity:1;stroke-width:4;stroke-linecap:round;stroke-linejoin:round;stroke-dashoffset:0.2826;paint-order:markers stroke fill"
         id="rect967"
         width="18"
         height="12"
         x="152.84747"
         y="194.2822"
         ry="1.0000039"
         inkscape:label="background" />
      <path
         id="rect1602"
         style="display:inline;opacity:1;fill:#000099;stroke-width:0.1;stroke-linecap:round;stroke-linejoin:round;stroke-dashoffset:0.2826;paint-order:markers stroke fill"
         d="m 153.84748,194.2822 c 2,0 8,0 8,0 v 6 c 0,0 -8,0 -9,0 l -1e-5,-5 c 0,-0.554 0.446,-1 1.00001,-1 z"
         sodipodi:nodetypes="ccccsc"
         inkscape:label="blue" />
      <path
         id="path1055"
         style="opacity:1;fill:#ffffff;stroke-width:4.62239;stroke-linecap:round;stroke-linejoin:round;stroke-dashoffset:0.2826;paint-order:markers stroke fill"
         d="m 157.35139,194.97629 -0.32813,1.05273 c 0.10947,-0.0311 0.22438,-0.0469 0.34375,-0.0469 0.10421,0 0.20594,0.0132 0.30274,0.0371 z m 1.1289,0.29687 -0.80859,0.7461 c 0.21685,0.054 0.41073,0.16408 0.5664,0.31445 z m -2.25586,0.0137 0.24219,1.07618 c 0.15077,-0.15508 0.341,-0.27285 0.55469,-0.33399 z m 0.24219,1.07618 -1.06445,-0.2461 0.74609,0.8086 c 0.0549,-0.21566 0.16791,-0.40776 0.31836,-0.5625 z m 0.8418,-0.28321 c -0.61142,0.0309 -1.09766,0.53708 -1.09766,1.15625 0,0.63914 0.5171,1.15625 1.15625,1.15625 0.63915,0 1.15625,-0.51711 1.15625,-1.15625 0,-0.63915 -0.5171,-1.15625 -1.15625,-1.15625 -0.02,0 -0.0389,-10e-4 -0.0586,0 z m 2.0039,0.0137 -1.07226,0.24219 c 0.15478,0.15016 0.27079,0.33973 0.33203,0.55274 z m -0.73828,0.80079 c 0.0306,0.10848 0.0469,0.22351 0.0469,0.34179 0,0.10475 -0.0129,0.20541 -0.0371,0.30274 l 1.03711,-0.31836 z m -2.42578,0.0332 -1.04101,0.32031 1.05078,0.32813 c -0.0306,-0.10834 -0.0469,-0.22186 -0.0469,-0.33985 0,-0.10608 0.0122,-0.21022 0.0371,-0.30859 z m 2.43359,0.61914 c -0.0548,0.21477 -0.16501,0.40802 -0.31445,0.5625 l 1.0586,0.24219 z m -2.42382,0.0312 -0.74219,0.79687 1.07422,-0.24218 c -0.15448,-0.1511 -0.27149,-0.34115 -0.33203,-0.55469 z m 2.10547,0.53516 c -0.15094,0.15465 -0.34105,0.26958 -0.55469,0.33007 l 0.79492,0.74024 z m -1.77149,0.0215 -0.24609,1.0625 0.80664,-0.74609 c -0.21423,-0.0556 -0.40661,-0.1665 -0.56055,-0.31641 z m 1.21094,0.31055 c -0.10675,0.0296 -0.21977,0.0469 -0.33594,0.0469 -0.10689,0 -0.20946,-0.0158 -0.30859,-0.041 l 0.31836,1.04101 z"
         inkscape:label="star" />
    </g>
  </g>
  <metadata
     id="metadata854">
    <rdf:RDF>
      <cc:Work
         rdf:about="">
        <cc:license
           rdf:resource="http://creativecommons.org/publicdomain/zero/1.0/" />
        <dc:format>image/svg+xml</dc:format>
        <dc:type
           rdf:resource="http://purl.org/dc/dcmitype/StillImage" />
      </cc:Work>
      <cc:License
         rdf:about="http://creativecommons.org/publicdomain/zero/1.0/">
        <cc:permits
           rdf:resource="http://creativecommons.org/ns#Reproduction" />
        <cc:permits
           rdf:resource="http://creativecommons.org/ns#Distribution" />
        <cc:permits
           rdf:resource="http://creativecommons.org/ns#DerivativeWorks" />
      </cc:License>
    </rdf:RDF>
  </metadata>
</svg>
