<?xml version="1.0" encoding="UTF-8" standalone="no"?>
<svg
   xmlns:dc="http://purl.org/dc/elements/1.1/"
   xmlns:cc="http://creativecommons.org/ns#"
   xmlns:rdf="http://www.w3.org/1999/02/22-rdf-syntax-ns#"
   xmlns:svg="http://www.w3.org/2000/svg"
   xmlns="http://www.w3.org/2000/svg"
   version="1.1"
   id="svg2"
   width="920"
   height="889"
   viewBox="0 0 920 889">
  <metadata
     id="metadata8">
    <rdf:RDF>
      <cc:Work
         rdf:about="">
        <dc:format>image/svg+xml</dc:format>
        <dc:type
           rdf:resource="http://purl.org/dc/dcmitype/StillImage" />
        <dc:title></dc:title>
      </cc:Work>
    </rdf:RDF>
  </metadata>
  <defs
     id="defs6" />
  <g
     id="g842"
     transform="matrix(1.2326881,0,0,1.2326881,-222.17978,-258.91642)">
    <rect
       style="fill:#000000;stroke:#000000;stroke-width:0.995422;stroke-linecap:round;stroke-miterlimit:4;stroke-dasharray:none"
       id="rect869"
       width="615.67755"
       height="421.56708"
       x="245.56949"
       y="390.53799"
       ry="95.905624" />
    <ellipse
       style="fill:none;stroke:#ffffff;stroke-width:44.311;stroke-linecap:round;stroke-miterlimit:4;stroke-dasharray:none"
       id="path865"
       cx="613.94025"
       cy="595.93195"
       rx="130.56277"
       ry="129.90643" />
    <circle
       style="fill:#ffffff;stroke:#000000;stroke-width:1.18064;stroke-linecap:round;stroke-miterlimit:4;stroke-dasharray:none"
       id="path867"
       cx="337.80539"
       cy="473.50055"
       r="31.427872" />
    <path
       id="rect871"
       style="fill:#000000;stroke:#000000;stroke-width:0.959938;stroke-linecap:round;stroke-miterlimit:4;stroke-dasharray:none"
       d="m 544.35308,319.58381 c 45.60325,0.008 136.75135,0 136.75135,0 21.08328,0 43.54453,13.69986 50.36154,30.71718 9.18992,22.91343 27.52113,68.70108 27.52113,68.70108 6.81701,17.01731 -12.98172,30.71717 -44.39175,30.71717 -67.9105,0.008 -203.73318,0 -203.73318,0 -31.41005,0 -51.20878,-13.69986 -44.39177,-30.71717 9.18566,-22.89645 27.52113,-68.70108 27.52113,-68.70108 6.81701,-17.01732 29.27826,-30.71718 50.36155,-30.71718 z"
       transform="matrix(1,0,0,0.86120843,1.2610394,53.854652)" />
    <rect
       style="fill:#000000;stroke:#000000;stroke-width:1.01007;stroke-linecap:round;stroke-miterlimit:4;stroke-dasharray:none"
       id="rect878"
       width="122.57688"
       height="67.015137"
       x="305.61389"
       y="359.33774"
       ry="33.507568" />
  </g>
</svg>
