<?xml version="1.0" encoding="utf-8"?>
<!-- Generator: Adobe Illustrator 15.1.0, SVG Export Plug-In  -->
<!DOCTYPE svg [
	<!ENTITY ns_flows "http://ns.adobe.com/Flows/1.0/">
]>
<svg version="1.2" baseProfile="tiny"
	 xmlns="http://www.w3.org/2000/svg" xmlns:xlink="http://www.w3.org/1999/xlink" xmlns:a="http://ns.adobe.com/AdobeSVGViewerExtensions/3.0/"
	 x="0px" y="0px" width="107px" height="107px" viewBox="0 0 107 107" overflow="visible" xml:space="preserve">
<defs>
</defs>
<g>
	<linearGradient id="SVGID_1_" gradientUnits="userSpaceOnUse" x1="53.666" y1="0" x2="53.666" y2="107.334">
		<stop  offset="0" style="stop-color:#727270"/>
		<stop  offset="1" style="stop-color:#41413F"/>
		<a:midPointStop  offset="0" style="stop-color:#727270"/>
		<a:midPointStop  offset="0.5" style="stop-color:#727270"/>
		<a:midPointStop  offset="1" style="stop-color:#41413F"/>
	</linearGradient>
	<path fill="url(#SVGID_1_)" d="M107.3,99.3c0,4.4-3.6,8-8,8H8c-4.4,0-8-3.6-8-8V8c0-4.4,3.6-8,8-8h91.3c4.4,0,8,3.6,8,8V99.3z"/>
</g>
<g>
	<g  a:adobe-opacity-share="1">
		<path fill="#33342E"  a:adobe-opacity-share="0" d="M75,59.5c-0.3-0.5-0.6-0.9-1.1-1.2c-0.4-0.3-0.9-0.6-1.4-0.8
			c-0.5-0.2-1.1-0.3-1.7-0.3c-1.1,0-2,0.2-2.7,0.6c-0.7,0.4-1.4,1-1.8,1.7s-0.8,1.5-1,2.4c-0.2,0.9-0.3,1.8-0.3,2.8
			c0,0.9,0.1,1.8,0.3,2.7c0.2,0.9,0.6,1.6,1,2.3c0.5,0.7,1.1,1.2,1.8,1.7s1.7,0.6,2.7,0.6c1.5,0,2.6-0.4,3.4-1.3
			c0.8-0.9,1.3-2.1,1.5-3.5h4.6c-0.1,1.4-0.4,2.6-0.9,3.7c-0.5,1.1-1.2,2-2,2.8c-0.8,0.8-1.8,1.4-2.9,1.8s-2.3,0.6-3.7,0.6
			c-1.7,0-3.1-0.3-4.5-0.9c-1.3-0.6-2.4-1.4-3.3-2.4c-0.9-1-1.6-2.2-2.1-3.6s-0.7-2.8-0.7-4.4c0-1.6,0.2-3.1,0.7-4.5
			c0.5-1.4,1.2-2.6,2.1-3.6c0.9-1,2-1.8,3.3-2.4c1.3-0.6,2.8-0.9,4.5-0.9c1.2,0,2.3,0.2,3.4,0.5c1.1,0.3,2,0.8,2.8,1.5
			c0.8,0.7,1.5,1.5,2.1,2.4c0.5,1,0.9,2.1,1,3.3h-4.6C75.5,60.4,75.3,59.9,75,59.5z"/>
		<path fill="#33342E"  a:adobe-opacity-share="0" d="M92.9,53.7c1.4,0,2.7,0.2,3.9,0.7c1.2,0.4,2.2,1.1,3.1,2
			c0.9,0.9,1.6,2,2.1,3.3c0.5,1.3,0.7,2.9,0.7,4.7c0,1.6-0.2,3-0.6,4.4c-0.4,1.3-1,2.5-1.8,3.5c-0.8,1-1.8,1.7-3.1,2.3
			s-2.7,0.8-4.3,0.8h-9.3V53.7H92.9z M92.6,71.4c0.7,0,1.4-0.1,2-0.3c0.6-0.2,1.2-0.6,1.7-1.1s0.9-1.2,1.2-2c0.3-0.8,0.5-1.8,0.5-3
			c0-1.1-0.1-2.1-0.3-3c-0.2-0.9-0.6-1.6-1-2.3c-0.5-0.6-1.1-1.1-1.9-1.4s-1.8-0.5-3-0.5h-3.4v13.6H92.6z"/>
	</g>
	<g>
		<path fill="#FFFFFF" d="M72,56.5c-0.3-0.5-0.6-0.9-1.1-1.2c-0.4-0.3-0.9-0.6-1.4-0.8c-0.5-0.2-1.1-0.3-1.7-0.3
			c-1.1,0-2,0.2-2.7,0.6c-0.7,0.4-1.4,1-1.8,1.7s-0.8,1.5-1,2.4c-0.2,0.9-0.3,1.8-0.3,2.8c0,0.9,0.1,1.8,0.3,2.7
			c0.2,0.9,0.6,1.6,1,2.3c0.5,0.7,1.1,1.2,1.8,1.7s1.7,0.6,2.7,0.6c1.5,0,2.6-0.4,3.4-1.3c0.8-0.9,1.3-2.1,1.5-3.5h4.6
			c-0.1,1.4-0.4,2.6-0.9,3.7c-0.5,1.1-1.2,2-2,2.8c-0.8,0.8-1.8,1.4-2.9,1.8s-2.3,0.6-3.7,0.6c-1.7,0-3.1-0.3-4.5-0.9
			c-1.3-0.6-2.4-1.4-3.3-2.4c-0.9-1-1.6-2.2-2.1-3.6s-0.7-2.8-0.7-4.4c0-1.6,0.2-3.1,0.7-4.5c0.5-1.4,1.2-2.6,2.1-3.6
			c0.9-1,2-1.8,3.3-2.4c1.3-0.6,2.8-0.9,4.5-0.9c1.2,0,2.3,0.2,3.4,0.5c1.1,0.3,2,0.8,2.8,1.5c0.8,0.7,1.5,1.5,2.1,2.4
			c0.5,1,0.9,2.1,1,3.3h-4.6C72.5,57.4,72.3,56.9,72,56.5z"/>
		<path fill="#FFFFFF" d="M89.9,50.7c1.4,0,2.7,0.2,3.9,0.7c1.2,0.4,2.2,1.1,3.1,2s1.6,2,2.1,3.3c0.5,1.3,0.7,2.9,0.7,4.7
			c0,1.6-0.2,3-0.6,4.4c-0.4,1.3-1,2.5-1.8,3.5c-0.8,1-1.8,1.7-3.1,2.3s-2.7,0.8-4.3,0.8h-9.3V50.7H89.9z M89.6,68.4
			c0.7,0,1.4-0.1,2-0.3c0.6-0.2,1.2-0.6,1.7-1.1s0.9-1.2,1.2-2c0.3-0.8,0.5-1.8,0.5-3c0-1.1-0.1-2.1-0.3-3c-0.2-0.9-0.6-1.6-1-2.3
			c-0.5-0.6-1.1-1.1-1.9-1.4c-0.8-0.3-1.8-0.5-3-0.5h-3.4v13.6H89.6z"/>
	</g>
</g>
<path fill="#33342E" d="M69.2,25.5c-10.2-1.1-18.2,3.2-19.6,3.9l-4.2-7c0,0-8.6,18-10.8,21.8L57,41.8l-4.3-7.1c2.7-1.4,7.5-4,15.8-4
	c10,0,13.2,5.9,14.3,15.5l1-0.4C83.8,45.9,85.5,27.3,69.2,25.5z"/>
<path fill="#67C8F0" d="M67.2,22.5c-10.2-0.8-18.2,3.2-19.6,3.9l-4.2-7c0,0-8.6,18-10.8,21.8L55,38.8l-4.3-7.1c2.7-1.4,8.5-4,16.8-4
	c10,0,15.2,9,15.2,18.5l1-0.4C83.8,45.9,85.3,24,67.2,22.5z"/>
<path fill="#FFFFFF" d="M21.6,57.7l8.1,21.7h-5l-1.6-4.8H15l-1.7,4.8H8.5l8.2-21.7H21.6z M21.9,71l-2.7-8h-0.1l-2.8,8H21.9z"/>
<path fill="#FFFFFF" d="M43.7,57.7c1,0,2,0.1,2.8,0.3c0.9,0.2,1.6,0.5,2.2,0.9c0.6,0.4,1.1,1,1.4,1.7c0.3,0.7,0.5,1.5,0.5,2.6
	c0,1.1-0.2,2-0.7,2.7c-0.5,0.7-1.2,1.3-2.2,1.8c1.3,0.4,2.3,1.1,3,2c0.7,1,1,2.1,1,3.5c0,1.1-0.2,2-0.6,2.8s-1,1.5-1.7,2
	c-0.7,0.5-1.5,0.9-2.5,1.1C46,79.3,45,79.4,44,79.4H33.5V57.7H43.7z M43.1,66.5c0.9,0,1.6-0.2,2.1-0.6c0.5-0.4,0.8-1.1,0.8-2
	c0-0.5-0.1-0.9-0.3-1.2s-0.4-0.6-0.7-0.8c-0.3-0.2-0.7-0.3-1-0.4c-0.4-0.1-0.8-0.1-1.2-0.1h-4.5v5.1H43.1z M43.4,75.7
	c0.5,0,0.9,0,1.3-0.1c0.4-0.1,0.8-0.2,1.1-0.5c0.3-0.2,0.6-0.5,0.8-0.9c0.2-0.4,0.3-0.8,0.3-1.4c0-1.1-0.3-1.9-0.9-2.4
	c-0.6-0.5-1.5-0.7-2.5-0.7h-5.2v6H43.4z"/>
</svg>
