<?xml version="1.0" encoding="utf-8"?>
<!-- Generator: Adobe Illustrator 13.0.0, SVG Export Plug-In . SVG Version: 6.00 Build 14948)  -->
<!DOCTYPE svg PUBLIC "-//W3C//DTD SVG 1.0//EN" "http://www.w3.org/TR/2001/REC-SVG-20010904/DTD/svg10.dtd">
<svg version="1.0" id="Layer_1" xmlns="http://www.w3.org/2000/svg" xmlns:xlink="http://www.w3.org/1999/xlink" x="0px" y="0px"
	 width="924.381px" height="678.461px" viewBox="0 0 924.381 678.461" enable-background="new 0 0 924.381 678.461"
	 xml:space="preserve">

<rect x="395.18" y="24.693" fill="#E6F5F5" width="131.569" height="653.069"/>
<rect x="658.344" y="24.693" fill="#E6F5F5" width="131.546" height="653.125"/>
<rect x="132.034" y="24.638" fill="#E6F5F5" width="131.637" height="653.125"/>
<g>
	<line fill="none" stroke="#000000" stroke-width="0.1941" stroke-miterlimit="10" x1="0.462" y1="154.167" x2="0.462" y2="24.18"/>
	
		<line fill="none" stroke="#000000" stroke-width="0.1941" stroke-miterlimit="10" x1="0.462" y1="285.169" x2="0.462" y2="155.182"/>
	
		<line fill="none" stroke="#000000" stroke-width="0.1941" stroke-miterlimit="10" x1="0.462" y1="416.168" x2="0.462" y2="286.186"/>
	
		<line fill="none" stroke="#000000" stroke-width="0.1941" stroke-miterlimit="10" x1="0.462" y1="547.173" x2="0.462" y2="417.19"/>
	
		<line fill="none" stroke="#000000" stroke-width="0.1941" stroke-miterlimit="10" x1="0.462" y1="678.18" x2="0.462" y2="548.196"/>
</g>
<line fill="none" stroke="#000000" stroke-width="0.1941" stroke-miterlimit="10" x1="132.034" y1="23.811" x2="263.609" y2="23.811"/>
<line fill="none" stroke="#000000" stroke-width="0.1941" stroke-miterlimit="10" x1="263.605" y1="23.811" x2="395.18" y2="23.811"/>
<line fill="none" stroke="#000000" stroke-width="0.1941" stroke-miterlimit="10" x1="395.18" y1="23.811" x2="526.756" y2="23.811"/>
<line fill="none" stroke="#000000" stroke-width="0.1941" stroke-miterlimit="10" x1="526.75" y1="23.811" x2="658.327" y2="23.811"/>
<line fill="none" stroke="#000000" stroke-width="0.1941" stroke-miterlimit="10" x1="658.325" y1="23.811" x2="789.899" y2="23.811"/>
<line fill="none" stroke="#000000" stroke-width="0.1941" stroke-miterlimit="10" x1="789.899" y1="23.811" x2="924.215" y2="23.811"/>
<g>
	
		<line fill="none" stroke="#000000" stroke-width="0.1941" stroke-miterlimit="10" x1="263.605" y1="677.763" x2="263.605" y2="24.18"/>
	
		<line fill="none" stroke="#000000" stroke-width="0.1941" stroke-miterlimit="10" x1="395.18" y1="677.763" x2="395.18" y2="24.18"/>
	
		<line fill="none" stroke="#000000" stroke-width="0.1941" stroke-miterlimit="10" x1="526.75" y1="677.763" x2="526.75" y2="24.18"/>
	
		<line fill="none" stroke="#000000" stroke-width="0.1941" stroke-miterlimit="10" x1="658.325" y1="677.763" x2="658.325" y2="24.18"/>
	
		<line fill="none" stroke="#000000" stroke-width="0.1941" stroke-miterlimit="10" x1="789.899" y1="677.763" x2="789.899" y2="24.18"/>
</g>
<line fill="none" stroke="#000000" stroke-width="0.1941" stroke-miterlimit="10" x1="923.82" y1="678.461" x2="923.82" y2="24.18"/>
<g>
	
		<line fill="none" stroke="#000000" stroke-width="0.1941" stroke-miterlimit="10" x1="132.034" y1="154.095" x2="132.034" y2="24.18"/>
	
		<line fill="none" stroke="#000000" stroke-width="0.1941" stroke-miterlimit="10" x1="132.034" y1="285.025" x2="132.034" y2="155.109"/>
	
		<line fill="none" stroke="#000000" stroke-width="0.1941" stroke-miterlimit="10" x1="132.034" y1="415.954" x2="132.034" y2="286.042"/>
	
		<line fill="none" stroke="#000000" stroke-width="0.1941" stroke-miterlimit="10" x1="132.034" y1="546.885" x2="132.034" y2="416.974"/>
	
		<line fill="none" stroke="#000000" stroke-width="0.1941" stroke-miterlimit="10" x1="132.034" y1="677.818" x2="132.034" y2="547.906"/>
</g>
<text transform="matrix(1.0853 0 0 1 100.0732 478.4854)" fill="#6D6F71" font-family="'Univers-Condensed'" font-size="7.3311"> </text>
<line fill="none" stroke="#000000" stroke-width="0.1941" stroke-miterlimit="10" x1="1.086" y1="69.303" x2="924.381" y2="69.303"/>
<line fill="none" stroke="#000000" stroke-width="0.1941" stroke-miterlimit="10" x1="1.086" y1="112.768" x2="924.381" y2="112.768"/>
<line fill="none" stroke="#000000" stroke-width="0.1941" stroke-miterlimit="10" x1="1.086" y1="677.818" x2="924.381" y2="677.818"/>
<line fill="none" stroke="#000000" stroke-width="0.1941" stroke-miterlimit="10" x1="1.086" y1="156.233" x2="924.381" y2="156.233"/>
<line fill="none" stroke="#000000" stroke-width="0.1941" stroke-miterlimit="10" x1="1.086" y1="199.699" x2="924.381" y2="199.699"/>
<line fill="none" stroke="#000000" stroke-miterlimit="10" x1="1.086" y1="243.165" x2="924.381" y2="243.165"/>
<line fill="none" stroke="#000000" stroke-width="0.1941" stroke-miterlimit="10" x1="1.086" y1="286.631" x2="924.381" y2="286.631"/>
<line fill="none" stroke="#000000" stroke-width="0.1941" stroke-miterlimit="10" x1="1.086" y1="417.027" x2="924.381" y2="417.027"/>
<line fill="none" stroke="#000000" stroke-width="0.1941" stroke-miterlimit="10" x1="1.086" y1="460.491" x2="924.381" y2="460.491"/>
<line fill="none" stroke="#000000" stroke-width="0.1941" stroke-miterlimit="10" x1="1.086" y1="503.957" x2="924.381" y2="503.957"/>
<line fill="none" stroke="#000000" stroke-width="0.1941" stroke-miterlimit="10" x1="1.086" y1="590.888" x2="924.381" y2="590.888"/>
<line fill="none" stroke="#000000" stroke-width="0.1941" stroke-miterlimit="10" x1="1.086" y1="634.354" x2="924.381" y2="634.354"/>
<line fill="none" stroke="#000000" stroke-width="0.1941" stroke-miterlimit="10" x1="1.086" y1="330.096" x2="924.381" y2="330.096"/>
<line fill="none" stroke="#000000" stroke-width="0.1941" stroke-miterlimit="10" x1="1.086" y1="373.561" x2="924.381" y2="373.561"/>
<line fill="none" stroke="#000000" stroke-width="0.1941" stroke-miterlimit="10" x1="1.086" y1="547.422" x2="924.381" y2="547.422"/>
<g>
	<rect x="5.259" y="30.715" fill="none" width="64.294" height="22.786"/>
	<text transform="matrix(1.0853 0 0 1 5.2598 37.2954)" font-family="'TradeGothic-BoldCondTwenty'" font-size="9.1147">7:00 AM</text>
	<rect x="5.259" y="74.809" fill="none" width="64.294" height="22.784"/>
	<text transform="matrix(1.0853 0 0 1 5.2598 81.3892)" font-family="'TradeGothic-BoldCondTwenty'" font-size="9.1147">8:00 AM</text>
	<rect x="5.259" y="117.889" fill="none" width="64.294" height="22.785"/>
	<text transform="matrix(1.0853 0 0 1 5.2598 124.4692)" font-family="'TradeGothic-BoldCondTwenty'" font-size="9.1147">9:00 AM</text>
	<rect x="5.259" y="161.981" fill="none" width="64.294" height="22.786"/>
	<text transform="matrix(1.0853 0 0 1 5.2598 168.561)" font-family="'TradeGothic-BoldCondTwenty'" font-size="9.1147">10:00 AM</text>
	<rect x="5.259" y="205.062" fill="none" width="64.294" height="22.786"/>
	<text transform="matrix(1.0853 0 0 1 5.2598 211.6421)" font-family="'TradeGothic-BoldCondTwenty'" font-size="9.1147">11:00 AM</text>
	<rect x="5.259" y="249.155" fill="none" width="64.294" height="22.785"/>
	<text transform="matrix(1.0853 0 0 1 5.2598 255.7358)" font-family="'TradeGothic-BoldCondTwenty'" font-size="9.1147">12:00 PM</text>
	<rect x="5.259" y="292.234" fill="none" width="64.294" height="22.787"/>
	<text transform="matrix(1.0853 0 0 1 5.2598 298.8149)" font-family="'TradeGothic-BoldCondTwenty'" font-size="9.1147">1:00 PM</text>
	<rect x="5.259" y="335.315" fill="none" width="64.294" height="22.786"/>
	<text transform="matrix(1.0853 0 0 1 5.2598 341.8965)" font-family="'TradeGothic-BoldCondTwenty'" font-size="9.1147">2:00 PM</text>
	<rect x="5.259" y="379.41" fill="none" width="64.294" height="22.785"/>
	<text transform="matrix(1.0853 0 0 1 5.2598 385.9912)" font-family="'TradeGothic-BoldCondTwenty'" font-size="9.1147">3:00 PM</text>
	<rect x="5.259" y="422.488" fill="none" width="64.294" height="22.787"/>
	<text transform="matrix(1.0853 0 0 1 5.2598 429.0684)" font-family="'TradeGothic-BoldCondTwenty'" font-size="9.1147">4:00 PM</text>
	<rect x="5.259" y="465.57" fill="none" width="64.294" height="22.787"/>
	<text transform="matrix(1.0853 0 0 1 5.2598 472.1514)" font-family="'TradeGothic-BoldCondTwenty'" font-size="9.1147">5:00 PM</text>
	<rect x="5.259" y="509.663" fill="none" width="64.294" height="22.785"/>
	<text transform="matrix(1.0853 0 0 1 5.2598 516.2441)" font-family="'TradeGothic-BoldCondTwenty'" font-size="9.1147">6:00 PM</text>
	<rect x="5.259" y="552.745" fill="none" width="64.294" height="22.785"/>
	<text transform="matrix(1.0853 0 0 1 5.2598 559.3262)" font-family="'TradeGothic-BoldCondTwenty'" font-size="9.1147">7:00 PM</text>
	<rect x="5.259" y="595.823" fill="none" width="64.294" height="22.785"/>
	<text transform="matrix(1.0853 0 0 1 5.2598 602.4043)" font-family="'TradeGothic-BoldCondTwenty'" font-size="9.1147">8:00 PM</text>
	<rect x="5.259" y="640.722" fill="none" width="64.294" height="22.785"/>
	<text transform="matrix(1.0853 0 0 1 5.2598 647.3027)" font-family="'TradeGothic-BoldCondTwenty'" font-size="9.1147">9:00 PM</text>
</g>
<g>
	<rect x="139.344" y="30.715" fill="none" width="64.294" height="22.786"/>
	<text transform="matrix(1.0853 0 0 1 139.3438 37.2954)" font-family="'TradeGothic-BoldCondTwenty'" font-size="9.1147">7:00 AM</text>
	<rect x="139.344" y="74.809" fill="none" width="64.294" height="22.784"/>
	<text transform="matrix(1.0853 0 0 1 139.3438 81.3892)" font-family="'TradeGothic-BoldCondTwenty'" font-size="9.1147">8:00 AM</text>
	<rect x="139.344" y="117.889" fill="none" width="64.294" height="22.785"/>
	<text transform="matrix(1.0853 0 0 1 139.3438 124.4692)" font-family="'TradeGothic-BoldCondTwenty'" font-size="9.1147">9:00 AM</text>
	<rect x="139.344" y="161.981" fill="none" width="64.294" height="22.786"/>
	<text transform="matrix(1.0853 0 0 1 139.3438 168.561)" font-family="'TradeGothic-BoldCondTwenty'" font-size="9.1147">10:00 AM</text>
	<rect x="139.344" y="205.062" fill="none" width="64.294" height="22.786"/>
	<text transform="matrix(1.0853 0 0 1 139.3438 211.6421)" font-family="'TradeGothic-BoldCondTwenty'" font-size="9.1147">11:00 AM</text>
	<rect x="139.344" y="249.155" fill="none" width="64.294" height="22.785"/>
	<text transform="matrix(1.0853 0 0 1 139.3438 255.7358)" font-family="'TradeGothic-BoldCondTwenty'" font-size="9.1147">12:00 PM</text>
	<rect x="139.344" y="292.234" fill="none" width="64.294" height="22.787"/>
	<text transform="matrix(1.0853 0 0 1 139.3438 298.8149)" font-family="'TradeGothic-BoldCondTwenty'" font-size="9.1147">1:00 PM</text>
	<rect x="139.344" y="335.315" fill="none" width="64.294" height="22.786"/>
	<text transform="matrix(1.0853 0 0 1 139.3438 341.8965)" font-family="'TradeGothic-BoldCondTwenty'" font-size="9.1147">2:00 PM</text>
	<rect x="139.344" y="379.41" fill="none" width="64.294" height="22.785"/>
	<text transform="matrix(1.0853 0 0 1 139.3438 385.9912)" font-family="'TradeGothic-BoldCondTwenty'" font-size="9.1147">3:00 PM</text>
	<rect x="139.344" y="422.488" fill="none" width="64.294" height="22.787"/>
	<text transform="matrix(1.0853 0 0 1 139.3438 429.0684)" font-family="'TradeGothic-BoldCondTwenty'" font-size="9.1147">4:00 PM</text>
	<rect x="139.344" y="465.57" fill="none" width="64.294" height="22.787"/>
	<text transform="matrix(1.0853 0 0 1 139.3438 472.1514)" font-family="'TradeGothic-BoldCondTwenty'" font-size="9.1147">5:00 PM</text>
	<rect x="139.344" y="509.663" fill="none" width="64.294" height="22.785"/>
	<text transform="matrix(1.0853 0 0 1 139.3438 516.2441)" font-family="'TradeGothic-BoldCondTwenty'" font-size="9.1147">6:00 PM</text>
	<rect x="139.344" y="552.745" fill="none" width="64.294" height="22.785"/>
	<text transform="matrix(1.0853 0 0 1 139.3438 559.3262)" font-family="'TradeGothic-BoldCondTwenty'" font-size="9.1147">7:00 PM</text>
	<rect x="139.344" y="595.823" fill="none" width="64.294" height="22.785"/>
	<text transform="matrix(1.0853 0 0 1 139.3438 602.4043)" font-family="'TradeGothic-BoldCondTwenty'" font-size="9.1147">8:00 PM</text>
	<rect x="139.344" y="640.722" fill="none" width="64.294" height="22.785"/>
	<text transform="matrix(1.0853 0 0 1 139.3438 647.3027)" font-family="'TradeGothic-BoldCondTwenty'" font-size="9.1147">9:00 PM</text>
</g>
<g>
	<rect x="269.582" y="30.715" fill="none" width="64.295" height="22.786"/>
	<text transform="matrix(1.0853 0 0 1 269.582 37.2954)" font-family="'TradeGothic-BoldCondTwenty'" font-size="9.1147">7:00 AM</text>
	<rect x="269.582" y="74.809" fill="none" width="64.295" height="22.784"/>
	<text transform="matrix(1.0853 0 0 1 269.582 81.3892)" font-family="'TradeGothic-BoldCondTwenty'" font-size="9.1147">8:00 AM</text>
	<rect x="269.582" y="117.889" fill="none" width="64.295" height="22.785"/>
	<text transform="matrix(1.0853 0 0 1 269.582 124.4692)" font-family="'TradeGothic-BoldCondTwenty'" font-size="9.1147">9:00 AM</text>
	<rect x="269.582" y="161.981" fill="none" width="64.295" height="22.786"/>
	<text transform="matrix(1.0853 0 0 1 269.582 168.561)" font-family="'TradeGothic-BoldCondTwenty'" font-size="9.1147">10:00 AM</text>
	<rect x="269.582" y="205.062" fill="none" width="64.295" height="22.786"/>
	<text transform="matrix(1.0853 0 0 1 269.582 211.6421)" font-family="'TradeGothic-BoldCondTwenty'" font-size="9.1147">11:00 AM</text>
	<rect x="269.582" y="249.155" fill="none" width="64.295" height="22.785"/>
	<text transform="matrix(1.0853 0 0 1 269.582 255.7358)" font-family="'TradeGothic-BoldCondTwenty'" font-size="9.1147">12:00 PM</text>
	<rect x="269.582" y="292.234" fill="none" width="64.295" height="22.787"/>
	<text transform="matrix(1.0853 0 0 1 269.582 298.8149)" font-family="'TradeGothic-BoldCondTwenty'" font-size="9.1147">1:00 PM</text>
	<rect x="269.582" y="335.315" fill="none" width="64.295" height="22.786"/>
	<text transform="matrix(1.0853 0 0 1 269.582 341.8965)" font-family="'TradeGothic-BoldCondTwenty'" font-size="9.1147">2:00 PM</text>
	<rect x="269.582" y="379.41" fill="none" width="64.295" height="22.785"/>
	<text transform="matrix(1.0853 0 0 1 269.582 385.9912)" font-family="'TradeGothic-BoldCondTwenty'" font-size="9.1147">3:00 PM</text>
	<rect x="269.582" y="422.488" fill="none" width="64.295" height="22.787"/>
	<text transform="matrix(1.0853 0 0 1 269.582 429.0684)" font-family="'TradeGothic-BoldCondTwenty'" font-size="9.1147">4:00 PM</text>
	<rect x="269.582" y="465.57" fill="none" width="64.295" height="22.787"/>
	<text transform="matrix(1.0853 0 0 1 269.582 472.1514)" font-family="'TradeGothic-BoldCondTwenty'" font-size="9.1147">5:00 PM</text>
	<rect x="269.582" y="509.663" fill="none" width="64.295" height="22.785"/>
	<text transform="matrix(1.0853 0 0 1 269.582 516.2441)" font-family="'TradeGothic-BoldCondTwenty'" font-size="9.1147">6:00 PM</text>
	<rect x="269.582" y="552.745" fill="none" width="64.295" height="22.785"/>
	<text transform="matrix(1.0853 0 0 1 269.582 559.3262)" font-family="'TradeGothic-BoldCondTwenty'" font-size="9.1147">7:00 PM</text>
	<rect x="269.582" y="595.823" fill="none" width="64.295" height="22.785"/>
	<text transform="matrix(1.0853 0 0 1 269.582 602.4043)" font-family="'TradeGothic-BoldCondTwenty'" font-size="9.1147">8:00 PM</text>
	<rect x="269.582" y="640.722" fill="none" width="64.295" height="22.785"/>
	<text transform="matrix(1.0853 0 0 1 269.582 647.3027)" font-family="'TradeGothic-BoldCondTwenty'" font-size="9.1147">9:00 PM</text>
</g>
<g>
	<rect x="402.018" y="30.715" fill="none" width="64.294" height="22.786"/>
	<text transform="matrix(1.0853 0 0 1 402.0176 37.2954)" font-family="'TradeGothic-BoldCondTwenty'" font-size="9.1147">7:00 AM</text>
	<rect x="402.018" y="74.809" fill="none" width="64.294" height="22.784"/>
	<text transform="matrix(1.0853 0 0 1 402.0176 81.3892)" font-family="'TradeGothic-BoldCondTwenty'" font-size="9.1147">8:00 AM</text>
	<rect x="402.018" y="117.889" fill="none" width="64.294" height="22.785"/>
	<text transform="matrix(1.0853 0 0 1 402.0176 124.4692)" font-family="'TradeGothic-BoldCondTwenty'" font-size="9.1147">9:00 AM</text>
	<rect x="402.018" y="161.981" fill="none" width="64.294" height="22.786"/>
	<text transform="matrix(1.0853 0 0 1 402.0176 168.561)" font-family="'TradeGothic-BoldCondTwenty'" font-size="9.1147">10:00 AM</text>
	<rect x="402.018" y="205.062" fill="none" width="64.294" height="22.786"/>
	<text transform="matrix(1.0853 0 0 1 402.0176 211.6421)" font-family="'TradeGothic-BoldCondTwenty'" font-size="9.1147">11:00 AM</text>
	<rect x="402.018" y="249.155" fill="none" width="64.294" height="22.785"/>
	<text transform="matrix(1.0853 0 0 1 402.0176 255.7358)" font-family="'TradeGothic-BoldCondTwenty'" font-size="9.1147">12:00 PM</text>
	<rect x="402.018" y="292.234" fill="none" width="64.294" height="22.787"/>
	<text transform="matrix(1.0853 0 0 1 402.0176 298.8149)" font-family="'TradeGothic-BoldCondTwenty'" font-size="9.1147">1:00 PM</text>
	<rect x="402.018" y="335.315" fill="none" width="64.294" height="22.786"/>
	<text transform="matrix(1.0853 0 0 1 402.0176 341.8965)" font-family="'TradeGothic-BoldCondTwenty'" font-size="9.1147">2:00 PM</text>
	<rect x="402.018" y="379.41" fill="none" width="64.294" height="22.785"/>
	<text transform="matrix(1.0853 0 0 1 402.0176 385.9912)" font-family="'TradeGothic-BoldCondTwenty'" font-size="9.1147">3:00 PM</text>
	<rect x="402.018" y="422.488" fill="none" width="64.294" height="22.787"/>
	<text transform="matrix(1.0853 0 0 1 402.0176 429.0684)" font-family="'TradeGothic-BoldCondTwenty'" font-size="9.1147">4:00 PM</text>
	<rect x="402.018" y="465.57" fill="none" width="64.294" height="22.787"/>
	<text transform="matrix(1.0853 0 0 1 402.0176 472.1514)" font-family="'TradeGothic-BoldCondTwenty'" font-size="9.1147">5:00 PM</text>
	<rect x="402.018" y="509.663" fill="none" width="64.294" height="22.785"/>
	<text transform="matrix(1.0853 0 0 1 402.0176 516.2441)" font-family="'TradeGothic-BoldCondTwenty'" font-size="9.1147">6:00 PM</text>
	<rect x="402.018" y="552.745" fill="none" width="64.294" height="22.785"/>
	<text transform="matrix(1.0853 0 0 1 402.0176 559.3262)" font-family="'TradeGothic-BoldCondTwenty'" font-size="9.1147">7:00 PM</text>
	<rect x="402.018" y="595.823" fill="none" width="64.294" height="22.785"/>
	<text transform="matrix(1.0853 0 0 1 402.0176 602.4043)" font-family="'TradeGothic-BoldCondTwenty'" font-size="9.1147">8:00 PM</text>
	<rect x="402.018" y="640.722" fill="none" width="64.294" height="22.785"/>
	<text transform="matrix(1.0853 0 0 1 402.0176 647.3027)" font-family="'TradeGothic-BoldCondTwenty'" font-size="9.1147">9:00 PM</text>
</g>
<g>
	<rect x="535.004" y="30.715" fill="none" width="64.294" height="22.786"/>
	<text transform="matrix(1.0853 0 0 1 535.0044 37.2954)" font-family="'TradeGothic-BoldCondTwenty'" font-size="9.1147">7:00 AM</text>
	<rect x="535.004" y="74.809" fill="none" width="64.294" height="22.784"/>
	<text transform="matrix(1.0853 0 0 1 535.0044 81.3892)" font-family="'TradeGothic-BoldCondTwenty'" font-size="9.1147">8:00 AM</text>
	<rect x="535.004" y="117.889" fill="none" width="64.294" height="22.785"/>
	<text transform="matrix(1.0853 0 0 1 535.0044 124.4692)" font-family="'TradeGothic-BoldCondTwenty'" font-size="9.1147">9:00 AM</text>
	<rect x="535.004" y="161.981" fill="none" width="64.294" height="22.786"/>
	<text transform="matrix(1.0853 0 0 1 535.0044 168.561)" font-family="'TradeGothic-BoldCondTwenty'" font-size="9.1147">10:00 AM</text>
	<rect x="535.004" y="205.062" fill="none" width="64.294" height="22.786"/>
	<text transform="matrix(1.0853 0 0 1 535.0044 211.6421)" font-family="'TradeGothic-BoldCondTwenty'" font-size="9.1147">11:00 AM</text>
	<rect x="535.004" y="249.155" fill="none" width="64.294" height="22.785"/>
	<text transform="matrix(1.0853 0 0 1 535.0044 255.7358)" font-family="'TradeGothic-BoldCondTwenty'" font-size="9.1147">12:00 PM</text>
	<rect x="535.004" y="292.234" fill="none" width="64.294" height="22.787"/>
	<text transform="matrix(1.0853 0 0 1 535.0044 298.8149)" font-family="'TradeGothic-BoldCondTwenty'" font-size="9.1147">1:00 PM</text>
	<rect x="535.004" y="335.315" fill="none" width="64.294" height="22.786"/>
	<text transform="matrix(1.0853 0 0 1 535.0044 341.8965)" font-family="'TradeGothic-BoldCondTwenty'" font-size="9.1147">2:00 PM</text>
	<rect x="535.004" y="379.41" fill="none" width="64.294" height="22.785"/>
	<text transform="matrix(1.0853 0 0 1 535.0044 385.9912)" font-family="'TradeGothic-BoldCondTwenty'" font-size="9.1147">3:00 PM</text>
	<rect x="535.004" y="422.488" fill="none" width="64.294" height="22.787"/>
	<text transform="matrix(1.0853 0 0 1 535.0044 429.0684)" font-family="'TradeGothic-BoldCondTwenty'" font-size="9.1147">4:00 PM</text>
	<rect x="535.004" y="465.57" fill="none" width="64.294" height="22.787"/>
	<text transform="matrix(1.0853 0 0 1 535.0044 472.1514)" font-family="'TradeGothic-BoldCondTwenty'" font-size="9.1147">5:00 PM</text>
	<rect x="535.004" y="509.663" fill="none" width="64.294" height="22.785"/>
	<text transform="matrix(1.0853 0 0 1 535.0044 516.2441)" font-family="'TradeGothic-BoldCondTwenty'" font-size="9.1147">6:00 PM</text>
	<rect x="535.004" y="552.745" fill="none" width="64.294" height="22.785"/>
	<text transform="matrix(1.0853 0 0 1 535.0044 559.3262)" font-family="'TradeGothic-BoldCondTwenty'" font-size="9.1147">7:00 PM</text>
	<rect x="535.004" y="595.823" fill="none" width="64.294" height="22.785"/>
	<text transform="matrix(1.0853 0 0 1 535.0044 602.4043)" font-family="'TradeGothic-BoldCondTwenty'" font-size="9.1147">8:00 PM</text>
	<rect x="535.004" y="640.722" fill="none" width="64.294" height="22.785"/>
	<text transform="matrix(1.0853 0 0 1 535.0044 647.3027)" font-family="'TradeGothic-BoldCondTwenty'" font-size="9.1147">9:00 PM</text>
</g>
<g>
	<rect x="667.991" y="30.715" fill="none" width="64.294" height="22.786"/>
	<text transform="matrix(1.0853 0 0 1 667.9907 37.2954)" font-family="'TradeGothic-BoldCondTwenty'" font-size="9.1147">7:00 AM</text>
	<rect x="667.991" y="74.809" fill="none" width="64.294" height="22.784"/>
	<text transform="matrix(1.0853 0 0 1 667.9907 81.3892)" font-family="'TradeGothic-BoldCondTwenty'" font-size="9.1147">8:00 AM</text>
	<rect x="667.991" y="117.889" fill="none" width="64.294" height="22.785"/>
	<text transform="matrix(1.0853 0 0 1 667.9907 124.4692)" font-family="'TradeGothic-BoldCondTwenty'" font-size="9.1147">9:00 AM</text>
	<rect x="667.991" y="161.981" fill="none" width="64.294" height="22.786"/>
	<text transform="matrix(1.0853 0 0 1 667.9907 168.561)" font-family="'TradeGothic-BoldCondTwenty'" font-size="9.1147">10:00 AM</text>
	<rect x="667.991" y="205.062" fill="none" width="64.294" height="22.786"/>
	<text transform="matrix(1.0853 0 0 1 667.9907 211.6421)" font-family="'TradeGothic-BoldCondTwenty'" font-size="9.1147">11:00 AM</text>
	<rect x="667.991" y="249.155" fill="none" width="64.294" height="22.785"/>
	<text transform="matrix(1.0853 0 0 1 667.9907 255.7358)" font-family="'TradeGothic-BoldCondTwenty'" font-size="9.1147">12:00 PM</text>
	<rect x="667.991" y="292.234" fill="none" width="64.294" height="22.787"/>
	<text transform="matrix(1.0853 0 0 1 667.9907 298.8149)" font-family="'TradeGothic-BoldCondTwenty'" font-size="9.1147">1:00 PM</text>
	<rect x="667.991" y="335.315" fill="none" width="64.294" height="22.786"/>
	<text transform="matrix(1.0853 0 0 1 667.9907 341.8965)" font-family="'TradeGothic-BoldCondTwenty'" font-size="9.1147">2:00 PM</text>
	<rect x="667.991" y="379.41" fill="none" width="64.294" height="22.785"/>
	<text transform="matrix(1.0853 0 0 1 667.9907 385.9912)" font-family="'TradeGothic-BoldCondTwenty'" font-size="9.1147">3:00 PM</text>
	<rect x="667.991" y="422.488" fill="none" width="64.294" height="22.787"/>
	<text transform="matrix(1.0853 0 0 1 667.9907 429.0684)" font-family="'TradeGothic-BoldCondTwenty'" font-size="9.1147">4:00 PM</text>
	<rect x="667.991" y="465.57" fill="none" width="64.294" height="22.787"/>
	<text transform="matrix(1.0853 0 0 1 667.9907 472.1514)" font-family="'TradeGothic-BoldCondTwenty'" font-size="9.1147">5:00 PM</text>
	<rect x="667.991" y="509.663" fill="none" width="64.294" height="22.785"/>
	<text transform="matrix(1.0853 0 0 1 667.9907 516.2441)" font-family="'TradeGothic-BoldCondTwenty'" font-size="9.1147">6:00 PM</text>
	<rect x="667.991" y="552.745" fill="none" width="64.294" height="22.785"/>
	<text transform="matrix(1.0853 0 0 1 667.9907 559.3262)" font-family="'TradeGothic-BoldCondTwenty'" font-size="9.1147">7:00 PM</text>
	<rect x="667.991" y="595.823" fill="none" width="64.294" height="22.785"/>
	<text transform="matrix(1.0853 0 0 1 667.9907 602.4043)" font-family="'TradeGothic-BoldCondTwenty'" font-size="9.1147">8:00 PM</text>
	<rect x="667.991" y="640.722" fill="none" width="64.294" height="22.785"/>
	<text transform="matrix(1.0853 0 0 1 667.9907 647.3027)" font-family="'TradeGothic-BoldCondTwenty'" font-size="9.1147">9:00 PM</text>
</g>
<g>
	<rect x="798.785" y="30.715" fill="none" width="64.294" height="22.786"/>
	<text transform="matrix(1.0853 0 0 1 798.7856 37.2954)" font-family="'TradeGothic-BoldCondTwenty'" font-size="9.1147">7:00 AM</text>
	<rect x="798.785" y="74.809" fill="none" width="64.294" height="22.784"/>
	<text transform="matrix(1.0853 0 0 1 798.7856 81.3892)" font-family="'TradeGothic-BoldCondTwenty'" font-size="9.1147">8:00 AM</text>
	<rect x="798.785" y="117.889" fill="none" width="64.294" height="22.785"/>
	<text transform="matrix(1.0853 0 0 1 798.7856 124.4692)" font-family="'TradeGothic-BoldCondTwenty'" font-size="9.1147">9:00 AM</text>
	<rect x="798.785" y="161.981" fill="none" width="64.294" height="22.786"/>
	<text transform="matrix(1.0853 0 0 1 798.7856 168.561)" font-family="'TradeGothic-BoldCondTwenty'" font-size="9.1147">10:00 AM</text>
	<rect x="798.785" y="205.062" fill="none" width="64.294" height="22.786"/>
	<text transform="matrix(1.0853 0 0 1 798.7856 211.6421)" font-family="'TradeGothic-BoldCondTwenty'" font-size="9.1147">11:00 AM</text>
	<rect x="798.785" y="249.155" fill="none" width="64.294" height="22.785"/>
	<text transform="matrix(1.0853 0 0 1 798.7856 255.7358)" font-family="'TradeGothic-BoldCondTwenty'" font-size="9.1147">12:00 PM</text>
	<rect x="798.785" y="292.234" fill="none" width="64.294" height="22.787"/>
	<text transform="matrix(1.0853 0 0 1 798.7856 298.8149)" font-family="'TradeGothic-BoldCondTwenty'" font-size="9.1147">1:00 PM</text>
	<rect x="798.785" y="335.315" fill="none" width="64.294" height="22.786"/>
	<text transform="matrix(1.0853 0 0 1 798.7856 341.8965)" font-family="'TradeGothic-BoldCondTwenty'" font-size="9.1147">2:00 PM</text>
	<rect x="798.785" y="379.41" fill="none" width="64.294" height="22.785"/>
	<text transform="matrix(1.0853 0 0 1 798.7856 385.9912)" font-family="'TradeGothic-BoldCondTwenty'" font-size="9.1147">3:00 PM</text>
	<rect x="798.785" y="422.488" fill="none" width="64.294" height="22.787"/>
	<text transform="matrix(1.0853 0 0 1 798.7856 429.0684)" font-family="'TradeGothic-BoldCondTwenty'" font-size="9.1147">4:00 PM</text>
	<rect x="798.785" y="465.57" fill="none" width="64.294" height="22.787"/>
	<text transform="matrix(1.0853 0 0 1 798.7856 472.1514)" font-family="'TradeGothic-BoldCondTwenty'" font-size="9.1147">5:00 PM</text>
	<rect x="798.785" y="509.663" fill="none" width="64.294" height="22.785"/>
	<text transform="matrix(1.0853 0 0 1 798.7856 516.2441)" font-family="'TradeGothic-BoldCondTwenty'" font-size="9.1147">6:00 PM</text>
	<rect x="798.785" y="552.745" fill="none" width="64.294" height="22.785"/>
	<text transform="matrix(1.0853 0 0 1 798.7856 559.3262)" font-family="'TradeGothic-BoldCondTwenty'" font-size="9.1147">7:00 PM</text>
	<rect x="798.785" y="595.823" fill="none" width="64.294" height="22.785"/>
	<text transform="matrix(1.0853 0 0 1 798.7856 602.4043)" font-family="'TradeGothic-BoldCondTwenty'" font-size="9.1147">8:00 PM</text>
	<rect x="798.785" y="640.722" fill="none" width="64.294" height="22.785"/>
	<text transform="matrix(1.0853 0 0 1 798.7856 647.3027)" font-family="'TradeGothic-BoldCondTwenty'" font-size="9.1147">9:00 PM</text>
</g>
<rect fill="#333333" width="924.159" height="25.506"/>
<text transform="matrix(1.0853 0 0 1 831.2505 19.2715)"><tspan x="0" y="0" fill="#FFFFFF" font-family="'Univers-CondensedLight'" font-size="13.1959">SUND</tspan><tspan x="29.334" y="0" fill="#FFFFFF" font-family="'Univers-CondensedLight'" font-size="13.1959">A</tspan><tspan x="35.944" y="0" fill="#FFFFFF" font-family="'Univers-CondensedLight'" font-size="13.1959">Y</tspan></text>
<text transform="matrix(1.0853 0 0 1 40.6143 19.2715)"><tspan x="0" y="0" fill="#FFFFFF" font-family="'Univers-CondensedLight'" font-size="13.1959">MOND</tspan><tspan x="33.003" y="0" fill="#FFFFFF" font-family="'Univers-CondensedLight'" font-size="13.1959">A</tspan><tspan x="39.627" y="0" fill="#FFFFFF" font-family="'Univers-CondensedLight'" font-size="13.1959">Y</tspan></text>
<text transform="matrix(1.0853 0 0 1 171.8506 19.2715)"><tspan x="0" y="0" fill="#FFFFFF" font-family="'Univers-CondensedLight'" font-size="13.1959">TUESD</tspan><tspan x="32.989" y="0" fill="#FFFFFF" font-family="'Univers-CondensedLight'" font-size="13.1959">A</tspan><tspan x="39.613" y="0" fill="#FFFFFF" font-family="'Univers-CondensedLight'" font-size="13.1959">Y</tspan></text>
<text transform="matrix(1.0853 0 0 1 293.6875 19.2715)"><tspan x="0" y="0" fill="#FFFFFF" font-family="'Univers-CondensedLight'" font-size="13.1959">WEDNESD</tspan><tspan x="52.044" y="0" fill="#FFFFFF" font-family="'Univers-CondensedLight'" font-size="13.1959">A</tspan><tspan x="58.668" y="0" fill="#FFFFFF" font-family="'Univers-CondensedLight'" font-size="13.1959">Y</tspan></text>
<text transform="matrix(1.0853 0 0 1 430.8813 19.2715)"><tspan x="0" y="0" fill="#FFFFFF" font-family="'Univers-CondensedLight'" font-size="13.1959">THURSD</tspan><tspan x="41.065" y="0" fill="#FFFFFF" font-family="'Univers-CondensedLight'" font-size="13.1959">A</tspan><tspan x="47.676" y="0" fill="#FFFFFF" font-family="'Univers-CondensedLight'" font-size="13.1959">Y</tspan></text>
<text transform="matrix(1.0853 0 0 1 572.4614 19.2715)"><tspan x="0" y="0" fill="#FFFFFF" font-family="'Univers-CondensedLight'" font-size="13.1959">FRID</tspan><tspan x="21.997" y="0" fill="#FFFFFF" font-family="'Univers-CondensedLight'" font-size="13.1959">A</tspan><tspan x="28.622" y="0" fill="#FFFFFF" font-family="'Univers-CondensedLight'" font-size="13.1959">Y</tspan></text>
<text transform="matrix(1.0853 0 0 1 693.8481 19.2715)"><tspan x="0" y="0" fill="#FFFFFF" font-family="'Univers-CondensedLight'" font-size="13.1959">S</tspan><tspan x="6.598" y="0" fill="#FFFFFF" font-family="'Univers-CondensedLight'" font-size="13.1959">A</tspan><tspan x="13.024" y="0" fill="#FFFFFF" font-family="'Univers-CondensedLight'" font-size="13.1959">TURD</tspan><tspan x="40.155" y="0" fill="#FFFFFF" font-family="'Univers-CondensedLight'" font-size="13.1959">A</tspan><tspan x="46.779" y="0" fill="#FFFFFF" font-family="'Univers-CondensedLight'" font-size="13.1959">Y</tspan></text>
</svg>
