<?xml version="1.0" encoding="UTF-8" standalone="no"?>
<svg
   width="42"
   height="42"
   viewBox="0 0 42 42"
   version="1.1"
   id="svg38508"
   inkscape:version="1.2 (dc2aedaf03, 2022-05-15)"
   sodipodi:docname="compass.svg"
   inkscape:export-filename="../../../../OpenBoard/resources/images/stylusPalette/arrow_svg.png"
   inkscape:export-xdpi="96"
   inkscape:export-ydpi="96"
   xml:space="preserve"
   xmlns:inkscape="http://www.inkscape.org/namespaces/inkscape"
   xmlns:sodipodi="http://sodipodi.sourceforge.net/DTD/sodipodi-0.dtd"
   xmlns:xlink="http://www.w3.org/1999/xlink"
   xmlns="http://www.w3.org/2000/svg"
   xmlns:svg="http://www.w3.org/2000/svg"
   xmlns:rdf="http://www.w3.org/1999/02/22-rdf-syntax-ns#"
   xmlns:cc="http://creativecommons.org/ns#"
   xmlns:dc="http://purl.org/dc/elements/1.1/"><sodipodi:namedview
     id="namedview38510"
     pagecolor="#505050"
     bordercolor="#eeeeee"
     borderopacity="1"
     inkscape:pageshadow="0"
     inkscape:pageopacity="0"
     inkscape:pagecheckerboard="0"
     inkscape:document-units="px"
     showgrid="true"
     fit-margin-top="0"
     fit-margin-left="0"
     fit-margin-right="0"
     fit-margin-bottom="0"
     units="px"
     inkscape:zoom="5.6568545"
     inkscape:cx="-4.7729706"
     inkscape:cy="27.842328"
     inkscape:window-width="1366"
     inkscape:window-height="695"
     inkscape:window-x="0"
     inkscape:window-y="0"
     inkscape:window-maximized="1"
     inkscape:current-layer="g946"
     inkscape:document-rotation="0"
     inkscape:snap-others="true"
     inkscape:snap-global="true"
     inkscape:showpageshadow="2"
     inkscape:deskcolor="#505050"
     showguides="false"><inkscape:grid
       type="xygrid"
       id="grid7387"
       dotted="false" /></sodipodi:namedview><defs
     id="defs38505"><linearGradient
       inkscape:collect="always"
       id="metal"><stop
         style="stop-color:#dbdbdb;stop-opacity:1;"
         offset="0"
         id="stop3092" /><stop
         style="stop-color:#4f4f4f;stop-opacity:1"
         offset="1"
         id="stop3094" /></linearGradient><filter
       inkscape:collect="always"
       style="color-interpolation-filters:sRGB"
       id="filter1245"
       x="-0.012"
       y="-0.012"
       width="1.024"
       height="1.024"><feGaussianBlur
         inkscape:collect="always"
         stdDeviation="0.051216764"
         id="feGaussianBlur1247" /></filter><filter
       inkscape:collect="always"
       style="color-interpolation-filters:sRGB"
       id="filter1317"
       x="-0.0089996718"
       y="-0.018001315"
       width="1.0179993"
       height="1.0360026"><feGaussianBlur
         inkscape:collect="always"
         stdDeviation="0.097736221"
         id="feGaussianBlur1319" /></filter><linearGradient
       inkscape:collect="always"
       xlink:href="#metal"
       id="linearGradient15219"
       x1="171.80769"
       y1="203.51015"
       x2="171.89366"
       y2="213.66588"
       gradientUnits="userSpaceOnUse"
       gradientTransform="translate(0,-1.875)" /><linearGradient
       inkscape:collect="always"
       xlink:href="#metal"
       id="linearGradient998"
       x1="171.81285"
       y1="208.39061"
       x2="183.83269"
       y2="228.31491"
       gradientUnits="userSpaceOnUse"
       gradientTransform="translate(-0.014405,-1.83806)" /><linearGradient
       inkscape:collect="always"
       xlink:href="#metal"
       id="linearGradient1044"
       x1="171.87947"
       y1="198.55782"
       x2="171.85905"
       y2="204.24811"
       gradientUnits="userSpaceOnUse"
       gradientTransform="translate(0,-1.875)" /><linearGradient
       inkscape:collect="always"
       xlink:href="#metal"
       id="linearGradient1075"
       x1="171.78798"
       y1="208.23785"
       x2="171.78731"
       y2="223.22864"
       gradientUnits="userSpaceOnUse"
       gradientTransform="translate(0,-1.875)" /><linearGradient
       inkscape:collect="always"
       xlink:href="#metal"
       id="linearGradient21681"
       gradientUnits="userSpaceOnUse"
       gradientTransform="matrix(-1,0,0,1,343.81584,-1.8380606)"
       x1="171.81285"
       y1="208.39061"
       x2="183.83269"
       y2="228.31491" /></defs><g
     inkscape:label="icon"
     inkscape:groupmode="layer"
     id="layer1"
     transform="translate(-152.84748,-194.2822)"><g
       id="g946"
       transform="translate(1.9467621,-0.0521641)"
       inkscape:label="compass"><path
         id="path21679"
         style="fill:url(#linearGradient21681);fill-opacity:1;stroke:#292929;stroke-width:0.5;stroke-linecap:butt;stroke-linejoin:miter;stroke-dasharray:none;stroke-opacity:0.85098;paint-order:markers stroke fill"
         d="m 167.96329,207.98093 3.51181,2.525 -10.57438,17.82843 -3e-5,1 c 3e-5,1 -0.99997,1 -0.99997,0 v -6.00495 c 0,0 -0.01,-0.63981 0,-0.99505 0.0105,-0.3808 0.39205,-1.0234 0.39205,-1.0234 z"
         sodipodi:nodetypes="ccccccscc"
         inkscape:label="stemLeft" /><path
         id="path15060"
         style="fill:url(#linearGradient998);fill-opacity:1;stroke:#292929;stroke-width:0.5;stroke-linecap:butt;stroke-linejoin:miter;stroke-dasharray:none;stroke-opacity:0.85098;paint-order:markers stroke fill"
         d="m 175.83815,207.98093 -3.51181,2.525 10.57438,17.82843 3e-5,1 c -3e-5,1 0.99997,1 0.99997,0 v -6.00495 c 0,0 0.01,-0.63981 0,-0.99505 -0.0105,-0.3808 -0.39205,-1.0234 -0.39205,-1.0234 z"
         sodipodi:nodetypes="ccccccscc"
         inkscape:label="stemRight" /><rect
         style="display:inline;fill:url(#linearGradient1044);fill-opacity:1;stroke:#292929;stroke-width:0.5;stroke-linecap:round;stroke-linejoin:round;stroke-miterlimit:4;stroke-dasharray:none;stroke-opacity:0.85098;paint-order:markers stroke fill"
         id="rect1296"
         width="4.1184955"
         height="7.1283498"
         x="169.76129"
         y="196.7581"
         ry="0.57098866"
         inkscape:label="cap" /><path
         id="rect1226"
         style="opacity:1;mix-blend-mode:normal;fill:#ffffff;stroke:none;stroke-width:0.358013;stroke-linecap:round;stroke-linejoin:round;stroke-opacity:0.85098;paint-order:markers stroke fill"
         d="m 173.35704,196.77173 c 0.30232,9.3e-4 0.47092,0.24127 0.4901,0.40103 -1.00275,5.3e-4 -3.09903,0.002 -4.05415,0.004 0,-0.16969 0.28016,-0.41469 0.43132,-0.41469 z"
         sodipodi:nodetypes="scccs"
         inkscape:label="capGlare" /><path
         id="path2122"
         style="fill:#5d5d5d;fill-opacity:1;stroke:none;stroke-width:0.696598;stroke-linecap:round;stroke-opacity:0.85098;paint-order:markers stroke fill"
         inkscape:label="cavity"
         d="M 169.75423 198.33436 L 169.75423 202.3246 C 170.05242 202.3246 170.33431 202.09064 170.33431 201.81679 L 170.33431 198.81483 C 170.33431 198.54099 170.05242 198.33436 169.75423 198.33436 z M 171.8265 198.33436 C 171.55265 198.33436 171.33236 198.55466 171.33236 198.8285 L 171.33236 201.83046 C 171.33236 202.10431 171.55265 202.3246 171.8265 202.3246 L 171.89486 202.3246 C 172.16871 202.3246 172.389 202.10431 172.389 201.83046 L 172.389 198.8285 C 172.389 198.55466 172.16871 198.33436 171.89486 198.33436 L 171.8265 198.33436 z M 173.89486 198.33436 C 173.59667 198.33436 173.31283 198.54099 173.31283 198.81483 L 173.31283 201.81679 C 173.31283 202.09064 173.59667 202.3246 173.89486 202.3246 L 173.89486 198.33436 z " /><circle
         style="fill:#383836;fill-opacity:1;stroke:none;stroke-width:1.59292;stroke-linecap:round;stroke-linejoin:round;stroke-miterlimit:4;stroke-dasharray:none;stroke-opacity:1;paint-order:markers stroke fill;filter:url(#filter1245)"
         id="circle688"
         cx="173.81317"
         cy="209.1962"
         r="5.1216764"
         inkscape:label="headBigShadow"
         transform="matrix(1.0505739,0,0,1.0260161,-10.802658,-7.489597)" /><circle
         style="display:inline;fill:url(#linearGradient15219);fill-opacity:1;stroke:#292929;stroke-width:0.5;stroke-linecap:round;stroke-linejoin:round;stroke-miterlimit:4;stroke-dasharray:none;stroke-opacity:0.85098;paint-order:markers stroke fill"
         id="path14421"
         cx="171.80092"
         cy="206.83658"
         r="5.1216764"
         inkscape:label="headBig" /><path
         id="circle1525"
         style="display:inline;fill:none;stroke:#292929;stroke-width:0.5;stroke-linecap:round;stroke-linejoin:round;stroke-opacity:0.85098;paint-order:markers stroke fill"
         d="m 174.73078,206.78186 c 0,1.59909 -1.29632,2.89541 -2.89541,2.89541 -1.59909,0 -2.8954,-1.29632 -2.8954,-2.89541 0,-0.26903 0.0367,-0.52949 0.10534,-0.77664 0.0229,-0.0824 0.0494,-0.16342 0.0792,-0.24273 0.41239,-1.09615 1.47055,-1.87604 2.71086,-1.87604 0.0642,0 0.1279,0.002 0.19106,0.006 0.0626,0.004 0.12472,0.0102 0.1862,0.0181 1.42084,0.18489 2.51815,1.39983 2.51815,2.87106 z"
         sodipodi:nodetypes="sssssssss"
         inkscape:label="headSmall" /><path
         id="circle15908"
         style="display:inline;opacity:1;mix-blend-mode:normal;fill:#ffffff;stroke:none;stroke-width:0.476206;stroke-linecap:round;stroke-linejoin:round;stroke-opacity:0.85098;paint-order:markers stroke fill"
         d="m 174.47286,206.75354 c -0.28133,-1.13387 -1.07898,-2.0766 -2.57427,-2.0766 -1.49529,-1e-5 -2.38721,0.9113 -2.70123,2.05244 0.045,-1.41914 1.12597,-2.60475 2.70403,-2.59451 1.42943,0.01 2.62285,1.30847 2.57147,2.61867 z"
         sodipodi:nodetypes="cscsc"
         inkscape:label="headSmallGlare" /><path
         style="color:#000000;display:inline;fill:#383836;fill-opacity:1;stroke:none;stroke-width:1;stroke-linecap:round;stroke-dasharray:none;filter:url(#filter1317)"
         d="m 160.23359,208.81087 a 1.4477031,1.4477031 0 0 0 -1.40529,1.49012 c 0.11481,3.83288 1.89109,6.85022 4.41663,8.7654 2.52553,1.91518 5.74079,2.8002 8.91524,2.77381 3.17445,-0.0264 6.34582,-0.96236 8.7767,-2.90389 2.43088,-1.94151 4.05318,-4.97161 3.95009,-8.72014 a 1.4477031,1.4477031 0 0 0 -1.4873,-1.4053 1.4477031,1.4477031 0 0 0 -1.40811,1.4873 c 0.0801,2.91153 -1.05058,4.92467 -2.86431,6.37328 -1.81372,1.44862 -4.37886,2.25164 -6.98968,2.27335 -2.61083,0.0217 -5.22908,-0.73479 -7.14239,-2.18569 -1.9133,-1.45092 -3.18101,-3.52626 -3.27146,-6.54577 a 1.4477031,1.4477031 0 0 0 -1.49012,-1.40247 z"
         id="path1315"
         inkscape:label="arcShadow" /><path
         style="color:#000000;display:inline;fill:url(#linearGradient1075);fill-opacity:1;stroke:#292929;stroke-width:0.5;stroke-linecap:round;stroke-dasharray:none;stroke-opacity:0.85098;paint-order:markers stroke fill"
         d="m 160.21075,208.23102 a 1.4477031,1.4477031 0 0 0 -1.40529,1.49012 c 0.11481,3.83288 1.89109,6.85022 4.41663,8.7654 2.52553,1.91518 5.74079,2.8002 8.91524,2.77381 3.17445,-0.0264 6.34582,-0.96236 8.7767,-2.90389 2.43088,-1.94151 4.05318,-4.97161 3.95009,-8.72014 a 1.4477031,1.4477031 0 0 0 -1.4873,-1.4053 1.4477031,1.4477031 0 0 0 -1.40811,1.4873 c 0.0801,2.91153 -1.05058,4.92467 -2.86431,6.37328 -1.81372,1.44862 -4.37886,2.25164 -6.98968,2.27335 -2.61083,0.0217 -5.22908,-0.73479 -7.14239,-2.18569 -1.9133,-1.45092 -3.18101,-3.52626 -3.27146,-6.54577 a 1.4477031,1.4477031 0 0 0 -1.49012,-1.40247 z"
         id="path18640"
         inkscape:label="arc" /><path
         style="display:inline;opacity:1;mix-blend-mode:normal;fill:none;fill-opacity:1;stroke:#ffffff;stroke-width:0.5;stroke-linecap:round;stroke-opacity:0.85098;paint-order:markers stroke fill"
         d="m 184.61792,209.55175 c -0.0959,-1.15935 -2.03132,-1.67246 -2.38525,-0.0265 0.20504,6.09058 -5.15206,9.12527 -10.4131,9.06687 -5.0869,-0.0565 -10.34105,-3.08203 -10.36205,-8.93548 -0.12012,-1.58021 -2.26605,-1.56236 -2.38858,-0.002"
         id="path1744"
         sodipodi:nodetypes="csccc"
         inkscape:label="arcGlare" /></g></g><metadata
     id="metadata854"><rdf:RDF><cc:Work
         rdf:about=""><cc:license
           rdf:resource="http://creativecommons.org/publicdomain/zero/1.0/" /><dc:format>image/svg+xml</dc:format><dc:type
           rdf:resource="http://purl.org/dc/dcmitype/StillImage" /></cc:Work><cc:License
         rdf:about="http://creativecommons.org/publicdomain/zero/1.0/"><cc:permits
           rdf:resource="http://creativecommons.org/ns#Reproduction" /><cc:permits
           rdf:resource="http://creativecommons.org/ns#Distribution" /><cc:permits
           rdf:resource="http://creativecommons.org/ns#DerivativeWorks" /></cc:License></rdf:RDF></metadata></svg>
