<?xml version="1.0" encoding="UTF-8" standalone="no"?>
<svg
   width="42"
   height="42"
   viewBox="0 0 42 42"
   version="1.1"
   id="svg38508"
   inkscape:version="1.2 (1:1.2+202205241504+da316b6974)"
   sodipodi:docname="keyboard.svg"
   inkscape:export-filename="../../../../OpenBoard/resources/images/stylusPalette/arrow_svg.png"
   inkscape:export-xdpi="96"
   inkscape:export-ydpi="96"
   xml:space="preserve"
   xmlns:inkscape="http://www.inkscape.org/namespaces/inkscape"
   xmlns:sodipodi="http://sodipodi.sourceforge.net/DTD/sodipodi-0.dtd"
   xmlns:xlink="http://www.w3.org/1999/xlink"
   xmlns="http://www.w3.org/2000/svg"
   xmlns:svg="http://www.w3.org/2000/svg"
   xmlns:rdf="http://www.w3.org/1999/02/22-rdf-syntax-ns#"
   xmlns:cc="http://creativecommons.org/ns#"
   xmlns:dc="http://purl.org/dc/elements/1.1/"><sodipodi:namedview
     id="namedview38510"
     pagecolor="#505050"
     bordercolor="#eeeeee"
     borderopacity="1"
     inkscape:pageshadow="0"
     inkscape:pageopacity="0"
     inkscape:pagecheckerboard="0"
     inkscape:document-units="px"
     showgrid="true"
     fit-margin-top="0"
     fit-margin-left="0"
     fit-margin-right="0"
     fit-margin-bottom="0"
     units="px"
     inkscape:zoom="11.313709"
     inkscape:cx="12.374369"
     inkscape:cy="14.760854"
     inkscape:window-width="1920"
     inkscape:window-height="1007"
     inkscape:window-x="0"
     inkscape:window-y="0"
     inkscape:window-maximized="1"
     inkscape:current-layer="g946"
     inkscape:document-rotation="0"
     inkscape:snap-others="true"
     inkscape:snap-global="true"
     inkscape:showpageshadow="2"
     inkscape:deskcolor="#505050"
     showguides="true"><inkscape:grid
       type="xygrid"
       id="grid7387"
       dotted="false" /></sodipodi:namedview><defs
     id="defs38505"><linearGradient
       inkscape:collect="always"
       id="linearGradient34578"><stop
         style="stop-color:#eaeaea;stop-opacity:1;"
         offset="0"
         id="stop34574" /><stop
         style="stop-color:#979797;stop-opacity:0.9921568;"
         offset="1"
         id="stop34576" /></linearGradient><linearGradient
       inkscape:collect="always"
       id="linearGradient29525"><stop
         style="stop-color:#8a8a8a;stop-opacity:0.99607843;"
         offset="0"
         id="stop29521" /><stop
         style="stop-color:#c3c5c6;stop-opacity:1;"
         offset="1"
         id="stop29523" /></linearGradient><linearGradient
       inkscape:collect="always"
       xlink:href="#linearGradient29525"
       id="linearGradient29527"
       x1="170.90071"
       y1="225.33437"
       x2="170.90071"
       y2="208.33437"
       gradientUnits="userSpaceOnUse"
       gradientTransform="matrix(0.89655178,0,0,0.82352938,18.231096,36.764896)" /><linearGradient
       inkscape:collect="always"
       xlink:href="#linearGradient34578"
       id="linearGradient34580"
       x1="170.90071"
       y1="207.33437"
       x2="170.90071"
       y2="226.33437"
       gradientUnits="userSpaceOnUse"
       gradientTransform="matrix(0.90322626,0,0,0.84236574,17.087105,32.678052)" /></defs><g
     inkscape:label="icon"
     inkscape:groupmode="layer"
     id="layer1"
     transform="translate(-152.84748,-194.2822)"><g
       id="g946"
       transform="translate(1.9467621,-0.0521641)"
       inkscape:label="keyboardOn"><rect
         style="display:inline;opacity:1;fill:#292929;fill-opacity:0.92549;stroke-width:0.464016;stroke-linecap:round;paint-order:markers stroke fill"
         id="rect1001"
         width="30.000006"
         height="18.000004"
         x="156.90071"
         y="206.33437"
         ry="0.85714167"
         inkscape:label="border" /><rect
         style="display:inline;opacity:1;fill:url(#linearGradient34580);fill-opacity:1;stroke-width:0.422643;stroke-linecap:round;paint-order:markers stroke fill"
         id="rect2516"
         width="28.000015"
         height="15.999998"
         x="157.90071"
         y="207.33437"
         ry="0.8374157"
         inkscape:label="glade" /><rect
         style="opacity:1;fill:url(#linearGradient29527);fill-opacity:1;stroke-width:0.380965;stroke-linecap:round;paint-order:markers stroke fill"
         id="rect5422"
         width="26.000002"
         height="14"
         x="158.90071"
         y="208.33437"
         ry="0.82352799"
         inkscape:label="surface" /><g
         id="g57661"
         inkscape:label="keys"
         transform="matrix(0.88889031,0,0,0.79296464,19.544305,43.338903)"><g
           id="g11971"
           inkscape:label="keycap"><rect
             style="opacity:1;fill:#6a6a6a;fill-opacity:1;stroke-width:0.560755;stroke-linecap:round;paint-order:markers stroke fill"
             id="rect9769"
             width="3.3628631"
             height="3.3662014"
             x="157.90071"
             y="209.33437"
             ry="0.40582284"
             inkscape:label="botom" /><rect
             style="display:inline;opacity:1;fill:#e5e5e5;fill-opacity:1;stroke-width:0.5;stroke-linecap:round;paint-order:markers stroke fill"
             id="rect11774"
             width="3"
             height="3"
             x="157.90073"
             y="209.33437"
             ry="0.36167431"
             inkscape:label="top" /><path
             id="rect437"
             style="display:inline;opacity:1;fill:#ffffff;stroke-width:0.324292;stroke-linecap:round;paint-order:markers stroke fill;fill-opacity:1"
             inkscape:label="glare"
             d="m 158.27239,209.33437 h 2.25668 c 0.2059,0 0.37166,0.16576 0.37166,0.37166 -0.009,0.34371 -0.0107,0.0402 -0.009,0.34014 l -2.9894,-6.1e-4 c 0.003,-0.19127 0.004,0.004 -0.002,-0.3393 0,-0.2059 0.16576,-0.37166 0.37166,-0.37166 z"
             sodipodi:nodetypes="ssccccss" /></g><g
           id="g16477"
           inkscape:label="keycap"
           transform="translate(4.0003802,0.00146138)"><rect
             style="opacity:1;fill:#6a6a6a;fill-opacity:1;stroke-width:0.585826;stroke-linecap:round;paint-order:markers stroke fill"
             id="rect16473"
             width="3.6905925"
             height="3.3476858"
             x="157.55193"
             y="209.33437"
             ry="0.40359065"
             inkscape:label="botom" /><rect
             style="display:inline;opacity:1;fill:#e5e5e5;fill-opacity:1;stroke-width:0.5;stroke-linecap:round;paint-order:markers stroke fill"
             id="rect16475"
             width="3"
             height="3"
             x="157.90073"
             y="209.33437"
             ry="0.36167431"
             inkscape:label="top" /><path
             id="rect437-3"
             style="display:inline;fill:#ffffff;fill-opacity:1;stroke-width:0.324292;stroke-linecap:round;paint-order:markers stroke fill"
             inkscape:label="glare"
             d="m 158.27214,209.33767 h 2.25668 c 0.2059,0 0.37166,0.16576 0.37166,0.37166 -0.009,0.34371 -0.0107,0.0402 -0.009,0.34014 l -2.9894,-6.1e-4 c 0.003,-0.19127 0.004,0.004 -0.002,-0.3393 0,-0.2059 0.16576,-0.37166 0.37166,-0.37166 z"
             sodipodi:nodetypes="ssccccss" /></g><g
           id="g16483"
           inkscape:label="keycap"
           transform="translate(8.0055924,8.1344484e-4)"><rect
             style="opacity:1;fill:#6a6a6a;fill-opacity:1;stroke-width:0.585826;stroke-linecap:round;paint-order:markers stroke fill"
             id="rect16479"
             width="3.6905925"
             height="3.3476858"
             x="157.55193"
             y="209.33437"
             ry="0.40359065"
             inkscape:label="botom" /><rect
             style="display:inline;opacity:1;fill:#e5e5e5;fill-opacity:1;stroke-width:0.5;stroke-linecap:round;paint-order:markers stroke fill"
             id="rect16481"
             width="3"
             height="3"
             x="157.90073"
             y="209.33437"
             ry="0.36167431"
             inkscape:label="top" /><path
             id="rect437-6"
             style="display:inline;fill:#ffffff;fill-opacity:1;stroke-width:0.324292;stroke-linecap:round;paint-order:markers stroke fill"
             inkscape:label="glare"
             d="m 158.27384,209.33446 h 2.25668 c 0.2059,0 0.37166,0.16576 0.37166,0.37166 -0.009,0.34371 -0.0107,0.0402 -0.009,0.34014 l -2.9894,-6.1e-4 c 0.003,-0.19127 0.004,0.004 -0.002,-0.3393 0,-0.2059 0.16576,-0.37166 0.37166,-0.37166 z"
             sodipodi:nodetypes="ssccccss" /></g><g
           id="g16489"
           inkscape:label="keycap"
           transform="translate(12.00648,8.5644042e-4)"><rect
             style="opacity:1;fill:#6a6a6a;fill-opacity:1;stroke-width:0.585826;stroke-linecap:round;paint-order:markers stroke fill"
             id="rect16485"
             width="3.6905925"
             height="3.3476858"
             x="157.55193"
             y="209.33437"
             ry="0.40359065"
             inkscape:label="botom" /><rect
             style="display:inline;opacity:1;fill:#e5e5e5;fill-opacity:1;stroke-width:0.5;stroke-linecap:round;paint-order:markers stroke fill"
             id="rect16487"
             width="3"
             height="3"
             x="157.90073"
             y="209.33437"
             ry="0.36167431"
             inkscape:label="top" /><path
             id="rect437-7"
             style="display:inline;fill:#ffffff;fill-opacity:1;stroke-width:0.324292;stroke-linecap:round;paint-order:markers stroke fill"
             inkscape:label="glare"
             d="m 158.27212,209.33864 h 2.25668 c 0.2059,0 0.37166,0.16576 0.37166,0.37166 -0.009,0.34371 -0.0107,0.0402 -0.009,0.34014 l -2.9894,-6.1e-4 c 0.003,-0.19127 0.004,0.004 -0.002,-0.3393 0,-0.2059 0.16576,-0.37166 0.37166,-0.37166 z"
             sodipodi:nodetypes="ssccccss" /></g><g
           id="g17279"
           inkscape:label="keycap"
           transform="translate(16.005929,0.00118665)"><rect
             style="opacity:1;fill:#6a6a6a;fill-opacity:1;stroke-width:0.585826;stroke-linecap:round;paint-order:markers stroke fill"
             id="rect17275"
             width="3.6905925"
             height="3.3476858"
             x="157.55193"
             y="209.33437"
             ry="0.40359065"
             inkscape:label="botom" /><rect
             style="display:inline;opacity:1;fill:#e5e5e5;fill-opacity:1;stroke-width:0.5;stroke-linecap:round;paint-order:markers stroke fill"
             id="rect17277"
             width="3"
             height="3"
             x="157.90073"
             y="209.33437"
             ry="0.36167431"
             inkscape:label="top" /><path
             id="rect437-5"
             style="display:inline;fill:#ffffff;fill-opacity:1;stroke-width:0.324292;stroke-linecap:round;paint-order:markers stroke fill"
             inkscape:label="glare"
             d="m 158.27347,209.33434 h 2.25668 c 0.2059,0 0.37166,0.16576 0.37166,0.37166 -0.009,0.34371 -0.0107,0.0402 -0.009,0.34014 l -2.9894,-6.1e-4 c 0.003,-0.19127 0.004,0.004 -0.002,-0.3393 0,-0.2059 0.16576,-0.37166 0.37166,-0.37166 z"
             sodipodi:nodetypes="ssccccss" /></g><g
           id="g17285"
           inkscape:label="keycap"
           transform="translate(20.004841,0.00374631)"><rect
             style="opacity:1;fill:#6a6a6a;fill-opacity:1;stroke-width:0.585826;stroke-linecap:round;paint-order:markers stroke fill"
             id="rect17281"
             width="3.6905925"
             height="3.3476858"
             x="157.55193"
             y="209.33437"
             ry="0.40359065"
             inkscape:label="botom" /><rect
             style="display:inline;opacity:1;fill:#e5e5e5;fill-opacity:1;stroke-width:0.5;stroke-linecap:round;paint-order:markers stroke fill"
             id="rect17283"
             width="3"
             height="3"
             x="157.90073"
             y="209.33437"
             ry="0.36167431"
             inkscape:label="top" /><path
             id="rect437-35"
             style="display:inline;fill:#ffffff;fill-opacity:1;stroke-width:0.324292;stroke-linecap:round;paint-order:markers stroke fill"
             inkscape:label="glare"
             d="m 158.27443,209.33776 h 2.25668 c 0.2059,0 0.37166,0.16576 0.37166,0.37166 -0.009,0.34371 -0.0107,0.0402 -0.009,0.34014 l -2.9894,-6.1e-4 c 0.003,-0.19127 0.004,0.004 -0.002,-0.3393 0,-0.2059 0.16576,-0.37166 0.37166,-0.37166 z"
             sodipodi:nodetypes="ssccccss" /></g><g
           id="g17291"
           inkscape:label="keycap"
           transform="translate(24.003831,0.00152711)"><rect
             style="opacity:1;fill:#6a6a6a;fill-opacity:1;stroke-width:0.55772;stroke-linecap:round;paint-order:markers stroke fill"
             id="rect17287"
             width="3.3449612"
             height="3.3476858"
             x="157.55193"
             y="209.33437"
             ry="0.40359065"
             inkscape:label="botom" /><rect
             style="display:inline;opacity:1;fill:#e5e5e5;fill-opacity:1;stroke-width:0.5;stroke-linecap:round;paint-order:markers stroke fill"
             id="rect17289"
             width="3"
             height="3"
             x="157.90073"
             y="209.33437"
             ry="0.36167431"
             inkscape:label="top" /></g><g
           id="g18061"
           inkscape:label="keycap"
           transform="translate(6.0081467,4.0033736)"><rect
             style="opacity:1;fill:#6a6a6a;fill-opacity:1;stroke-width:0.585826;stroke-linecap:round;paint-order:markers stroke fill"
             id="rect18057"
             width="3.6905925"
             height="3.3476858"
             x="157.55193"
             y="209.33437"
             ry="0.40359065"
             inkscape:label="botom" /><rect
             style="display:inline;opacity:1;fill:#e5e5e5;fill-opacity:1;stroke-width:0.5;stroke-linecap:round;paint-order:markers stroke fill"
             id="rect18059"
             width="3"
             height="3"
             x="157.90073"
             y="209.33437"
             ry="0.36167431"
             inkscape:label="top" /><path
             id="rect437-9"
             style="display:inline;fill:#ffffff;fill-opacity:1;stroke-width:0.324292;stroke-linecap:round;paint-order:markers stroke fill"
             inkscape:label="glare"
             d="m 158.272,209.33732 h 2.25668 c 0.2059,0 0.37166,0.16576 0.37166,0.37166 -0.009,0.34371 -0.0107,0.0402 -0.009,0.34014 l -2.9894,-6.1e-4 c 0.003,-0.19127 0.004,0.004 -0.002,-0.3393 0,-0.2059 0.16576,-0.37166 0.37166,-0.37166 z"
             sodipodi:nodetypes="ssccccss" /></g><g
           id="g19560"
           inkscape:label="keycap"
           transform="translate(10.007871,4.0058923)"><rect
             style="opacity:1;fill:#6a6a6a;fill-opacity:1;stroke-width:0.585826;stroke-linecap:round;paint-order:markers stroke fill"
             id="rect19556"
             width="3.6905925"
             height="3.3476858"
             x="157.55193"
             y="209.33437"
             ry="0.40359065"
             inkscape:label="botom" /><rect
             style="display:inline;opacity:1;fill:#e5e5e5;fill-opacity:1;stroke-width:0.5;stroke-linecap:round;paint-order:markers stroke fill"
             id="rect19558"
             width="3"
             height="3"
             x="157.90073"
             y="209.33437"
             ry="0.36167431"
             inkscape:label="top" /><path
             id="rect437-2"
             style="display:inline;fill:#ffffff;fill-opacity:1;stroke-width:0.324292;stroke-linecap:round;paint-order:markers stroke fill"
             inkscape:label="glare"
             d="m 158.27243,209.3365 h 2.25668 c 0.2059,0 0.37166,0.16576 0.37166,0.37166 -0.009,0.34371 -0.0107,0.0402 -0.009,0.34014 l -2.9894,-6.1e-4 c 0.003,-0.19127 0.004,0.004 -0.002,-0.3393 0,-0.2059 0.16576,-0.37166 0.37166,-0.37166 z"
             sodipodi:nodetypes="ssccccss" /></g><g
           id="g19566"
           inkscape:label="keycap"
           transform="translate(14.00594,3.9991391)"><rect
             style="opacity:1;fill:#6a6a6a;fill-opacity:1;stroke-width:0.585826;stroke-linecap:round;paint-order:markers stroke fill"
             id="rect19562"
             width="3.6905925"
             height="3.3476858"
             x="157.55193"
             y="209.33437"
             ry="0.40359065"
             inkscape:label="botom" /><rect
             style="display:inline;opacity:1;fill:#e5e5e5;fill-opacity:1;stroke-width:0.5;stroke-linecap:round;paint-order:markers stroke fill"
             id="rect19564"
             width="3"
             height="3"
             x="157.90073"
             y="209.33437"
             ry="0.36167431"
             inkscape:label="top" /><path
             id="rect437-70"
             style="display:inline;fill:#ffffff;fill-opacity:1;stroke-width:0.324292;stroke-linecap:round;paint-order:markers stroke fill"
             inkscape:label="glare"
             d="m 158.27542,209.3375 h 2.25668 c 0.2059,0 0.37166,0.16576 0.37166,0.37166 -0.009,0.34371 -0.0107,0.0402 -0.009,0.34014 l -2.9894,-6.1e-4 c 0.003,-0.19127 0.004,0.004 -0.002,-0.3393 0,-0.2059 0.16576,-0.37166 0.37166,-0.37166 z"
             sodipodi:nodetypes="ssccccss" /></g><g
           id="g19572"
           inkscape:label="keycap"
           transform="translate(17.999026,4.0043066)"><rect
             style="opacity:1;fill:#6a6a6a;fill-opacity:1;stroke-width:0.585826;stroke-linecap:round;paint-order:markers stroke fill"
             id="rect19568"
             width="3.6905925"
             height="3.3476858"
             x="157.55193"
             y="209.33437"
             ry="0.40359065"
             inkscape:label="botom" /><rect
             style="display:inline;opacity:1;fill:#e5e5e5;fill-opacity:1;stroke-width:0.5;stroke-linecap:round;paint-order:markers stroke fill"
             id="rect19570"
             width="3"
             height="3"
             x="157.90073"
             y="209.33437"
             ry="0.36167431"
             inkscape:label="top" /><path
             id="rect437-93"
             style="display:inline;fill:#ffffff;fill-opacity:1;stroke-width:0.324292;stroke-linecap:round;paint-order:markers stroke fill"
             inkscape:label="glare"
             d="m 158.27321,209.33408 h 2.25668 c 0.2059,0 0.37166,0.16576 0.37166,0.37166 -0.009,0.34371 -0.0107,0.0402 -0.009,0.34014 l -2.9894,-6.1e-4 c 0.003,-0.19127 0.004,0.004 -0.002,-0.3393 0,-0.2059 0.16576,-0.37166 0.37166,-0.37166 z"
             sodipodi:nodetypes="ssccccss" /></g><g
           id="g19620"
           inkscape:label="keycap"
           transform="translate(3.9995853,8.0036705)"><rect
             style="opacity:1;fill:#6a6a6a;fill-opacity:1;stroke-width:0.585826;stroke-linecap:round;paint-order:markers stroke fill"
             id="rect19616"
             width="3.6905925"
             height="3.3476858"
             x="157.55193"
             y="209.33437"
             ry="0.40359065"
             inkscape:label="botom" /><rect
             style="display:inline;opacity:1;fill:#e5e5e5;fill-opacity:1;stroke-width:0.5;stroke-linecap:round;paint-order:markers stroke fill"
             id="rect19618"
             width="3"
             height="3"
             x="157.90073"
             y="209.33437"
             ry="0.36167431"
             inkscape:label="top" /><path
             id="rect437-626"
             style="display:inline;fill:#ffffff;fill-opacity:1;stroke-width:0.324292;stroke-linecap:round;paint-order:markers stroke fill"
             inkscape:label="glare"
             d="m 158.27104,209.33895 h 2.25668 c 0.2059,0 0.37166,0.16576 0.37166,0.37166 -0.009,0.34371 -0.0107,0.0402 -0.009,0.34014 l -2.9894,-6.1e-4 c 0.003,-0.19127 0.004,0.004 -0.002,-0.3393 0,-0.2059 0.16576,-0.37166 0.37166,-0.37166 z"
             sodipodi:nodetypes="ssccccss" /></g><g
           id="g19626"
           inkscape:label="keycap"
           transform="translate(8.0047975,8.0030226)"><rect
             style="opacity:1;fill:#6a6a6a;fill-opacity:1;stroke-width:0.585826;stroke-linecap:round;paint-order:markers stroke fill"
             id="rect19622"
             width="3.6905925"
             height="3.3476858"
             x="157.55193"
             y="209.33437"
             ry="0.40359065"
             inkscape:label="botom" /><rect
             style="display:inline;opacity:1;fill:#e5e5e5;fill-opacity:1;stroke-width:0.5;stroke-linecap:round;paint-order:markers stroke fill"
             id="rect19624"
             width="3"
             height="3"
             x="157.90073"
             y="209.33437"
             ry="0.36167431"
             inkscape:label="top" /><path
             id="rect437-1"
             style="display:inline;fill:#ffffff;fill-opacity:1;stroke-width:0.324292;stroke-linecap:round;paint-order:markers stroke fill"
             inkscape:label="glare"
             d="m 158.27265,209.33363 h 2.25668 c 0.2059,0 0.37166,0.16576 0.37166,0.37166 -0.009,0.34371 -0.0107,0.0402 -0.009,0.34014 l -2.9894,-6.1e-4 c 0.003,-0.19127 0.004,0.004 -0.002,-0.3393 0,-0.2059 0.16576,-0.37166 0.37166,-0.37166 z"
             sodipodi:nodetypes="ssccccss" /></g><g
           id="g19632"
           inkscape:label="keycap"
           transform="translate(12.005686,8.0030656)"><rect
             style="opacity:1;fill:#6a6a6a;fill-opacity:1;stroke-width:0.585826;stroke-linecap:round;paint-order:markers stroke fill"
             id="rect19628"
             width="3.6905925"
             height="3.3476858"
             x="157.55193"
             y="209.33437"
             ry="0.40359065"
             inkscape:label="botom" /><rect
             style="display:inline;opacity:1;fill:#e5e5e5;fill-opacity:1;stroke-width:0.5;stroke-linecap:round;paint-order:markers stroke fill"
             id="rect19630"
             width="3"
             height="3"
             x="157.90073"
             y="209.33437"
             ry="0.36167431"
             inkscape:label="top" /><path
             id="rect437-8"
             style="display:inline;fill:#ffffff;fill-opacity:1;stroke-width:0.324292;stroke-linecap:round;paint-order:markers stroke fill"
             inkscape:label="glare"
             d="m 158.27505,209.33955 h 2.25668 c 0.2059,0 0.37166,0.16576 0.37166,0.37166 -0.009,0.34371 -0.0107,0.0402 -0.009,0.34014 l -2.9894,-6.1e-4 c 0.003,-0.19127 0.004,0.004 -0.002,-0.3393 0,-0.2059 0.16576,-0.37166 0.37166,-0.37166 z"
             sodipodi:nodetypes="ssccccss" /></g><g
           id="g19638"
           inkscape:label="keycap"
           transform="translate(16.005135,8.0033958)"><rect
             style="opacity:1;fill:#6a6a6a;fill-opacity:1;stroke-width:0.585826;stroke-linecap:round;paint-order:markers stroke fill"
             id="rect19634"
             width="3.6905925"
             height="3.3476858"
             x="157.55193"
             y="209.33437"
             ry="0.40359065"
             inkscape:label="botom" /><rect
             style="display:inline;opacity:1;fill:#e5e5e5;fill-opacity:1;stroke-width:0.5;stroke-linecap:round;paint-order:markers stroke fill"
             id="rect19636"
             width="3"
             height="3"
             x="157.90073"
             y="209.33437"
             ry="0.36167431"
             inkscape:label="top" /><path
             id="rect437-79"
             style="display:inline;fill:#ffffff;fill-opacity:1;stroke-width:0.324292;stroke-linecap:round;paint-order:markers stroke fill"
             inkscape:label="glare"
             d="m 158.2758,209.3357 h 2.25668 c 0.2059,0 0.37166,0.16576 0.37166,0.37166 -0.009,0.34371 -0.0107,0.0402 -0.009,0.34014 l -2.9894,-6.1e-4 c 0.003,-0.19127 0.004,0.004 -0.002,-0.3393 0,-0.2059 0.16576,-0.37166 0.37166,-0.37166 z"
             sodipodi:nodetypes="ssccccss" /></g><g
           id="g19644"
           inkscape:label="keycap"
           transform="translate(20.004047,8.0059555)"><rect
             style="opacity:1;fill:#6a6a6a;fill-opacity:1;stroke-width:0.585826;stroke-linecap:round;paint-order:markers stroke fill"
             id="rect19640"
             width="3.6905925"
             height="3.3476858"
             x="157.55193"
             y="209.33437"
             ry="0.40359065"
             inkscape:label="botom" /><rect
             style="display:inline;opacity:1;fill:#e5e5e5;fill-opacity:1;stroke-width:0.5;stroke-linecap:round;paint-order:markers stroke fill"
             id="rect19642"
             width="3"
             height="3"
             x="157.90073"
             y="209.33437"
             ry="0.36167431"
             inkscape:label="top" /><path
             id="rect437-23"
             style="display:inline;fill:#ffffff;fill-opacity:1;stroke-width:0.324292;stroke-linecap:round;paint-order:markers stroke fill"
             inkscape:label="glare"
             d="m 158.27355,209.33561 h 2.25668 c 0.2059,0 0.37166,0.16576 0.37166,0.37166 -0.009,0.34371 -0.0107,0.0402 -0.009,0.34014 l -2.9894,-6.1e-4 c 0.003,-0.19127 0.004,0.004 -0.002,-0.3393 0,-0.2059 0.16576,-0.37166 0.37166,-0.37166 z"
             sodipodi:nodetypes="ssccccss" /></g><g
           id="g20506"
           inkscape:label="keycap"
           transform="translate(22.005592,4.0014809)"><path
             id="path21339"
             style="display:inline;opacity:1;fill:#6a6a6a;fill-opacity:1;stroke-width:0.683941;stroke-linecap:round;paint-order:markers stroke fill"
             inkscape:label="top"
             d="m 157.93858,209.33589 c -0.21436,0 -0.38657,0.1691 -0.38657,0.37957 v 2.58769 c 0,0.2105 0.17221,0.37932 0.38657,0.37957 l 1.43476,0.002 c 0.23576,0.002 0.30618,0.15291 0.31215,0.36228 v 3.26113 c 0,0.21049 0.17221,0.37956 0.38657,0.37956 h 2.43649 c 0.21437,0 0.38658,-0.16907 0.38658,-0.37956 v -4.19999 -0.28725 -2.10513 c 0,-0.21047 -0.17221,-0.37957 -0.38658,-0.37957 z"
             sodipodi:nodetypes="ssssccssssccsss" /><path
             id="rect20504"
             style="display:inline;opacity:1;fill:#e5e5e5;fill-opacity:1;stroke-width:0.645136;stroke-linecap:round;paint-order:markers stroke fill"
             inkscape:label="top"
             d="m 158.26231,209.33484 c -0.20036,0 -0.36132,0.16096 -0.36132,0.36132 v 2.27735 c 0,0.20037 0.16096,0.3608 0.36132,0.36133 l 1.32667,0.004 c 0.22036,0.002 0.30057,0.14364 0.30615,0.34294 v 3.29025 c 0,0.20036 0.16096,0.36132 0.36132,0.36132 h 2.27735 c 0.20037,0 0.36133,-0.16096 0.36133,-0.36132 v -3.99805 -0.27344 -2.00391 c 0,-0.20036 -0.16096,-0.36132 -0.36133,-0.36132 z"
             sodipodi:nodetypes="ssssccssssccsss" /><path
             id="rect437-53-2-9"
             style="display:inline;fill:#ffffff;fill-opacity:1;stroke-width:0.324292;stroke-linecap:round;paint-order:markers stroke fill"
             inkscape:label="glare"
             d="m 158.26949,209.33731 4.25239,0.003 c 0.2059,1.4e-4 0.37166,0.16576 0.37166,0.37166 -0.009,0.34371 -0.0107,0.0402 -0.009,0.34014 l -4.98511,-0.003 c 0.003,-0.19127 0.004,0.004 -0.002,-0.3393 0,-0.2059 0.16576,-0.37166 0.37166,-0.37166 z"
             sodipodi:nodetypes="ssccccss" /></g><g
           id="g23728"
           inkscape:label="keycap"
           transform="translate(0.00404143,4.003799)"><path
             id="rect23724"
             style="opacity:1;fill:#6a6a6a;stroke-width:0.560755;stroke-linecap:round;paint-order:markers stroke fill"
             inkscape:label="botom"
             d="m 158.30653,209.33437 4.52575,-6.8e-4 c 0.22483,-3e-5 0.40582,0.18099 0.40582,0.40582 v 2.55455 c 0,0.22483 -0.18099,0.40468 -0.40582,0.40583 l -4.51803,0.0231 c -0.22482,10e-4 -0.40515,-0.181 -0.40582,-0.40583 l -0.008,-2.57707 c -6.7e-4,-0.22483 0.181,-0.40593 0.40582,-0.40582 z"
             sodipodi:nodetypes="ssssssssss" /><path
             id="rect23726"
             style="display:inline;opacity:1;fill:#e5e5e5;stroke-width:0.5;stroke-linecap:round;paint-order:markers stroke fill"
             inkscape:label="top"
             d="m 158.2624,209.33437 4.2765,-0.003 c 0.20037,-1.3e-4 0.36168,0.1613 0.36168,0.36167 v 2.27665 c 0,0.20037 -0.16131,0.36155 -0.36168,0.36168 l -4.2765,0.003 c -0.20037,1.3e-4 -0.36167,-0.16131 -0.36167,-0.36168 v -2.27665 c 0,-0.20037 0.1613,-0.36154 0.36167,-0.36167 z"
             sodipodi:nodetypes="sssssssss" /><path
             id="rect437-53"
             style="display:inline;fill:#ffffff;fill-opacity:1;stroke-width:0.324292;stroke-linecap:round;paint-order:markers stroke fill"
             inkscape:label="glare"
             d="m 158.27592,209.32818 4.25239,0.003 c 0.2059,1.4e-4 0.37166,0.16576 0.37166,0.37166 -0.009,0.34371 -0.0107,0.0402 -0.009,0.34014 l -4.98511,-0.003 c 0.003,-0.19127 0.004,0.004 -0.002,-0.3393 0,-0.2059 0.16576,-0.37166 0.37166,-0.37166 z"
             sodipodi:nodetypes="ssccccss" /></g><g
           id="g24610"
           inkscape:label="keycap"
           transform="translate(0.00294885,8.0002144)"><rect
             style="opacity:1;fill:#6a6a6a;fill-opacity:1;stroke-width:0.560755;stroke-linecap:round;paint-order:markers stroke fill"
             id="rect24606"
             width="3.3628631"
             height="3.3662014"
             x="157.90071"
             y="209.33437"
             ry="0.40582284"
             inkscape:label="botom" /><rect
             style="display:inline;opacity:1;fill:#e5e5e5;fill-opacity:1;stroke-width:0.5;stroke-linecap:round;paint-order:markers stroke fill"
             id="rect24608"
             width="3"
             height="3"
             x="157.90073"
             y="209.33437"
             ry="0.36167431"
             inkscape:label="top" /><path
             id="rect437-60"
             style="display:inline;fill:#ffffff;fill-opacity:1;stroke-width:0.324292;stroke-linecap:round;paint-order:markers stroke fill"
             inkscape:label="glare"
             d="m 158.27511,209.33151 h 2.25668 c 0.2059,0 0.37166,0.16576 0.37166,0.37166 -0.009,0.34371 -0.0107,0.0402 -0.009,0.34014 l -2.9894,-6.1e-4 c 0.003,-0.19127 0.004,0.004 -0.002,-0.3393 0,-0.2059 0.16576,-0.37166 0.37166,-0.37166 z"
             sodipodi:nodetypes="ssccccss" /></g><g
           id="g24690"
           inkscape:label="keycap"
           transform="translate(0.00351038,12.009211)"><path
             id="path24686"
             style="opacity:1;fill:#6a6a6a;stroke-width:0.560755;stroke-linecap:round;paint-order:markers stroke fill"
             inkscape:label="botom"
             d="m 158.30653,209.33437 4.52575,-6.8e-4 c 0.22483,-3e-5 0.40582,0.18099 0.40582,0.40582 v 2.55455 c 0,0.22483 -0.18099,0.40468 -0.40582,0.40583 l -4.51803,0.0231 c -0.22482,10e-4 -0.40515,-0.181 -0.40582,-0.40583 l -0.008,-2.57707 c -6.7e-4,-0.22483 0.181,-0.40593 0.40582,-0.40582 z"
             sodipodi:nodetypes="ssssssssss" /><path
             id="path24688"
             style="display:inline;opacity:1;fill:#e5e5e5;stroke-width:0.5;stroke-linecap:round;paint-order:markers stroke fill"
             inkscape:label="top"
             d="m 158.2624,209.33437 4.2765,-0.003 c 0.20037,-1.3e-4 0.36168,0.1613 0.36168,0.36167 v 2.27665 c 0,0.20037 -0.16131,0.36155 -0.36168,0.36168 l -4.2765,0.003 c -0.20037,1.3e-4 -0.36167,-0.16131 -0.36167,-0.36168 v -2.27665 c 0,-0.20037 0.1613,-0.36154 0.36167,-0.36167 z"
             sodipodi:nodetypes="sssssssss" /></g><g
           id="g24696"
           inkscape:label="keycap"
           transform="matrix(-1,0,0,1,342.80428,12.003773)"><path
             id="path24692"
             style="opacity:1;fill:#6a6a6a;stroke-width:0.560755;stroke-linecap:round;paint-order:markers stroke fill"
             inkscape:label="botom"
             d="m 158.30653,209.33437 4.52575,-6.8e-4 c 0.22483,-3e-5 0.40582,0.18099 0.40582,0.40582 v 2.55455 c 0,0.22483 -0.18099,0.40468 -0.40582,0.40583 l -4.51803,0.0231 c -0.22482,10e-4 -0.40515,-0.181 -0.40582,-0.40583 l -0.008,-2.57707 c -6.7e-4,-0.22483 0.181,-0.40593 0.40582,-0.40582 z"
             sodipodi:nodetypes="ssssssssss" /><path
             id="path24694"
             style="display:inline;opacity:1;fill:#e5e5e5;stroke-width:0.5;stroke-linecap:round;paint-order:markers stroke fill"
             inkscape:label="top"
             d="m 158.2624,209.33437 4.2765,-0.003 c 0.20037,-1.3e-4 0.36168,0.1613 0.36168,0.36167 v 2.27665 c 0,0.20037 -0.16131,0.36155 -0.36168,0.36168 l -4.2765,0.003 c -0.20037,1.3e-4 -0.36167,-0.16131 -0.36167,-0.36168 v -2.27665 c 0,-0.20037 0.1613,-0.36154 0.36167,-0.36167 z"
             sodipodi:nodetypes="sssssssss" /><path
             id="rect437-53-2"
             style="display:inline;fill:#ffffff;fill-opacity:1;stroke-width:0.324292;stroke-linecap:round;paint-order:markers stroke fill"
             inkscape:label="glare"
             d="m 162.52853,209.33896 -4.25239,0.003 c -0.2059,1.4e-4 -0.37166,0.16576 -0.37166,0.37166 0.009,0.34371 0.0107,0.0402 0.009,0.34014 l 4.98511,-0.003 c -0.003,-0.19127 -0.004,0.004 0.002,-0.3393 0,-0.2059 -0.16576,-0.37166 -0.37166,-0.37166 z"
             sodipodi:nodetypes="ssccccss" /></g><g
           id="g24702"
           inkscape:label="keycap"
           transform="translate(6.0039522,12.006892)"><rect
             style="opacity:1;fill:#6a6a6a;fill-opacity:1;stroke-width:0.585826;stroke-linecap:round;paint-order:markers stroke fill"
             id="rect24698"
             width="3.6905925"
             height="3.3476858"
             x="157.55193"
             y="209.33437"
             ry="0.40359065"
             inkscape:label="botom" /><rect
             style="display:inline;opacity:1;fill:#e5e5e5;fill-opacity:1;stroke-width:0.5;stroke-linecap:round;paint-order:markers stroke fill"
             id="rect24700"
             width="3"
             height="3"
             x="157.90073"
             y="209.33437"
             ry="0.36167431"
             inkscape:label="top" /><path
             id="rect437-75"
             style="display:inline;fill:#fefefe;fill-opacity:1;stroke-width:0.324292;stroke-linecap:round;paint-order:markers stroke fill"
             inkscape:label="glare"
             d="m 158.26881,209.33523 h 2.25668 c 0.2059,0 0.37166,0.16576 0.37166,0.37166 -0.009,0.34371 -0.0107,0.0402 -0.009,0.34014 l -2.9894,-6.1e-4 c 0.003,-0.19127 0.004,0.004 -0.002,-0.3393 0,-0.2059 0.16576,-0.37166 0.37166,-0.37166 z"
             sodipodi:nodetypes="ssccccss" /></g><g
           id="g24714"
           inkscape:label="keycap"
           transform="translate(24.003831,0.00152711)"><rect
             style="opacity:1;fill:#6a6a6a;fill-opacity:1;stroke-width:0.55772;stroke-linecap:round;paint-order:markers stroke fill"
             id="rect24710"
             width="3.3449612"
             height="3.3476858"
             x="157.55193"
             y="209.33437"
             ry="0.40359065"
             inkscape:label="botom" /><rect
             style="display:inline;opacity:1;fill:#e5e5e5;fill-opacity:1;stroke-width:0.5;stroke-linecap:round;paint-order:markers stroke fill"
             id="rect24712"
             width="3"
             height="3"
             x="157.90073"
             y="209.33437"
             ry="0.36167431"
             inkscape:label="top" /><path
             id="rect437-62"
             style="display:inline;fill:#ffffff;fill-opacity:1;stroke-width:0.324292;stroke-linecap:round;paint-order:markers stroke fill"
             inkscape:label="glare"
             d="m 158.27429,209.33771 h 2.25668 c 0.2059,0 0.37166,0.16576 0.37166,0.37166 -0.009,0.34371 -0.0107,0.0402 -0.009,0.34014 l -2.9894,-6.1e-4 c 0.003,-0.19127 0.004,0.004 -0.002,-0.3393 0,-0.2059 0.16576,-0.37166 0.37166,-0.37166 z"
             sodipodi:nodetypes="ssccccss" /></g><g
           id="g24720"
           inkscape:label="keycap"
           transform="translate(18.001572,12.001909)"><rect
             style="opacity:1;fill:#6a6a6a;fill-opacity:1;stroke-width:0.585826;stroke-linecap:round;paint-order:markers stroke fill"
             id="rect24716"
             width="3.6905925"
             height="3.3476858"
             x="157.55193"
             y="209.33437"
             ry="0.40359065"
             inkscape:label="botom" /><rect
             style="display:inline;opacity:1;fill:#e5e5e5;fill-opacity:1;stroke-width:0.5;stroke-linecap:round;paint-order:markers stroke fill"
             id="rect24718"
             width="3"
             height="3"
             x="157.90073"
             y="209.33437"
             ry="0.36167431"
             inkscape:label="top" /><path
             id="rect437-36"
             style="display:inline;fill:#ffffff;fill-opacity:1;stroke-width:0.324292;stroke-linecap:round;paint-order:markers stroke fill"
             inkscape:label="glare"
             d="m 158.27233,209.33739 h 2.25668 c 0.2059,0 0.37166,0.16576 0.37166,0.37166 -0.009,0.34371 -0.0107,0.0402 -0.009,0.34014 l -2.9894,-6.1e-4 c 0.003,-0.19127 0.004,0.004 -0.002,-0.3393 0,-0.2059 0.16576,-0.37166 0.37166,-0.37166 z"
             sodipodi:nodetypes="ssccccss" /></g><g
           id="g24726"
           inkscape:label="keycap"
           transform="translate(0.00351038,12.009211)"><path
             id="path24722"
             style="opacity:1;fill:#6a6a6a;stroke-width:0.560755;stroke-linecap:round;paint-order:markers stroke fill"
             inkscape:label="botom"
             d="m 158.30653,209.33437 4.52575,-6.8e-4 c 0.22483,-3e-5 0.40582,0.18099 0.40582,0.40582 v 2.55455 c 0,0.22483 -0.18099,0.40468 -0.40582,0.40583 l -4.51803,0.0231 c -0.22482,10e-4 -0.40515,-0.181 -0.40582,-0.40583 l -0.008,-2.57707 c -6.7e-4,-0.22483 0.181,-0.40593 0.40582,-0.40582 z"
             sodipodi:nodetypes="ssssssssss" /><path
             id="path24724"
             style="display:inline;opacity:1;fill:#e5e5e5;stroke-width:0.5;stroke-linecap:round;paint-order:markers stroke fill"
             inkscape:label="top"
             d="m 158.2624,209.33437 4.2765,-0.003 c 0.20037,-1.3e-4 0.36168,0.1613 0.36168,0.36167 v 2.27665 c 0,0.20037 -0.16131,0.36155 -0.36168,0.36168 l -4.2765,0.003 c -0.20037,1.3e-4 -0.36167,-0.16131 -0.36167,-0.36168 v -2.27665 c 0,-0.20037 0.1613,-0.36154 0.36167,-0.36167 z"
             sodipodi:nodetypes="sssssssss" /><path
             id="rect437-53-9"
             style="display:inline;fill:#ffffff;fill-opacity:1;stroke-width:0.324292;stroke-linecap:round;paint-order:markers stroke fill"
             inkscape:label="glare"
             d="m 158.27231,209.3347 4.25239,0.003 c 0.2059,1.4e-4 0.37166,0.16576 0.37166,0.37166 -0.009,0.34371 -0.0107,0.0402 -0.009,0.34014 l -4.98511,-0.003 c 0.003,-0.19127 0.004,0.004 -0.002,-0.3393 0,-0.2059 0.16576,-0.37166 0.37166,-0.37166 z"
             sodipodi:nodetypes="ssccccss" /></g><g
           id="g24732"
           inkscape:label="keycap"
           transform="matrix(-1,0,0,1,330.80449,12.000819)"><path
             id="path24740"
             style="display:inline;opacity:1;fill:#6a6a6a;fill-opacity:1;stroke-width:0.5;stroke-linecap:round;paint-order:markers stroke fill"
             inkscape:label="top"
             d="m 155.90455,209.33321 6.97395,-0.009 c 0.20037,-2.5e-4 0.36129,0.1613 0.36168,0.36167 l 0.005,2.63893 c 3.9e-4,0.20037 -0.16131,0.36142 -0.36168,0.36168 l -6.97395,0.009 c -0.20037,2.6e-4 -0.36128,-0.16131 -0.36167,-0.36168 l -0.005,-2.63893 c -3.9e-4,-0.20037 0.1613,-0.36142 0.36167,-0.36167 z"
             sodipodi:nodetypes="sssssssss" /><path
             id="path24730"
             style="display:inline;opacity:1;fill:#e5e5e5;stroke-width:0.491183;stroke-linecap:round;paint-order:markers stroke fill"
             inkscape:label="top"
             d="m 156.37783,209.337 6.05193,-0.006 c 0.19336,-1.8e-4 0.34903,0.1613 0.34903,0.36167 v 2.27665 c 0,0.20037 -0.15567,0.3615 -0.34903,0.36168 l -6.05193,0.006 c -0.19337,1.8e-4 -0.34903,-0.16131 -0.34903,-0.36168 v -2.27665 c 0,-0.20037 0.15566,-0.36149 0.34903,-0.36167 z"
             sodipodi:nodetypes="sssssssss" /><path
             id="rect437-53-0"
             style="display:inline;fill:#ffffff;fill-opacity:1;stroke-width:0.324292;stroke-linecap:round;paint-order:markers stroke fill"
             inkscape:label="glare"
             d="m 162.41103,209.32748 -6.01479,0.005 c -0.2059,1.6e-4 -0.37166,0.16576 -0.37166,0.37166 0.009,0.34371 0.0107,0.0402 0.009,0.34014 l 6.74751,-0.005 c -0.003,-0.19127 -0.004,0.004 0.002,-0.3393 0,-0.2059 -0.16576,-0.37166 -0.37166,-0.37166 z"
             sodipodi:nodetypes="ssccccss" /></g></g></g></g><metadata
     id="metadata854"><rdf:RDF><cc:Work
         rdf:about=""><cc:license
           rdf:resource="http://creativecommons.org/publicdomain/zero/1.0/" /><dc:format>image/svg+xml</dc:format><dc:type
           rdf:resource="http://purl.org/dc/dcmitype/StillImage" /></cc:Work><cc:License
         rdf:about="http://creativecommons.org/publicdomain/zero/1.0/"><cc:permits
           rdf:resource="http://creativecommons.org/ns#Reproduction" /><cc:permits
           rdf:resource="http://creativecommons.org/ns#Distribution" /><cc:permits
           rdf:resource="http://creativecommons.org/ns#DerivativeWorks" /></cc:License></rdf:RDF></metadata></svg>
