<?xml version="1.0" encoding="UTF-8" standalone="no"?>
<svg
   width="42"
   height="42"
   viewBox="0 0 42 42"
   version="1.1"
   id="svg38508"
   inkscape:version="1.2 (1:1.2+202206011327+fc4e4096c5)"
   sodipodi:docname="maskOn.svg"
   inkscape:export-filename="/home/dmitry/git/OpenBoard/resources/images/stylusPalette/arrow_svg.png"
   inkscape:export-xdpi="96"
   inkscape:export-ydpi="96"
   xml:space="preserve"
   xmlns:inkscape="http://www.inkscape.org/namespaces/inkscape"
   xmlns:sodipodi="http://sodipodi.sourceforge.net/DTD/sodipodi-0.dtd"
   xmlns:xlink="http://www.w3.org/1999/xlink"
   xmlns="http://www.w3.org/2000/svg"
   xmlns:svg="http://www.w3.org/2000/svg"
   xmlns:rdf="http://www.w3.org/1999/02/22-rdf-syntax-ns#"
   xmlns:cc="http://creativecommons.org/ns#"
   xmlns:dc="http://purl.org/dc/elements/1.1/"><sodipodi:namedview
     id="namedview38510"
     pagecolor="#ffffff"
     bordercolor="#eeeeee"
     borderopacity="1"
     inkscape:pageshadow="0"
     inkscape:pageopacity="0"
     inkscape:pagecheckerboard="false"
     inkscape:document-units="px"
     showgrid="true"
     fit-margin-top="0"
     fit-margin-left="0"
     fit-margin-right="0"
     fit-margin-bottom="0"
     units="px"
     inkscape:zoom="11.313709"
     inkscape:cx="10.69499"
     inkscape:cy="26.958445"
     inkscape:window-width="1920"
     inkscape:window-height="1007"
     inkscape:window-x="0"
     inkscape:window-y="0"
     inkscape:window-maximized="1"
     inkscape:current-layer="g965"
     inkscape:document-rotation="0"
     inkscape:snap-others="true"
     inkscape:snap-global="false"
     showguides="false"
     inkscape:guide-bbox="true"
     inkscape:showpageshadow="2"
     inkscape:deskcolor="#d1d1d1"><inkscape:grid
       type="xygrid"
       id="grid7387"
       dotted="false" /></sodipodi:namedview><defs
     id="defs38505"><linearGradient
       inkscape:collect="always"
       id="linearGradient36245"><stop
         style="stop-color:#322f45;stop-opacity:1;"
         offset="0"
         id="stop36241" /><stop
         style="stop-color:#69638c;stop-opacity:1;"
         offset="1"
         id="stop36243" /></linearGradient><linearGradient
       inkscape:collect="always"
       xlink:href="#linearGradient36245"
       id="linearGradient36247"
       x1="170.18895"
       y1="226.10382"
       x2="170.18895"
       y2="208.10382"
       gradientUnits="userSpaceOnUse" /><radialGradient
       inkscape:collect="always"
       xlink:href="#linearGradient39514"
       id="radialGradient39516"
       cx="160.25581"
       cy="201.69054"
       fx="160.25581"
       fy="201.69054"
       r="7.2760415"
       gradientUnits="userSpaceOnUse"
       gradientTransform="matrix(2.8861847,0,0,2.8861847,-292.33889,-366.01228)" /><linearGradient
       inkscape:collect="always"
       id="linearGradient39514"><stop
         style="stop-color:#ffffff;stop-opacity:0"
         offset="0"
         id="stop39510" /><stop
         style="stop-color:#ffffff;stop-opacity:1"
         offset="1"
         id="stop39512" /></linearGradient></defs><g
     inkscape:label="icon"
     inkscape:groupmode="layer"
     id="layer1"
     transform="translate(-152.84748,-194.2822)"><g
       id="g965"
       inkscape:label="maskOn"
       style="display:inline;stroke:none"
       transform="translate(3.6585236,-0.82162285)"><circle
         style="display:inline;fill:url(#radialGradient39516);fill-opacity:1;stroke:none;stroke-width:0.0457296;stroke-linecap:round;stroke-linejoin:round"
         id="path38960"
         cx="170.18895"
         cy="216.10382"
         r="21"
         inkscape:label="circleBackground" /><path
         id="rect8906"
         style="display:inline;opacity:1;fill:url(#linearGradient36247);fill-opacity:1;stroke:#000000;stroke-width:1;stroke-linecap:round;stroke-dasharray:none;stroke-opacity:1;paint-order:normal"
         d="m 180.18035,209.31348 c 1.00827,0.3492 1.25869,0.70129 1.69737,1.35983 2.44127,3.94858 2.99281,9.30746 -0.6891,12.98937 -1.41421,1.41421 -4.11274,2.66201 -6,2 -2.01406,-0.70649 -0.8,-4 -5,-4 -4.2,0 -2.98594,3.29351 -5,4 -1.88726,0.66201 -4.58579,-0.58579 -6,-2 -3.61022,-3.61022 -3.15024,-9.64453 -0.82953,-12.99827 0.41051,-0.52608 1.01978,-1.00449 3.96183,-1.9451 2.94206,-0.9406 12.75921,-0.94272 17.85943,0.59417 z"
         sodipodi:nodetypes="ccsszssccc"
         inkscape:label="mask" /><path
         id="path29577"
         style="display:inline;opacity:0.9;fill:none;fill-opacity:1;stroke:#ffffff;stroke-width:0.5;stroke-linecap:round;stroke-dasharray:none;stroke-opacity:1;paint-order:normal"
         d="m 169.15909,208.57576 c -2.93032,0.006 -5.53275,0.25058 -6.68555,0.61914 -1.45714,0.46586 -2.32487,0.81554 -2.84961,1.09375 -0.51881,0.27506 -0.68675,0.45298 -0.86132,0.67578 -1.08386,1.57359 -1.7569,3.82487 -1.7129,6.09375 0.0442,2.27533 0.79308,4.55284 2.49219,6.25195 0.64666,0.64666 1.6282,1.28264 2.64453,1.66211 1.01633,0.37947 2.05514,0.49264 2.83594,0.21875 0.37421,-0.13126 0.57114,-0.34988 0.77344,-0.70117 0.20231,-0.35129 0.37111,-0.82564 0.6289,-1.32227 0.25779,-0.49662 0.6221,-1.02201 1.22657,-1.40234 0.60447,-0.38033 1.42177,-0.60156 2.53711,-0.60156 1.11535,0 1.93068,0.22123 2.53515,0.60156 0.60447,0.38033 0.97073,0.90572 1.22852,1.40234 0.2578,0.49663 0.4266,0.97098 0.6289,1.32227 0.20231,0.35129 0.39923,0.56991 0.77344,0.70117 0.7808,0.27389 1.8196,0.16072 2.83594,-0.21875 1.01633,-0.37947 1.99787,-1.01545 2.64453,-1.66211 1.74636,-1.74636 2.47774,-3.86266 2.49414,-6.04492 0.0163,-2.18168 -0.70121,-4.42395 -1.87695,-6.32617 -0.42433,-0.63818 -0.51249,-0.82968 -1.42969,-1.14844 -2.46522,-0.74064 -6.16672,-1.12983 -9.5918,-1.20313 -0.42878,-0.009 -0.85286,-0.0126 -1.27148,-0.0117 z"
         inkscape:label="glare" /><path
         id="path18977"
         style="display:inline;fill:#1a1a1a;stroke:#ffffff;stroke-width:0.8;stroke-linecap:round;stroke-dasharray:none;stroke-opacity:0.9;paint-order:stroke markers fill"
         d="m 179.02133,217.45398 c 0.16234,0.90355 -0.22644,2.83458 -1.82147,3.08746 -1.59503,0.2529 -4.84853,-0.53408 -5.0109,-1.43762 -0.16235,-0.90356 2.05528,-2.5751 3.65031,-2.82797 1.59506,-0.25289 3.01972,0.27457 3.18206,1.17813 z"
         sodipodi:nodetypes="sssss"
         inkscape:label="eyeLeft" /><path
         id="path19040"
         style="display:inline;fill:#1a1a1a;stroke:#ffffff;stroke-width:0.8;stroke-linecap:round;stroke-dasharray:none;stroke-opacity:1;paint-order:stroke markers fill"
         d="m 161.36246,217.43454 c -0.16221,0.91419 0.22624,2.86799 1.81991,3.12385 1.59366,0.25587 4.84437,-0.54038 5.00659,-1.45457 0.16222,-0.9142 -2.05352,-2.60542 -3.64718,-2.86128 -1.59368,-0.25587 -3.01712,0.27781 -3.17932,1.192 z"
         sodipodi:nodetypes="sssss"
         inkscape:label="eyeRigth" /></g></g><metadata
     id="metadata854"><rdf:RDF><cc:Work
         rdf:about=""><cc:license
           rdf:resource="http://creativecommons.org/publicdomain/zero/1.0/" /><dc:format>image/svg+xml</dc:format><dc:type
           rdf:resource="http://purl.org/dc/dcmitype/StillImage" /></cc:Work><cc:License
         rdf:about="http://creativecommons.org/publicdomain/zero/1.0/"><cc:permits
           rdf:resource="http://creativecommons.org/ns#Reproduction" /><cc:permits
           rdf:resource="http://creativecommons.org/ns#Distribution" /><cc:permits
           rdf:resource="http://creativecommons.org/ns#DerivativeWorks" /></cc:License></rdf:RDF></metadata></svg>
