<?xml version="1.0" encoding="UTF-8" standalone="no"?>
<svg
   width="42"
   height="42"
   viewBox="0 0 42 42"
   version="1.1"
   id="svg38508"
   inkscape:version="1.2 (1:1.2+202206011327+fc4e4096c5)"
   sodipodi:docname="webTrapEnabled.svg"
   inkscape:export-filename="/home/dmitry/git/OpenBoard/resources/images/stylusPalette/arrow_svg.png"
   inkscape:export-xdpi="96"
   inkscape:export-ydpi="96"
   xml:space="preserve"
   xmlns:inkscape="http://www.inkscape.org/namespaces/inkscape"
   xmlns:sodipodi="http://sodipodi.sourceforge.net/DTD/sodipodi-0.dtd"
   xmlns:xlink="http://www.w3.org/1999/xlink"
   xmlns="http://www.w3.org/2000/svg"
   xmlns:svg="http://www.w3.org/2000/svg"
   xmlns:rdf="http://www.w3.org/1999/02/22-rdf-syntax-ns#"
   xmlns:cc="http://creativecommons.org/ns#"
   xmlns:dc="http://purl.org/dc/elements/1.1/"><sodipodi:namedview
     id="namedview38510"
     pagecolor="#ffffff"
     bordercolor="#eeeeee"
     borderopacity="1"
     inkscape:pageshadow="0"
     inkscape:pageopacity="0"
     inkscape:pagecheckerboard="false"
     inkscape:document-units="px"
     showgrid="true"
     fit-margin-top="0"
     fit-margin-left="0"
     fit-margin-right="0"
     fit-margin-bottom="0"
     units="px"
     inkscape:zoom="8"
     inkscape:cx="56.125"
     inkscape:cy="39.375"
     inkscape:window-width="1920"
     inkscape:window-height="1007"
     inkscape:window-x="0"
     inkscape:window-y="0"
     inkscape:window-maximized="1"
     inkscape:current-layer="g965"
     inkscape:document-rotation="0"
     inkscape:snap-others="true"
     inkscape:snap-global="false"
     showguides="false"
     inkscape:guide-bbox="true"
     inkscape:showpageshadow="2"
     inkscape:deskcolor="#d1d1d1"><inkscape:grid
       type="xygrid"
       id="grid7387"
       dotted="false" /></sodipodi:namedview><defs
     id="defs38505"><linearGradient
       inkscape:collect="always"
       id="linearGradient5736"><stop
         style="stop-color:#bab6df;stop-opacity:1;"
         offset="0"
         id="stop5732" /><stop
         style="stop-color:#e7e5f3;stop-opacity:1;"
         offset="1"
         id="stop5734" /></linearGradient><linearGradient
       inkscape:collect="always"
       xlink:href="#linearGradient5736"
       id="linearGradient5738"
       x1="210.8365"
       y1="234.25491"
       x2="210.88289"
       y2="196.82903"
       gradientUnits="userSpaceOnUse"
       gradientTransform="translate(-42.664608,0.55172917)" /></defs><g
     inkscape:label="icon"
     inkscape:groupmode="layer"
     id="layer1"
     transform="translate(-152.84748,-194.2822)"><g
       id="g965"
       inkscape:label="webTrap"
       style="display:inline;stroke:none"
       transform="translate(1.6585236,-0.82162285)"><path
         id="rect4435"
         style="display:inline;opacity:1;fill:url(#linearGradient5738);fill-opacity:1;stroke:none;stroke-width:1;stroke-linecap:square;stroke-linejoin:miter;stroke-dasharray:none;stroke-opacity:1;paint-order:normal"
         d="m 166.6593,197.44815 c -2.48528,0 -4.5,1.567 -4.5,3.5 0.003,1.46554 1.28362,2.4985 2.94922,3.2793 0.41324,0.19372 -0.12811,0.82017 -0.94922,1.2207 h -8 c -0.554,0 -1,0.446 -1,1 v 27 c 0,0.554 0.446,1 1,1 h 25 c 0.554,0 1,-0.446 1,-1 v -9.05664 c 0.40095,-0.80143 1.01327,-1.31035 1.20312,-0.90625 0.78108,1.66248 1.81369,2.93982 3.27735,2.94336 1.933,0 3.5,-2.01472 3.5,-4.5 0,-2.48528 -1.567,-4.5 -3.5,-4.5 -1.46554,0.003 -2.4985,1.28362 -3.2793,2.94922 -0.19063,0.40665 -0.8001,-0.11109 -1.20117,-0.91016 v -13.01953 c 0,-0.554 -0.446,-1 -1,-1 h -12 c -0.82323,-0.40032 -1.35381,-1.02982 -0.94336,-1.22266 1.66248,-0.78108 2.93982,-1.81368 2.94336,-3.27734 0,-1.933 -2.01472,-3.5 -4.5,-3.5 z m -6.98828,17 c 1.933,0 3.5,2.01472 3.5,4.5 0,2.48528 -1.567,4.5 -3.5,4.5 -1.46366,-0.004 -2.49627,-1.28088 -3.27735,-2.94336 -0.19281,-0.41045 -0.83405,0.12013 -1.23437,0.94336 v -5 c 0.40053,0.82111 1.0387,1.36246 1.23242,0.94922 0.7808,-1.6656 1.81376,-2.94622 3.2793,-2.94922 z m 7.98242,11.99609 c 2.48528,0 4.5,1.56703 4.5,3.5 -0.004,1.46366 -1.28088,2.49627 -2.94336,3.27735 -0.41045,0.19284 0.12599,0.82624 0.94922,1.22656 -3.20017,0.098 -3.99637,0.0424 -5,0 0.82111,-0.40053 1.3566,-1.03089 0.94336,-1.22461 -1.6656,-0.7808 -2.94622,-1.81376 -2.94922,-3.2793 0,-1.93297 2.01472,-3.5 4.5,-3.5 z"
         sodipodi:nodetypes="scscsssssscccscscsscscscsccccccscsccscs"
         inkscape:label="puzzle" /><path
         id="path17275"
         style="color:#000000;opacity:0.5;fill:#ffffff;stroke-linecap:round"
         d="m 156.14631,221.76853 c -0.27111,0.002 -0.48876,0.22256 -0.48828,0.49414 v 10.66406 c 0.0186,0.85755 0.008,1.03281 0.88086,1.02149 l 7.24609,-0.01 c 0.27187,-6e-4 0.4907,-0.20227 0.49023,-0.47461 -6e-4,-0.27234 -0.2203,-0.49266 -0.49218,-0.49219 l -6.30078,0.0293 c -0.70715,2.6e-4 -0.82117,-0.22138 -0.82813,-0.57813 l -0.0117,-10.16406 c -0.002,-0.27235 -0.2242,-0.49179 -0.49609,-0.49023 z m 25.02344,2.51758 c -0.27235,-0.002 -0.4941,0.21788 -0.4961,0.49023 l 0.008,7.64453 c -0.007,0.35675 -0.11976,0.57839 -0.82812,0.57813 l -9.01953,-0.0352 c -0.27234,-4.7e-4 -0.49354,0.21985 -0.49414,0.49219 -4.7e-4,0.27234 0.21985,0.47401 0.49218,0.47461 l 9.96485,0.0156 h 0.002 c 0.87454,0.0113 0.86226,-0.16589 0.88086,-1.02344 l -0.0195,-8.14257 c 4.8e-4,-0.27158 -0.21866,-0.49214 -0.49023,-0.49414 z"
         inkscape:label="glareBottom" /><path
         id="path11423"
         style="color:#000000;display:inline;fill:#8483c0;fill-opacity:1;stroke:none;stroke-linecap:square"
         d="m 166.6593,196.94815 c -1.34773,0 -2.57665,0.42182 -3.48828,1.13086 -0.91162,0.70904 -1.51172,1.72893 -1.51172,2.86914 v 0.002 c 0.002,0.87817 0.40101,1.64142 0.99414,2.2461 0.52286,0.53305 1.2322,0.93583 1.97656,1.30859 -0.12043,0.12772 -0.34095,0.29457 -0.61914,0.44336 h -7.85156 c -0.82235,0 -1.5,0.67765 -1.5,1.5 v 10 c 0.45156,0.67597 0.64247,0.93081 1.00825,1.36995 0.13348,0.0947 0.26965,0.20788 0.47651,0.22 0.26429,0.0155 0.59016,-0.1909 0.70118,-0.42773 0.37534,-0.80066 0.80591,-1.48879 1.27929,-1.95313 0.47338,-0.46433 0.95951,-0.70778 1.54688,-0.70898 0.79279,0 1.52238,0.40795 2.08008,1.125 0.55771,0.71705 0.91992,1.73745 0.91992,2.875 0,1.13755 -0.36221,2.15795 -0.91992,2.875 -0.55725,0.71647 -1.28609,1.12434 -2.07813,1.125 -0.58676,-0.002 -1.07377,-0.24183 -1.54687,-0.70508 -0.4731,-0.46325 -0.90387,-1.15014 -1.2793,-1.94922 -0.11118,-0.23667 -0.43411,-0.44344 -0.69727,-0.42968 -0.20785,0.0109 -0.34323,0.10619 -0.41687,0.15568 l -1.07475,1.41599 0.001,12.01241 c 0,0.82235 0.67765,1.5 1.5,1.5 l 9.01606,0.003 1.40879,-1.07085 c 0.0498,-0.068 0.14802,-0.20167 0.15922,-0.41245 0.0141,-0.26479 -0.19248,-0.58503 -0.42773,-0.69531 -0.80067,-0.37534 -1.49075,-0.80787 -1.95508,-1.28125 -0.46434,-0.47338 -0.70583,-0.9595 -0.70703,-1.54688 0,-0.79277 0.40794,-1.52236 1.125,-2.08007 0.71705,-0.55771 1.73745,-0.91993 2.875,-0.91993 1.13755,0 2.15794,0.36222 2.875,0.91993 0.71705,0.55771 1.125,1.2873 1.125,2.08007 -0.002,0.58676 -0.24378,1.07182 -0.70703,1.54493 -0.46326,0.4731 -1.15015,0.90582 -1.94922,1.28125 -0.2359,0.11083 -0.44319,0.43336 -0.42773,0.69726 0.0123,0.21077 0.0932,0.3628 0.15885,0.41238 l 1.41242,1.06737 11.01849,9.4e-4 c 0.82235,0 1.5,-0.67765 1.5,-1.5 v -8.9043 c 0.14514,-0.26317 0.30634,-0.46533 0.42773,-0.57812 0.37257,0.74187 0.77647,1.44959 1.3086,1.9707 0.6044,0.59188 1.3652,0.99007 2.24219,0.99219 h 0.002 c 1.14022,0 2.16009,-0.59814 2.86914,-1.50977 0.70904,-0.91162 1.13086,-2.14251 1.13086,-3.49023 0,-1.34773 -0.42182,-2.57666 -1.13086,-3.48828 -0.70905,-0.91163 -1.72892,-1.51172 -2.86914,-1.51172 h -0.002 c -0.87816,0.002 -1.63947,0.40297 -2.24415,0.99609 -0.53245,0.5223 -0.93611,1.23122 -1.30859,1.97461 -0.12178,-0.11437 -0.28037,-0.31862 -0.42578,-0.58203 v -12.8699 c 0,-0.82235 -0.67765,-1.5 -1.5,-1.5 h -11.85156 c -0.27815,-0.1487 -0.49709,-0.31812 -0.61524,-0.44531 0.74345,-0.37302 1.45257,-0.77552 1.97461,-1.3086 0.59187,-0.60439 0.99007,-1.36714 0.99219,-2.24414 v -0.002 c 0,-1.14021 -0.6001,-2.1601 -1.51172,-2.86914 -0.91163,-0.70904 -2.14056,-1.13086 -3.48828,-1.13086 z m 0,1 c 1.13755,0 2.15794,0.36222 2.875,0.91992 0.71705,0.55771 1.125,1.28729 1.125,2.08008 -0.001,0.58666 -0.24373,1.07183 -0.70703,1.54492 -0.46329,0.4731 -1.15013,0.90581 -1.94922,1.28125 -0.2349,0.11036 -0.44169,0.43122 -0.42773,0.69531 0.014,0.2641 0.12903,0.43974 0.25781,0.60157 0.25756,0.32365 0.6411,0.60136 1.10742,0.82812 l 0.10352,0.0469 h 12.11523 c 0.28564,0 0.5,0.21435 0.5,0.5 v 13.13867 l 0.0527,0.10547 c 0.22666,0.45159 0.49741,0.8246 0.81641,1.07617 0.1595,0.12579 0.33609,0.24269 0.59961,0.25391 0.26351,0.0112 0.57713,-0.20036 0.68555,-0.43165 0.37534,-0.80065 0.80591,-1.48878 1.27929,-1.95312 0.47338,-0.46433 0.95951,-0.70778 1.54688,-0.70898 0.79279,0 1.52238,0.40795 2.08008,1.125 0.55771,0.71703 0.91993,1.73745 0.91992,2.875 0,1.13753 -0.36221,2.15795 -0.91992,2.875 -0.55725,0.71645 -1.28609,1.12434 -2.07813,1.125 -0.58667,-0.001 -1.07377,-0.24178 -1.54687,-0.70508 -0.47309,-0.4633 -0.90387,-1.15012 -1.2793,-1.94922 -0.10863,-0.2312 -0.42116,-0.43958 -0.68359,-0.42969 -0.26243,0.01 -0.43926,0.12306 -0.59961,0.24805 -0.32069,0.24999 -0.59322,0.62225 -0.82032,1.07617 l -0.0527,0.10547 v 9.17383 c 0,0.28565 -0.21436,0.5 -0.5,0.5 h -10.85156 c -0.27965,-0.14945 -0.50184,-0.32055 -0.6211,-0.44922 0.74344,-0.37303 1.45263,-0.77553 1.97461,-1.3086 0.59181,-0.60439 0.98979,-1.36724 0.99219,-2.24414 v -0.002 c 0,-1.1402 -0.6001,-2.16009 -1.51172,-2.86914 -0.91163,-0.70904 -2.14056,-1.13086 -3.48828,-1.13086 -1.34773,0 -2.57666,0.42182 -3.48828,1.13086 -0.91163,0.70905 -1.51172,1.72894 -1.51172,2.86914 v 0.002 c 0.002,0.87816 0.40101,1.64142 0.99414,2.2461 0.52346,0.53366 1.23315,0.93749 1.97852,1.31054 -0.11876,0.12767 -0.33743,0.29643 -0.61524,0.44532 h -8.85156 c -0.28565,0 -0.5,-0.21435 -0.5,-0.5 v -11.85157 c 0.14978,-0.27952 0.32381,-0.50168 0.45312,-0.61914 0.37363,0.74552 0.78014,1.45532 1.31446,1.97852 0.60439,0.59181 1.36529,0.98979 2.24219,0.99219 h 0.002 c 1.14022,0 2.16009,-0.59814 2.86914,-1.50977 0.70904,-0.91162 1.13087,-2.14251 1.13086,-3.49023 0,-1.34772 -0.42182,-2.57667 -1.13086,-3.48828 -0.70905,-0.91163 -1.72892,-1.51172 -2.86914,-1.51172 h -0.002 c -0.87816,0.002 -1.63947,0.40297 -2.24415,0.99609 -0.53367,0.5235 -0.93943,1.2331 -1.3125,1.97852 -0.12986,-0.11975 -0.30321,-0.34341 -0.45312,-0.62305 v -9.85156 c 0,-0.28565 0.21435,-0.5 0.5,-0.5 h 8.11523 l 0.10352,-0.0469 c 0.46395,-0.22631 0.84783,-0.50253 1.10742,-0.82422 0.12979,-0.16084 0.24794,-0.33632 0.26367,-0.60156 0.0157,-0.26524 -0.19266,-0.58707 -0.42773,-0.69727 -0.80067,-0.37531 -1.49075,-0.80786 -1.95508,-1.28125 -0.46434,-0.47336 -0.70583,-0.9595 -0.70703,-1.54687 0,-0.79279 0.40794,-1.52237 1.125,-2.08008 0.71705,-0.5577 1.73744,-0.91992 2.875,-0.91992 z"
         sodipodi:nodetypes="scsccccsscccccccsccsccccsscccsscsssccscscssccsssssssscccssccscscssccccccccssccsccscccscssccccssccssscsssssccssccsssscssccccssccsccccssc"
         inkscape:label="border" /><path
         id="path10993"
         style="color:#000000;opacity:0.9;fill:#ffffff;stroke-linecap:round;-inkscape-stroke:none"
         d="m 166.55842,197.94431 v 0.002 c -0.68153,0.01 -1.3299,0.1569 -1.91992,0.39258 a 0.5,0.5 0 0 0 -0.2793,0.65039 0.5,0.5 0 0 0 0.65039,0.2793 c 0.98711,-0.3943 2.07724,-0.49422 3.26758,0.0254 a 0.5,0.5 0 0 0 0.6582,-0.25781 0.5,0.5 0 0 0 -0.25781,-0.65821 c -0.7227,-0.31551 -1.4376,-0.44352 -2.11914,-0.43359 z m -10.01563,7.98828 c -0.87304,-0.0113 -0.86226,0.16589 -0.88086,1.02344 l 0.002,8.84765 c -4.8e-4,0.27158 0.21717,0.49215 0.48828,0.49414 0.27189,0.002 0.49409,-0.21788 0.49609,-0.49023 l 0.01,-8.34961 c 0.007,-0.35675 0.12097,-0.57838 0.82812,-0.57812 l 6.30078,0.0293 c 0.27188,4.7e-4 0.49159,-0.21984 0.49219,-0.49218 4.7e-4,-0.27234 -0.21836,-0.47401 -0.49023,-0.47461 z m 24.24414,0.008 -11.49414,0.0137 c -0.27234,6e-4 -0.49265,0.20227 -0.49219,0.47461 6e-4,0.27234 0.22181,0.49266 0.49415,0.49219 l 10.54687,-0.0332 c 0.70836,-2.6e-4 0.82311,0.22137 0.83008,0.57812 l 0.008,11.64844 c 0.002,0.27235 0.22375,0.4918 0.49609,0.49024 0.27157,-0.002 0.49072,-0.22257 0.49024,-0.49415 l 0.004,-12.14843 c -0.0186,-0.85755 -0.008,-1.03281 -0.88282,-1.02149 z"
         inkscape:label="glareTop" /><path
         id="path32270"
         style="display:inline;opacity:1;fill:#caf2cc;fill-opacity:1;stroke:#47c540;stroke-width:0.971199;stroke-linecap:round;stroke-opacity:1"
         inkscape:transform-center-x="0.034345862"
         inkscape:transform-center-y="1.069099"
         d="m 179.84748,200.2822 v 11 h -4.40417 l 7.70729,7.7073 7.7073,-7.7073 h -5.01042 v -11 z"
         sodipodi:nodetypes="cccccccc"
         transform="translate(-1.6585236,0.82162285)"
         inkscape:label="arrow" /><path
         style="opacity:1;fill:none;fill-opacity:1;stroke:#ffffff;stroke-linecap:round;stroke-opacity:1"
         d="m 178.86609,202.27688 -0.005,8.05732 -5.73768,-0.0108 10.009,10.03725 5.846,-5.70471"
         id="path42937"
         sodipodi:nodetypes="ccccc"
         transform="translate(-1.6585236,0.82162285)"
         inkscape:label="arrowGlare" /></g></g><metadata
     id="metadata854"><rdf:RDF><cc:Work
         rdf:about=""><cc:license
           rdf:resource="http://creativecommons.org/publicdomain/zero/1.0/" /><dc:format>image/svg+xml</dc:format><dc:type
           rdf:resource="http://purl.org/dc/dcmitype/StillImage" /></cc:Work><cc:License
         rdf:about="http://creativecommons.org/publicdomain/zero/1.0/"><cc:permits
           rdf:resource="http://creativecommons.org/ns#Reproduction" /><cc:permits
           rdf:resource="http://creativecommons.org/ns#Distribution" /><cc:permits
           rdf:resource="http://creativecommons.org/ns#DerivativeWorks" /></cc:License></rdf:RDF></metadata></svg>
