<?xml version="1.0" encoding="utf-8"?>
<!-- Generator: Adobe Illustrator 14.0.0, SVG Export Plug-In . SVG Version: 6.00 Build 43363)  -->
<!DOCTYPE svg PUBLIC "-//W3C//DTD SVG 1.1//EN" "http://www.w3.org/Graphics/SVG/1.1/DTD/svg11.dtd">
<svg version="1.1" id="Layer_1" xmlns="http://www.w3.org/2000/svg" xmlns:xlink="http://www.w3.org/1999/xlink" x="0px" y="0px"
	 width="26.724px" height="22.304px" viewBox="2.233 3.234 26.724 22.304" enable-background="new 2.233 3.234 26.724 22.304"
	 xml:space="preserve">
<g>
	<path fill="#333333" stroke="#CECECD" stroke-miterlimit="3.8637" d="M20.228,3.732c4.545,0,8.229,3.687,8.229,8.232v4.838
		c0,4.547-3.686,8.231-8.229,8.231h-9.246c-4.547,0-8.231-3.687-8.231-8.231v-4.838c0-4.547,3.687-8.232,8.231-8.232H20.228z"/>
	<path fill="#FFFFFF" d="M14.28,10.516c-1.023-0.006-2.032,0.475-2.663,1.376c-1.021,1.457-0.663,3.459,0.798,4.48
		c0.061,0.043,0.106,0.09,0.145,0.139l0.108-2.099c0.021-0.402,0.335-0.733,0.726-0.714c0.391,0.021,0.667,0.383,0.646,0.784
		l-0.148,2.812l-0.071,1.369l-1.367-0.072L9.64,18.446c-0.401-0.021-0.732-0.335-0.714-0.725c0.021-0.39,0.384-0.668,0.785-0.646
		l1.875,0.1c-1.822-1.416-2.241-4.021-0.899-5.938c0.863-1.234,2.253-1.886,3.61-1.869c0.183,0.002,0.358,0.023,0.537,0.049
		c0.376,0.05,0.524,0.371,0.488,0.64c-0.035,0.27-0.266,0.538-0.641,0.488c-0.158-0.021-0.317-0.031-0.479-0.028H14.28z
		 M16.999,17.831c1.022,0.006,2.032-0.475,2.663-1.375c1.021-1.458,0.662-3.459-0.797-4.482c-0.061-0.041-0.107-0.088-0.146-0.138
		l-0.107,2.099c-0.021,0.402-0.336,0.734-0.725,0.714c-0.392-0.02-0.668-0.383-0.646-0.784l0.148-2.812l0.071-1.369l1.367,0.072
		L21.64,9.9c0.399,0.021,0.731,0.335,0.713,0.726c-0.021,0.389-0.383,0.667-0.785,0.646l-1.875-0.1
		c1.822,1.416,2.24,4.021,0.899,5.937c-0.864,1.234-2.254,1.886-3.612,1.869c-0.182-0.002-0.357-0.022-0.537-0.048
		c-0.375-0.052-0.523-0.371-0.487-0.64c0.036-0.271,0.266-0.539,0.642-0.488c0.157,0.021,0.316,0.029,0.479,0.027h-0.077V17.831z"/>
</g>
</svg>
