<?xml version="1.0" encoding="utf-8"?>
<!-- Generator: Adobe Illustrator 15.1.0, SVG Export Plug-In  -->
<!DOCTYPE svg [
	<!ENTITY ns_flows "http://ns.adobe.com/Flows/1.0/">
]>
<svg version="1.2" baseProfile="tiny"
	 xmlns="http://www.w3.org/2000/svg" xmlns:xlink="http://www.w3.org/1999/xlink" xmlns:a="http://ns.adobe.com/AdobeSVGViewerExtensions/3.0/"
	 x="0px" y="0px" width="107px" height="107px" viewBox="0 0 107 107" overflow="visible" xml:space="preserve">
<defs>
</defs>
<g>
	<linearGradient id="SVGID_1_" gradientUnits="userSpaceOnUse" x1="53.666" y1="0" x2="53.666" y2="107.3335">
		<stop  offset="0" style="stop-color:#727270"/>
		<stop  offset="1" style="stop-color:#41413F"/>
		<a:midPointStop  offset="0" style="stop-color:#727270"/>
		<a:midPointStop  offset="0.5" style="stop-color:#727270"/>
		<a:midPointStop  offset="1" style="stop-color:#41413F"/>
	</linearGradient>
	<path fill="url(#SVGID_1_)" d="M107.3,99.3c0,4.4-3.6,8-8,8H8c-4.4,0-8-3.6-8-8V8c0-4.4,3.6-8,8-8h91.3c4.4,0,8,3.6,8,8V99.3z"/>
</g>
<g>
	<rect x="10.7" y="62" fill-rule="evenodd" fill="#FFFFFF" width="41.5" height="33.7"/>
	<g id="PfcyK0_2_">
		<g>
			<g>
				<path fill-rule="evenodd" fill="#9CD1EA" d="M49.7,72.9c-7.5-0.8-14.2,1.4-21.8,1.4c-0.3,0-0.6,0-0.9,0
					c-3.8-0.5-7.1-1.5-11.3-1.6c-0.7-0.2-1.8,0-2.6-0.1c0-2.7,0-5.4,0-8.1c12.2,0,24.4,0,36.6,0C49.7,67.3,49.7,70.1,49.7,72.9z"/>
				<path fill-rule="evenodd" fill="#70B0D0" d="M13.1,72.6C13.1,72.6,13.1,72.6,13.1,72.6c0.9,0,1.9-0.2,2.6,0
					C14.8,72.6,14,72.6,13.1,72.6z"/>
				<path fill-rule="evenodd" fill="#70B0D0" d="M27,74.3c0.3,0,0.6,0,0.9,0C27.8,74.4,27.1,74.4,27,74.3z"/>
				<path fill-rule="evenodd" fill="#9CD1EA" d="M30,77.9c6.6,0,13,0,19.7,0c0,1.3,0,2.7,0,4c-0.6-0.2-1.1,0.1-1.7-0.4
					c-0.5,0.2-0.6,0.4-1.3,0.2c-0.2-0.2-0.9-0.1-1.1,0c-1.1,0.3-2.4,0-3.2-0.4c-0.3-0.1-0.1,0.3-0.4,0.2c-2.3-0.5-4.4-1.1-7.2-1.1
					c-0.2-0.2-0.7,0-1-0.1c-3.4-0.3-6.8-0.6-9.5-1.5c-0.7-0.1-1.4-0.3-2.2-0.2c-0.2-0.2-0.7,0-1-0.1c-1.2,0.1-2.1-0.1-3-0.4
					c0.8-0.2,1.9,0.2,2.7,0c0.3,0.1,1.2,0.1,1.5,0c0.2,0,0.3,0,0.5-0.1c0.3,0,0.6,0,0.9,0c0.1,0,0.1,0,0.2,0c0.6,0.1,1.6,0.1,2.2,0
					c0.6,0,1.2-0.1,1.8-0.1c0.3,0,0.9,0.1,1.1-0.1c0.1,0,0.1,0,0.2,0C29.4,77.9,29.9,78.1,30,77.9z"/>
				<path fill-rule="evenodd" fill="#70B0D0" d="M29.1,78c0.1-0.2,0.6,0,0.9-0.1C29.9,78.1,29.4,77.9,29.1,78z"/>
				<path fill-rule="evenodd" fill="#70B0D0" d="M27.8,78.1c0.2-0.2,0.8,0,1.1-0.1C28.7,78.2,28.2,78,27.8,78.1z"/>
				<path fill-rule="evenodd" fill="#70B0D0" d="M22.8,78.2c0.1-0.1,0.8-0.1,0.9,0C23.3,78.2,23,78.2,22.8,78.2z"/>
				<path fill-rule="evenodd" fill="#70B0D0" d="M23.9,78.2c0.7,0,1.5,0,2.2,0C25.5,78.3,24.4,78.3,23.9,78.2z"/>
				<path fill-rule="evenodd" fill="#70B0D0" d="M20.7,78.3c0.5,0,1,0,1.5,0C21.9,78.4,21,78.4,20.7,78.3z"/>
				<path fill-rule="evenodd" fill="#70B0D0" d="M21,78.6c0.3,0,0.8-0.1,1,0.1C21.7,78.7,21.2,78.8,21,78.6z"/>
				<path fill-rule="evenodd" fill="#70B0D0" d="M33.8,80.5c0.3,0,0.8-0.1,1,0.1C34.5,80.5,33.9,80.7,33.8,80.5z"/>
				<path fill-rule="evenodd" fill="#5A9FC1" d="M49.7,87.4c0,0.2,0,0.4,0,0.7c-1.4,0.6-2.9,0.6-4.7,0.7
					C46.4,88.1,47.9,87.6,49.7,87.4z"/>
				<path fill-rule="evenodd" fill="#5A9FC1" d="M22,78.7c0.8,0,1.4,0.2,2.2,0.2c2.7,1,6.1,1.2,9.5,1.5c0.2,0.2,0.7,0,1,0.1
					c2.8,0,4.9,0.6,7.2,1.1c0.3,0.1,0.1-0.3,0.4-0.2c0.8,0.4,2.2,0.7,3.2,0.4c0.2,0.1,0.7-0.1,1.1,0c0.7,0.1,0.8,0,1.3-0.2
					c0.6,0.4,1.1,0.2,1.7,0.4c0,1.7,0,3.4,0,5.1c-0.7-0.2-1.5,0.5-2.1,0.3c-0.1,0,0-0.1,0-0.1c-0.4,0.1-0.7,0.3-1,0.3
					c-0.1,0-0.3-0.2-0.4-0.1c-0.5,0.1-1.1,0.5-1.8,0.4c-0.3,0,0.3-0.3,0-0.6c-0.8,0.2-2.1,0.7-2.6,0.1c-2.1,0.6-4.8,1-7.5,0.8
					c1.5-0.5,3.5-0.6,5.1-1c-4.9-0.3-8.5,0.9-13.1,1.1c0.1-0.4,0.7-0.2,1-0.3c2.3-0.4,5-0.8,6.8-1.8c-1.8,0-3.8,0.8-5.9,1
					c-1.1,0.1-2.2,0-3.2,0.4c1.3-1.2,4-1.1,5.5-2.2c-0.5-0.3-1.3-0.1-1.8,0.1c-0.3,0,0.1-0.2,0.1-0.3c-1,0-1.8,0.1-2.7,0.1
					c-0.2-0.1-0.4-0.1-0.4-0.4c-1.6,0.3-2.8-0.4-4.3,0c0-0.2,0.4-0.1,0.7-0.2c0.3-0.2,0.3-0.3,0.6-0.4c-1.6-0.4-3.6,0.1-4.4-1
					c-2.3,0.4-2.8-1.7-4.8-1.8c0-0.1,0-0.1-0.1-0.1c0-2.9,0-5.8,0-8.6c0.9,0,1.8,0,2.6,0c4.2,0.1,7.5,1.1,11.3,1.6
					c0.1,0.1,0.8,0.1,0.9,0c7.6,0,14.3-2.2,21.8-1.4c0,1.7,0,3.4,0,5.1c-6.7,0-13.1,0-19.7,0c-0.3,0-0.7-0.1-0.9,0.1
					c-0.1,0-0.1,0-0.2,0c-0.3,0-0.9-0.1-1.1,0.1c-0.6,0-1.1,0.2-1.8,0.1c-0.7,0-1.5,0-2.2,0c-0.1,0-0.1,0-0.2,0
					c-0.1-0.1-0.8-0.1-0.9,0c-0.2,0-0.3,0.1-0.5,0.1c-0.5,0-1,0-1.5,0c-0.8,0.2-1.9-0.2-2.7,0c0.9,0.2,1.8,0.5,3,0.4
					C21.2,78.8,21.7,78.7,22,78.7z"/>
				<path fill-rule="evenodd" fill="#70B0D0" d="M45.6,81.8c0.2-0.1,0.9-0.2,1.1,0C46.3,81.7,45.8,81.9,45.6,81.8z"/>
				<path fill-rule="evenodd" fill="#70B0D0" d="M13.1,81.3c0.1,0,0.1,0.1,0.1,0.1c2,0.2,2.5,2.2,4.8,1.8c0.8,1.2,2.8,0.6,4.4,1
					c-0.3,0.1-0.3,0.3-0.6,0.4c-0.2,0.1-0.6,0.1-0.7,0.2c1.5-0.4,2.7,0.3,4.3,0c0,0.2,0.2,0.3,0.4,0.4c0.9-0.1,1.7-0.2,2.7-0.1
					c0,0.1-0.4,0.3-0.1,0.3c0.5-0.2,1.3-0.3,1.8-0.1c-1.5,1.1-4.1,1-5.5,2.2c1-0.4,2.1-0.3,3.2-0.4c2.1-0.2,4-1,5.9-1
					c-1.8,0.9-4.6,1.4-6.8,1.8c-0.3,0-0.8-0.1-1,0.3c4.7-0.2,8.2-1.4,13.1-1.1c-1.6,0.5-3.6,0.5-5.1,1c2.7,0.2,5.4-0.2,7.5-0.8
					c0.6,0.6,1.8,0.1,2.6-0.1c0.3,0.3-0.3,0.6,0,0.6c0.7,0,1.4-0.4,1.8-0.4c0.1,0,0.4,0.1,0.4,0.1c0.3,0,0.6-0.2,1-0.3
					c0,0-0.1,0.1,0,0.1c0.6,0.2,1.5-0.5,2.1-0.3c0,0.1,0,0.2,0,0.3c-1.8,0.2-3.3,0.7-4.7,1.4c1.8-0.1,3.3-0.1,4.7-0.7
					c0,1.7,0,3.5,0,5.2c-12.2,0-24.4,0-36.6,0C13.1,89.3,13.1,85.3,13.1,81.3z"/>
			</g>
		</g>
	</g>
</g>
<g>
	<g  a:adobe-opacity-share="1">
		<rect x="58.2" y="61" fill-rule="evenodd" fill="#33342E"  a:adobe-opacity-share="0" width="41.5" height="33.7"/>
		<path fill-rule="evenodd" fill="#33342E"  a:adobe-opacity-share="0" d="M83.2,67.6c0.2,0,0.6-0.1,0.7,0.1
			C83.7,67.6,83.3,67.7,83.2,67.6z"/>
		<path fill-rule="evenodd" fill="#33342E"  a:adobe-opacity-share="0" d="M89.5,73c0.4,0,0.2,0.4,0.1,0.5
			C89.3,73.6,89.4,73.2,89.5,73z"/>
		<path fill-rule="evenodd" fill="#33342E"  a:adobe-opacity-share="0" d="M91,75.1c0,0.2-0.1,0.2-0.2,0.3c-0.2,0-0.3-0.1-0.3-0.3
			C90.6,75,90.9,75,91,75.1z"/>
		<path fill-rule="evenodd" fill="#33342E"  a:adobe-opacity-share="0" d="M73.8,78c-0.1,0.7,0.2,1,0.2,1.6c0.7,0.2,1.1,0.5,1.1,1
			c0,0.5-0.8,0.6-0.5,1.2c0,0.2,0.2-0.1,0.4,0c0.5,0.7,1.8,0.5,2.9,0.6c-0.1,0.2-0.4,0.2-0.4,0.5c0.6,0,1.6-0.3,2.6-0.2
			c0.6-0.5,1.7-0.3,2.3-0.1c-0.1,0.6-0.2,1.7,0,2.3c-0.2,0.2-0.7,0-1,0.1c-0.8,1.4-3,0.3-3.9-0.3c0.2,0.6,0.8,0.7,1.3,0.9
			c-1.2,0.5-2.5-0.3-3-1c-0.3,0,0,0.5-0.3,0.4c0.3,0.1,0.5,0.3,0.7,0.5c-0.4,0.2-1.1,0-1.5-0.1c-0.2,0.1,0.3,0.2,0.1,0.4
			c-0.6,0-1-0.3-1.3-0.5c-0.2,0.2,0.2,0.4,0.1,0.7c-0.6-0.1-0.9-0.4-1.5-0.7c-0.5,0.3-1.1,0.1-1.8,0c0.1,0.2,0.4,0.2,0.6,0.3
			c-0.7,0.3-1.3-0.1-1.9,0c-1,0.1-1.8,1.2-2.7,0.5c0.2-0.6,1.1-0.6,1.7-0.9c0-0.3-0.4-0.2-0.4-0.4c-0.1-0.2,0.2-0.1,0.4-0.1
			c0-0.3-0.3-0.3-0.3-0.6c-0.5,0.2-0.7-0.6-1-0.9c-1.1-0.1-1.7,0.4-2,1.1c0.1,0.1,0.2,0.1,0.3,0.2c-0.5,0-0.8,0.3-0.8,0.8
			c0.1,0.3,0.6,0.2,0.9,0.3c0,0.3-0.3,0.2-0.4,0.1c0,0.2,0.2,0.2,0.2,0.3c0.2-0.2,0.8,0.1,1.2,0.2c-0.9,1.3-2.9,0.6-4.4,0.3
			c-0.4,0.1-0.7,0.2-1.1,0.2c0-2.6,0-5.1,0-7.7c4.9,0.3,8.3-0.8,13.1-0.6C73.9,78.5,73.6,78,73.8,78z"/>
		<path fill-rule="evenodd" fill="#33342E"  a:adobe-opacity-share="0" d="M88.4,83.4c0.4,0,0.6,0.3,1,0.3
			C89.1,83.8,88.4,83.8,88.4,83.4z"/>
		<path fill-rule="evenodd" fill="#33342E"  a:adobe-opacity-share="0" d="M91.7,74.5c0.4-0.1,0.8,0.1,1,0.4
			c-0.1-0.3-0.6-0.1-0.7-0.4C91.8,74.4,91.9,74.6,91.7,74.5C91.7,74.5,91.7,74.5,91.7,74.5z"/>
		<path fill-rule="evenodd" fill="#33342E"  a:adobe-opacity-share="0" d="M87.4,68.6c0,0.3,0.2,0.3,0.2,0.5
			c-0.2-0.1-0.4-0.3-0.7-0.5c0.3,0,0.2,0.3,0.4,0.3C87.4,68.8,87.3,68.4,87.4,68.6z"/>
		<path fill-rule="evenodd" fill="#33342E"  a:adobe-opacity-share="0" d="M81.5,67c0.4-0.2,0.6,0.3,0.8,0.5C82,67.4,82,67,81.5,67z
			"/>
		<path fill-rule="evenodd" fill="#33342E"  a:adobe-opacity-share="0" d="M76,71.9c0,0.4-0.2,0.5-0.4,0.7
			C75.6,72.3,75.8,72.1,76,71.9z"/>
		<path fill-rule="evenodd" fill="#33342E"  a:adobe-opacity-share="0" d="M76,73.8c-0.2,0.4,0.3,0.8-0.1,1
			C76.3,74.5,75.7,74.1,76,73.8z"/>
		<path fill-rule="evenodd" fill="#33342E"  a:adobe-opacity-share="0" d="M92.8,76.9c0,0.8-0.5,0.9-0.2,1.6c-0.4,0.3-0.6,1-0.1,1.5
			c-0.1,0-0.2,0-0.3,0c0.2,0.8-1,0.9-0.5,1.6c0.4,0,0.5-0.6,0.9-0.2c-0.8,0.8-2.5,0.3-3.8,0.4c-0.6,1.6-2.9,0.2-4.1,0.4
			c-0.6,0.7-0.4,2.7,0.7,2.8c0.6-0.5,2.1,0.1,2.4-0.7c0.8,0,1.6,0.5,2.3,0.1c0-0.2,0-0.3-0.1-0.4c0.4-0.1,1.2,0.7,1.5,0
			c1.1,0.2,2.2,0.8,3.3,0.7c0.2-0.1,0.3-0.4,0.1-0.6c0.5,0,0.8,0.1,1.2,0c0.2-0.1-0.3-0.2-0.4-0.3c0.3,0,0.9,0.3,1.5,0.2
			c0,3.4,0,4.8,0,8.1c-12.2,0-24.4,0-36.6,0c0-2.5,0-3,0-5.5c0.4,0,0.7-0.2,1.1-0.2c1.5,0.3,3.5,1,4.4-0.3c-0.5-0.2-1-0.4-1.2-0.2
			c-0.1-0.1-0.2-0.1-0.2-0.3c0.2,0.1,0.4,0.1,0.4-0.1c-0.3-0.1-0.7,0-0.9-0.3c0.1-0.5,0.3-0.8,0.8-0.8c-0.1-0.1-0.2-0.1-0.3-0.2
			c0.3-0.7,0.9-1.2,2-1.1c0.3,0.3,0.5,1,1,0.9c0,0.3,0.3,0.3,0.3,0.6c-0.1,0-0.4-0.1-0.4,0.1c0,0.3,0.4,0.2,0.4,0.4
			c-0.5,0.3-1.5,0.3-1.7,0.9c0.9,0.6,1.7-0.4,2.7-0.5c0.6-0.1,1.2,0.3,1.9,0c-0.2-0.1-0.5-0.1-0.6-0.3c0.7,0.1,1.2,0.3,1.8,0
			c0.6,0.2,0.9,0.5,1.5,0.7c0.1-0.3-0.3-0.5-0.1-0.7c0.4,0.3,0.7,0.5,1.3,0.5c0.2-0.2-0.3-0.3-0.1-0.4c0.4,0.1,1.1,0.3,1.5,0.1
			c-0.2-0.2-0.4-0.4-0.7-0.5c0.3,0,0-0.5,0.3-0.4c0.6,0.7,1.8,1.4,3,1c-0.5-0.2-1.2-0.3-1.3-0.9c0.9,0.6,3.1,1.7,3.9,0.3
			c0.3,0,0.8,0.1,1-0.1c-0.2-0.6-0.1-1.7,0-2.3c-0.6-0.2-1.7-0.4-2.3,0.1c-0.9,0-1.9,0.2-2.6,0.2c0-0.3,0.3-0.3,0.4-0.5
			c-1-0.1-2.4,0.1-2.9-0.6c-0.2-0.1-0.4,0.2-0.4,0c-0.3-0.6,0.5-0.7,0.5-1.2c0-0.5-0.4-0.9-1.1-1c0-0.6-0.3-0.9-0.2-1.6
			c0-0.4,0-0.8,0-1.2c1.4,0,0.3-1.6,0.8-2.2c0.5-0.1,0.8,0.4,1.2,0.2c0.5-0.2,0-0.7,0.1-1c-0.1-0.5-0.3-0.8-0.5-1c0,0,0-0.1,0-0.1
			c0.2-0.2,0.4-0.4,0.4-0.7c0.7-1.1,1.1-2.5,2.3-3c0.3,0.3,1.2,0.4,1.5,0.1c0-0.2-0.2-0.2-0.1-0.5c0.2-0.2,0.7-0.3,0.4-0.7
			c0.4-0.3,0.7-0.6,1.3-0.6c0.5,0,0.5,0.4,0.8,0.5c0.4,0,0.4,0.4,0.6,0.6c0.4,0,0.1-0.3,0.1-0.6c0.1-0.1,0.1,0,0.2,0
			c0.1,0.2,0.5,0,0.7,0.1c0.1,0.4,0.5-0.1,0.8,0.2c0.2-0.5,0.6-0.6,1.2-0.4c-0.3,0.7,0.5,0.9,1,1.2c0.2,0.2,0.4,0.4,0.7,0.5
			c0-0.2-0.2-0.3-0.2-0.5c0.6,0.3,1.1,0.7,1.4,1.3c0.3,0.1,0.2-0.2,0.4-0.1c0.1,0.4-0.1,0.5-0.1,0.7c1.1-0.4,1.6,0.9,2.2,1.4
			c-0.2,0.1-0.1,0.5-0.4,0.3c0.1,0.9,0.6,1.4,1,1.9c-0.3,0-1.1,0.3-0.6,0.7c0.3,0.1,0-0.4,0.4-0.3c0,0,0,0,0,0.1
			c0.2,0.1,0.2-0.1,0.4-0.1c0.1,0.3,0.6,0.1,0.7,0.4C93.3,75.3,93.1,76.2,92.8,76.9z M89.5,73.6c0.1-0.1,0.3-0.6-0.1-0.5
			C89.4,73.2,89.3,73.6,89.5,73.6z M90.5,75.1c0,0.2,0.1,0.3,0.3,0.3c0.1-0.1,0.2-0.1,0.2-0.3C90.9,75,90.6,75,90.5,75.1z"/>
		<path fill-rule="evenodd" fill="#33342E"  a:adobe-opacity-share="0" d="M97.2,76.6c0,2.5,0,5,0,7.5c-0.6,0.1-1.2-0.3-1.5-0.2
			c0.1,0.1,0.5,0.2,0.4,0.3c-0.4,0.1-0.8,0-1.2,0c0.1,0.2,0.1,0.5-0.1,0.6c-1.1,0.1-2.2-0.5-3.3-0.7c-0.3,0.7-1.2-0.1-1.5,0
			c0.1,0.1,0.2,0.2,0.1,0.4c-0.7,0.3-1.5-0.1-2.3-0.1c-0.3,0.7-1.9,0.2-2.4,0.7c-1.1-0.1-1.3-2.1-0.7-2.8c1.2-0.2,3.5,1.2,4.1-0.4
			c1.3-0.1,3,0.4,3.8-0.4c-0.4-0.4-0.5,0.2-0.9,0.2c-0.5-0.7,0.7-0.8,0.5-1.6c0.1,0,0.2,0,0.3,0c-0.5-0.4-0.3-1.1,0.1-1.5
			c-0.3-0.7,0.2-0.8,0.2-1.6C94.3,77.1,95.7,76.6,97.2,76.6z M89.3,83.7c-0.4,0-0.5-0.3-1-0.3C88.4,83.8,89.1,83.8,89.3,83.7z"/>
		<path fill-rule="evenodd" fill="#33342E"  a:adobe-opacity-share="0" d="M97.2,76.6c-1.5,0-2.9,0.5-4.4,0.3
			c0.3-0.7,0.4-1.6-0.1-2.1c-0.2-0.3-0.7-0.5-1-0.4c-0.3-0.1-0.1,0.4-0.4,0.3c-0.5-0.4,0.2-0.7,0.6-0.7c-0.5-0.5-0.9-1-1-1.9
			c0.3,0.2,0.2-0.2,0.4-0.3c-0.6-0.6-1.1-1.8-2.2-1.4c0-0.2,0.2-0.4,0.1-0.7c-0.2,0-0.2,0.2-0.4,0.1c-0.3-0.6-0.8-1-1.4-1.3
			c-0.1-0.2,0,0.2,0,0.3c-0.2,0-0.2-0.3-0.4-0.3c-0.4-0.3-1.3-0.5-1-1.2c-0.6-0.1-1.1-0.1-1.2,0.4C84.4,67.6,84,68,84,67.6
			c-0.1-0.2-0.5,0-0.7-0.1c-0.1,0-0.1-0.1-0.2,0c0,0.3,0.2,0.6-0.1,0.6c-0.2-0.2-0.2-0.6-0.6-0.6c-0.2-0.2-0.4-0.7-0.8-0.5
			c-0.6,0-1,0.3-1.3,0.6c0.3,0.5-0.2,0.6-0.4,0.7c-0.1,0.3,0.2,0.3,0.1,0.5c-0.4,0.4-1.2,0.3-1.5-0.1c-1.2,0.6-1.7,1.9-2.3,3
			c-0.2,0.2-0.3,0.4-0.4,0.7c0,0,0,0.1,0,0.1c0.3,0.3,0.4,0.6,0.5,1c-0.3,0.3,0.2,0.7-0.1,1c-0.5,0.2-0.7-0.3-1.2-0.2
			c-0.5,0.6,0.6,2.2-0.8,2.2c0,0.4,0,0.8,0,1.2c-0.2,0,0.1,0.5-0.1,0.4c-4.8-0.2-8.3,0.9-13.1,0.6c0-5.8,0-9.7,0-15.6
			c12.2,0,24.4,0,36.6,0C97.2,68.5,97.2,71.6,97.2,76.6z"/>
	</g>
	<g>
		<g>
			<rect x="55.2" y="58" fill-rule="evenodd" fill="#FFFFFF" width="41.5" height="33.7"/>
			<g id="tykqki_2_">
				<g>
					<g>
						<path fill-rule="evenodd" fill="#BDCF31" d="M80.2,64.6c0.2,0,0.6-0.1,0.7,0.1C80.7,64.6,80.3,64.7,80.2,64.6z"/>
						<path fill-rule="evenodd" fill="#D9D931" d="M86.5,70c0.4,0,0.2,0.4,0.1,0.5C86.3,70.6,86.4,70.2,86.5,70z"/>
						<path fill-rule="evenodd" fill="#D9D931" d="M88,72.1c0,0.2-0.1,0.2-0.2,0.3c-0.2,0-0.3-0.1-0.3-0.3C87.6,72,87.9,72,88,72.1z
							"/>
						<path fill-rule="evenodd" fill="#BDCF31" d="M70.8,75c-0.1,0.7,0.2,1,0.2,1.6c0.7,0.2,1.1,0.5,1.1,1c0,0.5-0.8,0.6-0.5,1.2
							c0,0.2,0.2-0.1,0.4,0c0.5,0.7,1.8,0.5,2.9,0.6c-0.1,0.2-0.4,0.2-0.4,0.5c0.6,0,1.6-0.3,2.6-0.2c0.6-0.5,1.7-0.3,2.3-0.1
							c-0.1,0.6-0.2,1.7,0,2.3c-0.2,0.2-0.7,0-1,0.1c-0.8,1.4-3,0.3-3.9-0.3c0.2,0.6,0.8,0.7,1.3,0.9c-1.2,0.5-2.5-0.3-3-1
							c-0.3,0,0,0.5-0.3,0.4c0.3,0.1,0.5,0.3,0.7,0.5c-0.4,0.2-1.1,0-1.5-0.1c-0.2,0.1,0.3,0.2,0.1,0.4c-0.6,0-1-0.3-1.3-0.5
							c-0.2,0.2,0.2,0.4,0.1,0.7c-0.6-0.1-0.9-0.4-1.5-0.7c-0.5,0.3-1.1,0.1-1.8,0c0.1,0.2,0.4,0.2,0.6,0.3c-0.7,0.3-1.3-0.1-1.9,0
							c-1,0.1-1.8,1.2-2.7,0.5c0.2-0.6,1.1-0.6,1.7-0.9c0-0.3-0.4-0.2-0.4-0.4c-0.1-0.2,0.2-0.1,0.4-0.1c0-0.3-0.3-0.3-0.3-0.6
							c-0.5,0.2-0.7-0.6-1-0.9c-1.1-0.1-1.7,0.4-2,1.1c0.1,0.1,0.2,0.1,0.3,0.2c-0.5,0-0.8,0.3-0.8,0.8c0.1,0.3,0.6,0.2,0.9,0.3
							c0,0.3-0.3,0.2-0.4,0.1c0,0.2,0.2,0.2,0.2,0.3c0.2-0.2,0.8,0.1,1.2,0.2c-0.9,1.3-2.9,0.6-4.4,0.3c-0.4,0.1-0.7,0.2-1.1,0.2
							c0-2.6,0-5.1,0-7.7c4.9,0.3,8.3-0.8,13.1-0.6C70.9,75.5,70.6,75,70.8,75z"/>
						<path fill-rule="evenodd" fill="#9DAD3A" d="M85.4,80.4c0.4,0,0.6,0.3,1,0.3C86.1,80.8,85.4,80.8,85.4,80.4z"/>
						<path fill-rule="evenodd" fill="#BDCF31" d="M88.7,71.5c0.4-0.1,0.8,0.1,1,0.4c-0.1-0.3-0.6-0.1-0.7-0.4
							C88.8,71.4,88.9,71.6,88.7,71.5C88.7,71.5,88.7,71.5,88.7,71.5z"/>
						<path fill-rule="evenodd" fill="#BDCF31" d="M84.4,65.6c0,0.3,0.2,0.3,0.2,0.5c-0.2-0.1-0.4-0.3-0.7-0.5
							c0.3,0,0.2,0.3,0.4,0.3C84.4,65.8,84.3,65.4,84.4,65.6z"/>
						<path fill-rule="evenodd" fill="#BDCF31" d="M78.5,64c0.4-0.2,0.6,0.3,0.8,0.5C79,64.4,79,64,78.5,64z"/>
						<path fill-rule="evenodd" fill="#BDCF31" d="M73,68.9c0,0.4-0.2,0.5-0.4,0.7C72.6,69.3,72.8,69.1,73,68.9z"/>
						<path fill-rule="evenodd" fill="#BDCF31" d="M73,70.8c-0.2,0.4,0.3,0.8-0.1,1C73.3,71.5,72.7,71.1,73,70.8z"/>
						<path fill-rule="evenodd" fill="#9DAD3A" d="M89.8,73.9c0,0.8-0.5,0.9-0.2,1.6c-0.4,0.3-0.6,1-0.1,1.5c-0.1,0-0.2,0-0.3,0
							c0.2,0.8-1,0.9-0.5,1.6c0.4,0,0.5-0.6,0.9-0.2c-0.8,0.8-2.5,0.3-3.8,0.4c-0.6,1.6-2.9,0.2-4.1,0.4c-0.6,0.7-0.4,2.7,0.7,2.8
							c0.6-0.5,2.1,0.1,2.4-0.7c0.8,0,1.6,0.5,2.3,0.1c0-0.2,0-0.3-0.1-0.4c0.4-0.1,1.2,0.7,1.5,0c1.1,0.2,2.2,0.8,3.3,0.7
							c0.2-0.1,0.3-0.4,0.1-0.6c0.5,0,0.8,0.1,1.2,0c0.2-0.1-0.3-0.2-0.4-0.3c0.3,0,0.9,0.3,1.5,0.2c0,3.4,0,4.8,0,8.1
							c-12.2,0-24.4,0-36.6,0c0-2.5,0-3,0-5.5c0.4,0,0.7-0.2,1.1-0.2c1.5,0.3,3.5,1,4.4-0.3c-0.5-0.2-1-0.4-1.2-0.2
							c-0.1-0.1-0.2-0.1-0.2-0.3c0.2,0.1,0.4,0.1,0.4-0.1c-0.3-0.1-0.7,0-0.9-0.3c0.1-0.5,0.3-0.8,0.8-0.8c-0.1-0.1-0.2-0.1-0.3-0.2
							c0.3-0.7,0.9-1.2,2-1.1c0.3,0.3,0.5,1,1,0.9c0,0.3,0.3,0.3,0.3,0.6c-0.1,0-0.4-0.1-0.4,0.1c0,0.3,0.4,0.2,0.4,0.4
							c-0.5,0.3-1.5,0.3-1.7,0.9c0.9,0.6,1.7-0.4,2.7-0.5c0.6-0.1,1.2,0.3,1.9,0c-0.2-0.1-0.5-0.1-0.6-0.3c0.7,0.1,1.2,0.3,1.8,0
							c0.6,0.2,0.9,0.5,1.5,0.7c0.1-0.3-0.3-0.5-0.1-0.7c0.4,0.3,0.7,0.5,1.3,0.5c0.2-0.2-0.3-0.3-0.1-0.4c0.4,0.1,1.1,0.3,1.5,0.1
							c-0.2-0.2-0.4-0.4-0.7-0.5c0.3,0,0-0.5,0.3-0.4c0.6,0.7,1.8,1.4,3,1c-0.5-0.2-1.2-0.3-1.3-0.9c0.9,0.6,3.1,1.7,3.9,0.3
							c0.3,0,0.8,0.1,1-0.1c-0.2-0.6-0.1-1.7,0-2.3c-0.6-0.2-1.7-0.4-2.3,0.1c-0.9,0-1.9,0.2-2.6,0.2c0-0.3,0.3-0.3,0.4-0.5
							c-1-0.1-2.4,0.1-2.9-0.6c-0.2-0.1-0.4,0.2-0.4,0c-0.3-0.6,0.5-0.7,0.5-1.2c0-0.5-0.4-0.9-1.1-1c0-0.6-0.3-0.9-0.2-1.6
							c0-0.4,0-0.8,0-1.2c1.4,0,0.3-1.6,0.8-2.2c0.5-0.1,0.8,0.4,1.2,0.2c0.5-0.2,0-0.7,0.1-1c-0.1-0.5-0.3-0.8-0.5-1
							c0,0,0-0.1,0-0.1c0.2-0.2,0.4-0.4,0.4-0.7c0.7-1.1,1.1-2.5,2.3-3c0.3,0.3,1.2,0.4,1.5,0.1c0-0.2-0.2-0.2-0.1-0.5
							c0.2-0.2,0.7-0.3,0.4-0.7c0.4-0.3,0.7-0.6,1.3-0.6c0.5,0,0.5,0.4,0.8,0.5c0.4,0,0.4,0.4,0.6,0.6c0.4,0,0.1-0.3,0.1-0.6
							c0.1-0.1,0.1,0,0.2,0c0.1,0.2,0.5,0,0.7,0.1c0.1,0.4,0.5-0.1,0.8,0.2c0.2-0.5,0.6-0.6,1.2-0.4c-0.3,0.7,0.5,0.9,1,1.2
							c0.2,0.2,0.4,0.4,0.7,0.5c0-0.2-0.2-0.3-0.2-0.5c0.6,0.3,1.1,0.7,1.4,1.3c0.3,0.1,0.2-0.2,0.4-0.1c0.1,0.4-0.1,0.5-0.1,0.7
							c1.1-0.4,1.6,0.9,2.2,1.4c-0.2,0.1-0.1,0.5-0.4,0.3c0.1,0.9,0.6,1.4,1,1.9c-0.3,0-1.1,0.3-0.6,0.7c0.3,0.1,0-0.4,0.4-0.3
							c0,0,0,0,0,0.1c0.2,0.1,0.2-0.1,0.4-0.1c0.1,0.3,0.6,0.1,0.7,0.4C90.3,72.3,90.1,73.2,89.8,73.9z M86.5,70.6
							c0.1-0.1,0.3-0.6-0.1-0.5C86.4,70.2,86.3,70.6,86.5,70.6z M87.5,72.1c0,0.2,0.1,0.3,0.3,0.3c0.1-0.1,0.2-0.1,0.2-0.3
							C87.9,72,87.6,72,87.5,72.1z"/>
						<path fill-rule="evenodd" fill="#BDCF31" d="M94.2,73.6c0,2.5,0,5,0,7.5c-0.6,0.1-1.2-0.3-1.5-0.2c0.1,0.1,0.5,0.2,0.4,0.3
							c-0.4,0.1-0.8,0-1.2,0c0.1,0.2,0.1,0.5-0.1,0.6c-1.1,0.1-2.2-0.5-3.3-0.7c-0.3,0.7-1.2-0.1-1.5,0c0.1,0.1,0.2,0.2,0.1,0.4
							c-0.7,0.3-1.5-0.1-2.3-0.1c-0.3,0.7-1.9,0.2-2.4,0.7c-1.1-0.1-1.3-2.1-0.7-2.8c1.2-0.2,3.5,1.2,4.1-0.4c1.3-0.1,3,0.4,3.8-0.4
							c-0.4-0.4-0.5,0.2-0.9,0.2c-0.5-0.7,0.7-0.8,0.5-1.6c0.1,0,0.2,0,0.3,0c-0.5-0.4-0.3-1.1,0.1-1.5c-0.3-0.7,0.2-0.8,0.2-1.6
							C91.3,74.1,92.7,73.6,94.2,73.6z M86.3,80.7c-0.4,0-0.5-0.3-1-0.3C85.4,80.8,86.1,80.8,86.3,80.7z"/>
						<path fill-rule="evenodd" fill="#D9D931" d="M94.2,73.6c-1.5,0-2.9,0.5-4.4,0.3c0.3-0.7,0.4-1.6-0.1-2.1
							c-0.2-0.3-0.7-0.5-1-0.4c-0.3-0.1-0.1,0.4-0.4,0.3c-0.5-0.4,0.2-0.7,0.6-0.7c-0.5-0.5-0.9-1-1-1.9c0.3,0.2,0.2-0.2,0.4-0.3
							c-0.6-0.6-1.1-1.8-2.2-1.4c0-0.2,0.2-0.4,0.1-0.7c-0.2,0-0.2,0.2-0.4,0.1c-0.3-0.6-0.8-1-1.4-1.3c-0.1-0.2,0,0.2,0,0.3
							c-0.2,0-0.2-0.3-0.4-0.3c-0.4-0.3-1.3-0.5-1-1.2c-0.6-0.1-1.1-0.1-1.2,0.4C81.4,64.6,81,65,81,64.6c-0.1-0.2-0.5,0-0.7-0.1
							c-0.1,0-0.1-0.1-0.2,0c0,0.3,0.2,0.6-0.1,0.6c-0.2-0.2-0.2-0.6-0.6-0.6c-0.2-0.2-0.4-0.7-0.8-0.5c-0.6,0-1,0.3-1.3,0.6
							c0.3,0.5-0.2,0.6-0.4,0.7c-0.1,0.3,0.2,0.3,0.1,0.5c-0.4,0.4-1.2,0.3-1.5-0.1c-1.2,0.6-1.7,1.9-2.3,3
							c-0.2,0.2-0.3,0.4-0.4,0.7c0,0,0,0.1,0,0.1c0.3,0.3,0.4,0.6,0.5,1c-0.3,0.3,0.2,0.7-0.1,1c-0.5,0.2-0.7-0.3-1.2-0.2
							c-0.5,0.6,0.6,2.2-0.8,2.2c0,0.4,0,0.8,0,1.2c-0.2,0,0.1,0.5-0.1,0.4c-4.8-0.2-8.3,0.9-13.1,0.6c0-5.8,0-9.7,0-15.6
							c12.2,0,24.4,0,36.6,0C94.2,65.5,94.2,68.6,94.2,73.6z"/>
					</g>
				</g>
			</g>
		</g>
	</g>
</g>
<g>
	<polyline fill="none" stroke="#FFFFFF" stroke-width="2" stroke-miterlimit="10" points="76,47.8 76,49.8 74,49.8 	"/>
	
		<line fill="none" stroke="#FFFFFF" stroke-width="2" stroke-miterlimit="10" stroke-dasharray="4.4193,4.4193" x1="69.5" y1="49.8" x2="36.4" y2="49.8"/>
	<polyline fill="none" stroke="#FFFFFF" stroke-width="2" stroke-miterlimit="10" points="34.2,49.8 32.2,49.8 32.2,47.8 	"/>
	
		<line fill="none" stroke="#FFFFFF" stroke-width="2" stroke-miterlimit="10" stroke-dasharray="3.5613,3.5613" x1="32.2" y1="44.2" x2="32.2" y2="17.5"/>
	<polyline fill="none" stroke="#FFFFFF" stroke-width="2" stroke-miterlimit="10" points="32.2,15.7 32.2,13.7 34.2,13.7 	"/>
	
		<line fill="none" stroke="#FFFFFF" stroke-width="2" stroke-miterlimit="10" stroke-dasharray="4.4193,4.4193" x1="38.6" y1="13.7" x2="71.8" y2="13.7"/>
	<polyline fill="none" stroke="#FFFFFF" stroke-width="2" stroke-miterlimit="10" points="74,13.7 76,13.7 76,15.7 	"/>
	
		<line fill="none" stroke="#FFFFFF" stroke-width="2" stroke-miterlimit="10" stroke-dasharray="3.5613,3.5613" x1="76" y1="19.3" x2="76" y2="46"/>
</g>
<path fill="#FFFFFF" d="M52.9,23.1L46.8,28h-3.3c-0.6,0-1.1,0.5-1.1,1.1v4.7c0,0.6,0.5,1.2,1.1,1.2h3.6l5.8,4.7
	c0.2,0.2,0.4,0.1,0.4-0.2V23.3C53.3,23,53.1,22.9,52.9,23.1z"/>
<path fill="#FFFFFF" d="M57.1,23.9l-1.3,1.3c1.7,1.7,2.6,3.9,2.6,6.2c0,2.3-0.9,4.5-2.6,6.2l1.3,1.3c2-2,3.1-4.7,3.1-7.5
	S59.1,25.9,57.1,23.9z"/>
<path fill="#FFFFFF" d="M60.5,21l-1.3,1.3c2.4,2.5,3.7,5.7,3.7,9.2c0,3.5-1.4,6.9-3.9,9.4l1.3,1.3c2.8-2.8,4.4-6.6,4.4-10.7
	C64.7,27.5,63.2,23.8,60.5,21z"/>
<path fill="#33342E" d="M87.7,41.1c0,0-7.4-6.5-15.9-12.4c0,0,0.6,7.8,0.9,19.6l5.6-2.7c4.6,10.6,4.7,16.2,4.8,30h1
	c0,0,5.5-13.9-1.5-32L87.7,41.1z"/>
<path fill="#67C8F0" d="M85.4,37.6c0,0-7.4-6.5-15.9-12.4c0,0,0.6,7.8,0.9,19.6l5.6-2.7c4.6,10.6,7,19.7,7.1,33.4h1
	c0,0,3.2-17.4-3.8-35.5L85.4,37.6z"/>
</svg>
