#define backArrowDis_width 16
#define backArrowDis_height 15
static unsigned char backArrowDis_bits[] = {
   0x80, 0x00, 0x40, 0x00, 0xa0, 0x00, 0x50, 0x00, 0xa8, 0x00, 0x54, 0x44,
   0xaa, 0x88, 0x55, 0x44, 0xaa, 0x88, 0x54, 0x44, 0xa8, 0x88, 0x50, 0x00,
   0xa0, 0x00, 0x40, 0x00, 0x80, 0x00};
