#define backArrow_width 16
#define backArrow_height 15
static unsigned char backArrow_bits[] = {
   0x80, 0x00, 0xc0, 0x00, 0xe0, 0x00, 0xf0, 0x00, 0xf8, 0x00, 0xfc, 0xcc,
   0xfe, 0xcc, 0xff, 0xcc, 0xfe, 0xcc, 0xfc, 0xcc, 0xf8, 0xcc, 0xf0, 0x00,
   0xe0, 0x00, 0xc0, 0x00, 0x80, 0x00};
