#define dblRightArrowDis_width 16
#define dblRightArrowDis_height 15
static unsigned char dblRightArrowDis_bits[] = {
   0x01, 0x01, 0x02, 0x02, 0x05, 0x05, 0x0a, 0x0a, 0x15, 0x15, 0x2a, 0x2a,
   0x55, 0x55, 0xaa, 0xaa, 0x55, 0x55, 0x2a, 0x2a, 0x15, 0x15, 0x0a, 0x0a,
   0x05, 0x05, 0x02, 0x02, 0x01, 0x01};
