#define findDis_width 15
#define findDis_height 15
static unsigned char findDis_bits[] = {
   0x10, 0x04, 0x28, 0x0a, 0x04, 0x10, 0xaa, 0x2a, 0x55, 0x55, 0x20, 0x02,
   0x41, 0x41, 0x20, 0x02, 0x41, 0x41, 0xa0, 0x02, 0x01, 0x40, 0x20, 0x02,
   0x01, 0x40, 0x20, 0x02, 0x15, 0x54};
