#define forwardArrowDis_width 16
#define forwardArrowDis_height 15
static unsigned char forwardArrowDis_bits[] = {
   0x00, 0x01, 0x00, 0x02, 0x00, 0x05, 0x00, 0x0a, 0x00, 0x15, 0x22, 0x2a,
   0x11, 0x55, 0x22, 0xaa, 0x11, 0x55, 0x22, 0x2a, 0x00, 0x15, 0x00, 0x0a,
   0x00, 0x05, 0x00, 0x02, 0x00, 0x01};
