/* XPM */
static char *xpdfIcon[] = {
/* width height num_colors chars_per_pixel */
"    48    48        7            1",
/* colors */
". c #000000",
"# c #a00000",
"a c #a0a0a0",
"b c #c0c0c0",
"c c #e00000",
"d c #e0e0e0",
"e c #ffffff",
/* pixels */
"................................................",
"................................................",
"................................................",
"................................................",
"#ccccccc#................................#ccc#..",
".#ccccccc#..............................#ccc#...",
"..#ccccccc#............................#ccc#....",
"...#ccccccc#................bbba.....abbbc#.....",
"....#ccccccc#...............beea....debbed......",
".....#ccccccc#...............ee....bebccee......",
"......#ccccccc#..............ee....eecc#bb......",
".......#ccccccc#............aee...#eec#.........",
"........#ccccccc#...........bed..#beb#..........",
".........#ccccccc#..........beb.#cbeb...........",
"..........#ccccccc#.........beb#ccbeb...........",
"...........#ccccccc#........bebcccbeb...........",
"............#ccccccc#.......eebcc#dea...........",
".............#ccccccc#......eecc#.ee............",
".........ae...#ccccccc#....#eec#..ee............",
"........aeeaeeeebcccccabeeeaee#.beeeeee.........",
".......aeeeea..debcccaed##ceee....ee............",
"......addee.....eeccaedccccbed...beb............",
"......a.bee.....ee#cbeaccccbeb...beb............",
"........beb.....ee.#eecccccbeb...beb............",
"........beb.....ee..eecccccbeb...beb............",
"........beb.....ee..eeccccceeb...dea............",
"........deb....aeb.#eeccccceec#..ee.............",
"........eea....dea#cee##ccceecc#.ee.............",
"........eee...dea#ccbeda#cdeeccc#ee.............",
"........eeaeeeba#ccc#beeeeaeeecceeee............",
"........ee.....#ccc#......#ccccccc#.............",
".......bee....#ccc#........#ccccccc#............",
".......beb...#ccc#..........#ccccccc#...........",
".......beb..#ccc#............#ccccccc#..........",
".......beb.#ccc#..............#ccccccc#.........",
".......deb#ccc#................#ccccccc#........",
".......eeaccc#..................#ccccccc#.......",
".......eeccc#....................#ccccccc#......",
".......eecc#......................#ccccccc#.....",
"......beeb#........................#ccccccc#....",
".....#bbbb..........................#ccccccc#...",
"....#ccc#............................#ccccccc#..",
"...#ccc#..............................#ccccccc#.",
"..#ccc#................................#ccccccc.",
"................................................",
"................................................",
"................................................",
"................................................"
};
