<?xml version="1.0" encoding="utf-8"?>
<!-- Generator: Adobe Illustrator 15.1.0, SVG Export Plug-In  -->
<!DOCTYPE svg [
	<!ENTITY ns_flows "http://ns.adobe.com/Flows/1.0/">
]>
<svg version="1.2" baseProfile="tiny"
	 xmlns="http://www.w3.org/2000/svg" xmlns:xlink="http://www.w3.org/1999/xlink" xmlns:a="http://ns.adobe.com/AdobeSVGViewerExtensions/3.0/"
	 x="0px" y="0px" width="107px" height="107px" viewBox="0 0 107 107" overflow="visible" xml:space="preserve">
<defs>
</defs>
<g>
	<linearGradient id="SVGID_1_" gradientUnits="userSpaceOnUse" x1="53.666" y1="0" x2="53.666" y2="107.333">
		<stop  offset="0" style="stop-color:#727270"/>
		<stop  offset="1" style="stop-color:#41413F"/>
		<a:midPointStop  offset="0" style="stop-color:#727270"/>
		<a:midPointStop  offset="0.5" style="stop-color:#727270"/>
		<a:midPointStop  offset="1" style="stop-color:#41413F"/>
	</linearGradient>
	<path fill="url(#SVGID_1_)" d="M107.3,99.3c0,4.4-3.6,8-8,8H8c-4.4,0-8-3.6-8-8V8c0-4.4,3.6-8,8-8h91.3c4.4,0,8,3.6,8,8V99.3z"/>
</g>
<path fill="#FFFFFF" d="M65.6,64.2v-2.8h-0.1c-0.4,0.6-0.8,1.1-1.2,1.5c-0.4,0.4-0.9,0.7-1.4,1c-0.5,0.3-0.9,0.5-1.3,0.6
	c-0.4,0.1-0.8,0.2-1.1,0.2c-0.8,0-1.4-0.1-1.8-0.2c-0.5-0.2-0.8-0.4-1-0.6v7.3h-5.5V44.4h5.5v11.2c0,1.6,0.3,2.9,0.8,3.7
	c0.5,0.8,1.4,1.2,2.7,1.2c1.5,0,2.6-0.4,3.2-1.3s1-2.3,1-4.4V44.4h5.5v19.9H65.6z"/>
<path fill="#FFFFFF" d="M14,44.1c0.2-1.1,0.7-2.1,1.3-3s1.6-1.6,2.7-2.2c1.2-0.6,2.7-0.8,4.7-0.8c1.2,0,2.3,0.1,3.3,0.4
	c1.1,0.3,2,0.7,2.8,1.3c0.8,0.6,1.4,1.4,1.9,2.3c0.5,0.9,0.7,2,0.7,3.3c0,1.2-0.3,2.3-1,3.3c-0.7,1-1.5,1.7-2.6,2v0.1
	c0.8,0.2,1.6,0.5,2.2,0.9c0.6,0.4,1.1,0.9,1.6,1.6c0.4,0.6,0.7,1.3,0.9,2.1c0.2,0.8,0.3,1.5,0.3,2.4c0,1.2-0.2,2.3-0.6,3.4
	c-0.4,1.1-1,2-1.7,2.8c-0.7,0.8-1.6,1.5-2.6,1.9c-1,0.5-2.1,0.7-3.4,0.7c-1.1,0-2.1-0.1-3.2-0.2v-4.4c0.3,0.1,0.5,0.1,0.8,0.2
	c0.3,0,0.5,0,0.8,0c0.7,0,1.3-0.1,1.8-0.4c0.5-0.2,1-0.6,1.4-1c0.4-0.4,0.7-0.9,0.9-1.5c0.2-0.6,0.3-1.2,0.3-1.8
	c0-1.4-0.4-2.5-1.1-3.4c-0.8-0.9-1.9-1.3-3.6-1.3c-0.2,0-0.4,0-0.7,0c-0.2,0-0.5,0-0.7,0.1v-3.6c0.2,0,0.3,0,0.4,0.1
	c0.1,0,0.3,0,0.4,0c0.5,0,1-0.1,1.5-0.2c0.5-0.1,0.9-0.3,1.3-0.6c0.4-0.3,0.7-0.6,0.9-1.1c0.2-0.4,0.3-0.9,0.3-1.5
	c0-0.8-0.1-1.5-0.4-1.9c-0.3-0.4-0.6-0.8-1-1c-0.4-0.2-0.8-0.4-1.2-0.4c-0.4-0.1-0.8-0.1-1.1-0.1c-1.1,0-1.9,0.3-2.5,1
	c-0.6,0.7-0.9,1.6-0.9,2.7v19.8h-5.5V47.4C13.7,46.3,13.8,45.2,14,44.1z"/>
<g>
	<g  a:adobe-opacity-share="1">
		<path fill="#33342E"  a:adobe-opacity-share="0" d="M46.4,15c-0.9,5.9-6.5,51.9-4.7,70.1c0.9,8.7,2.2,13,2.2,13s2.3-25.8,2.5-35.7
			c0.2-9.9,2.6-42.4,2.4-46.4S46.8,12.6,46.4,15z"/>
	</g>
	<g>
		<path fill="#67C8F0" d="M44.4,12c-0.9,5.9-6.5,51.9-4.7,70.1c0.9,8.7,2.2,13,2.2,13s2.3-25.8,2.5-35.7c0.2-9.9,2.6-42.4,2.4-46.4
			S44.8,9.6,44.4,12z"/>
	</g>
</g>
<path fill="#FFFFFF" d="M76.7,54.3c0-1.6,0.2-3,0.7-4.3c0.5-1.3,1.2-2.4,2.1-3.3c0.9-0.9,2-1.6,3.2-2.1c1.3-0.5,2.7-0.8,4.2-0.8
	c2.5,0,4.5,0.6,6.3,1.8l2-2.3l1.4,1.2l-2.1,2.3c0.8,0.9,1.5,2,2,3.2s0.7,2.7,0.7,4.2c0,1.6-0.2,3-0.7,4.3c-0.5,1.3-1.2,2.4-2.1,3.3
	c-0.9,0.9-2,1.6-3.2,2.1c-1.3,0.5-2.7,0.7-4.2,0.7c-2.5,0-4.6-0.6-6.3-1.9l-2.3,2.5l-1.4-1.2l2.3-2.6C77.6,59.7,76.7,57.3,76.7,54.3
	z M87,47.9c-0.9,0-1.7,0.2-2.3,0.6c-0.6,0.4-1.1,0.9-1.5,1.4c-0.4,0.6-0.6,1.3-0.8,2c-0.2,0.8-0.2,1.6-0.2,2.3c0,0.6,0,1.2,0.1,1.7
	c0.1,0.6,0.2,1.1,0.4,1.6l7.4-8.5C89.4,48.4,88.3,47.9,87,47.9z M85.1,60.3c0.5,0.2,1.2,0.3,1.9,0.3c0.9,0,1.7-0.2,2.3-0.5
	s1.1-0.8,1.5-1.4c0.4-0.6,0.6-1.3,0.8-2c0.2-0.8,0.2-1.5,0.2-2.3c0-0.6-0.1-1.2-0.2-1.8c-0.1-0.6-0.3-1.2-0.5-1.7l-7.5,8.5
	C84.1,59.8,84.5,60.1,85.1,60.3z"/>
</svg>
