#define dblLeftArrow_width 16
#define dblLeftArrow_height 15
static unsigned char dblLeftArrow_bits[] = {
   0x80, 0x80, 0xc0, 0xc0, 0xe0, 0xe0, 0xf0, 0xf0, 0xf8, 0xf8, 0xfc, 0xfc,
   0xfe, 0xfe, 0xff, 0xff, 0xfe, 0xfe, 0xfc, 0xfc, 0xf8, 0xf8, 0xf0, 0xf0,
   0xe0, 0xe0, 0xc0, 0xc0, 0x80, 0x80};
