#define forwardArrow_width 16
#define forwardArrow_height 15
static unsigned char forwardArrow_bits[] = {
   0x00, 0x01, 0x00, 0x03, 0x00, 0x07, 0x00, 0x0f, 0x00, 0x1f, 0x33, 0x3f,
   0x33, 0x7f, 0x33, 0xff, 0x33, 0x7f, 0x33, 0x3f, 0x00, 0x1f, 0x00, 0x0f,
   0x00, 0x07, 0x00, 0x03, 0x00, 0x01};
