<?xml version="1.0" encoding="utf-8"?>
<!-- Generator: Adobe Illustrator 15.1.0, SVG Export Plug-In  -->
<!DOCTYPE svg [
	<!ENTITY ns_flows "http://ns.adobe.com/Flows/1.0/">
]>
<svg version="1.2" baseProfile="tiny"
	 xmlns="http://www.w3.org/2000/svg" xmlns:xlink="http://www.w3.org/1999/xlink" xmlns:a="http://ns.adobe.com/AdobeSVGViewerExtensions/3.0/"
	 x="0px" y="0px" width="96px" height="96px" viewBox="-7.218 -11.262 96 96" overflow="visible" xml:space="preserve">
<defs>
</defs>
<g>
	<g>
		<path fill="#FFFFFF" d="M81.87,58.514c0,2.75-2.25,5-5,5H5.75c-2.75,0-5-2.25-5-5V5.75c0-2.75,2.25-5,5-5h71.12c2.75,0,5,2.25,5,5
			V58.514z"/>
		<linearGradient id="SVGID_1_" gradientUnits="userSpaceOnUse" x1="41.3105" y1="3.8882" x2="41.3105" y2="60.3764">
			<stop  offset="0" style="stop-color:#F0F1F2"/>
			<stop  offset="1" style="stop-color:#FAFDFD"/>
		</linearGradient>
		<path fill="url(#SVGID_1_)" d="M79.031,55.876c0,2.475-2.093,4.5-4.65,4.5H8.239c-2.558,0-4.65-2.025-4.65-4.5V8.388
			c0-2.475,2.092-4.5,4.65-4.5h66.142c2.558,0,4.65,2.025,4.65,4.5V55.876z"/>
	</g>
	<path fill="none" stroke="#A2A9AD" stroke-width="1.5" stroke-miterlimit="10" d="M81.87,58.514c0,2.75-2.25,5-5,5H5.75
		c-2.75,0-5-2.25-5-5V5.75c0-2.75,2.25-5,5-5h71.12c2.75,0,5,2.25,5,5V58.514z"/>
</g>
<g id="XMLID_1_">
	<linearGradient id="SVGID_2_" gradientUnits="userSpaceOnUse" x1="23.2871" y1="42.9937" x2="15.3499" y2="70.2779">
		<stop  offset="0" style="stop-color:#F6B93C"/>
		<stop  offset="0.0341" style="stop-color:#F6B53A"/>
		<stop  offset="0.2023" style="stop-color:#F3A633"/>
		<stop  offset="0.393" style="stop-color:#F29C2E"/>
		<stop  offset="0.6231" style="stop-color:#F1962B"/>
		<stop  offset="1" style="stop-color:#F0942A"/>
	</linearGradient>
	<path fill="url(#SVGID_2_)" d="M25.27,53.328l8.522,8.555V36.997L9.024,37.022l7.428,7.456
		c-4.562,5.018-20.488,25.244,6.841,37.215C23.293,81.693,7.942,66.969,25.27,53.328z"/>
	<g>
		<linearGradient id="SVGID_3_" gradientUnits="userSpaceOnUse" x1="25.1035" y1="42.8003" x2="-0.5385" y2="93.2574">
			<stop  offset="0" style="stop-color:#F9DB47"/>
			<stop  offset="0.0261" style="stop-color:#F8D244"/>
			<stop  offset="0.083" style="stop-color:#F6C33E"/>
			<stop  offset="0.1499" style="stop-color:#F5B63A"/>
			<stop  offset="0.2322" style="stop-color:#F3AE37"/>
			<stop  offset="0.3465" style="stop-color:#F3A936"/>
			<stop  offset="0.6503" style="stop-color:#F3A735"/>
			<stop  offset="1" style="stop-color:#F0942A"/>
		</linearGradient>
		<path fill="url(#SVGID_3_)" d="M23.885,82.616l-3.636-2.05c-6.476-3.653-11.159-9.02-12.222-14.005
			c-1.997-9.371,5.227-18.565,8.425-22.083l-7.427-7.456l24.767-0.025v24.885l-8.522-8.554c-5.218,4.107-7.987,8.725-8.231,13.722
			c-0.24,4.913,3.354,10.315,4.535,12.092L23.885,82.616z M13.764,38.946l4.104,4.121c0.754,0.754,0.782,1.966,0.064,2.756
			c-2.991,3.29-9.754,11.856-7.949,20.321c0.744,3.49,3.565,7.238,7.646,10.323c-1.384-2.638-2.755-6.122-2.59-9.516
			c0.273-5.602,3.299-10.713,8.993-15.195c0.767-0.607,1.962-0.536,2.655,0.162l5.104,5.122V38.949L13.764,38.946z"/>
	</g>
	<path fill="#7B5020" d="M25.599,69.64"/>
	<g>
		<path fill="none" stroke="#7B5020" stroke-width="1.5" stroke-linecap="round" stroke-linejoin="round" d="M24.493,53.958
			c0.251-0.211,0.51-0.421,0.776-0.631l0.706,0.708"/>
		
			<line fill="none" stroke="#7B5020" stroke-width="1.5" stroke-linecap="round" stroke-linejoin="round" stroke-dasharray="2.0151,4.0302" x1="28.82" y1="56.891" x2="31.664" y2="59.746"/>
		<polyline fill="none" stroke="#7B5020" stroke-width="1.5" stroke-linecap="round" stroke-linejoin="round" points="
			33.087,61.174 33.792,61.882 33.792,60.882 		"/>
		
			<line fill="none" stroke="#7B5020" stroke-width="1.5" stroke-linecap="round" stroke-linejoin="round" stroke-dasharray="2.0805,4.161" x1="33.792" y1="56.721" x2="33.792" y2="40.078"/>
		<polyline fill="none" stroke="#7B5020" stroke-width="1.5" stroke-linecap="round" stroke-linejoin="round" points="
			33.792,37.997 33.792,36.997 32.792,36.998 		"/>
		
			<line fill="none" stroke="#7B5020" stroke-width="1.5" stroke-linecap="round" stroke-linejoin="round" stroke-dasharray="2.0698,4.1396" x1="28.652" y1="37.001" x2="12.094" y2="37.02"/>
		<polyline fill="none" stroke="#7B5020" stroke-width="1.5" stroke-linecap="round" stroke-linejoin="round" points="
			10.024,37.021 9.024,37.022 9.73,37.731 		"/>
		
			<line fill="none" stroke="#7B5020" stroke-width="1.5" stroke-linecap="round" stroke-linejoin="round" stroke-dasharray="1.7047,3.4095" x1="12.137" y1="40.146" x2="14.543" y2="42.562"/>
		<path fill="none" stroke="#7B5020" stroke-width="1.5" stroke-linecap="round" stroke-linejoin="round" d="M15.746,43.769
			l0.706,0.709c-0.2,0.219-0.422,0.469-0.661,0.745"/>
		
			<path fill="none" stroke="#7B5020" stroke-width="1.5" stroke-linecap="round" stroke-linejoin="round" stroke-dasharray="1.9484,3.8969" d="
			M13.38,48.279c-5.443,7.579-12.15,22.213,7.243,32.15"/>
		<path fill="none" stroke="#7B5020" stroke-width="1.5" stroke-linecap="round" stroke-linejoin="round" d="M22.381,81.284
			c0.298,0.137,0.603,0.274,0.912,0.409c0,0-0.265-0.253-0.684-0.724"/>
		
			<path fill="none" stroke="#7B5020" stroke-width="1.5" stroke-linecap="round" stroke-linejoin="round" stroke-dasharray="1.8156,3.6312" d="
			M20.407,78.087c-3.192-4.87-6.734-13.974,2.724-22.919"/>
	</g>
</g>
</svg>
