<?xml version="1.0" encoding="utf-8"?>
<!-- Generator: Adobe Illustrator 15.1.0, SVG Export Plug-In  -->
<!DOCTYPE svg [
	<!ENTITY ns_flows "http://ns.adobe.com/Flows/1.0/">
]>
<svg version="1.2" baseProfile="tiny"
	 xmlns="http://www.w3.org/2000/svg" xmlns:xlink="http://www.w3.org/1999/xlink" xmlns:a="http://ns.adobe.com/AdobeSVGViewerExtensions/3.0/"
	 x="0px" y="0px" width="96px" height="96px" viewBox="-1.492 -9.981 96 96" overflow="visible" xml:space="preserve">
<defs>
</defs>
<g id="XMLID_2_">
	<path fill="none" stroke="#010101" stroke-miterlimit="10" d="M6.313,63.903"/>
	<linearGradient id="SVGID_1_" gradientUnits="userSpaceOnUse" x1="43.7812" y1="69.7495" x2="43.7812" y2="0.7495">
		<stop  offset="0" style="stop-color:#B7B6B7"/>
		<stop  offset="1" style="stop-color:#D9D9DE"/>
	</linearGradient>
	<path fill="url(#SVGID_1_)" d="M81.25,17.069v-5.114c0-1.247-1.021-2.268-2.268-2.268h-42.67V3.75c0-1.657-1.344-3-3-3H9.313
		c-1.657,0-3,1.343-3,3v60c0,3.313,1.116,6,2.772,6c1.657,0,2.657-2.682,3.228-6l5.71-44.432c0.159-1.237,1.31-2.249,2.556-2.249
		H81.25"/>
	<path fill="none" stroke="#010101" stroke-miterlimit="10" d="M6.313,63.903"/>
	<linearGradient id="SVGID_2_" gradientUnits="userSpaceOnUse" x1="51.3447" y1="69.7837" x2="51.3447" y2="17.0342">
		<stop  offset="0" style="stop-color:#ECECED"/>
		<stop  offset="1" style="stop-color:#FFFFFF"/>
	</linearGradient>
	<path fill="url(#SVGID_2_)" d="M9.056,69.703c1.657,0.001,2.66-2.679,3.235-5.997l5.76-44.425c0.161-1.237,1.312-2.248,2.56-2.246
		l71.136,0.08c1.246,0.001,2.079,1.006,1.851,2.232l-7.891,42.213c-0.229,1.226-0.789,3.18-1.244,4.341c0,0-1.522,3.886-3.18,3.884
		l-71.45-0.08L9.056,69.703z"/>
	<linearGradient id="SVGID_3_" gradientUnits="userSpaceOnUse" x1="52.6768" y1="69.7495" x2="52.6768" y2="19.7071">
		<stop  offset="0" style="stop-color:#C7C8CC"/>
		<stop  offset="0.0179" style="stop-color:#C9CACE"/>
		<stop  offset="0.1426" style="stop-color:#D5D5DA"/>
		<stop  offset="0.2577" style="stop-color:#D9D9DE"/>
		<stop  offset="1" style="stop-color:#E6E5E9"/>
	</linearGradient>
	<path fill="url(#SVGID_3_)" d="M11.747,69.75c1.605,0,2.574-2.547,3.126-5.699l5.531-42.207c0.153-1.175,1.268-2.136,2.476-2.136
		h68.896c1.208,0,2.016,0.953,1.795,2.118l-7.596,40.108c-0.22,1.164-0.761,3.021-1.2,4.124c0,0-1.47,3.692-3.075,3.692H12.499
		H11.747z"/>
	<g>
		<linearGradient id="SVGID_4_" gradientUnits="userSpaceOnUse" x1="9.2261" y1="43.4028" x2="81.4293" y2="43.4028">
			<stop  offset="0" style="stop-color:#838584"/>
			<stop  offset="0.0097" style="stop-color:#898C8B"/>
			<stop  offset="0.0381" style="stop-color:#9A9B9C"/>
			<stop  offset="0.0717" style="stop-color:#A6A8A9"/>
			<stop  offset="0.115" style="stop-color:#AFB0B1"/>
			<stop  offset="0.2025" style="stop-color:#B1B3B4"/>
			<stop  offset="0.4903" style="stop-color:#AEB0B1"/>
			<stop  offset="0.6804" style="stop-color:#A5A6A7"/>
			<stop  offset="0.8418" style="stop-color:#969898"/>
			<stop  offset="0.987" style="stop-color:#848786"/>
			<stop  offset="1" style="stop-color:#838584"/>
		</linearGradient>
		<path fill="url(#SVGID_4_)" d="M9.226,69.048c0.725-0.28,1.739-1.882,2.349-5.425l5.705-44.401c0.209-1.628,1.659-2.903,3.3-2.903
			h60.85v1.5H20.58c-0.871,0-1.7,0.73-1.812,1.594l-5.71,44.433c-0.735,4.274-1.954,6.455-3.722,6.642L9.226,69.048z"/>
	</g>
	<path fill="none" stroke="#838584" stroke-width="1.5" stroke-miterlimit="10" d="M81.25,17.069v-5.114
		c0-1.247-1.021-2.268-2.268-2.268h-42.67V3.75c0-1.657-1.344-3-3-3H9.313c-1.657,0-3,1.343-3,3v60c0,3.313,1.116,6,2.772,6"/>
	<path fill="none" stroke="#838584" stroke-width="1.5" stroke-miterlimit="10" d="M81.383,17.069h10.332
		c1.248,0,2.082,1.003,1.854,2.229l-7.842,42.223c-0.228,1.226-0.785,3.18-1.239,4.342c0,0-1.519,3.887-3.175,3.887H9.086"/>
</g>
<g id="XMLID_1_">
	<linearGradient id="SVGID_5_" gradientUnits="userSpaceOnUse" x1="44.1943" y1="57.1567" x2="44.1943" y2="45.4849">
		<stop  offset="0" style="stop-color:#85A53D"/>
		<stop  offset="0.1032" style="stop-color:#8FB03D"/>
		<stop  offset="0.2503" style="stop-color:#98BA3C"/>
		<stop  offset="0.4552" style="stop-color:#9DC13B"/>
		<stop  offset="1" style="stop-color:#9FC23B"/>
	</linearGradient>
	<path fill="url(#SVGID_5_)" stroke="#788A38" stroke-width="1.2678" stroke-miterlimit="10" d="M49.101,45.591l-4.773,2.913h-4.665
		c-0.438,0-0.797,0.359-0.797,0.797v3.819c0,0.438,0.359,0.796,0.797,0.796h4.41l5.028,3.133c0.232,0.2,0.423,0.112,0.423-0.193
		v-11.07C49.523,45.479,49.333,45.392,49.101,45.591z"/>
	<linearGradient id="SVGID_6_" gradientUnits="userSpaceOnUse" x1="61.3789" y1="29.8818" x2="61.3789" y2="41.624">
		<stop  offset="0" style="stop-color:#98DAF1"/>
		<stop  offset="0.1935" style="stop-color:#92D4EC"/>
		<stop  offset="0.4607" style="stop-color:#80C9E2"/>
		<stop  offset="0.7694" style="stop-color:#62B9D2"/>
		<stop  offset="1" style="stop-color:#42ACC6"/>
	</linearGradient>
	
		<polygon fill="url(#SVGID_6_)" stroke="#1C8DC0" stroke-width="1.2678" stroke-linecap="round" stroke-linejoin="round" stroke-miterlimit="10" points="
		66.378,35.752 56.381,29.882 56.381,41.624 	"/>
	<linearGradient id="SVGID_7_" gradientUnits="userSpaceOnUse" x1="60.5996" y1="44.0835" x2="60.5996" y2="57.147">
		<stop  offset="0" style="stop-color:#F9DB47"/>
		<stop  offset="0.1048" style="stop-color:#F7CA43"/>
		<stop  offset="0.2764" style="stop-color:#F4B13D"/>
		<stop  offset="0.4512" style="stop-color:#F29E39"/>
		<stop  offset="0.6283" style="stop-color:#F19136"/>
		<stop  offset="0.8093" style="stop-color:#F08934"/>
		<stop  offset="1" style="stop-color:#F08734"/>
	</linearGradient>
	
		<polygon fill="url(#SVGID_7_)" stroke="#CD5728" stroke-width="1.2678" stroke-linecap="round" stroke-linejoin="round" stroke-miterlimit="10" points="
		60.599,44.083 62.722,48.384 67.468,49.074 64.033,52.42 64.844,57.147 60.599,54.917 56.354,57.147 57.165,52.42 53.73,49.074 
		58.477,48.384 	"/>
	<linearGradient id="SVGID_8_" gradientUnits="userSpaceOnUse" x1="44.6914" y1="30.3926" x2="44.6914" y2="42.3525">
		<stop  offset="0" style="stop-color:#F9DB47"/>
		<stop  offset="0.1863" style="stop-color:#F8D344"/>
		<stop  offset="0.6991" style="stop-color:#F7C03E"/>
		<stop  offset="1" style="stop-color:#F6B93C"/>
	</linearGradient>
	
		<polygon fill="url(#SVGID_8_)" stroke="#A36C33" stroke-width="1.2678" stroke-linecap="round" stroke-linejoin="round" stroke-miterlimit="10" points="
		50.88,32.958 50.88,42.352 38.504,42.352 38.504,30.393 43.964,30.393 45.178,32.984 	"/>
</g>
<g>
	<linearGradient id="SVGID_9_" gradientUnits="userSpaceOnUse" x1="16.3496" y1="44.6929" x2="8.4124" y2="71.9771">
		<stop  offset="0" style="stop-color:#F6B93C"/>
		<stop  offset="0.0341" style="stop-color:#F6B53A"/>
		<stop  offset="0.2023" style="stop-color:#F3A633"/>
		<stop  offset="0.393" style="stop-color:#F29C2E"/>
		<stop  offset="0.6231" style="stop-color:#F1962B"/>
		<stop  offset="1" style="stop-color:#F0942A"/>
	</linearGradient>
	<path fill="url(#SVGID_9_)" d="M18.332,55.027l8.522,8.555V38.696L2.087,38.721l7.428,7.456
		c-4.562,5.018-20.488,25.244,6.841,37.215C16.355,83.392,1.005,68.668,18.332,55.027z"/>
	<g>
		<linearGradient id="SVGID_10_" gradientUnits="userSpaceOnUse" x1="18.166" y1="44.4995" x2="-7.476" y2="94.9566">
			<stop  offset="0" style="stop-color:#F9DB47"/>
			<stop  offset="0.0261" style="stop-color:#F8D244"/>
			<stop  offset="0.083" style="stop-color:#F6C33E"/>
			<stop  offset="0.1499" style="stop-color:#F5B63A"/>
			<stop  offset="0.2322" style="stop-color:#F3AE37"/>
			<stop  offset="0.3465" style="stop-color:#F3A936"/>
			<stop  offset="0.6503" style="stop-color:#F3A735"/>
			<stop  offset="1" style="stop-color:#F0942A"/>
		</linearGradient>
		<path fill="url(#SVGID_10_)" d="M16.947,84.315l-3.636-2.05C6.836,78.612,2.152,73.246,1.09,68.26
			c-1.997-9.371,5.227-18.565,8.425-22.083l-7.427-7.456l24.767-0.025v24.885l-8.522-8.554c-5.218,4.107-7.987,8.725-8.231,13.722
			c-0.24,4.913,3.354,10.315,4.535,12.092L16.947,84.315z M6.826,40.645l4.104,4.121c0.754,0.754,0.782,1.966,0.064,2.756
			c-2.991,3.29-9.754,11.856-7.949,20.321c0.744,3.49,3.565,7.238,7.646,10.323c-1.384-2.638-2.755-6.122-2.59-9.516
			c0.273-5.602,3.299-10.713,8.993-15.195c0.767-0.607,1.962-0.536,2.655,0.162l5.104,5.122V40.648L6.826,40.645z"/>
	</g>
	<path fill="#7B5020" d="M18.661,71.339"/>
	<g>
		<path fill="none" stroke="#7B5020" stroke-width="1.5" stroke-linecap="round" stroke-linejoin="round" d="M17.556,55.658
			c0.251-0.211,0.51-0.421,0.776-0.631l0.705,0.708"/>
		
			<line fill="none" stroke="#7B5020" stroke-width="1.5" stroke-linecap="round" stroke-linejoin="round" stroke-dasharray="2.0151,4.0302" x1="21.883" y1="58.59" x2="24.727" y2="61.445"/>
		<polyline fill="none" stroke="#7B5020" stroke-width="1.5" stroke-linecap="round" stroke-linejoin="round" points="
			26.149,62.874 26.854,63.582 26.854,62.582 		"/>
		
			<line fill="none" stroke="#7B5020" stroke-width="1.5" stroke-linecap="round" stroke-linejoin="round" stroke-dasharray="2.0805,4.161" x1="26.854" y1="58.42" x2="26.854" y2="41.777"/>
		<polyline fill="none" stroke="#7B5020" stroke-width="1.5" stroke-linecap="round" stroke-linejoin="round" points="
			26.854,39.696 26.854,38.696 25.854,38.697 		"/>
		
			<line fill="none" stroke="#7B5020" stroke-width="1.5" stroke-linecap="round" stroke-linejoin="round" stroke-dasharray="2.0698,4.1396" x1="21.715" y1="38.701" x2="5.157" y2="38.719"/>
		<polyline fill="none" stroke="#7B5020" stroke-width="1.5" stroke-linecap="round" stroke-linejoin="round" points="3.087,38.72 
			2.087,38.721 2.792,39.43 		"/>
		
			<line fill="none" stroke="#7B5020" stroke-width="1.5" stroke-linecap="round" stroke-linejoin="round" stroke-dasharray="1.7047,3.4095" x1="5.199" y1="41.845" x2="7.605" y2="44.261"/>
		<path fill="none" stroke="#7B5020" stroke-width="1.5" stroke-linecap="round" stroke-linejoin="round" d="M8.809,45.468
			l0.706,0.709c-0.2,0.219-0.422,0.469-0.661,0.745"/>
		
			<path fill="none" stroke="#7B5020" stroke-width="1.5" stroke-linecap="round" stroke-linejoin="round" stroke-dasharray="1.9484,3.8969" d="
			M6.443,49.978C1,57.557-5.707,72.191,13.686,82.128"/>
		<path fill="none" stroke="#7B5020" stroke-width="1.5" stroke-linecap="round" stroke-linejoin="round" d="M15.443,82.983
			c0.298,0.137,0.603,0.274,0.912,0.409c0,0-0.265-0.253-0.684-0.724"/>
		
			<path fill="none" stroke="#7B5020" stroke-width="1.5" stroke-linecap="round" stroke-linejoin="round" stroke-dasharray="1.8156,3.6312" d="
			M13.47,79.787c-3.192-4.87-6.735-13.974,2.723-22.919"/>
	</g>
</g>
</svg>
