<?xml version="1.0" encoding="UTF-8" standalone="no"?>
<!-- Generator: Adobe Illustrator 15.1.0, SVG Export Plug-In  -->

<svg
   xmlns:dc="http://purl.org/dc/elements/1.1/"
   xmlns:cc="http://creativecommons.org/ns#"
   xmlns:rdf="http://www.w3.org/1999/02/22-rdf-syntax-ns#"
   xmlns:svg="http://www.w3.org/2000/svg"
   xmlns="http://www.w3.org/2000/svg"
   xmlns:sodipodi="http://sodipodi.sourceforge.net/DTD/sodipodi-0.dtd"
   xmlns:inkscape="http://www.inkscape.org/namespaces/inkscape"
   version="1.2"
   x="0px"
   y="0px"
   width="96px"
   height="96px"
   viewBox="-4.421 -6.49 96 96"
   overflow="visible"
   xml:space="preserve"
   id="svg2"
   inkscape:version="0.48.3.1 r9886"
   sodipodi:docname="trappedIcon.svg"><metadata
   id="metadata48"><rdf:RDF><cc:Work
       rdf:about=""><dc:format>image/svg+xml</dc:format><dc:type
         rdf:resource="http://purl.org/dc/dcmitype/StillImage" /><dc:title /></cc:Work></rdf:RDF></metadata><sodipodi:namedview
   pagecolor="#ffffff"
   bordercolor="#666666"
   borderopacity="1"
   objecttolerance="10"
   gridtolerance="10"
   guidetolerance="10"
   inkscape:pageopacity="0"
   inkscape:pageshadow="2"
   inkscape:window-width="640"
   inkscape:window-height="480"
   id="namedview46"
   showgrid="false"
   inkscape:zoom="2.4583333"
   inkscape:cx="47.999999"
   inkscape:cy="47.999999"
   inkscape:window-x="0"
   inkscape:window-y="27"
   inkscape:window-maximized="0"
   inkscape:current-layer="svg2" />
<defs
   id="defs4">
<linearGradient
   id="SVGID_2_-6"
   gradientUnits="userSpaceOnUse"
   x1="23.2871"
   y1="42.993698"
   x2="15.3499"
   y2="70.277901"><stop
     offset="0"
     style="stop-color:#F6B93C"
     id="stop23" /><stop
     offset="0.0341"
     style="stop-color:#F6B53A"
     id="stop25" /><stop
     offset="0.2023"
     style="stop-color:#F3A633"
     id="stop27" /><stop
     offset="0.393"
     style="stop-color:#F29C2E"
     id="stop29" /><stop
     offset="0.6231"
     style="stop-color:#F1962B"
     id="stop31-5" /><stop
     offset="1"
     style="stop-color:#F0942A"
     id="stop33-2" /></linearGradient><linearGradient
   id="SVGID_3_-2"
   gradientUnits="userSpaceOnUse"
   x1="25.1035"
   y1="42.800301"
   x2="-0.53850001"
   y2="93.257401"><stop
     offset="0"
     style="stop-color:#F9DB47"
     id="stop40-9" /><stop
     offset="0.0261"
     style="stop-color:#F8D244"
     id="stop42" /><stop
     offset="0.083"
     style="stop-color:#F6C33E"
     id="stop44" /><stop
     offset="0.1499"
     style="stop-color:#F5B63A"
     id="stop46" /><stop
     offset="0.2322"
     style="stop-color:#F3AE37"
     id="stop48" /><stop
     offset="0.3465"
     style="stop-color:#F3A936"
     id="stop50" /><stop
     offset="0.6503"
     style="stop-color:#F3A735"
     id="stop52" /><stop
     offset="1"
     style="stop-color:#F0942A"
     id="stop54" /></linearGradient></defs>
<g
   id="g6">
	<path
   fill="#FFFFFF"
   d="M72.67,25.439c0.164-0.836,0.255-1.698,0.255-2.582c0-7.365-5.971-13.335-13.336-13.335   c-3.489,0-6.655,1.352-9.032,3.545C47.807,5.87,40.856,0.75,32.693,0.75c-10.568,0-19.137,8.568-19.137,19.137   c0,1.841,0.274,3.615,0.759,5.299C6.574,26.699,0.75,33.223,0.75,41.042c0,8.94,7.611,16.186,17,16.186h50.457   c9.389,0,16.999-7.246,16.999-16.186C85.205,33.576,79.889,27.308,72.67,25.439z"
   id="path8" />
	<path
   fill="#FFFFFF"
   d="M72.67,25.439c0.164-0.836,0.255-1.698,0.255-2.582c0-7.365-5.971-13.335-13.336-13.335   c-3.489,0-6.655,1.352-9.032,3.545C47.807,5.87,40.856,0.75,32.693,0.75c-10.568,0-19.137,8.568-19.137,19.137   c0,1.841,0.274,3.615,0.759,5.299C6.574,26.699,0.75,33.223,0.75,41.042c0,8.94,7.611,16.186,17,16.186h50.457   c9.389,0,16.999-7.246,16.999-16.186C85.205,33.576,79.889,27.308,72.67,25.439z"
   id="path10" />
	<linearGradient
   id="SVGID_1_"
   gradientUnits="userSpaceOnUse"
   x1="42.9775"
   y1="54.2275"
   x2="42.9775"
   y2="3.7499">
		<stop
   offset="0"
   style="stop-color:#F0F1F2"
   id="stop13" />
		<stop
   offset="1"
   style="stop-color:#FAFDFD"
   id="stop15" />
	</linearGradient>
	<path
   fill="url(#SVGID_1_)"
   d="M17.75,54.228c-7.719,0-14-5.915-14-13.186c0-6.22,4.686-11.649,11.141-12.911   c0.823-0.161,1.546-0.664,1.984-1.379c0.438-0.715,0.556-1.588,0.324-2.395c-0.426-1.479-0.642-2.983-0.642-4.469   c0-8.898,7.239-16.137,16.137-16.137c6.635,0,12.687,4.174,15.062,10.388c0.354,0.931,1.147,1.623,2.118,1.85   c0.222,0.052,0.452,0.079,0.684,0.079c0.757,0,1.479-0.283,2.034-0.795c1.922-1.773,4.407-2.75,6.998-2.75   c5.699,0,10.336,4.636,10.336,10.335c0,0.661-0.066,1.335-0.199,2.004c-0.305,1.556,0.658,3.085,2.192,3.482   c6.058,1.568,10.287,6.79,10.287,12.698c0,7.271-6.279,13.186-13.999,13.186H17.75z"
   id="path17" />
	<path
   fill="none"
   stroke="#A2A9AD"
   stroke-width="1.5"
   stroke-miterlimit="10"
   d="M72.67,25.439   c0.164-0.836,0.255-1.698,0.255-2.582c0-7.365-5.971-13.335-13.336-13.335c-3.489,0-6.655,1.352-9.032,3.545   C47.807,5.87,40.856,0.75,32.693,0.75c-10.568,0-19.137,8.568-19.137,19.137c0,1.841,0.274,3.615,0.759,5.299   C6.574,26.699,0.75,33.223,0.75,41.042c0,8.94,7.611,16.186,17,16.186h50.457c9.389,0,16.999-7.246,16.999-16.186   C85.205,33.576,79.889,27.308,72.67,25.439z"
   id="path19" />
</g>
<linearGradient
   id="SVGID_2_"
   gradientUnits="userSpaceOnUse"
   x1="42.4053"
   y1="80.4297"
   x2="42.4053"
   y2="34.0259">
	<stop
   offset="0"
   style="stop-color:#D35F5F"
   id="stop22" />
	<stop
   offset="1"
   style="stop-color:#F26C6C"
   id="stop24" />
</linearGradient>


<linearGradient
   id="SVGID_3_"
   gradientUnits="userSpaceOnUse"
   x1="22.6064"
   y1="57.2451"
   x2="61.3057"
   y2="57.2451">
	<stop
   offset="0"
   style="stop-color:#D71F26"
   id="stop31" />
	<stop
   offset="1"
   style="stop-color:#EE2A27"
   id="stop33" />
</linearGradient>

<linearGradient
   id="SVGID_4_"
   gradientUnits="userSpaceOnUse"
   x1="44.0947"
   y1="53.3936"
   x2="53.8213"
   y2="53.3936">
	<stop
   offset="0"
   style="stop-color:#D35F5F"
   id="stop38" />
	<stop
   offset="1"
   style="stop-color:#F26C6C"
   id="stop40" />
</linearGradient>


<g
   transform="translate(16.73785,-10.599466)"
   id="XMLID_1_"><linearGradient
     id="linearGradient3092"
     gradientUnits="userSpaceOnUse"
     x1="23.2871"
     y1="42.993698"
     x2="15.3499"
     y2="70.277901"><stop
       offset="0"
       style="stop-color:#F6B93C"
       id="stop3094" /><stop
       offset="0.0341"
       style="stop-color:#F6B53A"
       id="stop3096" /><stop
       offset="0.2023"
       style="stop-color:#F3A633"
       id="stop3098" /><stop
       offset="0.393"
       style="stop-color:#F29C2E"
       id="stop3100" /><stop
       offset="0.6231"
       style="stop-color:#F1962B"
       id="stop3102" /><stop
       offset="1"
       style="stop-color:#F0942A"
       id="stop3104" /></linearGradient><path
     style="fill:url(#SVGID_2_-6)"
     inkscape:connector-curvature="0"
     d="m 25.27,53.328 8.522,8.555 V 36.997 l -24.768,0.025 7.428,7.456 c -4.562,5.018 -20.488,25.244 6.841,37.215 0,0 -15.351,-14.724 1.977,-28.365 z"
     id="path35" /><g
     id="g37"><linearGradient
       id="linearGradient3108"
       gradientUnits="userSpaceOnUse"
       x1="25.1035"
       y1="42.800301"
       x2="-0.53850001"
       y2="93.257401"><stop
         offset="0"
         style="stop-color:#F9DB47"
         id="stop3110" /><stop
         offset="0.0261"
         style="stop-color:#F8D244"
         id="stop3112" /><stop
         offset="0.083"
         style="stop-color:#F6C33E"
         id="stop3114" /><stop
         offset="0.1499"
         style="stop-color:#F5B63A"
         id="stop3116" /><stop
         offset="0.2322"
         style="stop-color:#F3AE37"
         id="stop3118" /><stop
         offset="0.3465"
         style="stop-color:#F3A936"
         id="stop3120" /><stop
         offset="0.6503"
         style="stop-color:#F3A735"
         id="stop3122" /><stop
         offset="1"
         style="stop-color:#F0942A"
         id="stop3124" /></linearGradient><path
       style="fill:url(#SVGID_3_-2)"
       inkscape:connector-curvature="0"
       d="m 23.885,82.616 -3.636,-2.05 C 13.773,76.913 9.09,71.546 8.027,66.561 6.03,57.19 13.254,47.996 16.452,44.478 L 9.025,37.022 33.792,36.997 V 61.882 L 25.27,53.328 c -5.218,4.107 -7.987,8.725 -8.231,13.722 -0.24,4.913 3.354,10.315 4.535,12.092 l 2.311,3.474 z m -10.121,-43.67 4.104,4.121 c 0.754,0.754 0.782,1.966 0.064,2.756 -2.991,3.29 -9.754,11.856 -7.949,20.321 0.744,3.49 3.565,7.238 7.646,10.323 -1.384,-2.638 -2.755,-6.122 -2.59,-9.516 0.273,-5.602 3.299,-10.713 8.993,-15.195 0.767,-0.607 1.962,-0.536 2.655,0.162 l 5.104,5.122 V 38.949 L 13.764,38.946 z"
       id="path56" /></g><path
     style="fill:#7b5020"
     inkscape:connector-curvature="0"
     d="M 25.599,69.64"
     id="path58" /><g
     id="g60"><path
       style="fill:none;stroke:#7b5020;stroke-width:1.5;stroke-linecap:round;stroke-linejoin:round"
       inkscape:connector-curvature="0"
       d="m 24.493,53.958 c 0.251,-0.211 0.51,-0.421 0.776,-0.631 l 0.706,0.708"
       id="path62" /><line
       style="fill:none;stroke:#7b5020;stroke-width:1.5;stroke-linecap:round;stroke-linejoin:round;stroke-dasharray:2.0151, 4.0302"
       x1="28.82"
       y1="56.890999"
       x2="31.664"
       y2="59.745998"
       id="line64" /><polyline
       style="fill:none;stroke:#7b5020;stroke-width:1.5;stroke-linecap:round;stroke-linejoin:round"
       points="    33.087,61.174 33.792,61.882 33.792,60.882   "
       id="polyline66" /><line
       style="fill:none;stroke:#7b5020;stroke-width:1.5;stroke-linecap:round;stroke-linejoin:round;stroke-dasharray:2.0805, 4.161"
       x1="33.792"
       y1="56.721001"
       x2="33.792"
       y2="40.077999"
       id="line68" /><polyline
       style="fill:none;stroke:#7b5020;stroke-width:1.5;stroke-linecap:round;stroke-linejoin:round"
       points="    33.792,37.997 33.792,36.997 32.792,36.998   "
       id="polyline70" /><line
       style="fill:none;stroke:#7b5020;stroke-width:1.5;stroke-linecap:round;stroke-linejoin:round;stroke-dasharray:2.0698, 4.1396"
       x1="28.652"
       y1="37.000999"
       x2="12.094"
       y2="37.02"
       id="line72" /><polyline
       style="fill:none;stroke:#7b5020;stroke-width:1.5;stroke-linecap:round;stroke-linejoin:round"
       points="    10.024,37.021 9.024,37.022 9.73,37.731   "
       id="polyline74" /><line
       style="fill:none;stroke:#7b5020;stroke-width:1.5;stroke-linecap:round;stroke-linejoin:round;stroke-dasharray:1.7047, 3.4095"
       x1="12.137"
       y1="40.146"
       x2="14.543"
       y2="42.562"
       id="line76" /><path
       style="fill:none;stroke:#7b5020;stroke-width:1.5;stroke-linecap:round;stroke-linejoin:round"
       inkscape:connector-curvature="0"
       d="m 15.746,43.769 0.706,0.709 c -0.2,0.219 -0.422,0.469 -0.661,0.745"
       id="path78" /><path
       style="fill:none;stroke:#7b5020;stroke-width:1.5;stroke-linecap:round;stroke-linejoin:round;stroke-dasharray:1.9484, 3.8969"
       inkscape:connector-curvature="0"
       d="M 13.38,48.279 C 7.937,55.858 1.23,70.492 20.623,80.429"
       id="path80" /><path
       style="fill:none;stroke:#7b5020;stroke-width:1.5;stroke-linecap:round;stroke-linejoin:round"
       inkscape:connector-curvature="0"
       d="m 22.381,81.284 c 0.298,0.137 0.603,0.274 0.912,0.409 0,0 -0.265,-0.253 -0.684,-0.724"
       id="path82" /><path
       style="fill:none;stroke:#7b5020;stroke-width:1.5;stroke-linecap:round;stroke-linejoin:round;stroke-dasharray:1.8156, 3.6312"
       inkscape:connector-curvature="0"
       d="M 20.407,78.087 C 17.215,73.217 13.673,64.113 23.131,55.168"
       id="path84" /></g></g></svg>