<?xml version="1.0" encoding="utf-8"?>
<!-- Generator: Adobe Illustrator 15.1.0, SVG Export Plug-In  -->
<!DOCTYPE svg [
	<!ENTITY ns_flows "http://ns.adobe.com/Flows/1.0/">
]>
<svg version="1.2" baseProfile="tiny"
	 xmlns="http://www.w3.org/2000/svg" xmlns:xlink="http://www.w3.org/1999/xlink" xmlns:a="http://ns.adobe.com/AdobeSVGViewerExtensions/3.0/"
	 x="0px" y="0px" width="96px" height="96px" viewBox="-4.421 -6.49 96 96" overflow="visible" xml:space="preserve">
<defs>
</defs>
<g>
	<path fill="#FFFFFF" d="M72.67,25.439c0.164-0.836,0.255-1.698,0.255-2.582c0-7.365-5.971-13.335-13.336-13.335
		c-3.489,0-6.655,1.352-9.032,3.545C47.807,5.87,40.856,0.75,32.693,0.75c-10.568,0-19.137,8.568-19.137,19.137
		c0,1.841,0.274,3.615,0.759,5.299C6.574,26.699,0.75,33.223,0.75,41.042c0,8.94,7.611,16.186,17,16.186h50.457
		c9.389,0,16.999-7.246,16.999-16.186C85.205,33.576,79.889,27.308,72.67,25.439z"/>
	<path fill="#FFFFFF" d="M72.67,25.439c0.164-0.836,0.255-1.698,0.255-2.582c0-7.365-5.971-13.335-13.336-13.335
		c-3.489,0-6.655,1.352-9.032,3.545C47.807,5.87,40.856,0.75,32.693,0.75c-10.568,0-19.137,8.568-19.137,19.137
		c0,1.841,0.274,3.615,0.759,5.299C6.574,26.699,0.75,33.223,0.75,41.042c0,8.94,7.611,16.186,17,16.186h50.457
		c9.389,0,16.999-7.246,16.999-16.186C85.205,33.576,79.889,27.308,72.67,25.439z"/>
	<linearGradient id="SVGID_1_" gradientUnits="userSpaceOnUse" x1="42.9775" y1="54.2275" x2="42.9775" y2="3.7499">
		<stop  offset="0" style="stop-color:#F0F1F2"/>
		<stop  offset="1" style="stop-color:#FAFDFD"/>
	</linearGradient>
	<path fill="url(#SVGID_1_)" d="M17.75,54.228c-7.719,0-14-5.915-14-13.186c0-6.22,4.686-11.649,11.141-12.911
		c0.823-0.161,1.546-0.664,1.984-1.379c0.438-0.715,0.556-1.588,0.324-2.395c-0.426-1.479-0.642-2.983-0.642-4.469
		c0-8.898,7.239-16.137,16.137-16.137c6.635,0,12.687,4.174,15.062,10.388c0.354,0.931,1.147,1.623,2.118,1.85
		c0.222,0.052,0.452,0.079,0.684,0.079c0.757,0,1.479-0.283,2.034-0.795c1.922-1.773,4.407-2.75,6.998-2.75
		c5.699,0,10.336,4.636,10.336,10.335c0,0.661-0.066,1.335-0.199,2.004c-0.305,1.556,0.658,3.085,2.192,3.482
		c6.058,1.568,10.287,6.79,10.287,12.698c0,7.271-6.279,13.186-13.999,13.186H17.75z"/>
	<path fill="none" stroke="#A2A9AD" stroke-width="1.5" stroke-miterlimit="10" d="M72.67,25.439
		c0.164-0.836,0.255-1.698,0.255-2.582c0-7.365-5.971-13.335-13.336-13.335c-3.489,0-6.655,1.352-9.032,3.545
		C47.807,5.87,40.856,0.75,32.693,0.75c-10.568,0-19.137,8.568-19.137,19.137c0,1.841,0.274,3.615,0.759,5.299
		C6.574,26.699,0.75,33.223,0.75,41.042c0,8.94,7.611,16.186,17,16.186h50.457c9.389,0,16.999-7.246,16.999-16.186
		C85.205,33.576,79.889,27.308,72.67,25.439z"/>
</g>
<linearGradient id="SVGID_2_" gradientUnits="userSpaceOnUse" x1="42.4053" y1="80.4297" x2="42.4053" y2="34.0259">
	<stop  offset="0" style="stop-color:#D35F5F"/>
	<stop  offset="1" style="stop-color:#F26C6C"/>
</linearGradient>
<path fill="url(#SVGID_2_)" d="M47.944,38.504c-5.871,4.961-8.402,13.21-10.088,17.365c-2.314,5.706-3.652,8.683-6.531,12.155
	c-2.758,3.326-8.27,3.143-8.27,3.143v9.249c0,0,7.938,0.497,13.809-4.465c4.607-3.893,7.154-9.802,8.854-14.178h11.104v-9.177
	h-7.277c1.123-2.306,2.273-4.154,3.941-6.166c2.758-3.326,8.27-3.142,8.27-3.142v-9.25C61.755,34.039,53.815,33.542,47.944,38.504z"
	/>
<path fill="#C22026" d="M47.944,41.504c-4.393,4.975-7.402,13.21-9.088,17.365c-2.314,5.706-3.969,9.389-7.531,12.155
	c-2.934,2.277-8.27,2.143-8.27,2.143v7.249c0,0,7.938,0.497,13.809-4.465c4.607-3.893,7.154-9.802,8.854-14.178h11.104v-9.177
	h-7.277c1.123-2.306,2.273-4.154,3.941-6.166c2.758-3.326,8.27-3.142,8.27-3.142v-7.25C61.755,36.039,53.188,35.565,47.944,41.504z"
	/>
<linearGradient id="SVGID_3_" gradientUnits="userSpaceOnUse" x1="22.6064" y1="57.2451" x2="61.3057" y2="57.2451">
	<stop  offset="0" style="stop-color:#D71F26"/>
	<stop  offset="1" style="stop-color:#EE2A27"/>
</linearGradient>
<path fill="url(#SVGID_3_)" d="M47.497,41.504c-4.393,4.975-7.402,13.21-9.088,17.365c-2.316,5.706-3.969,9.389-7.533,12.155
	c-2.934,2.277-8.27,2.143-8.27,2.143v5.249c0,0,8.219,0.811,13.811-4.465c4.201-3.964,6.152-9.802,7.852-14.178h12.105v-7.177
	l-9.279,1.593c0.68-2.641,2.627-6.734,4.381-8.674c4.096-4.533,9.83-4.227,9.83-4.227v-5.25
	C61.306,36.039,52.741,35.565,47.497,41.504z"/>
<linearGradient id="SVGID_4_" gradientUnits="userSpaceOnUse" x1="44.0947" y1="53.3936" x2="53.8213" y2="53.3936">
	<stop  offset="0" style="stop-color:#D35F5F"/>
	<stop  offset="1" style="stop-color:#F26C6C"/>
</linearGradient>
<polygon fill="url(#SVGID_4_)" points="53.821,54.189 44.095,54.189 46.544,52.597 53.821,52.597 "/>
<path fill="none" stroke="#7E1416" stroke-linejoin="round" stroke-miterlimit="10" d="M47.944,38.504
	c-5.871,4.961-8.402,13.21-10.088,17.365c-2.314,5.706-3.652,8.683-6.531,12.155c-2.758,3.326-8.27,3.143-8.27,3.143v9.249
	c0,0,7.938,0.497,13.809-4.465c4.607-3.893,7.154-9.802,8.854-14.178h11.104v-9.177h-7.277c1.123-2.306,2.273-4.154,3.941-6.166
	c2.758-3.326,8.27-3.142,8.27-3.142v-9.25C61.755,34.039,53.815,33.542,47.944,38.504z"/>
</svg>
