<?xml version="1.0" encoding="utf-8"?>
<!-- Generator: Adobe Illustrator 15.1.0, SVG Export Plug-In  -->
<!DOCTYPE svg [
	<!ENTITY ns_flows "http://ns.adobe.com/Flows/1.0/">
]>
<svg version="1.2" baseProfile="tiny"
	 xmlns="http://www.w3.org/2000/svg" xmlns:xlink="http://www.w3.org/1999/xlink" xmlns:a="http://ns.adobe.com/AdobeSVGViewerExtensions/3.0/"
	 x="0px" y="0px" width="96px" height="96px" viewBox="-5.11 -6.49 96 96" overflow="visible" xml:space="preserve">
<defs>
</defs>
<g>
	<path fill="#FFFFFF" d="M72.67,25.439c0.164-0.836,0.255-1.698,0.255-2.582c0-7.365-5.971-13.335-13.336-13.335
		c-3.489,0-6.655,1.352-9.032,3.545C47.807,5.87,40.856,0.75,32.693,0.75c-10.568,0-19.137,8.568-19.137,19.137
		c0,1.841,0.274,3.615,0.759,5.299C6.574,26.699,0.75,33.223,0.75,41.042c0,8.94,7.611,16.186,17,16.186h50.456
		c9.389,0,16.999-7.246,16.999-16.186C85.205,33.576,79.889,27.308,72.67,25.439z"/>
	<path fill="#FFFFFF" d="M72.67,25.439c0.164-0.836,0.255-1.698,0.255-2.582c0-7.365-5.971-13.335-13.336-13.335
		c-3.489,0-6.655,1.352-9.032,3.545C47.807,5.87,40.856,0.75,32.693,0.75c-10.568,0-19.137,8.568-19.137,19.137
		c0,1.841,0.274,3.615,0.759,5.299C6.574,26.699,0.75,33.223,0.75,41.042c0,8.94,7.611,16.186,17,16.186h50.456
		c9.389,0,16.999-7.246,16.999-16.186C85.205,33.576,79.889,27.308,72.67,25.439z"/>
	<linearGradient id="SVGID_1_" gradientUnits="userSpaceOnUse" x1="42.9775" y1="54.2275" x2="42.9775" y2="3.7499">
		<stop  offset="0" style="stop-color:#F0F1F2"/>
		<stop  offset="1" style="stop-color:#FAFDFD"/>
	</linearGradient>
	<path fill="url(#SVGID_1_)" d="M17.75,54.228c-7.72,0-14-5.915-14-13.186c0-6.22,4.686-11.649,11.141-12.911
		c0.823-0.161,1.546-0.664,1.984-1.379c0.438-0.715,0.556-1.588,0.324-2.395c-0.426-1.479-0.642-2.983-0.642-4.469
		c0-8.898,7.239-16.137,16.137-16.137c6.635,0,12.687,4.174,15.062,10.388c0.354,0.931,1.147,1.623,2.118,1.85
		c0.222,0.052,0.452,0.079,0.684,0.079c0.757,0,1.479-0.283,2.034-0.795c1.922-1.773,4.407-2.75,6.998-2.75
		c5.699,0,10.336,4.636,10.336,10.335c0,0.661-0.066,1.335-0.199,2.004c-0.305,1.556,0.658,3.085,2.192,3.482
		c6.058,1.568,10.287,6.79,10.287,12.698c0,7.271-6.279,13.186-13.999,13.186H17.75z"/>
	<path fill="none" stroke="#A2A9AD" stroke-width="1.5" stroke-miterlimit="10" d="M72.67,25.439
		c0.164-0.836,0.255-1.698,0.255-2.582c0-7.365-5.971-13.335-13.336-13.335c-3.489,0-6.655,1.352-9.032,3.545
		C47.807,5.87,40.856,0.75,32.693,0.75c-10.568,0-19.137,8.568-19.137,19.137c0,1.841,0.274,3.615,0.759,5.299
		C6.574,26.699,0.75,33.223,0.75,41.042c0,8.94,7.611,16.186,17,16.186h50.456c9.389,0,16.999-7.246,16.999-16.186
		C85.205,33.576,79.889,27.308,72.67,25.439z"/>
</g>
<path fill="#9FC23B" d="M38.995,39.879l-10.863,9.332h-7.948c-1.404,0-2.553,1.147-2.553,2.551v12.236
	c0,1.403,1.148,2.551,2.553,2.551h7.13l11.682,10.034c0.744,0.641,1.354,0.36,1.354-0.622V40.501
	C40.35,39.519,39.739,39.239,38.995,39.879z"/>
<linearGradient id="SVGID_2_" gradientUnits="userSpaceOnUse" x1="28.9902" y1="76.9268" x2="28.9902" y2="39.5361">
	<stop  offset="0" style="stop-color:#85A53D"/>
	<stop  offset="0.1032" style="stop-color:#8FB03D"/>
	<stop  offset="0.2503" style="stop-color:#98BA3C"/>
	<stop  offset="0.4552" style="stop-color:#9DC13B"/>
	<stop  offset="1" style="stop-color:#9FC23B"/>
</linearGradient>
<path fill="url(#SVGID_2_)" d="M38.995,39.879l-10.863,9.332h-7.948c-1.404,0-2.553,1.147-2.553,2.551v12.236
	c0,1.403,1.148,2.551,2.553,2.551h7.13l11.682,10.034c0.744,0.641,1.354,0.36,1.354-0.622V40.501
	C40.35,39.519,39.739,39.239,38.995,39.879z"/>
<linearGradient id="SVGID_3_" gradientUnits="userSpaceOnUse" x1="56.1475" y1="57.8145" x2="71.4873" y2="57.8145">
	<stop  offset="0" style="stop-color:#85A53D"/>
	<stop  offset="0.1032" style="stop-color:#8FB03D"/>
	<stop  offset="0.2503" style="stop-color:#98BA3C"/>
	<stop  offset="0.4552" style="stop-color:#9DC13B"/>
	<stop  offset="1" style="stop-color:#9FC23B"/>
</linearGradient>
<path fill="url(#SVGID_3_)" d="M61.233,32.554c-0.187-0.189-0.44-0.296-0.706-0.297c-0.312-0.015-0.521,0.102-0.709,0.289
	l-2.846,2.811c-0.393,0.388-0.396,1.021-0.009,1.414c5.496,5.566,8.523,12.937,8.523,20.753c0,8.082-3.208,15.631-9.034,21.254
	c-0.397,0.383-0.409,1.016-0.025,1.414l2.777,2.877c0.185,0.191,0.437,0.301,0.702,0.307c0.006,0,0.012,0,0.018,0
	c0.259,0,0.508-0.102,0.694-0.281c7.009-6.764,10.868-15.844,10.868-25.57C71.487,48.117,67.846,39.249,61.233,32.554z"/>
<linearGradient id="SVGID_4_" gradientUnits="userSpaceOnUse" x1="49.0898" y1="57.7285" x2="61.3213" y2="57.7285">
	<stop  offset="0" style="stop-color:#85A53D"/>
	<stop  offset="0.1032" style="stop-color:#8FB03D"/>
	<stop  offset="0.2503" style="stop-color:#98BA3C"/>
	<stop  offset="0.4552" style="stop-color:#9DC13B"/>
	<stop  offset="1" style="stop-color:#9FC23B"/>
</linearGradient>
<path fill="url(#SVGID_4_)" d="M54.001,39.696c-0.187-0.189-0.44-0.296-0.706-0.297c-0.225-0.011-0.52,0.102-0.709,0.289
	l-2.846,2.811c-0.393,0.388-0.396,1.021-0.009,1.414c3.604,3.651,5.59,8.485,5.59,13.611c0,5.302-2.104,10.252-5.926,13.939
	c-0.19,0.184-0.301,0.437-0.306,0.702c-0.005,0.265,0.097,0.521,0.28,0.712l2.777,2.878c0.185,0.19,0.437,0.301,0.702,0.306
	c0.006,0,0.012,0,0.018,0c0.259,0,0.508-0.101,0.694-0.28c5.004-4.829,7.76-11.312,7.76-18.257
	C61.321,50.808,58.722,44.476,54.001,39.696z"/>
<path fill="#ECF3D3" d="M20.086,66.11V53.874c0-1.403,1.191-2.551,2.647-2.551h7.35l10.354-8.56l0.146-1.567
	c0-0.982,0.512-1.591-0.986-0.951l-11.271,9.332h-7.523c-1.457,0-2.647,1.148-2.647,2.551v12.236c0,1.208,0.886,2.223,2.06,2.482
	C20.139,66.611,20.086,66.368,20.086,66.11z"/>
<polygon fill="#ECF3D3" points="51.15,45.608 55.576,41.448 53.325,39.083 49.204,42.937 "/>
<polygon fill="#ECF3D3" points="58.668,38.357 63.094,34.198 60.843,31.832 56.722,35.686 "/>
<path fill="#819F3D" d="M39.195,73.69L27.514,63.656h-7.131c-0.102,0-0.198-0.019-0.297-0.03v2.913
	c0.033,0.001,0.063,0.01,0.098,0.01h7.13l11.682,10.034c0.744,0.641,1.354,0.36,1.354-0.622v-2.145
	C40.111,74.128,39.684,74.11,39.195,73.69z"/>
<polyline fill="#819F3D" points="50.805,70.099 55.006,73.94 52.867,76.06 48.66,72.063 50.805,70.099 "/>
<polyline fill="#819F3D" points="57.865,77.427 62.066,81.269 59.928,83.388 55.721,79.392 57.865,77.427 "/>
<path fill="none" stroke="#788A38" stroke-width="1.5" stroke-miterlimit="10" d="M38.995,39.879l-10.863,9.332h-7.948
	c-1.404,0-2.553,1.147-2.553,2.551v12.236c0,1.403,1.148,2.551,2.553,2.551h7.13l11.682,10.034c0.744,0.641,1.354,0.36,1.354-0.622
	V40.501C40.35,39.519,39.739,39.239,38.995,39.879z"/>
<path fill="none" stroke="#788A38" stroke-width="1.5" stroke-miterlimit="10" d="M61.233,32.554
	c-0.187-0.189-0.44-0.296-0.706-0.297c-0.312-0.015-0.521,0.102-0.709,0.289l-2.846,2.811c-0.393,0.388-0.396,1.021-0.009,1.414
	c5.496,5.566,8.523,12.937,8.523,20.753c0,8.082-3.208,15.631-9.034,21.254c-0.397,0.383-0.409,1.016-0.025,1.414l2.777,2.877
	c0.185,0.191,0.437,0.301,0.702,0.307c0.006,0,0.012,0,0.018,0c0.259,0,0.508-0.102,0.694-0.281
	c7.009-6.764,10.868-15.844,10.868-25.57C71.487,48.117,67.846,39.249,61.233,32.554z"/>
<path fill="none" stroke="#788A38" stroke-width="1.5" stroke-miterlimit="10" d="M54.001,39.696
	c-0.187-0.189-0.44-0.296-0.706-0.297c-0.225-0.011-0.52,0.102-0.709,0.289l-2.846,2.811c-0.393,0.388-0.396,1.021-0.009,1.414
	c3.604,3.651,5.59,8.485,5.59,13.611c0,5.302-2.104,10.252-5.926,13.939c-0.19,0.184-0.301,0.437-0.306,0.702
	c-0.005,0.265,0.097,0.521,0.28,0.712l2.777,2.878c0.185,0.19,0.437,0.301,0.702,0.306c0.006,0,0.012,0,0.018,0
	c0.259,0,0.508-0.101,0.694-0.28c5.004-4.829,7.76-11.312,7.76-18.257C61.321,50.808,58.722,44.476,54.001,39.696z"/>
</svg>
