<?xml version="1.0" encoding="utf-8"?>
<!-- Generator: Adobe Illustrator 15.1.0, SVG Export Plug-In  -->
<!DOCTYPE svg [
	<!ENTITY ns_flows "http://ns.adobe.com/Flows/1.0/">
]>
<svg version="1.2" baseProfile="tiny"
	 xmlns="http://www.w3.org/2000/svg" xmlns:xlink="http://www.w3.org/1999/xlink" xmlns:a="http://ns.adobe.com/AdobeSVGViewerExtensions/3.0/"
	 x="0px" y="0px" width="96px" height="96px" viewBox="-4.801 -6.49 96 96" overflow="visible" xml:space="preserve">
<defs>
</defs>
<g>
	<path fill="#FFFFFF" d="M72.67,25.439c0.164-0.836,0.255-1.698,0.255-2.582c0-7.365-5.971-13.335-13.336-13.335
		c-3.489,0-6.655,1.352-9.032,3.545C47.807,5.87,40.856,0.75,32.693,0.75c-10.568,0-19.137,8.568-19.137,19.137
		c0,1.841,0.274,3.615,0.759,5.299C6.574,26.699,0.75,33.223,0.75,41.042c0,8.94,7.611,16.186,17,16.186h50.457
		c9.388,0,16.999-7.246,16.999-16.186C85.205,33.576,79.889,27.308,72.67,25.439z"/>
	<path fill="#FFFFFF" d="M72.67,25.439c0.164-0.836,0.255-1.698,0.255-2.582c0-7.365-5.971-13.335-13.336-13.335
		c-3.489,0-6.655,1.352-9.032,3.545C47.807,5.87,40.856,0.75,32.693,0.75c-10.568,0-19.137,8.568-19.137,19.137
		c0,1.841,0.274,3.615,0.759,5.299C6.574,26.699,0.75,33.223,0.75,41.042c0,8.94,7.611,16.186,17,16.186h50.457
		c9.388,0,16.999-7.246,16.999-16.186C85.205,33.576,79.889,27.308,72.67,25.439z"/>
	<linearGradient id="SVGID_1_" gradientUnits="userSpaceOnUse" x1="42.9775" y1="54.2275" x2="42.9775" y2="3.7499">
		<stop  offset="0" style="stop-color:#F0F1F2"/>
		<stop  offset="1" style="stop-color:#FAFDFD"/>
	</linearGradient>
	<path fill="url(#SVGID_1_)" d="M17.75,54.228c-7.719,0-14-5.915-14-13.186c0-6.22,4.686-11.649,11.141-12.911
		c0.823-0.161,1.546-0.664,1.984-1.379c0.438-0.715,0.556-1.588,0.324-2.395c-0.426-1.479-0.642-2.983-0.642-4.469
		c0-8.898,7.239-16.137,16.137-16.137c6.635,0,12.687,4.174,15.062,10.388c0.354,0.931,1.147,1.623,2.118,1.85
		c0.222,0.052,0.452,0.079,0.684,0.079c0.757,0,1.479-0.283,2.035-0.795c1.921-1.773,4.406-2.75,6.997-2.75
		c5.699,0,10.336,4.636,10.336,10.335c0,0.661-0.066,1.335-0.199,2.004c-0.305,1.556,0.658,3.085,2.192,3.482
		c6.058,1.568,10.287,6.79,10.287,12.698c0,7.271-6.279,13.186-13.999,13.186H17.75z"/>
	<path fill="none" stroke="#A2A9AD" stroke-width="1.5" stroke-miterlimit="10" d="M72.67,25.439
		c0.164-0.836,0.255-1.698,0.255-2.582c0-7.365-5.971-13.335-13.336-13.335c-3.489,0-6.655,1.352-9.032,3.545
		C47.807,5.87,40.856,0.75,32.693,0.75c-10.568,0-19.137,8.568-19.137,19.137c0,1.841,0.274,3.615,0.759,5.299
		C6.574,26.699,0.75,33.223,0.75,41.042c0,8.94,7.611,16.186,17,16.186h50.457c9.388,0,16.999-7.246,16.999-16.186
		C85.205,33.576,79.889,27.308,72.67,25.439z"/>
</g>
<linearGradient id="SVGID_2_" gradientUnits="userSpaceOnUse" x1="30.8945" y1="53.2178" x2="54.2754" y2="53.2178">
	<stop  offset="0" style="stop-color:#238FCC"/>
	<stop  offset="1" style="stop-color:#4BA2DA"/>
</linearGradient>
<rect x="30.895" y="31.934" fill="url(#SVGID_2_)" width="23.381" height="42.567"/>
<path fill="#3A3B3B" d="M22.241,31.089v46.276h41.21V31.089H22.241z M29.457,74.386h-4.236v-4.236h4.236V74.386z M29.457,67.169
	h-4.236v-4.235h4.236V67.169z M29.457,59.953h-4.236v-4.235h4.236V59.953z M29.457,52.737h-4.236v-4.236h4.236V52.737z
	 M29.457,45.521h-4.236v-4.236h4.236V45.521z M29.457,38.305h-4.236v-4.236h4.236V38.305z M53.199,74.386H32.465V55.718h20.734
	V74.386z M53.199,52.737H32.465V34.069h20.734V52.737z M60.443,74.386h-4.236v-4.236h4.236V74.386z M60.443,67.169h-4.236v-4.235
	h4.236V67.169z M60.443,59.953h-4.236v-4.235h4.236V59.953z M60.443,52.737h-4.236v-4.236h4.236V52.737z M60.443,45.521h-4.236
	v-4.236h4.236V45.521z M60.443,38.305h-4.236v-4.236h4.236V38.305z"/>
<linearGradient id="SVGID_3_" gradientUnits="userSpaceOnUse" x1="42.832" y1="48.1772" x2="42.832" y2="34.0693">
	<stop  offset="0" style="stop-color:#F5F5F5;stop-opacity:0.3"/>
	<stop  offset="1" style="stop-color:#F5F5F5;stop-opacity:0.7"/>
</linearGradient>
<path fill="url(#SVGID_3_)" d="M52.027,37.272c0.393,0,0.784,0.01,1.172,0.03v-3.233H32.465v14.108
	C36.52,41.633,43.764,37.272,52.027,37.272z"/>
<linearGradient id="SVGID_4_" gradientUnits="userSpaceOnUse" x1="42.832" y1="70.2959" x2="42.832" y2="56.1875">
	<stop  offset="0" style="stop-color:#F5F5F5;stop-opacity:0.3"/>
	<stop  offset="1" style="stop-color:#F5F5F5;stop-opacity:0.7"/>
</linearGradient>
<path fill="url(#SVGID_4_)" d="M52.027,59.391c0.393,0,0.784,0.011,1.172,0.03v-3.233H32.465v14.108
	C36.52,63.751,43.764,59.391,52.027,59.391z"/>
</svg>
