<?xml version="1.0" encoding="utf-8"?>
<!-- Generator: Adobe Illustrator 15.1.0, SVG Export Plug-In  -->
<!DOCTYPE svg [
	<!ENTITY ns_flows "http://ns.adobe.com/Flows/1.0/">
]>
<svg version="1.2" baseProfile="tiny"
	 xmlns="http://www.w3.org/2000/svg" xmlns:xlink="http://www.w3.org/1999/xlink" xmlns:a="http://ns.adobe.com/AdobeSVGViewerExtensions/3.0/"
	 x="0px" y="0px" width="96px" height="96px" viewBox="-15.421 -0.528 96 96" overflow="visible" xml:space="preserve">
<defs>
</defs>
<g>
	<g>
		<path fill="#FFFFFF" d="M58.264,41.693c0,1.951-1.596,3.548-3.547,3.548H4.257c-1.951,0-3.547-1.597-3.547-3.548V4.257
			c0-1.951,1.596-3.547,3.547-3.547h50.46c1.951,0,3.547,1.596,3.547,3.547V41.693z"/>
		<linearGradient id="SVGID_1_" gradientUnits="userSpaceOnUse" x1="29.4873" y1="2.936" x2="29.4873" y2="43.0151">
			<stop  offset="0" style="stop-color:#F0F1F2"/>
			<stop  offset="1" style="stop-color:#FAFDFD"/>
		</linearGradient>
		<path fill="url(#SVGID_1_)" d="M56.25,39.822c0,1.755-1.485,3.193-3.3,3.193H6.023c-1.814,0-3.299-1.438-3.299-3.193V6.128
			c0-1.756,1.485-3.192,3.299-3.192H52.95c1.814,0,3.3,1.437,3.3,3.192V39.822z"/>
	</g>
	<g>
		<path fill="none" stroke="#A2A9AD" stroke-width="1.419" stroke-miterlimit="10" d="M58.264,41.693
			c0,1.951-1.596,3.548-3.547,3.548H4.257c-1.951,0-3.547-1.597-3.547-3.548V4.257c0-1.951,1.596-3.547,3.547-3.547h50.46
			c1.951,0,3.547,1.596,3.547,3.547V41.693z"/>
	</g>
</g>
<path fill="#676767" d="M32.789,26.523h-2.882V15.662c-1.053,0.985-2.294,1.713-3.723,2.185v-2.615
	c0.752-0.246,1.569-0.713,2.451-1.4s1.487-1.489,1.815-2.405h2.338V26.523z"/>
<g>
	<g>
		<path fill="#FFFFFF" d="M68.184,58.218c0,1.951-1.596,3.548-3.547,3.548h-50.46c-1.951,0-3.548-1.597-3.548-3.548V20.781
			c0-1.951,1.597-3.547,3.548-3.547h50.46c1.951,0,3.547,1.596,3.547,3.547V58.218z"/>
		<linearGradient id="SVGID_2_" gradientUnits="userSpaceOnUse" x1="39.4072" y1="19.4604" x2="39.4072" y2="59.5396">
			<stop  offset="0" style="stop-color:#F0F1F2"/>
			<stop  offset="1" style="stop-color:#FAFDFD"/>
		</linearGradient>
		<path fill="url(#SVGID_2_)" d="M66.17,56.346c0,1.756-1.485,3.193-3.3,3.193H15.943c-1.815,0-3.3-1.438-3.3-3.193V22.653
			c0-1.756,1.484-3.192,3.3-3.192H62.87c1.814,0,3.3,1.437,3.3,3.192V56.346z"/>
	</g>
	<g>
		<path fill="none" stroke="#A2A9AD" stroke-width="1.419" stroke-miterlimit="10" d="M68.184,58.218
			c0,1.951-1.596,3.548-3.547,3.548h-50.46c-1.951,0-3.548-1.597-3.548-3.548V20.781c0-1.951,1.597-3.547,3.548-3.547h50.46
			c1.951,0,3.547,1.596,3.547,3.547V58.218z"/>
	</g>
</g>
<path fill="#676767" d="M44.458,40.757v2.677H34.355c0.109-1.012,0.438-1.971,0.984-2.877c0.547-0.906,1.627-2.107,3.241-3.605
	c1.299-1.21,2.096-2.031,2.39-2.461c0.396-0.595,0.595-1.183,0.595-1.764c0-0.643-0.173-1.137-0.518-1.482
	c-0.346-0.345-0.822-0.518-1.432-0.518c-0.602,0-1.08,0.181-1.436,0.543c-0.355,0.362-0.561,0.964-0.615,1.805l-2.872-0.288
	c0.171-1.586,0.708-2.725,1.61-3.415c0.902-0.691,2.031-1.036,3.385-1.036c1.483,0,2.649,0.399,3.497,1.2
	c0.848,0.8,1.272,1.795,1.272,2.984c0,0.677-0.122,1.321-0.364,1.933c-0.243,0.612-0.628,1.253-1.154,1.923
	c-0.349,0.444-0.978,1.083-1.887,1.918c-0.909,0.834-1.485,1.388-1.729,1.661c-0.242,0.274-0.439,0.541-0.59,0.8H44.458z"/>
<path fill="none" stroke="#FBCB45" stroke-width="3" stroke-miterlimit="10" d="M78.58,77.427c0,2.09-1.661,3.797-3.691,3.797
	H22.382c-2.03,0-3.69-1.707-3.69-3.797V37.354c0-2.088,1.66-3.796,3.69-3.796h52.507c2.03,0,3.691,1.708,3.691,3.796V77.427z"/>
<g id="XMLID_1_">
	<g>
		<path fill="#FFFFFF" d="M77.475,76.258c0,1.951-1.596,3.548-3.547,3.548h-50.46c-1.951,0-3.548-1.597-3.548-3.548V38.822
			c0-1.951,1.597-3.547,3.548-3.547h50.46c1.951,0,3.547,1.596,3.547,3.547V76.258z"/>
		<linearGradient id="SVGID_3_" gradientUnits="userSpaceOnUse" x1="48.6982" y1="37.501" x2="48.6982" y2="77.5796">
			<stop  offset="0" style="stop-color:#F0F1F2"/>
			<stop  offset="1" style="stop-color:#FAFDFD"/>
		</linearGradient>
		<path fill="url(#SVGID_3_)" d="M75.461,74.387c0,1.756-1.485,3.192-3.3,3.192H25.234c-1.815,0-3.3-1.437-3.3-3.192V40.693
			c0-1.756,1.484-3.192,3.3-3.192h46.927c1.814,0,3.3,1.437,3.3,3.192V74.387z"/>
	</g>
	<g>
		<path fill="none" stroke="#A2A9AD" stroke-width="1.419" stroke-miterlimit="10" d="M77.475,76.258
			c0,1.951-1.596,3.548-3.547,3.548h-50.46c-1.951,0-3.548-1.597-3.548-3.548V38.822c0-1.951,1.597-3.547,3.548-3.547h50.46
			c1.951,0,3.547,1.596,3.547,3.547V76.258z"/>
	</g>
</g>
<path fill="#676767" d="M43.703,59.895l2.79-0.339c0.088,0.711,0.328,1.256,0.718,1.631c0.39,0.377,0.861,0.564,1.415,0.564
	c0.595,0,1.096-0.226,1.502-0.677c0.407-0.452,0.61-1.06,0.61-1.825c0-0.725-0.194-1.3-0.584-1.724s-0.865-0.636-1.426-0.636
	c-0.369,0-0.811,0.072-1.323,0.215l0.318-2.348c0.779,0.02,1.374-0.148,1.784-0.508s0.615-0.836,0.615-1.432
	c0-0.506-0.15-0.908-0.451-1.209s-0.7-0.451-1.2-0.451c-0.492,0-0.912,0.17-1.261,0.512s-0.562,0.842-0.636,1.498l-2.657-0.451
	c0.185-0.91,0.464-1.637,0.836-2.18c0.373-0.543,0.893-0.971,1.56-1.282c0.666-0.312,1.413-0.466,2.24-0.466
	c1.416,0,2.551,0.451,3.405,1.354c0.704,0.738,1.057,1.572,1.057,2.502c0,1.32-0.722,2.373-2.164,3.158
	c0.861,0.186,1.55,0.6,2.066,1.242s0.774,1.418,0.774,2.328c0,1.318-0.482,2.443-1.446,3.373c-0.964,0.931-2.164,1.396-3.6,1.396
	c-1.36,0-2.489-0.392-3.385-1.175S43.847,61.159,43.703,59.895z"/>
<g>
	<linearGradient id="SVGID_4_" gradientUnits="userSpaceOnUse" x1="22.5479" y1="55.0215" x2="14.5479" y2="82.5214">
		<stop  offset="0" style="stop-color:#F6B93C"/>
		<stop  offset="0.0341" style="stop-color:#F6B53A"/>
		<stop  offset="0.2023" style="stop-color:#F3A633"/>
		<stop  offset="0.393" style="stop-color:#F29C2E"/>
		<stop  offset="0.6231" style="stop-color:#F1962B"/>
		<stop  offset="1" style="stop-color:#F0942A"/>
	</linearGradient>
	<path fill="url(#SVGID_4_)" d="M24.448,65.637l8.522,8.555V48.929L8.203,49.331l7.428,7.456
		c-4.562,5.018-20.488,25.244,6.841,37.215C22.472,94.002,7.121,79.278,24.448,65.637z"/>
	<g>
		<linearGradient id="SVGID_5_" gradientUnits="userSpaceOnUse" x1="24.2822" y1="55.1094" x2="-1.3598" y2="105.5664">
			<stop  offset="0" style="stop-color:#F9DB47"/>
			<stop  offset="0.0261" style="stop-color:#F8D244"/>
			<stop  offset="0.083" style="stop-color:#F6C33E"/>
			<stop  offset="0.1499" style="stop-color:#F5B63A"/>
			<stop  offset="0.2322" style="stop-color:#F3AE37"/>
			<stop  offset="0.3465" style="stop-color:#F3A936"/>
			<stop  offset="0.6503" style="stop-color:#F3A735"/>
			<stop  offset="1" style="stop-color:#F0942A"/>
		</linearGradient>
		<path fill="url(#SVGID_5_)" d="M23.063,94.925l-3.636-2.05c-6.476-3.653-11.159-9.02-12.222-14.005
			c-1.997-9.371,5.227-18.565,8.425-22.083l-7.427-7.456l24.767-0.025V74.19l-8.522-8.554c-5.218,4.107-7.987,8.725-8.231,13.722
			c-0.24,4.913,3.354,10.315,4.535,12.092L23.063,94.925z M12.942,51.255l4.104,4.121c0.754,0.754,0.782,1.966,0.064,2.756
			c-2.991,3.29-9.754,11.856-7.949,20.321c0.744,3.49,3.565,7.238,7.646,10.323c-1.384-2.638-2.755-6.122-2.59-9.516
			c0.273-5.602,3.299-10.713,8.993-15.195c0.767-0.607,1.962-0.536,2.655,0.162l5.104,5.122V51.258L12.942,51.255z"/>
	</g>
	<path fill="#7B5020" d="M24.777,81.949"/>
	<path fill="none" stroke="#7B5020" stroke-width="1.5" stroke-linecap="round" stroke-linejoin="round" stroke-miterlimit="10" d="
		M24.448,65.637l8.522,8.555V49.306L8.203,49.331l7.428,7.456c-4.562,5.018-20.488,25.244,6.841,37.215
		C22.472,94.002,7.121,79.278,24.448,65.637z"/>
</g>
</svg>
